<svg width="1080" height="1080" xmlns="http://www.w3.org/2000/svg" xml:space="preserve" version="1.1">
 <desc>Created with Fabric.js 5.2.4</desc>

 <g>
  <title>Layer 1</title>
  <rect id="svg_1" fill="transparent" height="100%" width="100%" y="0" x="0"/>
  <g id="2a95d87f-8509-473e-86b4-529fdee2ba8a" transform="matrix(1 0 0 1 540 540)"/>
  <g id="9b6e2579-dff9-4e82-bc82-ab4466b4955c" transform="matrix(1 0 0 1 540 540)">
   <rect id="svg_4" fill-rule=" nonzero" fill=" rgb(255,255,255)" stroke-miterlimit="4" stroke-linejoin=" miter" stroke-dashoffset="0" stroke-linecap=" butt" stroke-dasharray=" none" stroke=" none" height="1080" width="1080" y="-540" x="-540" vector-effect="non-scaling-stroke"/>
  </g>
  <g id="svg_6" transform="matrix(0.03 0 0 -0.03 579.02 484.86)">
   <path id="svg_7" fill-rule=" nonzero" fill=" rgb(255,215,63)" stroke-miterlimit="4" stroke-linejoin=" miter" stroke-dashoffset="0" stroke-dasharray=" none" stroke=" none" stroke-linecap=" butt" d="m-494.49932,5485.41992c-16,-2 -86,-11 -155,-20c-1010,-126 -1982,-532 -2749,-1148c-663,-532 -1169,-1156 -1525,-1881c-479,-973 -649,-1977 -526,-3100c104,-942 487,-1891 1079,-2665c484,-634 1090,-1152 1789,-1529c237,-128 666,-311 864,-369c18,-6 85,-26 148,-45c157,-49 323,-89 530,-131c334,-66 526,-86 848,-86l204,0l-6,23c-15,48 -25,195 -35,512c-16,479 -30,1094 -33,1450l-3,310l88,3l87,3l0,-178c0,-98 -5,-383 -10,-633c-20,-931 -38,-1384 -60,-1459l-9,-31l122,0c200,0 511,19 656,40c865,122 1753,490 2481,1028c736,544 1328,1273 1719,2118c307,664 449,1250 492,2024c47,858 -93,1635 -447,2487c-78,188 -110,252 -237,473c-247,432 -570,861 -888,1180c-87,88 -162,160 -166,160c-5,0 -16,-17 -26,-38c-26,-55 -88,-131 -532,-643c-49,-57 -182,-209 -295,-338c-113,-129 -228,-261 -256,-295c-28,-34 -97,-111 -155,-171c-57,-61 -207,-223 -333,-360c-316,-345 -408,-445 -581,-630c-156,-167 -348,-374 -425,-459c-25,-28 -102,-111 -171,-186c-361,-388 -420,-452 -484,-524c-38,-43 -79,-92 -89,-110c-19,-31 -19,-32 5,-106l24,-75l1885,-6c1037,-3 1966,-9 2065,-13c939,-35 1105,-47 1105,-76c0,-19 -161,-37 -440,-50c-424,-19 -1147,-29 -2870,-40c-949,-6 -1730,-13 -1736,-15c-7,-2 -20,-27 -29,-55c-14,-43 -15,-56 -5,-74c7,-11 78,-81 159,-155c80,-74 245,-227 366,-340c121,-112 274,-254 340,-315c65,-61 194,-181 285,-266c91,-85 185,-173 210,-194c25,-21 68,-60 95,-86c28,-25 198,-183 380,-351c479,-442 694,-648 1224,-1174c445,-442 571,-573 571,-596c0,-54 -203,107 -880,700c-223,195 -452,397 -510,450c-143,131 -433,397 -614,565c-83,77 -205,190 -271,250c-66,61 -158,147 -205,191c-108,103 -320,299 -475,440c-66,60 -185,170 -265,246c-198,186 -509,468 -537,486c-21,14 -28,13 -72,-6c-28,-11 -59,-21 -71,-21c-12,0 -24,-9 -29,-22c-10,-27 -16,-559 -13,-1174l2,-441l55,-7c85,-10 231,-61 318,-110c295,-168 489,-483 491,-796c1,-160 -25,-184 -211,-200c-152,-13 -1340,-13 -1502,0c-193,15 -217,38 -214,205c2,159 60,340 151,474c88,131 251,276 387,343c83,42 201,78 277,86c62,6 73,10 77,27c2,11 0,376 -4,811l-7,791l-64,20l-63,21l-89,-92c-49,-50 -143,-149 -208,-221c-65,-71 -189,-204 -274,-295c-385,-411 -559,-598 -610,-654c-30,-33 -131,-143 -225,-244c-93,-101 -251,-272 -349,-381c-392,-430 -1353,-1415 -1625,-1666c-95,-87 -120,-103 -128,-79c-8,25 339,447 702,854c61,69 162,184 225,255c62,72 206,231 319,354c113,123 258,281 321,351c63,69 228,247 365,395c138,148 336,362 441,475c104,113 248,268 320,344c71,77 185,201 253,275c68,75 172,186 231,247c124,127 180,198 180,224c0,10 -6,31 -14,47c-7,15 -20,42 -28,58l-14,30l-1389,6c-1846,9 -2994,30 -3417,64c-102,8 -198,17 -213,21c-32,8 -28,25 7,35c36,9 320,27 623,39c235,10 2397,28 3770,33l620,2l23,64l23,64l-33,35c-35,36 -284,268 -498,462c-69,63 -199,184 -290,270c-91,85 -241,225 -335,310c-93,85 -242,223 -330,305c-89,83 -246,228 -351,324c-104,96 -263,245 -354,331c-91,86 -225,212 -299,281c-220,203 -1065,1049 -1115,1117c-47,62 -53,92 -16,72c47,-25 586,-471 780,-646c129,-116 273,-244 380,-339c259,-230 733,-664 1200,-1099c243,-226 321,-299 750,-697c665,-616 621,-581 692,-562c24,7 59,19 79,27l36,15l6,1868c8,2500 25,3183 77,3183c33,0 48,-192 60,-775c10,-482 30,-3138 30,-3897c0,-373 1,-388 19,-388c10,0 35,-7 56,-16c21,-8 48,-13 61,-10c12,3 91,81 175,174c84,92 189,205 233,252c122,129 345,368 402,430c27,30 108,118 179,195c72,77 180,194 240,260c61,66 198,214 305,330c107,116 269,291 360,390c91,99 241,260 335,360c245,260 1161,1174 1222,1220c42,31 50,41 41,52c-25,31 -330,284 -438,364c-700,521 -1529,873 -2396,1018c-98,16 -228,35 -289,41c-107,11 -1050,23 -1110,14zm-3650,-6607c35,-35 55,-89 55,-147c0,-111 70,-249 183,-363c116,-116 238,-166 407,-167c165,0 308,58 426,175c96,94 144,193 175,358c13,74 28,126 41,142c40,51 143,40 179,-19c23,-38 24,-85 4,-202c-47,-268 -230,-506 -472,-615c-117,-53 -214,-73 -348,-73c-183,0 -317,41 -469,143c-190,129 -312,315 -351,536c-27,156 -19,211 37,245c50,30 94,26 133,-13zm7020,2c16,-18 28,-54 44,-139c50,-267 185,-434 410,-512c55,-19 86,-23 191,-23c187,1 281,37 404,158c109,107 185,251 187,356c1,68 31,144 68,168c50,34 96,30 137,-11c31,-31 34,-39 34,-93c0,-73 -23,-200 -49,-277c-106,-303 -407,-522 -746,-543c-101,-6 -239,14 -327,47c-208,78 -422,294 -493,497c-34,99 -58,228 -52,286c4,43 10,56 42,85c34,31 42,34 82,29c30,-3 53,-13 68,-28z" vector-effect="non-scaling-stroke"/>
  </g>
  <g id="svg_8" transform="matrix(0.03 0 0 -0.03 269.2 509.33)">
   <path id="svg_9" fill-rule=" nonzero" fill=" rgb(205,117,53)" stroke-miterlimit="4" stroke-linejoin=" miter" stroke-dashoffset="0" stroke-dasharray=" none" stroke=" none" stroke-linecap=" butt" d="m774.49998,4673c-6,-17 -287,-687 -408,-973c-94,-223 -191,-450 -290,-685c-106,-251 -203,-480 -345,-820c-50,-121 -111,-265 -135,-320c-24,-55 -80,-188 -125,-295c-120,-285 -632,-1491 -700,-1650c-15,-36 -85,-200 -155,-365c-70,-165 -211,-493 -312,-730l-185,-430l-5,-697l-6,-698l1417,0l1416,0l0,-850l0,-850l724,0l724,0l7,844l7,843l91,7c49,3 201,6 337,6l247,0l7,46c3,26 6,330 6,675l0,629l-350,0l-350,0l0,3165l0,3165l-805,0c-758,0 -806,-1 -812,-17zm167,-4584l0,-1732l-720,5c-396,2 -723,7 -726,11c-10,10 3,46 91,252c79,185 320,757 360,855c82,200 389,927 500,1185c24,55 88,208 143,340c55,132 132,314 172,405c39,91 87,206 107,255c39,101 63,155 69,155c2,0 4,-779 4,-1731z" vector-effect="non-scaling-stroke"/>
  </g>
  <g id="svg_10" transform="matrix(0.03 0 0 -0.03 874.99 510.56)">
   <path id="svg_11" fill-rule=" nonzero" fill=" rgb(205,117,53)" stroke-miterlimit="4" stroke-linejoin=" miter" stroke-dashoffset="0" stroke-dasharray=" none" stroke=" none" stroke-linecap=" butt" d="m-42.16677,4683.87988c-35,-4 -40,-8 -63,-61c-36,-81 -178,-412 -274,-642c-96,-228 -233,-551 -370,-875c-54,-126 -135,-318 -180,-425c-81,-193 -221,-524 -327,-775c-30,-71 -99,-233 -153,-360c-54,-126 -141,-333 -195,-460c-54,-126 -130,-306 -170,-400c-40,-93 -110,-258 -155,-365c-45,-107 -102,-240 -125,-295c-24,-55 -72,-170 -108,-255c-36,-85 -144,-344 -242,-575c-98,-231 -188,-445 -200,-475c-13,-30 -52,-126 -89,-212l-66,-158l0,-670l0,-670l1128,-1c620,-1 1255,-5 1412,-8l285,-6l6,-625c3,-344 7,-723 8,-842l1,-218l729,0l729,0l7,845l7,845l27,1c14,1 166,4 336,8l310,6l0,670l0,670l-342,3l-343,2l0,3159l0,3158l-157,6c-164,7 -1360,7 -1426,0zm113,-4607l0,-1703l-77,-7c-97,-8 -461,-8 -975,1l-405,6l28,66c35,85 167,398 259,616c40,94 83,195 95,225c12,30 55,132 95,225c39,94 97,229 127,300c30,72 65,155 78,185c12,30 90,215 173,410c365,863 467,1104 524,1242c34,81 65,145 70,142c4,-3 8,-772 8,-1708z" vector-effect="non-scaling-stroke"/>
  </g>
  <g id="svg_2" transform="matrix(0.0693557 0 0 -0.0695597 577.863 518.543)">
   <path id="svg_12" fill-rule=" nonzero" fill=" rgb(205,117,53)" stroke-miterlimit="4" stroke-linejoin=" miter" stroke-dashoffset="0" stroke-dasharray=" none" stroke=" none" stroke-linecap=" butt" d="m-284.40314,3048.76574c-488,-69 -882,-231 -1264,-518c-135,-102 -380,-349 -490,-495c-253,-334 -414,-713 -487,-1141c-33,-195 -37,-527 -10,-735c48,-371 176,-738 364,-1037l67,-106l0,-381l0,-382l-40,-38c-38,-36 -40,-41 -40,-100c0,-40 6,-70 16,-87c47,-71 167,-73 229,-4c11,12 32,28 47,36c15,8 30,23 33,34c7,23 -18,70 -38,70c-6,0 -31,20 -55,44l-42,44l0,302c0,166 4,300 8,298c4,-2 45,-44 90,-95c283,-317 654,-564 1070,-712l92,-33l0,-379c0,-333 -2,-379 -15,-379c-22,0 -100,-75 -119,-114c-9,-19 -16,-52 -16,-75c0,-53 2,-53 234,-49c206,3 211,5 202,66c-8,56 -54,121 -107,155l-49,30l0,353c0,195 1,354 3,354c1,0 58,-11 127,-24c191,-38 353,-49 593,-43c200,5 371,25 487,57c19,6 38,10 43,10c4,0 7,-162 7,-359l0,-359l-23,-6c-30,-7 -91,-69 -111,-111c-9,-18 -16,-51 -16,-73c0,-36 3,-40 31,-46c52,-10 369,-7 390,4c53,29 -23,179 -113,226l-28,15l0,373l0,373l133,48c160,59 398,178 527,265c181,121 256,184 427,357l173,173l0,-305l0,-305l-41,-37c-23,-20 -50,-42 -61,-48c-33,-16 -40,-50 -17,-79c11,-14 27,-26 34,-26c8,0 19,-9 25,-21c30,-56 135,-77 197,-39c46,28 66,72 60,134c-4,44 -10,55 -46,87l-41,37l0,381l0,382l38,57c105,156 211,372 275,564c206,610 188,1237 -52,1837c-74,183 -246,471 -378,632c-72,88 -337,351 -408,406c-362,279 -749,449 -1195,523c-169,29 -566,36 -720,14zm660,-220c235,-34 465,-106 695,-219c684,-333 1162,-971 1296,-1730c42,-236 36,-599 -12,-855c-119,-624 -523,-1212 -1066,-1549c-345,-214 -728,-336 -1093,-350c-271,-10 -481,1 -635,33c-229,48 -483,141 -671,244c-567,312 -994,856 -1154,1469c-214,818 10,1671 596,2269c384,391 883,634 1444,704c102,12 471,3 600,-16z" vector-effect="non-scaling-stroke"/>
  </g>
  <g id="svg_3" transform="matrix(0.070458 0 0 -0.0711602 469.044 533.381)">
   <path id="svg_13" fill-rule=" nonzero" fill=" rgb(205,117,53)" stroke-miterlimit="4" stroke-linejoin=" miter" stroke-dashoffset="0" stroke-dasharray=" none" stroke=" none" stroke-linecap=" butt" d="m-270.59146,216.30972c-36,-21 -12,-156 43,-235c128,-187 379,-215 545,-62c96,89 150,282 84,303c-43,14 -57,-2 -75,-80c-19,-87 -56,-143 -117,-179c-165,-96 -353,-13 -391,173c-17,84 -43,107 -89,80z" vector-effect="non-scaling-stroke"/>
  </g>
  <g id="svg_5" transform="matrix(0.0727686 0 0 -0.072015 580.15 566.717)">
   <path id="svg_14" fill-rule=" nonzero" fill=" rgb(205,117,53)" stroke-miterlimit="4" stroke-linejoin=" miter" stroke-dashoffset="0" stroke-dasharray=" none" stroke=" none" stroke-linecap=" butt" d="m-78.87266,286.36111c-168,-25 -314,-174 -343,-350c-12,-76 2,-112 46,-121c39,-9 691,-9 730,0c48,10 62,46 48,126c-31,179 -173,319 -350,345c-37,5 -70,9 -73,9c-3,-1 -29,-5 -58,-9z" vector-effect="non-scaling-stroke"/>
  </g>
  <g id="svg_15" transform="matrix(0.0695418 0 0 -0.0703583 689.306 534.672)">
   <path id="svg_16" fill-rule=" nonzero" fill=" rgb(205,117,53)" stroke-miterlimit="4" stroke-linejoin=" miter" stroke-dashoffset="0" stroke-dasharray=" none" stroke=" none" stroke-linecap=" butt" d="m-408.68668,234.16666c-36,-21 -12,-156 43,-235c128,-187 379,-215 545,-62c96,89 150,282 84,303c-43,14 -57,-2 -75,-80c-19,-87 -56,-143 -117,-179c-165,-96 -353,-13 -391,173c-17,84 -43,107 -89,80z" vector-effect="non-scaling-stroke"/>
  </g>
 </g>
</svg>