<?xml version="1.0" encoding="UTF-8"?>
<svg id="Layer_2" data-name="Layer 2" xmlns="http://www.w3.org/2000/svg" viewBox="0 0 210.24 190.47">
  <defs>
    <style>
      .cls-1 {
        fill: #e8e2dc;
      }

      .cls-2 {
        fill: #fff;
      }

      .cls-3 {
        fill: #d1c4ba;
      }
    </style>
  </defs>
  <g id="Blancos">
    <path class="cls-2" d="m204.89,93.53c-.69-7.2-3.01-12.28-5.29-16.37-11.65-20.97-22.83-30-44.31-35.78-4.35-1.17-12.85-5.14-15.74-7.28-.14-.88-.1-2.9.79-5.69,1.93-6.08,1.09-12.26-2.36-17.42-4.02-6.02-11.4-9.95-20.29-10.81-.28-.03-.56-.06-.85-.07-.9-.07-1.8-.1-2.69-.1-3.84,0-9.41.64-14.19,3.67-5.59,3.55-7.97,9.28-9.7,13.46-.23.56-.56,1.36-.76,1.77-3.12,4.61-7.86,9.02-14.1,13.12-8.61,5.66-18.71,9.92-27.45,13.34-12.35,4.83-26.25,11.53-35.6,24.63C4.96,80.35.61,93.14.11,105.98c-.44,11.19.09,25.61,8.06,37.79,1.84,2.81,4.1,5.48,6.56,7.74.69.64,1.39,1.16,2.16,1.68,4.18,10.77,13.94,20.58,26.93,26.66,7.27,3.4,16.33,5.35,24.84,5.35,4.62,0,9.01-.54,13.11-1.6,10.73,6.1,21.35,6.78,32.14,6.86h.69c20.29,0,31.4-7.52,38.06-13.71,2.92.44,5.75.66,8.45.66h0c10.9,0,20.31-3.48,28.75-10.63,10.5-8.89,17.42-21.72,19.5-36.14,1.04-7.24,2.45-24.17-4.48-37.12Z"/>
  </g>
  <g id="Layer_1-2" data-name="Layer 1">
    <g>
      <path class="cls-1" d="m83.67,44.56c-9.54,6.27-20.4,10.93-30.23,14.78-10.91,4.26-21.87,9.59-28.86,19.38-5.79,8.1-9.09,17.92-9.48,27.85s.12,20.59,5.62,28.99c1.15,1.76,2.6,3.48,4.15,4.9.58.53,4.89,2.97,4.94,3.34,1.13,7.88,8.83,17.08,20.36,22.47,8.76,4.1,23.05,6.03,33.69.62,9.27,7.6,18.18,8.49,30.17,8.58,21.43.17,27.98-9.35,33.73-15.09,17.33,4.84,26.22.22,32.42-5.03,8.03-6.8,12.84-16.38,14.35-26.83,1.3-9.04,1.34-22.86-4.42-30.34.04-5.91-1.39-9.73-3.61-13.73-9.53-17.16-17.24-23.77-35.09-28.57-5.68-1.53-19.76-7.56-23.6-12.28-4.41-5.43-3.76-13.4-1.75-19.71,2.67-8.42-13.15-10.65-18.03-7.54-2.53,1.61-4.06,7.93-5.78,10.53-4.76,7.2-11.4,12.97-18.57,17.69Z"/>
      <path class="cls-3" d="m64.71,62.5c-6.15,5.58-13.26,10.01-19.67,15.08-14.23,10.66-19.97,24.53-19.35,42.03.23,8.16,1.45,16.33,4.12,24.18-3.75-7.42-5.64-15.74-6.27-24.07-1.1-12.56,1.91-26.12,10.69-35.56,8.53-9.38,20.24-14.64,30.48-21.66h0Z"/>
      <path class="cls-3" d="m94.55,58.48c-1.59,9.48-3.72,19.01-7.7,27.91-3.8,8.84-7.79,17.57-10.56,26.66-6.08,18.02-5.07,38.76,7.56,53.84-14.8-14.18-16.37-35.94-10.19-54.65,2.9-9.32,7.05-18.09,11.24-26.74,4.26-8.53,6.94-17.78,9.64-27.02h0Z"/>
      <path class="cls-3" d="m118.48,51.13c2.55,10.01,9.64,17.42,16.08,25.13,6.46,7.78,12.58,16.09,16.72,25.55,5.9,14.18,7.87,30.34,3.68,45.2-1.48,4.89-3.8,9.6-7.21,13.36,2.93-4.14,4.82-8.85,5.91-13.7,4.03-19.53-1.03-40.39-12.04-56.83-2.69-4.21-5.7-8.22-8.74-12.24-6.08-7.87-13.05-16.24-14.41-26.47h0Z"/>
      <path class="cls-3" d="m144.5,59.99c14.49,13.92,37.37,16.79,45.47,37.26.08.3.28.64.14.93.04-.61-.5-1.14-.78-1.66-5.03-8.1-12.32-13.88-20.61-18.48-8.59-5.04-18.16-9.8-24.22-18.05h0Z"/>
      <path class="cls-3" d="m106.27,28.15c.08-3.82,1.51-7.56,3.55-10.77.46-.66.83-1.4,1.55-1.84.69-.47,1.53-.49,2.33-.55.77-.02,1.53-.04,2.29.07-.76.1-1.5.2-2.23.37-.68.16-1.42.25-1.98.69-.54.43-.85,1.12-1.22,1.71-1.91,3.23-3.33,6.64-4.29,10.31h0Z"/>
    </g>
  </g>
</svg>