<?xml version="1.0" encoding="UTF-8"?>
<svg xmlns="http://www.w3.org/2000/svg" viewBox="0 0 96.68 222.62">
  <defs>
    <style>
      .cls-1 {
        fill: #19995c;
      }

      .cls-1, .cls-2, .cls-3, .cls-4, .cls-5, .cls-6, .cls-7, .cls-8 {
        stroke-width: 0px;
      }

      .cls-2 {
        opacity: .46;
      }

      .cls-2, .cls-4, .cls-8 {
        fill: #eab520;
        mix-blend-mode: hard-light;
      }

      .cls-3 {
        fill: #008d4a;
      }

      .cls-9 {
        isolation: isolate;
      }

      .cls-4 {
        opacity: .3;
      }

      .cls-5 {
        fill: #fff;
      }

      .cls-6 {
        fill: #33a46e;
      }

      .cls-7 {
        fill: #4caf81;
      }

      .cls-8 {
        opacity: .21;
      }
    </style>
  </defs>
  <g class="cls-9">
    <g id="Layer_2" data-name="Layer 2">
      <g id="Blancos">
        <path class="cls-5" d="m57.86,222.62c-1.3,0-2.59-.11-3.86-.33-1.13.19-2.28.3-3.43.32h-.41c-.49,0-.98-.01-1.46-.04-.47-.03-.94-.07-1.41-.13-.74.09-1.49.15-2.23.17-.18,0-.37,0-.55,0-1.19,0-2.38-.09-3.55-.28-6.13-.97-11.7-4.37-16.09-9.84-.02-.02-.17-.21-.22-.27-.76-.97-1.45-1.96-2.06-2.95l-.19-.31c-.24-.4-.39-.68-.39-.68-1.95-3.65-2.43-8.06-1.21-12.01,0,0,.69-2.24.7-2.29.37-1.21.86-2.84,1.45-4.81.01-.05.03-.09.04-.13.71-2.35,1.55-5.17,2.47-8.3l-.13-2.16c-.09-1.45-.18-2.93-.27-4.42l-.29-4.47c-.13-2-.28-4-.42-5.98-.07-.99-.15-1.97-.22-2.94-1.37-17.54-2.41-22.36-2.7-23.42l-.28-1.07c-.09-.1-.18-.21-.27-.32-1.43-1.73-2.61-3.79-3.52-6.11-.73-1.86-1.17-3.58-1.48-4.88-.79-3.37-.97-6.49-1.03-8.54-.02-.5-.03-1-.04-1.5,0-.12-.03-.6-.04-.69-.02-.55-.01-1.12.02-1.7,0-.01.01-.2.02-.27.03-.45.07-.91.13-1.39.01-.1.03-.21.05-.33.05-.34.1-.68.17-1.02-.06-.3-1.3-6.19-1.3-6.19l-1.12-5.39c-1.48-1.91-2.62-4.11-3.43-6.57-.21-.65-.39-1.26-.54-1.88-.08-.28-.15-.6-.22-.91-.24-1.1-.42-2.21-.56-3.34-.23-1.91-.33-3.95-.29-6.04.02-.92.06-1.82.13-2.7.02-.34.05-.67.08-.99-1.56-1.87-2.86-4.03-3.88-6.43-.21-.47-.4-.92-.56-1.38-.02-.06-.04-.12-.06-.18-.1-.3-.2-.59-.28-.89-.2-.63-.44-1.42-.64-2.34-.32-1.45-.72-3.4-.93-5.57,0-.02-.04-.14-.06-.18-.35-1.09-.63-2.19-.84-3.27-.2-.99-.35-2.05-.47-3.2-.27-2.69-.24-5.48.07-8.79,0-.06.01-.12.02-.18.09-.87.23-1.7.42-2.47.01-.39.03-1.01.12-1.76.03-.3.07-.61.11-.95,0-.04-.02-.08-.03-.12-.98-4.22-.93-8.65.16-12.82.21-.8.45-1.52.73-2.21.13-.32.28-.65.43-.97.09-.19.19-.41.32-.65.02-.12.04-.23.06-.34.11-.56.23-1.09.37-1.59.15-.52.28-.92.42-1.31.1-.29.22-.6.33-.87h0c.32-.77.69-1.5,1.12-2.23.16-.28.34-.55.52-.81h0c.38-.56.79-1.09,1.23-1.59.05-.09.11-.19.16-.28.07-.17.26-.6.28-.64.64-1.36,1.42-2.62,2.33-3.74,2.11-2.57,4.83-4.38,7.89-5.31,1.52-.46,3.09-.69,4.68-.69,3.2,0,6.32.95,9.02,2.74.7.47,1.36.98,1.98,1.54C37.52.37,43.94,0,45.51,0c.37,0,.78.02,1.15.04,4.75.35,9.02,2.71,12.03,6.65.13.17.25.34.37.5.08.08.15.16.23.25.36.26.71.54,1.05.83.12-.14.23-.28.35-.42,3.22-3.74,7.77-5.86,12.52-5.86,1.31,0,2.62.16,3.9.48,2.5.62,4.76,1.81,6.73,3.53,2.18,1.91,3.48,4.05,4.25,5.62.06.1.13.19.19.29.5.52.97,1.07,1.4,1.65.16.22.31.44.46.66.47.69.87,1.4,1.22,2.15.13.27.26.57.38.86.17.41.33.83.49,1.29.17.53.32,1.04.45,1.58.03.11.05.23.08.34.12.2.22.39.31.54.18.33.36.68.54,1.08.32.71.59,1.42.82,2.14.1.32.2.69.3,1.06.83,3.07,1.11,6.28.8,9.48-.07.76-.17,1.51-.3,2.23,0,.05-.02.1-.03.14.04.25.16.91.16.91.1.63.18,1.26.24,1.9.22.77.4,1.6.53,2.48.11.75.19,1.45.27,2.15.4,3.63.38,6.86-.07,9.88-.01.07-.02.14-.03.21-.16,1-.37,2.01-.63,3.02-.02.07-.06.23-.06.24-.04.96-.13,1.93-.25,2.97-.11.89-.25,1.78-.4,2.66-.15.87-.33,1.6-.46,2.07-.1.43-.21.86-.33,1.28-.69,2.28-1.65,4.41-2.86,6.35-.8,1.28-1.7,2.46-2.7,3.54.05.48.09.97.12,1.46.14,2.08.15,4.12.01,6.06-.08,1.13-.21,2.26-.39,3.34-.09.54-.2,1.07-.31,1.59-.61,2.77-1.64,5.27-3.06,7.45-.45,4.15-.95,8.81-1.47,13.63l-1.17,10.91s.04.19.05.2c.11.49.2.97.27,1.44.07.43.12.82.15,1.19.01.09.02.18.03.27.05.51.07.99.08,1.44,0,.1,0,.67,0,.72.02.5.03,1.01.04,1.51.01.84.01,1.67,0,2.51-.06,2.19-.26,4.17-.6,6.06-.31,1.72-.93,5.1-2.77,8.57-.77,5.01-1.97,11.26-3.64,18.92,2.69,17.47,5.87,34.92,5.9,35.11.17.92.25,1.85.25,2.78,0,6.08-3.32,9.74-4.92,11.5l-.11.12c-2.47,2.7-6.62,6.28-12.31,8.04-.34.11-.67.2-1,.29-1.47.39-3.03.64-4.59.73-.06,0-.35.02-.44.02-.28.01-.56.02-.85.02Z"/>
      </g>
      <g id="Layer_1-2" data-name="Layer 1">
        <g>
          <g>
            <path class="cls-6" d="m62.75,63.25s-8.09,56.37-9.06,69.26-18.07,68.35-18.07,68.35c0,0,5.71,10.5,14.22,4.33,0,0,12.62-46.68,14.92-66.11,2.3-19.43,5.92-56.42,6.76-59.89s3.26-15.06,3.26-15.06l-12.02-.86Z"/>
            <path class="cls-6" d="m70.52,21.98c-.05.15-.09.3-.13.45-.37,1.4.44,3.81,2.28,2.81,1.13-.61,1.8-2.26,2.09-3.44.21-.85.07-1.78-.26-2.58-.2-.49-.55-1.59-1.14-1.73-.86-.22-1.53,1.5-1.84,2.12-.38.77-.74,1.55-1,2.37Z"/>
            <path class="cls-6" d="m70.9,25.52c-.39.88-.74,1.79-.81,2.75s.16,1.97.82,2.67,1.78,1,2.62.54c.63-.34,1-1.01,1.29-1.66,1.12-2.58,1.64-6.45.58-9.18-.4-1.04-.89-1.1-1.58-.25-1.22,1.49-2.14,3.38-2.92,5.13Z"/>
            <path class="cls-6" d="m78.35,27.84c.06.81.07,1.65-.26,2.39s-1.09,1.34-1.9,1.25c-.83-.09-1.42-.86-1.76-1.63-.97-2.24-.45-5.05,1.26-6.8,1.13-1.16,1.64-.49,1.93.7.33,1.36.62,2.69.73,4.09Z"/>
            <path class="cls-6" d="m76.6,34.52c-.03.68,0,1.39.37,1.96s1.14.93,1.74.62c.42-.22.64-.69.8-1.14.81-2.27.86-4.82.14-7.12-.68-2.14-1.69.22-2.05,1.12-.59,1.45-.92,2.99-.98,4.55Z"/>
            <path class="cls-6" d="m67.74,26.83c-.68,1.43-1.2,3.08-.92,4.63.15.83.57,1.62,1.23,1.87.65.25,1.41-.08,1.94-.66s.86-1.38,1.11-2.18c.44-1.45.65-2.98.75-4.5.07-1.18.02-3.51-1.44-3.06-1.26.38-2.09,2.69-2.67,3.9Z"/>
            <path class="cls-6" d="m66.98,31.79c-.42.87-.79,1.78-.86,2.74s.22,1.98.97,2.7,2.01,1.03,2.95.59c.7-.33,1.11-.99,1.42-1.65,1.21-2.57,1.72-6.44.49-9.19-.47-1.05-1.02-1.12-1.78-.28-1.34,1.47-2.34,3.35-3.18,5.1Z"/>
            <path class="cls-6" d="m73.2,28.69c.23-.57.5-1.15.99-1.57s1.25-.63,1.85-.37c.68.3.92,1.05,1.09,1.71.29,1.12.58,2.23.86,3.35.58,2.23.91,9.06-3.77,7.03-3.82-1.66-2.05-7.55-1.02-10.14Z"/>
            <path class="cls-6" d="m80.22,42.15c-.02-.55-.07-1.09-.16-1.63-.22-1.34-.48-2.69-.89-3.98-.19-.6-.39-1.48-.88-1.94-.78-.75-1.32-.06-1.94.66-2.71,3.18-3.56,7.27-3.27,11.22.09,1.21.44,2.58,1.59,3.1.71.32,1.59.21,2.29-.15s1.26-.94,1.7-1.58c1.17-1.68,1.61-3.7,1.54-5.7Z"/>
            <path class="cls-6" d="m65.56,34.32c-1.13.19-1.78,2.7-2.15,3.53-.7,1.55-1.33,3.14-1.73,4.79-.03.14-.07.29-.1.44-.37,1.84-.33,4.47,2,5.15,7.84,2.28,5.34-14.48,1.99-13.9Z"/>
            <path class="cls-6" d="m69.49,34.48c.37-.7.79-1.41,1.44-1.87s1.57-.61,2.23-.17c.74.5.88,1.5.96,2.38.13,1.49.26,2.98.4,4.47.26,2.98-.61,11.84-5.7,8.45-4.15-2.77-1-10.09.68-13.26Z"/>
            <path class="cls-6" d="m60.28,49.7c-.47,1.65-.48,3.32.36,4.84.8,1.45,2.54,2.44,4.14,2.05,1.2-.29,2.13-1.27,2.79-2.31,1.37-2.17,1.8-4.91,1.28-7.45-.23-1.15-.83-2.32-1.39-3.34-.7-1.28-1.73-3.06-2.96-1.31-1.41,2.01-3.45,4.75-4.23,7.52Z"/>
            <path class="cls-6" d="m78.02,44.08c.5-.62,1.28-1.29,2-.95.53.26.69.93.77,1.51.36,2.49.57,5.03.2,7.51s-1.35,4.94-3.11,6.74c-.62.63-1.36,1.2-2.23,1.38s-1.88-.1-2.36-.84c-.37-.57-.38-1.29-.35-1.96.1-2.44.42-5.14,1.3-7.44.82-2.14,2.35-4.17,3.77-5.94Z"/>
            <path class="cls-6" d="m69.52,45.59c.37-.7.79-1.41,1.44-1.87s1.57-.61,2.23-.17c.74.5.88,1.5.96,2.38.13,1.49.26,2.98.4,4.47.26,2.98-.61,11.84-5.7,8.45-4.15-2.77-1-10.09.68-13.26Z"/>
            <path class="cls-6" d="m59.09,59.99c.21.71.47,1.42.93,2.01s1.11,1.05,1.85,1.11c1.07.1,2.09-.66,2.57-1.63s.5-2.09.38-3.17c-.28-2.5-1.37-5.39-3.2-7.2-2.32-2.29-2.91,1.92-3.06,3.61s.04,3.56.54,5.26Z"/>
            <path class="cls-6" d="m79.32,62.41c.15-.5.27-1.01.36-1.52.22-1.28.41-2.57.45-3.86.02-.6.11-1.45-.15-2.01-.43-.92-1.09-.46-1.83.01-3.23,2.05-5.18,5.48-6.12,9.13-.29,1.12-.41,2.46.41,3.28.5.5,1.27.67,1.97.56s1.34-.47,1.9-.91c1.49-1.16,2.46-2.85,3.01-4.67Z"/>
            <path class="cls-6" d="m63.71,54.03c.37-.7.79-1.41,1.44-1.87s1.57-.61,2.23-.17c.74.5.88,1.5.96,2.38.13,1.49.26,2.98.4,4.47.26,2.98-.61,11.84-5.7,8.45-4.15-2.77-1-10.09.68-13.26Z"/>
            <path class="cls-6" d="m69.14,56.11c.37-.7.79-1.41,1.44-1.87s1.57-.61,2.23-.17c.74.5.88,1.5.96,2.38.13,1.49.26,2.98.4,4.47.26,2.98-.61,11.84-5.7,8.45-4.15-2.77-1-10.09.68-13.26Z"/>
            <path class="cls-6" d="m65.94,122.75c1.04.03,1.58,2.74,1.45,3.63.09,2.45.14,4.94-.3,7.36-.3,1.67-.98,5.04-2.82,5.73-2.28.85-3.95-2.03-3.76-3.91.1-1,.48-1.94.86-2.87.71-1.74,1.42-3.48,2.12-5.22.43-1.05,1.04-4.02,2.04-4.6.14-.08.28-.12.41-.12Z"/>
            <path class="cls-6" d="m48.01,156.55c.26,1.12.85,2.37,1.98,2.56,1.2.2,2.2-.94,2.7-2.05,2.08-4.63.02-9.45.15-14.22.02-.68.68-5.02-1.03-3.93-.29.18-.49.47-.67.76-1.61,2.58-2.07,5.65-2.8,8.55-.69,2.74-.99,5.54-.34,8.33Z"/>
            <path class="cls-6" d="m54.67,107.28c-.05.81-.03,1.61.13,2.39.3,1.44,1.52,2.9,2.95,2.06,2.68-1.57,2.35-5.83,1.82-8.35-.36-1.72-.86-3.43-.9-5.19-.01-.48.01-.97-.12-1.43-.52-1.87-1.79-.51-2.16.52-.43,1.17-.38,2.48-.57,3.7-.31,2.01-1.01,4.18-1.15,6.3Z"/>
            <path class="cls-6" d="m72.09,75.57c.87-.25.89,1.12.98,1.84.31,2.42.39,5.25-.02,7.67-.21,1.27-.56,2.56-1.39,3.55-1.28,1.53-3.54,1.74-4.69-.05-1.18-1.84-.03-4,.89-5.67.71-1.29,1.44-2.57,2.17-3.85.36-.63,1.33-3.21,1.97-3.46.03-.01.06-.02.08-.03Z"/>
            <path class="cls-6" d="m80.1,55.45c.43-1.05.73-2.16.9-3.29.37-2.49.16-5.02-.2-7.51-.07-.51-.22-1.07-.6-1.37.03-.38.04-.75.03-1.13-.02-.55-.07-1.09-.16-1.63-.21-1.31-.47-2.62-.87-3.89.13-.2.23-.44.31-.66.81-2.27.86-4.82.14-7.12-.37-1.18-.85-.99-1.26-.43,0-.19-.02-.38-.03-.57-.11-1.4-.4-2.73-.73-4.09-.27-1.1-.73-1.74-1.7-.89-.08-.79-.25-1.54-.51-2.22-.21-.54-.44-.81-.71-.83-.05-.2-.12-.39-.19-.58-.2-.49-.55-1.59-1.14-1.73-.86-.22-1.53,1.5-1.84,2.12-.38.77-.74,1.55-1,2.37-.05.15-.09.3-.13.45-.05.17-.07.35-.08.55-1.2.48-2,2.67-2.56,3.85-.68,1.43-1.2,3.08-.92,4.63.03.14.07.28.11.42-.38.81-.71,1.64-.8,2.52-.19-.08-.39-.11-.58-.08-1.13.19-1.78,2.7-2.15,3.53-.7,1.55-1.33,3.14-1.73,4.79-.03.14-.07.29-.1.44-.21,1.04-.27,2.32.12,3.37-.59,1.05-1.1,2.14-1.41,3.24-.08.28-.14.55-.19.83-1.09.41-1.43,2.98-1.54,4.21-.15,1.77.04,3.56.54,5.26.21.71.47,1.42.93,2.01.26.34.6.62.97.83,0,1.46.34,2.8,1.27,3.8-.79,5.55-2.44,17.22-4.09,29.38-.6-.6-1.48.45-1.79,1.28-.43,1.17-.38,2.48-.57,3.7-.31,2.01-1.01,4.18-1.15,6.3-.05.81-.03,1.61.13,2.39.17.82.65,1.64,1.29,2.04-1.17,9.06-2.11,16.9-2.4,20.79-.12,1.57-.48,3.78-1.01,6.44-.18-.24-.45-.29-.85-.03-.29.18-.49.47-.67.76-1.61,2.58-2.07,5.65-2.8,8.55-.69,2.74-.99,5.54-.34,8.33.05.23.13.47.21.71-5.33,19.99-12.61,43.59-12.61,43.59,0,0,5.71,10.5,14.22,4.33,0,0,12.56-46.48,14.9-65.98,1.48-1.03,2.08-3.94,2.35-5.45.44-2.42.4-4.91.3-7.36.1-.7-.21-2.52-.86-3.28,1.27-11.69,2.61-24.59,3.61-33.42.56-.19,1.09-.54,1.52-1.04.82-.99,1.18-2.28,1.39-3.55.4-2.42.33-5.24.02-7.67-.08-.64-.11-1.8-.74-1.86.52-2.38,1.14-5.26,1.62-7.54.15,0,.31,0,.46-.02.7-.11,1.34-.47,1.9-.91,1.49-1.16,2.46-2.85,3.01-4.67.15-.5.27-1.01.36-1.52.22-1.28.41-2.57.45-3.86.02-.46.07-1.07-.03-1.58Zm-5.63-5.92s0-.06,0-.1c.01,0,.03.02.04.02-.01.02-.02.05-.03.07Z"/>
          </g>
          <g>
            <path class="cls-6" d="m21.83,64.99s11.17,55.84,14.56,68.31c3.39,12.47,5.76,70.46,5.76,70.46,0,0,8.88,7.99,14.85-.66,0,0-3.68-48.21-7.99-67.3-4.32-19.09-13.24-55.16-13.61-58.72s-1.95-15.29-1.95-15.29l-11.62,3.2Z"/>
            <path class="cls-6" d="m24.82,21.63c.06.15.11.3.16.45.44,1.38-.25,3.82-2.14,2.92-1.16-.55-1.91-2.17-2.26-3.33-.25-.84-.16-1.77.13-2.59.18-.5.47-1.61,1.05-1.79.85-.26,1.6,1.42,1.94,2.03.42.75.82,1.51,1.12,2.31Z"/>
            <path class="cls-6" d="m24.61,25.18c.43.86.82,1.75.94,2.7s-.07,1.98-.69,2.71-1.73,1.08-2.59.67c-.64-.31-1.05-.96-1.37-1.6-1.25-2.52-1.95-6.36-1.03-9.14.35-1.06.83-1.15,1.57-.33,1.29,1.43,2.31,3.27,3.17,4.98Z"/>
            <path class="cls-6" d="m17.29,27.87c-.02.81.01,1.66.38,2.38s1.16,1.29,1.96,1.16c.83-.14,1.38-.93,1.67-1.71.86-2.29.2-5.07-1.6-6.73-1.19-1.1-1.66-.41-1.89.79-.26,1.37-.49,2.72-.53,4.12Z"/>
            <path class="cls-6" d="m19.36,34.45c.06.67.06,1.39-.27,1.98s-1.09.99-1.7.7c-.43-.2-.67-.66-.85-1.09-.93-2.23-1.1-4.77-.49-7.1.57-2.17,1.69.13,2.11,1.02.66,1.41,1.07,2.94,1.21,4.5Z"/>
            <path class="cls-6" d="m27.83,26.33c.75,1.39,1.35,3.02,1.15,4.58-.11.83-.49,1.65-1.14,1.93-.64.28-1.42-.01-1.97-.57s-.93-1.33-1.21-2.12c-.52-1.43-.8-2.94-.97-4.45-.13-1.18-.2-3.5,1.29-3.13,1.27.32,2.22,2.59,2.86,3.76Z"/>
            <path class="cls-6" d="m28.84,31.25c.46.85.88,1.74.99,2.69s-.12,1.99-.83,2.74-1.96,1.13-2.91.73c-.71-.3-1.16-.94-1.5-1.57-1.34-2.51-2.04-6.34-.94-9.16.42-1.07.96-1.17,1.77-.37,1.41,1.41,2.5,3.23,3.43,4.93Z"/>
            <path class="cls-6" d="m22.47,28.47c-.26-.56-.55-1.13-1.06-1.52s-1.28-.57-1.87-.28c-.66.33-.87,1.09-1,1.76-.23,1.13-.47,2.26-.7,3.39-.47,2.26-.46,9.09,4.12,6.83,3.73-1.84,1.67-7.64.51-10.18Z"/>
            <path class="cls-6" d="m16.13,42.25c-.01-.55.02-1.1.08-1.64.15-1.35.35-2.71.69-4.02.16-.61.32-1.49.78-1.98.74-.79,1.32-.13,1.97.57,2.86,3.04,3.92,7.09,3.82,11.04-.03,1.21-.31,2.6-1.44,3.17-.69.35-1.58.29-2.3-.03s-1.3-.88-1.77-1.49c-1.25-1.62-1.79-3.62-1.82-5.62Z"/>
            <path class="cls-6" d="m30.39,33.71c1.14.14,1.91,2.61,2.33,3.42.78,1.52,1.48,3.07,1.97,4.7.04.14.08.28.12.44.46,1.82.55,4.45-1.74,5.24-7.71,2.67-6.05-14.19-2.67-13.79Z"/>
            <path class="cls-6" d="m26.47,34.06c-.4-.68-.86-1.37-1.53-1.79s-1.6-.54-2.23-.06c-.71.53-.81,1.54-.84,2.43-.06,1.49-.12,2.99-.17,4.48-.12,2.99,1.19,11.8,6.11,8.16,4.01-2.97.5-10.13-1.33-13.21Z"/>
            <path class="cls-6" d="m36.42,48.81c.55,1.63.64,3.29-.12,4.85-.73,1.49-2.41,2.56-4.04,2.25-1.22-.23-2.19-1.16-2.9-2.17-1.48-2.1-2.04-4.82-1.65-7.38.18-1.16.71-2.36,1.22-3.41.63-1.31,1.58-3.14,2.89-1.45,1.5,1.94,3.68,4.58,4.6,7.3Z"/>
            <path class="cls-6" d="m18.42,44.08c-.53-.6-1.34-1.23-2.05-.85-.52.28-.64.96-.7,1.55-.24,2.5-.32,5.05.17,7.51s1.59,4.87,3.44,6.57c.65.6,1.42,1.13,2.3,1.27s1.87-.19,2.31-.96c.34-.59.31-1.31.25-1.98-.22-2.44-.67-5.11-1.67-7.37-.93-2.09-2.55-4.05-4.06-5.75Z"/>
            <path class="cls-6" d="m26.99,45.16c-.4-.68-.86-1.37-1.53-1.79s-1.6-.54-2.23-.06c-.71.53-.81,1.54-.84,2.43-.06,1.49-.12,2.99-.17,4.48-.12,2.99,1.19,11.8,6.11,8.16,4.01-2.97.5-10.13-1.33-13.21Z"/>
            <path class="cls-6" d="m38.11,59.03c-.17.72-.4,1.44-.83,2.05s-1.06,1.1-1.79,1.2c-1.07.15-2.12-.56-2.64-1.5s-.6-2.07-.53-3.14c.16-2.51,1.1-5.45,2.84-7.35,2.21-2.4,3.01,1.78,3.23,3.46.24,1.76.13,3.56-.28,5.28Z"/>
            <path class="cls-6" d="m18.03,62.45c-.17-.49-.32-.99-.43-1.5-.28-1.26-.53-2.55-.64-3.84-.05-.6-.18-1.44.05-2.02.38-.94,1.07-.51,1.82-.08,3.33,1.89,5.44,5.22,6.56,8.81.34,1.1.53,2.44-.25,3.29-.48.53-1.24.74-1.94.66s-1.36-.4-1.94-.81c-1.54-1.09-2.6-2.73-3.24-4.52Z"/>
            <path class="cls-6" d="m33.2,53.3c-.4-.68-.86-1.37-1.53-1.79s-1.6-.54-2.23-.06c-.71.53-.81,1.54-.84,2.43-.06,1.49-.12,2.99-.17,4.48-.12,2.99,1.19,11.8,6.11,8.16,4.01-2.97.5-10.13-1.33-13.21Z"/>
            <path class="cls-6" d="m27.89,55.65c-.4-.68-.86-1.37-1.53-1.79s-1.6-.54-2.23-.06c-.71.53-.81,1.54-.84,2.43-.06,1.49-.12,2.99-.17,4.48-.12,2.99,1.19,11.8,6.11,8.16,4.01-2.97.5-10.13-1.33-13.21Z"/>
            <path class="cls-6" d="m31.58,110.4c-1.04.08-1.45,2.82-1.27,3.7.03,2.45.11,4.94.67,7.34.39,1.65,1.23,4.99,3.09,5.58,2.31.73,3.84-2.22,3.56-4.09-.15-.99-.58-1.91-1-2.82-.79-1.7-1.59-3.4-2.38-5.11-.48-1.03-1.24-3.96-2.26-4.5-.15-.08-.28-.11-.41-.1Z"/>
            <path class="cls-6" d="m53.82,159.45c-.32,1.1-.97,2.32-2.11,2.46-1.21.14-2.15-1.05-2.59-2.19-1.84-4.73.48-9.44.59-14.21.02-.68-.41-5.05,1.23-3.87.28.2.46.5.63.79,1.48,2.67,1.77,5.75,2.35,8.69.54,2.77.7,5.58-.09,8.34Z"/>
            <path class="cls-6" d="m43.65,106.51c.09.81.11,1.61-.02,2.4-.22,1.45-1.37,2.97-2.85,2.2-2.75-1.43-2.64-5.71-2.23-8.25.28-1.74.69-3.47.64-5.23-.01-.48-.06-.97.05-1.44.43-1.9,1.76-.6,2.19.42.49,1.15.51,2.46.75,3.67.41,2,1.21,4.13,1.46,6.24Z"/>
            <path class="cls-6" d="m24.16,75.75c-.88-.21-.83,1.16-.89,1.88-.19,2.44-.13,5.26.4,7.66.27,1.26.69,2.53,1.56,3.48,1.35,1.47,3.62,1.57,4.69-.29,1.09-1.9-.17-4-1.17-5.62-.78-1.25-1.57-2.5-2.36-3.74-.39-.61-1.49-3.14-2.14-3.36-.03,0-.06-.02-.08-.02Z"/>
            <path class="cls-6" d="m42.15,203.76s8.88,7.99,14.85-.66c0,0-1.66-21.81-4.07-41.9.42-.48.71-1.13.89-1.75.79-2.75.64-5.56.09-8.34-.58-2.94-.87-6.02-2.35-8.69-.16-.3-.35-.6-.63-.79-.35-.25-.61-.24-.79-.07-.37-2.12-.75-4.06-1.14-5.77-1.58-6.99-3.78-16.27-5.95-25.39.3-.43.5-.96.58-1.49.12-.79.11-1.59.02-2.4-.25-2.11-1.05-4.24-1.46-6.24-.25-1.21-.27-2.52-.75-3.67-.36-.85-1.36-1.9-1.92-1.09-2.25-9.5-3.96-16.93-4.11-18.45-.2-2.01-.8-6.64-1.28-10.28.13-.08.27-.18.41-.28,1.47-1.09,1.93-2.75,1.83-4.56.36-.22.68-.52.93-.87.42-.61.65-1.33.83-2.05.41-1.72.52-3.52.28-5.28-.17-1.23-.64-3.78-1.74-4.13-.06-.27-.14-.54-.23-.82-.36-1.08-.93-2.15-1.57-3.17.34-1.07.21-2.35-.04-3.38-.04-.15-.08-.3-.12-.44-.49-1.63-1.19-3.18-1.97-4.7-.41-.81-1.19-3.28-2.33-3.42-.2-.02-.39.02-.58.11-.13-.87-.5-1.69-.92-2.48.04-.14.07-.28.09-.43.2-1.56-.4-3.19-1.15-4.58-.61-1.14-1.53-3.29-2.74-3.71-.02-.19-.06-.37-.11-.54-.05-.15-.1-.3-.16-.45-.3-.8-.7-1.57-1.12-2.31-.34-.6-1.09-2.29-1.94-2.03-.59.18-.88,1.29-1.05,1.79-.07.19-.12.39-.16.59-.27.04-.49.32-.67.87-.23.69-.36,1.46-.4,2.24-1.01-.79-1.45-.14-1.66.98-.26,1.37-.49,2.72-.53,4.12,0,.19,0,.38,0,.57-.44-.54-.92-.71-1.24.49-.61,2.34-.44,4.87.49,7.1.09.22.2.45.34.65-.33,1.29-.52,2.61-.67,3.93-.06.54-.09,1.09-.08,1.64,0,.38.04.75.08,1.12-.37.33-.48.89-.53,1.4-.24,2.5-.32,5.05.17,7.51.22,1.11.57,2.21,1.06,3.24-.07.52.01,1.12.05,1.58.11,1.29.36,2.57.64,3.84.11.51.26,1.01.43,1.5.64,1.79,1.7,3.43,3.24,4.52.33.23.69.44,1.07.58.38,1.89.95,4.73,1.66,8.19-.7,0-.67,1.22-.72,1.89-.19,2.44-.13,5.26.4,7.66.27,1.26.69,2.53,1.56,3.48.46.5,1.04.83,1.63.99,1.39,6.73,2.91,14.03,4.35,20.79-.77.59-1.06,2.78-.91,3.55.03,2.45.11,4.94.67,7.34.39,1.65,1.23,4.99,3.09,5.58.28.09.55.12.8.11.6,2.56,1.11,4.68,1.52,6.17,3.39,12.47,5.76,70.46,5.76,70.46ZM22.21,49.27s.03-.02.04-.03v.1s-.03-.05-.04-.07Z"/>
          </g>
          <g>
            <path class="cls-6" d="m55.96,62.05s1.35,56.93.78,69.84c-.57,12.91,9.83,70.01,9.83,70.01,0,0-6.91,9.74-14.63,2.61,0,0-6.99-47.85-6.97-67.41.02-19.57.82-56.72.39-60.27s-1.45-15.34-1.45-15.34l12.04.57Z"/>
            <path class="cls-6" d="m43.53,20.41c-.02.16-.04.31-.05.47-.13,1.44,1.09,3.67,2.73,2.38,1.01-.79,1.39-2.53,1.47-3.74.06-.87-.24-1.77-.7-2.5-.28-.45-.81-1.47-1.42-1.51-.89-.06-1.25,1.74-1.45,2.41-.25.82-.47,1.65-.58,2.5Z"/>
            <path class="cls-6" d="m44.51,23.83c-.23.93-.42,1.89-.33,2.85s.5,1.92,1.26,2.49,1.92.68,2.67.08c.56-.44.82-1.16.99-1.86.66-2.74.51-6.63-1-9.14-.57-.95-1.07-.94-1.6.02-.95,1.68-1.53,3.7-2,5.56Z"/>
            <path class="cls-6" d="m52.25,24.84c.2.79.35,1.62.15,2.4s-.85,1.51-1.66,1.56c-.84.05-1.55-.6-2.01-1.31-1.34-2.05-1.3-4.9.08-6.91.92-1.33,1.53-.76,2.02.36.56,1.28,1.07,2.54,1.42,3.9Z"/>
            <path class="cls-6" d="m51.67,31.72c.09.67.25,1.37.7,1.87s1.28.72,1.82.31c.38-.29.51-.79.59-1.26.41-2.38.03-4.89-1.08-7.04-1.03-2-1.62.5-1.83,1.46-.33,1.52-.4,3.11-.19,4.65Z"/>
            <path class="cls-6" d="m41.62,25.65c-.42,1.52-.65,3.24-.11,4.72.29.79.84,1.5,1.54,1.64.69.13,1.38-.32,1.8-.99s.61-1.5.72-2.33c.19-1.5.13-3.04-.03-4.56-.13-1.18-.58-3.46-1.94-2.77-1.17.59-1.6,3.01-1.96,4.3Z"/>
            <path class="cls-6" d="m41.72,30.67c-.26.93-.48,1.89-.38,2.85s.55,1.91,1.41,2.49,2.16.67,3,.08c.63-.44.92-1.17,1.11-1.86.76-2.74.6-6.64-1.09-9.14-.64-.95-1.19-.93-1.8.03-1.07,1.68-1.73,3.7-2.26,5.56Z"/>
            <path class="cls-6" d="m47.32,26.56c.13-.6.29-1.22.7-1.72s1.12-.84,1.76-.68c.72.18,1.08.87,1.37,1.5.47,1.05.95,2.1,1.42,3.15.95,2.1,2.44,8.77-2.52,7.57-4.04-.98-3.31-7.09-2.73-9.82Z"/>
            <path class="cls-6" d="m56.53,38.62c-.11-.54-.26-1.07-.44-1.58-.44-1.28-.93-2.57-1.56-3.77-.29-.56-.64-1.39-1.19-1.76-.9-.61-1.31.16-1.79.98-2.12,3.6-2.27,7.77-1.3,11.61.3,1.17.87,2.47,2.1,2.78.75.19,1.6-.06,2.24-.54s1.08-1.15,1.4-1.84c.86-1.85.95-3.92.55-5.88Z"/>
            <path class="cls-6" d="m40.75,33.41c-1.08.38-1.29,2.97-1.52,3.85-.43,1.65-.77,3.32-.89,5.01-.01.14-.02.3-.02.45-.05,1.88.44,4.46,2.85,4.73,8.11.91,2.78-15.18-.42-14.04Z"/>
            <path class="cls-6" d="m44.65,32.89c.25-.75.54-1.52,1.1-2.09s1.44-.87,2.17-.55c.81.36,1.12,1.33,1.35,2.19.38,1.44.77,2.89,1.15,4.33.77,2.89,1.43,11.77-4.17,9.3-4.57-2.02-2.71-9.77-1.6-13.18Z"/>
            <path class="cls-6" d="m38.18,49.46c-.18,1.71.09,3.35,1.18,4.71,1.04,1.29,2.92,1.97,4.43,1.31,1.13-.5,1.88-1.61,2.35-2.75.98-2.37.93-5.15,0-7.56-.43-1.09-1.21-2.15-1.94-3.05-.91-1.14-2.23-2.72-3.14-.78-1.04,2.22-2.59,5.27-2.88,8.14Z"/>
            <path class="cls-6" d="m54.69,40.9c.39-.7,1.04-1.49,1.81-1.27.57.16.84.8,1.02,1.36.78,2.39,1.42,4.85,1.48,7.37.06,2.51-.49,5.1-1.91,7.17-.5.73-1.14,1.41-1.96,1.74s-1.87.23-2.47-.43c-.46-.5-.59-1.21-.68-1.88-.32-2.43-.47-5.14.01-7.56.44-2.25,1.6-4.51,2.7-6.5Z"/>
            <path class="cls-6" d="m46.58,43.84c.25-.75.54-1.52,1.1-2.09s1.44-.87,2.17-.55c.81.36,1.12,1.33,1.35,2.19.38,1.44.77,2.89,1.15,4.33.77,2.89,1.43,11.77-4.17,9.3-4.57-2.02-2.71-9.77-1.6-13.18Z"/>
            <path class="cls-6" d="m38.77,59.81c.33.67.71,1.32,1.26,1.82s1.28.84,2.01.78c1.07-.09,1.95-1.01,2.25-2.04s.13-2.15-.17-3.18c-.71-2.42-2.27-5.08-4.38-6.55-2.68-1.86-2.54,2.39-2.4,4.08s.65,3.5,1.43,5.09Z"/>
            <path class="cls-6" d="m59.11,58.74c.06-.52.09-1.04.09-1.56,0-1.29-.04-2.6-.22-3.88-.08-.6-.14-1.45-.5-1.96-.58-.83-1.15-.26-1.8.32-2.83,2.57-4.17,6.28-4.47,10.04-.09,1.15.02,2.49.96,3.16.58.41,1.37.45,2.04.22s1.24-.69,1.72-1.22c1.27-1.4,1.94-3.23,2.17-5.12Z"/>
            <path class="cls-6" d="m42.3,53.15c.25-.75.54-1.52,1.1-2.09s1.44-.87,2.17-.55c.81.36,1.12,1.33,1.35,2.19.38,1.44.77,2.89,1.15,4.33.77,2.89,1.43,11.77-4.17,9.3-4.57-2.02-2.71-9.77-1.6-13.18Z"/>
            <path class="cls-6" d="m48,54.27c.25-.75.54-1.52,1.1-2.09s1.44-.87,2.17-.55c.81.36,1.12,1.33,1.35,2.19.38,1.44.77,2.89,1.15,4.33.77,2.89,1.43,11.77-4.17,9.3-4.57-2.02-2.71-9.77-1.6-13.18Z"/>
            <path class="cls-6" d="m56.41,108.49c1.03-.15,2.03,2.43,2.05,3.33.51,2.4.98,4.84.96,7.3-.02,1.69-.1,5.14-1.79,6.12-2.1,1.22-4.23-1.32-4.37-3.21-.07-1,.14-1.99.36-2.97.4-1.83.8-3.67,1.2-5.5.24-1.11.34-4.14,1.22-4.88.13-.11.25-.17.38-.18Z"/>
            <path class="cls-6" d="m45.47,161.23c.55,1.01,1.46,2.06,2.6,1.93,1.21-.13,1.87-1.5,2.05-2.7.75-5.01-2.53-9.1-3.7-13.74-.16-.66-.71-5.02-2.05-3.51-.23.25-.34.59-.44.91-.86,2.92-.47,6-.39,8.99.08,2.82.55,5.6,1.92,8.11Z"/>
            <path class="cls-6" d="m43.78,107.35c.09.81.25,1.59.54,2.34.54,1.37,1.99,2.6,3.26,1.53,2.37-2,1.32-6.15.36-8.54-.65-1.63-1.43-3.24-1.77-4.96-.09-.47-.15-.96-.36-1.39-.83-1.76-1.85-.19-2.04.89-.22,1.23.04,2.51.07,3.74.04,2.04-.28,4.29-.06,6.4Z"/>
            <path class="cls-6" d="m56.04,73.06c.81-.4,1.07.95,1.28,1.64.72,2.34,1.28,5.1,1.29,7.56,0,1.29-.12,2.62-.76,3.74-1,1.73-3.19,2.32-4.63.75-1.48-1.61-.71-3.94-.09-5.74.48-1.39.98-2.78,1.48-4.17.25-.69.77-3.39,1.35-3.74.03-.02.05-.03.08-.04Z"/>
            <path class="cls-6" d="m56.74,131.89c.07-1.54.11-3.72.13-6.36.25-.05.51-.14.76-.28,1.69-.98,1.78-4.43,1.79-6.12.02-2.46-.45-4.91-.96-7.3-.02-.78-.78-2.85-1.67-3.26-.08-6.91-.19-14.36-.32-21.24.54-.28,1.03-.73,1.37-1.32.64-1.11.77-2.45.76-3.74-.02-2.46-.57-5.22-1.29-7.56-.2-.64-.43-1.83-1.12-1.69-.07-3.54-.14-6.43-.18-8.36.34-.23.64-.5.92-.81,1.27-1.4,1.94-3.23,2.17-5.12.06-.52.09-1.04.09-1.56,0-1.29-.04-2.6-.22-3.88-.06-.46-.11-1.07-.3-1.56.25-1.11.35-2.26.32-3.39-.06-2.51-.7-4.98-1.48-7.37-.16-.49-.4-1.01-.83-1.25-.04-.37-.09-.75-.17-1.11-.11-.54-.26-1.07-.44-1.58-.43-1.25-.91-2.5-1.52-3.68.09-.22.15-.47.19-.71.41-2.38.03-4.89-1.08-7.04-.57-1.1-1-.83-1.32-.21-.04-.19-.08-.37-.13-.56-.34-1.36-.86-2.62-1.42-3.9-.45-1.04-1.02-1.58-1.83-.59-.22-.76-.51-1.47-.88-2.1-.3-.49-.57-.72-.84-.7-.09-.19-.18-.37-.29-.54-.28-.45-.81-1.47-1.42-1.51-.89-.06-1.25,1.74-1.45,2.41-.25.82-.47,1.65-.58,2.5-.02.16-.04.31-.05.47-.02.18-.01.36.01.55-1.1.68-1.52,2.98-1.86,4.23-.42,1.52-.65,3.24-.11,4.72.05.14.12.27.18.4-.24.86-.42,1.74-.36,2.62-.2-.05-.4-.04-.59.02-1.08.38-1.29,2.97-1.52,3.85-.42,1.65-.77,3.32-.89,5.01-.01.14-.02.3-.02.45-.03,1.06.13,2.34.7,3.3-.4,1.13-.72,2.3-.84,3.44-.03.28-.04.57-.04.85-1,.59-.9,3.18-.79,4.41.15,1.77.65,3.5,1.43,5.09.33.67.71,1.32,1.26,1.82.31.29.69.51,1.1.65.3,1.79,1.11,3.31,2.78,4.05.16.07.31.13.46.18.33,3.66.76,8.3,1,10.31.18,1.51.14,9.14.03,18.9-.73-.67-1.47.57-1.64,1.48-.22,1.23.04,2.51.07,3.74.04,2.04-.28,4.29-.06,6.4.09.81.25,1.59.54,2.34.19.5.51.97.89,1.33-.12,9.38-.23,18.91-.24,26.08,0,1.75.05,3.73.15,5.88-.22-.12-.47-.08-.76.24-.23.25-.34.59-.44.91-.86,2.92-.47,6-.39,8.99.08,2.82.55,5.6,1.92,8.11.31.57.74,1.14,1.25,1.52,2.06,20.13,5.22,41.77,5.22,41.77,7.72,7.13,14.63-2.61,14.63-2.61,0,0-10.4-57.1-9.83-70.01Zm-4.62-85.01l-.02-.09s.03.01.04.02c0,.03-.01.05-.02.08Z"/>
          </g>
        </g>
        <g>
          <g>
            <path class="cls-3" d="m62.75,63.25s-8.09,56.37-9.06,69.26-18.07,68.35-18.07,68.35c0,0,5.71,10.5,14.22,4.33,0,0,12.62-46.68,14.92-66.11,2.3-19.43,5.92-56.42,6.76-59.89s3.26-15.06,3.26-15.06l-12.02-.86Z"/>
            <path class="cls-3" d="m70.52,21.98c-.05.15-.09.3-.13.45-.37,1.4.44,3.81,2.28,2.81,1.13-.61,1.8-2.26,2.09-3.44.21-.85.07-1.78-.26-2.58-.2-.49-.55-1.59-1.14-1.73-.86-.22-1.53,1.5-1.84,2.12-.38.77-.74,1.55-1,2.37Z"/>
            <path class="cls-1" d="m70.9,25.52c-.39.88-.74,1.79-.81,2.75s.16,1.97.82,2.67,1.78,1,2.62.54c.63-.34,1-1.01,1.29-1.66,1.12-2.58,1.64-6.45.58-9.18-.4-1.04-.89-1.1-1.58-.25-1.22,1.49-2.14,3.38-2.92,5.13Z"/>
            <path class="cls-6" d="m78.35,27.84c.06.81.07,1.65-.26,2.39s-1.09,1.34-1.9,1.25c-.83-.09-1.42-.86-1.76-1.63-.97-2.24-.45-5.05,1.26-6.8,1.13-1.16,1.64-.49,1.93.7.33,1.36.62,2.69.73,4.09Z"/>
            <path class="cls-1" d="m76.6,34.52c-.03.68,0,1.39.37,1.96s1.14.93,1.74.62c.42-.22.64-.69.8-1.14.81-2.27.86-4.82.14-7.12-.68-2.14-1.69.22-2.05,1.12-.59,1.45-.92,2.99-.98,4.55Z"/>
            <path class="cls-6" d="m67.74,26.83c-.68,1.43-1.2,3.08-.92,4.63.15.83.57,1.62,1.23,1.87.65.25,1.41-.08,1.94-.66s.86-1.38,1.11-2.18c.44-1.45.65-2.98.75-4.5.07-1.18.02-3.51-1.44-3.06-1.26.38-2.09,2.69-2.67,3.9Z"/>
            <path class="cls-3" d="m66.98,31.79c-.42.87-.79,1.78-.86,2.74s.22,1.98.97,2.7,2.01,1.03,2.95.59c.7-.33,1.11-.99,1.42-1.65,1.21-2.57,1.72-6.44.49-9.19-.47-1.05-1.02-1.12-1.78-.28-1.34,1.47-2.34,3.35-3.18,5.1Z"/>
            <path class="cls-7" d="m73.2,28.69c.23-.57.5-1.15.99-1.57s1.25-.63,1.85-.37c.68.3.92,1.05,1.09,1.71.29,1.12.58,2.23.86,3.35.58,2.23.91,9.06-3.77,7.03-3.82-1.66-2.05-7.55-1.02-10.14Z"/>
            <path class="cls-6" d="m80.22,42.15c-.02-.55-.07-1.09-.16-1.63-.22-1.34-.48-2.69-.89-3.98-.19-.6-.39-1.48-.88-1.94-.78-.75-1.32-.06-1.94.66-2.71,3.18-3.56,7.27-3.27,11.22.09,1.21.44,2.58,1.59,3.1.71.32,1.59.21,2.29-.15s1.26-.94,1.7-1.58c1.17-1.68,1.61-3.7,1.54-5.7Z"/>
            <path class="cls-7" d="m65.56,34.32c-1.13.19-1.78,2.7-2.15,3.53-.7,1.55-1.33,3.14-1.73,4.79-.03.14-.07.29-.1.44-.37,1.84-.33,4.47,2,5.15,7.84,2.28,5.34-14.48,1.99-13.9Z"/>
            <path class="cls-1" d="m69.49,34.48c.37-.7.79-1.41,1.44-1.87s1.57-.61,2.23-.17c.74.5.88,1.5.96,2.38.13,1.49.26,2.98.4,4.47.26,2.98-.61,11.84-5.7,8.45-4.15-2.77-1-10.09.68-13.26Z"/>
            <path class="cls-3" d="m60.28,49.7c-.47,1.65-.48,3.32.36,4.84.8,1.45,2.54,2.44,4.14,2.05,1.2-.29,2.13-1.27,2.79-2.31,1.37-2.17,1.8-4.91,1.28-7.45-.23-1.15-.83-2.32-1.39-3.34-.7-1.28-1.73-3.06-2.96-1.31-1.41,2.01-3.45,4.75-4.23,7.52Z"/>
            <path class="cls-3" d="m78.02,44.08c.5-.62,1.28-1.29,2-.95.53.26.69.93.77,1.51.36,2.49.57,5.03.2,7.51s-1.35,4.94-3.11,6.74c-.62.63-1.36,1.2-2.23,1.38s-1.88-.1-2.36-.84c-.37-.57-.38-1.29-.35-1.96.1-2.44.42-5.14,1.3-7.44.82-2.14,2.35-4.17,3.77-5.94Z"/>
            <path class="cls-7" d="m69.52,45.59c.37-.7.79-1.41,1.44-1.87s1.57-.61,2.23-.17c.74.5.88,1.5.96,2.38.13,1.49.26,2.98.4,4.47.26,2.98-.61,11.84-5.7,8.45-4.15-2.77-1-10.09.68-13.26Z"/>
            <path class="cls-6" d="m59.09,59.99c.21.71.47,1.42.93,2.01s1.11,1.05,1.85,1.11c1.07.1,2.09-.66,2.57-1.63s.5-2.09.38-3.17c-.28-2.5-1.37-5.39-3.2-7.2-2.32-2.29-2.91,1.92-3.06,3.61s.04,3.56.54,5.26Z"/>
            <path class="cls-1" d="m79.32,62.41c.15-.5.27-1.01.36-1.52.22-1.28.41-2.57.45-3.86.02-.6.11-1.45-.15-2.01-.43-.92-1.09-.46-1.83.01-3.23,2.05-5.18,5.48-6.12,9.13-.29,1.12-.41,2.46.41,3.28.5.5,1.27.67,1.97.56s1.34-.47,1.9-.91c1.49-1.16,2.46-2.85,3.01-4.67Z"/>
            <path class="cls-1" d="m63.71,54.03c.37-.7.79-1.41,1.44-1.87s1.57-.61,2.23-.17c.74.5.88,1.5.96,2.38.13,1.49.26,2.98.4,4.47.26,2.98-.61,11.84-5.7,8.45-4.15-2.77-1-10.09.68-13.26Z"/>
            <path class="cls-6" d="m69.14,56.11c.37-.7.79-1.41,1.44-1.87s1.57-.61,2.23-.17c.74.5.88,1.5.96,2.38.13,1.49.26,2.98.4,4.47.26,2.98-.61,11.84-5.7,8.45-4.15-2.77-1-10.09.68-13.26Z"/>
            <path class="cls-6" d="m65.94,122.75c1.04.03,1.58,2.74,1.45,3.63.09,2.45.14,4.94-.3,7.36-.3,1.67-.98,5.04-2.82,5.73-2.28.85-3.95-2.03-3.76-3.91.1-1,.48-1.94.86-2.87.71-1.74,1.42-3.48,2.12-5.22.43-1.05,1.04-4.02,2.04-4.6.14-.08.28-.12.41-.12Z"/>
            <path class="cls-6" d="m48.01,156.55c.26,1.12.85,2.37,1.98,2.56,1.2.2,2.2-.94,2.7-2.05,2.08-4.63.02-9.45.15-14.22.02-.68.68-5.02-1.03-3.93-.29.18-.49.47-.67.76-1.61,2.58-2.07,5.65-2.8,8.55-.69,2.74-.99,5.54-.34,8.33Z"/>
            <path class="cls-6" d="m54.67,107.28c-.05.81-.03,1.61.13,2.39.3,1.44,1.52,2.9,2.95,2.06,2.68-1.57,2.35-5.83,1.82-8.35-.36-1.72-.86-3.43-.9-5.19-.01-.48.01-.97-.12-1.43-.52-1.87-1.79-.51-2.16.52-.43,1.17-.38,2.48-.57,3.7-.31,2.01-1.01,4.18-1.15,6.3Z"/>
            <path class="cls-6" d="m72.09,75.57c.87-.25.89,1.12.98,1.84.31,2.42.39,5.25-.02,7.67-.21,1.27-.56,2.56-1.39,3.55-1.28,1.53-3.54,1.74-4.69-.05-1.18-1.84-.03-4,.89-5.67.71-1.29,1.44-2.57,2.17-3.85.36-.63,1.33-3.21,1.97-3.46.03-.01.06-.02.08-.03Z"/>
            <path class="cls-8" d="m80.1,55.45c.43-1.05.73-2.16.9-3.29.37-2.49.16-5.02-.2-7.51-.07-.51-.22-1.07-.6-1.37.03-.38.04-.75.03-1.13-.02-.55-.07-1.09-.16-1.63-.21-1.31-.47-2.62-.87-3.89.13-.2.23-.44.31-.66.81-2.27.86-4.82.14-7.12-.37-1.18-.85-.99-1.26-.43,0-.19-.02-.38-.03-.57-.11-1.4-.4-2.73-.73-4.09-.27-1.1-.73-1.74-1.7-.89-.08-.79-.25-1.54-.51-2.22-.21-.54-.44-.81-.71-.83-.05-.2-.12-.39-.19-.58-.2-.49-.55-1.59-1.14-1.73-.86-.22-1.53,1.5-1.84,2.12-.38.77-.74,1.55-1,2.37-.05.15-.09.3-.13.45-.05.17-.07.35-.08.55-1.2.48-2,2.67-2.56,3.85-.68,1.43-1.2,3.08-.92,4.63.03.14.07.28.11.42-.38.81-.71,1.64-.8,2.52-.19-.08-.39-.11-.58-.08-1.13.19-1.78,2.7-2.15,3.53-.7,1.55-1.33,3.14-1.73,4.79-.03.14-.07.29-.1.44-.21,1.04-.27,2.32.12,3.37-.59,1.05-1.1,2.14-1.41,3.24-.08.28-.14.55-.19.83-1.09.41-1.43,2.98-1.54,4.21-.15,1.77.04,3.56.54,5.26.21.71.47,1.42.93,2.01.26.34.6.62.97.83,0,1.46.34,2.8,1.27,3.8-.79,5.55-2.44,17.22-4.09,29.38-.6-.6-1.48.45-1.79,1.28-.43,1.17-.38,2.48-.57,3.7-.31,2.01-1.01,4.18-1.15,6.3-.05.81-.03,1.61.13,2.39.17.82.65,1.64,1.29,2.04-1.17,9.06-2.11,16.9-2.4,20.79-.12,1.57-.48,3.78-1.01,6.44-.18-.24-.45-.29-.85-.03-.29.18-.49.47-.67.76-1.61,2.58-2.07,5.65-2.8,8.55-.69,2.74-.99,5.54-.34,8.33.05.23.13.47.21.71-5.33,19.99-12.61,43.59-12.61,43.59,0,0,5.71,10.5,14.22,4.33,0,0,12.56-46.48,14.9-65.98,1.48-1.03,2.08-3.94,2.35-5.45.44-2.42.4-4.91.3-7.36.1-.7-.21-2.52-.86-3.28,1.27-11.69,2.61-24.59,3.61-33.42.56-.19,1.09-.54,1.52-1.04.82-.99,1.18-2.28,1.39-3.55.4-2.42.33-5.24.02-7.67-.08-.64-.11-1.8-.74-1.86.52-2.38,1.14-5.26,1.62-7.54.15,0,.31,0,.46-.02.7-.11,1.34-.47,1.9-.91,1.49-1.16,2.46-2.85,3.01-4.67.15-.5.27-1.01.36-1.52.22-1.28.41-2.57.45-3.86.02-.46.07-1.07-.03-1.58Zm-5.63-5.92s0-.06,0-.1c.01,0,.03.02.04.02-.01.02-.02.05-.03.07Z"/>
          </g>
          <g>
            <path class="cls-3" d="m21.83,64.99s11.17,55.84,14.56,68.31c3.39,12.47,5.76,70.46,5.76,70.46,0,0,8.88,7.99,14.85-.66,0,0-3.68-48.21-7.99-67.3-4.32-19.09-13.24-55.16-13.61-58.72s-1.95-15.29-1.95-15.29l-11.62,3.2Z"/>
            <path class="cls-3" d="m24.82,21.63c.06.15.11.3.16.45.44,1.38-.25,3.82-2.14,2.92-1.16-.55-1.91-2.17-2.26-3.33-.25-.84-.16-1.77.13-2.59.18-.5.47-1.61,1.05-1.79.85-.26,1.6,1.42,1.94,2.03.42.75.82,1.51,1.12,2.31Z"/>
            <path class="cls-1" d="m24.61,25.18c.43.86.82,1.75.94,2.7s-.07,1.98-.69,2.71-1.73,1.08-2.59.67c-.64-.31-1.05-.96-1.37-1.6-1.25-2.52-1.95-6.36-1.03-9.14.35-1.06.83-1.15,1.57-.33,1.29,1.43,2.31,3.27,3.17,4.98Z"/>
            <path class="cls-6" d="m17.29,27.87c-.02.81.01,1.66.38,2.38s1.16,1.29,1.96,1.16c.83-.14,1.38-.93,1.67-1.71.86-2.29.2-5.07-1.6-6.73-1.19-1.1-1.66-.41-1.89.79-.26,1.37-.49,2.72-.53,4.12Z"/>
            <path class="cls-1" d="m19.36,34.45c.06.67.06,1.39-.27,1.98s-1.09.99-1.7.7c-.43-.2-.67-.66-.85-1.09-.93-2.23-1.1-4.77-.49-7.1.57-2.17,1.69.13,2.11,1.02.66,1.41,1.07,2.94,1.21,4.5Z"/>
            <path class="cls-6" d="m27.83,26.33c.75,1.39,1.35,3.02,1.15,4.58-.11.83-.49,1.65-1.14,1.93-.64.28-1.42-.01-1.97-.57s-.93-1.33-1.21-2.12c-.52-1.43-.8-2.94-.97-4.45-.13-1.18-.2-3.5,1.29-3.13,1.27.32,2.22,2.59,2.86,3.76Z"/>
            <path class="cls-3" d="m28.84,31.25c.46.85.88,1.74.99,2.69s-.12,1.99-.83,2.74-1.96,1.13-2.91.73c-.71-.3-1.16-.94-1.5-1.57-1.34-2.51-2.04-6.34-.94-9.16.42-1.07.96-1.17,1.77-.37,1.41,1.41,2.5,3.23,3.43,4.93Z"/>
            <path class="cls-7" d="m22.47,28.47c-.26-.56-.55-1.13-1.06-1.52s-1.28-.57-1.87-.28c-.66.33-.87,1.09-1,1.76-.23,1.13-.47,2.26-.7,3.39-.47,2.26-.46,9.09,4.12,6.83,3.73-1.84,1.67-7.64.51-10.18Z"/>
            <path class="cls-6" d="m16.13,42.25c-.01-.55.02-1.1.08-1.64.15-1.35.35-2.71.69-4.02.16-.61.32-1.49.78-1.98.74-.79,1.32-.13,1.97.57,2.86,3.04,3.92,7.09,3.82,11.04-.03,1.21-.31,2.6-1.44,3.17-.69.35-1.58.29-2.3-.03s-1.3-.88-1.77-1.49c-1.25-1.62-1.79-3.62-1.82-5.62Z"/>
            <path class="cls-7" d="m30.39,33.71c1.14.14,1.91,2.61,2.33,3.42.78,1.52,1.48,3.07,1.97,4.7.04.14.08.28.12.44.46,1.82.55,4.45-1.74,5.24-7.71,2.67-6.05-14.19-2.67-13.79Z"/>
            <path class="cls-1" d="m26.47,34.06c-.4-.68-.86-1.37-1.53-1.79s-1.6-.54-2.23-.06c-.71.53-.81,1.54-.84,2.43-.06,1.49-.12,2.99-.17,4.48-.12,2.99,1.19,11.8,6.11,8.16,4.01-2.97.5-10.13-1.33-13.21Z"/>
            <path class="cls-3" d="m36.42,48.81c.55,1.63.64,3.29-.12,4.85-.73,1.49-2.41,2.56-4.04,2.25-1.22-.23-2.19-1.16-2.9-2.17-1.48-2.1-2.04-4.82-1.65-7.38.18-1.16.71-2.36,1.22-3.41.63-1.31,1.58-3.14,2.89-1.45,1.5,1.94,3.68,4.58,4.6,7.3Z"/>
            <path class="cls-3" d="m18.42,44.08c-.53-.6-1.34-1.23-2.05-.85-.52.28-.64.96-.7,1.55-.24,2.5-.32,5.05.17,7.51s1.59,4.87,3.44,6.57c.65.6,1.42,1.13,2.3,1.27s1.87-.19,2.31-.96c.34-.59.31-1.31.25-1.98-.22-2.44-.67-5.11-1.67-7.37-.93-2.09-2.55-4.05-4.06-5.75Z"/>
            <path class="cls-7" d="m26.99,45.16c-.4-.68-.86-1.37-1.53-1.79s-1.6-.54-2.23-.06c-.71.53-.81,1.54-.84,2.43-.06,1.49-.12,2.99-.17,4.48-.12,2.99,1.19,11.8,6.11,8.16,4.01-2.97.5-10.13-1.33-13.21Z"/>
            <path class="cls-6" d="m38.11,59.03c-.17.72-.4,1.44-.83,2.05s-1.06,1.1-1.79,1.2c-1.07.15-2.12-.56-2.64-1.5s-.6-2.07-.53-3.14c.16-2.51,1.1-5.45,2.84-7.35,2.21-2.4,3.01,1.78,3.23,3.46.24,1.76.13,3.56-.28,5.28Z"/>
            <path class="cls-1" d="m18.03,62.45c-.17-.49-.32-.99-.43-1.5-.28-1.26-.53-2.55-.64-3.84-.05-.6-.18-1.44.05-2.02.38-.94,1.07-.51,1.82-.08,3.33,1.89,5.44,5.22,6.56,8.81.34,1.1.53,2.44-.25,3.29-.48.53-1.24.74-1.94.66s-1.36-.4-1.94-.81c-1.54-1.09-2.6-2.73-3.24-4.52Z"/>
            <path class="cls-1" d="m33.2,53.3c-.4-.68-.86-1.37-1.53-1.79s-1.6-.54-2.23-.06c-.71.53-.81,1.54-.84,2.43-.06,1.49-.12,2.99-.17,4.48-.12,2.99,1.19,11.8,6.11,8.16,4.01-2.97.5-10.13-1.33-13.21Z"/>
            <path class="cls-6" d="m27.89,55.65c-.4-.68-.86-1.37-1.53-1.79s-1.6-.54-2.23-.06c-.71.53-.81,1.54-.84,2.43-.06,1.49-.12,2.99-.17,4.48-.12,2.99,1.19,11.8,6.11,8.16,4.01-2.97.5-10.13-1.33-13.21Z"/>
            <path class="cls-6" d="m31.58,110.4c-1.04.08-1.45,2.82-1.27,3.7.03,2.45.11,4.94.67,7.34.39,1.65,1.23,4.99,3.09,5.58,2.31.73,3.84-2.22,3.56-4.09-.15-.99-.58-1.91-1-2.82-.79-1.7-1.59-3.4-2.38-5.11-.48-1.03-1.24-3.96-2.26-4.5-.15-.08-.28-.11-.41-.1Z"/>
            <path class="cls-6" d="m53.82,159.45c-.32,1.1-.97,2.32-2.11,2.46-1.21.14-2.15-1.05-2.59-2.19-1.84-4.73.48-9.44.59-14.21.02-.68-.41-5.05,1.23-3.87.28.2.46.5.63.79,1.48,2.67,1.77,5.75,2.35,8.69.54,2.77.7,5.58-.09,8.34Z"/>
            <path class="cls-6" d="m43.65,106.51c.09.81.11,1.61-.02,2.4-.22,1.45-1.37,2.97-2.85,2.2-2.75-1.43-2.64-5.71-2.23-8.25.28-1.74.69-3.47.64-5.23-.01-.48-.06-.97.05-1.44.43-1.9,1.76-.6,2.19.42.49,1.15.51,2.46.75,3.67.41,2,1.21,4.13,1.46,6.24Z"/>
            <path class="cls-6" d="m24.16,75.75c-.88-.21-.83,1.16-.89,1.88-.19,2.44-.13,5.26.4,7.66.27,1.26.69,2.53,1.56,3.48,1.35,1.47,3.62,1.57,4.69-.29,1.09-1.9-.17-4-1.17-5.62-.78-1.25-1.57-2.5-2.36-3.74-.39-.61-1.49-3.14-2.14-3.36-.03,0-.06-.02-.08-.02Z"/>
            <path class="cls-4" d="m42.15,203.76s8.88,7.99,14.85-.66c0,0-1.66-21.81-4.07-41.9.42-.48.71-1.13.89-1.75.79-2.75.64-5.56.09-8.34-.58-2.94-.87-6.02-2.35-8.69-.16-.3-.35-.6-.63-.79-.35-.25-.61-.24-.79-.07-.37-2.12-.75-4.06-1.14-5.77-1.58-6.99-3.78-16.27-5.95-25.39.3-.43.5-.96.58-1.49.12-.79.11-1.59.02-2.4-.25-2.11-1.05-4.24-1.46-6.24-.25-1.21-.27-2.52-.75-3.67-.36-.85-1.36-1.9-1.92-1.09-2.25-9.5-3.96-16.93-4.11-18.45-.2-2.01-.8-6.64-1.28-10.28.13-.08.27-.18.41-.28,1.47-1.09,1.93-2.75,1.83-4.56.36-.22.68-.52.93-.87.42-.61.65-1.33.83-2.05.41-1.72.52-3.52.28-5.28-.17-1.23-.64-3.78-1.74-4.13-.06-.27-.14-.54-.23-.82-.36-1.08-.93-2.15-1.57-3.17.34-1.07.21-2.35-.04-3.38-.04-.15-.08-.3-.12-.44-.49-1.63-1.19-3.18-1.97-4.7-.41-.81-1.19-3.28-2.33-3.42-.2-.02-.39.02-.58.11-.13-.87-.5-1.69-.92-2.48.04-.14.07-.28.09-.43.2-1.56-.4-3.19-1.15-4.58-.61-1.14-1.53-3.29-2.74-3.71-.02-.19-.06-.37-.11-.54-.05-.15-.1-.3-.16-.45-.3-.8-.7-1.57-1.12-2.31-.34-.6-1.09-2.29-1.94-2.03-.59.18-.88,1.29-1.05,1.79-.07.19-.12.39-.16.59-.27.04-.49.32-.67.87-.23.69-.36,1.46-.4,2.24-1.01-.79-1.45-.14-1.66.98-.26,1.37-.49,2.72-.53,4.12,0,.19,0,.38,0,.57-.44-.54-.92-.71-1.24.49-.61,2.34-.44,4.87.49,7.1.09.22.2.45.34.65-.33,1.29-.52,2.61-.67,3.93-.06.54-.09,1.09-.08,1.64,0,.38.04.75.08,1.12-.37.33-.48.89-.53,1.4-.24,2.5-.32,5.05.17,7.51.22,1.11.57,2.21,1.06,3.24-.07.52.01,1.12.05,1.58.11,1.29.36,2.57.64,3.84.11.51.26,1.01.43,1.5.64,1.79,1.7,3.43,3.24,4.52.33.23.69.44,1.07.58.38,1.89.95,4.73,1.66,8.19-.7,0-.67,1.22-.72,1.89-.19,2.44-.13,5.26.4,7.66.27,1.26.69,2.53,1.56,3.48.46.5,1.04.83,1.63.99,1.39,6.73,2.91,14.03,4.35,20.79-.77.59-1.06,2.78-.91,3.55.03,2.45.11,4.94.67,7.34.39,1.65,1.23,4.99,3.09,5.58.28.09.55.12.8.11.6,2.56,1.11,4.68,1.52,6.17,3.39,12.47,5.76,70.46,5.76,70.46ZM22.21,49.27s.03-.02.04-.03v.1s-.03-.05-.04-.07Z"/>
          </g>
          <g>
            <path class="cls-3" d="m55.96,62.05s1.35,56.93.78,69.84c-.57,12.91,9.83,70.01,9.83,70.01,0,0-6.91,9.74-14.63,2.61,0,0-6.99-47.85-6.97-67.41.02-19.57.82-56.72.39-60.27s-1.45-15.34-1.45-15.34l12.04.57Z"/>
            <path class="cls-3" d="m43.53,20.41c-.02.16-.04.31-.05.47-.13,1.44,1.09,3.67,2.73,2.38,1.01-.79,1.39-2.53,1.47-3.74.06-.87-.24-1.77-.7-2.5-.28-.45-.81-1.47-1.42-1.51-.89-.06-1.25,1.74-1.45,2.41-.25.82-.47,1.65-.58,2.5Z"/>
            <path class="cls-1" d="m44.51,23.83c-.23.93-.42,1.89-.33,2.85s.5,1.92,1.26,2.49,1.92.68,2.67.08c.56-.44.82-1.16.99-1.86.66-2.74.51-6.63-1-9.14-.57-.95-1.07-.94-1.6.02-.95,1.68-1.53,3.7-2,5.56Z"/>
            <path class="cls-6" d="m52.25,24.84c.2.79.35,1.62.15,2.4s-.85,1.51-1.66,1.56c-.84.05-1.55-.6-2.01-1.31-1.34-2.05-1.3-4.9.08-6.91.92-1.33,1.53-.76,2.02.36.56,1.28,1.07,2.54,1.42,3.9Z"/>
            <path class="cls-1" d="m51.67,31.72c.09.67.25,1.37.7,1.87s1.28.72,1.82.31c.38-.29.51-.79.59-1.26.41-2.38.03-4.89-1.08-7.04-1.03-2-1.62.5-1.83,1.46-.33,1.52-.4,3.11-.19,4.65Z"/>
            <path class="cls-6" d="m41.62,25.65c-.42,1.52-.65,3.24-.11,4.72.29.79.84,1.5,1.54,1.64.69.13,1.38-.32,1.8-.99s.61-1.5.72-2.33c.19-1.5.13-3.04-.03-4.56-.13-1.18-.58-3.46-1.94-2.77-1.17.59-1.6,3.01-1.96,4.3Z"/>
            <path class="cls-3" d="m41.72,30.67c-.26.93-.48,1.89-.38,2.85s.55,1.91,1.41,2.49,2.16.67,3,.08c.63-.44.92-1.17,1.11-1.86.76-2.74.6-6.64-1.09-9.14-.64-.95-1.19-.93-1.8.03-1.07,1.68-1.73,3.7-2.26,5.56Z"/>
            <path class="cls-7" d="m47.32,26.56c.13-.6.29-1.22.7-1.72s1.12-.84,1.76-.68c.72.18,1.08.87,1.37,1.5.47,1.05.95,2.1,1.42,3.15.95,2.1,2.44,8.77-2.52,7.57-4.04-.98-3.31-7.09-2.73-9.82Z"/>
            <path class="cls-6" d="m56.53,38.62c-.11-.54-.26-1.07-.44-1.58-.44-1.28-.93-2.57-1.56-3.77-.29-.56-.64-1.39-1.19-1.76-.9-.61-1.31.16-1.79.98-2.12,3.6-2.27,7.77-1.3,11.61.3,1.17.87,2.47,2.1,2.78.75.19,1.6-.06,2.24-.54s1.08-1.15,1.4-1.84c.86-1.85.95-3.92.55-5.88Z"/>
            <path class="cls-7" d="m40.75,33.41c-1.08.38-1.29,2.97-1.52,3.85-.43,1.65-.77,3.32-.89,5.01-.01.14-.02.3-.02.45-.05,1.88.44,4.46,2.85,4.73,8.11.91,2.78-15.18-.42-14.04Z"/>
            <path class="cls-1" d="m44.65,32.89c.25-.75.54-1.52,1.1-2.09s1.44-.87,2.17-.55c.81.36,1.12,1.33,1.35,2.19.38,1.44.77,2.89,1.15,4.33.77,2.89,1.43,11.77-4.17,9.3-4.57-2.02-2.71-9.77-1.6-13.18Z"/>
            <path class="cls-3" d="m38.18,49.46c-.18,1.71.09,3.35,1.18,4.71,1.04,1.29,2.92,1.97,4.43,1.31,1.13-.5,1.88-1.61,2.35-2.75.98-2.37.93-5.15,0-7.56-.43-1.09-1.21-2.15-1.94-3.05-.91-1.14-2.23-2.72-3.14-.78-1.04,2.22-2.59,5.27-2.88,8.14Z"/>
            <path class="cls-3" d="m54.69,40.9c.39-.7,1.04-1.49,1.81-1.27.57.16.84.8,1.02,1.36.78,2.39,1.42,4.85,1.48,7.37.06,2.51-.49,5.1-1.91,7.17-.5.73-1.14,1.41-1.96,1.74s-1.87.23-2.47-.43c-.46-.5-.59-1.21-.68-1.88-.32-2.43-.47-5.14.01-7.56.44-2.25,1.6-4.51,2.7-6.5Z"/>
            <path class="cls-7" d="m46.58,43.84c.25-.75.54-1.52,1.1-2.09s1.44-.87,2.17-.55c.81.36,1.12,1.33,1.35,2.19.38,1.44.77,2.89,1.15,4.33.77,2.89,1.43,11.77-4.17,9.3-4.57-2.02-2.71-9.77-1.6-13.18Z"/>
            <path class="cls-6" d="m38.77,59.81c.33.67.71,1.32,1.26,1.82s1.28.84,2.01.78c1.07-.09,1.95-1.01,2.25-2.04s.13-2.15-.17-3.18c-.71-2.42-2.27-5.08-4.38-6.55-2.68-1.86-2.54,2.39-2.4,4.08s.65,3.5,1.43,5.09Z"/>
            <path class="cls-1" d="m59.11,58.74c.06-.52.09-1.04.09-1.56,0-1.29-.04-2.6-.22-3.88-.08-.6-.14-1.45-.5-1.96-.58-.83-1.15-.26-1.8.32-2.83,2.57-4.17,6.28-4.47,10.04-.09,1.15.02,2.49.96,3.16.58.41,1.37.45,2.04.22s1.24-.69,1.72-1.22c1.27-1.4,1.94-3.23,2.17-5.12Z"/>
            <path class="cls-1" d="m42.3,53.15c.25-.75.54-1.52,1.1-2.09s1.44-.87,2.17-.55c.81.36,1.12,1.33,1.35,2.19.38,1.44.77,2.89,1.15,4.33.77,2.89,1.43,11.77-4.17,9.3-4.57-2.02-2.71-9.77-1.6-13.18Z"/>
            <path class="cls-6" d="m48,54.27c.25-.75.54-1.52,1.1-2.09s1.44-.87,2.17-.55c.81.36,1.12,1.33,1.35,2.19.38,1.44.77,2.89,1.15,4.33.77,2.89,1.43,11.77-4.17,9.3-4.57-2.02-2.71-9.77-1.6-13.18Z"/>
            <path class="cls-6" d="m56.41,108.49c1.03-.15,2.03,2.43,2.05,3.33.51,2.4.98,4.84.96,7.3-.02,1.69-.1,5.14-1.79,6.12-2.1,1.22-4.23-1.32-4.37-3.21-.07-1,.14-1.99.36-2.97.4-1.83.8-3.67,1.2-5.5.24-1.11.34-4.14,1.22-4.88.13-.11.25-.17.38-.18Z"/>
            <path class="cls-6" d="m45.47,161.23c.55,1.01,1.46,2.06,2.6,1.93,1.21-.13,1.87-1.5,2.05-2.7.75-5.01-2.53-9.1-3.7-13.74-.16-.66-.71-5.02-2.05-3.51-.23.25-.34.59-.44.91-.86,2.92-.47,6-.39,8.99.08,2.82.55,5.6,1.92,8.11Z"/>
            <path class="cls-6" d="m43.78,107.35c.09.81.25,1.59.54,2.34.54,1.37,1.99,2.6,3.26,1.53,2.37-2,1.32-6.15.36-8.54-.65-1.63-1.43-3.24-1.77-4.96-.09-.47-.15-.96-.36-1.39-.83-1.76-1.85-.19-2.04.89-.22,1.23.04,2.51.07,3.74.04,2.04-.28,4.29-.06,6.4Z"/>
            <path class="cls-6" d="m56.04,73.06c.81-.4,1.07.95,1.28,1.64.72,2.34,1.28,5.1,1.29,7.56,0,1.29-.12,2.62-.76,3.74-1,1.73-3.19,2.32-4.63.75-1.48-1.61-.71-3.94-.09-5.74.48-1.39.98-2.78,1.48-4.17.25-.69.77-3.39,1.35-3.74.03-.02.05-.03.08-.04Z"/>
            <path class="cls-2" d="m56.74,131.89c.07-1.54.11-3.72.13-6.36.25-.05.51-.14.76-.28,1.69-.98,1.78-4.43,1.79-6.12.02-2.46-.45-4.91-.96-7.3-.02-.78-.78-2.85-1.67-3.26-.08-6.91-.19-14.36-.32-21.24.54-.28,1.03-.73,1.37-1.32.64-1.11.77-2.45.76-3.74-.02-2.46-.57-5.22-1.29-7.56-.2-.64-.43-1.83-1.12-1.69-.07-3.54-.14-6.43-.18-8.36.34-.23.64-.5.92-.81,1.27-1.4,1.94-3.23,2.17-5.12.06-.52.09-1.04.09-1.56,0-1.29-.04-2.6-.22-3.88-.06-.46-.11-1.07-.3-1.56.25-1.11.35-2.26.32-3.39-.06-2.51-.7-4.98-1.48-7.37-.16-.49-.4-1.01-.83-1.25-.04-.37-.09-.75-.17-1.11-.11-.54-.26-1.07-.44-1.58-.43-1.25-.91-2.5-1.52-3.68.09-.22.15-.47.19-.71.41-2.38.03-4.89-1.08-7.04-.57-1.1-1-.83-1.32-.21-.04-.19-.08-.37-.13-.56-.34-1.36-.86-2.62-1.42-3.9-.45-1.04-1.02-1.58-1.83-.59-.22-.76-.51-1.47-.88-2.1-.3-.49-.57-.72-.84-.7-.09-.19-.18-.37-.29-.54-.28-.45-.81-1.47-1.42-1.51-.89-.06-1.25,1.74-1.45,2.41-.25.82-.47,1.65-.58,2.5-.02.16-.04.31-.05.47-.02.18-.01.36.01.55-1.1.68-1.52,2.98-1.86,4.23-.42,1.52-.65,3.24-.11,4.72.05.14.12.27.18.4-.24.86-.42,1.74-.36,2.62-.2-.05-.4-.04-.59.02-1.08.38-1.29,2.97-1.52,3.85-.42,1.65-.77,3.32-.89,5.01-.01.14-.02.3-.02.45-.03,1.06.13,2.34.7,3.3-.4,1.13-.72,2.3-.84,3.44-.03.28-.04.57-.04.85-1,.59-.9,3.18-.79,4.41.15,1.77.65,3.5,1.43,5.09.33.67.71,1.32,1.26,1.82.31.29.69.51,1.1.65.3,1.79,1.11,3.31,2.78,4.05.16.07.31.13.46.18.33,3.66.76,8.3,1,10.31.18,1.51.14,9.14.03,18.9-.73-.67-1.47.57-1.64,1.48-.22,1.23.04,2.51.07,3.74.04,2.04-.28,4.29-.06,6.4.09.81.25,1.59.54,2.34.19.5.51.97.89,1.33-.12,9.38-.23,18.91-.24,26.08,0,1.75.05,3.73.15,5.88-.22-.12-.47-.08-.76.24-.23.25-.34.59-.44.91-.86,2.92-.47,6-.39,8.99.08,2.82.55,5.6,1.92,8.11.31.57.74,1.14,1.25,1.52,2.06,20.13,5.22,41.77,5.22,41.77,7.72,7.13,14.63-2.61,14.63-2.61,0,0-10.4-57.1-9.83-70.01Zm-4.62-85.01l-.02-.09s.03.01.04.02c0,.03-.01.05-.02.08Z"/>
          </g>
        </g>
      </g>
    </g>
  </g>
</svg>