<?xml version="1.0" encoding="UTF-8"?>
<svg xmlns="http://www.w3.org/2000/svg" xmlns:xlink="http://www.w3.org/1999/xlink" viewBox="0 0 188.11 157.72">
  <defs>
    <style>
      .cls-1 {
        isolation: isolate;
      }

      .cls-2, .cls-3 {
        fill: #faddd8;
      }

      .cls-4 {
        fill: #fff;
      }

      .cls-4, .cls-5, .cls-6, .cls-3, .cls-7, .cls-8, .cls-9 {
        stroke-width: 0px;
      }

      .cls-5 {
        fill: #f49297;
      }

      .cls-6 {
        mix-blend-mode: multiply;
      }

      .cls-6, .cls-9 {
        fill: #cd7534;
      }

      .cls-10 {
        clip-path: url(#clippath);
      }

      .cls-7 {
        fill: #d28248;
      }

      .cls-8 {
        fill: #e2af89;
      }
    </style>
    <clipPath id="clippath">
      <path class="cls-3" d="m80.09,123.64c-3.28,8.45-10.01,15.73-18.56,18.69-3.76.57-7.59.52-11.38.24-4.56-.33-9.1-.98-13.57-1.95-11.21-2.43-17.14-13.48-19.91-24-2.81-10.64-1.72-20.86,1.87-30.95,7.68-9.35,20.15-15.44,31.76-14.06,10.56,1.26,22.43,6.98,27.77,16.53,1.47,2.62,2.42,5.49,3.14,8.4,2.21,8.92,2.2,18.54-1.12,27.1Z"/>
    </clipPath>
  </defs>
  <g class="cls-1">
    <g id="Layer_2" data-name="Layer 2">
      <g id="Blancos">
        <path class="cls-4" d="m178.45,46.07C159.94,12.95,104.68,7.97,58.5,7.34c-.07,0-.14,0-.2,0-.27,0-.53,0-.8.02-1.68-1.55-4.13-3.72-7.67-5.58-1.76-.92-3.68-1.49-5.66-1.67-.85-.08-1.7-.11-2.53-.11-8.44,0-15.7,3.99-19.91,10.95-7.52,12.41-2.99,32.29,1.76,46.05C10.6,65.3,1.85,80.43.25,98.83c-1,11.48,1.01,23.05,5.63,32.58,5.57,11.47,14.86,19.76,26.14,23.35.14.04.27.08.41.12,6.55,1.88,13.2,2.83,19.77,2.83,13.26,0,25.27-3.84,34.73-11.09,6.21-4.76,11.04-10.79,14.36-17.83,8.35,2.05,17.59,3.61,27,3.61,4.49,0,8.88-.36,13.06-1.06,19.13-2.77,34.44-14.13,42.01-31.2,7.76-17.49,5.92-37.64-4.92-54.07Z"/>
      </g>
      <g id="Productos">
        <g>
          <path class="cls-9" d="m160.68,46.5c-.59-.71-1.22-1.4-1.9-2.06-5.54-5.41-13.83-8.62-22.06-11.21-24.8-7.8-51.71-11.49-78.43-10.74-2.58.07-5.34.15-7.53-.92-3.25-1.59-4.33-5.31-7.92-6.36-2.93-.86-6.31.61-7.92,2.7s-1.84,4.65-1.91,7.09c-.69,24.69,13.25,53.54,34.13,72.12,10.6,9.43,25.96,14.83,41.48,18.06,9.92,2.07,20.44,3.37,30.42,1.48,9.92-1.88,18.15-5.68,23.95-12.2,14.31-16.1,12.31-33.09,2.62-50.46-1.44-2.58-2.97-5.16-4.93-7.51Z"/>
          <path class="cls-8" d="m51.71,22.56c-5.1.82-9.96,2.71-13.26,6.82,2.01-5,8.15-7.55,13.26-6.82h0Z"/>
          <path class="cls-8" d="m78.77,27.71c-8.75,5.91-18.22,12.97-20.96,23.7-.39,1.49-.57,3.04-.61,4.6-.2-1.55-.12-3.14.11-4.7,2.01-11.15,11.89-18.76,21.45-23.6h0Z"/>
          <path class="cls-8" d="m86.41,53.41c-7.79,8.62-10.11,20.5-10.47,31.78-.03,1.62.24,3.25.97,4.73-.94-1.37-1.33-3.06-1.47-4.71-.43-11.38,2.09-23.95,10.97-31.8h0Z"/>
          <path class="cls-8" d="m112.7,65.01c3.14-6.38,7.5-12.13,12.75-16.95,5.27-5.05,12.64-6.77,19.68-7.44-1.72.42-3.45.78-5.15,1.23-5.12,1.17-9.97,3.38-13.84,6.98-5.19,4.72-9.64,10.26-13.43,16.18h0Z"/>
          <path class="cls-8" d="m133.19,68.57c-9.67,7.99-15.02,20.15-15.55,32.57-.13,1.78-.15,3.56-.16,5.35-.22-1.78-.31-3.57-.34-5.36-.27-12.59,5.39-25.49,16.05-32.56h0Z"/>
          <path class="cls-8" d="m146.99,97.64c4.16-10.16,12.42-18.4,22.05-23.51-.93.69-2.33,1.72-3.26,2.45-7.52,5.75-14.06,12.83-18.79,21.05h0Z"/>
          <path class="cls-6" d="m157.4,101.03c-.14.6-.23,1.23.05,1.8s1.03,1.04,1.79.92c.6-.09,1.03-.5,1.39-.89,2.73-2.92,4.9-6.13,7.06-9.33,2.85-4.21-.6-6.84-4.39-3.09-2.7,2.67-5.16,7.29-5.9,10.59Z"/>
          <path class="cls-7" d="m87.65,122.41c-4.72,9.87-14.02,17.62-24.75,19.69-.46.09-.91.17-1.37.23,8.55-2.96,15.28-10.24,18.56-18.69,3.32-8.56,3.33-18.18,1.12-27.1-.72-2.91-1.67-5.78-3.14-8.4-5.34-9.55-17.21-15.27-27.77-16.53-11.61-1.38-24.08,4.71-31.76,14.06.32-.89.65-1.79,1.01-2.68,4.01-10.04,15.62-16.19,25.97-17.96,9.86-1.69,20.33.41,28.78,5.77,3.13,1.99,6,4.41,8.36,7.27,2.99,3.63,5.13,7.9,6.6,12.36,3.42,10.39,3.12,22.12-1.61,31.98Z"/>
          <g>
            <path class="cls-2" d="m80.09,123.64c-3.28,8.45-10.01,15.73-18.56,18.69-3.76.57-7.59.52-11.38.24-4.56-.33-9.1-.98-13.57-1.95-11.21-2.43-17.14-13.48-19.91-24-2.81-10.64-1.72-20.86,1.87-30.95,7.68-9.35,20.15-15.44,31.76-14.06,10.56,1.26,22.43,6.98,27.77,16.53,1.47,2.62,2.42,5.49,3.14,8.4,2.21,8.92,2.2,18.54-1.12,27.1Z"/>
            <g class="cls-10">
              <g>
                <path class="cls-5" d="m30.37,107.43c-.23-.37.06-1,.53-1.02.4-.01.72-.1,1.02-.39.2-.2.51-.24.78-.07.11.07.24.11.36.15.39.15.54.39.5.8,0,.08-.03.16-.05.24-.11.64-.56.64-.95.43-.13-.07-.25-.16-.37-.24-.29-.2-.34-.2-.58.05-.22.22-.45.38-.78.35-.19-.02-.34-.11-.46-.31Z"/>
                <path class="cls-5" d="m45.68,111.04c-.41.05-.51.36-.61.69-.05.17-.14.26-.33.15-.13-.07-.28-.06-.4-.17-.19-.19-.18-.37.07-.49.1-.05.21-.09.32-.13.07-.03.18-.05.17-.15-.02-.13-.12-.04-.19-.05-.3-.05-.39-.24-.23-.49.1-.14.22-.25.29-.43.08-.21.47-.35.68-.28.17.05.37.08.28.36-.03.08.03.22.17.09.05-.05.13-.06.18-.03.18.12.3.06.41-.1.11-.15.24-.13.38-.02.14.12.3.22.35.4.05.14,0,.29-.16.3-.26.01-.53.12-.78,0-.21-.11-.33-.06-.44.13-.05.08-.12.15-.19.23Z"/>
                <path class="cls-5" d="m42.86,118.11c-.42.26-.81.11-.87-.39-.05-.41-.12-.81-.18-1.22-.05-.3.18-.7.42-.77.28-.09.82.13.95.38.1.2.02.38-.1.55-.09.13-.11.25,0,.4.32.42.25.76-.21,1.04Z"/>
                <path class="cls-5" d="m49.95,123.54c.13.2.14.45,0,.65-.12.16-.27.29-.29.5-.01.12-.11.14-.21.17-.11.04-.28.05-.21.25,0,.01-.03.05-.06.07-.14.09-.5.04-.66-.08-.16-.13-.18-.3-.13-.49.02-.06.04-.13.07-.18.19-.28.22-.57.15-.89-.05-.21-.03-.41.18-.52.21-.11.42-.08.58.11.09.11.22.14.34.2.1.05.19.13.26.23Z"/>
                <path class="cls-5" d="m34.03,127.38c-.43.25-.77.11-.91-.4-.05-.2-.11-.35-.26-.5-.25-.24-.2-.8.05-1.04.17-.16.36-.13.56-.06.21.07.3.24.35.44,0,.03-.06.07-.09.11-.03.04-.12.07,0,.11.12.04.24.11.35.17.41.21.48.49.25.88-.08.13-.2.21-.31.29Z"/>
                <path class="cls-5" d="m69.25,98.51c.12.16.14.36.25.53.11.17.03.39-.11.55-.11.14-.48.04-.6-.16-.04-.07-.03-.16-.06-.24-.04-.1-.09-.13-.17-.02-.08.12-.18.23-.28.35-.09.12-.2.22-.33.29-.18.09-.39.22-.56.1-.2-.15-.31-.39-.28-.66.02-.17.06-.32.31-.29.27.03.08-.21.11-.23.18-.1.35-.24.59-.2.15.03.27.17.4.17.08,0,.07-.22.2-.3.25-.16.38-.15.53.1Z"/>
                <path class="cls-5" d="m60.42,108.82c-.07-.09-.16-.21-.25-.33-.17-.24-.16-.49.02-.72.2-.26.56-.43.77-.29.26.17.45.44.49.76.02.2.04.37.16.55.17.26.06.6-.21.77-.19.12-.47.04-.65-.19-.06-.08-.11-.17-.16-.25-.05-.08-.1-.17-.17-.29Z"/>
                <path class="cls-5" d="m60.36,115.89c-.18.11-.34.16-.51.17-.15,0-.32-.03-.38-.18-.13-.34-.26-.68-.17-1.06.03-.12.06-.26.2-.32.06-.03.13-.06.13-.13,0-.33.27-.3.46-.3.25,0,.48.13.61.36.15.29.03,1.07-.2,1.31-.06.06-.12.11-.15.14Z"/>
                <path class="cls-5" d="m50.04,114.69c.27-.1.59-.24.91-.34.29-.09.42-.01.53.28.04.11.07.22.08.33.04.29,0,.35-.26.44-.09.03-.22.02-.28.09-.14.16-.27.2-.47.12-.07-.02-.2.01-.2.15,0,.21,0,.21-.14.2-.03,0-.06-.01-.1-.02-.24-.06-.5-.09-.56-.39-.06-.3.07-.54.31-.73.04-.03.08-.06.17-.12Z"/>
                <path class="cls-5" d="m40.61,129.44c.16-.08.36-.12.59-.08.36.06.54.27.44.62-.07.25-.13.45.06.69.12.15-.03.54-.21.66-.13.08-.39.04-.54-.12-.08-.08-.14-.18-.19-.28-.1-.21-.2-.4-.35-.59-.27-.34-.18-.67.21-.9Z"/>
                <path class="cls-5" d="m43.53,91.3c.1.23.3.47.3.7,0,.33-.12.68-.24.99-.05.14-.25.21-.43.12-.17-.09-.31-.21-.28-.42.03-.2.07-.38-.15-.52-.11-.07.01-.26-.06-.37-.05-.08-.09-.29-.19-.02-.02.05-.1.02-.11-.03-.01-.06,0-.13,0-.19.03-.28.05-.57.39-.67.26-.08.59.1.79.42Z"/>
                <path class="cls-5" d="m43.87,121.85c-.16-.25-.14-.53.11-.7.36-.24.57-.59.77-.95.11-.19.21-.22.39-.1.12.08.27.12.35.26.12.2.08.32-.15.4q-.36.11-.29.46c.01.06.04.14.02.19-.1.24-.16.44.18.53.07.02.08.14.03.22-.06.08-.16.16-.25.06-.19-.19-.35-.28-.58-.05-.07.07-.22.07-.31-.04-.08-.1-.18-.19-.27-.29Z"/>
                <path class="cls-5" d="m24.97,104.68c.18.33.06.72-.28.91-.48.27-1.01.18-1.22-.2-.18-.34,0-.98.34-1.18.34-.2.91.03,1.15.46Z"/>
                <path class="cls-5" d="m49.84,122.55c-.02-.1-.06-.18-.06-.26,0-.33,0-.65,0-.98,0-.22.15-.31.35-.34.25-.04.44.12.65.21.09.04.07.14.06.22-.02.13-.03.26.05.38.08.12.05.17-.09.21-.07.02-.03.15.02.22.12.15.15.33.15.51-.02.35-.3.5-.58.3-.2-.14-.37-.32-.54-.48Z"/>
                <path class="cls-5" d="m66.91,112.34s.07.15.09.27c.05.31-.04.57-.24.64-.21.08-.62-.04-.78-.21-.12-.13.25-.09.06-.2-.09-.05-.22-.04-.33-.08-.32-.12-.62-.56-.61-.88,0-.1.02-.2.14-.24.36-.11,1.43.31,1.67.7Z"/>
                <path class="cls-5" d="m62.22,87.9c-.29.19-.76.08-1-.27-.21-.3-.15-.82.12-1.04.14-.11.3-.14.47-.12.16.02.32.06.48.12.39.14.5.38.34.77-.08.2-.17.4-.41.54Z"/>
                <path class="cls-5" d="m35.42,88.71c-.4.24-.73.15-.97-.24-.22-.35-.08-.9.29-1.13.32-.21.88-.06,1.09.29.2.34.02.83-.41,1.09Z"/>
                <path class="cls-5" d="m51.84,118.19c-.27,0-.31.22-.33.46,0,.03-.02.06-.03.1-.18.53-.37.59-.81.25-.18-.14-.19-.35,0-.42.2-.08.24-.2.27-.37.02-.1.06-.2.15-.24.24-.09.2-.29.24-.49.03-.17.03-.26-.14-.35-.18-.1-.2-.31-.08-.46.08-.1.19-.12.31-.11.13.01.17.12.16.21-.03.41.19.57.56.63.27.05.32.26.12.46-.12.11-.26.2-.43.33Z"/>
                <path class="cls-5" d="m62.7,121.23c.2-.11.4-.16.55.03.16.21.35.2.57.19.3-.01.41.13.35.42-.1.48-.41.66-.9.53-.1-.03-.19-.05-.29-.02-.3.09-.54-.01-.67-.27-.13-.27.02-.51.21-.72.05-.06.13-.1.18-.15Z"/>
                <path class="cls-5" d="m43.86,104.88c.24-.08.36-.3.6-.31.21,0,.32.05.33.25,0,.06-.01.13-.03.2-.04.16.03.4-.2.45-.26.06-.69-.15-.75-.36-.04-.15-.08-.24-.25-.24-.15,0-.3,0-.35.19-.06.23-.24.26-.43.19-.23-.08-.29-.31-.1-.47.21-.17.35-.39.49-.61.16-.26.39-.32.58-.2.26.15.35.43.22.71-.03.06-.06.11-.11.21Z"/>
                <path class="cls-5" d="m69.26,97.39c-.29.3-.61.11-.92,0-.06-.02-.11-.07-.14-.13-.24-.51.05-1.14.6-1.32.22-.07.39-.02.52.17.19.28.24.6.33.92.03.1-.02.15-.1.2-.08.05-.17.1-.28.17Z"/>
                <path class="cls-5" d="m33.25,96.34c.35.67.05,1.06-.57,1.18-.32.06-.54-.11-.6-.43-.02-.11,0-.23-.03-.34-.03-.15-.15-.29-.04-.46.1-.16.23-.29.39-.36.24-.11.6.04.8.33.02.03.03.06.04.09Z"/>
                <path class="cls-5" d="m38.42,95.78c.37-.22.54-.2.76.07.09.11.15.2.31.11.17-.1.31.03.45.12.1.06.11.16.09.26-.05.24-.29.42-.53.38-.13-.02-.22-.02-.35.07-.28.19-.62.19-.94.03-.15-.08-.23-.21-.18-.36.08-.28.25-.51.38-.67Z"/>
                <path class="cls-5" d="m57.21,88.2c.13.22.19.46.06.7-.14.25-.4.28-.65.25-.18-.02-.36-.07-.52-.15-.39-.19-.53-.7-.26-1,.22-.25.54-.25.82-.19.22.04.42.18.55.39Z"/>
                <path class="cls-5" d="m37.7,108.89c-.05-.14-.12-.3.14-.18,0-.02.01-.03.01-.05-.09-.31-.06-.59.11-.87.04-.07-.04-.15-.05-.23-.05-.24.04-.33.27-.32.16.01.27.11.4.18.18.1.09.25.07.39-.02.1.05.18.1.27.14.28.12.57-.02.85-.2.4-.5.46-.83.16-.07-.07-.13-.14-.2-.21Z"/>
                <path class="cls-5" d="m63.19,104.4c-.1-.11-.2-.31-.17-.56.04-.35.32-.51.63-.33.14.08.28.1.42.14.35.1.36.1.34.48-.01.24-.09.45-.24.64-.24.28-.51.29-.74,0-.07-.09-.12-.2-.23-.37Z"/>
                <path class="cls-5" d="m55.31,117.09c.32-.19.75-.09.89.18.09.17.04.38-.08.44-.21.11-.16.23-.15.4,0,.32-.19.48-.54.48-.31,0-.49-.16-.48-.48.01-.25.07-.5.11-.75.03-.17.17-.24.25-.28Z"/>
                <path class="cls-5" d="m40.34,108.84c-.36.23-.8.03-.92-.41-.05-.17-.07-.36.06-.46.18-.15.15-.45.44-.52.47-.13.77.08.76.58-.01.48-.08.66-.34.82Z"/>
                <path class="cls-5" d="m40.06,91.33c.19.28.2.3-.03.47-.15.11-.28.34-.5.24-.22-.1-.15-.33-.14-.53.02-.28-.05-.32-.3-.22-.05.02-.09.05-.13.07-.18.07-.36.07-.51-.07-.16-.16-.15-.36-.07-.55.08-.19.22-.29.42-.26.26.04.58,0,.67.37.02.08.09.12.19.14.22.04.33.2.41.34Z"/>
                <path class="cls-5" d="m37.91,102.03c.36.63.11,1.19-.28,1.42-.18.1-.33.14-.48-.04-.05-.06-.13-.1-.19-.15-.28-.18-.32-.27-.09-.46.14-.12.19-.26.24-.41.06-.2.19-.34.36-.45.2-.13.32-.11.45.09Z"/>
                <path class="cls-5" d="m56.75,100.7c.19.31.18.5-.07.84-.1.13-.09.35-.36.34-.24,0-.44,0-.48-.29-.02-.15-.17-.2-.24-.31-.18-.28-.05-.71.26-.83.15-.06.31-.13.4.11.06.14.13.09.24-.03.08-.09.17.09.25.16Z"/>
                <path class="cls-5" d="m47.32,114.54c.14.22.12.39.05.57-.08.19-.17.38-.21.59-.04.23-.22.33-.44.31-.23-.02-.37-.13-.42-.35-.03-.14-.04-.29-.07-.44-.06-.31-.06-.31.25-.5.04-.02.11-.08.1-.09-.1-.17-.1-.27.14-.26.23,0,.47-.01.59.17Z"/>
                <path class="cls-5" d="m42.63,98.17c0,.19.16.22.29.3.23.13.24.44-.05.52-.12.03-.16.07-.17.18-.02.23-.18.37-.4.37-.22,0-.41-.11-.51-.33-.18-.39-.14-.57.22-.86.07-.06.09-.13.12-.2.05-.1.09-.22.24-.21.13,0,.16.03.26.24Z"/>
                <path class="cls-5" d="m31.8,92.86c.21.33.01.77-.42.95-.12.05-.25.07-.38.09-.58.08-.65,0-.45-.55.03-.09.04-.19.07-.29.03-.1.04-.2.18-.08.07.06.14-.04.18-.11.06-.1-.04-.29.17-.3.22,0,.43.01.58.21.02.03.04.05.06.08Z"/>
                <path class="cls-5" d="m71.17,113.18s-.07-.13-.09-.24c-.12-.51.27-.88.78-.75.21.05.27.16.27.42,0,.13-.02.27.17.3.09.01.08.09.06.16-.1.26-.25.48-.54.53-.28.05-.47-.11-.65-.42Z"/>
                <path class="cls-5" d="m59.22,108.22c.08.11.15.25.12.4-.03.15-.09.25.12.35.14.06.06.27-.05.38-.11.11-.39.11-.43-.02-.09-.28-.32-.34-.54-.44-.24-.11-.33-.32-.28-.52.06-.23.35-.53.53-.54.28-.02.4.18.54.4Z"/>
                <path class="cls-5" d="m61.77,90.76c-.34.21-.53.22-.7.07-.23-.19-.34-.58-.25-.81.03-.08.09-.09.16-.07.11.03.21,0,.27-.08.09-.12-.08-.1-.1-.16-.02-.06.03-.09.07-.1.29-.08.56-.04.79.16.19.17.2.5,0,.77-.08.1-.19.18-.23.22Z"/>
                <path class="cls-5" d="m39.43,101.7c.19.32.03.92-.3,1.09-.3.16-.7-.01-.85-.37-.07-.16-.13-.31.12-.38.09-.03.28-.13.04-.26-.06-.03-.04-.09-.01-.13.2-.27.83-.24,1,.04Z"/>
                <path class="cls-5" d="m27.7,117.61c-.17-.28-.18-.61-.02-.79.19-.21.49-.27.77-.16.14.05.22.11.17.29-.04.15-.08.34.2.31.05,0,.07.1.05.17-.09.25-.21.5-.48.59-.22.07-.51-.12-.68-.4Z"/>
                <path class="cls-5" d="m35.7,98c-.16.03-.32.12-.48.19-.25.11-.61-.27-.58-.57.03-.24.12-.47.23-.69.05-.1.13-.14.24-.14.32,0,.77.43.83.74.04.22-.06.34-.23.47Z"/>
                <path class="cls-5" d="m45.12,124.57c-.21-.36-.11-.69.27-.85.09-.04.19-.07.29-.09.28-.05.54.04.66.23.11.18.06.56-.1.75-.04.05-.11.11-.16.05-.11-.1-.18-.03-.25.03-.33.24-.5.21-.7-.12Z"/>
                <path class="cls-5" d="m63.96,111.65s-.09-.09-.15-.13c-.23-.13-.39-.3-.32-.6.08-.33.24-.58.56-.7.2-.07.39-.05.52.16.09.14.18.28.21.44.02.09.02.22-.13.19-.13-.03-.17.04-.14.12.08.3-.1.38-.33.44-.08.02-.16.04-.24.06h.02Z"/>
                <path class="cls-5" d="m49.28,112.35s-.11.04-.19.06c-.31.09-.33.09-.43-.21-.05-.16-.11-.27-.3-.35-.26-.11-.28-.38-.12-.68.13-.23.34-.3.58-.16.17.1.35.23.39.43.03.2.03.37.26.47.15.06.06.29-.2.44Z"/>
                <path class="cls-5" d="m65.79,92.03c-.12.02-.23.06-.34.07-.19.02-.42.07-.55-.13-.13-.2.08-.32.16-.47.08-.14.22-.25.22-.43,0-.13-.03-.29.13-.34.23-.08.45-.21.72-.15.12.03.15.13.11.23-.05.14-.11.28-.19.4-.13.19-.3.35-.16.61.04.07-.04.15-.1.2Z"/>
                <path class="cls-5" d="m55.29,106.39c.09.17.04.32-.15.39-.25.09-.51.12-.78.07-.11-.02-.22-.06-.34-.07-.16-.02-.39.03-.41-.18-.03-.22-.05-.47.12-.66.1-.11.23-.13.34-.02.07.07.12.16.19.23.07.07.17.12.26.02.07-.09.14-.19.28-.16.07.02.47.33.5.38Z"/>
                <path class="cls-5" d="m55.06,113.26c-.11-.19-.19-.4-.05-.6.16-.23.41-.25.66-.28.03,0,.08.02.08.03-.02.34.25.32.46.37.02,0,.04.05.06.08.09.19,0,.51-.18.68-.17.17-.38.19-.59.1-.19-.08-.33-.21-.44-.39Z"/>
                <path class="cls-5" d="m26.66,118.69c.15-.09.29-.15.44-.16.3-.03.47.06.57.29.11.25.06.58-.11.75-.04.04-.08.05-.13.04-.17-.03-.4-.26-.45.14,0,0-.06.02-.09,0-.21-.04-.55-.35-.55-.52,0-.25.12-.44.33-.54Z"/>
                <path class="cls-5" d="m40.42,101.65c.08-.07.33-.07.1-.27-.04-.03.05-.12.11-.13.18-.02.36-.03.54.03.06.02.12.06.17.1.18.17.18.49,0,.77-.19.3-.5.46-.74.37-.26-.1-.45-.39-.42-.66q0-.08.23-.21Z"/>
                <path class="cls-5" d="m40.33,88.29c-.26-.41-.12-.79.32-.93.15-.05.29,0,.43.04.18.06.13.19.13.32,0,.11.02.23.2.17.07-.02.07.09.06.16-.04.3-.26.59-.47.64-.23.05-.49-.1-.68-.4Z"/>
                <path class="cls-5" d="m31.93,115.41c.2.34.13.62-.2.82-.14.08-.29.14-.47.13-.22-.02-.45-.05-.55-.27-.1-.23-.04-.46.1-.65.06-.08.15-.31.27-.03.06-.03.12-.05.18-.08.11-.05.16-.23.33-.16.14.06.26.14.33.25Z"/>
                <path class="cls-5" d="m44.84,88.09c.11.19.08.37-.1.51-.11.09-.28.14-.12.33,0,0,0,.04-.02.04-.21.12-.44.13-.67.06-.2-.06-.3-.23-.29-.41,0-.25.08-.49.27-.67.29-.27.73-.2.92.14Z"/>
                <path class="cls-5" d="m39.75,129.16c.18.3.13.62-.12.77-.27.17-.76.13-.94-.24-.16-.32-.08-.67.23-.85.27-.15.63-.02.83.32Z"/>
                <path class="cls-5" d="m58.4,110.46c.12-.07.31-.14.49,0,.19.16.35.36.3.64,0,.05-.02.11-.05.13-.19.11-.42.16-.49.43-.03.09-.5-.02-.63-.15-.14-.14-.16-.32-.1-.5.07-.22.22-.4.49-.56Z"/>
                <path class="cls-5" d="m54.15,109.44c-.34.2-.51.17-.74-.09-.28-.32-.28-.76,0-1.02.23-.21.63-.15.8.12-.16.24.06.26.17.38.12.13.06.31-.04.45-.06.08-.15.13-.18.16Z"/>
                <path class="cls-5" d="m50.6,94.37c-.18.13-.4.15-.61,0-.19-.14-.25-.34-.22-.57.02-.16.07-.29.27-.29.15,0,.28-.02.12-.21,0,0,.04-.06.06-.07.04-.02.09-.03.14-.03.31,0,.63.19.69.39.07.26-.1.56-.46.78Z"/>
                <path class="cls-5" d="m62.74,92.34s.03.04.04.1c.04.23-.18.51-.47.61-.33.11-.69.03-.81-.18-.13-.24-.07-.6.12-.78.1-.1.18-.01.26,0,.1,0,.29.17.28-.13,0-.06.11-.04.17-.01.15.07.28.17.41.39Z"/>
                <path class="cls-5" d="m60.14,121.29s-.1.07-.13.12c-.04.06-.04.13.07.12.03,0,.06,0,.09,0,0,.07-.36.35-.43.33-.3-.06-.6-.44-.56-.71.06-.37.47-.74.78-.71.25.03.48.3.47.56,0,.18-.1.27-.29.29Z"/>
                <path class="cls-5" d="m65.46,102.66s.06.13.08.23c.06.23.06.47-.13.65-.2.19-.45.18-.7.1-.24-.08-.27-.16-.15-.42.04-.08.05-.17,0-.24-.04-.06-.22-.04-.13-.19.09-.16.21-.3.38-.38.24-.12.47-.04.65.26Z"/>
                <path class="cls-5" d="m27.84,112.83c.41-.24.59-.14.62.33,0,.08.02.18,0,.24-.12.24-.23.47,0,.72.06.07.01.19-.08.25-.08.06-.17.11-.27.07-.13-.05-.17-.18-.13-.28.08-.2.01-.28-.16-.38-.53-.3-.51-.64.04-.96Z"/>
                <path class="cls-5" d="m64.05,97.02c-.45.27-.82.15-.95-.27-.07-.23,0-.42.25-.5.13-.04.23-.05.22-.24,0-.08.17-.05.26-.05.25,0,.47.11.56.34.09.24-.06.44-.22.62-.04.05-.1.08-.12.09Z"/>
                <path class="cls-5" d="m44.65,94.95c-.23.1-.46.1-.66-.06-.2-.16-.23-.39-.14-.63.02-.05.03-.1.05-.14.11-.2.17-.46.47-.44.23.02.56.38.61.66.05.26-.07.48-.33.6Z"/>
                <path class="cls-5" d="m67.4,121.23c.21-.15.41-.2.59-.07.21.16.27.41.27.66,0,.05-.04.09-.09.08-.13-.04-.13.06-.15.13-.04.1.04.25-.1.31-.14.06-.28.1-.43.06-.29-.08-.47-.36-.42-.64.04-.21.19-.43.34-.53Z"/>
                <path class="cls-5" d="m34.54,101.52c-.12-.17-.34-.33-.19-.55.14-.21.4-.08.61-.08.17,0,.26.1.24.3-.03.25-.02.5-.28.65-.16.09-.11.2-.06.33.09.24.03.41-.14.5-.16.08-.35.01-.46-.17-.13-.22-.11-.45.05-.58.05-.04.12-.06.17-.09.17-.11.18-.15.06-.3Z"/>
                <path class="cls-5" d="m44.53,104.15c-.23-.36-.16-.61.22-.8.1-.05.21-.09.33-.11.42-.07.67.19.61.6-.02.11-.06.22-.11.33-.02.04-.06.08-.1.1-.13.07-.1-.24-.26-.11-.09.07-.06.23-.2.27-.14.04-.37-.09-.49-.28Z"/>
                <path class="cls-5" d="m25.77,116.46c.25-.15.75-.02.98.27.17.21.13.47-.11.7-.21.21-.4.2-.6-.04-.08-.1-.14-.19-.27-.08-.02.01-.07,0-.09-.01-.19-.16-.13-.71.09-.84Z"/>
                <path class="cls-5" d="m49.3,90.25c.07.14.12.31.05.49-.06.14-.12.27-.33.22-.15-.04-.34-.09-.32.19,0,.01-.06.04-.08.04-.24-.04-.43-.18-.54-.39-.09-.15-.02-.32.09-.46.15-.18.33-.32.57-.36.25-.04.41.03.56.27Z"/>
                <path class="cls-5" d="m49.44,100.1c-.12-.17-.08-.35.05-.53.12-.17.28-.27.5-.25.15.02.17.13.21.24.02.05.03.05.22.02.02,0,.04-.04.07,0,.02.03.04.05.05.08.18.38.13.7-.11.84-.26.14-.78-.06-.98-.4Z"/>
                <path class="cls-5" d="m31.96,99.69c.2.29.01.48-.05.67-.06.18-.24.14-.38.1-.19-.05-.37-.14-.53-.26-.2-.15-.29-.47-.18-.65.08-.14.57-.3.71-.2.18.12.33.27.43.35Z"/>
                <path class="cls-5" d="m33.56,93.65c-.17-.27-.16-.57-.05-.85.07-.18.22-.28.43-.26.22.02.38.15.38.37,0,.16,0,.3.11.41.17.18.02.32-.07.43-.21.24-.63.18-.81-.1Z"/>
                <path class="cls-5" d="m64.24,98.42c-.14-.22-.12-.42.08-.58.18-.15.4-.22.64-.21.22,0,.38.09.46.3.09.24.04.47-.14.62-.04.03-.09.07-.12.07-.17-.03-.36-.19-.49.08,0,0-.09-.02-.13-.04-.11-.06-.22-.14-.28-.25Z"/>
                <path class="cls-5" d="m20.64,105.86c-.06.08-.13.15-.25.1-.13-.06-.16-.16-.15-.28.01-.18.02-.36.05-.54.05-.28.27-.38.66-.3.3.06.47.24.44.49-.02.15-.08.28-.17.4-.07.09-.07.09-.32.04-.11-.02-.19.03-.26.1Z"/>
                <path class="cls-5" d="m42.75,100.15c-.2-.33-.18-.54.05-.75.26-.22.59-.22.84.01.14.13.18.37.09.6-.1.26-.33.37-.57.42-.2.04-.3-.16-.41-.28Z"/>
                <path class="cls-5" d="m65.95,117.23c.26.44.08.92-.41,1.07-.12.04-.23.01-.28-.12-.12-.31-.12-.64-.1-.95.01-.23.24-.34.48-.27.15.04.26.14.32.28Z"/>
                <path class="cls-5" d="m48.91,82.47c.15.08.15.24.18.38.01.06,0,.17-.04.18-.28.09-.37.35-.54.54-.09.11-.24.07-.36,0-.12-.08-.12-.2-.09-.31.09-.3.19-.59.3-.88.05-.12.11-.23.29-.22.16.01.17.12.22.22.01.03.03.06.04.09Z"/>
                <path class="cls-5" d="m60.33,104.07c-.22-.4-.12-.58.31-.6.25-.01.51,0,.64.27.07.16.17.09.28.08.12-.01.17.09.16.2,0,.1-.1.15-.18.12-.2-.07-.33-.05-.41.18-.05.13-.2.15-.35.12-.23-.05-.38-.19-.47-.37Z"/>
                <path class="cls-5" d="m57.45,113.38c.21-.13.45-.04.68-.04.15,0,.23.18.18.34-.05.17-.19.27-.3.38-.09.09-.2.19-.04.33.03.02.03.09.04.14.03.13-.02.22-.14.29-.12.06-.23.03-.31-.07-.08-.1-.1-.24,0-.31.23-.16.12-.27-.02-.4-.08-.08-.16-.17-.22-.27-.12-.19-.08-.29.14-.39Z"/>
                <path class="cls-5" d="m28.69,111.82c.07,0,.15-.02.23,0,.32.05.61.21.94.23.15,0,.29.15.24.36-.05.22-.22.25-.38.21-.2-.05-.38-.11-.53.09,0,.01-.03,0-.05.01-.17.04-.29-.05-.44-.37-.08-.17-.14-.33-.02-.52Z"/>
                <path class="cls-5" d="m74.2,112.31c-.44.24-.73.1-.79-.4-.02-.18-.13-.41.09-.54.21-.13.41-.02.6.08.12.06.21.16.28.27.15.27.1.44-.18.6Z"/>
                <path class="cls-5" d="m63.93,120.25s-.05.02-.08.03c-.17.07-.37.18-.52.04-.15-.13-.08-.35,0-.5.12-.21.04-.42.06-.63.02-.25.12-.36.31-.36.19,0,.34.16.29.37-.06.26-.03.49.07.72.07.16,0,.25-.14.32Z"/>
                <path class="cls-5" d="m70.72,109.91c.2-.12.41-.19.64-.23.33-.05.37-.03.43.28.01.06.02.13.03.19.04.38-.05.45-.41.31-.2-.08-.38-.16-.58,0-.12.1-.25.07-.33-.07-.09-.14-.1-.28.05-.39.05-.04.11-.07.17-.1Z"/>
                <path class="cls-5" d="m58.43,97.85c-.01-.15-.08-.27-.28-.3-.08-.01-.11-.12-.08-.21.03-.09.12-.13.2-.1.17.07.29.02.44-.06.2-.1.39,0,.53.15.14.16.28.33.22.57,0,.03-.03.06-.05.08-.19.21-.83.13-.99-.14Z"/>
                <path class="cls-5" d="m71.02,102.77c-.21.06-.41.25-.64.06-.12-.1-.05-.42.13-.67.06-.08.13-.16.22-.19.14-.06.21-.14.25-.28.01-.05.04-.09.08-.13.12-.13.28-.12.41-.04.14.09.06.24,0,.36-.02.04-.06.09-.1.11-.32.09-.29.29-.19.54.05.13,0,.18-.15.25Z"/>
                <path class="cls-5" d="m65.4,114.26c.2-.11.31-.18.45-.18.2,0,.28.12.25.31-.02.11-.04.23-.07.34-.08.35-.18.42-.54.38-.15-.02-.29.07-.43-.03-.12-.08-.23-.17-.11-.31.17-.19.24-.49.45-.52Z"/>
                <path class="cls-5" d="m58.61,106.55c.12-.04.28-.08.44-.07.3.02.39.14.31.45-.04.14-.08.28-.18.4-.2.25-.38.28-.63.11-.37-.26-.36-.63.06-.89Z"/>
                <path class="cls-5" d="m56.8,93.85c-.12.07-.23.14-.38.12-.19-.02-.32-.07-.29-.3.01-.11-.02-.23,0-.34.03-.29.17-.46.35-.48.22-.02.52.16.61.35.08.17,0,.41-.18.57-.04.03-.08.06-.11.08Z"/>
                <path class="cls-5" d="m42.53,83.46c.11.18.13.36,0,.55-.11.15-.23.23-.42.17-.2-.07-.41-.13-.48-.37-.07-.26.02-.49.14-.7.08-.14.22-.12.35-.05.17.1.32.23.42.41Z"/>
                <path class="cls-5" d="m32.88,118.66c-.15-.25-.15-.53,0-.69.14-.15.44-.18.69-.07.12.05.18.13.19.26.02.32-.17.56-.34.79-.06.08-.15.03-.23.01-.16-.04-.22-.19-.3-.31Z"/>
                <path class="cls-5" d="m43.77,114.66s.12-.07.21-.09c.19-.04.4-.11.53.11.13.21.15.42.05.65-.05.11-.13.14-.23.16-.3.07-.69-.11-.83-.39-.09-.18-.05-.25.27-.44Z"/>
                <path class="cls-5" d="m62.79,128.67c.11.2.09.53-.04.67-.14.14-.53.19-.7.07-.15-.1-.2-.25-.18-.43.03-.22.16-.39.26-.58.06-.11.17-.09.26-.06.18.07.29.21.4.34Z"/>
                <path class="cls-5" d="m29.03,122.9s-.05-.09-.07-.13c-.09-.22,0-.56.19-.66.14-.08.58.01.69.15.07.08.08.19.07.28-.03.28-.2.48-.4.66-.07.07-.15.04-.23,0-.13-.06-.19-.18-.25-.3Z"/>
                <path class="cls-5" d="m51.92,101.58s.07.13.09.22c.05.21-.06.33-.28.35-.11,0-.23.02-.34,0-.2-.03-.39-.1-.45-.33-.05-.19.08-.49.26-.6.22-.13.5,0,.71.35Z"/>
                <path class="cls-5" d="m56.4,127.09c-.24.13-.44.13-.57,0-.16-.18-.26-.39-.18-.63.03-.08.1-.16.21-.19.16-.04.31-.06.48-.03.41.07.5.23.29.59-.06.11-.11.25-.23.27Z"/>
                <path class="cls-5" d="m37.24,128.9c-.14.11-.27.07-.41,0-.25-.14-.31-.37-.32-.62,0-.24.14-.34.38-.3.13.02.26.05.38.1.37.16.42.44.13.72-.05.04-.1.08-.16.12Z"/>
                <path class="cls-5" d="m44.17,101.16c-.03-.07-.06-.14-.08-.22-.05-.16-.1-.32.06-.45.18-.15.4-.16.61-.09.17.06.23.22.24.4,0,.12-.01.23-.07.33-.09.16-.19.32-.39.34-.22.03-.22-.22-.36-.3Z"/>
                <path class="cls-5" d="m44.47,106.38s.03.05.05.1c.05.17.15.35-.02.51-.14.13-.48.19-.66.1-.15-.08-.26-.31-.23-.51,0-.06.03-.13.06-.19.08-.17.17-.33.38-.37.13-.03.25.07.42.36Z"/>
                <path class="cls-5" d="m43.19,122.59c.02.09.06.18.07.28.04.25-.05.46-.22.55-.15.08-.5,0-.64-.14-.11-.12-.16-.25-.07-.4.07-.13.16-.25.25-.36.21-.25.47-.22.61.08Z"/>
                <path class="cls-5" d="m48.48,100.76c-.18-.31-.18-.55.01-.66.26-.14.7-.03.84.21.13.21,0,.58-.26.73-.18.11-.44-.02-.6-.29Z"/>
                <path class="cls-5" d="m70.5,100.05c.24-.15.56-.15.71,0,.15.14.18.49.07.7-.01.03-.03.06-.06.08-.15.14-.33.07-.47,0-.19-.08-.43-.14-.48-.39-.03-.18.07-.31.22-.39Z"/>
                <path class="cls-5" d="m48.52,87.17c-.35.22-.6.11-.66-.3,0-.05-.01-.1-.02-.15-.01-.36.05-.49.23-.52.24-.04.55.12.64.35.12.3.08.45-.2.62Z"/>
                <path class="cls-5" d="m30.36,98.67c-.4.24-.72.07-.75-.39,0-.06.02-.13.01-.2-.02-.43.24-.47.58-.29.15.08.27.18.33.35.1.24.05.4-.18.54Z"/>
                <path class="cls-5" d="m42.42,121.04c-.15-.24-.1-.37.17-.47.08-.03.15-.06.23-.08.2-.05.42-.07.54.13.11.18.06.39-.01.57-.06.15-.2.21-.37.2-.26,0-.43-.15-.57-.35Z"/>
                <path class="cls-5" d="m37.58,93.24c-.18.11-.48.04-.68-.15-.16-.16-.2-.4-.09-.58.05-.09.14-.09.22-.08.26.04.51.07.76.14.21.06.24.21.1.37-.1.11-.21.21-.31.3Z"/>
                <path class="cls-5" d="m39.46,113.04c-.17-.27-.12-.6.06-.71.19-.12.52-.06.67.12.12.14.05.8-.11.92-.1.08-.22.07-.31-.02-.12-.11-.23-.23-.31-.31Z"/>
                <path class="cls-5" d="m42.25,115.18c-.13-.21-.12-.39.05-.47.33-.16.74-.19.87.04.11.18.04.62-.12.74-.2.14-.61-.02-.8-.31Z"/>
                <path class="cls-5" d="m28.51,124.15c.16.19.04.32-.12.47-.15.13-.26.33-.48.28-.25-.06-.18-.33-.22-.5-.08-.31,0-.46.26-.56.21-.08.39,0,.57.3Z"/>
                <path class="cls-5" d="m56.4,129.71c.34-.21.46-.16.56.18.01.05.03.09.04.14.07.32,0,.5-.21.59-.19.07-.55-.01-.64-.16-.11-.17-.04-.51.15-.68.04-.03.08-.06.1-.07Z"/>
                <path class="cls-5" d="m48.07,106.38c.17-.12.76-.04.89.12.13.17.02.53-.21.69-.21.15-.46.08-.63-.18-.18-.26-.2-.52-.05-.63Z"/>
                <path class="cls-5" d="m32.57,99.41c-.12-.18-.1-.54.03-.66.11-.1.46-.12.62-.03.17.1.27.35.15.57-.08.16-.11.42-.34.44-.22.02-.32-.2-.46-.33Z"/>
                <path class="cls-5" d="m54.22,82.9c.09.17.05.47-.09.59-.18.14-.54.18-.69.06-.07-.05-.11-.12-.1-.21.02-.18.04-.35.12-.52.15-.3.3-.35.55-.12.07.07.14.14.21.21Z"/>
                <path class="cls-5" d="m55.33,124.15c.03.07.09.15.08.22,0,.19.13.4-.06.55-.16.13-.35.04-.51-.03-.21-.1-.34-.26-.35-.49-.01-.16.18-.34.42-.43.2-.07.31.03.42.17Z"/>
                <path class="cls-5" d="m55.5,104.09c-.26.17-.46.12-.62-.15-.1-.17-.11-.35-.07-.53.05-.26.17-.32.43-.22.09.04.19.07.27.13.37.24.36.53,0,.77Z"/>
                <path class="cls-5" d="m26.52,103.38c-.25.17-.65.13-.81-.04-.15-.16-.12-.47.05-.68.08-.1.17-.15.3-.1.26.09.43.3.57.52.09.14-.07.23-.12.31Z"/>
                <path class="cls-5" d="m48.13,127.38c.28-.18.8-.14.91.07.08.14-.03.61-.16.69-.2.12-.6-.04-.8-.33-.11-.16-.09-.34.05-.43Z"/>
                <path class="cls-5" d="m38.01,113.6c-.06-.13-.1-.2-.13-.28-.09-.26-.05-.44.1-.53.16-.1.47-.08.61.03.16.13.18.36.07.59-.05.11-.13.19-.22.26-.21.15-.34.12-.43-.07Z"/>
                <path class="cls-5" d="m27.02,115.81c-.27.16-.43.14-.55-.06-.17-.28-.13-.57.1-.69.22-.11.63-.02.76.18.12.18,0,.39-.32.57Z"/>
                <path class="cls-5" d="m50.48,123.74c.24-.15.43-.12.56.08.14.22.14.7,0,.78-.21.11-.57-.03-.72-.28-.14-.24-.09-.42.17-.58Z"/>
                <path class="cls-5" d="m61.98,99.55c-.13-.23-.08-.38.16-.45.08-.03.16-.05.24-.06.2-.02.41-.03.53.16.09.15-.07.55-.24.64-.19.1-.39.06-.56-.14-.04-.05-.08-.1-.12-.15Z"/>
                <path class="cls-5" d="m25.08,117.85c-.23.14-.44.09-.58-.15-.15-.24-.12-.63.06-.73.15-.08.66.16.77.35.09.17,0,.37-.25.52Z"/>
                <path class="cls-5" d="m52.56,129.04c.02.18.19.43,0,.6-.17.17-.45.19-.7.14-.14-.03-.16-.13-.14-.27.05-.27.25-.46.39-.67.1-.14.32-.05.44.19Z"/>
                <path class="cls-5" d="m43.68,118.36c.04.08.03.16,0,.24-.08.22-.25.39-.39.56-.1.12-.32.05-.4-.11-.09-.18-.05-.39-.1-.58,0-.02.02-.06.03-.09.1-.15.7-.19.83-.06.01.01.02.03.03.04Z"/>
                <path class="cls-5" d="m37.78,131.99c-.07.01-.14.04-.17.02-.17-.12-.4-.16-.51-.36-.11-.21-.03-.39.21-.41.21-.02.4-.14.63-.06.13.04.21.11.18.24-.06.23-.21.4-.34.58Z"/>
                <path class="cls-5" d="m64.75,94.7c.28.01.56-.15.86-.03.11.04.14.16.09.25-.09.17-.19.35-.32.49-.11.13-.27.08-.56-.14-.18-.14-.23-.32-.14-.47.02-.03.04-.05.07-.09Z"/>
                <path class="cls-5" d="m54.61,93.93c.03.1.07.21.09.32.01.13-.05.23-.19.24-.07,0-.13,0-.2,0-.18-.02-.45.04-.49-.14-.05-.2-.02-.46.11-.67.12-.18.29-.19.43,0,.07.09.14.18.25.26Z"/>
                <path class="cls-5" d="m48.09,88.66c-.26.16-.4.09-.44-.2-.02-.11-.05-.22-.05-.34,0-.13,0-.27.11-.36.21-.17.36,0,.51.13.14.11.34.2.19.42-.09.13-.18.27-.32.35Z"/>
                <path class="cls-5" d="m35.19,90c.08-.02.19-.08.3-.08.13,0,.28.05.22.24-.06.2.03.42-.11.62-.14.19-.27.22-.44.07-.02-.02-.04-.05-.06-.08-.34-.35-.33-.5.09-.77Z"/>
                <path class="cls-5" d="m21.62,102.33c.18.26.18.29-.12.48-.15.1-.3.26-.49.13-.19-.12-.15-.33-.1-.49.05-.17-.05-.45.23-.49.23-.04.34.16.45.33,0,.01.02.03.03.04Z"/>
                <path class="cls-5" d="m39.25,124.63c-.15.1-.34.04-.4-.13-.02-.06-.03-.13-.02-.2.03-.17-.1-.4.07-.51.2-.13.45-.04.67,0,.14.03.18.16.13.32-.08.24-.31.34-.45.52Z"/>
                <path class="cls-5" d="m40.15,131.03c.09.15.06.36-.08.43-.13.07-.32.08-.38-.08-.08-.2-.2-.2-.38-.18-.3.03-.39-.12-.3-.39.07-.2.15-.25.38-.14.19.09.34.28.6.2.09-.03.11.11.17.15Z"/>
                <path class="cls-5" d="m43.64,108.71c.18-.07.33-.03.49.04.35.16.37.2.22.55-.03.08-.05.16-.09.23-.11.18-.24.18-.4.04-.19-.18-.21-.43-.3-.65-.02-.05.06-.14.09-.21Z"/>
                <path class="cls-5" d="m33.35,121.85c-.22.02-.45.05-.66-.07-.11-.06-.13-.17-.06-.3.1-.22.31-.34.45-.52.07-.09.25-.04.3.06.13.22.13.47.08.72,0,.04-.06.07-.11.12Z"/>
                <path class="cls-5" d="m44.92,105.44c.18-.06.33-.17.52-.18.22,0,.37.12.3.32-.07.19-.08.49-.3.53-.23.04-.47-.13-.65-.3-.12-.11-.05-.29.12-.37Z"/>
                <path class="cls-5" d="m45.48,122.14c.31,0,.61-.14.91,0,.11.05.12.14.08.25-.07.19-.22.32-.35.47-.04.04-.11.06-.18.04-.19-.06-.51-.45-.51-.63,0-.04.03-.09.05-.15Z"/>
                <path class="cls-5" d="m25.25,113.16c.28-.18.31-.18.49.11.06.1.13.19.16.3.06.22-.08.37-.31.32-.16-.04-.32-.03-.47-.11-.29-.15-.31-.31-.04-.51.05-.04.11-.07.17-.1Z"/>
                <path class="cls-5" d="m70.29,103.93c.28,0,.56-.08.82.06.01,0,.03.01.04.03.11.16.02.29-.08.39-.13.13-.2.42-.44.29-.16-.08-.32-.23-.41-.41-.07-.14,0-.25.07-.35Z"/>
                <path class="cls-5" d="m63.26,98.53s-.03.02-.09.05c-.17.09-.31.09-.4-.12-.03-.08-.1-.14-.12-.21-.04-.14-.08-.28.05-.42.13-.14.23-.04.35,0,.09.04.2.04.28.09.12.06.25.12.25.28,0,.16-.12.22-.32.32Z"/>
                <path class="cls-5" d="m62.57,118.55c.18-.1.31-.05.39.11.1.22.05.45.03.68,0,.12-.14.17-.27.15-.25-.05-.35-.29-.52-.43-.02-.02,0-.11.02-.14.12-.13.25-.26.35-.36Z"/>
                <path class="cls-5" d="m47.22,104.35c.07.12.1.23.05.34-.06.12-.18.13-.3.13-.05,0-.1-.01-.15-.03-.5-.12-.59-.44-.25-.83.11-.13.3-.14.36.01.07.16.15.29.28.37Z"/>
                <path class="cls-5" d="m27.96,100.89c-.1-.23-.21-.4-.19-.61.01-.14.07-.22.2-.23.22-.01.41.1.59.2.06.03.09.11.06.17-.07.16-.08.35-.23.48-.2.18-.34.16-.43-.01Z"/>
                <path class="cls-5" d="m39.89,85.17c-.19.03-.33.21-.54.21-.18,0-.3-.08-.27-.26.02-.16.07-.32.14-.47.04-.09.13-.15.24-.11.16.07.35.07.49.22.16.16.15.3-.05.41Z"/>
                <path class="cls-5" d="m66.82,101.64c-.12.07-.19.11-.27.05-.11-.08-.23-.14-.32-.23-.09-.1-.13-.23-.06-.37.05-.11.15-.14.25-.12.18.02.35-.08.54-.02.18.05.26.16.17.32-.09.15-.22.28-.3.38Z"/>
                <path class="cls-5" d="m68.82,105.47c.17-.08.34-.06.45.07.09.11.35.13.26.36-.09.21-.19.42-.42.52-.06.03-.13.01-.17-.05-.17-.24-.19-.52-.2-.79,0-.04.06-.07.09-.11Z"/>
                <path class="cls-5" d="m47.06,85.09c.03.13.11.27,0,.42-.1.13-.21.04-.32.04-.02,0-.03,0-.05,0-.21-.03-.48,0-.55-.24-.08-.25.22-.34.35-.49.1-.12.23-.12.34,0,.08.09.15.17.24.26Z"/>
                <path class="cls-5" d="m28.95,93.91c.1.1.15.22.07.35-.07.1-.2.11-.31.11-.11,0-.22-.04-.34-.06-.11-.02-.18-.1-.16-.21.05-.21-.04-.52.21-.61.24-.09.35.17.47.34.02.03.04.05.06.08Z"/>
                <path class="cls-5" d="m44.71,84.74c.02.06.05.17.08.28.04.17,0,.3-.19.33-.2.03-.43.23-.59,0-.12-.17.02-.37.1-.54.02-.04.05-.08.08-.12.15-.27.33-.26.52.05Z"/>
                <path class="cls-5" d="m54.02,98.46s.01.11,0,.16c-.02.06-.07.11-.11.16-.28.39-.37.4-.71.07-.12-.11-.19-.23-.14-.39.05-.16.19-.15.33-.15.11,0,.23-.04.34-.03.11.01.23.03.3.18Z"/>
                <path class="cls-5" d="m33.32,85.72c.04.08.07.16.11.23.08.15.04.25-.11.32-.07.03-.15.06-.23.08-.12.04-.25.14-.37.04-.13-.12-.1-.3-.05-.46.02-.06.06-.11.09-.17.05-.14.05-.3.26-.3.19,0,.21.18.31.26Z"/>
                <path class="cls-5" d="m57.92,119.15c-.12-.15-.12-.27.01-.36.15-.11.26-.37.49-.27.23.11.19.35.16.57-.01.06,0,.13-.01.2-.03.18-.15.21-.29.17-.17-.05-.27-.19-.35-.3Z"/>
                <path class="cls-5" d="m63.79,92.59c.14-.06.3-.23.44-.06.14.16.26.35.2.58-.03.12-.12.2-.26.16-.13-.04-.25-.07-.37-.13-.11-.06-.27-.09-.28-.24-.02-.18.14-.24.27-.31Z"/>
                <path class="cls-5" d="m32.5,112.45c-.13.06-.27.2-.4.08-.15-.14-.28-.32-.27-.55,0-.14.11-.22.23-.2.17.03.35.07.51.15.23.11.25.3.05.45-.04.03-.08.05-.13.08Z"/>
                <path class="cls-5" d="m34.39,94.66c.1.17-.01.52-.18.6-.16.08-.39-.03-.49-.22-.12-.24-.09-.47.09-.56.21-.12.47-.04.59.18Z"/>
                <path class="cls-5" d="m46.44,100.02c.22-.13.41-.1.52.08.14.24.1.48-.11.6-.17.09-.49.03-.58-.12-.08-.13.03-.47.18-.56Z"/>
                <path class="cls-5" d="m38.87,117.89c-.12.05-.25.03-.35-.06-.11-.1-.14-.26-.06-.36.12-.15.22-.33.4-.42.12-.06.23-.02.27.11.05.15-.12.63-.27.72Z"/>
                <path class="cls-5" d="m62.1,113.84s.07.77.03.81c-.08.09-.17.16-.3.1-.1-.04-.22-.08-.21-.23.01-.19.11-.36.12-.56,0-.14.29-.22.35-.12Z"/>
                <path class="cls-5" d="m32.61,104.7c-.14.1-.65-.02-.71-.14-.07-.17.05-.32.15-.37.13-.06.3-.14.47-.04.08.05.22.09.21.18-.01.14-.09.27-.12.37Z"/>
                <path class="cls-5" d="m47.08,128.2c.14.23.14.37-.02.47-.17.1-.36.03-.49-.18-.02-.03-.03-.06-.05-.09-.07-.17-.04-.4.08-.44.16-.04.33-.04.42.15.01.03.03.06.05.08Z"/>
                <path class="cls-5" d="m47.26,117.32c.06.12.09.27.03.44-.04.12-.13.19-.26.18-.13,0-.23-.05-.27-.18-.05-.14-.06-.29.01-.43.05-.1.07-.23.21-.25.13-.01.2.09.28.23Z"/>
                <path class="cls-5" d="m72.95,117.35s.01.08,0,.13c-.09.23-.18.45-.28.68-.02.05-.06.08-.11.06-.04-.02-.09-.05-.11-.09-.08-.16.02-.73.15-.84.09-.08.3-.05.36.06Z"/>
                <path class="cls-5" d="m36.67,100.86c-.08-.12-.16-.24-.06-.37.06-.08.15-.11.26-.11.16,0,.23.1.27.24.07.22.04.5-.08.54-.11.04-.27-.08-.4-.3Z"/>
                <path class="cls-5" d="m63.69,127.02c.08.15.02.32-.14.41-.13.08-.37.02-.44-.1-.04-.08.03-.4.11-.45.12-.08.4,0,.47.13Z"/>
                <path class="cls-5" d="m29.92,99.97c-.24.13-.42.12-.5,0-.08-.13,0-.38.17-.46.15-.08.42-.01.48.12.07.17.01.28-.15.35Z"/>
                <path class="cls-5" d="m74.04,109.61c.08.11.03.32-.1.43-.14.11-.29.1-.38-.03-.13-.18-.13-.31,0-.43.15-.13.36-.11.47.03Z"/>
                <path class="cls-5" d="m57.95,126.7c.2-.1.39-.05.47.11.08.16.02.35-.12.41-.13.06-.33-.03-.4-.19-.05-.12-.07-.25.05-.34Z"/>
                <path class="cls-5" d="m59.73,104.91c.05.09-.09.36-.2.4-.1.04-.33-.06-.38-.17-.08-.16-.02-.36.12-.43.16-.08.35,0,.45.19Z"/>
                <path class="cls-5" d="m42.75,131.32c.07.15-.03.39-.19.46-.15.07-.29.01-.36-.15-.07-.16,0-.36.15-.41.15-.05.29-.03.39.1Z"/>
                <path class="cls-5" d="m50.55,133.79c.05.1,0,.23-.14.32-.14.1-.42.03-.46-.13-.05-.16.02-.29.15-.38.14-.09.34-.02.45.18Z"/>
                <path class="cls-5" d="m63.94,111.64c.04.14.08.29.05.44-.03.15-.15.22-.28.25-.12.03-.18-.05-.24-.14-.08-.11-.03-.21.02-.32.1-.21.31-.16.47-.22h-.02Z"/>
                <path class="cls-5" d="m58.89,104.37c-.13.06-.27.12-.38-.05-.08-.12-.05-.35.07-.44.08-.06.38-.02.45.06.09.11.03.32-.14.43Z"/>
                <path class="cls-5" d="m70.27,94.87c.07.11,0,.37-.11.44-.14.09-.34.04-.42-.11-.09-.15-.04-.29.08-.39.1-.09.38-.04.45.06Z"/>
                <path class="cls-5" d="m30.65,125.26c.07.14.03.3-.11.37-.13.07-.37.01-.44-.11-.06-.1.02-.31.13-.38.14-.09.34-.03.42.12Z"/>
                <path class="cls-5" d="m42.19,109.92c.09.15.03.35-.12.42-.13.06-.35.01-.4-.09-.07-.13,0-.38.14-.43.14-.05.29-.07.38.11Z"/>
                <path class="cls-5" d="m65.45,121.59c.22-.12.39-.07.48.1.08.16.05.29-.08.39-.12.1-.38,0-.45-.16-.06-.13-.06-.25.05-.33Z"/>
                <path class="cls-5" d="m67.37,100.18c.1.14.07.34-.06.44-.11.09-.35.08-.42,0-.1-.12-.03-.37.14-.48.15-.1.26-.09.34.03Z"/>
                <path class="cls-5" d="m66.72,122.48c.06.11,0,.33-.1.4-.14.09-.37.05-.44-.08-.08-.16-.04-.35.1-.43.12-.07.36,0,.43.11Z"/>
                <path class="cls-5" d="m48.98,102.87c.16.24.13.4-.02.5-.15.09-.28.05-.39-.08-.11-.14-.07-.33.08-.42.15-.09.28-.08.33,0Z"/>
                <path class="cls-5" d="m31.95,119.81c.16-.1.36-.08.43.06.09.16,0,.29-.1.4-.1.11-.35.05-.44-.08-.08-.13-.04-.29.1-.38Z"/>
                <path class="cls-5" d="m46.83,106.68c.05.11-.06.34-.2.41-.16.08-.3.04-.36-.12-.06-.14.02-.35.17-.41.09-.03.36.05.4.12Z"/>
                <path class="cls-5" d="m45.27,92.28c.09.15.02.27-.1.37-.13.11-.28.11-.4,0-.09-.07-.04-.39.05-.45.13-.09.36-.06.46.07Z"/>
                <path class="cls-5" d="m40.84,116.01c-.05.03-.15-.08-.23-.17-.08-.09-.02-.39.07-.44.09-.05.41,0,.45.08.06.12-.04.37-.28.52Z"/>
                <path class="cls-5" d="m53.64,101.32c.14.21.11.4-.02.5-.12.09-.36.04-.42-.1-.07-.15-.04-.28.11-.37.14-.09.27-.12.33-.02Z"/>
                <path class="cls-5" d="m21.09,107.39c-.03-.13-.1-.27.04-.39.12-.1.4-.04.48.09.06.09,0,.31-.12.38-.13.08-.33.05-.4-.08Z"/>
                <path class="cls-5" d="m61.06,97.65c-.08.05-.4-.02-.45-.09-.07-.1.03-.32.17-.41.16-.1.29-.07.37.07.07.12.01.37-.09.43Z"/>
                <path class="cls-5" d="m50.86,110.83c.07.13.02.27-.09.38-.09.08-.34.07-.41,0-.1-.12-.03-.36.14-.47.11-.07.27-.04.36.1Z"/>
                <path class="cls-5" d="m30.54,96.15c.07.13.01.26-.11.37-.13.1-.34.08-.38-.05-.05-.13-.11-.29.05-.4.15-.11.34-.08.45.09Z"/>
                <path class="cls-5" d="m53.22,114.43c.08.15.02.39-.11.42-.15.04-.31.02-.39-.14-.07-.14-.08-.29.08-.39.15-.1.34-.05.42.11Z"/>
                <path class="cls-5" d="m34.58,107.36c.14-.09.36-.04.44.09.08.13,0,.35-.14.42-.17.09-.28-.06-.4-.12-.09-.05,0-.32.1-.39Z"/>
                <path class="cls-5" d="m49.67,104.9c-.08-.16-.03-.34.13-.4.14-.06.26-.03.34.1.1.14.05.33-.11.42-.14.08-.29.04-.37-.11Z"/>
                <path class="cls-5" d="m32.15,101.04c-.13.09-.36.03-.44-.11-.07-.14-.03-.25.1-.34.13-.08.38-.06.45.04.04.06-.04.35-.11.4Z"/>
                <path class="cls-5" d="m45.51,102.24c.19-.09.42-.02.49.14.05.12-.02.32-.16.36-.14.04-.3.04-.36-.14-.05-.13-.12-.28.03-.36Z"/>
                <path class="cls-5" d="m40.86,91.63c-.15.09-.37.03-.45-.11-.07-.13-.06-.25.08-.33.16-.09.37-.06.42.07.05.14.08.28-.05.37Z"/>
                <path class="cls-5" d="m56.68,110.43c.09.13.03.23-.1.31-.16.11-.32.07-.42-.08-.08-.13-.04-.31.09-.38.14-.08.32-.02.43.15Z"/>
                <path class="cls-5" d="m42.24,120.06c.11.17-.01.28-.12.38-.09.09-.32.05-.39-.05-.09-.13-.05-.36.08-.44.12-.08.34-.02.44.12Z"/>
                <path class="cls-5" d="m40.93,121.41c.13-.07.39-.02.44.09.06.14-.05.4-.19.46-.15.06-.25-.05-.33-.14-.06-.07.02-.36.09-.4Z"/>
                <path class="cls-5" d="m60.83,91.73c-.13.06-.27.03-.39-.07-.09-.08-.02-.34.1-.43.13-.1.29-.07.38.06.09.15.06.35-.09.45Z"/>
                <path class="cls-5" d="m53.32,102.72c.11-.07.35.01.41.15.07.15-.03.27-.14.32-.12.05-.29.09-.4-.06-.1-.13-.03-.33.12-.42Z"/>
                <path class="cls-5" d="m56.51,95.21c.12-.08.34-.04.41.08.07.13.12.28-.04.4-.13.1-.41.05-.48-.09-.07-.16.03-.28.1-.39Z"/>
                <path class="cls-5" d="m45.24,114.13c.13-.09.35-.04.45.09.07.09.02.3-.1.38-.13.09-.35.05-.43-.09-.09-.15-.03-.28.08-.38Z"/>
                <path class="cls-5" d="m46.75,113.05c.09.16.05.32-.11.42-.15.09-.28.04-.36-.11-.08-.15-.01-.34.14-.41.12-.06.27-.01.33.11Z"/>
                <path class="cls-5" d="m35.18,128.28c-.15.08-.37.03-.42-.11-.07-.17.03-.28.15-.37.09-.07.37,0,.43.11.06.09-.04.3-.16.37Z"/>
                <path class="cls-5" d="m56.7,98.16c.1.15.06.28-.08.38-.16.11-.31.09-.42-.07-.13-.16,0-.28.08-.38.1-.11.34-.06.42.07Z"/>
                <path class="cls-5" d="m62.93,124.64c-.13.09-.36.05-.44-.07-.07-.12-.03-.3.11-.38.13-.07.25-.07.34.06.1.14.1.31-.01.39Z"/>
                <path class="cls-5" d="m57.58,104.04c-.11.04-.24.02-.35-.11-.1-.12-.05-.36.09-.42.14-.07.28-.06.38.09.1.15.06.33-.13.45Z"/>
                <path class="cls-5" d="m42.85,105.96c.1.15.07.36-.07.43-.14.07-.27.06-.38-.1-.11-.16-.06-.27.07-.37.15-.11.28-.1.38.04Z"/>
                <path class="cls-5" d="m35.28,86.02c.08.11.04.33-.08.38-.13.05-.3.11-.39-.05-.07-.13-.1-.28.05-.39.13-.11.32-.07.42.07Z"/>
                <path class="cls-5" d="m54.87,81.22c.06.12-.05.35-.2.4-.14.05-.31,0-.34-.13-.03-.12-.02-.3.15-.38.16-.07.32-.03.38.1Z"/>
                <path class="cls-5" d="m48.36,84.51c.17-.09.34-.06.41.09.06.14-.02.33-.18.4-.13.06-.27.06-.32-.11-.04-.13-.13-.29.1-.38Z"/>
                <path class="cls-5" d="m55.31,126.25c.04.1.15.23-.04.35-.16.11-.38.09-.43-.05-.06-.15-.02-.29.12-.39.13-.09.24-.1.35.09Z"/>
                <path class="cls-5" d="m27.56,95.75c.08.13.04.3-.1.38-.14.08-.28.09-.39-.05-.09-.11-.05-.33.05-.39.14-.09.36-.05.44.07Z"/>
                <path class="cls-5" d="m49.92,106.29c.14-.05.28-.06.37.1.09.14.04.34-.1.42-.13.07-.32.01-.37-.12-.06-.15-.05-.29.1-.39Z"/>
                <path class="cls-5" d="m38.23,105.08c-.14.06-.28.05-.38-.09-.07-.09-.02-.34.07-.39.15-.09.38-.01.45.16.07.15-.02.24-.14.33Z"/>
                <path class="cls-5" d="m56.29,128.13c0,.13.03.28-.08.39-.1.11-.28.05-.42-.1-.13-.14-.04-.24.04-.34.08-.09.38-.06.46.05Z"/>
                <path class="cls-5" d="m20.89,111.48c.13-.07.31-.02.38.11.08.15.05.28-.1.37-.14.09-.35.03-.41-.12-.07-.17.03-.27.13-.37Z"/>
                <path class="cls-5" d="m47.9,98.44c.12-.07.24-.06.34.07.1.14.07.34-.05.44-.13.11-.28.06-.41-.12-.07-.11-.02-.29.12-.39Z"/>
                <path class="cls-5" d="m27.54,104.42c.06.13-.02.39-.16.42-.1.03-.22.06-.28-.1-.06-.17-.05-.4.05-.46.08-.05.35.05.39.14Z"/>
                <path class="cls-5" d="m52.28,122.1c0,.14.03.29-.12.39-.13.08-.29.04-.38-.11-.08-.13-.06-.26.05-.35.1-.09.39-.03.45.08Z"/>
                <path class="cls-5" d="m48.23,108.98c-.15.08-.35.03-.43-.12-.09-.15-.02-.25.11-.33.14-.09.3-.04.38.1.08.13.05.29-.05.35Z"/>
                <path class="cls-5" d="m41.44,92.72c-.14.03-.28.06-.4-.06-.11-.12-.07-.33.07-.43.1-.07.3,0,.38.12.08.13.04.25-.06.37Z"/>
                <path class="cls-5" d="m50.35,86.87c.06.12.07.25-.05.35-.13.11-.33.07-.42-.09-.09-.15-.02-.26.08-.35.1-.09.31-.05.39.08Z"/>
                <path class="cls-5" d="m58.28,88.89c.06.14-.02.36-.16.43-.11.05-.28-.05-.34-.21-.05-.14-.02-.26.1-.35.06-.05.37.06.4.12Z"/>
                <path class="cls-5" d="m40.19,120.79c.13-.08.31-.04.38.09.08.14.04.31-.09.38-.13.08-.32.04-.38-.09-.08-.15-.05-.28.09-.39Z"/>
                <path class="cls-5" d="m42.77,81.98c-.13.08-.34.05-.39-.06-.05-.1.02-.36.11-.39.15-.05.29-.06.4.08.08.1.02.29-.11.38Z"/>
                <path class="cls-5" d="m38.99,114.64c.14-.08.35-.03.43.12.07.14.04.27-.11.33-.12.05-.26.09-.35-.05-.08-.11-.05-.35.03-.4Z"/>
                <path class="cls-5" d="m42.1,93.62c.07.13.03.25-.08.34-.12.1-.3.07-.39-.07-.09-.14-.05-.25.07-.34.12-.09.32-.06.4.06Z"/>
                <path class="cls-5" d="m43.13,89.66c-.13.09-.25.06-.36-.04-.09-.09-.06-.31.05-.4.11-.09.31-.06.4.06.09.11.05.29-.09.39Z"/>
                <path class="cls-5" d="m50.62,125.76c.12-.06.23-.03.28.09.05.13.13.27-.06.38-.15.08-.31.06-.39-.06-.07-.11.02-.33.16-.41Z"/>
                <path class="cls-5" d="m49.43,110.01c.12.18.09.37-.07.45-.13.07-.25.07-.34-.07-.09-.14-.06-.31.08-.38.12-.07.25-.11.33,0Z"/>
                <path class="cls-5" d="m23.41,116.81s-.03.13-.12.2c-.12.11-.37.11-.43,0-.06-.12-.07-.24.07-.34.16-.11.3-.1.49.15Z"/>
                <path class="cls-5" d="m24.57,121.4c.11-.07.32,0,.38.14.05.12.09.25-.06.35-.14.09-.31.06-.39-.08-.07-.12-.03-.34.07-.4Z"/>
                <path class="cls-5" d="m73.41,98.89c-.13.05-.25.05-.36-.06-.12-.12-.1-.34.04-.44.09-.06.19-.04.27.04.11.11.14.39.05.46Z"/>
                <path class="cls-5" d="m58.41,98.89c.05.15.04.29-.1.39-.12.08-.24.08-.34-.05-.1-.14-.08-.31.04-.39.12-.08.34-.05.41.05Z"/>
                <path class="cls-5" d="m60.3,90.94c-.13.09-.31.07-.39-.06-.08-.14-.03-.25.08-.34.12-.09.33-.06.39.06.06.13.05.25-.08.34Z"/>
                <path class="cls-5" d="m32.29,90.65c-.14.07-.34,0-.38-.12-.04-.13-.02-.26.1-.35.11-.08.38.01.42.14.04.14-.03.25-.14.33Z"/>
                <path class="cls-5" d="m41.7,80.71c-.21.23-.46.37-.77.34-.06,0-.15-.05-.16-.09-.02-.07.06-.11.12-.12.26-.07.53-.15.82-.13Z"/>
                <path class="cls-5" d="m60.88,99.72c.04.13.02.25-.09.35-.14.12-.32.13-.39.01-.09-.13-.03-.26.06-.36.08-.09.35-.08.42,0Z"/>
                <path class="cls-5" d="m40.68,111.38c.08.14.04.3-.1.37-.14.08-.25.03-.33-.1-.08-.13-.03-.31.09-.38.11-.06.26-.02.33.1Z"/>
                <path class="cls-5" d="m36.1,113.86c.16-.09.29-.02.38.11.09.13,0,.25-.11.33-.12.08-.32.02-.38-.11-.06-.11,0-.27.11-.33Z"/>
                <path class="cls-5" d="m27.27,107.79c.14-.05.28-.06.37.11.07.13.05.26-.08.34-.13.08-.3.04-.37-.11-.06-.13-.08-.25.09-.34Z"/>
                <path class="cls-5" d="m25.2,111.2c.19-.13.37-.1.48.06.06.08.03.15-.06.2-.22.13-.46.11-.52-.03-.05-.12.03-.18.1-.23Z"/>
                <path class="cls-5" d="m39.05,81.38c.23-.08.36-.15.5-.18.08-.02.21-.1.24.04.03.12-.09.18-.17.21-.17.07-.35.07-.57-.07Z"/>
                <path class="cls-5" d="m73.36,116.25s-.07,0-.09-.01c-.12-.1-.09-.39.05-.47.04-.02.1-.03.14-.02.08.02.08.09.06.16-.04.12-.06.26-.16.35Z"/>
                <path class="cls-5" d="m22.92,95.97c.08.09.05.19,0,.27-.06.1-.14.18-.28.15-.04,0-.1-.02-.09-.09.01-.15.07-.29.17-.39.08-.09.13.03.2.06Z"/>
                <path class="cls-5" d="m57.41,124.05c-.1.05-.2.09-.25-.03-.06-.14.02-.25.13-.31.09-.05.19-.02.24.08.08.15-.04.2-.13.26Z"/>
                <path class="cls-5" d="m39.03,105.33c.11-.03.22,0,.25.1.03.1.05.24-.08.3-.08.03-.17-.01-.2-.1-.03-.1-.1-.22.03-.31Z"/>
                <path class="cls-5" d="m26.53,106.14c.05.09.07.21-.03.25-.11.05-.26.07-.35-.07-.05-.08.03-.14.09-.2.11-.12.2-.06.29.02Z"/>
                <path class="cls-5" d="m23.53,95.52c.09-.03.19,0,.24.09.06.12-.04.22-.13.28-.08.06-.18,0-.2-.07-.03-.1-.07-.23.09-.3Z"/>
                <path class="cls-5" d="m36.81,121.68c.12-.08.22-.01.3.06.08.07.02.14-.05.19-.1.06-.22.11-.3,0-.06-.07-.05-.18.05-.25Z"/>
                <path class="cls-5" d="m50.07,95.37c.03.08.07.17-.03.22-.11.05-.24.03-.28-.1-.03-.09-.03-.22.06-.27.14-.07.19.06.25.14Z"/>
                <path class="cls-5" d="m45.22,80.81c.09-.07.14-.07.2-.01.09.1.12.21,0,.29-.06.04-.15.08-.22,0-.11-.12,0-.21.03-.28Z"/>
                <path class="cls-5" d="m32.58,113.73c.11-.05.22-.1.29.05.03.07.01.16-.07.22-.12.07-.24.02-.31-.06-.05-.05.01-.15.09-.2Z"/>
                <path class="cls-5" d="m48.57,101.68c-.12.01-.23,0-.31-.11-.06-.08-.04-.17.04-.21.12-.07.21-.03.29.09.05.09.03.15-.02.23Z"/>
                <path class="cls-5" d="m49.03,89.06c.04.08.05.16-.04.2-.12.06-.23,0-.3-.09-.06-.07-.01-.16.06-.2.11-.07.2-.03.28.09Z"/>
                <path class="cls-5" d="m58.86,120.38c-.11.04-.2-.02-.27-.12-.05-.08-.03-.17.02-.22.04-.06.29.04.33.12.03.06,0,.18-.08.22Z"/>
                <path class="cls-5" d="m40.39,105.97c.02.11.02.19-.07.24-.14.07-.22-.01-.27-.13-.04-.08-.04-.17.05-.2.12-.04.22.02.29.09Z"/>
                <path class="cls-5" d="m68.52,90.77c.06.11.03.19-.08.24-.09.04-.16,0-.2-.08-.05-.09-.05-.19.05-.26.11-.07.18,0,.23.09Z"/>
                <path class="cls-5" d="m66.24,106.96c.06.11.05.22-.06.3-.08.06-.16.05-.21-.04-.05-.11-.07-.22.05-.3.08-.05.16-.03.22.04Z"/>
                <path class="cls-5" d="m33.44,128.35c.05.13-.02.21-.1.25-.1.05-.19,0-.24-.11-.02-.06-.04-.13.04-.17.11-.05.22-.08.31.03Z"/>
                <path class="cls-5" d="m66.73,110.19c.09-.03.17-.02.21.06.07.14,0,.25-.11.32-.07.04-.13,0-.16-.05-.07-.12-.06-.24.07-.33Z"/>
                <path class="cls-5" d="m39.28,109.22c.04.11-.02.19-.09.25-.08.07-.18.09-.25-.02-.05-.08-.04-.16.03-.22.1-.08.21-.09.32,0Z"/>
                <path class="cls-5" d="m62.19,126.46c.12-.04.19,0,.23.12.03.1.05.22-.05.26-.09.04-.18-.03-.23-.13-.05-.1-.05-.19.06-.24Z"/>
                <path class="cls-5" d="m56.26,97c.04.06.06.13,0,.17-.1.07-.22.08-.31-.01-.07-.07-.05-.16.02-.21.11-.08.21-.04.3.05Z"/>
                <path class="cls-5" d="m39.04,110.23c-.09.06-.15-.02-.2-.07-.11-.12-.03-.21.07-.27.06-.04.15-.09.21,0,.1.14,0,.24-.09.35Z"/>
                <path class="cls-5" d="m22.45,111.92c.05.12,0,.22-.09.28-.08.05-.15,0-.19-.09-.05-.09-.07-.18.03-.25.1-.06.18-.04.25.05Z"/>
                <path class="cls-5" d="m42.48,101.79c.06.11,0,.33-.08.35-.1.02-.15-.05-.19-.12-.05-.1-.04-.19.06-.25.07-.04.15-.03.21.03Z"/>
                <path class="cls-5" d="m45.91,128.54c-.08.05-.17.04-.21-.04-.05-.1-.04-.24.04-.32.05-.05.15-.02.2.06.07.11.08.21-.03.3Z"/>
                <path class="cls-5" d="m66.38,104.94c.04.07.08.15,0,.21-.12.09-.22.03-.28-.07-.05-.07-.03-.15.05-.21.1-.06.18-.04.24.06Z"/>
                <path class="cls-5" d="m54.69,116.27c.04.12-.02.2-.11.24-.12.06-.16-.07-.2-.14-.04-.07-.08-.17.02-.2.11-.04.22,0,.29.1Z"/>
                <path class="cls-5" d="m58.13,115.63c.04.12.03.23-.11.28-.08.02-.18.02-.2-.08-.03-.12,0-.24.12-.29.08-.03.16-.01.19.09Z"/>
                <path class="cls-5" d="m69.24,109.14c.03.12.04.23-.1.28-.09.03-.16,0-.19-.09-.04-.1,0-.19.09-.25.08-.06.15,0,.2.06Z"/>
                <path class="cls-5" d="m61.58,125.69c.06.12.07.23-.04.31-.06.04-.13.03-.18-.02-.11-.12-.03-.22.05-.3.05-.05.12-.03.17,0Z"/>
                <path class="cls-5" d="m56.93,125.5c.02.11.04.23-.1.29-.07.03-.13,0-.17-.06-.07-.12-.02-.22.09-.28.06-.03.12-.01.17.05Z"/>
                <path class="cls-5" d="m67.24,113.88c.1-.04.17,0,.22.07.07.1-.01.18-.08.25-.07.06-.18.06-.22-.01-.06-.11-.01-.22.09-.3Z"/>
                <path class="cls-5" d="m41.98,85.3c-.06-.06-.02-.12.03-.15.11-.08.21-.04.28.06.05.07.03.16-.04.21-.14.08-.19-.04-.27-.12Z"/>
                <path class="cls-5" d="m63.86,105.49c.11-.05.23-.05.31.04.07.08,0,.15-.07.19-.08.06-.17.09-.25-.01-.05-.07-.05-.15.02-.22Z"/>
                <path class="cls-5" d="m53.55,84.81c.09-.05.18-.08.24.04.05.09,0,.17-.06.22-.1.08-.2.02-.26-.06-.07-.08,0-.15.07-.21Z"/>
                <path class="cls-5" d="m39.08,115.41c.04.11-.01.19-.1.25-.09.06-.19.07-.25-.04-.04-.08,0-.16.08-.21.09-.05.18-.09.27,0Z"/>
                <path class="cls-5" d="m59.82,102.76c.07.09.05.15,0,.19-.09.07-.18.16-.29.03-.05-.06-.06-.15,0-.22.1-.09.21-.02.28,0Z"/>
                <path class="cls-5" d="m33.62,117.41c.06.08.06.16-.03.21-.1.06-.18.03-.24-.07-.04-.07-.08-.15.02-.2.11-.06.18,0,.24.07Z"/>
                <path class="cls-5" d="m42.07,84.75c-.08.04-.14,0-.17-.05-.04-.11-.03-.23.08-.3.07-.04.16-.01.2.08.05.13-.02.21-.12.28Z"/>
                <path class="cls-5" d="m37.95,123.85c-.11.05-.19.02-.23-.05-.06-.11,0-.19.1-.23.08-.04.17-.04.21.05.04.1-.02.19-.08.24Z"/>
                <path class="cls-5" d="m31.92,118.78c.07-.04.13-.04.18.01.08.1.05.18-.04.24-.07.04-.16.1-.21,0-.05-.09,0-.19.07-.26Z"/>
                <path class="cls-5" d="m37.79,103.78c.01.1,0,.19-.11.24-.08.04-.16.02-.2-.06-.06-.11.02-.18.1-.23.07-.04.15-.03.21.05Z"/>
                <path class="cls-5" d="m70.86,93.95c.02.16-.04.24-.15.25-.07,0-.17,0-.2-.09-.03-.12.06-.17.16-.19.07,0,.14.02.18.03Z"/>
                <path class="cls-5" d="m59.57,93.86c.08-.02.16-.06.23,0,.08.08.01.15-.05.2-.07.05-.15.09-.21,0-.06-.08-.03-.15.04-.21Z"/>
                <path class="cls-5" d="m42.29,134.1c.11-.03.22-.01.31.07.05.05,0,.09-.05.09-.11,0-.22,0-.3-.09,0,0,.03-.04.04-.07Z"/>
                <path class="cls-5" d="m34.65,83.42c-.05-.07,0-.13.04-.17.06-.04.14-.12.2,0,.02.05.02.15-.02.18-.06.05-.15.06-.22,0Z"/>
              </g>
            </g>
          </g>
          <path class="cls-8" d="m82.74,84.48c6.63,11.21,8.18,25.38,4.43,37.82-.25.83-.51,1.66-.78,2.48,3.26-13.38,2.16-27.76-3.65-40.3h0Z"/>
        </g>
      </g>
    </g>
  </g>
</svg>