<?xml version="1.0" encoding="utf-8"?>
<!-- Generator: Adobe Illustrator 28.1.0, SVG Export Plug-In . SVG Version: 6.00 Build 0)  -->
<svg version="1.1" id="Layer_1" xmlns="http://www.w3.org/2000/svg" xmlns:xlink="http://www.w3.org/1999/xlink" x="0px" y="0px"
	 viewBox="0 0 206.3 151.9" style="enable-background:new 0 0 206.3 151.9;" xml:space="preserve">
<style type="text/css">
	.st0{fill:#FFFFFF;}
	.st1{fill:#E64429;}
	.st2{opacity:0.9;fill:#EAB520;}
	.st3{fill:#008D4A;}
	.st4{fill:#F3D582;}
	.st5{fill:#F2A194;}
	.st6{fill:#EB6954;}
	.st7{fill:#EAB520;}
</style>
<g id="Blancos">
	<path class="st0" d="M203.3,91c-2.4-6.4-6.1-11.9-10.5-16.1c3.7-20.3-0.9-40.5-12.6-54.8C172.6,10.9,158.5,0,133.5,0
		c-7.2,0-15.2,0.9-23.5,2.7c-2.9,0.6-5.9,1.3-8.7,2c-7.2,1.7-14,3.4-20.7,3.9C79,8.8,77.4,8.9,75.7,9c-9.1,0.6-19.4,1.4-29.5,5.6
		C31.3,21,18.6,31.4,10.4,44.2c-10.9,17-13.4,37-7,56.3c11,33.3,47.3,48.2,78.4,48.3h0.3c15.3,0,31.1-2.5,45.5-7.2
		c8.5,6.6,19,10.3,29.6,10.3l0,0c17.6,0,33.7-9.6,44.3-26.4c0.1-0.2,0.2-0.4,0.4-0.6C207.2,115.4,207.8,102.7,203.3,91L203.3,91z"/>
</g>
<g>
	<path class="st1" d="M23.1,52.3c-7.8,12.2-10.7,27.4-5.4,43.5c8.6,25.9,38.7,37.9,64.2,38c38,0.1,85.5-17,95.3-58
		c3.7-15.5,1.6-33.5-8.7-46.1c-13.6-16.6-36.1-16.4-55.3-12.2c-10.4,2.3-20.6,5.3-31.3,6.2c-10,0.9-20.5,0.9-29.9,4.9
		C40.4,33.4,30,41.6,23.1,52.3L23.1,52.3z"/>
	<path class="st2" d="M23.1,52.3c-7.8,12.2-10.7,27.4-5.4,43.5c8.6,25.9,38.7,37.9,64.2,38c38,0.1,85.5-17,95.3-58
		c3.7-15.5,1.6-33.5-8.7-46.1c-13.6-16.6-36.1-16.4-55.3-12.2c-10.4,2.3-20.6,5.3-31.3,6.2c-10,0.9-20.5,0.9-29.9,4.9
		C40.4,33.4,30,41.6,23.1,52.3L23.1,52.3z"/>
	<path class="st3" d="M94.7,30.1c0.8-0.1,1.7-0.2,2.5-0.2c1.1,0,2.2,0,3.1,0.5c0.2,0.3,0.3,0.6,0.3,0.9c0,0.6-0.5,1-1,1.3
		c-2.1,1.2-6,2.1-8.5,1.4C87.9,33.2,93.5,30.4,94.7,30.1z"/>
	<path class="st3" d="M86.1,37c5.1-4.5,12.8-5.2,19-2.8c-3.3-0.2-6.5-0.6-9.8-0.1C92.1,34.5,89.1,35.6,86.1,37L86.1,37L86.1,37z"/>
	<path class="st3" d="M98.9,33.3c1-3,4-5.3,7.2-5.4C103.3,29.4,101.1,31.1,98.9,33.3L98.9,33.3z"/>
	<path class="st3" d="M91.9,34.2c-2.9-1.4-5.9-2-9-3C86.1,30.8,89.8,31.7,91.9,34.2L91.9,34.2z"/>
	<path class="st4" d="M42.6,104.2c0.3,0.5,0.9,0.9,1.5,0.9c0.6,0,1.2-0.3,1.7-0.7c2-1.7,4.2-7.8-0.2-7.8
		C41.8,96.6,40.7,101.5,42.6,104.2z"/>
	<path class="st4" d="M54.2,112.5c1,0.1,2-0.1,2.8-0.7s1.3-1.6,1-2.6c-0.2-0.8-0.9-1.4-1.6-1.9c-1.6-0.9-4.5-3.9-5.4-1
		C50.2,108.7,51.4,112.3,54.2,112.5L54.2,112.5z"/>
	<path class="st4" d="M35,103.5c0.9-0.5,1.6-1.2,2-2.1c0.4-0.9,0.2-2-0.5-2.7C35.9,98.1,35,98,34.2,98c-1.8,0-5.8-1-5.2,1.9
		C29.6,102.4,32.5,104.8,35,103.5z"/>
	<path class="st4" d="M43.1,113.2c1.1,0,2.3,0,3-0.8c0.3-0.3,0.5-0.7,0.4-1.2c-0.4-2-5-3.1-6.6-2.1c-0.8,0.6-1.5,2-1,3
		C39.5,113.5,41.8,113.2,43.1,113.2L43.1,113.2z"/>
	<path class="st4" d="M52.5,120.3c1.1,0,2.3,0,3-0.8c0.3-0.3,0.5-0.7,0.4-1.2c-0.4-2-5-3.1-6.6-2.1c-0.8,0.6-1.5,2-1,3
		C48.9,120.6,51.2,120.2,52.5,120.3L52.5,120.3z"/>
	<path class="st5" d="M136.7,129.7c-8.5-6.6-14.5-17.6-15-31.8c-0.5-17.5,19.1-4.9,28.6-7.1c5.6-0.9,9.3-5.8,13.9-8.7
		c0.2-0.1,0.5-0.2,0.7-0.3c0.8,0.1,1.6,0.3,2.3,0.6C187.1,101.6,158.6,139.9,136.7,129.7L136.7,129.7z"/>
	<path class="st6" d="M188.8,117.5c-13.9,22-37,24-52.1,12.2c21.8,10.2,50.4-28.1,30.5-47.3c-0.7-0.3-1.5-0.5-2.3-0.6
		C183.4,75,197.2,102.7,188.8,117.5z"/>
	<path class="st4" d="M138.5,93.5c-2.6,2.5-5.4,4.4-8.6,6.1C132.2,96.8,135.2,94.8,138.5,93.5L138.5,93.5z"/>
	<path class="st4" d="M144.2,94.7c-0.8,3.4-2,6.5-3.5,9.7C140.9,100.9,142.1,97.5,144.2,94.7L144.2,94.7z"/>
	<path class="st4" d="M149.1,95.2c1.1,2.9,1.9,5.7,2.3,8.8C149.7,101.4,148.9,98.3,149.1,95.2L149.1,95.2z"/>
	<path class="st4" d="M153.6,92.4c1.9,2.7,3.5,5.3,5.1,8.2C156.1,98.6,154.3,95.6,153.6,92.4L153.6,92.4z"/>
	<path class="st4" d="M157.7,90.1c2.9,0.1,5.7,0.9,8.2,2.3C163,92.3,160.3,91.5,157.7,90.1L157.7,90.1z"/>
	<path class="st7" d="M164.9,81.8c-0.2,0.1-0.5,0.2-0.7,0.3c-4.6,2.9-8.2,7.8-13.9,8.7c-9.5,2.1-29.1-10.4-28.6,7.1
		c0.5,14.2,6.5,25.2,15,31.8c15.1,11.9,38.2,9.9,52.1-12.2C197.2,102.7,183.4,75,164.9,81.8L164.9,81.8z"/>
</g>
</svg>
