<?xml version="1.0" encoding="UTF-8"?>
<svg id="Layer_2" data-name="Layer 2" xmlns="http://www.w3.org/2000/svg" viewBox="0 0 157.81 179.56">
  <defs>
    <style>
      .cls-1 {
        fill: #f8e5b1;
      }

      .cls-1, .cls-2, .cls-3, .cls-4, .cls-5, .cls-6 {
        stroke-width: 0px;
      }

      .cls-2 {
        fill: #f6e0a1;
      }

      .cls-3 {
        fill: #fdf8e9;
      }

      .cls-4 {
        fill: #f2cf70;
      }

      .cls-5 {
        fill: #f5da8f;
      }

      .cls-6 {
        fill: #f9eac0;
      }
    </style>
  </defs>
  <g id="Blancos">
    <path class="cls-3" d="m156.16,70.2c-2.81-8.31-9.47-16.52-17.64-21.87.3-7.33,2.48-11.47,2.01-19.43-1.84-21.41-36.1-26.22-53.47-20.47C64.07-10.94,17.43,4.79,22.06,38.13,5.11,43.82-5.85,61.22,3.33,75.55c7.25,17.25,13.06,35.76,20.58,53.2,14.79,32.08,18.11,67.08,62.81,42.58,19.36,7.15,42.12-4.7,47.29-23.9,0,0,20.05-52.24,20.05-52.24,2.48-6.53,5.78-13.88,2.1-25Z"/>
  </g>
  <g id="Productos">
    <g>
      <path class="cls-5" d="m113.55,22.33c-2.75-.55-5.57-.74-8.38-.87-5.37-.24-14.66-.83-17.59,4.95-.63,1.25-.9,2.65-1.13,4.03-1.74,10.27-2.09,20.64-2.8,31-.71,10.41-1.87,20.79-3.46,31.1-1.02,6.58-2.74,13.12-3.6,19.7-.54,4.14-1.08,8.27-1.54,12.42-.47,4.21.02,7.08,3.92,9.26,8.44,4.72,17.74,6.99,27.34,5.04,1.8-.37,3.72-.95,4.81-2.42.61-.82.89-1.83,1.15-2.81,1.67-6.47,2.61-13.1,3.54-19.71.99-7.04,1.99-14.08,2.98-21.12,1.35-9.55,2.16-19.15,3.3-28.73,1.13-9.58,1.21-19.17,3.02-28.68.32-1.69.67-3.4.51-5.11-.42-4.2-6.56-6.62-10.1-7.59-.65-.18-1.3-.33-1.96-.46Z"/>
      <path class="cls-5" d="m24.63,53.37c2.52-1.24,5.19-2.15,7.87-3,5.13-1.61,13.96-4.57,18.27.25.93,1.05,1.55,2.33,2.13,3.6,4.32,9.47,7.33,19.41,10.68,29.24s7.15,19.61,11.34,29.16c2.67,6.09,6.03,11.97,8.55,18.11,1.58,3.86,3.17,7.72,4.68,11.61,1.54,3.95,1.8,6.85-1.4,9.96-6.94,6.73-15.35,11.32-25.12,11.91-1.84.11-3.84.04-5.28-1.1-.8-.64-1.33-1.54-1.83-2.42-3.28-5.82-5.89-11.99-8.49-18.14-2.77-6.55-5.54-13.09-8.31-19.64-3.76-8.89-7.02-17.95-10.58-26.91-3.56-8.96-6.11-18.21-10.29-26.94-.74-1.55-1.53-3.11-1.8-4.81-.68-4.17,4.64-8.09,7.8-9.93.58-.34,1.17-.65,1.77-.95Z"/>
      <path class="cls-4" d="m15.69,63.88c6.29,2.75,12.78-.82,18.68-2.98,4.44-1.88,9.43-3.02,13.19-6.13,1.16-1.03,2.17-2.55,1.81-4.21.3.77.21,1.67-.1,2.45-1.77,3.92-6.34,5.36-9.95,7.01,0,0-4.59,1.81-4.59,1.81-5.84,2.15-13.1,5.6-19.05,2.05h0Z"/>
      <path class="cls-1" d="m40.59,53.29c-.14.7-.61,1.29-1.12,1.8-1.36,1.34-3.03,2.32-4.75,3.15-3.73,1.8-7.93,3.08-12.05,3.63-1.31.18-3.42.19-3.75-1.51-.15-.79.3-1.57.85-2.16,1.02-1.09,2.37-1.79,3.72-2.43,3.63-1.71,7.41-3.06,11.27-4.13,1.63-.45,6.46-1.52,5.85,1.65Z"/>
      <path class="cls-3" d="m24.4,60.45c-1.26.23-2.7.27-3.68-.56-.14-.12-.27-.26-.31-.43-.1-.39.23-.74.54-.99,2.36-1.92,5.61-3.31,8.65-3.66.75-.09,2.69-.04,2.72,1.07.03,1.08-2.34,2.38-3.13,2.84-1.48.85-3.11,1.43-4.79,1.73Z"/>
      <path class="cls-4" d="m124.89,30.18c-4.83,4.96-12.74,3.49-18.93,2.92,0,0-4.9-.56-4.9-.56-3.92-.67-8.71-.89-11.42-4.22-.5-.67-.81-1.52-.73-2.34.08,1.69,1.45,2.9,2.84,3.6,4.44,2.04,9.55,1.86,14.33,2.53,6.26.57,13.45,2.35,18.82-1.93h0Z"/>
      <path class="cls-2" d="m131.28,61.55c-3.73-2.67-7.95-4.46-11.99-4.69-4.07-.22-8.16,1.22-11.39,3.71-9.59,7.37-10.79,21.64-14.45,32.29-5.05,14.71-12.3,28.3-16.89,43.22-3.42,11.11,7.79,19.7,17.74,21.79,8.12,1.7,17.35-1.24,22.03-8.09,1.61-2.36,2.65-5.05,3.67-7.72,4.46-11.61,8.91-23.22,13.37-34.83,2.23-5.8,4.46-11.61,6.68-17.41,2.04-5.3,3.83-9.14,1.91-14.77-1.69-4.93-5.76-9.98-10.69-13.5Z"/>
      <path class="cls-4" d="m140.39,84.66c-9.86,9.88-25.56,6-34.27-3.41-2.81-3.02-5.35-7.3-4.12-11.54-.78,4.26,1.8,8.13,4.67,11.01,8.99,8.93,23.28,12.64,33.72,3.94h0Z"/>
      <path class="cls-6" d="m133.87,69c-3.03-3.1-7.56-5.43-10.62-6.25-3.35-.9-6.93-.54-10.02,1.05-2.11,1.1-4.09,2.54-5.29,4.64-1.03,1.81-1.43,4.01-.9,6.03.48,1.83,1.66,3.41,3.08,4.66,3.71,3.28,8.95,5.95,14,5.8,4.33-.13,10.29-2.31,12.3-6.48,1.64-3.41.12-6.72-2.55-9.45Z"/>
      <path class="cls-3" d="m122.44,64.94c-4.18-1.34-9.99.92-10.5,5.97-.49,4.84,4.77,8.02,9.17,7.19,2.26-.43,4.36-1.89,5.67-3.84,1.55-2.32,1.19-4.28-.28-6.33-.99-1.39-2.41-2.46-4.06-2.99Z"/>
      <path class="cls-1" d="m98.1,26.36c.31.65.93,1.09,1.55,1.45,1.66.95,3.53,1.46,5.4,1.82,4.07.78,8.46.93,12.58.41,1.31-.17,3.36-.69,3.24-2.43-.05-.8-.7-1.44-1.38-1.87-1.26-.79-2.75-1.12-4.22-1.39-3.94-.72-7.95-1.05-11.95-1.09-1.7-.02-6.64.19-5.22,3.1Z"/>
      <path class="cls-3" d="m115.59,29.11c1.28-.1,2.68-.43,3.41-1.49.1-.15.19-.32.19-.5,0-.4-.41-.66-.77-.82-2.78-1.25-6.28-1.76-9.3-1.31-.75.11-2.61.65-2.35,1.73s2.87,1.7,3.75,1.94c1.65.44,3.37.58,5.07.44Z"/>
      <path class="cls-2" d="m82.05,30.33c-.38-2.32-.93-4.61-1.94-6.72-2.06-4.26-5.99-6.48-10.45-7.58-13.19-3.24-33.13,1.89-32.73,18.74.27,11.67,4.12,23.89,6.88,35.18,2.03,8.34,4.26,16.63,6.68,24.87,2.2,7.49,4.2,15.66,8.59,22.23,6.23,9.41,17.51,12.26,27.09,6.18,5.76-3.66,4.38-10.92,3.75-16.81-1.39-13-2.87-25.99-4.18-38.99-1.24-12.36-1.65-24.79-3.69-37.1Z"/>
      <path class="cls-4" d="m38.05,34.75c2.24,3.85,5.3,7.28,9.26,9.24,7.74,3.71,17.99,3.05,25.27-1.49,3.73-2.34,6.63-5.92,8.4-10.02-1.39,4.29-4.23,8.11-7.97,10.66-7.4,4.96-18.11,5.65-26.05,1.53-4.01-2.17-7.01-5.84-8.9-9.92h0Z"/>
      <path class="cls-6" d="m73.56,34.24c4.62-5.94-.04-14.65-7.2-15.33-6.34-.98-19.83,2.96-20,10.65-.52,3.18,1.22,6.05,3.75,7.92,7.04,6.12,18.3,4.5,23.45-3.23Z"/>
      <path class="cls-3" d="m62.83,32.7c1.37-.65,2.64-1.52,3.69-2.49,2.42-2.22,4.24-6.23,1.4-8.9-1.69-1.59-4.56-2.01-6.8-1.94-3.21.1-6.12,1.48-8.61,3.46-2.61,2.08-4.34,5.06-1.68,7.9,1.98,2.12,4.88,3.2,7.76,3.09,1.43-.06,2.88-.47,4.23-1.11Z"/>
    </g>
  </g>
</svg>