<?xml version="1.0" encoding="UTF-8"?>
<svg id="Layer_2" data-name="Layer 2" xmlns="http://www.w3.org/2000/svg" viewBox="0 0 145.83 265.14">
  <defs>
    <style>
      .cls-1 {
        fill: #fff;
      }

      .cls-2 {
        fill: #cc7533;
      }

      .cls-3 {
        fill: #008d4a;
      }

      .cls-4 {
        fill: #eab520;
      }
    </style>
  </defs>
  <g id="Blancos">
    <path class="cls-1" d="m145.47,168.17c.59-20.37-1.07-37.08-5.06-51.05-4.23-14.79-11.06-26.4-20.39-34.7,1.2-2.16,2.5-4.56,3.95-7.23,2.29-4.24,5.98-11.08,7.85-13.73,3.25-2.45,5.44-6.16,5.9-10.34.64-5.79-2.13-11.43-7.11-14.46-2.63-1.6-5.4-2.91-8.28-3.93,1.24-3.72,2.77-7.36,4.58-10.88,3.05-5.95,1.8-13.2-3.07-17.78-2.86-2.68-6.55-4.07-10.28-4.07-2.63,0-5.28.69-7.66,2.1-6.01,3.57-11.75,7.52-17.3,11.35-4.57,3.15-9,6.2-13.39,8.92-1.52-2.7-2.95-5.72-4.29-8.56l-1.04-2.2c-2.53-5.31-7.86-8.54-13.53-8.54-1.2,0-2.41.14-3.61.44-6.91,1.71-11.67,8.05-11.38,15.16.23,5.8.3,11.64.2,17.48,0,0-2.68-.05-2.77-.05-6.46,0-12.21,4.15-14.24,10.3-2.06,6.24.19,13.1,5.54,16.92,3.12,2.22,7.04,8.9,10.31,14.58C11.76,99.05-1.76,144.54.18,182.58c2.16,42.42,22.25,72.23,53.74,79.79,7.2,1.84,14.26,2.78,21,2.78h0c18.79,0,35.34-7.19,47.88-20.79,16.47-17.87,24.91-46.3,22.66-76.18Z"/>
  </g>
  <g id="Layer_1-2" data-name="Layer 1">
    <g>
      <path class="cls-4" d="m15.94,164.18c-.88,13.13.03,26.41,2.46,39.19,2.89,15.17,10.43,29.14,23.69,37.69,4.75,3.06,9.99,5.3,15.45,6.73,9.68,2.54,19.95,2.74,29.76.73,16.02-3.29,30.55-17.21,36.75-32.03,6.04-14.43,5.92-32.47,6.41-47.97,1.06-33.49-3.33-79.48-43.87-85.45-2.75-.4-5.52-.64-8.29-.76-15.16-.67-25.83,1.56-35.87,13.2-16.62,19.26-24.81,43.68-26.49,68.67Z"/>
      <path class="cls-3" d="m38.77,51.1c5.72.1,11.44.21,17.17.31.71-11.1.84-22.23.39-33.34,3.22,7.77,7.58,15.08,12.88,21.61.64.79,1.38,1.62,2.38,1.79,1.09.19,2.13-.44,3.05-1.04,12.97-8.48,25.93-16.95,38.9-25.43-4.87,9.48-8.07,19.8-9.44,30.37,6.45-.74,13.14.72,18.69,4.1-1.95-1.19-17.98,29.43-19.55,32.2-6.96,12.28-28.26,14.54-39.29,4.53-5.06-4.6-8.6-13.56-12.66-19.21-1.75-2.43-9.7-15.83-12.54-15.89Z"/>
      <g>
        <path class="cls-2" d="m42.78,104.9c10.37,16.27,22.6,31.34,36.33,44.88,10.29,10.05,21.58,19.28,32.95,28.07,3.36,2.53,8.3,6.11,11.67,8.57,0,0-.12.18-.12.18-2.12-1.17-4.2-2.41-6.3-3.61-14.45-8.79-27.8-19.75-39.44-31.99-13.24-13.86-26.08-29.6-35.1-46.1h0Z"/>
        <path class="cls-2" d="m58.23,93.33c9.06,13.64,19.72,26.2,31.6,37.45,8.92,8.33,18.65,15.96,28.38,23.32,2.88,2.12,7.1,5.11,9.97,7.19,0,0-.11.19-.11.19-1.83-.94-3.62-1.95-5.43-2.93-12.46-7.16-23.98-16.27-34.02-26.51-11.68-11.59-22-24.55-30.58-38.58,0,0,.18-.12.18-.12h0Z"/>
        <path class="cls-2" d="m83.97,94.7c5.57,8.28,12.09,15.91,19.33,22.75,7.38,6.74,15.2,12.76,23.07,18.97,0,0-.11.19-.11.19-9.19-4.23-17.25-10.6-24.17-17.91-7.04-7.19-13.21-15.21-18.3-23.88,0,0,.18-.12.18-.12h0Z"/>
        <path class="cls-2" d="m33.45,124.1c11.2,17.22,24.41,33.12,39.19,47.36,11.08,10.58,23.2,20.28,35.44,29.47,3.61,2.65,8.93,6.39,12.55,8.95,0,0-.11.19-.11.19-2.26-1.23-4.49-2.53-6.74-3.8-15.45-9.23-29.8-20.71-42.36-33.57-14.3-14.57-28.13-31.13-37.97-48.6h0Z"/>
        <path class="cls-2" d="m21.26,143.6c11.16,17.14,24.31,32.97,39.03,47.15,11.03,10.53,23.1,20.19,35.29,29.34,3.6,2.64,8.89,6.36,12.49,8.92,0,0-.11.19-.11.19-2.25-1.23-4.47-2.52-6.71-3.78-15.39-9.19-29.68-20.62-42.18-33.43-14.24-14.51-28.01-31-37.81-48.39h0Z"/>
        <path class="cls-2" d="m19.55,171.47c9.19,14.03,20.01,26.98,32.11,38.58,9.08,8.6,18.99,16.49,28.92,24.07,2.94,2.19,7.25,5.27,10.18,7.41,0,0-.11.19-.11.19-1.86-.98-3.69-2.03-5.54-3.04-12.71-7.43-24.44-16.83-34.66-27.38-11.88-11.95-22.36-25.29-31.07-39.7,0,0,.18-.12.18-.12h0Z"/>
        <path class="cls-2" d="m21.26,202.9c5.32,7.88,11.53,15.14,18.44,21.65,7.05,6.4,14.49,12.13,21.95,18.09,0,0-.11.19-.11.19-8.79-3.98-16.46-10.06-23.05-17.04-6.7-6.86-12.57-14.51-17.41-22.77,0,0,.18-.12.18-.12h0Z"/>
      </g>
      <g>
        <path class="cls-2" d="m108.04,102.42c-19.53,32.03-45.83,60.91-78.03,80.51-2.19,1.24-4.35,2.52-6.55,3.73,0,0-.11-.18-.11-.18,3.49-2.51,8.67-6.2,12.18-8.81,11.88-9.05,23.64-18.57,34.38-28.95,7.17-6.97,13.94-14.36,20.27-22.12,6.36-7.73,12.27-15.84,17.69-24.28,0,0,.18.11.18.11h0Z"/>
        <path class="cls-2" d="m92.6,94.81c-8.71,14.41-19.19,27.75-31.07,39.7-10.22,10.55-21.96,19.96-34.66,27.38-1.85,1.01-3.68,2.06-5.54,3.04,0,0-.11-.19-.11-.19,2.91-2.13,7.24-5.22,10.18-7.41,9.93-7.58,19.84-15.47,28.92-24.07,6.05-5.79,11.77-11.92,17.12-18.37,5.38-6.43,10.39-13.17,14.99-20.2l.18.12h0Z"/>
        <path class="cls-2" d="m67.73,94.81c-5.09,8.66-11.26,16.69-18.3,23.88-6.92,7.31-14.98,13.69-24.17,17.91,0,0-.11-.19-.11-.19,7.86-6.21,15.68-12.23,23.07-18.97,3.62-3.41,7.06-7.02,10.27-10.83,3.24-3.79,6.27-7.77,9.06-11.92,0,0,.18.12.18.12h0Z"/>
        <path class="cls-2" d="m120.59,119.17c-21.94,34.85-51.28,65.79-86.81,86.92-2.41,1.34-4.79,2.72-7.22,4.03l-.11-.19c3.88-2.68,9.62-6.63,13.51-9.43,13.15-9.65,26.28-20,38.16-31.17,16.04-14.86,30.15-32.63,42.46-50.17h0Z"/>
        <path class="cls-2" d="m125.99,143.77c-21.59,34.27-50.45,64.72-85.43,85.49-2.37,1.32-4.72,2.67-7.1,3.95,0,0-.11-.19-.11-.19,3.81-2.64,9.46-6.53,13.29-9.28,12.94-9.5,25.85-19.67,37.55-30.65,15.79-14.61,29.68-32.09,41.8-49.33h0Z"/>
        <path class="cls-2" d="m127.71,171.65c-8.71,14.41-19.19,27.75-31.07,39.7-10.22,10.55-21.96,19.96-34.66,27.38-1.85,1.01-3.68,2.06-5.54,3.04l-.11-.19c2.91-2.13,7.24-5.22,10.18-7.41,9.93-7.58,19.84-15.47,28.92-24.07,6.05-5.79,11.77-11.92,17.12-18.37,5.38-6.43,10.39-13.17,14.99-20.2l.18.12h0Z"/>
        <path class="cls-2" d="m125.99,203.08c-4.84,8.26-10.71,15.92-17.41,22.77-6.59,6.98-14.27,13.06-23.05,17.04,0,0-.11-.19-.11-.19,7.46-5.96,14.9-11.69,21.95-18.09,6.91-6.51,13.12-13.77,18.44-21.65,0,0,.18.12.18.12h0Z"/>
      </g>
    </g>
  </g>
</svg>