<?xml version="1.0" encoding="UTF-8"?>
<svg xmlns="http://www.w3.org/2000/svg" viewBox="0 0 224.25 209.95">
  <defs>
    <style>
      .cls-1 {
        fill: #008d4a;
      }

      .cls-1, .cls-2, .cls-3, .cls-4 {
        stroke-width: 0px;
      }

      .cls-5 {
        isolation: isolate;
      }

      .cls-2 {
        fill: #081c2c;
      }

      .cls-3 {
        fill: #fff;
      }

      .cls-4 {
        fill: #eab520;
        mix-blend-mode: hard-light;
        opacity: .35;
      }
    </style>
  </defs>
  <g class="cls-5">
    <g id="Layer_2" data-name="Layer 2">
      <g id="Blancos">
        <path class="cls-3" d="m223.37,72.13c-1.81-16.46-7.57-29.32-10.4-34.83-1.05-6.71-3.4-21.7-3.85-24.09-1.22-6.57-6.89-13.2-16.83-13.2-5.43,0-12.23,2.2-14.9,3.14-5.62,1.99-9.54,7.16-9.96,13.1-.17,2.37-.85,7.27-1.96,10.36-1.81,5.07-4.69,12.56-8.76,18.96-4.66,7.35-31.92,43.62-44.92,55.03-13.45,11.8-54.51,36.62-62.9,39.42-2.58.49-6.22,1.15-10.15,1.86l-4.68.85c-12.57,2.29-17.24,3.19-19.19,3.69C-1.09,150.51-.57,172.91.41,178.23c2.04,11.01,12.77,14.75,23.09,18.35,2.56.91,5.44,1.86,8.48,2.88l2.12.71c13.74,4.59,29.31,9.78,58.26,9.78.89,0,1.78,0,2.69-.01,30.11-.3,51.78-6.19,77.29-21.02,27.22-15.82,41.87-36.33,46.52-50.27,5.02-15.09,6.54-48.16,4.51-66.52Z"/>
      </g>
      <g id="Productos">
        <g>
          <path class="cls-1" d="m18.58,160.96c1.9-.48,10.02-1.98,18.17-3.47,5.87-1.07,11.75-2.13,15.33-2.8,8.54-1.62,54.97-29.98,69.59-42.81,14.63-12.84,42.96-50.8,47.7-58.28,4.74-7.47,7.98-15.69,10.21-21.95,2.25-6.26,2.79-14.36,2.79-14.36,0,0,11.48-4.06,11.98-1.35.5,2.72,4.17,26.23,4.17,26.23,0,0,7.9,13.34,9.91,31.6,2.03,18.26.1,48.34-3.83,60.14-3.94,11.82-17.11,28.84-39.82,42.04-22.71,13.2-42.09,18.72-69.91,18.99-27.82.29-41.56-4.16-56.05-9-3.88-1.3-7.36-2.44-10.36-3.5-8.22-2.86-12.97-4.95-13.33-6.93-.5-2.72.2-13.72,3.44-14.54Z"/>
          <path class="cls-4" d="m18.58,160.96c1.9-.48,10.02-1.98,18.17-3.47,5.87-1.07,11.75-2.13,15.33-2.8,8.54-1.62,54.97-29.98,69.59-42.81,14.63-12.84,42.96-50.8,47.7-58.28,4.74-7.47,7.98-15.69,10.21-21.95,2.25-6.26,2.79-14.36,2.79-14.36,0,0,11.48-4.06,11.98-1.35.5,2.72,4.17,26.23,4.17,26.23,0,0,7.9,13.34,9.91,31.6,2.03,18.26.1,48.34-3.83,60.14-3.94,11.82-17.11,28.84-39.82,42.04-22.71,13.2-42.09,18.72-69.91,18.99-27.82.29-41.56-4.16-56.05-9-3.88-1.3-7.36-2.44-10.36-3.5-8.22-2.86-12.97-4.95-13.33-6.93-.5-2.72.2-13.72,3.44-14.54Z"/>
          <path class="cls-2" d="m18.58,160.96c1.9-.48,10.02-1.98,18.17-3.47-.36,1.96-1.55,8.25-3.32,13.91-1.12,3.54-3.21,7.79-4.95,11.04-8.22-2.86-12.97-4.95-13.33-6.93-.5-2.72.2-13.72,3.44-14.54Z"/>
          <path class="cls-2" d="m69.11,183.17c5.36.57,13.68,3.34,34.54-1.03,20.86-4.37,42.64-17.23,53.91-26.9,11.28-9.67,26.14-27.56,30.84-37.17,4.7-9.61,5.94-21.73,6.85-30.23.91-8.49,1.46-25.24,3.46-23.64,0,0-.1,31.32-4.89,46.1-4.79,14.78-18.77,35.66-38.23,49.27-19.47,13.61-37.26,23.73-54.15,25.36-16.88,1.63-34.97,1.11-38.37-1.02-3.4-2.13.68-1.32,6.04-.75Z"/>
          <path class="cls-2" d="m52.25,167.91c2.67-.19,17.77,1.81,39.77-8.33,22.01-10.14,51.27-36.56,59.73-43.86,8.46-7.3,16.14-17.03,21.2-26.2,5.06-9.17,15.68-37.21,17.43-37.58,1.75-.37.34,2.51.34,2.51,0,0-11.17,34.05-25.07,50.98-13.91,16.93-53.56,46.26-72.02,56.03-18.46,9.77-51.28,9.64-51.03,8.11s6.99-1.47,9.66-1.66Z"/>
        </g>
      </g>
    </g>
  </g>
</svg>