<?xml version="1.0" encoding="UTF-8"?>
<svg id="Layer_2" data-name="Layer 2" xmlns="http://www.w3.org/2000/svg" viewBox="0 0 191.44 192.56">
  <defs>
    <style>
      .cls-1 {
        fill: #fff;
      }

      .cls-2 {
        fill: #3779b6;
      }

      .cls-3 {
        fill: #081c2c;
      }

      .cls-4 {
        fill: #cd7534;
      }
    </style>
  </defs>
  <g id="Blancos">
    <path class="cls-1" d="m189.48,13.94c-3.04-6-9.16-9.58-16.37-9.58-.91,0-1.84.06-2.77.17-7.07.84-13.64,3.43-19.06,6.28-.81-2.15-2.05-4.11-3.68-5.77-3.19-3.25-7.58-5.04-12.37-5.04-2.03,0-4.16.32-6.33.96-7.43,2.18-11.76,6.93-13.25,14.51-.75,3.81-.51,7.15-.33,9.58.05.69.12,1.64.11,1.9-.24,2.27-1.13,4.73-2.57,7.12-.09.15-.19.31-.29.46-5.21-4.26-11.41-6.93-18.01-7.63-1.26-.13-2.54-.2-3.82-.2-3.15,0-6.28.39-9.34,1.17-6.12-4.03-13.58-6.22-21.33-6.22-15.06,0-28.41,8.24-34.01,21-1.46,3.33-2.24,6.81-2.57,10.18-.43.26-.85.53-1.26.8C5.58,64.76-.66,87.3,6.88,105.47.34,114.58-1.87,126.79,1.69,138.17c2.54,8.11,7.64,15.01,14.76,19.97,0,.12,0,.23.01.35.5,14.79,11.38,28.2,26.48,32.61,3.32.97,6.68,1.46,10,1.46,5.46,0,10.68-1.3,15.39-3.76,4.64,1.99,9.62,3.04,14.7,3.04,2.49,0,4.99-.26,7.42-.77,5.01-.9,9.74-2.81,14.07-5.68,5.98-3.96,10.6-9.5,13.45-15.87,18.24-2.69,33.26-17.33,35.94-35.88.17-1.21.3-2.42.39-3.64,2.45-2.21,4.62-4.76,6.43-7.6,6.03-9.47,7.66-21.73,4.24-31.99-2.52-7.56-7.94-14.22-15.15-18.91-1.17-4.79-3.34-9.23-6.39-13.07,3.86-2.55,8.23-4.91,12.72-7.27,1.54-.81,3.06-1.65,4.58-2.5,2.35-1.31,4.57-2.54,6.69-3.52,1.54-.71,2.85-1.22,3.99-1.55.17-.03.35-.05.53-.08,2.08-.3,5.56-.81,9.21-2.99,8.08-4.84,13.35-16.68,8.33-26.58Z"/>
  </g>
  <g id="Layer_1-2" data-name="Layer 1">
    <g>
      <path class="cls-4" d="m176.1,20.71c-.67-1.33-2.5-1.47-3.97-1.29-8.36,1-17.26,5.93-23.73,11.17-1.77,1.43-9.11,8.28-11.3,5.76-1.02-1.17.11-7.88.13-9.54.06-3.25.11-6.5.17-9.75.04-2.54-2.53-2.22-4.26-1.71-2.1.62-2.35.94-2.76,3.01-.66,3.35.33,6.84-.03,10.2-.5,4.69-2.21,9.23-4.64,13.26-3.87,6.43-9.58,10.59-14.84,15.4.28.74.52,1.49.71,2.24,2.72-.05,5.45.24,8.05.9,2.47-3.04,4.99-6.05,7.79-8.56,6.35-5.69,14.24-9.97,21.74-13.92,4-2.1,7.86-4.47,11.97-6.36,2.11-.98,4.28-1.84,6.54-2.46,1.85-.5,4.11-.42,5.77-1.41,1.75-1.05,3.76-4.75,2.65-6.94Z"/>
      <path class="cls-2" d="m60.92,160.4c-6.75-.62-13.41-3.83-17.43-9.24-3.69.35-7.41-.14-10.85-1.35-.84,2.65-1.27,5.41-1.18,8.18.3,8.93,7.37,16.29,15.69,18.71,8.48,2.47,15.65-.65,20.29-6.15-2.95-2.73-5.24-6.21-6.51-10.16Zm-23.96-9.17c.13,7.92,2.57,14.69,7.85,20.63-7.53-3.15-11.26-13.21-7.85-20.63Z"/>
      <path class="cls-1" d="m36.97,151.23c-3.41,7.42.32,17.48,7.85,20.63-5.28-5.95-7.72-12.71-7.85-20.63Z"/>
      <path class="cls-3" d="m62.03,160.47c-.37-.02-.74-.03-1.11-.07,1.27,3.95,3.57,7.43,6.51,10.16,5.32,4.93,12.77,7.41,20.16,5.79-11.05,1.86-22-5.27-25.56-15.88Z"/>
      <path class="cls-2" d="m95.15,149.74c-2.79-2.1-5.1-4.73-6.91-7.68-1.84,5.69-5.62,10.57-10.61,13.57-.69.48-1.4.92-2.14,1.32-3.13,2.02-6.77,3.28-10.74,3.51-.9.05-1.81.04-2.73,0,3.56,10.61,14.51,17.74,25.56,15.88,2.92-.49,5.85-1.6,8.64-3.45,6.65-4.41,9.87-11.36,9.99-18.28-3.83-.69-7.61-2.26-11.07-4.87Z"/>
      <path class="cls-2" d="m146.78,97.07c-3.46-4.27-7.48-7.37-12.27-9.27-1.14,3.81-3.29,7.41-6.34,10.32-1.6,1.52-3.49,2.72-5.54,3.59,2.3.72,4.45,1.66,6.28,2.89,6.3,4.19,9.52,10.63,10.28,17.64,3.48-1.63,6.64-4.35,8.89-7.89,3.55-5.57,4.69-13.09,2.66-19.19-2.14-6.44-8.19-11.54-14.94-13.97-.09,1.62-.35,3.25-.79,4.84,5.5,1.19,10.46,5.54,11.77,11.05Z"/>
      <path class="cls-1" d="m146.78,97.07c-1.31-5.51-6.27-9.86-11.77-11.05-.06.23-.13.45-.2.68-.09.37-.19.74-.3,1.1,4.8,1.91,8.82,5,12.27,9.27Z"/>
      <path class="cls-3" d="m96.31,149.69c-3.19-2.4-5.76-5.5-7.67-8.98-.12.46-.25.91-.4,1.36,1.81,2.95,4.12,5.58,6.91,7.68,3.46,2.61,7.24,4.18,11.07,4.87,2.08.37,4.18.48,6.25.35-5.53.11-11.18-1.51-16.17-5.27Z"/>
      <path class="cls-2" d="m44.37,62.19c7.21-.51,14.59,1.46,20.5,5.6.32-6.32,2.91-12.7,6.85-17.22,1.39-1.59,3.02-2.97,4.82-4.13.6-.45,1.23-.87,1.87-1.25-1.16-1.37-2.43-2.65-3.84-3.77-10.43-8.28-29.07-5.75-34.78,7.25-1.65,3.76-1.89,8.86-1.08,14.15.36-.07.71-.14,1.07-.2,1.52-.26,3.05-.39,4.59-.43Zm19.81-21.92c-7.91.74-14.43,3.67-19.97,9.4,2.57-7.75,12.32-12.23,19.97-9.4Z"/>
      <path class="cls-1" d="m44.21,49.67c5.55-5.73,12.06-8.66,19.97-9.4-7.66-2.83-17.4,1.65-19.97,9.4Z"/>
      <path class="cls-3" d="m128.16,98.12c3.06-2.91,5.2-6.51,6.34-10.32.11-.37.21-.73.3-1.1-1.16,3.73-3.28,7.25-6.28,10.11-2.16,2.05-4.86,3.53-7.75,4.38.62.16,1.24.33,1.85.52,2.05-.87,3.94-2.07,5.54-3.59Z"/>
      <path class="cls-2" d="m112.31,64.64c5.12-.49,10.56,1.41,13.81,5.39-4.58-2.15-9.15-3.24-13.84-3.2-.27,5.16-2.02,10.29-4.62,14.82-.47.83-.99,1.61-1.55,2.36,3.61,4.54,4.56,10.18,4.18,15.75,3.37.12,7.03.54,10.48,1.42,2.9-.86,5.59-2.33,7.75-4.38,3-2.85,5.12-6.38,6.28-10.11.07-.23.14-.45.2-.68.44-1.59.7-3.21.79-4.84.33-6.19-1.97-12.37-7.3-16.59-2.53-2.01-5.59-3.4-8.87-4.24-2.6-.66-5.33-.95-8.05-.9.44,1.71.68,3.44.73,5.18Z"/>
      <path class="cls-3" d="m128.91,104.59c-1.83-1.22-3.98-2.17-6.28-2.89-.61-.19-1.22-.36-1.85-.52-3.45-.88-7.11-1.3-10.48-1.42-.02.34-.05.67-.08,1,6.32.21,13.71,1.49,18.73,4.83,6.82,4.54,10.03,11.71,10.42,19.4-.02-.93-.09-1.85-.19-2.76-.77-7.01-3.99-13.45-10.28-17.64Z"/>
      <path class="cls-2" d="m128.95,105.6c-5.02-3.34-12.42-4.62-18.73-4.83-.17,1.74-.45,3.46-.82,5.13,7.3-2.16,16.14.2,20.93,6.18-6.63-2.63-13.36-4.43-20.47-3.66-.37.04-.74.09-1.11.13-.3,1.09-.63,2.14-.96,3.15-1.61,4.79-4.66,9.2-8.92,11.89-.76.59-1.55,1.12-2.39,1.59-2.37,1.31-4.91,2.07-7.52,2.38-.14.03-.29.05-.43.07.85,2.96,1.18,6.07.86,9.14-.14,1.34-.38,2.65-.72,3.94,1.91,3.48,4.48,6.58,7.67,8.98,4.99,3.76,10.64,5.38,16.17,5.27,12.61-.26,24.58-9.59,26.59-23.47.32-2.18.41-4.35.3-6.5-.39-7.69-3.6-14.86-10.42-19.4Z"/>
      <path class="cls-1" d="m126.13,70.03c-3.25-3.98-8.7-5.88-13.81-5.39.02.73,0,1.46-.03,2.2,4.7-.04,9.27,1.05,13.84,3.2Z"/>
      <path class="cls-3" d="m72.92,49.74c1.07-1.23,2.29-2.33,3.62-3.3-1.79,1.16-3.43,2.54-4.82,4.13-3.94,4.52-6.53,10.9-6.85,17.22.4.28.79.56,1.17.86-.1-6.85,2.59-13.99,6.88-18.91Z"/>
      <path class="cls-3" d="m107.19,80.9c-.5.86-1.04,1.69-1.62,2.46.19.21.37.43.55.65.55-.75,1.07-1.53,1.55-2.36,2.6-4.53,4.35-9.65,4.62-14.82.04-.73.05-1.46.03-2.2-.06-1.74-.29-3.47-.73-5.18-.19-.75-.44-1.5-.71-2.24-.1-.26-.18-.52-.29-.78-.6-1.45-1.35-2.84-2.22-4.16.67,1.09,1.26,2.23,1.74,3.41,3.45,8.34,1.45,17.61-2.91,25.22Z"/>
      <path class="cls-2" d="m72.92,49.74c-4.29,4.92-6.99,12.06-6.88,18.91.34.26.68.53,1.01.81,2.84,2.41,4.85,5.31,6.15,8.45,3.4-1.38,7.19-2.12,11-2.19,4.89-.36,9.9.4,14.14,2.36,3.08,1.43,5.44,3.23,7.23,5.27.58-.78,1.12-1.6,1.62-2.46,4.36-7.61,6.37-16.88,2.91-25.22-.49-1.17-1.08-2.31-1.74-3.41-3.36-5.5-8.88-9.78-15.37-10.46-5-.53-10.22.75-14.58,3.37-.65.39-1.27.81-1.87,1.25-1.32.98-2.55,2.08-3.62,3.3Zm1.35,7.51c1.73-7.98,10.94-13.48,18.85-11.48-7.79,1.58-13.95,5.19-18.85,11.48Z"/>
      <path class="cls-1" d="m109.85,108.43c7.12-.77,13.84,1.02,20.47,3.66-4.79-5.98-13.63-8.35-20.93-6.18-.2.9-.42,1.79-.66,2.66.37-.05.74-.1,1.11-.13Z"/>
      <path class="cls-1" d="m93.13,45.77c-7.91-2-17.13,3.5-18.85,11.48,4.9-6.29,11.07-9.9,18.85-11.48Z"/>
      <path class="cls-3" d="m43.49,151.16c-.22-.3-.43-.61-.64-.92-5.24.68-10.57-.37-15.15-2.79,1.55.96,3.21,1.75,4.93,2.35,3.44,1.22,7.16,1.7,10.85,1.35Z"/>
      <path class="cls-2" d="m42.85,150.24c-.75-1.14-1.4-2.35-1.9-3.66-3.14-8.15-.6-18.3,4.46-25.11.99-1.33,2.07-2.56,3.24-3.68-6.01.14-12.21-1.8-17.28-5.2-4.9,3.26-8.56,7.57-11.07,13.29-.22-6.1,3.96-11.89,9.49-14.43-1.29-.99-2.49-2.09-3.57-3.27-.52.25-1.02.52-1.52.81-8.18,4.91-11.47,15.82-8.69,24.7,1.61,5.16,4.95,9.36,9.2,12.26.8.55,1.64,1.05,2.5,1.5,4.58,2.42,9.91,3.46,15.15,2.79Z"/>
      <path class="cls-1" d="m20.3,125.88c2.5-5.72,6.17-10.03,11.07-13.29-.54-.36-1.06-.75-1.57-1.14-5.54,2.54-9.71,8.33-9.49,14.43Z"/>
      <path class="cls-3" d="m66.23,159.6c-9.68.56-20.19-4.49-23.81-13.88-3.14-8.15-.6-18.3,4.46-25.11.74-1,1.55-1.95,2.39-2.83-.21,0-.41.01-.62.02-1.16,1.12-2.25,2.35-3.24,3.68-5.06,6.82-7.6,16.96-4.46,25.11.5,1.31,1.15,2.52,1.9,3.66.21.31.42.62.64.92,4.02,5.4,10.68,8.62,17.43,9.24.37.03.74.05,1.11.07.91.04,1.82.06,2.73,0,3.97-.23,7.61-1.5,10.74-3.51-2.78,1.51-5.91,2.45-9.27,2.64Z"/>
      <path class="cls-3" d="m88.09,137.6c-.76,7.37-4.67,14.02-10.45,18.04,4.99-3,8.76-7.88,10.61-13.57.14-.45.27-.9.4-1.36.34-1.28.58-2.6.72-3.94.32-3.07,0-6.18-.86-9.14-.49.08-.98.15-1.48.2,1,3.15,1.4,6.48,1.06,9.77Z"/>
      <path class="cls-2" d="m88.09,137.6c.34-3.29-.07-6.62-1.06-9.77-8.44.85-17.59-3.03-23.89-8.15-.33-.27-.65-.54-.97-.82-3.91,1.86-7.51,4.2-10.54,7.44-1.53,1.59-2.9,3.36-4.34,5.29.71-6.9,6.28-12.58,12.86-14.7-.48-.52-.94-1.06-1.36-1.62-2.96,1.55-6.2,2.35-9.51,2.51-.84.89-1.65,1.83-2.39,2.83-5.06,6.82-7.6,16.96-4.46,25.11,3.62,9.39,14.13,14.44,23.81,13.88,3.36-.19,6.49-1.13,9.27-2.64.74-.4,1.45-.84,2.14-1.32,5.78-4.02,9.69-10.66,10.45-18.04Z"/>
      <path class="cls-1" d="m47.28,131.58c1.44-1.92,2.81-3.7,4.34-5.29,3.03-3.24,6.63-5.59,10.54-7.44-.71-.62-1.38-1.28-2.01-1.97-6.58,2.12-12.16,7.8-12.86,14.7Z"/>
      <path class="cls-3" d="m29.79,111.45c.51.39,1.03.78,1.57,1.14,5.07,3.41,11.26,5.34,17.28,5.2.21,0,.42,0,.62-.02,3.31-.16,6.56-.96,9.51-2.51-.17-.22-.32-.45-.48-.68-2.9,1.29-6.04,1.92-9.23,1.96-9.54.69-19.77-4.02-25.4-11.64.75,1.15,1.6,2.25,2.54,3.27,1.08,1.18,2.28,2.28,3.57,3.27Z"/>
      <path class="cls-3" d="m73.2,77.91c-1.3-3.15-3.32-6.04-6.15-8.45-.33-.28-.67-.54-1.01-.81-.38-.3-.77-.58-1.17-.86-5.91-4.14-13.29-6.11-20.5-5.6,7.63-.17,15.32,2.39,21.14,7.34,2.99,2.54,5.07,5.62,6.36,8.97.44-.21.88-.4,1.33-.58Z"/>
      <path class="cls-3" d="m49.07,116.54c3.19-.04,6.33-.67,9.23-1.96-.12-.17-.23-.34-.34-.51-2.77,1.45-5.79,2.25-8.89,2.47Z"/>
      <path class="cls-2" d="m49.07,116.54c3.1-.23,6.12-1.02,8.89-2.47-.39-.62-.76-1.26-1.06-1.92-.2-.43-.38-.86-.53-1.31-2.94-8.42,1.33-19.89,8.05-26.65,1.95-2.19,4.15-4,6.46-5.21.32-.17.66-.32.99-.48-1.29-3.35-3.37-6.42-6.36-8.97-5.81-4.94-13.51-7.5-21.14-7.34-1.54.03-3.07.17-4.59.43-.36.06-.71.13-1.07.2-2.89.6-5.7,1.63-8.15,3.26-12.09,8.09-15.24,25.61-7.97,37.25.33.54.7,1.06,1.08,1.57,5.63,7.61,15.85,12.33,25.4,11.64Zm1.49-49.63c-6.71.86-13.12,2.46-18.67,6.37-1.82,1.24-3.52,2.7-5.32,4.29,2.97-9.36,15.01-14.36,23.99-10.66Z"/>
      <path class="cls-1" d="m50.57,66.91c-8.98-3.7-21.02,1.29-23.99,10.66,1.8-1.59,3.5-3.05,5.32-4.29,5.55-3.91,11.95-5.5,18.67-6.37Z"/>
      <path class="cls-3" d="m64.16,119.28c-2.6-2.12-4.97-4.66-6.36-7.69-.2-.44-.38-.88-.54-1.34-2.85-8.15.92-19.08,7.17-26.08-6.72,6.77-11,18.23-8.05,26.65.16.45.33.88.53,1.31.31.67.67,1.3,1.06,1.92.11.17.22.34.34.51.16.23.31.46.48.68.42.56.88,1.1,1.36,1.62.64.69,1.31,1.35,2.01,1.97.32.28.64.56.97.82,6.3,5.12,15.44,9,23.89,8.15.5-.05.99-.12,1.48-.2.14-.02.29-.05.43-.07-8.73,1.03-18.25-2.97-24.78-8.27Z"/>
      <path class="cls-3" d="m98.34,78.09c-4.24-1.97-9.25-2.72-14.14-2.36,4.41-.08,8.83.73,12.64,2.49,15.44,7.16,13.33,23.28,9.62,34.3-1.45,4.3-4.04,8.3-7.6,11.07,4.26-2.69,7.31-7.1,8.92-11.89.34-1.01.67-2.06.96-3.15.24-.87.46-1.76.66-2.66.37-1.67.66-3.39.82-5.13.03-.33.06-.67.08-1,.38-5.57-.57-11.21-4.18-15.75-.18-.22-.36-.44-.55-.65-1.79-2.04-4.15-3.84-7.23-5.27Z"/>
      <path class="cls-2" d="m106.46,112.52c3.71-11.02,5.82-27.14-9.62-34.3-3.81-1.77-8.23-2.57-12.64-2.49-3.81.07-7.6.81-11,2.19-.45.18-.9.38-1.33.58-.33.16-.67.31-.99.48-2.31,1.21-4.5,3.02-6.46,5.21-6.24,7-10.01,17.93-7.17,26.08.16.46.34.9.54,1.34,1.4,3.03,3.76,5.57,6.36,7.69,6.52,5.3,16.05,9.3,24.78,8.27,2.61-.31,5.16-1.06,7.52-2.38.84-.47,1.64-1,2.39-1.59,3.56-2.77,6.16-6.77,7.6-11.07Zm-12.75-32.33c-10.49.56-20.66,2.52-28.59,9.9,4.45-10.55,18.57-13.97,28.59-9.9Z"/>
      <path class="cls-1" d="m65.12,90.09c7.93-7.38,18.1-9.34,28.59-9.9-10.02-4.07-24.14-.65-28.59,9.9Z"/>
    </g>
  </g>
</svg>