<?xml version="1.0" encoding="UTF-8"?>
<svg xmlns="http://www.w3.org/2000/svg" viewBox="0 0 203.43 163.27">
  <defs>
    <style>
      .cls-1 {
        isolation: isolate;
      }

      .cls-2 {
        fill: #e64228;
      }

      .cls-2, .cls-3, .cls-4, .cls-5, .cls-6, .cls-7, .cls-8 {
        stroke-width: 0px;
      }

      .cls-3 {
        fill: #fff;
      }

      .cls-4 {
        fill: #269e65;
      }

      .cls-5 {
        mix-blend-mode: multiply;
      }

      .cls-5, .cls-8 {
        fill: #cd7534;
      }

      .cls-6 {
        opacity: .35;
      }

      .cls-6, .cls-7 {
        fill: #eab520;
        mix-blend-mode: hard-light;
      }

      .cls-7 {
        opacity: .88;
      }
    </style>
  </defs>
  <g class="cls-1">
    <g id="Layer_2" data-name="Layer 2">
      <g id="Blancos">
        <path class="cls-3" d="m203.26,129.81c-.64-5.11-2.91-9.93-6.75-14.33-.48-.55-.99-1.1-1.5-1.62-2.33-2.36-4.71-4.04-6.63-5.38-.87-.61-2.04-1.43-2.42-1.82-.22-.32-.55-.89-.91-1.87-.45-1.22-.81-2.72-1.07-4.44-.22-1.49-.4-3.1-.59-4.81-.66-6.08-1.42-12.96-4.78-19.96-1.96-4.08-4.69-7.78-8.11-10.96-2.14-2-4.5-3.75-7.03-5.22-.04-.33-.08-.66-.13-.99-.05-.36-.11-.71-.17-1.07l-.04-.24c-.13-.84-.27-1.67-.44-2.52-.07-.37-.15-.73-.23-1.1l-.07-.29c-.17-.82-.35-1.63-.56-2.45-.09-.38-.2-.75-.3-1.13l-.08-.27c-.22-.8-.44-1.6-.69-2.38-.13-.41-.26-.82-.4-1.23l-.07-.2c-.27-.79-.54-1.57-.84-2.37-.17-.45-.35-.9-.53-1.35-.32-.79-.65-1.58-1-2.37-.2-.45-.4-.89-.61-1.31-.38-.79-.77-1.58-1.18-2.36-.22-.43-.45-.85-.68-1.26-.44-.78-.89-1.55-1.38-2.35l-.11-.17c-.2-.33-.41-.66-.62-.99-.46-.72-.97-1.45-1.58-2.3l-.12-.17c-.22-.3-.43-.61-.67-.92-.69-.91-1.36-1.72-1.85-2.3l-.11-.13c-.23-.28-.46-.56-.69-.82-.81-.92-1.59-1.73-2.19-2.34-.24-.26-.49-.51-.75-.77-.58-.56-1.19-1.13-1.87-1.73-.21-2.78-1.06-5.6-2.59-8.26-3.66-6.37-9.25-10.33-15.73-11.14-.77-.09-1.55-.14-2.33-.14-4.75,0-9.33,1.81-12.85,4.9-1.18-.17-2.31-.3-3.43-.4-2.37-.21-4.78-.32-7.16-.32-14.75,0-28.67,4.01-40.27,11.59-5.41,3.54-10.18,8.13-14.18,13.66-3.5,4.84-6.43,10.36-9.24,17.37-.99,2.47-1.98,5.15-3.02,8.18-1.76,5.12-3.9,11.14-6.42,16.93-2.34,5.38-4.77,9.97-7.42,14.06-1.15,1.78-2.27,3.36-3.42,4.83-.87,1.12-1.83,2.26-2.86,3.48-.93,1.1-1.84,2.19-2.72,3.29-4.04,5.03-8.79,12.06-9.71,21.88-1.16,12.26,3.68,24.44,12.62,31.77,3.23,2.65,6.95,4.79,11.71,6.74,8.62,3.53,18.36,5.32,28.97,5.32,2.21,0,4.51-.08,6.82-.23.13,0,.46-.03.5-.03,13.9-.98,27.45-4.64,36.43-7.31,9.84-2.92,17.55-6.15,24.29-10.15,1.08-.64,2.16-1.34,3.38-2.18.15-.11.31-.21.46-.32.14.12.62.54.62.54.32.28.63.55.96.82.36.29.72.58,1.16.92.33.26.67.51,1.04.78.4.29.8.57,1.23.87.33.23.67.45,1.04.69.42.27.84.53,1.29.81.37.22.74.43,1.08.63.44.25.88.49,1.38.76.33.17.67.34,1,.5,0,0,.1.05.1.05.47.23.94.46,1.42.67.33.15.67.3,1.01.44l.31.13c.42.18.84.35,1.3.53.34.13.69.25,1.03.38l.35.12c.42.15.83.3,1.31.46.39.13.8.25,1.2.36l.36.11c.38.12.76.23,1.13.33,1.49.4,3.1.77,4.92,1.11,6.57,1.25,13.07,1.51,18.02,1.59h.85c.93.03,1.94.05,3,.05,0,0,0,0,0,0,24.29,0,29.71-13.17,30.78-21.04.1-.76.17-1.55.19-2.46.03-1.14-.03-2.28-.17-3.4Z"/>
      </g>
      <g id="Productos">
        <g>
          <path class="cls-2" d="m57.14,38.22c-4.63,6.4-7.61,13.99-10.23,21.63-4.88,14.21-10.28,28.18-19.6,40.17-5.14,6.61-11.36,11.95-12.2,20.84-.65,6.87,1.8,14.34,7.2,18.77,2.34,1.92,5.07,3.31,7.87,4.45,19.65,8.04,43.13,3.07,62.77-2.75,7.24-2.15,14.38-4.8,20.88-8.66,8.08-4.81,13.78-11.49,19.18-19.03,4.92-6.86,9.33-14.15,12.22-22.07,2.16-5.92,3.44-12.15,3.8-18.44.96-16.85-4.65-35.13-18.94-45.13-7.25-5.08-16.02-7.74-24.84-8.54-13.11-1.19-26.78,1.63-37.87,8.88-4.17,2.72-7.49,6.1-10.23,9.89Z"/>
          <path class="cls-4" d="m121.69,85.35c-3.44,11.03-.49,22.86,4.15,33.07,4.85,10.65,12.24,17.95,23.74,21.05,6.27,1.69,12.79,2.08,19.26,2.18,6.5.1,18.34.72,19.52-7.99.48-3.56-1.64-6.85-4.04-9.28-3.23-3.27-7.64-5.03-10.4-8.76s-4.1-8.48-4.78-13.04c-1.04-6.92-1.02-14.19-4.05-20.5-2.93-6.1-8.8-10.57-15.31-12.23-5.95-1.52-15.47-1.6-20.42,2.53-3.86,3.22-6.2,8.27-7.67,12.97Z"/>
          <path class="cls-7" d="m149.13,69.69c-5.98-1.36-14.99-1.29-19.77,2.69-3.85,3.22-6.2,8.28-7.66,12.98-3.45,11.02-.5,22.86,4.15,33.06.43.93.87,1.84,1.33,2.72-3.82,4.45-8.08,8.38-13.35,11.52-6.49,3.86-13.64,6.51-20.88,8.66-19.64,5.83-43.12,10.79-62.77,2.75-2.8-1.15-5.53-2.53-7.87-4.45-5.4-4.43-7.85-11.89-7.2-18.77.84-8.89,7.06-14.23,12.2-20.84,9.32-11.98,14.72-25.95,19.6-40.16,2.63-7.64,5.61-15.23,10.24-21.63,2.74-3.79,6.06-7.17,10.22-9.89,11.09-7.25,24.76-10.07,37.88-8.88,8.82.79,17.58,3.46,24.84,8.54,13.33,9.32,19.1,25.85,19.04,41.7Z"/>
          <path class="cls-6" d="m188.37,133.67c-1.18,8.71-13.03,8.09-19.53,7.99-6.46-.11-12.98-.49-19.26-2.19-10.48-2.83-17.56-9.15-22.4-18.33-.46-.88-.9-1.79-1.33-2.72-4.65-10.2-7.6-22.04-4.15-33.06,1.46-4.7,3.81-9.76,7.66-12.98,4.78-3.98,13.79-4.05,19.77-2.69.22.05.44.1.66.16,6.51,1.66,12.38,6.13,15.31,12.23,3.03,6.31,3.01,13.58,4.05,20.5.69,4.56,2.01,9.29,4.78,13.05,2.76,3.73,7.17,5.49,10.4,8.76,2.4,2.43,4.52,5.72,4.04,9.28Z"/>
          <path class="cls-8" d="m118.84,17.55c.84-1.64,2.69-2.75,4.52-2.52,2.02.25,3.56,1.96,4.57,3.73.63,1.09,1.06,2.65.1,3.46-.34.28-.79.4-1.2.55-1.51.56-2.77,1.77-3.39,3.26-.93,2.24-1.67,3.46-4.35,3.55-1.61.05-2.81-.18-3.32-1.79-.69-2.18,2.11-8.35,3.07-10.23Z"/>
          <path class="cls-8" d="m146.08,70.44c-.08.42-.2.88-.55,1.15-.28.22-.65.29-1.02.32-1.95.19-3.29-.28-3.11-2.23.11-1.23.65-2.4,1.67-3.2,2.92-2.26,3.41,2.06,3,3.95Z"/>
          <path class="cls-5" d="m118.84,17.55c.84-1.64,2.69-2.75,4.52-2.52,2.02.25,3.56,1.96,4.57,3.73.63,1.09,1.06,2.65.1,3.46-.34.28-.79.4-1.2.55-1.51.56-2.77,1.77-3.39,3.26-.93,2.24-1.67,3.46-4.35,3.55-1.61.05-2.81-.18-3.32-1.79-.69-2.18,2.11-8.35,3.07-10.23Z"/>
          <path class="cls-5" d="m146.08,70.44c-.08.42-.2.88-.55,1.15-.28.22-.65.29-1.02.32-1.95.19-3.29-.28-3.11-2.23.11-1.23.65-2.4,1.67-3.2,2.92-2.26,3.41,2.06,3,3.95Z"/>
          <path class="cls-3" d="m70.01,39.86c-10.95,8.77-13.09,23.05-18.3,35.38-5.43,12.56-13.7,23.53-22.37,33.98,7.21-11.37,15.08-22.44,20.37-34.83,5.15-12.15,8.2-27.14,20.29-34.52h0Z"/>
          <path class="cls-3" d="m127.37,81.15c-2.59,7.29-2.52,15.31-1.3,22.88.16,1.1.42,2.18.63,3.28-.42-1.03-.79-2.09-1.11-3.17-1.98-7.48-2.05-16.07,1.78-22.99h0Z"/>
        </g>
      </g>
    </g>
  </g>
</svg>