<?xml version="1.0" encoding="UTF-8"?>
<svg xmlns="http://www.w3.org/2000/svg" viewBox="0 0 170.5 215.77">
  <defs>
    <style>
      .cls-1 {
        fill: #2ba069;
      }

      .cls-1, .cls-2, .cls-3, .cls-4, .cls-5, .cls-6 {
        stroke-width: 0px;
      }

      .cls-2 {
        fill: #008d4a;
      }

      .cls-7 {
        isolation: isolate;
      }

      .cls-3 {
        fill: #eab520;
        mix-blend-mode: soft-light;
      }

      .cls-4 {
        fill: #c2e4d4;
      }

      .cls-5 {
        fill: #fff;
      }

      .cls-6 {
        fill: #33a46e;
      }
    </style>
  </defs>
  <g class="cls-7">
    <g id="Layer_2" data-name="Layer 2">
      <g id="Blancos">
        <path class="cls-5" d="M170.25,51.05c-.8-5.65-4.07-10.67-8.85-13.72-5.54-22.1-38.91-23.81-47.35-2.76-.37.11-.72.22-1.04.32-2.43-.99-4.97-1.66-7.56-1.8-1.12-3.95-4.1-8.1-7.19-10.33-5.63-16.41-26.42-19.05-39.06-8.88C51.83-1.78,31.1-4.78,19.48,7.9-12.58,13.75-1.74,54.2,27.89,52.34c.58,8.47,1.95,18.33,6.62,26.45,1.17,2.53,3.61,5.22,3.51,7.78-.01,24.9,7.31,51.67,8.46,75.46-6.79,8.98-8.68,24.95.83,32.69-6.38,19.84,22.18,30.21,29.3,10.39,1.09-4.16,3.89-5.72,5.62-5.5,35.05,25.2,70.29-38.35,24.25-47,2.27-11.47,6.44-22.74,10.79-34.57,5.2-6.94,11.8-14.17,15.05-22.46.87-1.92,6.51-14.18,7.32-15.84,15.63.4,33.13-11.96,30.6-28.69Z"/>
      </g>
      <g id="Productos">
        <g>
          <path class="cls-4" d="M65.13,39.19c-2.57,8.41-3.74,17.2-4.39,25.92-.77,5.24-1.99,10.42-2.47,15.63-.62,6.92-.21,13.86.49,20.78,1.55,14.03,4.18,27.79,6.5,41.82.97,7.09,1.71,14.52.92,21.67-.23,2.27-.49,4.07.36,5.91.43.86,2.2,1.71,3.02,1.55.09-.03.05.02.1-.01.04-.03.11-.22.12-.49.08-1-1.08-2.21-2.06-2.58-.96-.41-2-.24-3.01.11-1.93.65-3.68,1.78-5.02,3.35-2.17,2.52-2.99,6.11-3.01,9.63-.63-3.56-.33-7.44,1.74-10.57,2.62-4.04,9.05-7.66,13.02-3.33,1.95,1.76,2.35,5.96-.7,7.08-2.97.93-6.21-.62-7.68-3.14-1.3-2.39-1.2-5.56-1.02-7.89.5-6.77-.25-13.73-1.36-20.61-2.37-13.86-4.77-27.97-6.05-42.12-1.05-10.71-.79-21.74,1.96-32.18.84-3.44,1.51-6.8,1.77-10.29.87-7.15,2.47-14.11,4.7-20.94l2.07.68h0Z"/>
          <path class="cls-4" d="M40.44,34.06c2.76,4.5,4.13,9.54,5.17,14.59.99,4.93.96,10.03,2.6,14.79.75,2.31,1.77,4.52,2.97,6.68,2.03,3.79,5.16,7.64,5.6,12.23.18,1.7.85,8.12,1.04,9.9,0,0-3.48.37-3.48.37-.15-1.48-.81-8.21-.94-9.52-.32-4.29-3.09-7.59-5.03-11.46-1.23-2.3-2.28-4.76-3.01-7.31-1.55-4.96-1.38-10.2-2.2-15.25-.35-2.47-.84-4.93-1.43-7.35-.59-2.39-1.31-4.84-2.26-7.1,0,0,.97-.56.97-.56h0Z"/>
          <path class="cls-2" d="M43.79,45.76s-.64-7.67.28-11.76c.92-4.09,2.88-6.78,2.33-10.45-.55-3.67-5.2-9.32-9.89-8.26-4.69,1.05-7.6,5.45-9.92,6.83s-9.12.15-10.91,4.9,2.64,7.67,6.28,9.15,11.06.11,14,1.16c4.75,1.69,7.82,8.42,7.82,8.42Z"/>
          <path class="cls-2" d="M62.64,35.47c.55-2.67,2.13-5.8,4.02-7.7,4.75-4.8,14.27-7.41,17.13.34.58,1.57,0,2.89,1.27,4.38,1.39,1.63,3.58,1.79,4.87,3.56,1.52,2.09,1.39,5.22-.05,7.35-2.91,4.31-9.39,4.22-13.65,1.88-3.2-1.76-5.97-4.78-9.75-4.5-1.61.12-3.9,3.81-3.9,3.81,0,0-1-3.96.05-9.11Z"/>
          <path class="cls-6" d="M28.77,22.34c3.35,1.69,6.14,4.4,8.2,7.51.68,1.04,1.28,2.26,1.27,3.53-.87-2.32-2.74-3.98-4.3-5.82-1.63-1.8-3.38-3.48-5.16-5.23h0Z"/>
          <path class="cls-6" d="M67.02,35.86c2.54-4.2,10.77-6.14,14.97-3.64-2.6-.72-5.29-.24-7.86.31-2.55.65-5.14,1.48-7.11,3.33h0Z"/>
          <path class="cls-3" d="M89.93,36.05c-1.29-1.78-3.48-1.93-4.87-3.56-1.27-1.49-.69-2.81-1.27-4.38-2.86-7.75-12.38-5.13-17.13-.34-1.89,1.91-3.47,5.03-4.02,7.7-.45,2.2-.53,4.19-.46,5.74-1.79,5.96-3.1,12.02-3.86,18.23-.26,3.49-.93,6.85-1.78,10.29-.61,2.32-1.1,4.67-1.48,7.03-1.17-2.33-2.69-4.52-3.85-6.68-1.19-2.16-2.21-4.36-2.97-6.67-1.64-4.76-1.62-9.85-2.61-14.78-.55-2.64-1.19-5.27-2.07-7.83-.02-2.3.07-4.93.49-6.81.92-4.09,2.88-6.78,2.33-10.45-.55-3.67-5.2-9.32-9.89-8.26-4.69,1.05-7.6,5.45-9.92,6.83-2.32,1.38-9.12.15-10.91,4.9-1.79,4.76,2.64,7.67,6.28,9.15,3.64,1.49,11.06.11,14,1.16,2.52.9,4.57,3.22,5.93,5.2,1.08,4.59,1.67,9.32,2.02,14.01.37,5.24,1.9,10.5,4.4,15.11,1.94,3.87,4.71,7.16,5.03,11.45.09.87.41,4.14.66,6.66-.04,4.07.17,8.14.56,12.16,1.28,14.15,3.68,28.26,6.04,42.12,1.11,6.87,1.86,13.83,1.37,20.59-.08,1.12-.15,2.44-.06,3.77-2.97,1.94-5.03,5.23-5.41,8.71-.25,1.81-.13,3.62.17,5.37-.04-4.73,1.67-9.44,5.61-11.83.14.52.3,1.03.53,1.5,1.67,4.28,10.39,5.92,10.2-.27-.27-2.65-2.13-4.35-4.44-5.11-.84-.27-1.68-.3-2.5-.17.04-.51.1-1.04.16-1.59.79-7.16.05-14.59-.91-21.69-2.32-14.04-4.96-27.8-6.51-41.82-.7-6.91-1.12-13.84-.5-20.77.48-5.2,1.69-10.39,2.46-15.63.56-7.65,1.53-15.34,3.49-22.79.71-.79,1.52-1.51,2.22-1.56,3.79-.28,6.56,2.74,9.75,4.5,4.25,2.34,10.73,2.43,13.65-1.88,1.44-2.13,1.56-5.26.05-7.35ZM67.71,169.44c.96.36,2.12,1.56,2.03,2.54-.01.27-.08.44-.11.47-.22,0-.82,0-1.43-.28-.72-.33-1.35-.75-1.65-1.39-.22-.52-.35-1.04-.43-1.56.54-.05,1.09,0,1.6.22Z"/>
          <path class="cls-4" d="M113.61,77.02c-6.08,29.2-21.94,55.68-24.51,85.63-.55,7.18-.86,15.63,4.52,20.99,2.96,3.2,7.35,2.54,10.75.2,3.22-1.96,5.24-5.38,4.72-8.94-.52-3.57-5.38-3.86-8.16-2.91-3.87,1.18-6.55,5.02-9.9,7.2-2.82,1.85-5.68,3.39-8.86,4.53-1.06.39-2.26.46-3.33.66-4.03.65-7.79,2.38-10.72,5.26-2.88,2.92-4.9,6.73-6.21,10.8.62-4.22,2.22-8.42,5.03-11.87,3.35-4.13,8.51-6.35,13.65-7.18,3.9-1.55,7.84-3.79,10.93-6.61,2.38-2.39,4.92-4.74,8.31-5.93,6.83-2.36,14.28,1.21,12.66,9.25-.5,3.72-3.2,6.95-6.08,8.81-4.41,3.15-10.46,3.99-14.86.17-7.03-6.06-7.39-16.23-6.66-24.78,1.96-21.52,10.04-41.86,17.48-61.87,2.91-7.97,5.54-15.99,7.29-24.18l3.92.79h0Z"/>
          <path class="cls-4" d="M130.94,63.15c-2.79,3.56-4.75,8.4-6.76,12.54,0,0-6.17,13.48-6.17,13.48-1.98,4.57-4.88,9.21-8.17,12.92-2.97,3.63-6.29,7.34-7.93,11.64,0,0-3.8-1.41-3.8-1.41,1.99-4.96,5.45-8.76,8.66-12.75,3.23-3.76,5.63-7.51,7.53-12.07,1.92-4.51,6.89-16.11,8.87-20.43,1.05-2.3,2.23-4.66,3.83-6.89l3.94,2.98h0Z"/>
          <path class="cls-2" d="M129.84,66.2c2.61-1.68,5.83-1.94,9.3-1.88,4.68.08,10.37-1.62,13.66-5.04,2.32-2.42,3.6-7.14-.02-9.14-2.63-1.45-5.72-1.29-6.13-5.09-.13-1.21.08-2.44-.14-3.64-.23-1.24-.91-2.36-1.75-3.29-3.11-3.44-8.76-4.31-12.68-1.82-3.33,2.12-5.04,6.11-5.59,10.01s-.13,7.88-.19,11.83c-.03,1.87.19,4.78-.23,6.61-.38,1.67-2.55,7.18-2.55,7.18.01,0,2.83-3.5,6.31-5.74Z"/>
          <path class="cls-1" d="M120.61,48.95c1.33-.08,2.71.22,4.22,1.3,7.95,5.68,5.02,16.99-1.67,22.24-3.74,2.94-7.39,4.04-10.03,8.18-1.16,1.82-3.56,4.99-3.78,7.22.28-2.94.06-6.09-.68-8.94-.55-2.14-1.44-4.42-3.08-5.97-2.29-2.16-5.76-2.54-8.18-4.67-4.2-3.71-3.74-10.08-1.08-14.54,1.31-2.19,3.26-4.18,5.73-4.99,3.77-1.24,6.02,1.39,9.52,1.89,3.38.48,6.08-1.54,9.02-1.72Z"/>
          <path class="cls-2" d="M111.61,76.73c.31-3.79,1.45-7.44,1.6-11.23,0-3.75-1.56-7.45-1.26-11.24.34,3.89,2.12,7.3,2.22,11.28-.05,3.88-1.33,7.56-2.56,11.19h0Z"/>
          <path class="cls-6" d="M132.05,55.66c-.41-4.43,6.63-11.02,10.99-8.96-4.05-.65-10.12,5.19-10.99,8.96h0Z"/>
          <path class="cls-3" d="M152.79,50.14c-2.63-1.45-5.72-1.29-6.13-5.09-.13-1.21.08-2.44-.14-3.64-.23-1.24-.91-2.36-1.75-3.29-3.11-3.44-8.76-4.31-12.68-1.82-3.33,2.12-5.04,6.11-5.59,10.01-.24,1.69-.29,3.38-.28,5.09-.42-.41-.88-.79-1.39-1.16-1.51-1.08-2.89-1.38-4.22-1.3-2.94.17-5.64,2.2-9.02,1.72-3.51-.5-5.75-3.13-9.52-1.89-2.47.81-4.42,2.8-5.73,4.99-2.67,4.46-3.13,10.84,1.08,14.54,2.41,2.13,5.89,2.51,8.18,4.67,1.64,1.55,2.53,3.83,3.08,5.97.06.25.1.52.16.78-1.7,6.98-3.99,13.84-6.48,20.67-7.45,20.02-15.53,40.36-17.48,61.89-.45,5.29-.48,11.19,1.22,16.37-.7.4-1.4.79-2.1,1.17-1.82,1.03-3.58,1.7-5.64,2.02-9.19,1.8-15.28,9.63-16.41,18.61,1.93-6.01,5.45-11.55,11.17-14.26,2.57-1.29,5.37-1.71,8.21-2.16,2.1-.62,4.05-1.5,5.94-2.52,1.03,2.09,2.42,4,4.3,5.61,4.42,3.84,10.49,3,14.92-.17,2.89-1.86,5.6-5.11,6.1-8.84,1.63-8.07-5.86-11.67-12.72-9.3-3.4,1.2-5.94,3.55-8.33,5.94-.58.55-1.19,1.06-1.83,1.55-1.1-4.35-.86-9.23-.52-13.63,1.53-17.89,7.81-34.53,13.91-51.26,1.78-3.32,4.41-6.33,6.82-9.27,3.28-3.71,6.2-8.36,8.17-12.93l6.17-13.48c1.32-2.71,2.62-5.73,4.14-8.48.47-.36.96-.72,1.47-1.04,2.61-1.68,5.83-1.94,9.3-1.88,4.68.08,10.37-1.62,13.66-5.04,2.32-2.42,3.6-7.14-.02-9.14ZM91.06,179.22c3.34-2.17,6.03-6.02,9.89-7.19,2.75-.94,7.58-.67,8.1,2.87.51,3.53-1.49,6.94-4.71,8.89-3.36,2.32-7.77,2.98-10.69-.2-1.25-1.25-2.18-2.67-2.89-4.2.1-.06.19-.12.29-.18ZM114.26,87.47c-1.49,4.08-3.92,7.48-6.53,10.76,1.87-5.57,3.59-11.19,4.96-16.91.15-.23.3-.46.43-.66,1.81-2.83,4.08-4.24,6.53-5.79-2.03,4.69-4.26,9.9-5.4,12.59Z"/>
          <path class="cls-4" d="M84.19,90.39c3.33,8.04,2.28,17.89-4.11,24.12-3.48,3.02-5.98,7.24-6.75,11.79-.8,3.6.28,8.93,4.62,9.03,2.53.06,5.17-1.78,5.53-4.5.89-3.76-3.55-8.3-.37-11.65.59-.6,1.34-1.01,2.14-1.21-1.54.55-2.68,1.99-2.72,3.54-.05,1.32,1.07,3.19,1.58,4.42,2.88,5.26.6,12.39-6.01,13.02-7.16.38-8.84-7.67-7.52-13.15.65-3.42,2.12-6.65,4.18-9.41,1.91-2.59,4.73-4.4,6.29-7.28,2.46-3.94,2.96-8.75,2.05-13.26-.28-1.5-.73-3.06-1.29-4.38l2.36-1.07h0Z"/>
          <path class="cls-2" d="M75.8,75.15c-2.87-1.07-6.15-.28-7.98,2.25-1.21,1.67-1.57,3.94-.86,5.88,1.63,4.49,7.14,6.41,11.13,8.05,2.33.96,4.66,2.19,6.13,4.24.29-3.58.11-7.19-.53-10.73-.38-2.1-1.09-3.94-2.34-5.68-1.14-1.6-3.34-3.19-5.55-4.01Z"/>
          <path class="cls-6" d="M72.89,79.02c3.05.46,6.46,2.84,6.77,6.1-1.67-2.68-4.23-4.28-6.77-6.1h0Z"/>
          <path class="cls-1" d="M78.63,85.43c-.48-3.52.27-7.03,2.73-9.7,2.47-2.69,8.38-5.39,11.68-2.66,1.11.92,1.68,2.4,1.65,3.85-.05,2.71-2.05,5.33-3.88,7.17-3.25,3.29-5.96,6.4-5.81,10.63.04,1.06.19,1.89-.05,3.33-.44-1.21-1.11-1.74-2.29-2.99-2.37-2.5-3.61-6.56-4.03-9.63Z"/>
          <path class="cls-2" d="M88.88,79.79c-2.72,3.96-4.54,8.27-4.53,13.13-1.49-4.68.72-10.19,4.53-13.13h0Z"/>
          <path class="cls-3" d="M94.69,76.92c.03-1.44-.54-2.93-1.65-3.85-3.31-2.73-9.21-.02-11.68,2.66-.56.6-1.01,1.25-1.4,1.93-1.16-1.03-2.65-1.95-4.16-2.52-2.87-1.07-6.15-.28-7.98,2.25-1.21,1.67-1.57,3.94-.86,5.88,1.63,4.49,7.14,6.41,11.13,8.05.99.41,1.98.87,2.91,1.42.48.85,1.03,1.63,1.66,2.3.11.12.22.23.32.34.03.15.07.3.1.45.91,4.5.41,9.31-2.04,13.24-1.56,2.88-4.39,4.69-6.29,7.28-2.06,2.77-3.54,6-4.19,9.43-1.33,5.51.37,13.59,7.56,13.21,6.61-.61,8.93-7.85,6.02-13.08-.51-1.22-1.64-3.09-1.59-4.41.03-1.54,1.17-2.98,2.71-3.54-2.71.61-3.99,3.53-3.02,6.04l.71,2.35c.45,1.53.76,3.07.52,4.46-.43,3.25-4.19,5.25-7.07,4.15-5.94-3.25-2.64-12.66.53-17.01,1.99-2.65,4.76-4.59,6.34-7.55,3.19-5.22,3.47-11.62,1.84-17.42.52-3.39,2.91-6.09,5.71-8.91,1.83-1.85,3.83-4.46,3.88-7.17Z"/>
        </g>
      </g>
    </g>
  </g>
</svg>