<?xml version="1.0" encoding="UTF-8"?>
<svg id="Layer_2" data-name="Layer 2" xmlns="http://www.w3.org/2000/svg" viewBox="0 0 240.32 191.97">
  <defs>
    <style>
      .cls-1 {
        fill: #fff;
      }

      .cls-2 {
        fill: #081c2c;
      }

      .cls-3 {
        fill: #eab520;
      }
    </style>
  </defs>
  <g id="Blancos">
    <path class="cls-1" d="m235.79,95.58c-1.72-3.52-6.96-14.23-18.36-14.23-.9,0-1.81.08-2.7.23-1.98.33-6.21,1.36-18.11,4.41l-4.48,1.15c-3.37.87-6.5,1.68-8.82,2.26-.04,0-.07,0-.11,0-11.42,0-52.19-8.44-66.1-14.36-14.71-6.26-51.15-33-57.52-38.56-5.74-5.01-10.87-11.72-14.25-16.35-2.15-2.95-4.59-8.11-5.61-10.66C37.47,3.73,31.92,0,25.81,0c-.29,0-.57,0-.86.02C9.52.91,5.21,6.32,3.58,8.35.68,11.99-.54,16.67.22,21.22c.46,2.75,4,21.18,5.26,27.77-.47,6.1-1.12,22.25,3.06,40.28,4.6,19.93,17.26,53.58,26.69,67.11,8.95,12.83,29.09,28.36,58.77,33.49,8.21,1.42,15.69,2.11,22.87,2.11h0c17.63,0,34-4.13,53.08-13.39,26.86-13.02,38.86-25.64,49.45-36.78l1.53-1.61c2.28-2.4,4.43-4.66,6.29-6.68,7.14-7.71,14.53-15.69,12.84-25.74-.65-3.86-2.71-8.98-4.28-12.19Z"/>
  </g>
  <g id="Layer_1-2" data-name="Layer 1">
    <g>
      <path class="cls-3" d="m217.22,96.36c-1.8.3-9.32,2.22-16.87,4.15-5.43,1.4-10.86,2.81-14.19,3.63-7.92,1.96-57.85-8.04-74.93-15.3-17.1-7.28-54.8-35.2-61.5-41.06-6.7-5.85-12.37-13.15-16.49-18.8-4.13-5.65-7.44-13.98-7.44-13.98,0,0-11.31.65-10.79,3.72.52,3.09,5.6,29.52,5.6,29.52,0,0-2.12,17.49,2.55,37.65,4.66,20.16,16.86,51.12,24.38,61.9,7.54,10.8,24.84,23.11,49.03,27.29,24.19,4.18,42.81,1.67,66.86-10,24.05-11.66,34.33-22.27,45.12-33.62,2.89-3.04,5.48-5.75,7.69-8.16,6.07-6.56,9.43-10.8,9.05-13.06-.52-3.09-4.98-14.41-8.06-13.89Z"/>
      <path class="cls-2" d="m217.22,96.36c-1.8.3-9.32,2.22-16.87,4.15,1,1.92,4.22,8.06,7.74,13.26,2.21,3.26,5.49,6.85,8.13,9.53,6.07-6.56,9.43-10.8,9.05-13.06-.52-3.09-4.98-14.41-8.06-13.89Z"/>
      <path class="cls-2" d="m184.75,138.44c-4.66,2.48-11.3,8.25-31.53,11.23-20.23,2.98-43.97-2.33-57.22-8.13-13.25-5.81-32.34-18.67-39.62-26.75-7.28-8.08-12.24-19.94-15.76-28.23-3.51-8.29-9.3-25.09-10.6-22.76,0,0,10,31.74,19.01,45.03,9.01,13.29,28.24,29.52,50.13,36.41,21.89,6.89,41.17,10.84,56.94,6.49,15.77-4.35,31.95-11.3,34.34-14.67,2.39-3.37-1.03-1.1-5.69,1.38Z"/>
      <path class="cls-2" d="m191.51,120.8c-2.4.83-15.01,8.87-37.44,6.31-22.43-2.57-56.28-20.14-65.96-24.86-9.68-4.72-19.43-12.38-26.72-20.46-7.28-8.08-25.3-34.67-26.95-34.39-1.65.28.48,2.88.48,2.88,0,0,20.36,32.96,37.8,46.1,17.45,13.14,61.3,29.87,80.52,33.41,19.21,3.53,47.93-9.34,47.24-10.92s-6.58,1.11-8.98,1.94Z"/>
    </g>
  </g>
</svg>