<?xml version="1.0" encoding="UTF-8"?>
<svg xmlns="http://www.w3.org/2000/svg" viewBox="0 0 155.55 266.09">
  <defs>
    <style>
      .cls-1 {
        fill: #19995c;
      }

      .cls-1, .cls-2, .cls-3, .cls-4, .cls-5, .cls-6, .cls-7 {
        stroke-width: 0px;
      }

      .cls-2 {
        fill: #99d1b7;
      }

      .cls-3 {
        fill: #b2ddc9;
      }

      .cls-4 {
        fill: #008d4a;
      }

      .cls-8 {
        isolation: isolate;
      }

      .cls-5 {
        fill: #eab520;
        mix-blend-mode: hard-light;
        opacity: .39;
      }

      .cls-6 {
        fill: #fff;
      }

      .cls-7 {
        fill: #80c6a5;
      }
    </style>
  </defs>
  <g class="cls-8">
    <g id="Layer_2" data-name="Layer 2">
      <g id="Blancos">
        <path class="cls-6" d="m89.26,266.09c-4.73,0-9.81-.57-15.53-1.74-4.3-.88-10.24-2.4-15.73-5.76-9-1.84-18.65-4.96-25.4-12.69-4.95-5.67-7.77-13.39-7.94-21.73-.13-6.5,1.28-12.41,2.68-17.32,1.08-3.78,2.27-7.44,3.43-10.98,1.57-4.79,3.05-9.31,4.12-13.77,1.55-6.46,1.93-11.82,1.15-16.3-.86-.62-2.5-1.5-3.76-2.19-4.8-2.59-12.06-6.51-16.58-15.08-2.57-4.87-3.44-9.64-4.14-13.48-.15-.81-.29-1.61-.46-2.41-.8-3.8-2.26-7.86-4.48-12.41-.27-.56-.55-1.12-.83-1.69-2.2-4.41-4.94-9.9-5.63-16.73-.65-6.41.75-13.08,3.92-18.78.8-1.43,1.58-2.59,2.21-3.52.04-.06.08-.12.12-.18,0-.08-.01-.17-.02-.25-.08-.83-.15-1.67-.19-2.5-.49-9.94,3.7-19.12,11.82-25.85,3.74-3.1,8.15-5.56,12.71-7.13,1.77-7.97,4.92-14.56,9.54-19.94,7.64-8.9,17.8-12.81,25.96-15.94.98-.38,1.95-.75,2.91-1.13.89-.35,1.78-.72,2.67-1.08,6.02-2.47,13.52-5.54,22.13-5.54,4.51,0,8.91.85,13.07,2.52,6.67,2.68,11.12,7.15,14.7,10.75,1.72,1.73,3.49,3.51,4.62,4.1.68.36,2.11.8,3.49,1.24,3.68,1.15,8.71,2.72,13.35,6.53,8.76,7.2,10.81,17.81,11.58,25.16,1.23,11.74.79,23.18.37,34.25-.35,9-.78,20.2-5.25,30.81-3.28,7.77-8.17,14.01-12.48,19.51-2.27,2.89-4.41,5.62-6.11,8.3-3.17,4.97-5.35,10.69-6.35,16.63.47,3.68,1.13,7.35,1.95,10.93.8,3.47,1.74,6.96,2.73,10.65,2.75,10.21,5.59,20.76,5.82,32.39.42,21.6-9.92,40.53-26.35,48.22-5.84,2.74-12.5,4.12-19.8,4.12h0Z"/>
      </g>
      <g id="Layer_1-2" data-name="Layer 1">
        <g>
          <path class="cls-4" d="m76.5,118.36c-1.7-2.07-3.61-4.04-4.73-6.47-1.31-2.84-1.43-6.05-1.66-9.16-.77-10.25-2.95-20.39-6.43-30.06-3.73-10.34-12.18-17.36-23.76-15.89-4.1.52-8.7,2.53-12.32,5.53-4.21,3.49-6.69,8-6.41,13.55.11,2.17.54,4.35.17,6.49-.57,3.3-2.62,5.22-4.16,8-1.68,3.01-2.45,6.53-2.1,9.97.48,4.76,2.93,9.05,5.03,13.35,2.47,5.07,4.52,10.38,5.67,15.9.85,4.06,1.25,8.3,3.19,11.97,4.26,8.07,13.7,8.66,19.1,15.09.8.95,1.43,1.96,1.96,3.02,0,.02.02.03.02.05.79,2.49,1.42,5.03,1.92,7.59,1.19,6.11,1.58,12.38,1.11,18.6-.11,1.41-.27,2.82-.44,4.23.39.72.84,1.4,1.42,2.01,3.69,3.83,10.08,3.35,14.9,1.1,6.57-3.07,11.69-8.79,14.84-15.32s4.44-13.84,4.65-21.08c.39-13.71-3.24-27.85-11.94-38.46Z"/>
          <path class="cls-7" d="m71.32,150.92c-1.21-1.28-2.53-2.47-3.87-3.6-2.27-1.91-4.65-3.7-6.91-5.63-1.02-.88-2.44-1.85-3.2-2.98s-1.09-2.79-1.59-4.04c-2.56-6.53-5.29-13.02-8.82-19.08s-7.92-11.7-13.4-16.07c6.42,7.13,10.79,16.71,14.08,25.72,3.29,9.01,5.4,18.41,7.39,27.8-3.53-13.18-10.87-25.33-20.89-34.59,4.45,6.56,8.87,13.18,12.21,20.37,2.89,6.22,5.14,13.06,5.31,19.96.14,5.63-.06,11.25-.04,16.88.01,5.45.39,10.93-.43,16.34-.65,4.32-2.72,8.47-2.25,12.93.08.79.38,1.74,1.16,1.89.37.07.74-.08,1.09-.23,4.63-1.94,9.29-3.89,13.54-6.59,1.97-1.25,2.78-2.27,3.8-4.32s1.67-4.5,2.4-6.78c2.36-7.4,6.19-14.52,6.53-22.29.18-3.99-.53-7.69-2.57-11.1-1-1.67-2.21-3.18-3.55-4.59Z"/>
          <path class="cls-2" d="m76.66,238.36c-4.95-4.9-12.66-5.91-18.03-10.34-5.71-4.72-7.84-12.62-7.86-20.03-.01-6,1.12-11.92,1.86-17.87.17-1.41.33-2.81.44-4.23.48-6.21.73-12.27-.47-18.38-.5-2.56-1.12-5.09-2.56-7.8,0-.02-.02-.03-.02-.05,2.34,8.42,1.5,17.44-.53,25.95-2.06,8.59-5.29,16.86-7.71,25.36-1.2,4.22-2.2,8.54-2.11,12.93.09,4.38,1.36,8.86,4.24,12.16,4.5,5.15,12.75,7.08,19.24,8.27,3.78.7,20.53,1,13.52-5.95Z"/>
          <path class="cls-3" d="m44.61,228.29c-1.96-6.58-.28-13.73,2.45-20.03,5.99-13.81,16.87-25.21,21.82-39.42,5.12-14.71,3.33-31-1.03-45.95,9.09,11.42,15.05,25.15,18.3,39.38s3.87,28.97,2.97,43.54c-.51,8.26-1.6,16.79-5.91,23.86-8.45,13.87-33.07,17.21-38.6-1.38Z"/>
          <path class="cls-1" d="m66.79,152.64c-2.91-2.11-6.27-3.79-8.39-6.69-2.91-3.97-2.89-9.31-4.46-13.98-1.63-4.86-6.03-8.39-7.94-13.27-1.87-4.78-2.51-10.05-1.73-15.12,1.22-7.89,5.66-15.22,5.58-23.21-.09-8.63-6.16-15.56-5.71-24.01s2.09-16.57,7.51-22.88c5.91-6.88,14.86-9.67,23.01-12.9s17.32-7.92,26.76-4.13c7.12,2.86,11.14,10.64,17.94,14.21,4.61,2.42,10.27,2.77,14.29,6.07,4.32,3.55,5.6,9.57,6.19,15.14,1.12,10.65.71,21.4.3,32.1-.33,8.67-.72,17.57-4.09,25.57-4.01,9.53-11.86,16.85-17.42,25.57-6.53,10.24-9.82,22.52-9.28,34.66.3,6.7,1.64,13.83-1.43,19.79-2.69,5.21-8.76,8.46-14.59,7.8-9.53-1.07-13.52-9.17-13.69-17.55-.21-10.59-4.01-20.74-12.85-27.15Z"/>
          <path class="cls-7" d="m77.59,181.38c-3.81,13.5-11.14,25.72-16.12,38.83-2.6,6.85-4.42,15.03-.37,21.15,3.35,5.05,9.7,7.08,15.63,8.3,8.64,1.77,17.98,2.47,25.97-1.27,12.34-5.78,17.98-20.72,17.71-34.35-.27-13.63-5.11-26.68-8.17-39.97-6.64-28.86-2.39-55.63,5.55-87.44-8.71,21.91-10.97,31.74-14.15,55.77-2.77-18.44-4.94-36.96-6.49-55.54-.44,9.54-.53,23.8-.97,33.34-4.77-20.92-5.77-38.92-13.68-54.21,2.35,20.48,7.07,30.35,7.05,61.43-6.36-10.74-12.72-21.48-19.08-32.23,4.81,15.62,13.96,28.67,13.59,50.32-2.15-11.74-5.92-20.51-10.5-26.81-5.26-7.24-7.87-10.59-14.85-15.75,1.5,1.93,7.61,11.77,9.18,14.32,3.4,5.52,6.72,12.55,8.69,18.74,2.17,6.83,3.44,13.95,3.75,21.11.36,8.16-.54,16.38-2.75,24.24Z"/>
          <path class="cls-5" d="m139.83,51.86c-.59-5.57-1.86-11.58-6.19-15.14-4.02-3.3-9.68-3.66-14.29-6.07-6.8-3.56-10.82-11.35-17.94-14.21-9.45-3.79-18.21.75-26.76,4.13-8.15,3.23-17.11,6.02-23.01,12.9-5.42,6.31-7.07,14.8-7.51,22.88,0,.09,0,.18,0,.27-1.36-.07-2.76-.02-4.22.16-4.1.52-8.7,2.53-12.32,5.53-4.21,3.49-6.69,8-6.41,13.55.11,2.17.54,4.35.17,6.49-.57,3.3-2.62,5.22-4.16,8-1.68,3.01-2.45,6.53-2.1,9.97.48,4.76,2.93,9.05,5.03,13.35,2.47,5.07,4.52,10.38,5.67,15.9.85,4.06,1.25,8.3,3.19,11.97,4.26,8.07,13.7,8.66,19.1,15.09.8.95,1.43,1.96,1.96,3.02,2.34,8.42,1.5,17.44-.53,25.95-2.06,8.59-5.29,16.86-7.71,25.36-1.2,4.22-2.2,8.54-2.11,12.93.09,4.38,1.36,8.86,4.24,12.16,4.5,5.15,12.75,7.08,19.24,8.27.21.04.46.08.75.11,3.5,2.89,8.29,4.3,12.84,5.23,8.64,1.77,17.98,2.47,25.97-1.27,12.34-5.78,17.98-20.72,17.71-34.35-.27-13.63-5.11-26.68-8.17-39.97-1.12-4.88-1.93-9.7-2.46-14.49,1.12-8.67,4.13-17.11,8.83-24.48,5.56-8.72,13.41-16.04,17.42-25.57,3.37-8,3.75-16.89,4.09-25.57.41-10.7.82-21.45-.3-32.1Z"/>
        </g>
      </g>
    </g>
  </g>
</svg>