<?xml version="1.0" encoding="UTF-8"?>
<svg id="Layer_2" data-name="Layer 2" xmlns="http://www.w3.org/2000/svg" xmlns:xlink="http://www.w3.org/1999/xlink" viewBox="0 0 194.45 194.11">
  <defs>
    <style>
      .cls-1 {
        fill: #d3a17b;
      }

      .cls-1, .cls-2, .cls-3, .cls-4, .cls-5, .cls-6, .cls-7, .cls-8, .cls-9, .cls-10, .cls-11, .cls-12, .cls-13, .cls-14, .cls-15, .cls-16, .cls-17, .cls-18, .cls-19, .cls-20, .cls-21, .cls-22, .cls-23, .cls-24, .cls-25, .cls-26, .cls-27, .cls-28, .cls-29, .cls-30, .cls-31, .cls-32, .cls-33, .cls-34, .cls-35, .cls-36, .cls-37, .cls-38, .cls-39, .cls-40, .cls-41, .cls-42, .cls-43, .cls-44, .cls-45, .cls-46 {
        stroke-width: 0px;
      }

      .cls-2 {
        fill: #cf986f;
      }

      .cls-3 {
        fill: #fefefe;
      }

      .cls-4 {
        fill: url(#linear-gradient);
      }

      .cls-5 {
        fill: #e2c2a9;
      }

      .cls-6 {
        fill: #ceab91;
      }

      .cls-7 {
        fill: #eedbcd;
      }

      .cls-8 {
        fill: #bd8d6a;
      }

      .cls-9 {
        fill: #ead2c0;
      }

      .cls-10 {
        fill: #ddb79a;
      }

      .cls-11 {
        fill: #d19b74;
      }

      .cls-12 {
        fill: #958170;
      }

      .cls-13 {
        fill: #c79e80;
      }

      .cls-14 {
        fill: #593a20;
      }

      .cls-15 {
        fill: #c29675;
      }

      .cls-16 {
        fill: #d8ab89;
      }

      .cls-17 {
        fill: #e4c6af;
      }

      .cls-18 {
        fill: #cba589;
      }

      .cls-19 {
        fill: #cd9268;
      }

      .cls-20 {
        fill: #b57f58;
      }

      .cls-21 {
        fill: #fff;
      }

      .cls-22 {
        fill: #f0dfd3;
      }

      .cls-23 {
        fill: #e1bea5;
      }

      .cls-24 {
        fill: #c9a286;
      }

      .cls-25 {
        fill: #cfac92;
      }

      .cls-26 {
        fill: #d4a37e;
      }

      .cls-27 {
        fill: #c09371;
      }

      .cls-28 {
        fill: #bb8a66;
      }

      .cls-29 {
        fill: #c49a7b;
      }

      .cls-30 {
        fill: #e9d0bd;
      }

      .cls-31 {
        fill: #ad7347;
      }

      .cls-32 {
        fill: #dbb294;
      }

      .cls-33 {
        fill: #cca88d;
      }

      .cls-34 {
        fill: #af754b;
      }

      .cls-35 {
        fill: #dbb192;
      }

      .cls-36 {
        fill: #e7cbb7;
      }

      .cls-37 {
        fill: #ce956b;
      }

      .cls-38 {
        fill: #cda98f;
      }

      .cls-39 {
        fill: #e8ceba;
      }

      .cls-40 {
        fill: #775d48;
      }

      .cls-41 {
        fill: #c39879;
      }

      .cls-42 {
        fill: #b27b52;
      }

      .cls-43 {
        fill: #cc9166;
      }

      .cls-44 {
        fill: #f2e4d9;
      }

      .cls-45 {
        fill: #f1e1d6;
      }

      .cls-46 {
        fill: #eedacb;
      }
    </style>
    <linearGradient id="linear-gradient" x1="93.5" y1="45.72" x2="84.27" y2="56.34" gradientUnits="userSpaceOnUse">
      <stop offset="0" stop-color="#ce956b"/>
      <stop offset="1" stop-color="#cc9166"/>
    </linearGradient>
  </defs>
  <g id="Blancos">
    <path class="cls-21" d="m191.6,73.97c-15.65-14.94-8.91-47.86-32.92-55.04-6.15-3.29-14.19-8.7-19.68-10.96-13.25.29-15.25-5.29-26.47-6.86-7.79,1.7-14.48,3.49-22.45,4.3-3.98-3.37-9.08-5.42-14.56-5.42-6.82,0-13.35,3.26-17.29,8.67-8.46-.44-17.57,4.21-22.18,11.28-16.09,2.93-14.68,21.06-20.11,32.21-4.64,10.53-11.3,21.4-15.28,32.02-2.64,7.55,3.53,18.25,1.42,26.22.54,8.96,6.38,15.25,7.18,24.22,5.72,7.9,6.34,18.67,14.38,24.8,1.18,5.76,6.43,9.43,10.69,13.5,3.64,8.94,11.95,14.72,21.18,14.72,7.46-1.62,11.83,6.61,19.64,5.71,11.12-.99,22.2-.53,33.34.75,11.9-.95,38.34-15.6,46.85-24.62,9.98-5.98,22.39-13,22.31-26.31,5.14-10.09,9.84-21.39,7.42-32.77,6.34-10.05,13.45-24.51,6.52-36.44Z"/>
  </g>
  <g id="Productos">
    <g>
      <path class="cls-44" d="m84.09,61.11l-.85.57c-1.63-.76-2.88.27-3.84,1.42-1.02-2.28-1.27-2.98-3.84-3.56,1.3-.76,2.59-1.8,3.14-3.24s-.82-3.05-1.41-4.42c-.56-1.31-1.05-2.67-1.17-4.08-.08-.96.03-1.99.63-2.74s1.81-1.05,2.55-.43c.32.27.5.66.68,1.03,1.41,3.02,2.85,6.15,2.96,9.48.04,1.28-.22,2.67,0,3.94.04.22.89,2.22,1.16,2.04Z"/>
      <path class="cls-41" d="m105.4,41.42c-.64-.29-1.14-.73-1.51-1.7-1.31,1.64-3.17,2.84-5.22,3.31s-4.27.17-6.11-.84c-1.14-.63-2.17-1.56-2.63-2.78-.3-.79-.35-1.65-.35-2.49,0-1.1.09-2.24.57-3.23.79-1.61,2.47-2.55,4.05-3.39.77-.41,1.55-.82,2.4-1,1.14-.24,2.32-.04,3.43.31,1.2.38,2.45.9,3.48,1.63.85.6,1.35.56,1.95-.34s1.11-1.81,1.96-2.58c1.74-1.57,4.07-2.51,6.42-2.5.5,0,1,.05,1.46.23.36.15.68.37.97.64,1.03.94,1.63,2.3,1.73,3.68s-.25,2.79-.91,4.01c1.28.53,2.04,1.87,2.37,3.22.17.7.25,1.43.1,2.14-.3,1.39-1.47,2.48-2.8,2.99-1.33.51-2.8.53-4.21.41-1.88-.16-3.7-.58-5.5-1.16-.63-.2-1.18-.34-1.65-.55Z"/>
      <path class="cls-6" d="m73.12,45.79c-.48-.05-.95-.13-1.43-.23-.65-.14-1.3-.34-1.83-.74-.91-.7-1.3-1.92-1.27-3.07.1-3.62,2.67-6.92,5.79-8.55,2.17-1.13,4.71-1.54,7.12-1.13.88.15,1.78.42,2.44,1.03,1.13,1.04,1.25,2.76,1.13,4.29-.18,2.13-.75,4.34-2.23,5.89-1.6,1.68-4,2.34-6.31,2.54-1.14.1-2.28.1-3.41-.03Z"/>
      <path class="cls-34" d="m87.88,38.35c-1.26.37-1.78.37-3.06.24-9.44-.99-4.15-14.02,4.53-13.02,1.76.2,3.3,1.33,4.15,2.87,1.04,1.88.86,3.86-.2,5.7-1.31,2.28-2.93,3.48-5.43,4.22Z"/>
      <path class="cls-31" d="m102.4,31.71c-1.83.17-3.94-1.11-5.27-2.08-1.99-1.45-3.73-3.55-4.17-6.02-.55-3.03,1.76-4.67,4.6-4.24,1.8.27,3.35,1.86,4.73,2.9,1.45,1.1,4.07,3.62,3.72,5.66-.1.57-.38,1.1-.69,1.59-.39.63-.85,1.23-1.45,1.66-.45.32-.95.49-1.46.53Z"/>
      <path class="cls-31" d="m107.86,30.14c-.08-.27-.11-.56-.13-.85-.34-3.63-.67-7.82,1.42-11.04.95-1.47,2.58-2.56,4.37-1.98,3.42,1.13,4.34,5.8,2.83,8.65-1.31,2.48-3.57,4.78-6.13,5.96-.77.36-1.77.49-2.23-.41-.06-.11-.1-.22-.13-.34Z"/>
      <g>
        <path class="cls-32" d="m58.34,70.65c-.56,1.32-.47,1.47-.26,2.83-.08,2.68-1.91,5.48-1.42,7.93-.3.23-.69,1-1.06.96-2.24-4.92-6.88-3.67-7.05-4.08,2.01-1.54,4.05-3.2,4.65-5.77,4.85,1.86,1.5-6.48-3.68-9.09.14-.05,2.28-1.33,2.54-1.54,3.41,2.08,5.63,4.73,6.28,8.75Z"/>
        <path class="cls-32" d="m62.54,66.01c-.25.15-.88.64-1.17.86-1.23-3.71-4.85-5.03-6.09-8.96.12-.26.44-1.13.53-1.44l.99-.25c.05.25,2.47,4.13,2.74,4.4,5.29,5.18,12.09.79,7.56-3.9.24-.06,1.52-.44,1.59-.48,1.66.4,4.18,2.65,3.15,4.58-2.16,4.05-10.14,1.45-9.31,5.2Z"/>
        <path class="cls-39" d="m61.38,66.87c-1.59,1.28-2.2,1.8-3.04,3.78-.65-4.03-2.87-6.68-6.28-8.75,1.71-1.34,2.32-1.99,3.23-3.99,1.24,3.94,4.86,5.26,6.09,8.96Z"/>
        <path class="cls-39" d="m74.73,63.99c-.62.9-.94,2.3-1.14,3.38-2.41-3.56-7.65-3.39-11.05-1.36-.83-3.75,7.15-1.15,9.31-5.2,1.03-1.93-1.49-4.17-3.15-4.58.88-.54,1.54-1.44,2.1-2.32-.04,2.1,1.68,3.27,2.38,5.22.55,1.55-.11,4.44,1.55,4.86Z"/>
        <path class="cls-34" d="m70.8,53.91c-.56.88-1.22,1.78-2.1,2.32-.07.04-1.35.42-1.59.48-3.33.83-7.03-1.75-9.55-3.65-.19-.02-.78,3-.75,3.16l-.99.25c.07-.21.13-3.19.69-4.37-.56-.57-1.96-1.93-2.24-2.41-.16-.27-.3-.5-.44-.78-1.29-2.52.49-5.27,2.47-6.97.06-.05.54-.35.97-.65,2.44.83,4.6.69,7.15,1.86.72.33,1.13.45,1.86.91,3.64,2.31,7.29,5.45,4.52,9.85Z"/>
        <g>
          <path class="cls-2" d="m55.82,56.47c-.1.31-.41,1.18-.53,1.44-.9,2-1.52,2.65-3.23,3.99-.26.21-2.4,1.49-2.54,1.54-.54.18-1.27.06-1.8.29-1.31-.18-4.07-.84-5.27-.54-1.44-3.12-1.97-8.72,1.07-10.93,1.28-.94,5.6.46,8.57-1.84.15,1.58,1.19-.27,2.18-.71.28.48,1.68,1.84,2.24,2.41-.56,1.17-.62,4.16-.69,4.37Z"/>
          <path class="cls-36" d="m54.27,49.7c-.99.44-2.03,2.29-2.18.71.6-.46.87-1.34,1.74-1.5.15.28.28.51.44.78Z"/>
        </g>
        <path class="cls-39" d="m56.81,56.22c-.03-.16.56-3.18.75-3.16,2.52,1.9,6.22,4.48,9.55,3.65,4.52,4.69-2.28,9.08-7.56,3.9-.27-.27-2.69-4.14-2.74-4.4Z"/>
      </g>
      <path class="cls-31" d="m68.43,61.11c.95,1.17,1.7,1.08,1.29,2.65-.36,1.39-1.08,2.45-2.15,3.42-.97.88-2.06,1.66-3.32,2.03s-2.7.25-3.74-.54c-1.51-1.15-1.76-3.33-1.61-5.22.06-.83.18-1.67.51-2.44.58-1.36,1.77-2.37,3.09-3.03,1.02-.51,3.32-1.69,4.08-.72.37.47.44,1.52.72,2.09.31.64.69,1.23,1.14,1.78Z"/>
      <path class="cls-41" d="m80.96,153.89c-1.39,2.88-.14,2.51,1.71.85,4.48.11,8.64,1.62,12.52,3.84-3.26,4.75.47,8.21-1.99,7.83-3.73-.64-4.97,0-7.68,2.28-2.19.75-7.17-1.31-8.82-2.85.15-.46.04-2.02.28-2.7l-.57.14c-1.93,1.13-5.43,1.9-6.69-.28-.53-.18-1.58.36-2.13.57-.98-.56-2.29.31-3.42.57-.29-1.5-.67-3.83-1.42-3.7,3.01-.49,4.59-5.06,4.55-7.68,2.04-2.7,3.79-4.17,6.83-5.69,1.06,2.92,4.13,5.49,6.83,6.83Z"/>
      <path class="cls-2" d="m156.66,58.55c5.92-2.21,6.06-9.75,9.68-3.27,2.03,3.63,2.63,8.63,0,12.1-2.09.08-3.62,2.3-5.41,3.13l-.57-.28c-1.09-5.63-4.64-8.77-10.25-6.26-1.99-1.32-4.83-2.94-7.12-3.13l-2.56-3.7c.1-1.12.46-2.58.28-3.7l1.71-1.71c5.29,4.06,10.55-1.19,14.23,6.83Z"/>
      <path class="cls-34" d="m83.38,22.97c0,.68-.11,1.35-.34,2.02-.83,2.38-3.21,4.14-5.73,4.23.14,1.91.17,3.87-.32,5.72-.49,1.86-1.57,3.62-3.22,4.6-.62.37-1.33.62-2.05.56-2.47-.22-3.64-4.32-3.76-6.34-.07-1.24.19-2.46.75-3.57.17-.33,2.42-3.28,2.56-3.09-.74-1-1.39-2.09-1.8-3.27-1.44-4.12.97-8.32,5.4-8.8,4.27-.46,8.5,3.69,8.5,7.94Z"/>
      <path class="cls-46" d="m65.02,130.84l.28.57c-6.8,5.13-1.94,5.48-1.71,6.12.1.28-.93,3.27-.57,5.98-.2.37-2.9-2.1-8.25-1.14,5.35,6.77-1.12,2.8-1.85,11.81-2.51.24-2.66-5.32-5.83-6.83q.28-1.14.57-2.28c2.85-.11,5.68-2.41,6.83-4.98-1.55-2.75-1.85-4.95-3.7-7.68-.01-.02.39-.29.28-.43,4.33-5.48,8.72-2.33,13.95-1.14Z"/>
      <path class="cls-2" d="m152.68,133.97c1.9-.36,6.35,2.09,7.68,3.42,5.82,5.77-1.14,12.34-1.85,12.52-3.33.84-7.93-5.91-10.39-7.4.19-.75.82-2.11.85-2.85,1.34-1.03,1.33-5.25,3.7-5.69Z"/>
      <path class="cls-2" d="m40.54,101.24c.04.64-1.84,4.09-1.99,4.27-.04.04-.73.33-.85.85-3.06.82-5.27,2.75-6.4,5.69-.6.03-.49-7.94-7.54-7.97.05-1.26.35-2.84.85-3.98,1.69-3.85,3.96-4.25,7.68-4.55.16-.01,1.51,1.08,2.85-.85,1.09,1.76,2.15,4.86,5.41,6.55Z"/>
      <path class="cls-2" d="m114.82,168.69c.35.16,2.35,2.09,3.42,2.56-3.89,12.71-18.19,7.06-18.5,3.27-.09-1.17,2.76-4.1,2.85-5.55,3,.06,5.31-1.35,7.12-1.42,1.19-.04,3.99.63,5.12,1.14Z"/>
      <path class="cls-34" d="m93.19,166.42c1.29.22,1.76.45,2.85,1.14,8.04,5.06-2.48,14.41-9.82,9.68-2.5-1.61-2.83-4.46-2.13-7.12l.14-.85c1.6.52,1.2-.51,1.28-.57,2.71-2.28,3.96-2.92,7.68-2.28Z"/>
      <path class="cls-41" d="m171.46,90.71c-.08,0-.05-.48-1.28-.85-.73-.22-.68.3-.71.28-1.69-.71-3.39-2.61-3.42-4.55-.02-1.94,2.07-5.6,3.84-6.55,9.64-5.14,15.31,13.31,1.57,11.67Z"/>
      <path class="cls-2" d="m37.94,64s.09.08.14.12c1.15,1.03,1.78,3.4,1.96,4.89.11.97-.03,2-.58,2.8-.61.88-1.59,1.29-2.41,1.9-1.03.78-2,1.53-3.13,2.18-.94.54-1.91,1.09-2.98,1.27-1.97.35-4.06-.63-5.25-2.24-2.79-3.77-.98-11.69,4.04-12.67,1.53-.3,3-.06,4.46.4,1.21.38,2.73.54,3.76,1.36Z"/>
      <path class="cls-2" d="m160.36,46.88c-1.68-2.59-7.3-1.32-8.97,1.14-.4-.28.51-5.34-2.13-9.39,1.98-2.22,1.11-2.68,1.14-2.85.02-.09.74.11.57-1.71,6.36-3.96,14.25,8.09,9.39,12.81Z"/>
      <path class="cls-2" d="m46.29,41.74c0,1.53-.45,2.96-1.57,4.2-.7.79-1.56,1.42-2.45,1.97s-1.88,1.16-2.94,1.25c-1.05.09-2.01-.07-2.92-.58-5.37-2.98-.68-17.12,6.55-13.66,1.16.56,1.95,1.78,2.48,2.91.3.65.53,1.32.66,2.02.12.64.19,1.27.19,1.88Z"/>
      <path class="cls-38" d="m169.47,115.75c3.17,2.36.67,9.45-3.42,9.68-1.55-2.27-5.57-2.17-7.97-1.71-.54-3.2-.42-7.03,1.14-9.96.26-.49.91-.9,1.14-1.42,3.66,2.67,8.25,2.78,9.11,3.42Z"/>
      <path class="cls-34" d="m149.26,38.63c2.64,4.05,1.74,9.11,2.13,9.39,1.66-2.46,7.29-3.73,8.97-1.14,2.28,3.53-1.15,9.11-3.7,11.67-3.68-8.02-8.94-2.77-14.23-6.83-.24-.19-.25-.25-.28-.28,6.07,2.02,5.77,2.86,8.82-2.42.06-6.63-2.13-9.42-2.28-10.67.12.03.55.26.57.28Z"/>
      <path class="cls-31" d="m85.51,168.69c-.08.06.32,1.09-1.28.57l-.14.85c-3.64,9.8-13.3,10.7-12.24,3.56.28-1.85,4.56-6.97,4.84-7.83,1.65,1.54,6.63,3.6,8.82,2.85Z"/>
      <path class="cls-31" d="m76.4,163.28c-4.5,14.77-14.12,12.84-12.24,3.98.31-1.44,2.05-3.18,3.42-3.7.56-.21,1.61-.75,2.13-.57,1.26,2.19,4.76,1.41,6.69.28Z"/>
      <g>
        <path class="cls-6" d="m116.82,148.48c-.75,1.61-.82,2.22-.85,3.98-1.04.03-.81-4.34-3.56-4.84-6.93-1.25.19,8.88,3.56,7.68.02.11.97,1.73,1.14,1.99-4.45,2.41.22,1.06,1.14,1.14.82.07,4.16.8,4.84,1.14,4.83,2.43,2.8,9.46-.57,12.24-1.77,0-2.36.28-4.27-.57-1.07-.48-3.06-2.4-3.42-2.56-1.39-2.9-1.69-6.31-.28-9.25-.34-.47-.64.22-.85.14-.88-.34-1.71-.74-2.56-1.14-1.56-.72-3.33-1.97-5.12-2.28-.86-2.07-1.63-3.68-.85-5.98.33-.98,1.74-1.96,2.28-2.85,1.9-.12,4.28-2.47,9.39,1.14Z"/>
        <path class="cls-44" d="m133.04,163.57c.77,3.92-5.64,7.99-8.68,8.54-1.49.27-1.76-.29-1.85-.28,3.37-2.78,5.4-9.81.57-12.24,2.13-.15,4.2-.4,6.12-1.42.41.16.55,4.07,3.84,5.41Z"/>
      </g>
      <g>
        <path class="cls-31" d="m158.94,103.52c2.47.2,5.02.9,7.12,2.28,3.27,2.15,5.42,6.22,3.42,9.96-.86-.64-5.45-.74-9.11-3.42-.38-.28-2.42-2.07-2.56-2.28-1.39-1.96-1.78-4.19-1.71-6.55.94.05,1.91-.08,2.85,0Z"/>
        <g>
          <path class="cls-1" d="m169.75,91.85c.46,0,1-.06,1.42,0,1.77.26,3.35,1.65,4.84,2.56-.59.07.04.3,0,.57-.5,3.4-.81,4.11-3.13,6.55l-5.69-2.42c3.74-5.2,9.37.5,7.12-3.42-1.3-2.26-12.56,1.67-15.37,7.83-.94-.08-1.9.05-2.85,0,.09-3.18,1.6-6.07,3.98-8.25.22-.2,1.61-1.37,1.71-1.42,1.52-.92,6.1-2.02,7.97-1.99Z"/>
          <path class="cls-6" d="m172.88,101.52c-2.82,2.96-3.49,2.49-6.83,4.27-2.09-1.37-4.65-2.08-7.12-2.28,2.81-6.15,14.06-10.09,15.37-7.83,2.26,3.92-3.38-1.78-7.12,3.42l5.69,2.42Z"/>
        </g>
      </g>
      <path class="cls-46" d="m166.05,85.59c.02,1.95,1.72,3.84,3.42,4.55l.28,1.71c-1.87-.03-6.45,1.07-7.97,1.99.03-7.1.78-4.64,2.28-7.12.16-.26.84-1.61.85-1.71l1.14.57Z"/>
      <g>
        <path class="cls-39" d="m25.74,82.74c-2.25,1.77-2.78,5.32-2.56,7.97l-7.97-2.85c.44-1.71,1.12-3.59,1.99-5.12,2.89-.45,5.92-2.41,8.54,0Z"/>
        <path class="cls-6" d="m27.73,81.6c-.67.28-1.42.69-1.99,1.14-2.62-2.41-5.64-.45-8.54,0,2.88-5.07,7.51-7.74,10.53-1.14Z"/>
        <path class="cls-32" d="m23.18,90.71c.85.63,1.56,2.02.42,3.01-.4.35-.94.49-1.46.6-1.17.26-2.43.46-3.53,0-.38-.16-.73-.39-1.06-.63-1-.74-2.15-1.63-2.43-2.86-.31-1.38.1-2.97.1-2.97,0,0,3.98,1.42,7.97,2.85Z"/>
      </g>
      <path class="cls-25" d="m70.14,39.48c.75.44.8.83.85.85-.14.18-2.3,1.41-3.42,2.99-.78,1.1-1.8,4.73-2.85,5.27-1.13.58-1.89.41-1.14-.85,1.82-1.46,4.33-6.83,4.27-9.11,1.32.86,2.17.79,2.28.85Z"/>
      <path class="cls-44" d="m67.58,163.57c-1.36.52-3.11,2.26-3.42,3.7l-2.28-.57c.05-.56.08-1.82,0-2.28.85.17,1.49-.1,2.28-.28,1.12-.26,2.44-1.13,3.42-.57Z"/>
      <path class="cls-20" d="m171.46,90.71l-.28,1.14c-.43-.06-.97,0-1.42,0l-.28-1.71s-.02-.5.71-.28c1.24.37,1.2.84,1.28.85Z"/>
      <path class="cls-46" d="m78.96,48.59c-.29,1.14-1.63,1.8-1.14,2.85-1.23.36-7.19,2.92-7.54,3.13-1.17.73.26,2.9-3.56,1.14h-.28c.6-.8,3.09-5.41,2.56-6.12-1.3-.29-2.66-.11-3.98-.14l-.28-.85c1.05-.54,2.07-4.16,2.85-5.27,1.12-1.58,3.28-2.81,3.42-2.99,3.81,1.78,9.46,2.41,7.97,8.25Z"/>
      <path class="cls-39" d="m117.39,38.91c-.54.04-1.56.71-1.99,1.14l-8.82-2.56c3.64-2.28,7.46-4.32,10.53-7.4-.65,2.94-.07,5.9.28,8.82Z"/>
      <path class="cls-44" d="m104.29,38.34c-2.08,3.83,4.97,4,5.98,6.69.27.73.29,1.41-.63,1.04-1.06-.43-1.87-.7-3.06-.45-.73.15-1.44.42-2.17.58-2.12.48-4.43.11-6.4,1.03-.53.25-1.72.98-2.29.52-.33-.26-.79-.77-.85-1.19-.04-.32.04-.64.13-.95.36-1.28.81-2.7,1.61-3.78.89-1.19,2.3-1.52,3.62-2.04,1.34-.53,2.69-1.06,4.07-1.46Z"/>
      <path class="cls-39" d="m102.59,137.1c3.26.05,4.94.49,7.97,1.71-.77,3.68,3.39,7.48,6.55,8.82-.03.04-.01.26-.28.85-5.12-3.61-7.5-1.26-9.39-1.14-1.54.1-3.1.03-4.55-.57-3.11-1.28-6.57-7.36-1.99-9.39,1.04-.04,1.41-.29,1.71-.28Z"/>
      <path class="cls-32" d="m133.89,142.51c.47,1.36.64,1.41,1.71,2.28,1.74,2.04,2.26,5.35,4.27,6.83-.07.37.16,1.2-.14,1.42-4.96-2.14-7.57,1.9-7.97,1.71.46-2.49.86-5.09-.43-7.4,4.84-1.88-3.24-5.81-8.82-4.27.07-.13.8-2.52.85-2.85,3.92-.75,7.34-.27,10.53,2.28Z"/>
      <path class="cls-32" d="m157.8,110.06c.14.2,2.18,2,2.56,2.28-.23.52-.88.93-1.14,1.42-9.08.5-9.76-3.33-11.1,2.56-1.54.1-4.19.98-5.12,2.28-3.4.2-7.94-.9-8.54-4.84.71-.15,1.62-.28,2.28-.57,1.51,4.34,6.79,3,8.25-.85,2.78.51,5.46-.63,6.83-3.13,1.21.87,4.72,1.5,5.98.85Z"/>
      <path class="cls-39" d="m159.22,113.76c-1.56,2.93-1.68,6.76-1.14,9.96-.66.13-1.31.88-1.99,1,.28-5.2-2.65-8.73-7.97-8.4,1.34-5.9,2.02-2.06,11.1-2.56Z"/>
      <path class="cls-32" d="m133.89,136.25c-.09.28-.23,1.06-.28,1.42-3.4-1.92-6.97-.47-10.53-2.56-.09-.27-.43-1.13-.57-1.42l.57-.85c.21.15,4.6,1.41,4.98,1.42,7.39.29,9.49-7.53,2.99-7.97.14-.21.83-1.34.85-1.42,1.5-.81,4.88-.84,5.41,1.28,1.11,4.45-6.55,7.88-3.42,10.1Z"/>
      <path class="cls-32" d="m133.32,114.05c-1.94,3.5,2.25,9.29,6.12,8.54.82-.16,2.58-2.18,2.42-.85-.27,1.25-.44,3.62-.28,4.84-1.51.81-2.96-1.78-4.41-2.56-1.82-.98-3.88-.69-5.27-2.28-.9-5.12-5.71-5-9.96-4.27.7-1.55,5.44-.13,5.41-1.42,1.53.47,3.1.03,3.7-1.71.11.02,1.78-.24,2.28-.28Z"/>
      <path class="cls-46" d="m143,118.6c-.44.61-.98,2.38-1.14,3.13.16-1.33-1.6.69-2.42.85-3.87.75-8.06-5.04-6.12-8.54.87-.08.94-.24,1.14-.28.6,3.93,5.14,5.04,8.54,4.84Z"/>
      <path class="cls-39" d="m133.61,137.67c-.32,2.02-.42,2.81.28,4.84-3.19-2.55-6.61-3.02-10.53-2.28.37-2.14.39-3.03-.28-5.12,3.56,2.09,7.13.64,10.53,2.56Z"/>
      <path class="cls-39" d="m141.58,126.57c.14,1.09.85,2.34,1.42,3.27-4.17-1.03-7.95,2.62-9.11,6.4-3.13-2.22,4.53-5.65,3.42-10.1-.53-2.13-3.91-2.09-5.41-1.28.29-.99.18-2.1,0-3.13,1.38,1.58,3.44,1.3,5.27,2.28,1.45.78,2.9,3.37,4.41,2.56Z"/>
      <path class="cls-10" d="m115.96,152.47c-.01.83-.11,2.34,0,2.85-3.37,1.19-10.49-8.93-3.56-7.68,2.75.5,2.52,4.86,3.56,4.84Z"/>
      <path class="cls-32" d="m131.33,147.35c-1.69-3.04-6.84-4.03-9.96-2.85.24-.53.86-.92,1.14-1.42,5.59-1.54,13.67,2.39,8.82,4.27Z"/>
      <path class="cls-14" d="m139.87,151.62c-2.01-1.48-2.53-4.79-4.27-6.83,2.04,1.66,3.02,1.5,5.41,2.13-.65,1.55-.83,3.07-1.14,4.7Z"/>
      <g>
        <path class="cls-31" d="m148.12,116.32c5.32-.33,8.25,3.19,7.97,8.4.68-.11,1.33-.87,1.99-1,2.4-.46,6.42-.56,7.97,1.71,2.61,3.83-.16,12.15-5.69,11.95-1.34-1.33-5.78-3.77-7.68-3.42-.44-3.54-2.43.75-5.69-1.28-.19.34,2.19,3.06,1.99,6.97-.04.73-.66,2.1-.85,2.85-.16.63-.49,1.05-.85,1.57,9.11,3.1,5.22,14.46-3.84,12.38-.77.5.53,1.64-.14,3.84-.81,2.64-5.92,5.03-10.25,3.27-3.29-1.34-3.43-5.25-3.84-5.41-1.91,1.03-3.99,1.28-6.12,1.42-.68-.34-4.02-1.07-4.84-1.14-.51-.22-.85-.68-1.14-1.14-.17-.27-1.11-1.88-1.14-1.99-.11-.5-.01-2.02,0-2.85.03-1.76.11-2.37.85-3.98.27-.59.26-.82.28-.85.69-1.02,3.17-2.38,4.27-3.13,3.12-1.18,8.27-.19,9.96,2.85,1.29,2.31.88,4.91.43,7.4.4.19,3.01-3.85,7.97-1.71.31-.22.07-1.05.14-1.42.31-1.62.49-3.15,1.14-4.7-2.38-.64-3.37-.47-5.41-2.13-1.06-.87-1.24-.92-1.71-2.28-.7-2.03-.6-2.82-.28-4.84.06-.36.2-1.14.28-1.42,1.16-3.79,4.93-7.43,9.11-6.4-.58-.94-1.28-2.19-1.42-3.27-.16-1.22.02-3.59.28-4.84.16-.75.7-2.52,1.14-3.13.93-1.29,3.58-2.18,5.12-2.28Z"/>
        <g>
          <path class="cls-46" d="m152.68,133.97c-2.37.44-2.36,4.66-3.7,5.69.2-3.91-2.18-6.64-1.99-6.97,3.27,2.03,5.25-2.26,5.69,1.28Z"/>
          <path class="cls-32" d="m140.3,137.95c2.12-.55,2.89,2.55,1.42,3.13-2.22.89-3.25-2.66-1.42-3.13Z"/>
          <path class="cls-40" d="m154.53,129.99c1.55,4.68,2.97,5.27-2.13,2.13q1.07-1.07,2.13-2.13Z"/>
          <path class="cls-3" d="m122.37,151.9c1.15-.01,2.1,2.36.57,2.85-2.38.76-2.28-2.83-.57-2.85Z"/>
          <path class="cls-14" d="m118.24,158.45c-.92-.08-5.59,1.27-1.14-1.14.29.46.62.91,1.14,1.14Z"/>
          <g>
            <path class="cls-18" d="m146.27,124.58c.05-.03,1.1-.04,1.14,0,1.59,1.51-4.21,1.55-1.14,0Z"/>
            <g>
              <path class="cls-22" d="m159.37,130.55c.98-.05.41,2.01.28,1.99-1.51-.21-.91-1.96-.28-1.99Z"/>
              <path class="cls-45" d="m157.66,127.42c.17,0,.74.64.14,1-.62.37-.7-1-.14-1Z"/>
            </g>
          </g>
        </g>
      </g>
      <path class="cls-6" d="m100.88,137.39c-4.58,2.03-1.12,8.11,1.99,9.39-.48.99-.67,2.15-1.14,3.13-.51,1.08-1.37,2.12-1.99,3.13.03-.25-.07-.26-.28-.28-4.04-.48-7.63-2.2-10.25-5.41,2.13-.99,3.54-3.53,3.98-3.98,1.11-1.15,3.88-2.12,4.55-6.26,1.03.36,2.07.32,3.13.28Z"/>
      <path class="cls-42" d="m71,123.72c-2.5,3.64-11.11,2.79-12.81-1.28-1.02-2.46.79-2.83.85-2.99l4.27-.85c6.38,2.57,7.04,4.94,7.68,5.12Z"/>
      <path class="cls-39" d="m86.93,133.4c-1.51,2.46.31,8.2,2.56,9.39l-1.99,1.14c-1.33-1.72-4.95-3.3-7.12-3.13-.5-1.7-1.73-4.78-3.13-5.69,3.32.54,6.82.31,9.68-1.71Z"/>
      <path class="cls-46" d="m45.1,116.61c.26,2.21,3.39,3.82,3.42,4.13-2.58,2.71-1.71,5.16-1.99,7.12-.03.24-.56.11-.57.14-1.22,1.35-1.22-3.76-5.12-5.41.24-1.41-2.08-.56-2.28-1.99,2.37-.21,5.26-1.49,5.98-3.98.17-.01.56.03.57,0Z"/>
      <path class="cls-46" d="m67.3,114.62c2.09.63,3.27,2.57,3.98,4.41.18,1.04-.3,1.46-.28,1.57.17,1.05.06,2.09.57,3.13-.18-.02-.42.04-.57,0-.64-.18-1.31-2.55-7.68-5.12-.12-.05-1-.14-1.57-.28-.73-.75,4.42-2.66,5.55-3.7Z"/>
      <path class="cls-13" d="m77.26,135.11c1.4.91,2.63,3.99,3.13,5.69-1.4.11-3.98,1.65-4.98,2.85-.15-3.99-.39-6.29-2.7-9.68,1.61.47,3.04.15,4.55,1.14Z"/>
      <path class="cls-46" d="m75.55,126.29c-1.66,1.89-2.49,4.31-2.56,6.83-1.84-1.24-3.48-1.88-5.69-2.13,2.35-1.12,4.15-3.48,4.27-6.12,1.32.35,3.43.2,3.98,1.42Z"/>
      <path class="cls-39" d="m62.74,160.44c.76-.13,1.13,2.2,1.42,3.7-.79.18-1.43.45-2.28.28-.74-4.11-5.88-4.47-7.12-8.25.03,0-.04-.41.43-.28.44.12,3.43,5.22,7.54,4.55Z"/>
      <g>
        <path class="cls-6" d="m54.77,156.17c1.23,3.78,6.37,4.14,7.12,8.25.08.45.05,1.72,0,2.28-.62,7.22-10.47,8.39-13.66.57,2.77-1.69,1.46-5.24,3.98-7.12,2.5,1.39,5.06,2.68,2.28-1.57-.3-.45-1.87-1.54-1.99-1.57.7-.94,1.23-.86,2.28-.85Z"/>
        <path class="cls-10" d="m52.21,160.15c-2.53,1.87-1.22,5.43-3.98,7.12-.93-2.28-1.29-4.58-.57-7.12.1-.35.92-1.14,1.14-1.42.89-1,.9.03,3.42,1.42Z"/>
        <path class="cls-30" d="m52.5,157.02c.12.03,1.7,1.11,1.99,1.57,2.78,4.24.23,2.95-2.28,1.57-2.52-1.39-2.53-2.43-3.42-1.42,1.11-1.42,1.62-2.16,3.7-1.71Z"/>
      </g>
      <path class="cls-44" d="m93.19,143.36c-.44.46-1.85,2.99-3.98,3.98-1.54-1.89-1.58-3.26-1.71-3.42l1.99-1.14c.99.53,2.59.62,3.7.57Z"/>
      <path class="cls-16" d="m71.56,120.59c-.1,1.89,3.92,3.77,5.41,4.27-.08.06-1.28,1.26-1.42,1.42-.56-1.22-2.66-1.07-3.98-1.42.02-.38-.01-.76,0-1.14-.51-1.04-.4-2.08-.57-3.13h.57Z"/>
      <path class="cls-46" d="m59.33,118.03c-.79.32-2.28,1.43-2.42,1.42-.18,0-.98-1.2-1.57-1.42.07-.03.94-.66,1.14-.85.82.05,2.32.18,2.85.85Z"/>
      <path class="cls-12" d="m82.09,154.46l.57.28c-1.85,1.66-3.1,2.03-1.71-.85.41.2.6.65,1.14.57Z"/>
      <g>
        <path class="cls-31" d="m55.34,118.03c.59.22,1.39,1.41,1.57,1.42.14,0,1.63-1.11,2.42-1.42.1.13-.26,1.36-.28,1.42-.07.16-1.88.53-.85,2.99,1.69,4.07,10.3,4.92,12.81,1.28.15.04.39-.02.57,0-.01.38.02.76,0,1.14-.12,2.64-1.92,5-4.27,6.12,2.21.26,3.85.89,5.69,2.13-.02.62-.3.66-.28.85,2.31,3.38,2.55,5.69,2.7,9.68,1-1.2,3.58-2.74,4.98-2.85,2.16-.17,5.79,1.41,7.12,3.13.12.16.17,1.52,1.71,3.42,2.62,3.21,6.21,4.93,10.25,5.41q-1.92,2.7-3.84,5.41c-4.6-2.15-8.3-4.14-13.52-3.7-.53.08-.72-.36-1.14-.57-2.7-1.34-5.77-3.91-6.83-6.83-1.23-3.39,1.78.24-6.4,0-7.48-4.76-.51-.65-.43,5.69.03,2.62-1.54,7.2-4.55,7.68-4.11.67-7.1-4.43-7.54-4.55-.47-.13-.4.28-.43.28-1.05,0-1.58-.08-2.28.85-2.08-.46-2.59.29-3.7,1.71-.22.28-1.04,1.07-1.14,1.42-16.2.05-9.67-17.13-.57-12.81,3.18,1.51,3.33,7.07,5.83,6.83.73-9.01,7.2-5.04,1.85-11.81,5.36-.96,8.06,1.51,8.25,1.14-.37-2.71.67-5.69.57-5.98-.23-.64-5.09-.99,1.71-6.12.03-.02.28-.03.57-.43-.18-.28-.6-.08-.85-.14-5.22-1.19-9.61-4.34-13.95,1.14-.76-.99-2.55-1.99-3.7-2.56-.04-.02-.27-.62-.43-.85l-.71.28c.14-.48-.35-.66-.28-.85,0-.03.53.1.57-.14.29-1.96-.59-4.4,1.99-7.12-.03-.3-3.16-1.91-3.42-4.13.85-1.64.07.13,2.7,1.14,1.79.69,5.81.97,7.54.28Z"/>
        <path class="cls-46" d="m74.13,147.06c-3.04,1.52-4.79,3-6.83,5.69-.08-6.34-7.05-10.45.43-5.69,8.18.24,5.18-3.39,6.4,0Z"/>
        <path class="cls-26" d="m68.86,135.39c2.34-.65,2.03,2.52-.28,1.99-.82-.19-.74-1.71.28-1.99Z"/>
        <path class="cls-32" d="m55.77,151.62c1.6.13.18,3.43-.85,2.56-.66-.55.49-2.59.85-2.56Z"/>
        <path class="cls-19" d="m65.3,131.41l-.28-.57c.26.06.68-.14.85.14-.29.4-.54.41-.57.43Z"/>
      </g>
      <path class="cls-6" d="m74.7,73.63c-3.56,1.06-4.41,7.98-4.55,11.1-.28.57-.57,1.14-.85,1.71-1.45.08,1.32-3.76,0-7.83-.67-2.07-1.63-2.35-2.85-2.99-4.2-2.22-7.29-1.15-10.82,1.71-2.99-.43-5.23-1.31-6.55-4.27,2.3-.99,3.6-3.3,5.41-4.84,2.85-1.09,5.78-.84,8.82-1.14,1.07-.11,2.2.08,3.27,0l.43-.57c2.4,6.19,9.04,4.66,7.68,7.12Z"/>
      <path class="cls-46" d="m55.63,77.33c-4.61,3.73-5.97,8.73-.85,12.67.12.61-.54.39-.57.43-1.24-.56-2.53-.25-3.7-1.14-1.8-1.36-2.51-6.13-11.38-4.84,3.32-2.44,4.26-6.69,3.98-10.67.33-.47,2.65.71,5.98-.71,1.31,2.96,3.55,3.84,6.55,4.27Z"/>
      <path class="cls-6" d="m50.5,89.29c.2,1.58-3.17,3.83-.85,3.98-.3.26-.72,1.36-1,1.42-.18-.31-.12-.34-.43-.57-3.39-2.53-6.23-4.28-10.96-3.42-1.85.34-2.32,2-3.7,1.99-.21-.17.26-3.75.14-5.41,1.23-.49,2.27-1.34,3.42-1.99.64-.37,1.39-.41,1.99-.85,8.88-1.29,9.59,3.48,11.38,4.84Z"/>
      <path class="cls-46" d="m56.76,63.96c1.39,3.04,3.7,2.61,6.55,3.13-3.04.3-5.97.05-8.82,1.14.42-.55.25-1.09.28-1.14.11-.15,2.2-.69,1.14-3.13.27-.04.63.06.85,0Z"/>
      <path class="cls-40" d="m33.43,84.45c1.12.64,2.48.58,3.7.85-1.15.65-2.18,1.5-3.42,1.99-.15-2.16-1.36-3.07-.28-2.85Z"/>
      <g>
        <path class="cls-31" d="m49.33,42.14c1.87.73,3.49,2.28,4.3,4.03,1.32,2.85.98,6.67-.83,9.28-.95,1.37-2.33,2.35-3.98,2.66-1.55.3-5.23.1-5.23.1,0,0-.5,2.57-1.64,3.33.87.5,1.47-.34,2.28-.43,4.3-.47,7.97,3.13,7.97,3.13,0,0,2.29,1.51,2.02,3.39-.44,3.02-4.53,5.62-7.28,6.06-.26.04-3.85.04-3.85.09.27,3.98-.66,8.23-3.98,10.67-.6.44-1.35.49-1.99.85-1.22-.27-2.58-.22-3.7-.85-.08-.05-.42-2.17-1.14-.43-.21.52,2.66,3.88-.28,10.82-8.1.17-5.01,6.17-11.67,4.13-3.44-1.47-7.8-6.04-1.71-7.12.59.17,2.89.18,5.27,1.42.53-.3-.67-2.09-.71-2.56-.22-2.64.31-6.2,2.56-7.97.58-.45,1.32-.86,1.99-1.14.42-.18,1.26.23,1.71-.14.21-.26-1.71-2.74,0-6.4,1.29-2.76,5.95-5.87,9.11-5.41l1.71-5.55c-.04-.11-1.93-.04-2.28-.14-2.31-.71-4.96-2.35-8.25-1.71-2.25-3.6,2.58-8.02,5.83-8.54,3.69-.59,5.38,1.31,5.55.43.05-.27-.27-.88-.33-1.16-.43-1.84-.32-3.89.16-5.72.67-2.59,2.49-5.07,5.28-5.5,1.05-.16,2.12,0,3.11.38Z"/>
        <g>
          <path class="cls-34" d="m28.16,83.59c4.71-.63,3.22,15.25-1.28,8.68-2.12-3.1-.65-8.42,1.28-8.68Z"/>
          <path class="cls-46" d="m38.55,69.65q-.28-2.85-.57-5.69c.34.11,2.24.03,2.28.14l-1.71,5.55Z"/>
          <path class="cls-3" d="m51.56,63.97c.24.07.46.23.59.46.31.54.03,1.51-.54,1.79-.55.26-1.24-.1-1.52-.59-.33-.57.06-1.35.63-1.61.26-.12.57-.14.85-.05Z"/>
          <g>
            <path class="cls-3" d="m34.14,76.76c2.56-.83,2.18,3.75,0,3.13-1.11-.32-1.04-2.79,0-3.13Z"/>
            <path class="cls-8" d="m36.13,71.36c2.67.83-1.12,1.83-2.28,2.56q1.14-1.28,2.28-2.56Z"/>
          </g>
          <g>
            <path class="cls-3" d="m47.94,48.02c1.03,2.42-.94,1.86.28,2.42l-2.28,1c-1.75-1.43-.35-4.43,1.99-3.42Z"/>
            <path class="cls-19" d="m45.95,51.43l2.28-1c-1.22-.56.75,0-.28-2.42,2.63,1.14.67,5.59-1.99,3.42Z"/>
            <path class="cls-26" d="m46.38,44.6c1.27.31-.21,2.51-.71,1-.2-.6.65-1.01.71-1Z"/>
          </g>
        </g>
      </g>
      <path class="cls-23" d="m45.95,104.09c-1.02.66-.78,3.88-1.42,6.4,1-.83,1.31-1.65,2.85-1.28.08.48,1.13,2.01,1.14,2.13.1,3.24-3.01-2.22-4.27-.14-1-2.95-3.56-4.49-6.55-4.84.13-.52.81-.81.85-.85,1.08,2.05,2.55-2.31,3.98-3.42.15.06,2.03.19,2.7.28.63.41.25.97.71,1.71Z"/>
      <g>
        <path class="cls-31" d="m23.75,104.09c7.05.03,6.94,8,7.54,7.97,1.13-2.94,3.34-4.87,6.4-5.69,2.99.34,5.54,1.89,6.55,4.84.54,1.58.74,3.8.28,5.41-.71,2.49-3.6,3.77-5.98,3.98-7.5.68-3.56-3.08-3.56,6.26.82-3.87,1.14-6.25,5.83-4.27,3.9,1.65,3.9,6.75,5.12,5.41-.07.19.42.37.28.85-1.76,1.27-2.52,2.39-3.42,4.27-.35.73-1.39,3.32-1.42,3.7-.44.07-2.01-.92-2.28-.43-.13.23,1.69,4.56,2.28,4.55.85-.02-1.27,5.86-1.87,6.46-1.21,1.2-2.77,1.61-4.42,1.25-4.34-.95-7.23-7.89-5.09-11.7,3.77-6.7,9.28,1.1,4.7-6.12-11.06,8.02-16.28-6.55-8.11-14.09-12.91.86-11.47-12.71-2.85-12.67Z"/>
        <path class="cls-3" d="m38.55,120.59c.2,1.44,2.51.58,2.28,1.99-4.69-1.98-5.01.4-5.83,4.27,0-9.34-3.94-5.58,3.56-6.26Z"/>
        <path class="cls-3" d="m35.28,115.75c1.12-.28,2.1,1.75,1.14,2.28-1.72.93-2.74-1.88-1.14-2.28Z"/>
        <path class="cls-3" d="m30.15,113.48c1.47-.15.8,3.02-.85,1.99-.37-.23.66-1.97.85-1.99Z"/>
        <path class="cls-24" d="m35.56,109.78c.36.16-.02,1.02-.14,1.28-.92,2.01-3.28,1.71.14-1.28Z"/>
      </g>
      <path class="cls-34" d="m125.92,40.9c.44,1.16.41,3.97,1.14,3.13.42.25,1.15.03,1.71,0-3.17,1.18-2.15,3.19-2.56,3.98-.28.54-1.13,2.26-1.42,2.56-.33.34-.98.72-1.42.85-1.28.39-2.67.27-3.98.28-2.42-.97-4.76-1.27-5.69-4.27.43-2.45-.61-5.05,1.71-7.4.43-.43,1.45-1.1,1.99-1.14,2.07-.15,5.28,2.36,8.54,1.99Z"/>
      <g>
        <path class="cls-2" d="m138.35,31.82c-.14,1.72-.65,3.54-1.82,4.89-1.42,1.64-3.7,2.36-5.69,3-1.59.51-3.2.98-4.87,1.12-2.2.18-3.94-.55-5.95-1.3-.17-.06-2.65-.78-2.63-.62-.36-2.92-.94-5.89-.28-8.82.3-.3,2.01-2.44,2.56-3.13,4.85-2.42,9.33-6.23,15.23-4.55,1.01.51,1.95.72,2.7,1.65.58.72.87,1.6.99,2.5.19,1.47,0,2.89-.15,4.34-.03.31-.06.61-.08.92Z"/>
        <path class="cls-16" d="m134.18,29.23c-1.46-.66-4.16,1.12-5.55,0-1.26-1.01.57-2.77-.71-3.42,3.63-2.66,10.94-2.01,6.26,3.42Z"/>
        <path class="cls-2" d="m134.18,29.23c-4.9,5.69-11.75.61-6.26-3.42,1.28.65-.55,2.4.71,3.42,1.39,1.12,4.09-.66,5.55,0Z"/>
      </g>
      <path class="cls-20" d="m130.19,38.91q.28,2.28.57,4.55c-.56-.01-1.33.54-1.99.57-.55.03-1.29.25-1.71,0l1.71-4.27c.08-.03-.04-.34,1.42-.85Z"/>
      <path class="cls-3" d="m128.77,39.76l-1.71,4.27c-.73.84-.69-1.97-1.14-3.13.15-.02,2.19-.92,2.85-1.14Z"/>
      <path class="cls-11" d="m143,60.83c2.28.19,5.13,1.81,7.12,3.13.13.27-.55,1.48,0,3.98-2.46,2.8-2.6,5.88.28,1.71.26,1.4,2.01,3.02,1.14,5.69-1.17.78-1.4,1.12-1.71,2.28l-1.14.28c-.19-2.21-2.97-4.03-4.55-2.28-.17-.09-1.08-.55-1.14-.57.84-1.13,1.45-4.21.85-5.27-.4-.71-1.59.47-3.56-.71-.91-.55-2.03-3.08-2.42-3.42,1.41-1.3,1.89-3.05,2.28-4.84.94.06,1.91-.08,2.85,0Z"/>
      <path class="cls-40" d="m143,60.83c-.94-.08-1.91.06-2.85,0,.13-.62.2-2.69.28-3.7l2.56,3.7Z"/>
      <path class="cls-3" d="m142.15,51.43s.04.1.28.28l-1.71,1.71c-.08-.49-.61-1.45-.85-1.99.06-.05.52-.92,1.14-1.14.31.51.74.76,1.14,1.14Z"/>
      <path class="cls-46" d="m155.24,81.89c-1.18.49-2.48.21-3.7.57-1.68-1.5-2.29-2.68-1.71-4.84.31-1.15.54-1.5,1.71-2.28,4.06,2.64,7.7-1,7.4,1-.05.34-3.36,1.16-3.7,5.55Z"/>
      <g>
        <path class="cls-31" d="m160.36,70.22c.06.29-.13.67.14.85.43-.32.39-.55.43-.57,1.79-.83,3.32-3.05,5.41-3.13,7.6-.29,6.71,13.22-2.85,10.96,1.53,1.33,1.76,4.87,1.42,6.69-.02.09-.69,1.44-.85,1.71-2.65,1.56-.38-2.02-7.68-3.98-.57-.15-.93-.24-1.14-.85.34-4.39,3.65-5.21,3.7-5.55.3-2-3.34,1.64-7.4-1,.87-2.67-.88-4.29-1.14-5.69-.1-.55-.17-1.18-.28-1.71-.55-2.51.13-3.71,0-3.98,5.61-2.51,9.16.63,10.25,6.26Z"/>
        <path class="cls-33" d="m160.93,70.5s0,.25-.43.57c-.28-.19-.09-.56-.14-.85l.57.28Z"/>
        <path class="cls-26" d="m153.96,69.08c2.08-.67,2.64,2.46,1.14,2.85-1.47.38-2.65-2.36-1.14-2.85Z"/>
        <path class="cls-46" d="m160.79,72.21c-.07,1.66.89,4.1.57,4.27-.28.14-4.17-.11-.57-4.27Z"/>
      </g>
      <path class="cls-14" d="m150.12,67.94c.12.53.18,1.16.28,1.71-2.88,4.17-2.75,1.1-.28-1.71Z"/>
      <g>
        <path class="cls-31" d="m150.97,34.07c.17,1.81-.55,1.62-.57,1.71-.83-.47-1.8,1.71-1.71,2.56.14,1.25,2.34,4.04,2.28,10.67-.92,1.58-1.96,4.27-4.2,3.93-1.24-.19-2.46-.76-3.64-1.17-1.9-.66-2.27-2.24-2.29-4.15-.01-1.89.15-3.78.48-5.64.03-.16.05-.35-.07-.45-.07-.06-.17-.07-.26-.09-.98-.16-1.84-.8-2.42-1.61s-.91-1.77-1.12-2.74c-.35-1.6-.42-3.55.49-4.99,2.92-4.63,12.45-4.25,13.04,1.98Z"/>
        <path class="cls-45" d="m143.71,32.08c2.07-.49,2.76,2.49,1.14,2.85-1.73.38-2.92-2.42-1.14-2.85Z"/>
        <path class="cls-30" d="m146.99,46.88c-.14,4.13-3.03,2.98-2.28-.85l2.28.85Z"/>
        <path class="cls-3" d="m146.99,46.88l-2.28-.85c.43-2.18,2.4-2.79,2.28.85Z"/>
        <path class="cls-3" d="m150.4,35.78c-.03.16.84.62-1.14,2.85-.02-.03-.45-.25-.57-.28-.1-.85.88-3.03,1.71-2.56Z"/>
      </g>
      <path class="cls-46" d="m105.15,150.19c-.78,2.3,0,3.91.85,5.98-2.14-.37-4.69-.16-6.83.28-.53.11-2.33,1.21-2.56.71,1.34-1.16,2.21-2.64,3.13-4.13.62-1.01,1.48-2.05,1.99-3.13q1.71.14,3.42.28Z"/>
      <path class="cls-46" d="m114.82,168.69c-1.14-.51-3.94-1.18-5.12-1.14q1.99-3.98,3.98-7.97c.21.08.52-.61.85-.14-1.4,2.94-1.1,6.35.28,9.25Z"/>
      <path class="cls-32" d="m107.42,147.35c-.54.88-1.95,1.87-2.28,2.85q-1.71-.14-3.42-.28c.47-.99.65-2.15,1.14-3.13,1.46.6,3.01.67,4.55.57Z"/>
      <g>
        <g>
          <path class="cls-31" d="m61.6,33.22c-.53.63-4.39,3.28-5.27,3.7-.69.33-1.36-.03-1.42,0-.25.1-.11.56-.14.57-1.59.55-2.11.92-3.98.85-.19,0-.39.03-.57,0-5.83-.92-4.02-11.23,3.27-13.95,8.93-3.33,11.12,5.23,8.11,8.82Z"/>
          <path class="cls-3" d="m59.18,26.96c1.68-.52,2.11,2.18.85,2.56-1.68.52-2.11-2.18-.85-2.56Z"/>
        </g>
        <g>
          <path class="cls-31" d="m67.86,38.63c.06,2.28-2.45,7.65-4.27,9.11-5.53,4.44-12.81-1.05-8.82-10.25.03-.01-.11-.47.14-.57.07-.03.73.33,1.42,0,.88-.42,4.74-3.07,5.27-3.7,3.09-.35,6.17,2.29,6.26,5.41Z"/>
          <path class="cls-37" d="m63.6,39.2c-1.22,1.66-3.38-.18-2.28-1.71l2.28,1.71Z"/>
          <path class="cls-9" d="m63.6,39.2l-2.28-1.71c1.13-1.57,3.38.2,2.28,1.71Z"/>
          <path class="cls-22" d="m61.46,34.07c.22-.1,1.57-.01,1.57.14,0,.32-2.21.14-1.57-.14Z"/>
        </g>
      </g>
      <path class="cls-39" d="m42.53,102.09c-1.43,1.11-2.9,5.46-3.98,3.42.16-.18,2.04-3.63,1.99-4.27.51.26,1.41.6,1.99.85Z"/>
      <g>
        <path class="cls-30" d="m47.37,129.42c-1.74.95-2.97,3.12-4.55,3.7.9-1.88,1.65-3,3.42-4.27l.71-.28c.15.23.38.83.43.85Z"/>
        <g>
          <path class="cls-6" d="m51.07,131.98c.11.14-.3.41-.28.43,1.85,2.73,2.15,4.93,3.7,7.68-1.15,2.57-3.98,4.87-6.83,4.98-4.42.17-6.62-4.34-6.26-8.25.04-.38,1.07-2.97,1.42-3.7,1.59-.58,2.81-2.75,4.55-3.7,1.15.57,2.94,1.57,3.7,2.56Z"/>
          <path class="cls-1" d="m48.37,133.4c3.49-.89,3.26,5.44-.28,4.27-1.52-.5-1.28-3.87.28-4.27Z"/>
        </g>
      </g>
      <g>
        <path class="cls-24" d="m51.93,108.92c1.06.18,4.92.06,5.98-.28.09-.03.22.04.28,0,.67,2.15-.18,6.99-1.71,8.54-.2.2-1.07.83-1.14.85-1.74.69-5.76.4-7.54-.28-2.64-1.01-1.85-2.78-2.7-1.14-.01.03-.4-.01-.57,0,.46-1.61.25-3.83-.28-5.41,1.26-2.08,4.37,3.38,4.27.14,0-.12-1.06-1.65-1.14-2.13-.12-.67.28-.54.28-.57,1.69,1.11,2.88,1.98,4.27.28Z"/>
        <path class="cls-37" d="m46.52,104.94c.17.25,0,1.07,1.71,2.28-.8.24-.51.87-.57,1.42,0,.03-.4-.1-.28.57-1.54-.37-1.84.45-2.85,1.28.64-2.53.41-5.75,1.42-6.4.23.36.33.51.57.85Z"/>
      </g>
      <g>
        <path class="cls-31" d="m33.43,84.45c-1.08-.23.14.68.28,2.85.11,1.66-.35,5.23-.14,5.41,1.38,0,1.85-1.65,3.7-1.99,4.73-.87,7.57.89,10.96,3.42v2.85c-.25.44-.74.15-.57,1.14-1.49.37-1.95,4.95-.28,5.41.19,1.2-2.12-.93-.85,1.42-.24-.34-.34-.49-.57-.85-.46-.74-.08-1.3-.71-1.71-.67-.1-2.55-.22-2.7-.28-.59-.25-1.49-.59-1.99-.85-3.26-1.69-4.32-4.79-5.41-6.55-1.14-1.84-2.32-1.42-2.85.85-3.72.31-6,.71-7.68,4.55-1.55-.3-2.79-.51-4.27-1.14,6.66,2.04,3.57-3.95,11.67-4.13,2.94-6.94.07-10.3.28-10.82.72-1.75,1.05.38,1.14.43Z"/>
        <path class="cls-16" d="m35.13,94.69c-1.34,1.94-2.68.84-2.85.85.53-2.28,1.71-2.69,2.85-.85Z"/>
        <path class="cls-8" d="m38.41,91.85c6.97-.97,7.96,4.3,2.28,2.56-.95-.29-3.09-2.07-2.28-2.56Z"/>
        <path class="cls-3" d="m47.66,98.11q-.14,2.7-.28,5.41c-1.66-.46-1.2-5.04.28-5.41Z"/>
      </g>
      <path class="cls-39" d="m160.08,95.26c-2.38,2.18-3.89,5.07-3.98,8.25-.07,2.36.32,4.59,1.71,6.55-1.26.65-4.77.01-5.98-.85,2.45-4.47,1.04-11.08-4.27-12.52-.02-.64.55-.92.85-1.42,4.95,1.4,6.62-2.4,11.67,0Z"/>
      <g>
        <path class="cls-31" d="m99.74,153.04c-.92,1.49-1.79,2.96-3.13,4.13.24.5,2.04-.6,2.56-.71.21,2.65-.36,1.24-.57,1.42-5.31,4.59-1.78,6.65.28,5.98.33.54.82.92,1.42,1.14.76.27.78.76,1.71.28.14,3.38,6.78-2.1,7.68-3.56.68-1.1.16-2.64,1.42-3.27.86.4,1.68.79,2.56,1.14q-1.99,3.98-3.98,7.97c-1.8.07-4.12,1.48-7.12,1.42-3.75-.08-5.61-2.05-6.55-1.42-1.09-.68-1.55-.92-2.85-1.14,2.46.38-1.27-3.07,1.99-7.83-3.89-2.22-8.04-3.73-12.52-3.84l-.57-.28c5.22-.44,8.92,1.55,13.52,3.7q1.92-2.7,3.84-5.41c.21.03.32.04.28.28Z"/>
        <path class="cls-42" d="m106,156.17c1.8.31,3.56,1.56,5.12,2.28-1.26.63-.74,2.17-1.42,3.27-.9,1.46-7.54,6.94-7.68,3.56,3.12-1.61-2.82-5-1.71-.28-.6-.21-1.1-.6-1.42-1.14,2.24-.73.07-4.33-.28-5.98.21-.18.78,1.22.57-1.42,2.14-.45,4.69-.65,6.83-.28Z"/>
        <path class="cls-42" d="m98.89,163.85c-2.06.67-5.59-1.38-.28-5.98.35,1.64,2.52,5.25.28,5.98Z"/>
        <path class="cls-3" d="m102.02,165.28c-.93.48-.95-.02-1.71-.28-1.12-4.72,4.82-1.32,1.71.28Z"/>
      </g>
      <path class="cls-16" d="m98.89,48.87c-.14.15-2.06.93-2.28,2.28-.9-.47-1.9-.56-2.85-.85.6-.85.17-1.01-.28-1.71.64-.57,1.22-.96,1.71-1.71,2.24-1.4,6.38-.97,3.7,1.99Z"/>
      <path class="cls-17" d="m99.74,57.69q-1.71,3.7-3.42,7.4c-.81-.61-1.57-.91-2.56-1.14,2.32-2.2,3.9-3.18,5.12-6.26.28,0,.57-.01.85,0Z"/>
      <path class="cls-39" d="m99.17,53.43c-.87-.92-1.36-1.66-2.56-2.28.21-1.35,2.14-2.13,2.28-2.28-.16,1.55.11,3.03.28,4.55Z"/>
      <path class="cls-4" d="m93.56,40.1c2.24,1.35,3.2,3.82,1.91,6.21-.09.17-.18.41-.28.57-.48.75-1.07,1.14-1.71,1.71-.17.15-1.95.91-1.71,1.28.66.17,1.33.22,1.99.43.95.3,1.94.39,2.85.85,1.2.62,1.69,1.36,2.56,2.28.07.6.86,1.09.57,3.27-.97.28-.74.71-.85,1-1.22,3.08-2.8,4.07-5.12,6.26-1.04-.24-2.06-.43-3.13-.28-2.02-.94-4.49-.79-6.55-2.56-.91-.79-5.66-8.78-4.55-10.39.43-.63,1.26-.65,1.46-1.53.41-1.78-1.62-3.12-1.43-4.97.07-.68.31-1.33.6-1.95,1.09-2.32,3.38-3.74,5.88-4.1,2.74-.39,5.2.55,7.51,1.94Z"/>
      <path class="cls-11" d="m90.49,53.14c4.06-1.18,2.54,7.36-.85,5.69-2.56-1.26-.06-5.43.85-5.69Z"/>
      <path class="cls-46" d="m93.76,50.3c-.66-.21-1.33-.26-1.99-.43-.24-.37,1.54-1.13,1.71-1.28.46.69.88.86.28,1.71Z"/>
      <path class="cls-46" d="m105.43,58.26c.09.02.99.61,1.71.71-.89,2.77-1.41,5.78-1.14,8.68.02.19-.03.39,0,.57l-5.41,3.42c-.27-1.23-3.18-5.72-4.27-6.55q1.71-3.7,3.42-7.4c.71.03,5.42.49,5.69.57Z"/>
      <path class="cls-46" d="m113.69,47.45c.94,2.99,3.27,3.3,5.69,4.27,2.17.87,2.37.6-.85,5.69-1.06-2.03-4.51-4.3-6.83-4.27,2.45-2.71,1.37-5.21,1.42-5.55.04-.24.56-.11.57-.14Z"/>
      <g>
        <path class="cls-6" d="m106.57,37.49l8.82,2.56c-2.32,2.35-1.28,4.95-1.71,7.4,0,.03-.53-.1-.57.14-.06.34,1.03,2.84-1.42,5.55-3.11.04-5.18,2.43-6.26,5.12-.28-.07-4.98-.54-5.69-.57-.28-.01-.57,0-.85,0,.11-.29-.11-.72.85-1,.11-.81.09-1.63-.21-2.4-.21-.53-.35-.91-.43-1.49-.28-1.91-.84-3.93-.04-5.8.58-1.36,1.8-2.32,3.08-2.99.7-.36,1.33-.65,2.13-.63.85.02,1.67.3,2.45.63.24.1,4.72,4.1,3.56,1-1.01-2.69-8.06-2.86-5.98-6.69.53-.15,1.06-.74,2.28-.85Z"/>
        <path class="cls-1" d="m103.01,48.3c3.54-.85,3.29,3.45.57,3.7-2.74.25-2.61-3.21-.57-3.7Z"/>
      </g>
      <path class="cls-39" d="m84.09,61.11c2.05,1.78,4.53,1.63,6.55,2.56-8.02,1.06-8.02,14.12-.85,16.51-1.23,1.06-3.54-2.25-3.84-2.28-1.03-.09-.79,2.22-1.71,1.71-1.02-3.42-6.05-7.01-9.53-5.98,1.35-2.46-5.28-.92-7.68-7.12.09-.35.34-.59.57-.85,2.87,5.75,7.32,6.55,13.23,7.4.65-.31.26-2.71,1-4.7.9-2.42,5.21-4.91,1.42-6.69l.85-.57Z"/>
      <path class="cls-16" d="m77.83,51.43c2.24,3.4,1.08,6.16-2.28,8.11,2.57.58,2.82,1.28,3.84,3.56.97-1.15,2.21-2.19,3.84-1.42,3.79,1.78-.52,4.26-1.42,6.69-.74,1.98-.35,4.38-1,4.7-5.91-.85-10.37-1.65-13.23-7.4.32-.36.84-1.82,2.56-3.13.14-.1,2.95-.85,2.99-1.71l-4.7.28c-1.13-1.4-1.67-2.79-1.99-4.55.02-.04-.04-.43.28-.85,3.81,1.76,2.38-.41,3.56-1.14.35-.21,6.31-2.77,7.54-3.13Z"/>
      <path class="cls-34" d="m131.9,121.73c.18,1.03.29,2.14,0,3.13-.02.08-.71,1.22-.85,1.42-1.91,2.85-6.39,3.42-9.53,3.7-.16.11,1.43,2.75,1.57,2.85l-.57.85c-.09-.2-2.05-2.45-2.42-3.7-.8-.04-2.75-.12-3.27-.28-.3-.1-.56-.17-.85-.28-2.65-1-3.17-4.23-2.85-6.83,0-.07.17-.62.28-1.14,2.37-1.02,3.88-2.57,6.55-3.42.75-.24,1.14-.42,1.99-.57,4.25-.73,9.06-.85,9.96,4.27Z"/>
      <path class="cls-24" d="m113.12,122.59c-.33,2.6.2,5.83,2.85,6.83-.54.7-.15,1.54-.28,2.28-.67,3.7-4.8,5.56-5.12,7.12-3.02-1.22-4.7-1.66-7.97-1.71-3.32-4.81-2.8-9.76,2.85-12.24,1.8.36,4.58-.06,6.12-1.14.93-.65.73-1.8,1.57-1.14Z"/>
      <g>
        <path class="cls-2" d="m122.51,133.69c.13.29.48,1.15.57,1.42.68,2.09.65,2.98.28,5.12-.06.33-.78,2.72-.85,2.85-.28.5-.9.89-1.14,1.42-1.09.75-3.58,2.11-4.27,3.13-3.16-1.34-7.31-5.14-6.55-8.82.32-1.55,4.46-3.42,5.12-7.12,1.17,1.07.7-1,1.14-1.99.53.17,2.48.24,3.27.28.37,1.25,2.33,3.5,2.42,3.7Z"/>
        <path class="cls-36" d="m116.82,129.7c-.44.99.03,3.06-1.14,1.99.13-.74-.25-1.57.28-2.28.3.11.55.19.85.28Z"/>
      </g>
      <path class="cls-32" d="m100.31,119.17c.45,2.03,2.98,5.26,5.12,5.69-5.65,2.48-6.16,7.43-2.85,12.24-.3,0-.67.25-1.71.28-1.06.04-2.1.07-3.13-.28.79-4.82-2.59-8.5-7.4-8.82.2-1.08-.24-1.88-.57-2.85,2.04,1.06,14.6,7.08,10.25.71-2.06-3.01-5.28-3.39-6.26-4.7.38-.14.76-.41,1.14-.57,1.12-.46,2.34-1.48,5.41-1.71Z"/>
      <path class="cls-23" d="m144.99,112.34c-1.47,3.85-6.74,5.2-8.25.85,1.83-.82,3.39-2.3,3.84-4.27,1.07,1.16,2.76,3.11,4.41,3.42Z"/>
      <path class="cls-39" d="m123.08,132.83c-.13-.1-1.72-2.73-1.57-2.85,3.14-.28,7.62-.85,9.53-3.7,6.5.44,4.41,8.26-2.99,7.97-.38-.02-4.77-1.27-4.98-1.42Z"/>
      <path class="cls-16" d="m125.92,110.06c-.14,2.38-1.28,5.14,1.42,5.98.04,1.29-4.71-.13-5.41,1.42-.85.15-1.24.33-1.99.57-.57-5.22,5.47-1.62,4.55-7.4.08-.01.33-.65,1.42-.57Z"/>
      <path class="cls-14" d="m131.05,114.33c-.6,1.74-2.17,2.18-3.7,1.71-2.7-.83-1.57-3.6-1.42-5.98,1.53,1.6,2.67,3.92,5.12,4.27Z"/>
      <path class="cls-16" d="m105.15,102.66c1.82,1.23,9.42,3.91,4.84,4.55-5.6-.39-9.89,3.77-9.96,9.39h-2.85c1.07-5.77-2.16-6.71-2.7-6.55-.83.25-.24.88-.43,1.14l-2.56-2.13c.19-.59,9.03.22,8.54-6.4.5-2.7,3.52.71,5.12,0Z"/>
      <path class="cls-46" d="m87.79,109.49c-2.67-.33-6.19,2.37-7.12,4.84l-7.12,2.85c-1.64-1.81-2.15-3.79-1.42-6.26,4.59,3.53,10.6-.63,10.67-5.98l4.98,4.55Z"/>
      <path class="cls-46" d="m80.1,118.6c.35,2.17,2.37,3.65,4.27,4.41-2.58.15-5.2.36-7.4,1.85-1.48-.5-5.5-2.37-5.41-4.27.06-1.18,1.9-2.12,2.85-2.28,1.88-.31,3.81.49,5.69.28Z"/>
      <path class="cls-46" d="m89.78,125.43c-.3-.86-.69-1.5-1.14-2.28,2.34-.52,3.09-.99,5.12-1.71.99,1.31,4.2,1.69,6.26,4.7,4.36,6.37-8.21.35-10.25-.71Z"/>
      <path class="cls-39" d="m80.67,114.33c-.52,1.4-.81,2.78-.57,4.27-1.89.2-3.81-.59-5.69-.28-.24-.38-.56-.81-.85-1.14l7.12-2.85Z"/>
      <path class="cls-11" d="m88.64,123.15c.45.77.84,1.42,1.14,2.28.33.96.77,1.76.57,2.85-3.81,4.07.46-.8-4.27-4.55-.69-.95,1.7-.38,2.56-.57Z"/>
      <path class="cls-44" d="m100.03,116.61c0,.26.23,2.33.28,2.56-3.07.22-4.29,1.25-5.41,1.71,1.39-1.46,1.91-2.26,2.28-4.27h2.85Z"/>
      <g>
        <path class="cls-34" d="m87.79,109.49c.68.39,6.05,2,6.26,1.71.18-.25-.4-.89.43-1.14.54-.16,3.77.77,2.7,6.55-.37,2.01-.89,2.81-2.28,4.27-.38.16-.75.43-1.14.57-2.03.72-2.78,1.18-5.12,1.71-.86.19-3.25-.38-2.56.57-.59.65,1.19,1.33,1.99,4.13.27.96-.63,2.48.85,2.85-.38.51-1.58.65-1.42,1.57.03.18-.01.38,0,.57-.21.18-.28.36-.57.57-2.85,2.02-6.36,2.25-9.68,1.71-1.52-.99-2.94-.67-4.55-1.14-.02-.2.27-.23.28-.85.08-2.53.9-4.94,2.56-6.83.15-.17,1.34-1.37,1.42-1.42,2.2-1.49,4.82-1.7,7.4-1.85-1.9-.76-3.92-2.24-4.27-4.41-.24-1.48.05-2.87.57-4.27.92-2.47,4.45-5.16,7.12-4.84Z"/>
        <path class="cls-3" d="m86.79,116.32c1.91-.65,2.49,2.1,1.14,2.56-1.91.65-2.49-2.1-1.14-2.56Z"/>
      </g>
      <path class="cls-44" d="m71,86.16c-2.85,2.42-4.69,5.78-3.42,9.68q-1.57,3.56-3.13,7.12c-2.16-.03-3.54,1.09-3.7.71,2.38-3.54,2.57-8.3.28-11.95.33-.39,5.48.21,8.25-5.27.29-.57.57-1.14.85-1.71.92-.04.92.67.85,1.42Z"/>
      <path class="cls-39" d="m72.42,99.82c-3.06,3.01-2.44,5.77-2.7,5.98-1.61-1.8-2.7-2.81-5.27-2.85q1.57-3.56,3.13-7.12c.52,1.59,3.25,3.63,4.84,3.98Z"/>
      <path class="cls-6" d="m70.43,108.07c-.18.83,1.19,2.45,1.71,2.85-.73,2.47-.21,4.45,1.42,6.26.3.33.61.76.85,1.14-.95.15-2.79,1.1-2.85,2.28h-.57c-.02-.11.46-.53.28-1.57-.71-1.84-1.9-3.79-3.98-4.41,1.64-1.52,2.78-4.13,2.56-6.4l.57-.14Z"/>
      <g>
        <path class="cls-31" d="m69.29,86.44c-2.77,5.47-7.93,4.87-8.25,5.27,2.28,3.65,2.1,8.41-.28,11.95.16.38,1.54-.74,3.7-.71,2.56.03,3.66,1.05,5.27,2.85.27-.2-.36-2.97,2.7-5.98,2.61.59,4.09.07,6.4-1.14,1.45.21,3.49,7.52-2.56,10.82-.7.38-1.86,0-2.28.28-.47.31.11,3.25-3.56-1.71l-.57.14c.22,2.27-.92,4.88-2.56,6.4-1.13,1.04-6.28,2.95-5.55,3.7.56.14,1.45.24,1.57.28l-4.27.85c.03-.07.39-1.29.28-1.42-.53-.67-2.03-.8-2.85-.85,1.53-1.55,2.38-6.39,1.71-8.54,1.93-.99.28-2.88-.28,0-1.06.35-4.92.47-5.98.28-.22-.04-3.38-1.48-3.7-1.71-1.7-1.2-1.53-2.03-1.71-2.28,1.5,2.8,5.56,2.99,8.11,1.71,6.19-3.11,8.39-12.62,1.57-16.08.1-1.08,6.69,1.91,10.53-3.7,2.22-3.25,1.21-7.87-.28-11.24,1.21.64,2.18.92,2.85,2.99,1.32,4.07-1.45,7.91,0,7.83Z"/>
        <g>
          <path class="cls-10" d="m51.93,108.92c-1.39,1.7-2.58.83-4.27-.28.06-.56-.23-1.18.57-1.42.32.23,3.48,1.67,3.7,1.71Z"/>
          <g>
            <path class="cls-26" d="m72.56,102.95c-.75,3.69,2.33,4.07.85,4.55-1.38.46-2.51-2.83-.85-4.55Z"/>
            <path class="cls-27" d="m75.41,104.37c1.39-.04.31,1.61-.57,1.42-.8-.17.09-1.41.57-1.42Z"/>
          </g>
          <g>
            <path class="cls-3" d="m58.19,108.64c-.07.04-.19-.03-.28,0,.57-2.88,2.21-.99.28,0Z"/>
            <path class="cls-22" d="m60.89,106.08c.51.19-.51,1.32-.85,1.14-.38-.2.72-1.19.85-1.14Z"/>
          </g>
        </g>
      </g>
      <path class="cls-46" d="m116.25,77.05c-1.65,2.02-4.3,2.12-6.55,3.13-6.53-4.24-13.99-.17-14.8,5.12-2.66-1.19-6.15-1.19-7.97.85-3.03.29-4.79,2.94-7.68,2.85-.01-.03-.53-.22-.57-.43,12.23-2.87,2.33-16.9-3.84-14.09-2.52,1.15-2.95,7.86-.71,9.82-.96.73-2.22,1.07-3.13,1.85.07-.76.06-1.47-.85-1.42.14-3.12.99-10.04,4.55-11.1,3.48-1.03,8.52,2.56,9.53,5.98.92.51.68-1.79,1.71-1.71.3.03,2.61,3.34,3.84,2.28,5.38,1.79,11.42-.22,11.1-6.83l5.69-3.13c.46,1.15,2.72,3.7,3.84,4.27,4.98,2.51,4.65-1.38,5.83,2.56Z"/>
      <path class="cls-32" d="m54.2,90.42c-.53.69-1.12.8-1.42,1.14-.54-.91-1.94.67-3.13,1.71-2.32-.15,1.05-2.41.85-3.98,1.17.89,2.46.58,3.7,1.14Z"/>
      <g>
        <path class="cls-46" d="m128.77,53.14c2.13,2.69,2.84,6.03,2.56,9.39-1.57.43-2.94.63-4.27,1.71-.91-1.11-3.43-.2-4.84,0-.69-.63-1.09-.53-1.14-.57-.74-.65-1.29-1.96-1.71-2.85,1.59-.65,5.38-8.28,3.98-9.39.44-.13,1.09-.51,1.42-.85,1.19.63,2.89,2.18,3.98,2.56Z"/>
        <path class="cls-44" d="m123.36,51.43c1.39,1.11-2.4,8.74-3.98,9.39-.47-.99-.48-2.7-.85-3.42,3.22-5.09,3.03-4.82.85-5.69,1.31-.01,2.71.11,3.98-.28Z"/>
      </g>
      <path class="cls-6" d="m138.89,44.15c-.05.06-.1.13-.14.19-.15.2-.3.4-.51.54-.41.3-.95.33-1.45.3-1.21-.08-2.37-.47-3.4-1.1-.48-.3-.71-.41-1.31-.49-.09-.01-1.31-.11-1.31-.13q-.28-2.28-.57-4.55c.41-.14.76-.48,1.19-.62,2.28-.77,6.01-1.44,7.67.93.77,1.1.83,3.12.23,4.32-.11.22-.25.42-.39.61Z"/>
      <g>
        <path class="cls-6" d="m138.75,43.93c.56.1,1.09.28,1.55.63.5.39.84.95,1.06,1.55.33.92.48,1.97.27,2.93-.43,1.99-2.55,3.12-4.32,3.81.48-1.98-6.59-1.61-2.28-7.4.13-.17.85-.56,1.14-.71,0-.24-1.16-.63-1.42-.71-.12-.04.77-.38.85-.38.52-.06,1.06.02,1.58.09.52.06,1.06.1,1.58.2Z"/>
        <path class="cls-37" d="m135.03,45.46c-4.31,5.79,2.75,5.42,2.28,7.4-2.77,1.07-5.7,1.27-8.54.28-1.1-.38-2.79-1.93-3.98-2.56.29-.3,1.14-2.02,1.42-2.56,2.68-2.04,5.26-3.63,8.82-2.56Z"/>
        <path class="cls-30" d="m130.76,43.46c.58.01,3.36.38,3.98.57.27.08,1.43.48,1.42.71-.29.15-1.01.54-1.14.71-3.56-1.07-6.15.53-8.82,2.56.42-.8-.61-2.81,2.56-3.98.66-.03,1.43-.58,1.99-.57Z"/>
      </g>
      <path class="cls-44" d="m137.88,65.66c.39.33,1.51,2.87,2.42,3.42,1.96,1.19,3.16,0,3.56.71.6,1.06-.01,4.14-.85,5.27-5.42-1.47-7.22,1.78-7.97,2.28.48-3.29,2.81-8.94.28-12.24,1.25-.27,1.54-.3,2.56.57Z"/>
      <path class="cls-46" d="m148.69,77.9c.09,1.01-.24,3.01-1.42,3.13-.24-2.2-.97-3.83-2.85-5.12-.32-.22-.27-.28-.28-.28,1.59-1.76,4.37.07,4.55,2.28Z"/>
      <path class="cls-32" d="m149.83,77.62c-.58,2.16.03,3.34,1.71,4.84-.12.04-2.03,1-2.28,1.14l-1.71-1.71s-.16.3-.28-.85c1.18-.12,1.51-2.12,1.42-3.13l1.14-.28Z"/>
      <g>
        <path class="cls-31" d="m139.87,51.43c.24.54.78,1.5.85,1.99.18,1.12-.19,2.58-.28,3.7-.09,1.01-.15,3.08-.28,3.7-.39,1.79-.87,3.54-2.28,4.84-1.02-.86-1.32-.84-2.56-.57-.11-.14-2.3-1.53-3.13-1.71-.56-.12-.77-.29-.85-.28v-.57c.28-3.36-.43-6.7-2.56-9.39,2.84.98,5.77.78,8.54-.28.44-.17,2.28-1.2,2.56-1.42Z"/>
        <path class="cls-34" d="m137.74,53.43s.44.37.71.43c-.33,3.84.95,8.6-2.99,10.96-3.46-4.61.51-11.34,2.28-11.38Z"/>
      </g>
      <g>
        <path class="cls-6" d="m131.33,63.1c-2.57.16-5.5,4.67-3.84,7.12.4-5.68,4.33-5.07,4.7-6.83.83.17,3.02,1.57,3.13,1.71,2.52,3.3.2,8.94-.28,12.24-.67.45-.8.84-.85.85-.74.19-2.95-.22-3.7-.57-1.04-.48-5.24-5.52-6.55-6.26-.26-2.01,1.61-5.87,3.13-7.12,1.32-1.08,2.7-1.27,4.27-1.71v.57Z"/>
        <path class="cls-30" d="m132.19,63.39c-.37,1.76-4.3,1.15-4.7,6.83-1.65-2.44,1.27-6.95,3.84-7.12.08,0,.29.17.85.28Z"/>
      </g>
      <path class="cls-38" d="m144.14,85.59c.63.17,1.33.82,1.99.28,0,.22.05.31.28.28l-.28.43c2.54,1.85,3.16,4.57,2.56,7.54-.21.44-.25,1.09-.28,1.14-.31.5-.88.78-.85,1.42-3.63,1.32-5.99,2.4-7.83,5.98-.54.12-2.36-3.15-7.54-2.56-1.24-2.82-1.01-5.88-.28-8.82.14-.58.81-.8.28-1.99.58-.39,2.81-3.22,5.69-3.98,2.06-.55,4.27-.26,6.26.28Z"/>
      <g>
        <path class="cls-31" d="m156.38,82.74c-7.69,1.85-5.24,5.15-6.26,8.97-.08.28-.77,0-.85.28-.22.75.13.66-.57,2.13.6-2.97-.02-5.69-2.56-7.54l.28-.43c.15-.4,2.4-2.31,2.85-2.56.25-.14,2.15-1.1,2.28-1.14,1.22-.36,2.52-.08,3.7-.57.21.61.57.7,1.14.85Z"/>
        <g>
          <path class="cls-34" d="m164.06,86.72c-1.5,2.47-2.25.01-2.28,7.12-.1.06-1.48,1.22-1.71,1.42-5.05-2.4-6.72,1.4-11.67,0,.03-.05.08-.7.28-1.14.7-1.48.35-1.39.57-2.13.08-.28.78,0,.85-.28,1.02-3.82-1.43-7.11,6.26-8.97,7.3,1.96,5.04,5.55,7.68,3.98Z"/>
          <path class="cls-3" d="m155.67,89c1.46-.44,2.12,1.61.85,1.99-1.46.44-2.12-1.61-.85-1.99Z"/>
        </g>
      </g>
      <path class="cls-14" d="m149.26,83.59c-.44.25-2.7,2.16-2.85,2.56-.24.03-.28-.07-.28-.28-.02-.37,1.39-2.44,1.42-3.98l1.71,1.71Z"/>
      <g>
        <path class="cls-40" d="m52.78,91.56c-.61.67-4.38,5.1-4.55,5.41v-2.85c.31.23.25.26.43.57.27-.06.7-1.16,1-1.42,1.19-1.04,2.59-2.62,3.13-1.71Z"/>
        <g>
          <path class="cls-34" d="m66.44,75.63c1.49,3.37,2.5,8,.28,11.24-3.84,5.61-10.43,2.62-10.53,3.7,6.82,3.46,4.63,12.97-1.57,16.08-2.55,1.28-6.61,1.09-8.11-1.71-1.26-2.36,1.05-.22.85-1.42q.14-2.7.28-5.41c-.17-.98.32-.7.57-1.14.17-.31,3.95-4.74,4.55-5.41.3-.33.89-.45,1.42-1.14.03-.04.69.18.57-.43-5.12-3.94-3.75-8.94.85-12.67,3.53-2.85,6.62-3.93,10.82-1.71Z"/>
          <path class="cls-3" d="m54.35,96.69c2-.48,2.44,2.75.85,3.13-2,.48-2.44-2.75-.85-3.13Z"/>
          <path class="cls-3" d="m61.46,75.91c1.69-.16,2.05,1.88,1.14,2.28-2.1.92-3.65-2.03-1.14-2.28Z"/>
        </g>
      </g>
      <path class="cls-32" d="m106,68.23c.02.1.51,1.84.57,1.99l-5.69,3.13c0-.09-.24-1.49-.28-1.71l5.41-3.42Z"/>
      <g>
        <path class="cls-31" d="m93.76,63.96c1,.23,1.75.53,2.56,1.14,1.09.82,4,5.31,4.27,6.55.05.22.28,1.62.28,1.71.32,6.61-5.72,8.62-11.1,6.83-7.17-2.39-7.16-15.44.85-16.51,1.07-.14,2.09.04,3.13.28Z"/>
        <path class="cls-9" d="m93.05,71.07c1.55-.59,3.17,1.91,1.14,2.28-1.99.36-2.1-1.91-1.14-2.28Z"/>
      </g>
      <g>
        <path class="cls-34" d="m111.69,53.14c2.32-.03,5.77,2.24,6.83,4.27.37.71.39,2.42.85,3.42.42.89.97,2.2,1.71,2.85-5.71.06-1.31.96-3.7,8.4.86-.46,1.82-.38,1.42.71-1.06-.88-2.27,2.26-.85,3.13-.46,1.17-1.45-1.37-1.57-1.42-.46-.19-5.27,1.81-8.68-3.27-1.42-2.11-.89-3.76-1.71-3.56-.27-2.9.25-5.91,1.14-8.68-.72-.1-1.62-.69-1.71-.71,1.08-2.7,3.15-5.08,6.26-5.12Z"/>
        <path class="cls-5" d="m110.41,64.81c.88-.56.88,1.14.28,1.14-.67,0-.51-.99-.28-1.14Z"/>
        <path class="cls-35" d="m109.27,67.09c.85-.07.84,1.06.28,1.14-.61.09-.82-1.09-.28-1.14Z"/>
      </g>
      <path class="cls-39" d="m70.14,62.53c-.72-.39-1.19-.78-1.71-1.42l4.7-.28c-.04.86-2.85,1.6-2.99,1.71Z"/>
      <path class="cls-44" d="m124.5,110.63c.92,5.78-5.12,2.18-4.55,7.4-2.67.84-4.18,2.4-6.55,3.42.3-1.39,4.04-6.73-.14-12.81,4.47,2.99,6.22,2.68,11.24,1.99Z"/>
      <path class="cls-13" d="m124.22,90.99c.4.77.6,1.97.57,2.85-.07,1.94-1.32,3.37-.85,3.98-3.7-.15-9.51,2.63-11.38,5.98-3.02-4.59-3.12-8.1-.28-12.81.43-.53,1.04-2.03,1.71-2.56,3.65-2.89,9.17.48,10.25,2.56Z"/>
      <path class="cls-39" d="m132.19,100.1c-.86.1-2.65.73-3.27,1.42-1.1-2.5-2.21-3.59-4.98-3.7-.47-.61.78-2.04.85-3.98,3.18,1.02,5.01-.45,7.12-2.56-.72,2.95-.95,6,.28,8.82Z"/>
      <g>
        <path class="cls-31" d="m147.55,96.69c5.31,1.44,6.72,8.05,4.27,12.52-1.37,2.5-4.05,3.64-6.83,3.13-1.65-.31-3.34-2.25-4.41-3.42-.45,1.97-2.01,3.45-3.84,4.27-.65.29-1.57.42-2.28.57-.2.04-.27.21-1.14.28-.49.04-2.16.3-2.28.28-2.46-.35-3.6-2.67-5.12-4.27-1.1-.08-1.35.56-1.42.57-5.03.69-6.77,1-11.24-1.99,4.18,6.08.45,11.41.14,12.81-.11.52-.28,1.06-.28,1.14-.83-.66-.64.49-1.57,1.14-1.54,1.07-4.32,1.5-6.12,1.14-2.14-.43-4.67-3.66-5.12-5.69-.05-.23-.29-2.3-.28-2.56.08-5.62,4.36-9.78,9.96-9.39,1.17.08,1.58.75,1.99.43.14-.25-.9-1.22.57-3.84,1.88-3.35,7.68-6.12,11.38-5.98,2.77.11,3.88,1.2,4.98,3.7.63-.7,2.41-1.32,3.27-1.42,5.18-.59,7.01,2.68,7.54,2.56,1.84-3.58,4.19-4.66,7.83-5.98Z"/>
        <g>
          <path class="cls-3" d="m107,110.63c3.01-.98,2.57,3.62,0,2.85-1.11-.33-1.14-2.48,0-2.85Z"/>
          <path class="cls-45" d="m144.85,104.37c1.8-.54,2.57,2.07,1.14,2.56-1.96.67-2.45-2.17-1.14-2.56Z"/>
          <g>
            <g>
              <path class="cls-34" d="m133.04,105.79s-.05.1-.28.28c-1.13.89-2.43.55-2.56.57,1.62-1.66.95-2.17,0-3.98.44-.21,2.71-2.28,3.98-.14.62,1.05-.36,2.49-1.14,3.27Z"/>
              <path class="cls-42" d="m130.19,102.66c.95,1.82,1.62,2.32,0,3.98-.8.09-1.54.87-2.7.57-2.15-.56-.57-2.97,2.7-4.55Z"/>
              <path class="cls-3" d="m131.19,106.93c1.66-.3,1.84,2.53.28,2.56-1.35.03-1.61-2.32-.28-2.56Z"/>
              <path class="cls-3" d="m132.76,106.08c.23-.18.24-.24.28-.28,4.67.09-.45,4.39-.28.28Z"/>
            </g>
            <path class="cls-12" d="m122.65,98.96c.78-.14,1.73-.03,2.42.43.02.73-5.21.08-2.42-.43Z"/>
          </g>
        </g>
      </g>
      <path class="cls-13" d="m86.93,86.16c4.92-.47,8.62,3.22,9.96,7.68.27.9.54,1.6.57,2.56.02.69-.12,1.08-.28,1.71-1.46-.97-3.68-1.36-5.41-1.42-2.43-.09-3.75.15-5.98,1.14-1.86.82-2.7,2.21-2.99,1.99-.31-1.49-.81-3.07-2.13-3.98-.21-3.92-.3-3.39-1.42-6.83,2.89.1,4.65-2.55,7.68-2.85Z"/>
      <g>
        <path class="cls-39" d="m112.55,103.8c-1.47,2.62-.43,3.6-.57,3.84-.41.32-.82-.35-1.99-.43,4.58-.64-3.02-3.32-4.84-4.55-2.77-1.87-5.04-4.24-7.68-6.26-.03-.96-.3-1.67-.57-2.56.52-.08.03-.56.57-.85,2.8-1.54,9.5,0,11.53,2.85.61-2,2.01-3.3,3.27-4.84-2.83,4.71-2.73,8.22.28,12.81Z"/>
        <path class="cls-32" d="m105.15,102.66c-1.6.71-4.62-2.7-5.12,0-.11-1.51-1.65-3.76-2.85-4.55.16-.63.31-1.02.28-1.71,2.64,2.02,4.91,4.39,7.68,6.26Z"/>
      </g>
      <g>
        <path class="cls-31" d="m79.25,89c1.12,3.44,1.22,2.91,1.42,6.83,0,.13-.49,1.04-.57,1.57q1.35,2.06,2.7,4.13c.66-1.27,1.66-2.52,2.99-3.13,1.85-.86,4.18-.59,5.98-1.71,1.72.06,3.95.45,5.41,1.42,1.19.79,2.73,3.04,2.85,4.55.49,6.62-8.34,5.81-8.54,6.4l2.56,2.13c-.21.29-5.58-1.32-6.26-1.71l-4.98-4.55c-.08,5.35-6.09,9.51-10.67,5.98-.52-.4-1.89-2.02-1.71-2.85,3.66,4.96,3.09,2.02,3.56,1.71.42-.28,1.58.09,2.28-.28,6.05-3.29,4.01-10.6,2.56-10.82-2.31,1.21-3.8,1.73-6.4,1.14-1.59-.36-4.32-2.4-4.84-3.98-1.27-3.9.56-7.26,3.42-9.68.91-.78,2.17-1.12,3.13-1.85-2.24-1.96-1.81-8.67.71-9.82,6.17-2.81,16.07,11.22,3.84,14.09.04.2.56.39.57.43Z"/>
        <g>
          <path class="cls-7" d="m85.79,97.82v.57c-1.32.61-2.33,1.86-2.99,3.13q-1.35-2.06-2.7-4.13c.08-.52.58-1.43.57-1.57,1.33.92,1.83,2.49,2.13,3.98.29.22,1.13-1.17,2.99-1.99Z"/>
          <path class="cls-29" d="m91.77,96.69c-1.8,1.11-4.13.85-5.98,1.71v-.57c2.23-.98,3.55-1.22,5.98-1.14Z"/>
          <g>
            <g>
              <path class="cls-2" d="m71.71,87.29c1.92-.09-1.83,1.39-3.13,5.69-.99-1.67,1.71-5.62,3.13-5.69Z"/>
              <path class="cls-22" d="m73.41,90.14c1.69-.51,3.05,1.56-1.14,2.56-.51-.31.7-2.43,1.14-2.56Z"/>
            </g>
            <path class="cls-27" d="m75.69,79.04c1.21-.94,3.01,2.57.85,2.56-.43,0-1.49-2.07-.85-2.56Z"/>
          </g>
        </g>
      </g>
      <g>
        <path class="cls-31" d="m90.35,128.28c4.81.32,8.19,4,7.4,8.82-.68,4.15-3.44,5.11-4.55,6.26-1.11.05-2.71-.04-3.7-.57-2.25-1.19-4.07-6.93-2.56-9.39.29-.21.36-.39.57-.57.07-.06.3.15,1.42-1.28l-1.42.71c-.16-.91,1.04-1.05,1.42-1.57-1.48-.37-.58-1.89-.85-2.85-.8-2.8-2.58-3.47-1.99-4.13,4.73,3.76.45,8.63,4.27,4.55Z"/>
        <path class="cls-43" d="m87.5,132.83c-.01-.19.03-.39,0-.57l1.42-.71c-1.12,1.43-1.35,1.22-1.42,1.28Z"/>
        <path class="cls-15" d="m91.91,132.55c1.49.54-.89,3.3-1.99,2.56-1.06-.71,1.37-2.79,1.99-2.56Z"/>
      </g>
      <path class="cls-32" d="m94.9,85.3c-.54,3.57.88,4.92,2.56,7.68-.54.3-.05.77-.57.85-1.34-4.47-5.04-8.16-9.96-7.68,1.82-2.04,5.31-2.04,7.97-.85Z"/>
      <path class="cls-16" d="m116.82,79.33c-1.46,1.21-2.88,2.76-4.84,3.13-.55-.77-1.49-1.77-2.28-2.28,2.24-1.01,4.9-1.11,6.55-3.13.23.76.31,1.51.57,2.28Z"/>
      <path class="cls-32" d="m127.06,64.24c-1.52,1.24-3.39,5.1-3.13,7.12-5.99-3.41-5.17,3.03-5.41-6.97,1.29.4,2.43.04,3.7-.14,1.41-.2,3.93-1.11,4.84,0Z"/>
      <path class="cls-46" d="m134.18,78.19c.33,3.23,1.5,4.89,3.7,7.12-2.88.77-5.11,3.59-5.69,3.98-.74.5-1.46,1.05-2.28,1.42-1.56.27-.28-6.78,0-8.82.19-1.43.79-2.77.57-4.27.75.35,2.96.76,3.7.57Z"/>
      <g>
        <path class="cls-41" d="m143,75.06c.06.02.97.48,1.14.57.02,0-.04.06.28.28,1.22,4.91,1.81,4.74-.28,9.68-1.99-.55-4.2-.83-6.26-.28-2.2-2.23-3.37-3.89-3.7-7.12.06-.02.18-.41.85-.85.75-.5,2.55-3.74,7.97-2.28Z"/>
        <path class="cls-28" d="m147.27,81.03c.13,1.16.29.81.28.85-.03,1.54-1.44,3.62-1.42,3.98-.67.54-1.36-.11-1.99-.28,2.09-4.94,1.51-4.77.28-9.68,1.88,1.3,2.6,2.92,2.85,5.12Z"/>
      </g>
      <path class="cls-16" d="m131.9,91.28c-2.11,2.11-3.94,3.58-7.12,2.56.03-.87-.17-2.07-.57-2.85,3.09.52,2.88.98,5.69-.28.82-.37,1.54-.93,2.28-1.42.53,1.19-.14,1.42-.28,1.99Z"/>
      <path class="cls-39" d="m129.91,81.89c-.28,2.04-1.56,9.1,0,8.82-2.81,1.26-2.61.81-5.69.28-1.07-2.08-6.6-5.46-10.25-2.56-.45-2.8-.31-3.6-1.99-5.98,1.96-.37,3.38-1.92,4.84-3.13.7,2.05,1.04,3.75,2.85,5.27-.1,1.78-5.2-3.1-2.13,2.13,6.36.48,8.64,1.39,12.38-4.84Z"/>
      <g>
        <path class="cls-31" d="m121.09,63.67s.45-.06,1.14.57c-1.27.18-2.41.54-3.7.14.23,10.01-.58,3.56,5.41,6.97,1.31.74,5.5,5.78,6.55,6.26.22,1.5-.38,2.83-.57,4.27-3.74,6.23-6.02,5.32-12.38,4.84-3.06-5.23,2.04-.36,2.13-2.13-1.81-1.52-2.15-3.21-2.85-5.27-.26-.77-.34-1.51-.57-2.28-1.18-3.94-.85-.05-5.83-2.56-1.13-.57-3.39-3.11-3.84-4.27-.06-.15-.55-1.89-.57-1.99-.03-.18.02-.38,0-.57.82-.2.29,1.44,1.71,3.56,3.41,5.09,8.22,3.08,8.68,3.27.12.05,1.1,2.6,1.57,1.42-.34-2.47.65-2.58.85-3.13.39-1.09-.56-1.17-1.42-.71,2.39-7.43-2.01-8.34,3.7-8.4Z"/>
        <path class="cls-5" d="m118.81,72.78c-.2.55-1.19.66-.85,3.13-1.42-.87-.21-4.01.85-3.13Z"/>
        <path class="cls-12" d="m119.24,76.76c.59-.1,3.09,2.62,1.71,3.13-1.26.47-3.45-2.84-1.71-3.13Z"/>
      </g>
      <g>
        <path class="cls-34" d="m109.7,80.18c.79.51,1.73,1.51,2.28,2.28,1.68,2.37,1.54,3.17,1.99,5.98-.66.53-1.28,2.04-1.71,2.56-1.26,1.54-2.67,2.84-3.27,4.84-2.02-2.85-8.73-4.39-11.53-2.85-1.68-2.76-3.1-4.11-2.56-7.68.8-5.29,8.26-9.37,14.8-5.12Z"/>
        <path class="cls-7" d="m103.01,85.02c2.42-.97,2.83,2.7.85,2.85-1.46.11-2.05-2.36-.85-2.85Z"/>
      </g>
    </g>
  </g>
</svg>