<?xml version="1.0" encoding="UTF-8"?>
<svg xmlns="http://www.w3.org/2000/svg" viewBox="0 0 203 218.76">
  <defs>
    <style>
      .cls-1 {
        isolation: isolate;
      }

      .cls-2 {
        fill: #fff;
      }

      .cls-2, .cls-3, .cls-4 {
        stroke-width: 0px;
      }

      .cls-3 {
        mix-blend-mode: multiply;
      }

      .cls-3, .cls-4 {
        fill: #cd7534;
      }
    </style>
  </defs>
  <g class="cls-1">
    <g id="Layer_2" data-name="Layer 2">
      <g id="Blancos">
        <path class="cls-2" d="m179.73,116.12c-4.34-1.85-8.86-2.79-13.44-2.79-4.03,0-7.92.74-11.57,2.11-.02-1.71-.08-3.44-.23-5.19-.01-.16-.02-.31-.02-.46-.05-3.64-.59-7.34-1.55-11.02.6.02,1.21.04,1.82.04,15.66,0,35.55-5.91,44.43-22.48.69-1.29,1.28-2.62,1.77-3.97,3.25-9.08,2.65-19.15-1.65-27.6-4.27-8.42-11.61-14.53-20.67-17.22-2.95-.87-6-1.32-9.07-1.34-3.58-.01-5.62-1.71-11.27-7.99-5.8-6.44-14.56-16.18-29.35-16.18-.4,0-.8,0-1.21.02-7.63.28-15.16,3.32-21.2,8.57-.57.5-1.11,1.02-1.64,1.54-4.78-5.04-11.27-8.79-19.12-10.71-3.88-.95-7.96-1.44-12.13-1.44-3.21,0-6.43.29-9.55.86-18.85,3.45-35.43,16.29-44.35,34.35-7.16,14.51-9.96,36.28-.05,52.23,6.19,9.97,16.21,15.65,28.32,16.15-11.28,3.71-22.27,11.22-31.15,21.59C3.86,140.34-2.05,158.93.63,176.19c4.34,27.95,25.45,42.57,44.06,42.57h0c17.62,0,35.9-12.75,37.02-41.21.05-1.21,4.13-4.79,6.33-6.71,2.51-2.2,5.87-5.14,8.91-8.93,1.37.85,2.78,1.57,4.23,2.18-3.06,6.01-4.2,12.69-3.22,19.44,1.42,9.81,7.3,18.64,16.13,24.22,7.31,4.62,16.04,7.06,25.25,7.06,4.24,0,8.61-.51,12.97-1.51,12.1-2.78,23.96-9.35,32.54-18.03,14.4-14.58,20.51-36.03,15.58-54.64-2.98-11.23-10.52-20.17-20.7-24.52Z"/>
      </g>
      <g id="Productos">
        <g>
          <path class="cls-4" d="m148.95,198.68c-9.23,2.12-18.86,1.44-26.85-3.61-10.16-6.42-12.82-19.09-4.72-28.36,4.71-5.39,11.57-8.49,18.32-10.45,7.14-2.06,9.5-8.96,12.31-15.03,5.51-11.4,16.07-15.5,25.82-11.33,6.11,2.61,10.39,8.15,12.1,14.57,3.72,14.05-1.73,30.1-11.76,40.26-6.42,6.5-15.6,11.74-25.22,13.95Z"/>
          <path class="cls-4" d="m82.19,16c9.72,2.38,17.59,9.11,16.7,21.21-1.09,14.74-16.69,15.83-25.09,24.93-3.81,4.13-4.2,9.27-6.18,14.3-1.77,4.49-6.33,10.57-11.45,11.55-29.06,5.57-32.86-26.15-22.98-46.14,6.55-13.27,18.89-23.55,33.6-26.24,5-.91,10.44-.83,15.41.39Z"/>
          <path class="cls-4" d="m86.56,130.94c-18.76-37.61-77.35,2.7-71.1,42.95,5.65,36.35,49.73,42.04,51.27,3.07.73-18.55,32.41-20.8,19.83-46.02Z"/>
          <path class="cls-4" d="m152.72,83.76c-4.28-.18-8.36-.91-11.82-2.18-14.14-5.17-26.19-18.77-30.52-33.07-2.85-9.42-1.8-19.81,5.98-26.57,3.33-2.89,7.5-4.74,11.91-4.9,17.58-.64,20.43,24.07,41.22,24.16,1.64,0,3.29.25,4.86.72,10.62,3.15,16.32,14.59,12.46,25.4-.24.66-.53,1.31-.86,1.93-5.63,10.51-20.36,15.06-33.23,14.53Z"/>
          <path class="cls-4" d="m95.11,124.17c2.22-16.94-22.26-24.57-15.95-41.4,1.12-2.98,3.03-5.58,5.38-7.72,20.2-18.41,54.54,9.73,54.92,34.96,0,.5.03,1,.07,1.5,3.59,42.53-42.7,56.18-44.59,16.21-.06-1.18,0-2.37.16-3.55Z"/>
          <path class="cls-3" d="m148.91,150.02c-.65.02-1.22.45-1.42,1.07-2.03,6.15-5.83,10.41-11.61,13.05-.65.3-1.01.99-.88,1.7.13.7.72,1.22,1.43,1.27,2.39.15,4.66-.16,6.68-.87,2.54-.9,4.69-2.43,6.18-4.49,2.23-3.1,2.64-7.02,1.12-10.75-.25-.6-.84-.99-1.49-.97Z"/>
          <path class="cls-3" d="m73.66,51.82c-5.31.26-9.72,2.5-12.1,6.13-2.24,3.42-2.55,7.76-.87,12.24.23.61.81,1.01,1.45,1.01.04,0,.07,0,.11,0,.69-.05,1.26-.54,1.41-1.22.87-3.93,1.99-6.67,3.75-9.14.85-1.19,2.12-2.08,3.46-3.02,1.38-.97,2.81-1.97,4.05-3.43.4-.47.48-1.14.21-1.69-.27-.55-.86-.89-1.47-.86Z"/>
          <path class="cls-3" d="m167.88,47.7c-.22-.58-.76-.97-1.38-1-6.35-.32-11.38-2.87-15.37-7.8-.43-.53-1.16-.72-1.8-.46-.63.26-1.02.9-.96,1.59.52,5.41,3.37,9.14,8.48,11.11,1.54.59,2.99.89,4.36.89,2.37,0,4.48-.89,6.29-2.66.44-.43.59-1.08.37-1.66Z"/>
          <path class="cls-3" d="m99.43,105.54c-.6-.15-1.23.07-1.6.56-.38.49-.43,1.15-.14,1.69,3.15,5.79,3.54,11.32,1.2,16.89-.27.65-.08,1.39.47,1.82.11.09.24.16.37.22.49.2,1.07.14,1.52-.19,4.55-3.36,6.3-7.87,5.2-13.4-.86-4.31-2.96-6.58-7.02-7.59Z"/>
          <path class="cls-3" d="m65.12,155.2c-.12.03-.23.07-.35.1-5.92,1.48-10.71,7.68-10.69,13.83-.04,2.35.64,4.61,2.03,6.71l.07.11c.31.47,1.13,1.74,2.55,1.74.33,0,.68-.07,1.07-.22,1.73-.7,1.69-2.53,1.68-3.14-.11-5.58,1.9-10.12,6.16-13.85l.14-.12c.59-.51,2.4-2.07,1.18-4.11-1.11-1.85-3.09-1.26-3.83-1.04Z"/>
        </g>
      </g>
    </g>
  </g>
</svg>