<?xml version="1.0" encoding="UTF-8"?>
<svg id="Layer_2" data-name="Layer 2" xmlns="http://www.w3.org/2000/svg" viewBox="0 0 152.32 205.87">
  <defs>
    <style>
      .cls-1 {
        fill: #299f67;
      }

      .cls-1, .cls-2, .cls-3, .cls-4, .cls-5 {
        stroke-width: 0px;
      }

      .cls-2 {
        fill: #008d4a;
      }

      .cls-3 {
        fill: #fff;
      }

      .cls-4 {
        fill: #269e65;
      }

      .cls-5 {
        fill: #4caf81;
      }
    </style>
  </defs>
  <g id="Blancos">
    <path class="cls-3" d="m137.25,75.87c20.35-9.23,21.46-42.36-5.14-37-3.69-13.22,2.5-37.81-17.95-38.88-31.7,10.1-26.1-5.23-46.03,25.32-11-2.11-29.3-2.85-33.42,10.53C21.04,26.92-.95,51.91,1.73,64.63c.74,15.41,2.58,37.94,14.9,47.49,11.12,50.12-49.93,89.49,10.46,93.76,29.91-5.56,32.28-51.55,60.89-59.63,14.76-1.55,42.39,5.54,43.16-16.99,10.07-4.16,20.92-23.78,18.5-34.47-1.01-12.05-31.31-9.79-12.39-18.91Z"/>
  </g>
  <g id="Productos">
    <g>
      <g>
        <path class="cls-2" d="m24.82,187.74c7.3-21.14,15.29-42.2,21.28-63.74,4.36-21.94,2.3-45,7.91-66.82,1.75-6.23,3.44-12.65,7.2-18.05.17-.24.5-.3.75-.13.23.16.3.47.15.71-3.24,5.43-4.76,11.71-6.11,17.93-2.41,10.77-2.72,27-3.45,38.15-.67,9.7-.91,19.4-2.78,29.03-5.67,21.88-13.33,43.08-20.51,64.48-1.05,2.88-5.43,1.46-4.44-1.56h0Z"/>
        <path class="cls-2" d="m44.95,129.53c6.84-4.12,12.54-10.19,17.43-16.49,1.49-1.87,3.41-4.68,4.78-6.68.32-.51,1.01-.66,1.51-.31.46.31.59.92.33,1.4-.68,1.23-1.34,2.46-2.06,3.67-4.37,7.28-9.71,14.05-16.22,19.57-1.71,1.19-4.66,4.74-6.64,2.02-.71-1.1-.3-2.59.87-3.18h0Z"/>
        <path class="cls-2" d="m44.02,130.57c-9.52-16.53-13.05-38.44-3.03-55.5.72-1.15,2.48-.19,1.87,1.05-8.5,16.5-4.62,36.98,4.94,52.15,1.53,2.54-2.2,4.85-3.78,2.3h0Z"/>
        <path class="cls-2" d="m47.19,120.78c5.54-10.72,11.64-21.2,19.57-30.34.88-.99,2.45.25,1.68,1.33-1.72,2.4-3.4,4.83-4.95,7.35-4.66,7.49-8.75,15.43-12.27,23.5-1.23,2.75-5.3.91-4.03-1.84h0Z"/>
        <path class="cls-2" d="m52.11,74.23c2.82-2.01,5.19-4.9,6.82-7.98,1.73-3.21,2.65-6.79,3.04-10.41.04-.47.46-.81.93-.74.4.06.68.41.68.8.07,5.92-1.82,11.85-5.37,16.61-1.26,1.68-2.51,3.1-4.21,4.45-.72.56-1.77.43-2.33-.29-.61-.77-.4-1.93.44-2.44h0Z"/>
        <path class="cls-2" d="m50.87,70.28c-4.78-5.34-8.64-11.72-9.73-18.87-.15-1,1.35-1.29,1.58-.31.89,3.23,2.28,6.3,4.11,9.11,1.79,2.77,4,5.49,6.39,7.71,1.63,1.57-.76,3.98-2.34,2.35h0Z"/>
        <path class="cls-2" d="m52.67,63.31c-4.59-6.68-4.69-15.31-3.62-23.05.09-.69,1.14-.57,1.06.13-.45,5.59-.25,11.45,1.7,16.75.62,1.65,1.49,3.48,2.58,4.78.94,1.15-.79,2.56-1.72,1.39h0Z"/>
        <path class="cls-2" d="m56.74,104.52c.32-7.26,2.54-14.22,5.49-20.8.99-2.15,2.1-4.25,3.29-6.28.22-.38.72-.51,1.1-.29.37.21.5.67.32,1.05,0,0-1.43,3.15-1.43,3.15-2.71,6.29-4.76,12.95-5.34,19.79-.09,1.13-.15,2.32-.1,3.34.03,2.24-3.29,2.3-3.32.04h0Z"/>
        <path class="cls-2" d="m35.2,101.3c1.68-4.7,3.75-9.16,6.44-13.35.94-1.37,1.93-2.7,3.07-3.92.3-.32.81-.34,1.14-.04.3.28.34.74.1,1.07-1.82,2.56-3.27,5.36-4.5,8.25-1.21,2.89-2.27,5.95-3.06,8.95-.63,2.18-3.86,1.22-3.18-.96h0Z"/>
      </g>
      <g>
        <path class="cls-2" d="m33.55,176.94c8.16-11.97,16.52-23.67,23.42-36.14,7.08-12.47,11.68-26,16.13-39.63,2.27-6.85,4.53-13.75,7.13-20.56,5.08-13.52,12.23-26.18,16.17-40.02,1.94-6.85,3.06-14.06,4.86-20.99.08-.36.44-.58.8-.49.32.08.53.38.5.7-.82,7.25-1.43,14.44-3.16,21.58-3.57,14.14-10.58,27.02-15.34,40.64-2.41,6.74-4.51,13.62-6.63,20.53-4.25,13.88-8.86,27.92-15.88,40.74-6.93,12.93-15.38,24.8-23.37,36.77-2.08,2.97-6.66.05-4.63-3.12h0Z"/>
        <path class="cls-2" d="m67.15,46.37l1.68,13.1c.63,4.26.98,8.62,2.4,12.69,1.36,4.01,3.4,8.01,4.7,12.46,1.35,4.43,1.78,9.16,1.59,13.76-.05,1.22-1.08,2.16-2.29,2.11-1.22-.05-2.16-1.08-2.11-2.29.36-4.23.18-8.46-.88-12.57-1.53-6.12-4.93-12.61-5.41-19.25-.7-6.6-1.26-13.22-1.52-19.85-.03-1.15,1.68-1.33,1.85-.15h0Z"/>
        <path class="cls-2" d="m91.17,19.97c-1.78,6.31-2.97,12.99-2.91,19.53.09,4.89,1.26,9.69,2.66,14.33.36,1.14.77,2.25,1.26,3.32.15.33.35.73.45.9.69,1.11.35,2.56-.76,3.25-1.11.69-2.56.35-3.25-.76-.33-.59-.53-1.24-.7-1.75-1.83-6.25-2.83-12.86-2.58-19.36.46-6.89,2.17-13.47,4.42-19.94.32-.88,1.7-.45,1.41.48h0Z"/>
        <path class="cls-2" d="m97.81,37.61c3.74-2.47,6.94-5.78,9.47-9.53,2.63-3.83,4.69-8.3,6.32-12.66.24-.74,1.38-.41,1.18.35-1.19,4.71-2.83,9.46-5.21,13.72-1.11,2.39-9.83,15.22-12.51,10.62-.47-.91-.09-1.99.76-2.49h0Z"/>
        <path class="cls-2" d="m94.74,48.51c7.88-2.67,14.89-7.73,20.91-13.42.42-.41,1.1-.4,1.5.03.38.4.37,1.02.01,1.42-1.47,1.62-2.97,3.22-4.57,4.72-4.02,3.8-8.48,7.16-13.39,9.76-1.69.78-4.71,2.97-5.89.28-.46-1.16.22-2.48,1.42-2.79h0Z"/>
        <path class="cls-2" d="m79.68,83.89c3.17-1.34,6.07-3.38,8.8-5.49,5.59-4.39,10.42-9.72,12.78-16.59,1.29-3.33,2.25-6.85,2.97-10.39.06-.41.45-.69.86-.6.33.07.56.35.57.67.13,3.85-.46,7.61-1.58,11.28-2.09,7.46-7.12,13.81-13.09,18.69-2.59,2.17-5.4,4.15-8.46,5.65-.48.22-.87.41-1.47.64-1.06.4-2.24-.14-2.64-1.2-.41-1.08.17-2.29,1.26-2.66h0Z"/>
        <path class="cls-2" d="m116.95,60.86c-3.98,4.43-8.46,8.33-13.7,11.2-1.79.93-3.69,1.72-5.71,2.27-.91.24-1.85-.3-2.09-1.21-.26-.94.34-1.92,1.3-2.12,5.4-1.12,10.24-4.29,14.51-7.74,1.46-1.2,2.9-2.48,4.2-3.8.91-.92,2.35.42,1.5,1.39h0Z"/>
        <path class="cls-2" d="m87.06,37.14c4.59-2.93,8.71-7.23,10.42-12.51.22-.65,1.22-.36,1.05.31-1.36,5.88-5.3,10.78-10.02,14.42-1.51,1.07-3.04-1.27-1.44-2.22h0Z"/>
        <path class="cls-2" d="m68.26,70.34c5.5-10.51,9.21-22.13,10.35-33.97.13-1.22,1.97-1.09,1.9.16-.4,6.1-1.51,12.14-3.17,18.02-1.67,5.91-3.79,11.62-6.54,17.14-.36.71-1.22.99-1.93.63-.73-.37-1-1.27-.61-1.98h0Z"/>
      </g>
      <g>
        <path class="cls-1" d="m33.63,56.65c-1.23,10.94-2.2,21.85-.82,32.83.86,8.22,2.23,16.49,2.85,24.79,1.28,25.14-1.06,51.34-13.07,74.01-1.89,3.32-6.9.72-5.15-2.77,16.23-28.96,16.02-63.49,12.42-95.77-.39-5.56-.55-11.18-.06-16.78.48-5.56,1.21-11.05,1.99-16.54.17-1.13,1.96-1.03,1.85.24h0Z"/>
        <path class="cls-1" d="m33.4,113.59c7.19-5.99,13.2-13.71,17.26-22.17,1.93-3.89,3.23-8.06,4.2-12.3.19-.99,1.69-.77,1.55.26-.65,4.43-1.66,8.89-3.34,13.08-3.63,9.37-9.28,17.89-16.5,24.92-2.58,2.27-5.88-1.62-3.18-3.79h0Z"/>
        <path class="cls-1" d="m30.88,104.25c-8.38-4.92-12.11-16.31-13.98-25.31-.16-.71.91-1.02,1.14-.31-.01-.01,1.08,3.38,1.07,3.38,2.09,5.87,4.93,11.83,9.46,16.17.99.89,2.02,1.75,3.19,2.38.2.11.48.24.55.26,1,.26,1.6,1.28,1.34,2.28-.29,1.19-1.71,1.76-2.76,1.15h0Z"/>
        <path class="cls-1" d="m30.39,82.08c6.76-3.75,8.78-14.1,9.82-21.2.05-.5.83-.44.78.07-.47,6.39-1.43,12.98-4.82,18.55-1.25,1.97-2.8,3.9-4.99,4.92-1.63.63-2.48-1.86-.79-2.35h0Z"/>
        <path class="cls-1" d="m29.85,80.27c-6.16-5.11-11.55-11.6-13.61-19.44-.06-.21.07-.43.28-.48.2-.05.41.06.47.25.63,1.84,1.42,3.61,2.42,5.27,2.98,4.9,7.22,9.11,11.88,12.39,1.42.95-.07,3.05-1.44,2.01h0Z"/>
        <path class="cls-1" d="m27.46,49.21c.23,4.5.56,13.48,4.46,16.16.61.31.86,1.05.55,1.66-1.76,2.47-4.41-2.42-4.75-3.9-1.37-4.55-1.32-9.3-1.05-13.95.04-.49.79-.47.79.03h0Z"/>
        <path class="cls-1" d="m43.18,103.52c1.52-7.11,2.47-14.49,1.26-21.71-.1-.48.65-.66.77-.17,1.8,7.29,1.41,14.95.41,22.33-.27,1.66-2.76,1.22-2.44-.44h0Z"/>
      </g>
      <g>
        <path class="cls-5" d="m21.25,183.86c9.92-18.79,20.64-36.95,32.82-54.38,12.48-17.28,28.92-31.04,44.78-44.99,5.19-4.67,10.22-9.48,14.65-14.81,4.45-5.33,8.49-11.07,13.05-16.45.21-.25.59-.28.85-.07.23.19.28.53.12.77-3.67,5.98-7.59,11.83-12,17.38-13.3,16.44-30.71,28.86-44.6,44.71-9.52,10.25-16.9,21.92-24,33.92-7.14,12-13.94,24.29-20.15,36.73-1.91,3.59-7.32.96-5.52-2.82h0Z"/>
        <path class="cls-5" d="m48.98,137.45c9.29-4.82,18.78-9.17,29.43-9.76,1.15-.06,2.77.1,3.94.19,8.65.61,17.39-.95,25.74-3.2.42-.13.88.11,1,.54.11.4-.11.82-.51.96-8.5,2.81-17.38,4.89-26.4,4.75-6.07-.37-11.91,1.57-17.58,3.95-4.53,1.94-9.01,4.29-13.14,6.85-2.88,1.68-5.41-2.59-2.49-4.29h0Z"/>
        <path class="cls-5" d="m102.72,80.11c-.19.15-.34.39-.39.61.05-.17.08-.27.13-.48,1.42-6.76,3.76-13.35,7.02-19.43,1.1-2.12,2.35-4.16,3.63-6.17.4-.62,1.38-.06,1.02.6-3.26,6.18-5.75,12.79-7.13,19.64-.49,2.23-.72,4.6-1.11,6.85-.93,3.18-5.27.87-3.17-1.63h0Z"/>
        <path class="cls-5" d="m116.1,66.89c8.11-2.29,16.68-6.16,21.39-13.5.24-.44.94-.06.69.38-2.13,4-5.55,7.14-9.28,9.64-3.8,2.48-7.82,4.42-12.15,5.87-.65.21-1.35-.14-1.56-.8-.23-.69.2-1.44.91-1.59h0Z"/>
        <path class="cls-5" d="m84.31,99.28c10.38.32,21.5-2.8,28.78-10.54.47-.56,1.61-1.99,2.09-2.56.19-.29.6-.37.87-.14.24.2.28.55.11.8-.46.65-1.56,2.2-2,2.83-5.17,6.36-12.77,10.29-20.68,12.09-3.1.7-6.08,1.16-9.32,1.23-1.03.02-1.88-.8-1.9-1.82-.03-1.1.93-1.99,2.03-1.89h0Z"/>
        <path class="cls-5" d="m61.85,119.77c-.03-18.78,6.45-37.2,16.77-52.72,0,0,2.07-3.06,2.07-3.06.55-.81,1.83-.03,1.32.84,0,0-.03.04-.03.04l-1.86,3.13c-6.76,11.37-11.21,24.17-12.87,37.28-.58,4.67-.87,9.53-.49,14.19.21,3.32-4.72,3.65-4.92.29h0Z"/>
        <path class="cls-5" d="m101.92,96.61c5.52,2.14,12.09,1.06,17.01-2.18.41-.29.87.35.46.64-3.79,2.97-8.57,4.71-13.43,4.58-1.66-.04-3.22-.21-4.95-.74-.66-.2-1.03-.89-.83-1.55.21-.73,1.05-1.09,1.73-.76h0Z"/>
        <path class="cls-5" d="m64.11,103.28c6.76-9.52,15.05-18,25.02-24.12.62-.39,1.27.53.66.98-2.3,1.68-4.55,3.43-6.62,5.38-6.17,5.74-11.58,12.51-15.9,19.71-1.31,2.21-4.56.22-3.16-1.95h0Z"/>
      </g>
      <g>
        <path class="cls-4" d="m14.49,185.72c15.63-18.13,32.38-35.43,51.88-49.46,7.35-5.2,14.85-10.01,22.55-14.66,10.24-5.94,20.66-11.43,29.28-19.61,2.24-1.96,4.5-3.9,6.85-5.75.23-.18.56-.14.74.09.16.2.15.48,0,.66-3.94,4.54-7.79,9.09-12.46,12.97-7.03,5.76-14.95,9.93-22.57,14.67-7.48,4.71-14.91,9.67-22.01,14.91-18.98,13.97-35.38,31.35-50.86,49.03-1.87,2.16-5.26-.51-3.4-2.85h0Z"/>
        <path class="cls-4" d="m91.12,97c-1.64,3.12-3.32,6.22-5.03,9.3-1.46,2.67-3.71,6.39-4.53,9.29-1.03,3.23-1.62,6.77-2.89,10.25-1.22,3.49-3.17,6.75-5.46,9.63-1.45,1.77-4.14-.34-2.74-2.18,2.22-2.57,4.1-5.39,5.37-8.55,1.92-4.67,2.81-10.45,5.64-14.96,2.68-4.39,5.62-9.25,8.38-13.55.5-.78,1.73-.06,1.26.77h0Z"/>
        <path class="cls-4" d="m118.57,91.6c-4.11,3.22-8,6.97-11.03,11.21-2.54,3.72-4.32,8-5.57,12.31-.14.52-.3,1.23-.35,1.7-.09,1.03-1,1.79-2.03,1.7-1.14-.09-1.94-1.21-1.66-2.32,1.63-5.36,4.37-10.38,7.76-14.8,3.52-4.22,7.71-7.67,12.19-10.78.62-.42,1.3.51.68.97h0Z"/>
        <path class="cls-4" d="m114.44,106.19c5.34.35,10.76-1.31,15.49-3.82,1.45-.74,3.43-1.97,4.81-2.87.5-.36,1.08.38.59.78-4.45,3.73-9.54,6.84-15.22,8.29-1.69.33-7.64,1.95-7.36-1.15.13-.82.9-1.33,1.69-1.23h0Z"/>
        <path class="cls-4" d="m107.41,111.74c6.12,2.07,12.99,2.19,19.4,1.43,1.04-.12,1.29,1.44.26,1.65-5.07,1.05-10.28,1.48-15.46.98-1.76-.18-3.43-.4-5.3-.92-.89-.25-1.41-1.16-1.16-2.05.26-.97,1.34-1.48,2.26-1.09h0Z"/>
        <path class="cls-4" d="m81.36,127.24c5.31,1.11,11.07.72,16.34-.55,5.41-1.41,9.75-5.24,14.06-8.69.68-.63,1.77.24,1.29,1.04-3.27,5.25-8.65,8.73-14.43,10.74-5.91,1.57-12.25,2.08-18.24.56-2.07-.67-1.1-3.75.99-3.1h0Z"/>
        <path class="cls-4" d="m115.52,130.36c-4.58.93-9.23,1.28-13.87.59-1.56-.27-3.12-.67-4.65-1.3-.69-.29-1.02-1.08-.74-1.77.3-.73,1.18-1.05,1.88-.69,3.88,1.86,8.39,2.15,12.67,1.99,1.48-.07,2.98-.2,4.42-.42,1.01-.16,1.3,1.38.29,1.6h0Z"/>
        <path class="cls-4" d="m107.92,100.7c4.25.33,8.85-.47,12.37-3.02.44-.35.98.31.55.67-2.64,2.33-6.06,3.61-9.52,4.16-1.17.18-2.3.29-3.55.29-.58,0-1.05-.48-1.05-1.06,0-.63.57-1.13,1.19-1.04h0Z"/>
        <path class="cls-4" d="m80.53,113.01c8.42-4.14,16.2-9.85,22.44-16.89.64-.72,1.78.23,1.15.99-3.1,3.72-6.62,7.06-10.42,10.05-3.82,3-7.84,5.66-12.18,7.9-.56.29-1.25.06-1.53-.5-.29-.58-.05-1.29.54-1.55h0Z"/>
      </g>
    </g>
  </g>
</svg>