<?xml version="1.0" encoding="UTF-8"?>
<svg xmlns="http://www.w3.org/2000/svg" viewBox="0 0 199.22 236.95">
  <defs>
    <style>
      .cls-1, .cls-2, .cls-3 {
        stroke-width: 0px;
      }

      .cls-1, .cls-3 {
        fill: #008d4a;
      }

      .cls-4 {
        isolation: isolate;
      }

      .cls-2 {
        fill: #fff;
      }

      .cls-3 {
        mix-blend-mode: multiply;
      }
    </style>
  </defs>
  <g class="cls-4">
    <g id="Layer_2" data-name="Layer 2">
      <g id="Blancos">
        <path class="cls-2" d="m198.59,116.52c-.35-3.79-.82-7.62-1.4-11.4-.1-.68-.18-1.42-.27-2.18-.4-3.53-.9-7.93-2.85-12.28-4.86-10.89-14.48-17.14-26.39-17.14-4.51,0-9.36.91-14.44,2.69-3.52,1.24-7.12,2.91-10.68,4.86,2.85-22.6-4.74-47.02-21.08-64.85-3.9-4.25-8.48-7.87-13.62-10.73-6.42-3.59-13.24-5.49-19.71-5.49-3.82,0-7.51.65-10.96,1.94-7.04,2.63-11.95,7.39-15.83,11.71-12.12,13.47-20.06,28.64-22.98,43.87-2.73,14.29-.81,29.03,4.82,42.06-.31,0-.61-.02-.92-.02-.93,0-1.85.02-2.76.06-19.64.9-34.71,13.26-38.4,31.5-.85,4.21-1.23,8.62-1.13,13.12.27,11.51,3.65,22.73,9.52,31.57,6.08,9.15,14.97,16.23,25.03,19.92,3.67,1.35,7.25,2.18,10.41,2.91,2.85.66,5.54,1.29,7.59,2.14,3.27,1.37,6.18,4.05,7.98,7.36.86,1.58,1.57,3.99,2.32,6.53.41,1.39.83,2.83,1.34,4.34.07.21.14.45.22.71.55,1.76,1.38,4.42,2.82,7.07,5.01,9.18,12.93,10.17,16.1,10.17,3.7,0,7.36-1.19,10.59-3.45,1.88-1.31,6.41-4.49,8.79-9.63,2.34,1.82,8.03,5.63,14.85,5.63,2.99,0,5.92-.73,8.48-2.13,7.94-4.32,10.04-12.55,11.17-16.97.12-.49.29-1.15.34-1.29,1.57-4.35,4.37-7.81,9.33-11.57,2.78-2.11,6.58-3.83,10.6-5.65,5.31-2.41,11.33-5.14,17-9.56,10.99-8.59,18.67-20.01,22.19-33.03,3.26-12.04,2.73-23.84,1.91-32.78Z"/>
      </g>
      <g id="Productos">
        <g>
          <path class="cls-1" d="m158.24,90.35c-13.74,4.84-28.97,18.01-33.43,24.91-4.52,6.99-7.44,15.1-7.8,23.42-.66,15.34,9.59,28.26,8.37,43.27-.69,8.52-9.43,16.42-14.23,23.04-2.03,2.8-1.94,4.86.71,6.97,1.5,1.19,5.03,3.31,7.02,2.23,2.97-1.62,3.54-7.31,4.58-10.2,2.82-7.8,7.88-13.49,14.38-18.42,8.38-6.35,19.07-8.55,27.42-15.08s14.23-15.1,16.95-25.13c2.41-8.9,2.29-18.29,1.45-27.48-.32-3.52-.75-7.02-1.29-10.51-.5-3.28-.63-7.58-1.99-10.62-4.07-9.13-12.76-9.72-22.15-6.41Z"/>
          <path class="cls-1" d="m105.35,124.03c6.36-10.45,14.38-20.01,18.92-31.37,8.85-22.17,2.01-49.03-13.82-66.31-2.84-3.1-6.2-5.72-9.87-7.77-5.49-3.07-12.21-4.79-18.1-2.59-3.96,1.48-7.1,4.54-9.93,7.68-9.36,10.41-16.77,22.91-19.4,36.66-4.15,21.68,5.66,46.14,24.66,57.93,1.51.94,2.93,1.81,4.31,2.93,10.13,8.24,10.94,19.91,9.42,32.08-.7,5.63-1.98,11.11-2.21,16.8-.06,1.51-.38,3.83.86,5,1.54,1.45,8.46,1.33,9.49-.71,1.09-2.16.22-5.37.08-7.67-.23-3.68-.73-7.34-.75-11.03-.08-10.82.48-21.92,6.12-31.28.07-.12.15-.25.23-.37Z"/>
          <path class="cls-1" d="m15.01,143.89c.19,8.35,2.58,16.93,7.02,23.62,4.24,6.39,10.49,11.49,17.71,14.14,6.06,2.22,12.65,2.8,18.6,5.29,6.54,2.73,12.01,7.83,15.39,14.04,2.26,4.17,3.23,8.84,4.71,13.31.99,2.98,2.59,9.95,6.91,6.93,1.93-1.35,3.97-3.06,3.89-4.29-.24-3.78-6.97-10.69-8.96-15.37-2.75-6.44-5.03-13.25-4.01-20.19.98-6.72,3.37-13.2,4.32-19.91s-.05-14.31-1.73-20.7c-1.78-6.75-5.22-13.23-10.59-17.68-7.55-6.27-18.37-8.91-28.03-8.47-11.9.54-21.95,7.48-24.38,19.49-.64,3.14-.91,6.45-.83,9.8Z"/>
          <path class="cls-3" d="m72.45,161.06c-.66,2.09-2.14,3.65-3.53,5.76-2.21,3.66-3.57,8.17-2.85,12.42-2.72-5.12-5.47-10.22-8.27-15.29-.52-11.73,10.14-19.17,7.11-32.22-.41,3.02-.63,6.04-1.5,8.78-2.45,6.76-7.58,14.09-6.68,21.47-3.1-5.61-6.25-11.2-9.44-16.77.57-3.57,1.93-6.77,3.45-10.09,1.71-3.66,3.7-8.87.9-12.54,1.04,4.31-1.15,7.86-2.86,11.66-1.34,2.93-2.44,6.34-2.26,9.64-4.14-7.19-8.35-14.35-12.64-21.46,2.57,5.67,5.26,11.29,8.07,16.84-.88-.73-1.88-1.34-2.97-1.75-1.94-.74-3.67-1.03-5.51-1.95-3.78-1.41-6.15-4.29-8.98-7.08,2.44,6.64,7.12,9.7,13.99,10.63,1.43.29,2.8.85,4.19,1.54,2.64,5.17,5.37,10.29,8.21,15.35-8.6-5.47-21.76-.43-27.84-10.18,1.58,6.35,8.89,8.52,14.61,9.06,4.89.58,10.01.34,14.21,2.83,2.79,4.91,5.66,9.77,8.64,14.57-1.59-1.19-3.53-1.99-5.52-2.34-3.06-.7-6.36.29-9.29.86-5.82,1.07-11.81-.17-17.05-3.04,4.43,4.45,11.26,6.26,17.43,5.15,1.56-.3,3.02-.73,4.44-1.02,3.72-.79,7.61-.19,10.89,1.83,2.94,4.69,5.95,9.33,9.07,13.9-1.31-2.51-2.63-5.02-3.96-7.53.44-4.35,1.96-8.45,4.21-12.12,1.23-1.95,2.95-4.05,3.32-6.48.49-2.49.18-4.9-.32-7.23-.38,2.36-.57,4.72-1.29,6.8Z"/>
          <path class="cls-3" d="m146.17,148.42c.48-.47.99-.9,1.54-1.27,9.43-5.96,22.99-6.69,29.17-17.12-8.13,8.55-21.02,8.83-29.82,16.34-.14.14-.28.28-.42.43,1.76-6.13,3.42-12.26,6.09-18.06.99-2.18,2.08-4.3,3.22-6.4,2.94-2.34,6.26-4.03,9.81-5.3,4.36-1.59,9.51-3.94,11.25-8.62-3.15,3.66-7.55,5.09-11.95,6.67-2.65.97-5.28,2.38-7.44,4.28,4.38-7.53,9.53-14.62,14.54-21.79-3.99,4.65-7.94,9.4-11.55,14.39.55-2.31.53-4.83.74-7.05.35-3.61.83-7.02,2.21-10.45-2.81,2.57-3.87,6.58-4.26,10.24-.29,3.22.22,6.12-.08,9.22-3.1,4.44-5.91,9.07-8.24,13.99-.68,1.41-1.28,2.86-1.85,4.32-.04-1.22-.19-2.44-.39-3.63-.56-3.52-1.92-7.19-3.03-10.56-.98-3.47-1.16-6.98-.86-10.65-2.16,4.61-1.7,10.01.04,14.7,1.34,3.98,2.76,7.81,3.57,11.9-2.06,5.7-3.49,11.63-5.21,17.39-1.03,3.46-2.24,6.84-3.56,10.18.03-.44.05-.88.06-1.31.22-14.04-14.87-24.28-11.43-38.67-3.71,7.5.22,16.15,3.98,22.76,3.4,5.98,6.82,12.29,6.59,19.23-3,7.34-6.5,14.49-9.87,21.71,2.56-4.29,5.06-8.64,7.39-13.07.54-.52,1.14-.96,1.81-1.26,4.51-1.63,9.38-2.9,14.11-3.96,6.31-1.43,13.65-3.51,17.36-9.31-4.96,4.59-11.44,5.87-17.83,7.3-4.92,1.15-9.71,2.64-14.16,5.09-.12.08-.22.19-.34.28,3.03-5.93,5.73-12.03,7.75-18.39.37-1.18.73-2.37,1.07-3.56Z"/>
          <path class="cls-3" d="m95.38,110.66c-.02-6.69-.41-13.36-1-20.03.37-1.12.78-2.21,1.3-3.25,5.18-11.19,23.67-22.14,20.83-35.77.12,13.56-17.65,22.78-21.74,35.4-.22.64-.39,1.29-.54,1.95-.7-7.57-1.63-15.14-2.53-22.71,1.15-5.2,3.07-10.13,5.43-14.9,2.81-5.75,6.54-11.59,7.1-18.16-2.15,6.24-5.94,11.4-8.89,17.27-1.87,3.87-3.4,8.04-4.05,12.32-1.56-13.31-2.9-26.64-2.62-40.03-.82,8.28-.87,16.53-.48,24.77-2.68-6.57-8.36-12.18-10.62-18.94.44,8.95,7.66,15.28,10.86,23.25.64,9.85,1.82,19.69,2.98,29.53-5.81-12.25-21.18-18.97-22.61-33.43-1.24,15.51,15.51,23.17,22.8,35.06,1.29,10.99,2.51,21.98,2.86,33-1.39-6.47-6.11-11.8-11.55-15.6-3.25-2.36-6.67-4.05-9.42-6.64-2.79-2.55-5.11-5.64-6.89-9.11,1.01,3.78,3.06,7.32,5.8,10.22,2.64,2.92,6.24,4.84,9.32,7.13,3.1,2.27,6.06,4.67,8.38,7.63,2.05,2.6,3.49,5.65,4.43,8.94.06,3.18.05,6.36-.06,9.54.59-5.24.86-10.47.89-15.69,2.3-6.36,6.53-11.46,11.19-16.3,4.82-5.17,10.44-11.03,11.04-18.47-2.22,7.04-7.58,11.88-12.5,17.11-4.25,4.45-8.32,9.81-9.73,15.91Z"/>
        </g>
      </g>
    </g>
  </g>
</svg>