<?xml version="1.0" encoding="UTF-8"?>
<svg xmlns="http://www.w3.org/2000/svg" viewBox="0 0 239.92 137.41">
  <defs>
    <style>
      .cls-1 {
        fill: #19995c;
      }

      .cls-1, .cls-2, .cls-3, .cls-4, .cls-5, .cls-6 {
        stroke-width: 0px;
      }

      .cls-2 {
        fill: #99d1b7;
      }

      .cls-3 {
        fill: #008d4a;
      }

      .cls-7 {
        isolation: isolate;
      }

      .cls-4 {
        fill: #fff;
      }

      .cls-5 {
        fill: #33a46e;
      }

      .cls-6 {
        fill: #eab520;
        mix-blend-mode: hard-light;
        opacity: .28;
      }
    </style>
  </defs>
  <g class="cls-7">
    <g id="Layer_2" data-name="Layer 2">
      <g id="Blancos">
        <path class="cls-4" d="m239.47,77.74c-.22-.95-.51-1.79-.79-2.5-.13-1.08-.38-2.36-.86-3.74-.49-1.4-1.05-2.48-1.39-3.12l-.05-.1c-.38-.88-.81-1.66-1.23-2.33-.28-.93-.67-1.97-1.23-3.05-.73-1.39-1.59-2.54-2.47-3.49-.43-1.36-1.13-2.95-2.26-4.55-1.25-1.77-2.64-2.98-3.52-3.69-.02-.02-.03-.03-.05-.05-.58-1.08-1.35-2.22-2.37-3.32-.58-.63-1.15-1.16-1.64-1.58-.59-.84-1.41-1.86-2.5-2.87-2.1-1.94-4.31-2.95-5.91-3.5-.46-.42-1.02-.9-1.68-1.37-.69-.5-1.37-.92-2-1.26-1.29-1.78-2.89-3.24-4.8-4.36-.91-.53-1.7-.91-2.27-1.19-.12-.06-.24-.11-.31-.15-.34-.18-.68-.35-1.03-.51.15-.39.28-.8.41-1.24,1.55-3.95,1.57-7.98.07-11.99-1.79-4.79-5.5-8.24-10.18-9.65-.41-.25-.86-.52-1.35-.77l-.2-.12c-.54-.31-1.42-.82-2.51-1.31l-.06-.03c-.65-.35-1.74-.94-3.17-1.47-1.15-.43-2.33-.73-3.57-.9-.71-.3-1.52-.6-2.43-.84-.99-.26-1.89-.41-2.64-.5-.87-.33-1.96-.67-3.21-.89l-.33-.07c-.62-.14-1.56-.35-2.7-.5-.86-.12-1.74-.17-2.67-.17-.31,0-.63,0-.95.02-.42-.03-.85-.04-1.3-.04-1.02-.25-2.35-.5-3.89-.53-.12,0-.26,0-.38,0-1.37,0-2.61.17-3.7.43-.97-.2-2.11-.34-3.38-.34-.36,0-.81.02-1.17.04-1.94.14-3.56.6-4.78,1.06-.08,0-.17.02-.25.03-.72.01-1.87.03-3.29.25-1.6.25-2.92.68-3.77.99-.72.13-1.77.33-2.96.7l-.44.13c-.61.18-1.4.42-2.31.75-.89.23-2.39.65-4.09,1.52-1.41.72-2.48,1.47-3.12,1.92l-.17.12c-1.38.88-2.4,1.78-2.96,2.26l-.09.08c-.94.73-1.7,1.49-2.32,2.19-.91.62-1.94,1.44-2.94,2.53-.38.41-.74.81-1.08,1.21-.6-.43-1.12-.75-1.5-.98-.9-.65-1.78-1.15-2.6-1.54-.83-.71-1.86-1.45-3.11-2.11-1.24-.65-2.32-1.07-3.04-1.35l-.36-.14c-.61-.25-1.32-.55-2.12-.85-.98-.54-2.53-1.3-4.55-1.78-1.34-.32-2.57-.52-3.44-.66-.89-.14-1.81-.22-2.72-.22-1.16,0-2.15.12-2.92.24-.79.02-1.46.09-1.97.15-.42-.01-.84-.02-1.26-.02-.38,0-.75,0-1.12.02h-.35c-1.03-.23-2.32-.43-3.79-.43-.76,0-1.52.05-2.25.16-1.6.23-2.97.65-4.07,1.1-.22.03-.46.06-.7.1-4.92.27-9.22,2.63-12.21,6.71-1.86,2.54-2.87,5.61-2.89,8.75v.11c-.07.76-.16,2.03-.06,3.54.08,1.17.26,2.18.44,2.98,0,.89.04,2.03.25,3.32.06.34.12.66.18.96-1.65.41-2.94.98-3.79,1.4-.7.25-1.34.53-1.92.83-.5.09-1.04.21-1.59.37-.21.06-.42.12-.62.19-1.78.03-3.52.34-5.16.93-1.99.71-3.52,1.67-4.61,2.49-.63.14-1.25.32-1.86.53-1.07.24-2.75.7-4.6,1.69-1.53.81-2.76,1.79-3.75,2.77-.43.22-.87.48-1.31.76-1.78,1.15-3.04,2.44-3.88,3.43-1.01.51-2.23,1.25-3.45,2.29-.47.4-.89.8-1.26,1.19-.89.51-1.85,1.18-2.81,2.04-.71.53-1.95,1.48-3.17,2.86-.66.75-1.21,1.5-1.65,2.21-.79.71-1.63,1.58-2.43,2.67-.65.9-1.16,1.79-1.55,2.58-.64.72-1.33,1.61-1.96,2.67-1.04,1.75-1.58,3.36-1.87,4.33-.11.27-.21.53-.3.79-.77,1.02-1.42,2.14-1.93,3.36-.47,1.12-.78,2.18-.98,3.15-.41.78-.82,1.69-1.15,2.71-.29.91-.49,1.74-.63,2.38-.39.86-.89,2.1-1.22,3.6-.29,1.29-.41,2.43-.48,3.2-.17.61-.4,1.47-.56,2.51-1.21,4.67-.62,9.07,1.77,13.09,2.17,3.65,5.58,6.17,9.53,7.18.75.48,1.55.89,2.39,1.25.92.39,1.87.68,2.84.88.69.39,1.42.73,2.18,1.02,1.07.41,2.17.69,3.29.85.53.26,1.1.5,1.7.71l.27.11c.55.22,1.37.56,2.35.88,1.05.34,2.14.56,3.24.68,1.35.86,2.83,1.5,4.44,1.92,1.45.38,2.93.56,4.52.56.14,0,.28,0,.43,0,.54.05,1.09.08,1.63.08h0c1.02.45,2.48.99,4.25,1.3.87.15,1.76.22,2.64.22.41,0,.8-.02,1.18-.04,1.29.52,2.79.93,4.5,1.09.49.04,1,.07,1.5.07,2.07,0,3.8-.39,5.02-.76.01,0,.02,0,.03,0,1.26.36,2.77.63,4.48.63.19,0,.42,0,.61-.01.46-.02.9-.05,1.33-.11.9.17,1.87.27,2.9.27.58,0,1.24-.04,1.81-.11,1.89-.22,3.4-.71,4.28-1.02.89-.22,1.7-.49,2.43-.8.83-.09,1.66-.24,2.46-.45.38-.1.74-.21,1.08-.32,1.84-.06,3.63-.42,5.35-1.08,1.79-.69,3.1-1.53,3.87-2.04,1.23-.66,2.34-1.46,3.33-2.41,1.17-.38,2.5-.94,3.85-1.81,2.14-1.37,3.62-3.04,4.62-4.47.39-.3.73-.59,1.03-.84.09-.05.19-.1.29-.16.48.61.91,1.08,1.24,1.43.66.87,1.31,1.55,1.81,2.04.3.44.7,1.01,1.19,1.63.41.61,1.15,1.71,2.24,2.89.75.81,1.47,1.44,2.01,1.9.54.68,1.32,1.59,2.39,2.53.82.73,1.57,1.28,2.11,1.67.59.6,1.5,1.48,2.72,2.35.67.48,1.59,1.14,2.6,1.79,1.41.91,2.81,1.5,4.07,1.88.48.31,1,.62,1.58.91,1.09.55,2.13.93,3.03,1.19.54.32,1.18.66,1.9.98.74.41,1.99,1.09,3.65,1.64,1.47.48,3.01.76,4.59.81.11.03.22.07.34.1.87.37,2.38.95,4.27,1.28.85.15,1.7.22,2.55.22,1.75,0,3.48-.3,5.14-.91,4.16-1.52,7.18-4.13,9.28-8.06.47-.73,1.2-1.86,1.92-3.26,1.05-2.05,1.48-3.95,1.68-5.11.17-.54.31-1.03.42-1.44.44-.93,1.04-2.35,1.43-4.13.36-1.64.42-3.12.38-4.3,0-.03.01-.05.02-.08.28.03.56.04.85.06.73.24,1.55.45,2.45.6.91.16,1.85.23,2.78.23.54,0,1.05-.03,1.52-.07.18.03.37.06.57.09.87.23,2.34.56,4.15.64.28.01.57.02.85.02.93,0,1.7-.06,2.23-.1h.07c.51.04,1.29.1,2.19.1h.3c1.17-.02,2.13-.12,2.76-.19l.18-.02c2.07-.09,3.83-.57,5.13-1.05.22-.01.43-.02.64-.03.47-.02.93-.04,1.39-.06.44.02.88.03,1.31.03.69,0,1.33-.03,1.99-.1.86-.08,1.62-.21,2.23-.34.21,0,.44.01.68.01.89,0,1.78-.06,2.63-.19.5-.07.96-.16,1.38-.25.29.01.6.02.93.02,1.17,0,2.33-.12,3.45-.35.09-.02.17-.04.25-.06.47.04.96.07,1.47.07h0c1.5,0,3-.21,4.43-.64,2.89-.85,5.02-2.34,6.53-3.78.82-.27,1.72-.63,2.65-1.12,1.2-.63,2.19-1.34,3-2,1.32-.61,2.88-1.54,4.39-2.97,1.52-1.44,4.96-4.72,5.47-10.69.29-1.52.34-2.82.29-3.95.23-1.62.32-3.83-.27-6.32Z"/>
      </g>
      <g id="Productos">
        <g>
          <path class="cls-3" d="m15.27,99.27c-.62-1.04-.05-1.44.14-2.98.08-.68.42-1.49.58-2.41.13-.73.09-1.6.29-2.45.17-.74.72-1.47.94-2.3.2-.75.3-1.59.56-2.39.24-.74,1.06-1.33,1.35-2.12.27-.74,0-1.74.31-2.5s2.02-.84,2.38-1.59-.45-2.01-.06-2.74.44-1.62.87-2.33,1.29-1.12,1.74-1.81.53-1.62,1.01-2.29,1.5-.91,2.01-1.55.62-1.6,1.17-2.22,1.33-.99,1.9-1.58,1.67-.59,2.27-1.16.95-1.34,1.57-1.88,1.55-.62,2.2-1.12,1.15-1.12,1.82-1.59,1.01-1.36,1.7-1.81,1.66-.36,2.37-.78.88-1.73,1.6-2.12,1.64-.36,2.38-.71,1.77.03,2.52-.3,1.29-1.06,2.05-1.36,1.29-1.16,2.07-1.43,1.81.34,2.6.09,1.46-.69,2.25-.91,1.66,0,2.45-.19,1.37-1.18,2.17-1.36,1.49-.79,2.3-.94,1.64-.06,2.45-.2,1.54-.72,2.35-.83,1.62-.2,2.44-.29,1.75,1.25,2.57,1.18,1.59-.24,2.41-.3,1.6-1.54,2.43-1.58c1.2.03.77,1.72,2.27,1.92.68.09,1.49.04,2.39.18.73.12,1.49.36,2.34.52.75.14,1.83-1.2,2.66-1.03.76.16,1.19,1.93,2,2.12.76.18,1.85-.92,2.65-.71s1.46.73,2.25.95,1.43.79,2.2,1.04,1.66.12,2.42.39,1.58.41,2.32.71,1.71.17,2.44.5,1.02,1.64,1.74,2.01,1.46.69,2.15,1.09,1.32.93,1.98,1.37,1.98.07,2.61.56.62,1.81,1.2,2.36,1.49.99,2,1.6c.32,1.15.54,1.13.21,2.62-.14.66-.71,1.38-.94,2.26-.19.7-1.29,1.21-1.55,2.03-.22.71.43,1.77.15,2.57-.25.72-1.27,1.19-1.57,1.96-.28.71-.77,1.36-1.11,2.11-.31.71.1,1.77-.26,2.51s-.89,1.33-1.27,2.04-1.8.79-2.21,1.49-.23,1.68-.66,2.36.1,1.97-.35,2.63-1.44.93-1.92,1.58-.69,1.48-1.19,2.11-.71,1.51-1.24,2.12-2.24.11-2.79.69-.53,1.69-1.11,2.25-1.4.82-2,1.36-1.47.69-2.09,1.2-1.16,1.04-1.8,1.53-1.21.99-1.88,1.45-.78,1.68-1.46,2.11-1.71.25-2.41.66-1.71.15-2.42.53-.71,2.15-1.44,2.49-1.39.95-2.14,1.24-1.85-.36-2.62-.11-1.44.79-2.22,1-1.71-.27-2.5-.1-1.41,1.18-2.21,1.31-1.57.58-2.36.68-1.74-1.26-2.54-1.2-1.54,1.02-2.35,1.05-1.62-.83-2.42-.83-1.58-.22-2.38-.24-1.63.7-2.43.65-1.67.63-2.47.55-1.48-1.29-2.28-1.38-1.54-.55-2.33-.66-1.8,1.06-2.58.92-1.51-.75-2.29-.9-1.5-.71-2.27-.88-1.76.43-2.53.25-1.7.08-2.47-.12-1.12-2.04-1.89-2.25-1.55-.41-2.31-.64-1.94.77-2.68.53c-.78-.25-1.52-.62-2.26-.87-.78-.27-1.09-1.82-1.82-2.08-.79-.28-2.09.93-2.81.66-.79-.3-.97-2.05-1.68-2.33-.81-.32-2.18.91-2.86.63-.85-.36-.94-2.17-1.56-2.44-1.4-.63-2.66,1.22-3.28.19Z"/>
          <path class="cls-2" d="m30.51,89.32c18.96-15.2,51-25.29,75.04-19.74-9.89-.56-19.61.73-29.22,2.73-16.07,3.3-31.35,9.26-45.82,17.02h0Z"/>
          <path class="cls-3" d="m125.51,61.01c-.09,1.18.77.42,1.63,1.68.38.55.37,1.52.91,2.26.43.58.79,1.31,1.32,1.99.46.59,1,1.17,1.53,1.82.48.58.64,1.5,1.18,2.12.5.58,1.07,1.15,1.62,1.75.52.57,1.4.84,1.96,1.43s.97,1.25,1.54,1.82,1.95.23,2.54.78-.1,2.44.5,2.98,2.15-.07,2.76.45.6,1.76,1.23,2.25,1.26.97,1.9,1.45,1.73.3,2.39.76.78,1.67,1.45,2.1,1.54.54,2.22.95,1.55.48,2.24.87.97,1.55,1.68,1.92,1.63.31,2.35.66,1.44.68,2.17.99,1.73-.06,2.47.23,1.43.64,2.19.9,1.31,1.08,2.08,1.3,1.52.48,2.29.68,1.68-.24,2.46-.07,1.46.79,2.24.92,1.65-.38,2.44-.28,1.53.45,2.32.51,1.56.43,2.36.47,1.59-.11,2.39-.11,1.65.12,2.45.11,1.65-.18,2.44-.2,1.62-.76,2.41-.8,1.63-.19,2.42-.23c.83-.05,1.63-.05,2.42-.12.83-.06,1.65.08,2.44,0,.84-.08,1.61-.37,2.39-.47.84-.1,1.67.15,2.45.03.83-.12,1.6-.4,2.37-.53.83-.15,1.73.27,2.5.11.83-.17,1.47-.97,2.23-1.15.83-.21,2.02,1.04,2.76.83.83-.24,1.22-1.72,1.94-1.98.82-.29,1.4-.93,2.09-1.23.82-.35,1.73-.21,2.38-.56.81-.43,1.2-1.22,1.8-1.62.8-.55,1.78-.5,2.26-.96,1.18-1.12.73-.71.93-1.91s.27-.7.02-2.22c-.11-.67.48-1.62.27-2.52-.17-.71-.71-1.41-.96-2.25-.21-.72.03-1.66-.25-2.46-.25-.72-.72-1.43-1.04-2.21-.29-.72-1.11-1.24-1.46-2-.33-.71-.16-1.69-.55-2.42-.36-.69-1.68-.88-2.09-1.59s-.43-1.58-.87-2.27-.23-1.77-.71-2.44-1.32-1.02-1.82-1.67-1.46-.85-1.99-1.48-.35-1.81-.91-2.41-1.26-1.01-1.84-1.59-.84-1.45-1.44-2-1.74-.46-2.36-.99-1.5-.66-2.15-1.16-1.11-1.15-1.76-1.63-1.55-.53-2.23-.99-1.29-.88-1.98-1.31-.61-2.06-1.31-2.47-1.45-.71-2.17-1.1-2.07.53-2.8.16-.71-2.18-1.45-2.53-1.54-.52-2.29-.85-1.49-.75-2.24-1.04-2.03.87-2.79.62-1.09-2.05-1.86-2.26-1.9.88-2.68.71-1.52-.64-2.31-.76-1.57-.58-2.36-.66-1.65.26-2.45.22-1.61.1-2.41.11-1.57.52-2.38.57-1.7-.94-2.49-.85-1.61.28-2.4.41-1.63.18-2.42.35-1.31,1.41-2.08,1.62-1.84-.52-2.6-.27-1.41.88-2.17,1.17-1.24,1.2-1.98,1.52-1.62.3-2.34.65-1.88-.1-2.58.28-.96,1.61-1.66,2.02-1.8.16-2.48.59-1.5.72-2.15,1.17-.87,1.6-1.51,2.08-1.43.81-2.05,1.3c-.66.52-2.06.1-2.66.61-.65.54-.84,1.59-1.42,2.11-.64.57-.44,1.97-1,2.5-.63.61-1.65.71-2.17,1.24-.65.66-.94,1.49-1.4,2-1.04,1.14-1.78.28-1.87,1.49Z"/>
          <path class="cls-2" d="m205.38,74.43c-19.93-9.91-42.54-12.77-64.55-12.4-4.99,0-10.45.44-15.43.61,4.83-1.1,10.33-2.11,15.31-2.57,21.31-2.19,47.13,1.34,64.67,14.37h0Z"/>
          <path class="cls-1" d="m187.54,23.04c.42,1.12-.11,1.09-.43,2.57-.14.66-.99,1.28-1.22,2.16-.18.7-.12,1.55-.37,2.37-.22.72-.29,1.54-.56,2.33-.25.72-.98,1.3-1.27,2.07-.27.72-.29,1.57-.61,2.32-.3.71-.54,1.48-.89,2.22s-.96,1.28-1.33,2-.5,1.51-.9,2.22-.85,1.33-1.27,2.02-.87,1.32-1.32,1.98-1.04,1.2-1.52,1.84-.8,1.38-1.31,2-.87,1.35-1.42,1.94-1.47.78-2.05,1.34-.72,1.55-1.33,2.08-1.68.46-2.31.95-.99,1.3-1.65,1.76-1.32.87-2.01,1.29-1.23,1.05-1.94,1.43-1.7.13-2.43.47-1.42.64-2.17.93-1.28,1.09-2.04,1.35-1.66-.07-2.44.14-1.4.87-2.19,1.04-1.54.35-2.34.49-1.59.07-2.39.17-1.57.2-2.37.26-1.57.3-2.38.32-1.59-.07-2.39-.08-1.57-.32-2.38-.36-1.62.53-2.43.46-1.51-.81-2.31-.91-1.61.11-2.41-.02-1.61.02-2.41-.13-1.58-.25-2.37-.42-1.09-1.01-1.87-1.2c-.61-1.01-.36-1.02-.7-2.15s-.29-1.15-.63-2.28-.71-1.02-1.05-2.16.05-1.22-.22-2.37-.19-.75-.15-2.24c.02-.67-.57-1.49-.51-2.38.05-.72.12-1.52.22-2.35.08-.74.72-1.45.85-2.26.11-.75-.01-1.56.14-2.36.15-.75.3-1.52.49-2.31s.77-1.4,1-2.17.44-1.48.7-2.23.26-1.56.57-2.3.17-1.65.52-2.37,1.46-1,1.86-1.69.48-1.53.92-2.18.8-1.36,1.29-1.98,1-1.21,1.54-1.79,1.42-.76,2.01-1.3.89-1.34,1.52-1.83,1.17-1.07,1.85-1.49,1.28-.94,2-1.3,1.53-.43,2.27-.73,1.48-.48,2.25-.72,1.52-.3,2.31-.48,1.47-.59,2.27-.71,1.62-.04,2.39-.14,1.59-.18,2.37-.25,1.55-.76,2.33-.81,1.65.62,2.43.59,1.6.15,2.38.15,1.61-.84,2.39-.82,1.6.5,2.38.54,1.62-.05,2.4.02c.81.08,1.64-.06,2.41.04.81.11,1.59.34,2.35.47.81.14,1.52.68,2.27.84.81.18,1.65.08,2.39.28.8.21,1.44.83,2.17,1.06.8.25,1.74-.03,2.44.23.79.3,1.47.76,2.15,1.06.79.35,1.46.8,2.1,1.13.82.42,1.38,1.04,1.94,1.39,1.31.8,2.05-.13,2.47.98Z"/>
          <path class="cls-2" d="m121.87,63.45c6.58-17.84,29.16-30.58,46.79-35.09-17.18,9.28-35.49,18.55-46.79,35.09h0Z"/>
          <path class="cls-5" d="m75.28,23.1c.7-.95.91-.36,2.35-.72.65-.16,1.49-.07,2.36-.24.71-.14,1.4-.83,2.24-.95.74-.1,1.61.57,2.43.5.76-.07,1.53-.06,2.34-.08.77-.02,1.53,0,2.34.02s1.56-.23,2.36-.16,1.63-.35,2.42-.22,1.58.25,2.35.44,1.43.78,2.18,1.03,1.47.55,2.2.85,1.48.55,2.18.92,1.06,1.24,1.73,1.68,1.6.41,2.23.91,1.39.81,1.97,1.36.91,1.31,1.45,1.91,1.19,1.05,1.68,1.7.51,1.55.94,2.23,1.24,1.07,1.63,1.78.66,1.42,1,2.16.33,1.55.63,2.3.61,1.43.87,2.19.72,1.41.94,2.19.39,1.53.58,2.26c.2.78.27,1.57.44,2.3.19.79.23,1.57.39,2.3.17.8.63,1.5.76,2.22.14.81.51,1.55.61,2.28.11.82-.72,1.69-.66,2.41.07.84,1.06,1.57,1.06,2.29,0,.86-.75,1.61-.83,2.3-.1.88.41,1.82.19,2.45-.3.86-1.43,1.1-1.88,1.59-.58.62-.93,1.48-1.66,1.64s-1.67.28-2.44.14-1.48-.8-2.14-1.09c-1.2-.52-1.15-.27-2.2-.76s-.65-.69-2.09-1.19c-.64-.22-1.51-.2-2.36-.54-.68-.27-1.35-.76-2.14-1.12-.69-.31-1.56-.36-2.32-.74-.69-.35-1.21-1.09-1.94-1.49-.68-.38-1.58-.43-2.29-.86-.67-.41-.97-1.42-1.65-1.88s-1.69-.36-2.34-.85-1.09-1.2-1.71-1.72-1.33-.9-1.93-1.45-1.22-1.05-1.79-1.63-.91-1.34-1.45-1.95-1.25-1.04-1.76-1.67-.93-1.31-1.4-1.97-.63-1.5-1.06-2.18-.8-1.37-1.19-2.08-.92-1.32-1.27-2.05-.62-1.47-.93-2.22-.76-1.42-1.03-2.19-.35-1.56-.57-2.34-.68-1.48-.86-2.27-.42-1.56-.55-2.36.08-1.63-.02-2.44-.45-1.57-.5-2.39.11-1.7.09-2.52Z"/>
          <path class="cls-2" d="m90.04,31.89c11.72,6.38,25.89,19.21,28.67,32.73-7.39-12.73-18.67-22.13-28.67-32.73h0Z"/>
          <path class="cls-5" d="m107.28,74.36c-.05.77-.06,1.55-.04,2.32s.19,1.53.27,2.3-.09,1.58.04,2.34.99,1.35,1.18,2.11-.23,1.65,0,2.39,1.14,1.23,1.41,1.96-.13,1.7.17,2.41,1.09,1.2,1.41,1.9.2,1.62.55,2.3,1.31,1.05,1.67,1.73.52,1.47.9,2.13.32,1.62.72,2.26c.42.67,1.09,1.19,1.54,1.84s1.15,1.12,1.63,1.74.86,1.33,1.37,1.93.88,1.34,1.41,1.92,1.22,1.03,1.78,1.58.96,1.3,1.55,1.82,1.28.95,1.9,1.44,1.11,1.18,1.75,1.64,1.3.93,1.97,1.36,1.78.11,2.47.5,1.15,1.17,1.86,1.53,1.59.32,2.31.64,1.3.97,2.04,1.25,1.39.8,2.15,1.05,1.72-.26,2.48-.05,1.43.71,2.21.88,1.58.69,2.36.83c1.15-.42.87-.65,1.71-1.94.38-.58.85-1.3,1.28-2.13.34-.66.26-1.61.59-2.43.28-.71.43-1.51.68-2.34.23-.74.76-1.44.94-2.27.17-.76-.18-1.64-.06-2.48.11-.78.46-1.54.52-2.38.05-.78.47-1.59.48-2.43,0-.79.09-1.63.04-2.47-.05-.79-.52-1.57-.63-2.41-.1-.78-.69-1.5-.84-2.33-.14-.78.05-1.63-.14-2.45-.18-.77-.04-1.65-.27-2.46s-.72-1.47-.98-2.26-.83-1.4-1.12-2.18.12-1.78-.2-2.55-.8-1.42-1.14-2.17-.42-1.59-.8-2.34-1.45-1.07-1.85-1.8-.85-1.36-1.26-2.08-.1-1.82-.54-2.53-.81-1.42-1.26-2.12c-.47-.73-1.74-.95-2.24-1.67s-.86-1.52-1.4-2.22-.62-1.76-1.2-2.42-1.73-.78-2.35-1.4-.83-1.68-1.5-2.24c-.74-.63-1.57-.87-2.23-1.19-.81-.4-1.52-.87-2.31-1.02s-1.66.2-2.55.05c-.74-.13-1.41-.78-2.3-1.07-.7-.23-1.66-.17-2.63-.21-.82-.03-1.69.17-2.58.28s-1.83-.19-2.66.04c-.87.24-1.79.51-2.53.89-.84.43-1.61,1.12-2.12,1.72-.52.61-1.01,1.26-1.47,1.89s-.43,1.63-.83,2.29-1.13,1.19-1.47,1.89-.69,1.45-.95,2.19-.58,1.52-.74,2.28-.12,1.61-.18,2.39Z"/>
          <path class="cls-2" d="m141.45,104.52c-9.37-12.51-17.65-25.69-27.75-37.65,12.37,8.18,22.54,23.92,27.75,37.65h0Z"/>
          <path class="cls-1" d="m110.22,60.88c-2.37-.32-1.96.19-4.83.15-1.4-.02-3.01.1-4.76.3-1.51.17-3.09.33-4.7.77-1.5.41-2.9,1.14-4.37,1.85s-2.7,1.5-3.97,2.54c-1.19.97-2.55,1.84-3.55,3.17-.9,1.21-1.39,2.74-2.07,4.29-.6,1.37-1.63,2.71-2.01,4.38-.33,1.46-.54,3.07-.67,4.78-.12,1.5-.04,3.24.01,4.94,1.64,1.61,1.9-.23,4.71-.38,1.33-.07,2.95.44,4.64.21,1.43-.19,2.92-.76,4.5-1.12,1.45-.33,3.05-.43,4.55-.93s2.56-1.8,3.96-2.48,3.1-.74,4.38-1.62,2.19-2.19,3.3-3.27,2.12-2.17,3.01-3.46c.85-1.22,1.59-2.56,2.23-4.02.59-1.35.75-2.87,1.13-4.44.34-1.42.64-2.46.78-4.08-2.66-2.02-2.97-1.15-6.28-1.6Z"/>
          <path class="cls-2" d="m88.13,78.28c7.4-9.54,20.93-14.39,32.66-11.4-2.99.51-5.87.82-8.69,1.5-8.54,1.85-16.44,5.43-23.97,9.9h0Z"/>
          <path class="cls-3" d="m112.4,62.15c-1.51,1.6-1.1,1.71-.26,4.27.35,1.07.86,2.44,2.2,3.77.87.86,1.97,1.87,3.43,2.81,1.09.7,2.56,1.04,4.04,1.76,2.15.83,1.95,1.46,4.25,1.26s.77-1.51,1.03-4.24c.14-1.44.15-3.11-.02-4.79-.16-1.56-1.04-2.95-1.66-4.43s-1.04-2.97-2.28-4.08c-2.31-1.89-2.02-1.65-5.84.13-1.38.64-3,1.83-4.88,3.53Z"/>
          <path class="cls-2" d="m122.56,70.15c-1.9-2.84-2.86-5.74-4.52-8.53-.54-.85-1.09-1.66-2.18-2.11,4.61-.89,7.2,7.03,6.7,10.64h0Z"/>
          <path class="cls-6" d="m224.87,81.18c-.17-.71-.71-1.41-.96-2.25-.21-.72.03-1.66-.25-2.46-.25-.72-.72-1.43-1.04-2.21-.29-.72-1.11-1.24-1.46-2-.33-.71-.16-1.69-.55-2.42-.36-.69-1.68-.88-2.09-1.59-.39-.68-.43-1.58-.87-2.27-.42-.66-.23-1.77-.71-2.44-.45-.64-1.32-1.02-1.82-1.67-.48-.62-1.46-.85-1.99-1.48-.51-.6-.35-1.81-.91-2.41-.53-.58-1.26-1.01-1.84-1.59-.56-.56-.84-1.45-1.44-2-.58-.54-1.74-.46-2.36-.99-.6-.51-1.5-.66-2.15-1.16-.62-.49-1.11-1.15-1.76-1.63-.64-.47-1.55-.53-2.23-.99-.65-.44-1.29-.88-1.98-1.31-.67-.42-.61-2.06-1.31-2.47-.68-.4-1.45-.71-2.17-1.1-.7-.38-2.07.53-2.8.16-.71-.36-.71-2.18-1.45-2.53-.72-.34-1.54-.52-2.29-.85-.76-.33-1.49-.75-2.24-1.04-.77-.29-2.03.87-2.79.62-.58-.19-.9-1.21-1.33-1.82.03-.06.07-.12.1-.18.35-.74.59-1.5.89-2.22.32-.75.34-1.6.61-2.32.29-.77,1.03-1.35,1.27-2.07.27-.79.34-1.61.56-2.33.25-.82.18-1.66.37-2.37.23-.88,1.08-1.5,1.22-2.16.33-1.48.85-1.45.43-2.57-.42-1.11-1.16-.18-2.47-.98-.57-.35-1.13-.97-1.94-1.39-.64-.33-1.31-.78-2.1-1.13-.68-.3-1.36-.76-2.15-1.06-.71-.26-1.64.02-2.44-.23-.72-.23-1.37-.85-2.17-1.06-.74-.2-1.58-.1-2.39-.28-.75-.16-1.46-.7-2.27-.84-.76-.13-1.54-.36-2.35-.47-.77-.1-1.59.04-2.41-.04-.77-.07-1.58.03-2.4-.02-.78-.05-1.56-.52-2.38-.54-.78-.02-1.58.81-2.39.82-.78,0-1.57-.18-2.38-.15-.78.03-1.62-.65-2.43-.59-.78.06-1.52.73-2.33.81-.78.08-1.57.15-2.37.25-.78.1-1.59.01-2.39.14-.8.12-1.52.54-2.27.71-.78.18-1.57.25-2.31.48-.77.24-1.53.43-2.25.72-.74.3-1.59.38-2.27.73-.71.36-1.34.89-2,1.3-.68.42-1.23,1.02-1.85,1.49-.63.48-.95,1.3-1.52,1.83-.59.53-1.48.72-2.01,1.3-.54.58-1.06,1.18-1.54,1.79-.49.62-.85,1.33-1.29,1.98-.44.66-.53,1.51-.92,2.18-.39.69-1.51.99-1.86,1.69-.35.71-.22,1.64-.52,2.37-.3.73-.31,1.56-.57,2.3-.26.75-.48,1.49-.7,2.23-.23.77-.81,1.42-1,2.17-.19.78-.34,1.56-.49,2.31-.16.8-.03,1.61-.14,2.36-.12.81-.76,1.52-.85,2.26-.07.64-.13,1.25-.18,1.83-.04-.28-.08-.56-.15-.85-.17-.73-.24-1.52-.44-2.3-.19-.72-.36-1.49-.58-2.26-.22-.78-.69-1.46-.94-2.19-.26-.77-.59-1.48-.87-2.2-.3-.75-.3-1.61-.63-2.3-.34-.73-.64-1.48-1-2.16-.39-.71-1.21-1.14-1.63-1.78-.44-.68-.48-1.61-.94-2.23-.49-.64-1.16-1.12-1.68-1.7-.54-.6-.89-1.38-1.45-1.91-.58-.55-1.36-.88-1.97-1.36-.63-.5-1.58-.49-2.23-.91-.67-.43-1.05-1.32-1.73-1.68-.71-.37-1.47-.62-2.18-.92-.74-.31-1.46-.62-2.2-.85-.76-.25-1.43-.85-2.18-1.03-.78-.18-1.59-.32-2.35-.44-.79-.13-1.65.29-2.42.22-.8-.07-1.59.18-2.36.16-.81-.02-1.57-.05-2.34-.02-.81.03-1.58.02-2.34.08-.82.07-1.69-.6-2.43-.5-.83.12-1.53.81-2.24.95-.88.17-1.71.08-2.36.24-1.44.36-1.65-.24-2.35.72.02.82-.15,1.73-.09,2.52.06.82.41,1.6.5,2.39.1.81-.11,1.66.02,2.44.14.8.38,1.59.55,2.36.18.8.65,1.51.86,2.27.22.78.32,1.6.57,2.34.26.77.73,1.46,1.03,2.19.31.75.59,1.5.93,2.22.35.73.89,1.36,1.27,2.05.39.71.77,1.41,1.19,2.08.43.69.6,1.54,1.06,2.18.07.1.14.2.21.3-.61-.04-1.16-.04-1.65-.1-1.51-.2-1.07-1.89-2.27-1.92-.82.04-1.62,1.52-2.43,1.58-.82.06-1.61.22-2.41.3-.82.07-1.77-1.27-2.57-1.18-.82.09-1.65.18-2.44.29-.81.11-1.56.7-2.35.83-.81.13-1.66.05-2.45.2-.81.15-1.52.77-2.3.94-.8.18-1.4,1.16-2.17,1.36-.8.2-1.68-.03-2.45.19-.79.22-1.49.67-2.25.91-.78.25-1.84-.36-2.6-.09-.77.27-1.32,1.14-2.07,1.43-.76.3-1.32,1.04-2.05,1.36-.75.33-1.81-.04-2.52.3-.74.36-1.68.34-2.38.71-.73.39-.92,1.71-1.6,2.12-.71.42-1.7.34-2.37.78-.69.45-1.05,1.35-1.7,1.81-.67.48-1.19,1.1-1.82,1.59-.65.51-1.59.6-2.2,1.12-.63.53-.99,1.33-1.57,1.88-.6.56-1.71.58-2.27,1.16-.57.59-1.37.98-1.9,1.58-.54.62-.67,1.6-1.17,2.22-.51.64-1.54.9-2.01,1.55-.48.67-.57,1.62-1.01,2.29-.45.69-1.34,1.12-1.74,1.81-.42.71-.49,1.63-.87,2.33-.39.73.4,2.02.06,2.74-.36.75-2.07.86-2.38,1.59-.32.77-.04,1.77-.31,2.5-.29.78-1.11,1.37-1.35,2.12-.26.8-.35,1.65-.56,2.39-.23.82-.77,1.55-.94,2.3-.19.86-.16,1.73-.29,2.45-.16.91-.5,1.73-.58,2.41-.19,1.53-.76,1.93-.14,2.98.61,1.03,1.87-.81,3.28-.19.62.28.71,2.09,1.56,2.44.67.28,2.05-.95,2.86-.63.7.28.88,2.03,1.68,2.33.72.27,2.02-.94,2.81-.66.73.26,1.03,1.82,1.82,2.08.74.25,1.48.62,2.26.87.75.24,1.9-.76,2.68-.53.75.23,1.52.42,2.31.64.76.21,1.1,2.05,1.89,2.25.77.2,1.68-.07,2.47.12.77.19,1.74-.42,2.53-.25.78.17,1.48.73,2.27.88.78.15,1.49.77,2.29.9.79.13,1.78-1.04,2.58-.92.79.12,1.53.56,2.33.66.79.1,1.48,1.31,2.28,1.38.8.07,1.67-.6,2.47-.55.8.05,1.63-.68,2.43-.65.8.03,1.58.25,2.38.24.8,0,1.62.86,2.42.83.8-.03,1.55-.99,2.35-1.05.8-.06,1.74,1.29,2.54,1.2.8-.09,1.57-.55,2.36-.68.79-.13,1.42-1.14,2.21-1.31.79-.17,1.72.31,2.5.1.78-.21,1.46-.75,2.22-1,.76-.25,1.87.4,2.62.11.75-.29,1.41-.91,2.14-1.24.73-.33.73-2.11,1.44-2.49.71-.38,1.74-.13,2.42-.53.7-.41,1.74-.23,2.41-.66.68-.43.81-1.66,1.46-2.11.66-.46,1.25-.97,1.88-1.45.64-.49,1.19-1.03,1.8-1.53.62-.51,1.5-.68,2.09-1.2.6-.54,1.43-.81,2-1.36.58-.56.57-1.68,1.11-2.25.56-.58,2.27-.1,2.79-.69.53-.61.75-1.5,1.24-2.12.51-.63.73-1.48,1.19-2.11.48-.65,1.48-.93,1.92-1.58.46-.67-.07-1.97.35-2.63.26-.41.31-.92.38-1.41.2.28.39.56.47.86.18.74-.23,1.65,0,2.39.23.73,1.14,1.23,1.41,1.96.26.72-.13,1.7.17,2.41.3.71,1.09,1.2,1.41,1.9.33.7.2,1.62.55,2.3.35.69,1.31,1.05,1.67,1.73.37.68.52,1.47.9,2.13.39.67.32,1.62.72,2.26.42.67,1.09,1.19,1.54,1.84.45.65,1.15,1.12,1.63,1.74.48.63.86,1.33,1.37,1.93.51.61.88,1.34,1.41,1.92.54.58,1.22,1.03,1.78,1.58.57.55.96,1.3,1.55,1.82.59.52,1.28.95,1.9,1.44.62.49,1.11,1.18,1.75,1.64.64.46,1.3.93,1.97,1.36.66.43,1.78.11,2.47.5.68.39,1.15,1.17,1.86,1.53.7.36,1.59.32,2.31.64.72.32,1.3.97,2.04,1.25.73.28,1.39.8,2.15,1.05.75.25,1.72-.26,2.48-.05.76.21,1.43.71,2.21.88.77.17,1.58.69,2.36.83,1.15-.42.87-.65,1.71-1.94.38-.58.85-1.3,1.28-2.13.34-.66.26-1.61.59-2.43.28-.71.43-1.51.68-2.34.23-.74.76-1.44.94-2.27.17-.76-.18-1.64-.06-2.48.11-.78.46-1.54.52-2.38.05-.78.47-1.59.48-2.43,0-.79.09-1.63.04-2.47-.05-.79-.52-1.57-.63-2.41-.1-.78-.69-1.5-.84-2.33-.14-.78.05-1.63-.14-2.45-.18-.77-.04-1.65-.27-2.46-.21-.76-.72-1.47-.98-2.26-.25-.75-.83-1.4-1.12-2.18-.07-.19-.1-.39-.1-.6.58.26,1.25.4,1.79.73.67.41,1.55.48,2.24.87.69.39.97,1.55,1.68,1.92.7.36,1.63.31,2.35.66.71.34,1.44.68,2.17.99.72.31,1.73-.06,2.47.23.74.28,1.43.64,2.19.9.75.26,1.31,1.08,2.08,1.3.76.23,1.52.48,2.29.68.76.19,1.68-.23,2.46-.07.77.16,1.46.79,2.24.92.78.13,1.65-.38,2.44-.28.78.1,1.53.45,2.32.51.78.07,1.56.43,2.36.47.79.03,1.59-.11,2.39-.11s1.65.12,2.45.11c.83-.01,1.65-.18,2.44-.2.83-.02,1.62-.76,2.41-.8.83-.04,1.63-.19,2.42-.23.83-.05,1.63-.05,2.42-.12.83-.06,1.65.08,2.44,0,.84-.08,1.61-.37,2.39-.47.84-.1,1.67.15,2.45.03.83-.12,1.6-.4,2.37-.53.83-.15,1.73.27,2.5.11.83-.17,1.47-.97,2.23-1.15.83-.21,2.02,1.04,2.76.83.83-.24,1.22-1.72,1.94-1.98.82-.29,1.4-.93,2.09-1.23.82-.35,1.73-.21,2.38-.56.81-.43,1.2-1.22,1.8-1.62.8-.55,1.78-.5,2.26-.96,1.18-1.12.73-.71.93-1.91.2-1.19.27-.7.02-2.22-.11-.67.48-1.62.27-2.52Z"/>
        </g>
      </g>
    </g>
  </g>
</svg>