<?xml version="1.0" encoding="UTF-8"?>
<svg xmlns="http://www.w3.org/2000/svg" viewBox="0 0 178.56 174.64">
  <defs>
    <style>
      .cls-1 {
        fill: #008d4a;
      }

      .cls-1, .cls-2, .cls-3, .cls-4, .cls-5, .cls-6, .cls-7 {
        stroke-width: 0px;
      }

      .cls-8 {
        isolation: isolate;
      }

      .cls-3 {
        opacity: .7;
      }

      .cls-3, .cls-5 {
        fill: #eab520;
      }

      .cls-3, .cls-7 {
        mix-blend-mode: hard-light;
      }

      .cls-4 {
        fill: #fff;
      }

      .cls-6 {
        fill: #cd7534;
      }

      .cls-7 {
        fill: #f1cd69;
        opacity: .15;
      }
    </style>
  </defs>
  <g class="cls-8">
    <g id="Layer_2" data-name="Layer 2">
      <g id="Blancos">
        <path class="cls-4" d="m177.77,56.35C163.21-27.17,19.21-14.39,27.17,71.84,2.07,91.49-6.63,112.9,5.25,135.53c9.71,15.63,30.45,39.69,59.68,39.1,25.72.19,54.61-16.63,62.79-42.57,28.58-5.9,55.89-26.61,50.05-75.7Z"/>
      </g>
      <g id="Productos">
        <g>
          <path class="cls-6" d="m110.52,15.57c19.95,1.41,45.74,10.03,52.55,43.56,5.83,28.7-14.61,48.09-19.39,51.15-18.52,11.85-68.57,13.49-85.71-3.65-15.66-15.66-21.95-43.99-8.99-66.04,14.72-25.06,42.75-26.34,61.54-25.01Z"/>
          <path class="cls-6" d="m93.38,151.26c-25.01,14.37-43.56,5.38-43.56,5.38-15.85-6.22-26.83-21.19-31.82-29.23-.01-.03-.03-.06-.05-.09-2.03-3.28-3.06-7.06-2.95-10.88.09,10.38,13.33,19.63,31.73,17.16,25.73-3.45,50.17-22.08,57.33-35.24,6.91-12.7,5.28-21.88-1.69-26.99.24.15.47.3.69.45,0,0,.19.11.51.36.04.03.09.06.13.1.65.46,1.24.96,1.77,1.47,8.71,8.42,10.96,35.12,10.96,35.12,0,0,1.96,28.01-23.05,42.39Z"/>
          <path class="cls-1" d="m153.65,72.27c1.28,1.88,4.5,1.93,5.83.08.53-.74.76-1.65.87-2.55.37-2.91.22-10.84-4.62-8.56-3.03,1.43-3.82,8.48-2.08,11.03Z"/>
          <path class="cls-1" d="m102.37,71.37c-6.52-4.77-17.72-5.97-31-3.13-.44.09-.88.19-1.32.29-6.75,1.51-14.21,4.15-22.24,8.24-1.93.98-3.87,2.03-5.81,3.15-.93.53-1.82,1.07-2.68,1.62-.58.36-1.14.73-1.69,1.09-.82.56-1.62,1.12-2.39,1.67-14.31,10.41-18.73,21.98-19.99,29.54-.18.87-.26,1.74-.25,2.6.09,10.38,13.33,19.63,31.73,17.16,25.73-3.45,50.17-22.08,57.33-35.24,6.91-12.7,5.28-21.88-1.69-26.99Z"/>
          <g>
            <path class="cls-7" d="m116.43,108.87s-2.25-26.7-10.96-35.12c-.53-.51-1.12-1.01-1.77-1.47-.04-.04-.09-.07-.13-.1-.32-.25-.51-.36-.51-.36-.22-.15-.45-.3-.69-.45,6.97,5.11,8.6,14.29,1.69,26.99-3.3,6.06-10.26,13.27-19.32,19.63-10.62,7.46-24.13,13.74-38.01,15.61-18.4,2.47-31.64-6.78-31.73-17.16-.11,3.82.92,7.6,2.95,10.88.02.03.04.06.05.09,4.99,8.04,15.97,23.01,31.82,29.23,0,0,18.55,8.99,43.56-5.38,15.6-8.97,20.7-23.23,22.34-32.7.99-5.72.71-9.69.71-9.69Z"/>
            <path class="cls-3" d="m155.73,61.24c-3.03,1.43-3.82,8.48-2.08,11.03,1.28,1.88,4.5,1.93,5.83.08.53-.74.76-1.65.87-2.55.37-2.91.22-10.84-4.62-8.56Z"/>
            <path class="cls-3" d="m102.37,71.37c-6.52-4.77-17.72-5.97-31-3.13-.44.09-.88.19-1.32.29-6.75,1.51-14.21,4.15-22.24,8.24-1.48.75-2.96,1.56-4.45,2.39-.45.25-.91.5-1.36.76-.93.53-1.82,1.07-2.68,1.62-.58.36-1.14.73-1.69,1.09-.82.56-1.62,1.12-2.39,1.67-14.31,10.41-18.73,21.98-19.99,29.54-.18.87-.26,1.74-.25,2.6.09,10.38,13.33,19.63,31.73,17.16,13.89-1.86,27.39-8.15,38.01-15.61,9.06-6.36,16.02-13.58,19.32-19.63,6.91-12.7,5.28-21.88-1.69-26.99Zm-53.92,37.08c-.11-1.25,1.09-2.15,2.05-2.96s1.78-2.31.92-3.22c-.81-.86-2.78-.75-2.72-1.93,1-.44,2.03-.89,2.96-1.48.82-.52,1.57-1.14,2.15-1.95.81-1.14.87-3.2,1.99-4.08.77-.6,11.35-1.27,10.67-3.47,1.35,4.38,6.33,7.28,10.8,6.31-1.54,1.83-4.29,2.23-5.89,4-1.03,1.14-1.45,2.7-2.05,4.12-.6,1.42-1.57,2.87-3.07,3.22-1.4.33-2.8-.38-4.18-.79-1.59-.48-3.22-.56-4.85-.39-2.98.31-5.96,1.47-8.77,2.62Z"/>
          </g>
          <g>
            <path class="cls-2" d="m84.96,88.63c.35.15.04.79-.6,1.06-.54.23-.96.48-1.33.86-.25.26-.66.46-1.05.49-.16,0-.33.05-.51.08-.55.1-.78,0-.77-.33,0-.07.03-.14.04-.21.07-.54.68-.79,1.23-.85.18-.02.36-.02.53-.03.42-.01.48-.04.78-.36.27-.29.56-.54,1.01-.69.26-.09.47-.11.66-.02Z"/>
            <path class="cls-2" d="m63.84,94.4c.55-.26.65-.55.74-.85.04-.15.16-.27.43-.3.18-.02.39-.11.56-.09.29.03.29.18-.03.4-.14.09-.28.19-.41.28-.1.06-.24.14-.21.21.04.09.17-.04.27-.07.41-.13.56-.04.37.24-.11.16-.27.31-.34.48-.08.2-.59.52-.89.59-.23.06-.51.14-.43-.11.02-.08-.07-.15-.24.03-.06.06-.16.12-.25.12-.26.01-.41.12-.55.31-.13.17-.31.23-.51.23-.21,0-.43,0-.53-.11-.08-.08-.04-.22.18-.31.35-.15.7-.39,1.05-.42.3-.03.46-.14.58-.34.05-.09.15-.18.23-.28Z"/>
            <path class="cls-2" d="m66.79,87.52c.54-.43,1.08-.53,1.23-.19.12.28.26.54.4.81.1.2-.16.63-.47.81-.37.22-1.12.36-1.33.24-.16-.1-.08-.27.07-.47.11-.15.12-.25-.05-.3-.49-.14-.43-.44.16-.9Z"/>
            <path class="cls-2" d="m56.55,87.35c-.2-.08-.24-.27-.07-.49.14-.18.33-.37.34-.54,0-.1.14-.17.27-.25.15-.09.38-.19.25-.31,0,0,.04-.06.07-.08.18-.15.67-.31.9-.3.24,0,.29.13.23.3-.02.06-.03.12-.08.18-.22.31-.22.55-.09.76.09.13.09.29-.17.49-.27.2-.56.3-.8.24-.14-.03-.31.01-.48.04-.15.02-.28.01-.38-.03Z"/>
            <path class="cls-2" d="m77.59,75.63c.55-.43,1.03-.51,1.27-.2.09.12.19.2.42.23.36.04.36.5.05.82-.2.21-.48.3-.74.35-.29.06-.44-.01-.52-.14-.01-.02.07-.09.11-.13.04-.05.15-.12-.03-.08-.17.04-.33.05-.5.07-.58.06-.71-.1-.44-.53.09-.14.25-.27.38-.39Z"/>
            <path class="cls-2" d="m33.52,116.92c-.18-.05-.23-.19-.41-.26-.17-.07-.08-.28.08-.47.14-.17.65-.3.83-.21.06.03.06.1.11.14.06.05.14.04.23-.08.1-.14.22-.28.33-.42.11-.14.24-.28.42-.41.23-.17.49-.38.74-.38.28,0,.47.12.46.34,0,.14-.05.28-.38.39-.37.12-.08.2-.12.23-.23.18-.44.38-.77.48-.21.06-.38.02-.56.09-.11.04-.07.2-.24.34-.32.26-.49.32-.73.22Z"/>
            <path class="cls-2" d="m44.2,104.25c.1.03.24.07.38.11.26.09.28.28.06.56-.25.31-.71.63-1.01.65-.37.02-.67-.08-.75-.3-.05-.14-.1-.26-.28-.32-.27-.1-.16-.41.19-.7.24-.19.63-.29.9-.22.09.02.16.07.24.1.08.04.16.07.27.12Z"/>
            <path class="cls-2" d="m43.41,98.9c.23-.19.44-.31.66-.41.2-.09.44-.15.53-.07.22.18.43.37.35.7-.03.11-.05.23-.24.35-.08.05-.17.11-.16.17.04.25-.33.38-.58.48-.34.14-.67.17-.87.06-.24-.14-.16-.79.11-1.1.07-.08.15-.15.18-.18Z"/>
            <path class="cls-2" d="m57.51,94.07c-.35.23-.76.51-1.19.77-.38.23-.56.24-.74.08-.07-.06-.11-.13-.15-.21-.09-.19-.05-.26.3-.47.12-.08.3-.14.36-.22.17-.2.34-.3.62-.36.09-.02.27-.12.25-.22-.03-.16-.03-.16.17-.23.04-.02.09-.03.13-.04.33-.08.69-.21.81-.01.11.2-.03.45-.33.72-.05.04-.1.09-.22.19Z"/>
            <path class="cls-2" d="m68.46,77.72c-.21.15-.48.29-.78.38-.5.15-.76.09-.67-.22.06-.23.13-.41-.16-.48-.18-.04-.02-.43.2-.61.16-.13.53-.25.75-.21.12.02.22.06.3.11.16.1.32.19.54.25.41.11.33.4-.17.79Z"/>
            <path class="cls-2" d="m69.15,108.08c-.16-.11-.46-.19-.48-.37-.04-.25.08-.57.21-.88.06-.14.32-.3.57-.33.24-.03.45-.02.43.16-.01.17-.05.32.27.31.16,0,.02.2.13.25.08.03.16.17.26-.09.02-.05.13-.07.15-.04.03.04.03.09.03.15,0,.23,0,.46-.44.72-.35.2-.81.25-1.11.12Z"/>
            <path class="cls-2" d="m64.98,85.25c.25.1.25.32-.07.59-.46.38-.7.76-.92,1.14-.12.21-.26.28-.52.29-.17,0-.38.06-.51,0-.19-.09-.15-.2.15-.38q.47-.28.34-.51s-.07-.08-.05-.13c.11-.23.16-.41-.31-.3-.1.02-.13-.06-.06-.15.07-.09.2-.21.33-.19.28.04.51.02.79-.29.08-.09.28-.17.42-.14.13.03.27.05.4.07Z"/>
            <path class="cls-2" d="m92.6,87.7c-.28-.14-.17-.51.27-.84.61-.47,1.34-.7,1.67-.53.29.15.12.74-.32,1.08-.44.34-1.24.48-1.61.29Z"/>
            <path class="cls-2" d="m56.82,88.04c.04.06.1.1.11.16.05.24.08.49.11.74.02.17-.16.32-.43.45-.34.17-.61.16-.9.2-.13.02-.11-.07-.11-.13,0-.11.01-.22-.11-.26-.12-.05-.09-.1.1-.21.1-.06.02-.13-.05-.15-.18-.05-.25-.16-.26-.3-.02-.27.35-.55.75-.55.29,0,.54.04.79.06Z"/>
            <path class="cls-2" d="m35.01,105.2s-.11-.08-.15-.15c-.11-.2,0-.45.24-.61.27-.18.84-.31,1.08-.28.18.03-.33.21-.05.19.13-.01.31-.09.45-.12.45-.09.91.08.93.33,0,.07,0,.16-.15.26-.47.29-1.97.56-2.34.39Z"/>
            <path class="cls-2" d="m44.3,121.01c.37-.3,1.01-.48,1.39-.35.32.11.3.54-.04.85-.17.16-.39.27-.62.35-.22.07-.45.13-.66.17-.54.11-.72-.01-.56-.39.08-.19.18-.39.49-.63Z"/>
            <path class="cls-2" d="m80.41,105.53c.51-.4.97-.52,1.34-.36.34.15.21.64-.25,1.02-.41.33-1.18.53-1.51.39-.32-.14-.13-.62.42-1.04Z"/>
            <path class="cls-2" d="m54.65,92.43c.36-.14.4-.34.39-.53,0-.03.01-.06.02-.09.17-.5.42-.64,1.06-.63.26,0,.3.15.04.32-.26.17-.3.28-.32.43-.01.09-.05.19-.18.27-.32.21-.24.33-.26.5-.02.15,0,.21.23.19.25-.02.31.12.17.3-.09.12-.24.2-.4.26-.18.06-.24,0-.25-.07-.01-.33-.33-.32-.83-.16-.37.12-.46-.02-.22-.28.14-.15.33-.3.54-.49Z"/>
            <path class="cls-2" d="m39.61,96.17c-.25.19-.52.34-.74.28-.24-.07-.5.05-.8.17-.41.18-.57.13-.52-.12.08-.42.47-.73,1.15-.9.13-.03.26-.06.39-.14.39-.23.74-.29.93-.16.2.13.04.4-.19.65-.07.08-.16.15-.23.21Z"/>
            <path class="cls-2" d="m67.05,98.03c-.32.2-.45.42-.77.56-.28.12-.44.14-.48,0-.01-.05,0-.11.01-.16.03-.15-.09-.28.22-.45.35-.19.95-.27,1.05-.15.08.09.14.13.37.04.21-.09.41-.16.45-.34.06-.21.29-.32.56-.38.32-.06.43.07.2.29-.26.25-.42.49-.59.73-.19.28-.49.46-.77.48-.37.03-.52-.13-.38-.41.03-.06.07-.12.12-.22Z"/>
            <path class="cls-2" d="m33.64,117.77c.35-.38.8-.42,1.25-.51.09-.02.15-.01.2.02.38.25.07.89-.65,1.32-.29.17-.52.23-.72.16-.3-.1-.4-.32-.55-.51-.05-.06.01-.13.11-.21.11-.09.22-.17.36-.28Z"/>
            <path class="cls-2" d="m82.42,98.58c-.56-.31-.2-.77.63-1.21.43-.23.75-.22.86,0,.04.07.03.17.08.24.06.1.23.14.1.33-.12.17-.27.34-.48.49-.31.22-.81.3-1.12.2-.03,0-.05-.03-.07-.04Z"/>
            <path class="cls-2" d="m75.5,101.87c-.47.37-.71.45-1.04.37-.14-.03-.22-.07-.43.09-.22.17-.42.15-.62.16-.15.01-.17-.05-.16-.14.03-.21.34-.47.67-.58.18-.06.3-.11.46-.25.36-.3.81-.49,1.26-.54.22-.03.34.03.29.17-.08.26-.28.53-.43.72Z"/>
            <path class="cls-2" d="m51.04,118.01c-.2-.1-.32-.24-.17-.49.16-.26.5-.43.85-.55.24-.08.49-.15.72-.18.55-.08.8.23.48.6-.27.31-.7.48-1.09.6-.3.09-.59.1-.79,0Z"/>
            <path class="cls-2" d="m74.89,91.6c.08.08.2.16-.17.21,0,.01-.02.03,0,.04.16.18.16.41-.05.72-.05.08.07.1.1.14.1.15-.01.27-.33.39-.22.08-.38.07-.56.09-.25.02-.15-.14-.14-.26.01-.09-.09-.11-.16-.15-.22-.14-.23-.36-.08-.65.23-.42.62-.62,1.1-.58.11,0,.2.03.29.05Z"/>
            <path class="cls-2" d="m40.99,109.12c.14.03.31.12.3.33-.02.29-.37.56-.81.6-.19.02-.39.07-.58.12-.49.12-.49.12-.51-.17-.01-.19.06-.39.25-.61.29-.35.66-.5,1-.41.11.03.19.08.35.15Z"/>
            <path class="cls-2" d="m50.09,95.19c-.41.32-1,.48-1.23.36-.14-.08-.11-.26.05-.38.27-.2.18-.26.16-.39-.05-.24.2-.47.68-.67.42-.17.68-.15.7.1.02.19-.03.41-.06.62-.02.14-.2.27-.3.35Z"/>
            <path class="cls-2" d="m71.33,93.1c.46-.37,1.08-.47,1.29-.21.08.1.13.23-.02.38-.23.21-.15.42-.53.64-.62.36-1.05.37-1.09-.01-.04-.37.03-.54.36-.8Z"/>
            <path class="cls-2" d="m73.83,106.14c-.29-.11-.31-.12-.02-.37.19-.17.34-.41.65-.46.31-.05.24.17.25.32.01.22.1.22.44,0,.06-.04.11-.08.17-.12.24-.16.47-.25.69-.23.24.03.25.18.17.38-.08.19-.26.34-.54.43-.36.12-.78.33-.94.09-.03-.05-.14-.04-.27,0-.3.09-.47.03-.6-.03Z"/>
            <path class="cls-2" d="m75.44,96.88c-.56-.27-.3-.83.21-1.23.22-.17.43-.28.65-.23.08.02.18,0,.28,0,.4-.02.46.02.18.3-.17.17-.23.3-.28.44-.06.18-.21.36-.43.54-.26.21-.42.26-.62.18Z"/>
            <path class="cls-2" d="m50.14,108.33c-.3-.12-.3-.28,0-.68.12-.16.08-.32.45-.46.32-.12.59-.24.68-.04.05.1.25.06.36.1.28.11.15.51-.26.77-.2.13-.4.27-.56.14-.1-.08-.19,0-.32.15-.1.12-.24.03-.35.02Z"/>
            <path class="cls-2" d="m61.2,92.68c-.22-.08-.21-.23-.14-.4.09-.19.18-.38.21-.56.03-.2.26-.37.55-.48.31-.11.51-.11.61.03.06.09.09.2.15.29.12.2.12.2-.28.51-.05.04-.14.12-.13.13.15.07.16.15-.16.28-.31.12-.63.27-.82.2Z"/>
            <path class="cls-2" d="m69.52,102.41c-.03-.14-.25-.08-.43-.06-.33.03-.37-.2,0-.42.16-.09.2-.14.21-.23,0-.19.2-.38.49-.5.29-.12.57-.15.73-.04.29.19.26.36-.19.77-.09.08-.1.15-.14.22-.06.1-.09.21-.3.29-.18.07-.22.07-.38-.04Z"/>
            <path class="cls-2" d="m84.8,100.4c-.32-.13-.11-.57.45-.95.16-.1.33-.2.51-.28.78-.38.88-.36.67.17-.03.09-.03.17-.06.25-.02.09-.03.17-.24.16-.1,0-.18.11-.23.18-.07.11.08.2-.2.32-.29.13-.59.23-.81.17-.03,0-.06-.02-.09-.03Z"/>
            <path class="cls-2" d="m29.15,106.93s.11.06.15.13c.23.32-.25.81-.97,1-.29.07-.39.03-.41-.17-.01-.1,0-.22-.27-.13-.12.04-.12-.02-.1-.08.1-.25.28-.5.66-.7.37-.19.65-.18.92-.05Z"/>
            <path class="cls-2" d="m45.89,104.04c-.12-.04-.23-.1-.21-.24.02-.13.09-.24-.21-.2-.19.03-.11-.17.02-.31.13-.15.52-.3.59-.22.15.17.48.08.79.03.34-.05.48.06.44.24-.05.2-.41.59-.65.7-.38.17-.57.09-.77,0Z"/>
            <path class="cls-2" d="m44.56,118.61c.43-.34.69-.46.94-.44.33.01.53.24.44.47-.04.08-.11.12-.2.14-.15.04-.28.12-.36.21-.11.14.12.03.16.06.04.03-.03.08-.09.11-.38.22-.75.34-1.08.32-.28-.02-.33-.27-.09-.58.09-.12.23-.24.29-.29Z"/>
            <path class="cls-2" d="m73.41,97.98c-.3-.13-.15-.68.28-.99.38-.28.94-.38,1.2-.2.12.08.21.16-.12.36-.11.07-.37.25-.03.22.08,0,.06.04.03.09-.24.31-1.09.64-1.36.52Z"/>
            <path class="cls-2" d="m87.34,79.48c.27.12.32.36.13.58-.23.27-.63.48-1.02.55-.2.04-.31.04-.27-.12.04-.14.07-.3-.31-.12-.07.03-.11-.04-.09-.1.09-.24.23-.49.58-.71.28-.17.71-.19.97-.08Z"/>
            <path class="cls-2" d="m78.91,98.69c.21-.11.42-.27.63-.41.33-.23.86-.14.85.11,0,.2-.11.42-.22.64-.05.1-.16.18-.31.24-.43.17-1.09.1-1.2-.1-.08-.14.03-.29.25-.48Z"/>
            <path class="cls-2" d="m62.95,83.9c.33.15.23.46-.26.79-.12.08-.25.15-.37.22-.37.19-.74.27-.92.19-.17-.07-.15-.39.04-.62.05-.06.13-.14.21-.13.16.02.24-.08.34-.16.42-.36.65-.43.96-.29Z"/>
            <path class="cls-2" d="m39.07,104.09c.07,0,.14.02.22.01.33-.03.56,0,.5.27-.06.29-.25.57-.67.84-.26.17-.52.25-.72.17-.14-.06-.28-.11-.34-.22-.04-.06-.05-.16.16-.22.17-.05.22-.12.18-.17-.15-.18.09-.34.39-.51.1-.06.21-.12.31-.18h-.03Z"/>
            <path class="cls-2" d="m58.82,95.41s.15-.09.25-.15c.4-.24.44-.25.61-.08.09.09.18.14.44.1.37-.06.43.13.24.45-.15.24-.42.41-.76.44-.24.02-.51.02-.57-.11-.07-.13-.08-.26-.41-.21-.21.03-.11-.19.21-.44Z"/>
            <path class="cls-2" d="m38.98,119.88c.16-.08.3-.17.45-.24.26-.12.56-.28.76-.21.2.08-.07.29-.16.45-.09.15-.26.31-.25.45.01.1.08.2-.13.33-.3.19-.59.41-.95.51-.17.04-.22-.01-.18-.11.05-.13.11-.27.21-.41.15-.21.36-.43.14-.55-.06-.03.03-.14.11-.21Z"/>
            <path class="cls-2" d="m51.42,103.24c-.15-.08-.09-.22.16-.38.33-.21.68-.37,1.04-.48.16-.05.31-.08.46-.13.22-.07.52-.24.58-.1.07.15.12.33-.08.56-.12.14-.29.22-.46.2-.1-.01-.18-.06-.28-.07-.11,0-.25,0-.35.13-.09.11-.16.22-.36.27-.1.03-.67.02-.72-.01Z"/>
            <path class="cls-2" d="m50.9,97.94c.18.08.31.19.14.42-.18.26-.53.42-.86.57-.04.02-.11.03-.11.02-.02-.27-.38-.1-.67-.02-.03,0-.06-.01-.08-.03-.14-.09-.07-.38.15-.61.21-.23.49-.35.79-.41.26-.05.48-.03.64.05Z"/>
            <path class="cls-2" d="m88.61,78.09c-.19.15-.37.27-.58.37-.4.18-.64.22-.81.1-.18-.13-.15-.4.06-.62.05-.05.1-.08.17-.1.24-.07.58-.03.6-.35,0,0,.08-.05.12-.06.29-.08.79-.04.81.08.04.19-.11.4-.37.58Z"/>
            <path class="cls-2" d="m72.08,98.56c-.1.1-.44.24-.11.26.05,0-.05.12-.14.16-.24.11-.49.22-.73.28-.08.02-.17.03-.24.02-.26-.03-.3-.27-.09-.58.22-.33.62-.62.95-.69.37-.07.66.04.65.27q0,.07-.29.29Z"/>
            <path class="cls-2" d="m73.84,108.57c.4.17.26.53-.33.88-.2.12-.39.16-.59.21-.25.05-.2-.07-.22-.17-.02-.08-.05-.16-.29-.02-.09.05-.1-.03-.1-.09.02-.25.28-.59.56-.74.31-.17.68-.2.96-.07Z"/>
            <path class="cls-2" d="m81.88,83.48c-.32-.15-.25-.4.17-.73.19-.14.38-.27.62-.36.3-.11.61-.21.77-.1.17.11.11.32-.06.55-.07.09-.17.32-.37.17-.08.05-.15.11-.23.16-.15.1-.19.27-.43.3-.19.03-.37.04-.47,0Z"/>
            <path class="cls-2" d="m67.77,111.22c-.17-.09-.15-.24.07-.44.14-.13.36-.26.12-.31,0,0,0-.03.02-.04.27-.21.57-.34.89-.41.28-.06.43.01.45.15.02.19-.04.41-.29.65-.36.36-.96.56-1.26.4Z"/>
            <path class="cls-2" d="m69.65,77.46c-.29-.12-.25-.39.07-.65.34-.28,1-.52,1.3-.34.25.15.19.46-.21.77-.34.26-.85.36-1.16.22Z"/>
            <path class="cls-2" d="m46.73,101.9c-.15.12-.4.28-.66.27-.28-.02-.52-.07-.48-.31,0-.04.01-.1.06-.13.24-.19.54-.35.61-.6.02-.09.68-.27.87-.24.2.03.26.15.2.32-.07.2-.24.42-.59.69Z"/>
            <path class="cls-2" d="m52.59,100.3c.44-.34.67-.41,1-.34.42.09.48.42.13.76-.29.29-.84.46-1.09.35.19-.27-.12-.16-.28-.19-.18-.03-.11-.2,0-.36.07-.09.18-.18.23-.22Z"/>
            <path class="cls-2" d="m59.22,109.69c.22-.2.52-.33.82-.33.27,0,.38.12.36.31-.01.13-.06.26-.33.37-.2.08-.38.18-.14.23,0,0-.04.06-.08.08-.06.04-.12.08-.19.1-.42.17-.88.21-.98.09-.13-.15.07-.48.53-.85Z"/>
            <path class="cls-2" d="m43.06,117.96s-.04-.01-.07-.05c-.09-.15.18-.48.57-.72.43-.27.92-.4,1.11-.31.2.1.16.41-.06.65-.13.13-.24.1-.36.15-.14.05-.41.04-.36.25.01.05-.15.09-.23.1-.21.03-.4.03-.6-.07Z"/>
            <path class="cls-2" d="m43.07,94.7s.13-.11.17-.16c.04-.06.04-.12-.1-.05-.04.02-.08.03-.13.05,0-.06.44-.46.54-.49.42-.12.86,0,.84.22-.03.31-.54.82-.97.97-.35.12-.68.04-.7-.16-.02-.14.1-.26.36-.38Z"/>
            <path class="cls-2" d="m38.13,111.69s-.09-.07-.14-.13c-.11-.14-.14-.32.09-.56.25-.26.59-.38.93-.46.34-.07.38-.03.25.24-.04.08-.05.15.03.18.07.02.31-.1.2.07-.11.17-.25.34-.47.5-.31.23-.63.29-.91.16Z"/>
            <path class="cls-2" d="m87.72,83.15c-.52.41-.78.43-.87.09-.02-.06-.05-.12-.02-.19.13-.25.26-.48-.08-.54-.09-.02-.04-.14.08-.24.1-.09.21-.18.36-.2.18-.03.25.05.21.14-.08.19.02.21.26.19.75-.06.77.2.07.74Z"/>
            <path class="cls-2" d="m40.72,115.16c.58-.45,1.08-.57,1.31-.33.13.13.04.32-.28.52-.17.11-.31.16-.26.3.02.05-.22.13-.35.19-.34.13-.65.18-.8.05-.16-.13.03-.37.22-.59.05-.06.13-.12.16-.14Z"/>
            <path class="cls-2" d="m67.18,105.96c.3-.2.61-.33.9-.32.3.01.36.16.27.39-.02.04-.03.09-.06.13-.12.21-.17.44-.58.59-.32.12-.8.02-.9-.16-.1-.17.03-.4.37-.63Z"/>
            <path class="cls-2" d="m33.25,98.78c-.27.23-.53.38-.79.38-.31,0-.41-.16-.44-.35,0-.04.04-.09.12-.11.18-.04.16-.11.19-.18.04-.1-.09-.16.09-.29.18-.12.36-.23.58-.28.4-.1.68,0,.65.24-.03.18-.21.43-.4.59Z"/>
            <path class="cls-2" d="m80.04,95.4c.18.06.49.06.32.31-.16.24-.53.28-.81.4-.23.1-.36.07-.35-.09,0-.2-.03-.39.3-.64.21-.16.12-.21.04-.28-.15-.13-.09-.29.13-.46.2-.15.47-.2.64-.13.2.09.21.28,0,.47-.06.06-.15.11-.22.17-.21.18-.22.21-.05.26Z"/>
            <path class="cls-2" d="m66.23,98.95c.35.14.29.37-.19.73-.13.1-.28.19-.43.26-.56.28-.93.23-.9-.12,0-.09.06-.2.1-.31.02-.04.07-.09.12-.13.16-.12.16.12.36-.06.11-.1.06-.21.24-.31.19-.11.51-.13.69-.06Z"/>
            <path class="cls-2" d="m90.07,79.27c-.32.25-1.01.43-1.36.34-.25-.06-.23-.28.06-.59.26-.28.52-.38.82-.31.12.03.21.07.37-.09.02-.02.09-.04.12-.04.27.02.26.47-.01.68Z"/>
            <path class="cls-2" d="m61.48,112.07c-.11-.06-.21-.16-.13-.34.06-.14.13-.27.41-.34.2-.05.47-.12.41-.32,0,0,.07-.06.1-.07.33-.1.6-.1.78,0,.14.07.07.23-.06.39-.18.22-.41.42-.73.59-.34.17-.56.21-.79.11Z"/>
            <path class="cls-2" d="m60.09,104.73c.18.06.15.22,0,.42-.15.2-.35.36-.65.46-.2.07-.25,0-.31-.06-.03-.03-.05-.02-.3.11-.03.02-.05.05-.09.04-.03,0-.06-.02-.08-.03-.28-.19-.26-.45.05-.69.33-.25,1.07-.39,1.38-.24Z"/>
            <path class="cls-2" d="m83.76,95.34c-.3-.11-.07-.35-.01-.53.06-.17.31-.24.51-.29.26-.07.51-.1.74-.1.29,0,.44.19.32.39-.09.15-.74.54-.94.55-.25,0-.48-.02-.63-.02Z"/>
            <path class="cls-2" d="m82.33,100.78c.27.11.29.34.17.61-.07.17-.27.33-.55.43-.3.11-.53.1-.56-.07-.02-.12-.04-.22-.2-.25-.25-.04-.07-.23.04-.36.25-.3.84-.48,1.1-.38Z"/>
            <path class="cls-2" d="m40.3,114.21c.22.09.21.25-.04.48-.23.21-.51.39-.84.51-.3.12-.52.14-.65.02-.15-.13-.11-.33.12-.55.04-.04.11-.1.16-.12.24-.08.52-.06.66-.33,0,0,.13-.04.19-.05.16-.01.32-.02.41.03Z"/>
            <path class="cls-2" d="m98.3,84.41c.08-.1.16-.19.32-.21.18-.03.23.04.23.13,0,.14.02.28,0,.43-.04.24-.32.43-.85.6-.41.12-.67.08-.66-.12,0-.12.07-.26.18-.4.08-.1.08-.1.43-.21.15-.05.25-.13.34-.22Z"/>
            <path class="cls-2" d="m69.12,100.99c.31.13.31.31.02.59-.32.31-.77.49-1.14.46-.2-.02-.28-.18-.19-.4.11-.25.4-.46.72-.63.27-.15.43-.05.59-.02Z"/>
            <path class="cls-2" d="m35.7,100.98c-.41-.19-.22-.65.42-1.03.16-.1.31-.14.4-.07.2.16.24.41.26.66.01.18-.29.39-.62.47-.21.05-.37.04-.46-.03Z"/>
            <path class="cls-2" d="m62.95,117.72c-.22.02-.23-.1-.29-.19-.02-.04-.01-.13.03-.16.36-.22.46-.47.66-.7.11-.13.32-.19.49-.2.17,0,.19.08.15.18-.09.27-.18.55-.3.83-.05.11-.12.24-.36.33-.22.08-.25,0-.32-.05-.02-.02-.04-.03-.07-.05Z"/>
            <path class="cls-2" d="m44.9,107.78c.34.18.23.37-.35.62-.34.15-.69.29-.9.16-.12-.08-.24.03-.39.1-.17.08-.24.02-.24-.06,0-.08.12-.17.23-.19.28-.06.45-.15.53-.36.05-.13.25-.23.45-.28.31-.09.54-.07.67.02Z"/>
            <path class="cls-2" d="m47.65,99.17c-.27.21-.6.28-.91.41-.2.09-.33-.01-.28-.16.05-.15.22-.3.36-.46.11-.12.25-.26,0-.26-.04,0-.05-.05-.07-.08-.05-.08,0-.18.15-.29.16-.12.31-.15.43-.12.13.03.17.13.05.23-.29.25-.13.27.07.29.12.01.23.04.33.08.18.07.14.17-.14.37Z"/>
            <path class="cls-2" d="m86.7,84.39c-.1.04-.21.1-.31.13-.44.14-.84.17-1.3.35-.21.08-.41.05-.37-.14.04-.19.26-.31.49-.37.27-.08.53-.13.7-.36,0-.01.04-.02.06-.04.22-.13.39-.12.64.04.13.08.23.17.1.38Z"/>
            <path class="cls-2" d="m25.15,109.27c.56-.42.97-.48,1.11-.13.05.12.22.24-.06.46-.27.21-.55.24-.83.28-.17.02-.31,0-.41-.05-.24-.12-.18-.28.18-.55Z"/>
            <path class="cls-2" d="m38.07,97.59s.06-.04.1-.07c.22-.14.47-.34.69-.32.21.02.15.22.05.38-.14.22,0,.34,0,.51,0,.19-.11.34-.38.45-.26.1-.48.07-.44-.12.05-.23-.01-.39-.18-.51-.12-.08-.04-.19.15-.32Z"/>
            <path class="cls-2" d="m30.15,109.15c-.26.2-.53.37-.84.53-.44.22-.5.23-.62.03-.02-.04-.04-.09-.06-.13-.09-.27,0-.37.51-.46.28-.05.53-.09.78-.32.15-.14.33-.19.46-.13.13.06.16.16-.01.32-.06.06-.14.11-.21.17Z"/>
            <path class="cls-2" d="m48.22,111.42c.03.11.14.16.41.08.11-.03.16.03.13.11-.03.09-.15.17-.26.19-.24.04-.4.15-.59.29-.26.19-.53.22-.73.18-.2-.05-.42-.09-.37-.31,0-.03.03-.06.05-.09.24-.26,1.1-.56,1.35-.45Z"/>
            <path class="cls-2" d="m30.61,114.69c.28-.16.53-.42.86-.41.17,0,.12.28-.1.58-.07.09-.16.19-.27.27-.18.12-.27.23-.3.35-.01.04-.05.09-.09.14-.15.17-.37.25-.55.26-.2.01-.11-.14-.05-.26.02-.04.07-.1.12-.14.42-.25.36-.38.2-.51-.09-.07-.02-.14.17-.28Z"/>
            <path class="cls-2" d="m36.81,102.92c-.25.19-.39.31-.58.38-.27.1-.4.07-.37-.1.01-.1.03-.19.05-.29.07-.31.19-.42.68-.58.2-.07.39-.22.59-.22.17,0,.34,0,.18.17-.21.24-.27.5-.55.64Z"/>
            <path class="cls-2" d="m46.92,104.96c-.16.1-.37.22-.59.3-.41.16-.54.11-.47-.17.03-.13.07-.25.19-.4.24-.3.48-.42.84-.43.53-.01.56.28.03.7Z"/>
            <path class="cls-2" d="m50.9,113.53c.16-.12.3-.23.5-.3.25-.09.44-.12.43.07,0,.09.05.16.05.26-.01.24-.17.44-.41.55-.29.13-.72.17-.87.07-.13-.08-.06-.31.17-.53.05-.04.1-.09.14-.12Z"/>
            <path class="cls-2" d="m71.45,113.44c-.17-.08-.22-.2-.06-.42.13-.17.29-.3.54-.36.28-.06.57-.13.69.02.13.15.04.38-.1.61-.09.14-.29.22-.46.23-.25.02-.46,0-.61-.08Z"/>
            <path class="cls-2" d="m80.21,81.56c.23.11.26.31.09.51-.16.19-.57.38-.92.44-.17.03-.26,0-.29-.09-.06-.23.16-.51.37-.79.07-.09.2-.11.3-.14.23-.06.32.02.44.06Z"/>
            <path class="cls-2" d="m65.98,90.62s-.15.12-.27.18c-.25.14-.52.3-.73.22-.2-.08-.25-.24-.14-.47.05-.11.16-.18.29-.25.4-.22.95-.3,1.17-.17.15.08.1.16-.32.48Z"/>
            <path class="cls-2" d="m38.58,90.61c-.18-.09-.18-.35-.02-.53.17-.18.69-.43.93-.44.21,0,.31.07.29.23-.02.18-.17.39-.28.58-.06.11-.22.16-.35.19-.25.05-.42,0-.58-.03Z"/>
            <path class="cls-2" d="m84.9,76.23s.08.04.11.06c.15.12.06.42-.17.6-.17.14-.79.31-.96.27-.1-.02-.13-.1-.12-.18,0-.23.22-.47.46-.72.09-.09.2-.11.31-.13.19-.03.27.03.37.09Z"/>
            <path class="cls-2" d="m56.56,105s-.12-.05-.15-.11c-.09-.13.04-.28.34-.42.15-.07.31-.15.46-.2.28-.09.53-.14.64,0,.09.12-.05.42-.28.6-.28.22-.68.28-1.01.13Z"/>
            <path class="cls-2" d="m47.41,88.26c.31-.23.58-.34.77-.31.23.05.39.15.32.38-.02.08-.11.18-.26.26-.21.12-.42.22-.65.29-.57.17-.7.11-.46-.28.07-.12.12-.25.28-.34Z"/>
            <path class="cls-2" d="m73.07,76.27c.18-.16.36-.21.56-.22.35-.03.47.11.51.29.04.17-.15.34-.48.44-.18.06-.36.11-.53.14-.52.09-.62-.1-.26-.47.06-.06.13-.12.2-.18Z"/>
            <path class="cls-2" d="m67.08,101.01s.09.08.14.12c.09.09.17.19-.03.38-.23.21-.52.35-.81.41-.24.05-.34-.04-.37-.17-.02-.09-.01-.18.06-.29.11-.17.22-.34.49-.47.29-.14.32.04.53.03Z"/>
            <path class="cls-2" d="m66.04,97.24s-.05-.02-.08-.05c-.09-.1-.24-.18-.04-.39.17-.18.63-.41.87-.44.21-.03.39.09.38.26,0,.05-.03.12-.06.18-.09.17-.2.34-.46.48-.18.09-.34.08-.61-.04Z"/>
            <path class="cls-2" d="m65.8,84.32c-.04-.05-.1-.1-.13-.17-.08-.17.01-.38.24-.54.19-.14.68-.28.88-.25.16.03.25.1.15.26-.08.14-.18.28-.29.41-.26.31-.61.42-.84.28Z"/>
            <path class="cls-2" d="m61.3,103.7c.28.13.31.32.06.5-.34.25-.94.41-1.17.31-.2-.09-.07-.43.26-.69.23-.18.6-.23.85-.12Z"/>
            <path class="cls-2" d="m31.65,116.45c-.31.25-.74.43-.95.4-.22-.03-.3-.27-.18-.49.02-.03.04-.06.07-.09.19-.19.44-.23.63-.26.26-.04.6-.13.69.03.07.12-.06.28-.26.42Z"/>
            <path class="cls-2" d="m62.9,113.96c.44-.36.79-.41.93-.14.02.03.03.07.04.1.06.26,0,.4-.25.52-.33.17-.75.21-.91.09-.2-.16-.16-.3.19-.58Z"/>
            <path class="cls-2" d="m86.04,95.22c.51-.4.97-.45,1.06-.12.01.05,0,.11,0,.16.08.32-.26.49-.75.54-.21.02-.38,0-.49-.07-.17-.13-.12-.27.18-.5Z"/>
            <path class="cls-2" d="m67.03,85.06c.24.09.19.22-.17.45-.1.06-.2.13-.31.19-.27.15-.55.28-.75.2-.17-.07-.13-.26-.05-.44.06-.15.25-.27.47-.36.35-.14.6-.13.81-.05Z"/>
            <path class="cls-2" d="m76.95,103.32c.22-.18.64-.29.93-.26.24.03.32.19.19.39-.06.09-.17.15-.28.18-.35.11-.7.23-1.05.32-.29.07-.35-.02-.18-.23.12-.14.26-.27.38-.4Z"/>
            <path class="cls-2" d="m72,89.44c.26.11.24.38.01.56-.25.2-.7.34-.92.28-.18-.04-.16-.58.03-.75.13-.12.28-.18.42-.16.17.02.34.05.46.06Z"/>
            <path class="cls-2" d="m67.97,89.38c.21.08.21.22-.01.38-.42.3-.98.55-1.18.45-.17-.08-.14-.44.07-.62.25-.22.83-.33,1.12-.21Z"/>
            <path class="cls-2" d="m85.45,75c-.23-.06-.1-.22.11-.43.18-.18.31-.4.62-.48.35-.1.28.15.36.25.15.19.04.35-.28.56-.27.18-.52.21-.8.09Z"/>
            <path class="cls-2" d="m47.09,86.29c-.43.34-.6.38-.77.18-.02-.03-.05-.05-.07-.09-.13-.21-.07-.38.21-.56.25-.16.74-.29.88-.23.17.07.11.37-.12.59-.04.04-.1.09-.13.11Z"/>
            <path class="cls-2" d="m61.18,99.24c-.22.18-1.03.45-1.22.41-.2-.05-.1-.38.2-.64.27-.23.61-.31.88-.21.27.1.33.28.14.45Z"/>
            <path class="cls-2" d="m82.97,95.89c.18.07.2.35.04.51-.14.14-.6.34-.83.36-.25.02-.4-.11-.27-.34.1-.17.1-.37.41-.52.3-.14.46-.03.66-.01Z"/>
            <path class="cls-2" d="m55.72,120.34c-.15-.07-.12-.33.05-.49.22-.21.71-.43.93-.43.1,0,.16.03.16.1,0,.14-.01.29-.1.46-.17.31-.36.43-.72.4-.11,0-.2-.03-.31-.04Z"/>
            <path class="cls-2" d="m49.2,89.88s-.13-.06-.14-.12c-.02-.14-.22-.23,0-.45.2-.19.46-.23.69-.26.29-.04.49,0,.54.18.03.12-.21.36-.52.55-.26.16-.42.15-.58.1Z"/>
            <path class="cls-2" d="m51.42,105.09c.33-.27.61-.34.86-.23.16.07.19.2.16.36-.04.22-.19.33-.55.4-.13.02-.26.05-.38.05-.52.03-.56-.2-.09-.58Z"/>
            <path class="cls-2" d="m90.65,89.55c.32-.27.86-.46,1.1-.41.22.04.23.28.01.54-.1.12-.21.21-.39.25-.37.08-.62.01-.84-.08-.14-.06.07-.21.12-.3Z"/>
            <path class="cls-2" d="m58.55,83.45c-.36.29-1.06.54-1.23.45-.12-.07-.03-.47.13-.61.25-.2.82-.3,1.12-.2.17.06.16.21-.02.35Z"/>
            <path class="cls-2" d="m73.89,88.22c.1.06.16.1.21.14.15.15.13.3-.07.46-.2.16-.63.32-.83.31-.23-.01-.29-.17-.17-.4.06-.11.16-.22.27-.32.26-.23.45-.28.59-.19Z"/>
            <path class="cls-2" d="m88.47,80.46c.34-.27.57-.34.76-.26.26.11.24.36-.06.58-.28.21-.85.36-1.05.29-.18-.07-.05-.29.36-.61Z"/>
            <path class="cls-2" d="m55.81,87.5c-.31.25-.57.33-.76.25-.22-.09-.27-.45-.08-.59.27-.2.77-.3,1.01-.19.22.1.17.27-.16.53Z"/>
            <path class="cls-2" d="m43.22,112.1c.21.1.15.24-.16.43-.1.06-.21.13-.31.18-.26.12-.55.25-.73.17-.15-.06.03-.45.25-.62.24-.18.52-.26.78-.21.06.01.12.03.17.05Z"/>
            <path class="cls-2" d="m90.84,77.84c.29-.23.58-.31.8-.21.23.1.23.41,0,.58-.19.14-.92.25-1.08.16-.14-.08-.04-.28.27-.53Z"/>
            <path class="cls-2" d="m52.35,84.66c-.05-.12-.31-.21-.08-.45.22-.22.58-.39.93-.49.2-.06.24.01.22.12-.03.23-.28.48-.45.72-.11.16-.43.22-.62.1Z"/>
            <path class="cls-2" d="m65.65,87.78c-.07-.04-.05-.1-.03-.18.08-.21.29-.43.46-.64.12-.15.43-.22.56-.14.15.09.11.27.2.38.01.01-.02.06-.04.09-.12.17-.93.54-1.11.5-.02,0-.03,0-.05-.01Z"/>
            <path class="cls-2" d="m71.97,74.24c.1-.05.18-.11.22-.11.25,0,.56-.1.74,0,.17.09.09.28-.23.42-.28.13-.53.33-.84.4-.19.04-.3.04-.28-.08.05-.2.24-.42.39-.62Z"/>
            <path class="cls-2" d="m40.07,117.29c-.38.14-.74.43-1.16.5-.16.03-.2-.04-.15-.14.1-.18.22-.37.37-.55.14-.16.36-.21.77-.2.25,0,.35.11.25.28-.02.03-.04.06-.08.11Z"/>
            <path class="cls-2" d="m53.85,112.25c-.05-.06-.13-.11-.15-.19-.03-.09.03-.2.23-.29.09-.04.18-.08.27-.11.24-.08.6-.28.68-.16.09.13.08.34-.07.56-.14.2-.37.3-.58.25-.11-.03-.21-.06-.36-.06Z"/>
            <path class="cls-2" d="m63.3,112.61c.33-.26.53-.29.62-.1.04.08.09.14.11.23.02.1.02.21-.11.33-.27.25-.49.19-.7.19-.2,0-.48.04-.31-.21.11-.15.21-.31.39-.44Z"/>
            <path class="cls-2" d="m80.57,104.43c-.11.06-.25.17-.4.23-.18.07-.38.11-.32-.06.06-.19-.09-.3.07-.52.16-.22.34-.32.59-.3.04,0,.06.02.09.02.5.07.5.2-.03.63Z"/>
            <path class="cls-2" d="m97.4,87.62c-.28-.09-.27-.12.1-.43.19-.16.37-.36.65-.37.27-.02.24.17.2.32-.05.16.12.31-.25.5-.31.16-.48.07-.65,0-.01,0-.03-.01-.04-.02Z"/>
            <path class="cls-2" d="m70.87,80.6c.19-.16.46-.22.56-.12.04.03.06.08.06.13-.01.14.18.25-.03.42-.25.21-.61.28-.91.37-.2.06-.27-.02-.22-.17.08-.23.38-.43.54-.64Z"/>
            <path class="cls-2" d="m68.88,76.28c-.14-.06-.13-.24.05-.37.17-.12.42-.24.52-.15.14.11.29.04.54-.07.4-.19.55-.13.46.12-.06.19-.17.27-.49.31-.27.04-.5-.02-.84.18-.12.07-.16-.02-.24-.02Z"/>
            <path class="cls-2" d="m66.88,95.03c-.24.15-.45.21-.66.24-.49.07-.52.05-.37-.29.03-.07.05-.15.1-.22.13-.19.31-.27.53-.25.28.02.34.21.49.33.03.03-.06.14-.09.2Z"/>
            <path class="cls-2" d="m79.18,79.42c.3-.14.61-.29.9-.31.15-.01.19.06.12.19-.11.22-.38.43-.55.64-.09.11-.33.16-.41.13-.2-.1-.23-.29-.2-.5,0-.03.08-.09.13-.15Z"/>
            <path class="cls-2" d="m65.54,98.2c-.24.15-.43.31-.68.43-.3.13-.52.11-.44-.08.07-.18.05-.42.34-.57.31-.16.65-.17.91-.14.17.02.1.19-.12.35Z"/>
            <path class="cls-2" d="m62.77,85.93c-.41.17-.81.44-1.23.5-.15.02-.18-.04-.14-.15.07-.18.26-.37.41-.55.05-.06.14-.11.24-.13.26-.06.75.05.77.19,0,.03-.03.08-.05.14Z"/>
            <path class="cls-2" d="m91.19,81.47c-.36.3-.4.31-.68.2-.1-.04-.2-.07-.25-.14-.11-.13.07-.32.38-.41.22-.06.44-.16.65-.18.41-.04.45.06.12.36-.06.06-.14.11-.21.17Z"/>
            <path class="cls-2" d="m31.45,113.42c-.37.16-.74.37-1.11.41-.02,0-.04,0-.06,0-.17-.06-.06-.21.06-.34.15-.17.23-.43.56-.47.22-.03.46,0,.6.08.11.07.04.18-.05.31Z"/>
            <path class="cls-2" d="m41.6,113.58s.04-.04.12-.09c.22-.16.41-.24.56-.13.05.04.15.05.19.09.07.08.14.17-.01.34-.16.17-.31.16-.48.19-.13.02-.27.08-.39.09-.16.02-.35.04-.37-.07-.03-.12.14-.23.4-.42Z"/>
            <path class="cls-2" d="m40.1,98.12c-.24.18-.42.22-.54.14-.16-.11-.12-.32-.12-.49,0-.1.17-.21.35-.26.35-.11.5.02.75.04.03,0,.02.08-.01.11-.15.17-.31.33-.43.47Z"/>
            <path class="cls-2" d="m62.58,100.29c-.11-.05-.16-.12-.11-.23.06-.12.22-.2.39-.26.07-.02.13-.04.2-.06.69-.18.85,0,.44.49-.13.16-.38.27-.49.19-.11-.08-.24-.13-.42-.13Z"/>
            <path class="cls-2" d="m89.01,92.22c.16.12.33.19.33.36,0,.11-.07.21-.24.28-.29.13-.56.15-.82.17-.08,0-.13-.04-.1-.1.08-.16.07-.31.25-.49.25-.24.43-.31.58-.23Z"/>
            <path class="cls-2" d="m74.8,110.68c.26-.13.42-.34.71-.46.25-.1.41-.1.4.04-.01.13-.06.28-.13.43-.04.09-.16.19-.32.22-.23.04-.48.14-.68.11-.23-.03-.24-.15.02-.34Z"/>
            <path class="cls-2" d="m36.42,113.22c.15-.12.24-.19.36-.19.15,0,.33-.02.46,0,.13.02.2.11.13.24-.05.11-.18.18-.32.23-.25.08-.47.25-.72.31-.25.06-.37.03-.27-.14.1-.16.27-.33.36-.46Z"/>
            <path class="cls-2" d="m33.25,111.44c-.22.15-.45.23-.61.19-.14-.04-.49.09-.4-.12.09-.2.21-.42.5-.63.08-.05.17-.08.24-.06.26.08.31.29.37.48,0,.03-.07.09-.1.13Z"/>
            <path class="cls-2" d="m65.12,114.72c-.06-.08-.18-.14-.05-.31.12-.15.28-.15.43-.21.02,0,.04-.02.07-.03.29-.1.65-.26.78-.13.13.15-.25.37-.41.57-.12.14-.3.22-.46.18-.11-.02-.23-.04-.35-.07Z"/>
            <path class="cls-2" d="m88.52,98.03c-.14-.02-.23-.08-.13-.23.08-.12.26-.19.4-.25.15-.06.31-.09.46-.14.16-.05.26-.02.25.06-.03.19.12.37-.21.58-.31.2-.49.07-.67,0-.03,0-.06-.02-.09-.03Z"/>
            <path class="cls-2" d="m68.35,113.68s-.09-.1-.14-.17c-.08-.1-.03-.23.22-.36.26-.13.55-.41.8-.33.19.06.02.29-.07.47-.02.05-.06.09-.09.14-.18.29-.42.39-.71.25Z"/>
            <path class="cls-2" d="m54.1,108.51s-.03-.07,0-.13c.02-.06.09-.12.13-.18.33-.45.45-.5.95-.45.17.02.28.07.24.22-.05.15-.24.22-.42.29-.15.06-.3.16-.45.21-.15.05-.32.11-.43.03Z"/>
            <path class="cls-2" d="m83.61,106.62c-.06-.04-.11-.08-.17-.12-.12-.07-.08-.17.11-.3.1-.07.2-.13.3-.19.16-.1.33-.25.49-.23.2.02.17.17.12.32-.02.06-.07.12-.09.18-.04.13-.03.25-.31.37-.26.11-.31-.02-.45-.03Z"/>
            <path class="cls-2" d="m46.31,95.08c.18.04.19.14.03.28-.2.17-.31.42-.62.47-.32.05-.3-.16-.28-.34,0-.05-.01-.1,0-.16.01-.15.18-.24.38-.29.23-.06.39,0,.5.03Z"/>
            <path class="cls-2" d="m41.62,118.35c-.19.13-.37.33-.59.29-.2-.04-.39-.12-.34-.33.02-.11.14-.22.33-.26.17-.04.35-.09.51-.11.16-.02.37-.08.41.03.04.13-.15.26-.33.38Z"/>
            <path class="cls-2" d="m81.47,86.03c.17-.12.34-.3.53-.28.22.02.42.09.43.27,0,.11-.12.22-.29.28-.24.08-.49.14-.71.17-.33.05-.37-.09-.13-.31.05-.04.11-.08.16-.13Z"/>
            <path class="cls-2" d="m81.08,100.48c-.15-.07-.05-.4.18-.56.21-.15.53-.2.69-.11.19.11.17.3-.05.47-.27.2-.63.29-.82.19Z"/>
            <path class="cls-2" d="m64.15,103.13c-.28.22-.54.3-.71.23-.22-.1-.19-.31.08-.51.21-.16.66-.29.8-.23.13.05.02.37-.17.52Z"/>
            <path class="cls-2" d="m72.2,85.47c.16-.1.33-.16.48-.15.17.01.22.12.13.24-.14.18-.26.37-.5.54-.16.11-.31.14-.39.07-.09-.08.09-.54.27-.69Z"/>
            <path class="cls-2" d="m41.32,101.4c-.05-.02-.19-.54-.15-.59.09-.11.22-.21.39-.25.14-.02.3-.06.31.06,0,.15-.11.34-.1.49,0,.11-.36.32-.46.29Z"/>
            <path class="cls-2" d="m82.27,91.93c.18-.15.88-.35.97-.28.11.09-.03.27-.16.36-.17.12-.39.27-.62.29-.12,0-.31.06-.31-.02,0-.11.08-.25.12-.35Z"/>
            <path class="cls-2" d="m59.86,82.25c-.22-.09-.23-.21-.04-.36.21-.17.49-.23.68-.14.03.01.05.02.07.04.12.09.1.28-.06.37-.21.12-.44.21-.58.12-.02-.01-.05-.02-.08-.04Z"/>
            <path class="cls-2" d="m60.95,90.55c-.09-.06-.16-.16-.1-.31.04-.11.15-.21.33-.28.17-.07.32-.09.39-.02.08.08.11.19.03.33-.05.1-.07.22-.25.3-.18.08-.28.04-.4-.02Z"/>
            <path class="cls-2" d="m26.23,104.78s-.03-.06-.01-.1c.09-.22.19-.44.29-.66.02-.05.07-.09.14-.1.06,0,.13-.02.16,0,.13.07.05.56-.1.71-.11.11-.4.2-.49.15Z"/>
            <path class="cls-2" d="m77.25,97.07c.13.05.24.09.12.25-.08.1-.19.17-.34.23-.22.09-.32.05-.39-.03-.12-.13-.11-.36.04-.45.15-.09.37-.08.57,0Z"/>
            <path class="cls-2" d="m37.57,92.35c-.13-.07-.07-.23.14-.39.17-.13.5-.22.6-.17.07.04,0,.32-.09.4-.15.13-.54.22-.65.16Z"/>
            <path class="cls-2" d="m86.48,94c.31-.23.56-.33.67-.27.13.06.04.29-.17.44-.19.14-.56.24-.66.18-.12-.09-.05-.21.16-.34Z"/>
            <path class="cls-2" d="m25.7,111.21c-.12-.04-.08-.23.08-.38.17-.16.38-.23.51-.19.19.06.21.17.04.33-.19.18-.48.29-.64.24Z"/>
            <path class="cls-2" d="m45.36,89.42c-.25.19-.52.26-.65.18-.12-.07-.07-.25.11-.38.17-.12.45-.16.56-.08.08.06.13.15-.02.28Z"/>
            <path class="cls-2" d="m45.6,106.82c-.07-.04.07-.32.22-.41.13-.08.45-.14.53-.08.12.08.07.26-.12.39-.2.14-.48.19-.63.1Z"/>
            <path class="cls-2" d="m65.34,77.5c-.12-.07-.01-.31.2-.45.2-.14.38-.17.5-.08.11.08.04.27-.15.39-.2.12-.39.18-.54.14Z"/>
            <path class="cls-2" d="m54.5,79.96c-.08-.05-.02-.18.15-.32.18-.15.56-.25.64-.16.09.09,0,.23-.16.37-.18.15-.46.21-.64.11Z"/>
            <path class="cls-2" d="m39.1,104.08c-.07-.09-.14-.18-.12-.3.02-.13.17-.24.35-.34.15-.09.25-.06.34-.03.12.04.07.14.01.25-.11.21-.4.29-.61.43h.03Z"/>
            <path class="cls-2" d="m46.8,106.76c.17-.12.35-.23.52-.18.13.04.11.24-.04.37-.1.09-.51.22-.62.2-.14-.03-.07-.23.14-.4Z"/>
            <path class="cls-2" d="m32.58,120.23c-.11-.04-.06-.27.09-.39.18-.14.45-.22.58-.15.13.07.08.2-.06.34-.12.12-.51.24-.61.2Z"/>
            <path class="cls-2" d="m82.42,75.35c-.12-.07-.07-.21.11-.34.17-.12.5-.21.6-.16.09.04.01.25-.13.36-.18.14-.46.21-.58.14Z"/>
            <path class="cls-2" d="m68.69,93.31c-.14-.07-.08-.24.11-.38.17-.12.47-.2.55-.15.1.06.04.29-.13.4-.19.12-.39.21-.53.13Z"/>
            <path class="cls-2" d="m35.85,97.42c-.28.21-.52.27-.66.19-.12-.07-.1-.19.06-.34.16-.14.51-.21.63-.13.09.07.12.15-.03.28Z"/>
            <path class="cls-2" d="m35.86,114.62c-.15-.05-.14-.22.03-.37.14-.12.46-.26.57-.23.15.04.08.26-.13.43-.19.16-.34.21-.47.16Z"/>
            <path class="cls-2" d="m34.02,97.46c-.1-.05-.05-.24.09-.36.17-.14.49-.24.6-.18.13.07.09.24-.09.38-.16.12-.49.21-.6.15Z"/>
            <path class="cls-2" d="m60.37,102.39c-.24-.09-.23-.23-.03-.39.19-.15.38-.2.53-.15.17.05.14.2-.06.36-.19.15-.37.21-.44.18Z"/>
            <path class="cls-2" d="m81.32,80.18c-.2.17-.47.26-.59.2-.14-.07-.03-.22.09-.36.12-.14.47-.24.6-.18.13.05.09.19-.1.34Z"/>
            <path class="cls-2" d="m62.81,98.33c-.08-.06.04-.29.22-.42.21-.15.4-.19.51-.11.1.07,0,.28-.18.4-.12.08-.5.17-.55.13Z"/>
            <path class="cls-2" d="m66.68,108.31c-.14-.06-.06-.19.09-.33.16-.15.36-.23.54-.23.13,0,.1.27-.01.37-.16.14-.48.24-.63.2Z"/>
            <path class="cls-2" d="m69.78,87.98c.07-.05.21-.03.34,0,.12.02.08.28-.04.37-.12.09-.56.22-.62.19-.1-.06,0-.3.32-.55Z"/>
            <path class="cls-2" d="m54.26,106.15c-.22-.08-.2-.24-.04-.39.15-.13.48-.23.58-.16.11.07.08.19-.11.34-.18.14-.35.24-.44.2Z"/>
            <path class="cls-2" d="m97.51,83.51c.06.08.16.15,0,.32-.15.14-.53.25-.67.2-.1-.04-.03-.24.12-.36.16-.13.43-.21.55-.16Z"/>
            <path class="cls-2" d="m44.69,113.03c.1-.08.55-.21.62-.18.1.04,0,.26-.18.4-.2.16-.39.22-.51.16-.1-.05-.06-.28.07-.38Z"/>
            <path class="cls-2" d="m56.87,97.43c-.11-.06-.06-.19.08-.34.11-.11.45-.24.55-.22.15.03.08.25-.13.43-.14.11-.36.18-.5.13Z"/>
            <path class="cls-2" d="m86.1,97.22c-.11-.06-.05-.19.11-.34.16-.15.45-.24.53-.17.08.07.19.15-.02.33-.19.16-.45.25-.62.18Z"/>
            <path class="cls-2" d="m53.24,96.03c-.13-.07-.08-.28.1-.38.2-.12.41-.19.54-.11.11.07.15.17-.05.34-.19.16-.45.23-.59.16Z"/>
            <path class="cls-2" d="m79.29,91.02c-.18.15-.48.23-.6.18-.12-.06-.05-.26.14-.4.22-.16.39-.11.55-.13.13-.01.05.24-.09.35Z"/>
            <path class="cls-2" d="m59.19,101.25c.13.07.08.24-.13.38-.18.12-.34.16-.47.11-.15-.05-.1-.22.09-.37.18-.14.39-.19.51-.12Z"/>
            <path class="cls-2" d="m83.33,94.43c.16-.14.49-.23.6-.16.12.06.07.17-.09.31-.16.13-.51.26-.61.22-.06-.03,0-.29.1-.36Z"/>
            <path class="cls-2" d="m65.14,100.94c-.24.17-.57.24-.68.17-.09-.06,0-.25.17-.36.19-.11.39-.2.51-.1.09.07.19.14,0,.29Z"/>
            <path class="cls-2" d="m72.71,106.35c.2-.15.5-.23.62-.17.11.06.11.16-.07.3-.2.16-.49.25-.58.18-.09-.08-.14-.17.03-.31Z"/>
            <path class="cls-2" d="m49.05,100.96c-.13-.05-.06-.16.09-.29.21-.17.43-.23.58-.17.13.05.09.21-.08.34-.19.14-.43.2-.6.12Z"/>
            <path class="cls-2" d="m67.39,85.7c-.16-.07-.02-.22.12-.35.12-.12.43-.21.54-.18.14.04.11.25-.05.38-.15.12-.46.2-.61.15Z"/>
            <path class="cls-2" d="m68.99,83.96c-.17.13-.53.23-.6.17-.09-.07.02-.33.2-.45.2-.13.35-.1.47-.08.09.02.02.28-.07.35Z"/>
            <path class="cls-2" d="m45.72,117.36c.17-.12.37-.17.53-.16.13.01.07.25-.08.38-.17.15-.39.22-.52.16-.14-.06-.12-.23.07-.39Z"/>
            <path class="cls-2" d="m54.53,104.91c-.15.11-.47.18-.58.12-.12-.07,0-.22.15-.32.16-.11.38-.23.55-.18.15.04.09.23-.12.38Z"/>
            <path class="cls-2" d="m51.13,112.34c-.15.13-.46.22-.56.16-.11-.06-.2-.14,0-.32.17-.15.55-.27.65-.19.11.08-.01.23-.09.35Z"/>
            <path class="cls-2" d="m64.06,91.83c-.16.14-.47.22-.61.18-.11-.03-.06-.22.08-.34.16-.14.46-.23.59-.17.14.07.07.19-.06.33Z"/>
            <path class="cls-2" d="m62.15,93.48c-.14-.07-.1-.22.1-.38.19-.15.38-.19.5-.11.12.07.06.25-.14.39-.16.11-.36.16-.46.1Z"/>
            <path class="cls-2" d="m75.92,75.59c.2-.14.49-.22.58-.15.11.09,0,.23-.16.36-.11.1-.51.2-.6.16-.09-.04.01-.25.18-.37Z"/>
            <path class="cls-2" d="m50.52,110.22c-.15-.06-.11-.18.07-.33.2-.17.4-.23.58-.19.19.05.04.21-.06.33-.12.14-.45.23-.58.18Z"/>
            <path class="cls-2" d="m38.89,93.73c.16-.14.48-.24.6-.19.12.05.07.21-.1.35-.16.12-.32.19-.47.14-.16-.05-.17-.18-.03-.3Z"/>
            <path class="cls-2" d="m48.62,106.28c.14-.09.33-.15.48-.11.15.04.11.24-.07.37-.18.13-.37.2-.53.15-.15-.06-.12-.21.12-.41Z"/>
            <path class="cls-2" d="m68.28,96.66c-.15-.06-.14-.23.05-.36.19-.13.36-.19.52-.13.17.06.12.17-.05.32-.19.17-.37.23-.51.18Z"/>
            <path class="cls-2" d="m80.94,107.48c-.12-.04-.1-.22.06-.33.17-.11.39-.24.53-.17.12.05.17.15-.02.32-.17.15-.42.23-.58.18Z"/>
            <path class="cls-2" d="m55.04,121.97c-.09-.06.03-.29.22-.41.19-.11.42-.16.47-.09.06.07.07.21-.16.37-.2.14-.43.2-.53.13Z"/>
            <path class="cls-2" d="m63.44,115.88c-.22.16-.46.23-.56.16-.1-.07-.01-.26.2-.41.17-.12.35-.19.44-.09.07.08.21.15-.08.34Z"/>
            <path class="cls-2" d="m48.98,88.29c-.07-.05-.22-.09,0-.28.2-.17.5-.28.59-.2.09.08.07.21-.11.36-.16.13-.32.21-.48.12Z"/>
            <path class="cls-2" d="m90.18,95.87c-.13-.05-.09-.2.09-.34.18-.14.37-.22.53-.18.13.03.11.22-.02.32-.17.14-.48.24-.6.19Z"/>
            <path class="cls-2" d="m58.69,100.33c-.18.11-.37.2-.52.14-.13-.06-.09-.24.09-.37.16-.12.42-.18.51-.11.1.08.11.18-.09.35Z"/>
            <path class="cls-2" d="m74.62,94.76c.19-.12.38-.19.53-.15.11.03.06.25-.05.34-.19.15-.51.22-.63.13-.11-.08,0-.19.15-.32Z"/>
            <path class="cls-2" d="m47.44,87.41c-.02-.09-.07-.19.07-.34.13-.14.37-.19.58-.15.19.03.09.16-.02.28-.1.11-.5.26-.63.22Z"/>
            <path class="cls-2" d="m97.28,80.32c-.17.13-.41.19-.53.12-.13-.07-.1-.18.09-.34.18-.14.47-.21.57-.14.12.09,0,.22-.14.35Z"/>
            <path class="cls-2" d="m62.37,105.13c-.16.12-.32.18-.46.14-.15-.05-.14-.22.02-.36.16-.16.38-.2.56-.13.11.04.06.21-.12.36Z"/>
            <path class="cls-2" d="m89.15,89.32c-.1-.06-.01-.3.16-.4.14-.08.3-.17.4-.08.11.09.12.27-.01.37-.1.08-.48.16-.55.11Z"/>
            <path class="cls-2" d="m53.58,89.74c-.03-.1-.08-.2.12-.36.16-.13.38-.19.53-.13.12.05.11.16-.02.29-.12.12-.52.24-.62.19Z"/>
            <path class="cls-2" d="m60.65,97.37c.19-.14.47-.22.6-.15.13.06.05.18-.11.31-.18.14-.4.2-.53.14-.12-.06-.11-.19.03-.29Z"/>
            <path class="cls-2" d="m71.79,105.85c.18-.1.37-.2.55-.18.17.02.14.21-.05.37-.13.11-.41.18-.53.12-.13-.05-.08-.17.03-.31Z"/>
            <path class="cls-2" d="m60.47,115.21c-.1-.06-.12-.15.02-.29.17-.16.44-.23.58-.17.14.06.06.18-.07.31-.13.13-.41.21-.54.16Z"/>
            <path class="cls-2" d="m49.51,118.08c-.1-.07-.02-.29.16-.41.14-.1.38-.12.48-.03.09.08.06.19-.09.32-.08.07-.51.16-.55.13Z"/>
            <path class="cls-2" d="m70.07,84.01c-.17.14-.41.2-.53.15-.13-.06-.1-.21.07-.34.17-.13.43-.21.53-.15.12.07.1.19-.07.34Z"/>
            <path class="cls-2" d="m71.3,114.68c.16-.13.45-.22.54-.17.07.05.02.28-.09.35-.19.12-.39.21-.55.16-.12-.03-.06-.21.11-.35Z"/>
            <path class="cls-2" d="m72.44,87.98c-.18.14-.47.21-.59.15-.12-.06-.08-.18.1-.31.15-.1.34-.21.49-.16.12.04.11.23,0,.32Z"/>
            <path class="cls-2" d="m70.79,105.54c-.11-.06-.07-.17.07-.31.15-.14.39-.22.53-.17.14.05.1.16-.05.3-.15.14-.42.22-.55.17Z"/>
            <path class="cls-2" d="m69.88,109.09c.17-.14.34-.18.49-.17.14.02.12.2-.02.33-.14.13-.41.22-.55.18-.13-.04-.1-.19.07-.34Z"/>
            <path class="cls-2" d="m55.37,86.06c-.16.12-.31.15-.39.09-.09-.07-.21-.13.03-.32.19-.15.42-.22.53-.17.11.05.01.26-.17.4Z"/>
            <path class="cls-2" d="m58.9,97.26c-.19-.07-.16-.23.03-.38.17-.13.33-.19.47-.13.14.06.12.2-.06.33-.15.12-.32.22-.45.18Z"/>
            <path class="cls-2" d="m93.23,77.7s.03-.11.14-.22c.15-.15.49-.29.58-.23.1.06.13.14-.05.29-.2.17-.39.24-.67.16Z"/>
            <path class="cls-2" d="m91.1,74.89c-.14.11-.43.18-.53.11-.09-.06-.15-.14.04-.29.18-.15.41-.21.53-.16.11.05.09.24-.04.34Z"/>
            <path class="cls-2" d="m27.85,118.94c.16-.1.33-.17.49-.15.17.03.18.2,0,.35-.12.1-.25.14-.36.12-.16-.03-.23-.22-.12-.32Z"/>
            <path class="cls-2" d="m48.12,110.62c-.09-.08-.08-.2.09-.35.16-.13.32-.2.47-.16.15.05.15.18,0,.32-.15.12-.45.23-.56.19Z"/>
            <path class="cls-2" d="m46.53,117.66c.16-.14.41-.22.53-.17.12.06.07.17-.07.3-.15.13-.44.23-.53.17-.09-.06-.09-.17.07-.31Z"/>
            <path class="cls-2" d="m84.4,102.34c.17-.13.46-.19.53-.12.07.08.06.18-.09.32-.14.12-.52.2-.58.12-.07-.08.01-.2.15-.32Z"/>
            <path class="cls-2" d="m72.91,115.05c.25-.29.58-.54,1-.69.08-.03.2-.05.23-.02.04.04-.07.11-.14.16-.35.2-.69.41-1.09.55Z"/>
            <path class="cls-2" d="m44.68,111.36c-.07-.08-.06-.17.08-.31.17-.17.41-.27.53-.23.13.05.07.18-.04.3-.1.11-.46.26-.57.23Z"/>
            <path class="cls-2" d="m70.55,91.37c-.12-.06-.09-.2.09-.34.18-.14.33-.16.45-.11.12.05.08.22-.08.34-.15.11-.35.16-.46.11Z"/>
            <path class="cls-2" d="m76.44,86.97c-.21.15-.39.18-.52.13-.13-.05-.04-.19.11-.31.16-.13.42-.19.53-.13.09.05.04.2-.11.31Z"/>
            <path class="cls-2" d="m89.1,86.64c-.19.11-.38.2-.52.12-.11-.06-.1-.17.07-.3.17-.14.4-.19.52-.12.1.06.14.15-.08.3Z"/>
            <path class="cls-2" d="m91.49,82.92c-.25.2-.48.28-.66.22-.09-.03-.05-.1.05-.18.29-.22.61-.34.71-.27.08.06-.01.15-.11.23Z"/>
            <path class="cls-2" d="m76.4,113.07c-.29.19-.47.31-.66.42-.1.06-.26.19-.33.1-.05-.07.09-.18.21-.26.23-.15.46-.25.78-.26Z"/>
            <path class="cls-2" d="m25.81,105.83s.09-.04.12-.04c.17,0,.16.24-.01.38-.05.04-.13.08-.19.09-.11.03-.12-.02-.1-.08.04-.11.05-.22.17-.35Z"/>
            <path class="cls-2" d="m96.42,93.13c-.13-.02-.09-.11-.04-.2.07-.11.17-.21.35-.27.06-.02.13-.04.14.01,0,.12-.06.25-.18.39-.1.11-.18.05-.27.07Z"/>
            <path class="cls-2" d="m46.41,91.11c.12-.09.25-.18.34-.12.1.07,0,.2-.14.31-.12.09-.25.12-.34.07-.12-.07.03-.17.14-.27Z"/>
            <path class="cls-2" d="m73.52,95.02c-.15.09-.29.12-.35.06-.06-.06-.1-.16.07-.27.1-.07.23-.09.28-.04.06.06.16.11,0,.25Z"/>
            <path class="cls-2" d="m90.3,87.48c-.08-.04-.12-.12,0-.21.15-.1.35-.2.48-.14.08.03-.02.12-.09.2-.13.15-.26.16-.39.15Z"/>
            <path class="cls-2" d="m95.65,93.81c-.12.08-.26.11-.33.07-.1-.06.02-.18.14-.28.11-.09.25-.09.28-.06.05.06.12.13-.08.28Z"/>
            <path class="cls-2" d="m74.53,81.46c-.15.13-.3.13-.41.12-.12-.01-.05-.09.05-.17.13-.1.28-.2.4-.17.09.02.08.11-.04.22Z"/>
            <path class="cls-2" d="m59.82,108.64s-.11-.09.02-.18c.15-.1.32-.16.39-.08.05.05.07.15-.05.23-.18.13-.27.06-.36.03Z"/>
            <path class="cls-2" d="m68.13,116.93c-.11.1-.19.14-.27.12-.13-.03-.18-.09-.02-.22.08-.06.19-.15.3-.12.16.03.01.16,0,.22Z"/>
            <path class="cls-2" d="m81.21,85.11c-.14.1-.29.2-.4.13-.05-.04-.04-.12.07-.2.15-.12.32-.14.43-.13.07.01,0,.12-.1.2Z"/>
            <path class="cls-2" d="m61.07,103.06c.16-.08.32-.13.43-.09.09.03.07.1-.03.18-.16.12-.28.14-.4.09-.08-.04-.06-.1,0-.18Z"/>
            <path class="cls-2" d="m61.99,112.82c-.07-.04-.09-.09.03-.17.16-.11.31-.13.41-.1.09.03.03.11-.06.19-.14.11-.27.14-.38.08Z"/>
            <path class="cls-2" d="m44.9,94.68c.15-.09.27-.1.37-.06.08.03.06.11,0,.18-.05.07-.4.13-.46.09-.05-.03-.01-.14.08-.21Z"/>
            <path class="cls-2" d="m71.6,95.29c-.04-.07-.05-.14.06-.21.17-.13.29-.11.38-.06.06.04.07.11-.04.18-.15.1-.3.11-.4.09Z"/>
            <path class="cls-2" d="m35.44,122.35c-.1-.05-.06-.13.08-.22.11-.08.22-.09.28-.06.08.04.09.12-.03.22-.14.12-.24.1-.32.06Z"/>
            <path class="cls-2" d="m36.56,108.88c-.09-.05-.09-.14.05-.26.1-.09.22-.13.29-.09.09.05.13.13-.03.26-.1.09-.21.11-.3.09Z"/>
            <path class="cls-2" d="m78.27,74.57c-.09-.07,0-.17.11-.25.13-.09.26-.11.33-.05.04.03.07.08-.03.15-.14.1-.29.18-.42.15Z"/>
            <path class="cls-2" d="m35.51,106.72c-.11.07-.23.11-.29.07-.11-.06-.04-.18.12-.3.09-.07.18-.08.23-.05.11.06.12.15-.05.29Z"/>
            <path class="cls-2" d="m72.7,92.23c-.06-.06,0-.15.09-.24.1-.1.23-.16.34-.12.08.03.08.1,0,.18-.12.11-.27.18-.43.18Z"/>
            <path class="cls-2" d="m39.66,91.95c-.15.09-.26.11-.32.04-.05-.06-.09-.14.04-.22.12-.08.25-.08.33-.03.08.05.09.11-.05.22Z"/>
            <path class="cls-2" d="m51.25,110.85c-.06-.03-.09-.06-.01-.14.13-.11.28-.18.42-.16.1.01.09.1,0,.17-.14.12-.28.15-.41.13Z"/>
            <path class="cls-2" d="m72.91,91.33c.11-.1.21-.07.27-.06.16.03.06.14-.07.24-.08.07-.19.15-.29.13-.15-.05-.02-.18.08-.31Z"/>
            <path class="cls-2" d="m95.12,80.85c-.08-.06-.03-.17.09-.27.1-.08.2-.08.27-.04.08.04.12.1-.02.21-.12.1-.24.13-.35.1Z"/>
            <path class="cls-2" d="m69.29,99.6c-.09-.05-.05-.25.07-.31.13-.06.21-.05.27-.01.08.05.08.12-.05.22-.09.07-.2.11-.29.1Z"/>
            <path class="cls-2" d="m61.4,81.35c.11-.08.23-.12.29-.09.09.05.09.15-.01.26-.07.07-.2.1-.28.07-.11-.04-.14-.11,0-.24Z"/>
            <path class="cls-2" d="m36.62,110.49c-.07-.03-.13-.07-.02-.16.15-.14.29-.14.39-.11.08.03.06.1-.04.18-.13.1-.24.13-.33.09Z"/>
            <path class="cls-2" d="m51.03,95.46c-.06-.07,0-.17.12-.25.16-.11.22-.04.29,0,.06.03.13.08,0,.17-.14.09-.3.12-.4.08Z"/>
            <path class="cls-2" d="m46.46,97.85c-.06-.07-.07-.16.12-.27.1-.06.24-.11.28-.05.05.07.03.18-.13.28-.1.07-.21.1-.26.04Z"/>
            <path class="cls-2" d="m32.24,108.91c-.06-.07-.08-.15.1-.27.12-.08.21-.08.27-.04.07.06.01.15-.09.24-.1.09-.2.09-.28.07Z"/>
            <path class="cls-2" d="m40.58,92.18c-.1-.06-.13-.13.02-.26.07-.06.17-.1.25-.09.16.03.06.15-.03.26-.06.06-.16.09-.23.09Z"/>
            <path class="cls-2" d="m46.89,89.75c-.03-.08-.08-.15.1-.27.09-.06.18-.08.23-.05.11.05.05.16-.09.26-.07.06-.16.08-.23.06Z"/>
            <path class="cls-2" d="m34.37,104.23c-.12.09-.23.09-.3.07-.11-.04,0-.14.08-.23.09-.08.23-.15.3-.11.09.05.04.16-.08.27Z"/>
            <path class="cls-2" d="m71.96,111.74c.09.02.05.07-.02.13-.14.12-.28.15-.39.11-.08-.03-.06-.1.03-.18.17-.14.27-.08.38-.06Z"/>
            <path class="cls-2" d="m39.95,108.67c-.14.1-.3.17-.42.14-.1-.02,0-.12.08-.19.11-.09.22-.17.34-.13.08.03.08.09,0,.18Z"/>
            <path class="cls-2" d="m56.4,118.53c-.11.08-.23.16-.34.1-.08-.04-.03-.12.05-.2.12-.11.26-.12.36-.1.1.02.03.11-.07.2Z"/>
            <path class="cls-2" d="m72.23,87.45c-.07-.06,0-.15.1-.24.12-.09.25-.16.35-.11.07.04.02.12-.08.2-.11.09-.23.17-.37.15Z"/>
            <path class="cls-2" d="m45.74,108.49c-.1-.03-.09-.08-.02-.15.11-.1.23-.22.38-.18.08.02.1.08.02.17-.13.13-.28.13-.38.16Z"/>
            <path class="cls-2" d="m79.36,82.91c-.09-.03-.1-.09,0-.17.13-.1.24-.12.33-.08.06.03.13.06,0,.16-.14.11-.24.1-.34.09Z"/>
            <path class="cls-2" d="m71.91,112.21c.11-.08.19-.08.23-.05.07.06.06.16-.08.27-.09.07-.22.1-.28.05-.08-.07,0-.17.12-.27Z"/>
            <path class="cls-2" d="m72.73,80.46c.14-.1.25-.12.32-.09.1.05.03.14-.1.23-.1.07-.23.13-.29.08-.07-.05,0-.15.07-.22Z"/>
            <path class="cls-2" d="m81.48,80.94c-.09.07-.17.1-.24.09-.12-.03-.09-.11.03-.21.08-.07.2-.16.28-.11.08.04.03.14-.07.23Z"/>
            <path class="cls-2" d="m75.38,95.5c-.03-.07-.02-.14.11-.24.11-.07.21-.1.28-.06.1.05,0,.14-.11.23-.1.07-.2.11-.28.07Z"/>
            <path class="cls-2" d="m31.9,121.25c-.04-.11.02-.2.17-.27.1-.04.23-.09.28-.04.06.07-.06.16-.19.23-.09.04-.19.06-.25.08Z"/>
            <path class="cls-2" d="m47.16,115.06c-.1.06-.21.14-.31.12-.11-.02-.03-.11.05-.18.08-.08.19-.15.29-.12.09.03.06.1-.03.18Z"/>
            <path class="cls-2" d="m65.62,75.15c-.15.09-.3.13-.42.12-.07,0,0-.07.05-.09.14-.05.3-.13.42-.1,0,0-.03.05-.05.07Z"/>
            <path class="cls-2" d="m82.1,109.09c.08.03.03.1-.04.15-.07.06-.18.17-.27.12-.04-.02-.04-.1,0-.15.07-.07.2-.13.3-.12Z"/>
          </g>
          <path class="cls-5" d="m66.46,89.37c1.35,4.38,6.33,7.28,10.8,6.31-1.54,1.83-4.29,2.23-5.89,4-1.03,1.14-1.45,2.7-2.05,4.12s-1.57,2.87-3.07,3.22c-1.4.33-2.8-.38-4.18-.79-4.5-1.36-9.28.45-13.62,2.23-.11-1.25,1.09-2.15,2.05-2.96s1.78-2.31.92-3.22c-.81-.86-2.78-.75-2.72-1.93,1.89-.82,3.88-1.7,5.11-3.43.81-1.14.87-3.2,1.99-4.08.77-.6,11.35-1.27,10.67-3.47Z"/>
        </g>
      </g>
    </g>
  </g>
</svg>