<?xml version="1.0" encoding="UTF-8"?>
<svg id="Layer_2" data-name="Layer 2" xmlns="http://www.w3.org/2000/svg" viewBox="0 0 201.86 234.49">
  <defs>
    <style>
      .cls-1 {
        fill: #fff;
      }

      .cls-2 {
        fill: #f49297;
      }

      .cls-3 {
        fill: #eab520;
      }
    </style>
  </defs>
  <g id="Blancos">
    <path class="cls-1" d="m187.73,48.25c-1.21-.37-2.51-.83-4.01-1.39-6.33-2.96-12.67-3.78-18.59-4.22-.1,0-1.05-.06-1.05-.06-3.38-.18-6.88-.37-10.52-.37-2.94,0-5.61.12-8.16.38l-.19.02c-5.94.68-11.38,1.99-16.65,3.25-4.25,1.02-8.26,1.99-12.08,2.5-.18.02-.35.05-.53.08-.18.02-.37.03-.57.05-1.31.12-3.27.29-5.46.84-.96-1.25-1.91-2.18-2.59-2.79-.7-.99-1.82-2.63-2.02-3.3-.05-.2-.11-.41-.17-.61-.19-.61-.39-1.4-.6-2.23-.73-2.9-1.73-6.87-4.08-10.84-.03-.06-.07-.12-.1-.18-.99-1.63-2.03-2.86-2.71-3.67-.06-.07-.12-.14-.18-.21-.75-1.21-1.93-3.01-3.71-4.76-.17-.17-.34-.33-.51-.48-3.55-3.18-6.82-5.66-10.17-7.73-5.48-4.4-10.99-7.11-16.8-8.27-.03,0-.07-.01-.1-.02-.25-.1-.65-.28-.95-.41-1.61-.71-3.82-1.68-6.64-2.27-.06-.01-.12-.02-.18-.04-.15-.04-.29-.09-.44-.14-1.62-.52-4.32-1.39-7.76-1.39-.04,0-.12,0-.17,0-6.02.05-11.48,3.01-14.62,7.92-3.37,5.28-3.7,12.16-.87,18.41.22.48.46.95.72,1.4,1.39,2.37,2.88,4.46,4.2,6.3.9,1.26,1.76,2.46,2.43,3.54,2.12,4.99,4.78,11.05,9.44,16.44,1.64,1.98,4.35,5.22,8.66,7.49.14.07.27.14.41.21.77.37,1.71.91,2.7,1.48,1.38.79,2.94,1.69,4.71,2.54.51.25,1.04.46,1.58.65.46.16.96.35,1.49.56-.73,1.01-1.36,1.96-1.91,2.81-.22.33-.47.72-.71,1.07-12.03.06-17.02,2.58-25.4,7.37l-1.11.63c-7.17,3.72-14.47,8.26-19.72,16-6.18,7.46-10.83,14.89-14.21,22.71-.19.44-.36.88-.5,1.34C3.9,129.44-.01,143.49,0,158.32c0,.42.02.85.05,1.27.42,4.88,2.59,21.74,12.96,33.89.27.32.56.63.86.92,2.41,2.39,4.86,4.26,7.03,5.91.94.72,1.85,1.42,2.65,2.07.12.56.25,1.4.39,2.5.06.5.15,1,.27,1.5.06.26.15,1.04.22,1.6.35,2.92.87,7.34,3.54,11.88.13.22.26.44.4.65,7.16,10.87,19.61,12.83,25.6,13.76.34.05.69.1,1.03.13.72.06,1.46.09,2.17.09h0c11.36,0,18.14-7.34,22.13-12.46,6.38-1.06,13.56-2.28,20.73-5.61l.57-.21c7.95-2.95,19.88-7.37,26-19.61,1.5-2.53,3.18-5.08,4.94-7.76,1.12-1.71,2.25-3.41,3.35-5.14.15-.24.29-.48.43-.72,1.74-3.1,3.03-6.18,4.17-8.89.34-.81.68-1.63,1.04-2.44,3.34-6.36,5.73-13.35,7.31-21.34l.19-.89c1.34-6.3,2.86-13.43,2.2-21.37-.24-11.29-6.19-19.64-10.57-25.77-.69-.96-1.37-1.92-2.02-2.88-2.15-3.35-4.68-6.15-7.28-8.57,3,1.18,6.45,2.34,10.33,2.93,5.69,1.21,11.8,2.32,18.12,2.53.93.09,1.87.13,2.8.13h0c8.29,0,14.9-3.38,19.3-6.1,7.66-4,13.59-9.28,17.64-15.69,4.9-6.95,3.2-13.43,2.21-15.96-1.24-3.17-4.57-8.62-13.02-10.4Z"/>
  </g>
  <g id="Layer_1-2" data-name="Layer 1">
    <g>
      <g>
        <path class="cls-3" d="m135.22,128.81c.62,6.26-.8,12.41-2.09,18.49-1.22,6.22-3.12,12.22-6.12,17.81-1.57,3.53-2.9,7.18-4.79,10.55-2.94,4.62-6.09,9.11-8.85,13.84-3.59,7.65-11.82,10.34-19.18,13.09-7.28,3.52-15.41,4.15-23.19,5.67-3.99,4.67-7.49,11.82-14.73,11.2-5.52-.87-12.12-2.22-15.4-7.19-1.63-2.77-1.36-6.2-2.07-9.26-.46-3.67-1.12-7.59-3.71-10.42-3.34-3.18-7.38-5.57-10.68-8.84-5.56-6.51-8.7-16.98-9.42-25.43-.01-11.87,2.97-23.6,6.59-34.83,3.1-7.19,7.46-13.71,12.49-19.68,3.51-5.52,9.15-8.85,14.83-11.78,8.02-4.56,10.29-6.2,19.91-6.19,12.66-.12,10.98-10.34,19.93-15.41,7.78-4.84,19.11-2.98,21.8,6.67,1.41,5.26-.91,10.54-1.66,15.73,5.61,4.63,12.25,8.55,16.19,14.81,4.38,6.51,10.17,12.88,10.14,21.19Z"/>
        <path class="cls-2" d="m98.69,60.09c.03.76-.62,1.43-1.39,1.28-2.31-.2-3.4-2.48-5.32-3.4-3.12-1.24-6.47-1.81-9.7-2.72-2.71-.87-5.28-2.11-7.96-3.04-2.51-1.21-4.83-2.77-7.34-3.99-1.72-.9-2.97-2.43-4.18-3.9-3.44-3.93-5.45-8.79-7.47-13.54-2.12-3.7-4.95-6.96-7.09-10.63-.93-2.05-1.03-5.13,1.96-5.16,1.84-.01,3.53.93,5.33,1.24,2.74.57,5.06,2.3,7.84,2.73,4.19.84,7.85,3.14,11.07,5.85,3.19,1.87,6.08,4.15,8.83,6.61.75.74,1.29,1.66,1.84,2.55.76,1.11,1.77,2.04,2.47,3.2,1.76,2.99,2.24,6.54,3.24,9.83.83,3.21,2.76,6.04,4.66,8.71.88,1.61,3.12,2.34,3.22,4.36Z"/>
        <path class="cls-2" d="m184.19,62.85c2.15.35,3.64,1.13,1.9,3.38-2.98,4.92-7.55,8.46-12.63,11.04-4.12,2.61-8.67,4.65-13.66,4.04-5.55-.13-11.12-1.18-16.5-2.33-4.2-.55-8.02-2.34-11.89-3.93-4.56-1.63-9.47-2.14-13.93-4.03-1.96-1.28-4.53-1.93-5.93-3.86-1.61-3.94,4.56-3.47,6.93-3.93,9.6-1.28,18.81-4.61,28.45-5.71,5.69-.57,11.42-.22,17.11.09,4.74.35,9.5.94,13.81,3.07,2.1.79,4.21,1.56,6.36,2.17Z"/>
      </g>
      <path class="cls-1" d="m78.43,193.16c2.05.74,4.49-.26,5.73-2.05.47-.68.74-1.51.67-2.33-.2-2.3-2.43-3.84-4.61-3.16-.84.26-2.19.97-3.02,1.82-.82.85-1.36,2.03-1.23,3.21.13,1.18,1.1,2.04,2.46,2.52Z"/>
      <path class="cls-1" d="m89.53,173.68c.86-1.77.41-4.07-.74-5.93-1.13-1.83-5.11-2.2-6.67,1.3-.55,1.23-.36,4.09.76,5.76,1.59,2.38,5.02,2.23,6.66-1.13Z"/>
      <path class="cls-1" d="m103.45,183.4c1.04-.66,1.84-1.78,1.89-3.01.02-.49-.07-.98-.2-1.46-.59-2.15-2.24-3.79-4.57-3.53-1.32.15-2.55,1-3.15,2.19-.65,1.29-.72,3.67,1.07,5.21,1.06.91,3.22,1.69,4.96.59Z"/>
    </g>
  </g>
</svg>