<?xml version="1.0" encoding="UTF-8"?>
<svg id="Layer_2" data-name="Layer 2" xmlns="http://www.w3.org/2000/svg" viewBox="0 0 151.12 214.02">
  <defs>
    <style>
      .cls-1 {
        fill: #008d4a;
      }

      .cls-1, .cls-2, .cls-3, .cls-4 {
        stroke-width: 0px;
      }

      .cls-2 {
        fill: #fff;
      }

      .cls-3 {
        fill: #eab520;
      }

      .cls-4 {
        fill: #cd7534;
      }
    </style>
  </defs>
  <g id="Blancos">
    <path class="cls-2" d="m149.99,107.2c-2.32-5.62-7.8-9.27-13.86-9.27-.08,0-.17,0-.25,0-.61.01-1.22.03-1.83.04-.11-1.67-.36-3.33-.75-4.96,2.26-4,3.62-8.68,3.93-13.69.17-2.89.06-5.84-.34-8.68,2.66-4.02,4.15-8.78,4.19-13.53.03-3.57-.72-7.05-2.11-10.22,1.02-3.51,1.25-7.27.56-11-1.01-5.51-4.02-10.41-8.22-14-.68-4.11-2.15-7.8-3.71-10.3-3.98-6.4-9.68-9.69-16.95-9.78-.06,0-.13,0-.19,0-.6,0-1.37.06-2.25.19-3.12-1.61-6.23-2.01-8.53-2.01-2.79,0-5.58.58-8.53,1.79-.07.03-3.31,1.46-6.89,4.18-4.05.21-7.94,1.43-11.33,3.59-2.99,1.9-5.45,4.47-7.27,7.42-3.36,1.5-6.36,3.83-8.68,6.8-1.85,2.38-3.24,5.07-4.15,8.01-3.32,2.53-6.07,5.96-7.86,10-.94,2.13-1.63,4.38-2.05,6.77-2.96,2.17-5.56,4.92-7.63,8.13-1.58,2.45-2.79,5.07-3.62,7.77-1.43-.44-2.91-.66-4.39-.66-3.2,0-6.38,1.02-9.05,3.03-2.12,1.6-3.72,3.69-4.73,6.03-2.27.36-4.47,1.25-6.41,2.66-4.87,3.52-7.17,9.61-5.84,15.47,2.44,10.79,1.71,21.2.86,33.26-.11,1.51-.21,3.02-.31,4.55-.18,2.68-.45,5.4-.73,8.28-1.03,10.44-2.19,22.27,1.06,34.68,2.14,8.17,6.02,15.81,11.22,22.11,3.61,4.38,10.34,12.53,21.26,14.62.18.03.36.07.54.1,7.6,5.41,17.88,5.41,21.87,5.41h.29c7.69-.03,15.47-1.82,22.5-5.18,1.17-.56,2.33-1.16,3.44-1.79,10.56-5.97,19.51-15.45,25.88-27.42.41-.78.82-1.54,1.22-2.3,3.05-5.78,5.06-9.6,8.73-12.93,4-3.64,8.83-6.48,14.36-8.45,6.1-2.17,10.12-8.02,9.97-14.49-.1-3.97-1.75-7.63-4.44-10.3,2.48-2.53,5.04-5,7.56-7.43,4.44-4.28,5.81-10.83,3.46-16.53Z"/>
  </g>
  <g id="Productos">
    <g>
      <path class="cls-1" d="m27.28,78.81c11.69,6.91,19.67,19.72,20.73,33.25.05.65.08,1.34-.27,1.9-.28.45-.76.74-1.23,1-1.21.69-2.41,1.37-3.62,2.06-7.33,4.18-15.06,2.95-14.55-6.44.59-10.73,1.71-21.21-1.07-31.78Z"/>
      <path class="cls-1" d="m136.12,112.92c-8.28.14-16.68,1.23-24.2,4.8-7.87,3.73-22.59,16.6-16.23,27.08,8.46,13.94,20.18-9.93,24.8-15.57s10.22-11.1,15.63-16.31Z"/>
      <path class="cls-3" d="m90.17,22.33c-2.69-1.81-6.46-1.86-9.19-.12s-4.29,5.17-3.79,8.38c-2.82-1.39-6.44-.08-8.38,2.4s-2.43,5.82-2.19,8.96c-3.49.09-6.54,2.74-7.95,5.93s-1.45,6.82-1.06,10.28c-8.07,1.31-13.94,10.4-11.81,18.29-6.28,3.79-9.49,12.01-7.45,19.05-3.74,2.59-7.71,5.48-9.16,9.79-1.01,2.99-.66,6.25-1.14,9.37-.89,5.75-4.6,10.82-5.2,16.61-.35,3.4.43,6.9,2.19,9.82.7,1.16,1.56,2.25,2.04,3.52.81,2.16.44,4.56.32,6.86-.54,10.22,4.55,20.57,12.97,26.39,8.42,5.82,19.9,6.92,29.27,2.8,6.44-2.83,11.67-7.8,16.66-12.77,2.3-2.29,6.23-4.79,7.68-7.71,1.23-2.47.82-4.69,3.45-6.57,2.43-1.75,4.34-3.62,6.79-5.3,2.89-1.99,4.53-4.81,4.74-8.31.15-2.54-1.47-5.19-.97-7.71.61-3.09,3.68-2.93,5.73-4.88,1.76-1.67,2.85-3.55,2.92-6.04.08-3.39-1.66-6.54-3.5-9.39,5.85-4.08,7.77-12.86,4.16-19-.38-.65-.83-1.32-.81-2.07.03-1.09.99-1.88,1.77-2.64,2.59-2.54,3.79-6.22,4.01-9.84.14-2.35,0-4.83-.47-7.14-.25-1.26-1.54-3.42-1.26-4.68.35-1.56,2.67-2.58,3.61-3.88,1.2-1.65,1.92-3.67,1.94-5.73.03-3.71-2.22-7.35-5.55-8.98,3.14-1.88,4.91-5.79,4.25-9.39-.79-4.29-4.99-7.52-9.22-7.84,2.15-2.68.95-8.62-.69-11.25-1.22-1.96-2.09-2.67-4.39-2.7-.97-.01-6.69,1.84-6.21,3.39-1.4-4.43-3.04-6.33-7.45-4.53-.79.32-8.48,5.41-6.64,6.65Z"/>
      <path class="cls-4" d="m99.72,24.95c-3.67-1.61-7.47,2.17-5.83,5.8-2.38.33-4.86.7-6.81,2.03-1.76,1.2-3.11,3.58-2.33,5.68,0,0,.19.51.19.51-3.69-.15-7.41,1.65-9.51,4.66-1.99,2.85-2.5,6.67-1.35,9.92,0,0,.18.51.18.51-6.21,2.08-10.43,8.87-9.56,15.33-6,1.97-9.69,9.3-7.68,15.29,0,0,.2.58.2.58,0,0-.59.18-.59.18-5.26,1.58-8.41,8.26-6.27,13.33,0,0,.24.56.24.56,0,0-.58.17-.58.17-5.98,1.73-9.87,8.82-8.11,14.82,0,0,.07.25.07.25l-.21.14c-3.01,2.07-5.78,4.74-7.13,8.19-1.31,3.4-.99,7.66,1.6,10.4-4.27-4.21-2.87-11.32.9-15.4,1.23-1.44,2.68-2.68,4.21-3.78l-.14.4c-1.01-3.2-.49-6.74,1.05-9.67,1.54-2.93,4.17-5.4,7.43-6.39,0,0-.34.73-.34.73-2.41-5.74.97-13.01,6.91-14.89,0,0-.39.76-.39.76-1.11-3.24-.71-6.84.72-9.87,1.42-3.04,3.99-5.61,7.21-6.79l-.4.64c-.61-6.71,3.63-13.47,9.93-15.83,0,0-.33.7-.33.7-1.26-3.62-.63-7.78,1.61-10.85,2.24-3.07,5.98-4.92,9.74-4.86,0,0-.36.51-.36.51-1.26-3.88,2.52-7.19,6.04-7.78,1.16-.27,2.34-.41,3.51-.54,0,0-.16.26-.16.26-1.4-3.8,2.67-7.52,6.28-5.71h0Z"/>
      <path class="cls-4" d="m107.24,40.69c1.9,2.75,2.39,6.45,1.33,9.64-.38,1.22-1.2,2.39-.97,3.69.1.61.35,1.21.59,1.84,1.5,3.82,1.17,8.28-.74,11.91-.47,1.08-1.69,2.16-1.85,3.27,0,1.14.76,2.47,1.06,3.63,1.24,3.87,1.98,8.08.74,12.09-.6,1.99-1.7,3.9-3.28,5.3-.81.82-2.22,1.18-1.88,2.45.76,1.71,1.87,3.64,2.22,5.56,1.19,5.4-.25,11.29-3.85,15.48-1.23,1.6-3.11,2.51-4.17,4.13-.94,1.69-.59,3.68-.8,5.62-.1,1.34-.26,2.69-.56,4.03-.56,2.67-1.95,5.46-4.54,6.69-2.51.96-2.8,1.49-2.48,4.16.39,6.09-3.31,12.24-8.78,14.73,6.21-3.28,8.95-9.97,7.99-16.72.62-4.33,6.73-.43,7.31-12.94.09-2.62-.13-5.97,2.31-7.76,5.26-3.87,7.8-10.78,6.33-17.13-.38-2.06-1.4-3.56-2.17-5.53-.27-.79.05-1.89.68-2.41.6-.54,1.13-.84,1.59-1.25,1.43-1.24,2.4-2.93,2.97-4.74,1.19-3.7.48-7.77-.65-11.44-.34-1.39-1.06-2.49-1.02-4.03.24-1.57,1.42-2.31,2.04-3.61,1.89-3.39,2.27-7.6.94-11.27-.22-.62-.47-1.27-.55-1.98-.21-1.43.67-2.65,1.13-3.9,1.14-3.09.79-6.67-.94-9.51h0Z"/>
      <path class="cls-4" d="m91.07,50.49c-3.75,3.22-5.42,8.59-4.13,13.28-3.02,1.24-5.37,3.74-6.76,6.66-1.03,2.14-1.59,4.49-1.68,6.86-.07,1.64.38,3.45-.56,5-.46.79-1.11,1.39-1.75,1.92-3.69,2.89-7.77,6-9.45,10.44-.97,2.26-.48,4.62-.51,7.03-.04.86-.24,1.79-.69,2.59-1.94,2.85-4.66,4.2-6.39,7.31-3.38,5.3-4.42,12.14-2.49,18.15,0,0,.11.33.11.33l-.25.24c-5.11,5.02-10.81,10.48-11.9,17.87-.31,1.84.13,3.79-.72,5.56-.46.89-1.15,1.56-1.78,2.22-3.18,3.32-5.52,7.4-6.83,11.83,1.08-4.5,3.35-8.73,6.45-12.19.62-.69,1.25-1.35,1.62-2.13.71-1.57.26-3.51.54-5.38.97-7.62,6.64-13.44,11.85-18.57,0,0-.14.57-.14.57-2.08-6.35-1.04-13.53,2.49-19.16.87-1.42,1.92-2.74,3.12-3.89,1.18-1.2,2.54-2.1,3.24-3.35.72-1.22.59-2.79.49-4.41-.65-7.09,5.52-12.07,10.57-15.87.61-.49,1.17-1.01,1.54-1.61.81-1.31.39-2.99.51-4.52.14-2.48.77-4.94,1.9-7.16,1.48-2.94,3.92-5.52,7.04-6.72l-.16.31c-1.06-4.86.85-10.19,4.71-13.18h0Z"/>
      <path class="cls-4" d="m72.4,139.01c5.7-3.44,8.58-10.74,6.61-17.05-1.67-4.09,1.2-4.93,3.21-7.77,3.31-4.48,4.86-10.28,3.97-15.8,0,0-.05-.3-.05-.3l.21-.2c3.88-3.4,6.36-8.24,6.29-13.46.02-1.73-.16-3.46-.43-5.18.87,3.35,1.26,6.96.4,10.44-.84,3.47-2.91,6.59-5.5,9,0,0,.17-.5.17-.5,1.01,5.82-.47,12.04-4.1,16.72-.92,1.47-2.92,2.68-3.49,4.22-.2.71.08,1.59.36,2.51,1.9,6.62-1.42,14.38-7.64,17.37h0Z"/>
      <path class="cls-1" d="m48.1,150.07c-2.86-7.84-6.41-15.63-8.39-23.61-2.2-8.85-5.38-17.06-10.66-24.84-3.69-5.44-7.37-10.46-13.16-13.94,3.27,14.45,1.84,27.63.88,42.12-.85,12.75-3.46,25.43-.12,38.16,1.55,5.9,4.32,11.57,8.28,16.37,3.22,3.9,7.07,8.39,12.51,9.44,5.71,1.09,9.84-4.02,11.92-8.57,5.6-12.3,2.89-23.77-1.25-35.14Z"/>
      <path class="cls-1" d="m75.87,193.99c8.59-4.86,15.37-12.67,20.03-21.41,3.89-7.3,6.82-13.57,13.08-19.27,5.65-5.14,12.25-8.93,19.43-11.49-1.21-.37-2.83-.8-4.19-1.23-18.18-5.73-37.3.43-52.27,11.24-7.63,5.51-14.39,12.23-20.05,19.73-3.93,5.21-13.48,16.39-9.53,23.22,2.26,3.91,10.92,4.25,14.89,4.24,5.54-.02,11.09-1.32,16.08-3.71.86-.41,1.7-.85,2.53-1.32Z"/>
    </g>
  </g>
</svg>