<?xml version="1.0" encoding="UTF-8"?>
<svg xmlns="http://www.w3.org/2000/svg" viewBox="0 0 147.73 177.86">
  <defs>
    <style>
      .cls-1 {
        fill: #ed7966;
      }

      .cls-1, .cls-2, .cls-3, .cls-4, .cls-5, .cls-6 {
        stroke-width: 0px;
      }

      .cls-7 {
        isolation: isolate;
      }

      .cls-3, .cls-5 {
        fill: #e64228;
      }

      .cls-4 {
        fill: #fff;
      }

      .cls-5 {
        mix-blend-mode: multiply;
        opacity: .4;
      }

      .cls-6 {
        fill: #cd7534;
      }
    </style>
  </defs>
  <g class="cls-7">
    <g id="Layer_2" data-name="Layer 2">
      <g id="Blancos">
        <path class="cls-4" d="m145.14,102.56c-2.45-7.36-6.5-13.25-10.07-18.45-2.4-3.49-4.67-6.79-5.93-9.83-1.76-4.25-2.32-9.71-2.92-15.49-.74-7.17-1.57-15.29-4.86-23.44-4.93-12.23-13.95-21.24-25.12-25.51-.9-1.72-2.09-3.26-3.55-4.62-3.56-3.32-8.36-5.23-13.16-5.23-.93,0-1.87.07-2.78.21-6.16.93-11.06,4.99-13.09,10.46-14.88,6.35-26.23,20.03-32.06,31.49-3.32,6.51-5.28,12.93-7.18,19.14-1.12,3.66-2.17,7.12-3.43,10.29-1.28,3.24-3.68,6.49-6.45,10.26-2.5,3.4-5.34,7.26-7.73,11.73-10.19,19.09-8.85,45.08,3.27,63.22,6.28,9.39,15.95,16.3,26.53,18.96,4.24,1.06,8.8,2.1,13.96,2.1,4.55,0,9-.81,13.57-2.47.17-.06.33-.12.5-.18,4.42,1.66,9.27,2.44,15.16,2.44h.21c7-.02,13.93-1.05,20.66-3.06,1.93.31,3.88.46,5.83.46h0c12.94,0,25.01-6.83,32.28-18.26,6.59-10.37,8.11-22.03,8.68-29.92.47-6.63.63-15.37-2.33-24.3Z"/>
      </g>
      <g id="Productos">
        <g>
          <path class="cls-3" d="m132.51,125.8c-.58,8-2.08,16.17-6.38,22.94-5.89,9.26-16.26,13.37-26.23,10.3-6.37,2.34-13.14,3.58-19.93,3.6-3.56.01-7.19-.32-10.49-1.65-1.47-.59-2.88-1.37-4.24-2.25-2.05.89-4.09,1.78-6.19,2.54-6.99,2.54-11.96,1.64-18.78-.07-7.2-1.81-13.6-6.61-17.71-12.75-9.04-13.53-10.18-33.43-2.5-47.81,4.41-8.24,11.42-14.75,14.9-23.54,3.67-9.28,5.46-19.2,10.02-28.14,5.99-11.77,18.44-24.71,32.01-26.61,13.75-1.93,25.33,5.88,30.46,18.61,5.03,12.47,2.67,26.61,7.83,39.06,4.03,9.7,12.31,17.3,15.63,27.27,1.96,5.91,2.04,12.28,1.6,18.5Z"/>
          <path class="cls-5" d="m132.51,125.8c-.58,8-2.08,16.17-6.38,22.94-5.89,9.26-16.26,13.37-26.23,10.3-6.37,2.34-13.14,3.58-19.93,3.6-3.56.01-7.19-.32-10.49-1.65-1.47-.59-2.88-1.37-4.24-2.25-2.05.89-4.09,1.78-6.19,2.54-6.99,2.54-11.96,1.64-18.78-.07-7.2-1.81-13.6-6.61-17.71-12.75-9.04-13.53-10.18-33.43-2.5-47.81,4.41-8.24,11.42-14.75,14.9-23.54,3.67-9.28,5.46-19.2,10.02-28.14,5.99-11.77,18.44-24.71,32.01-26.61,13.75-1.93,25.33,5.88,30.46,18.61,5.03,12.47,2.67,26.61,7.83,39.06,4.03,9.7,12.31,17.3,15.63,27.27,1.96,5.91,2.04,12.28,1.6,18.5Z"/>
          <path class="cls-2" d="m99.9,159.04c2.4-1.3,4.75-2.56,7.17-3.78,2.4-1.2,5.04-2.45,7.8-2.31-5.24,1.43-9.56,5.05-14.97,6.09h0Z"/>
          <path class="cls-2" d="m38.67,153.94c5.7-1.36,11.71-1.75,17.5-.61,3.53.79,6.3,3.3,9.06,5.42-1.04-.53-2.03-1.16-3.04-1.75-2.89-1.96-6.14-3.05-9.63-3.19-4.61-.42-9.27-.22-13.89.13h0Z"/>
          <path class="cls-1" d="m41.29,87.51c-9.31,13.68-14.6,30.36-13.66,46.94.21,2.34.86,4.69,2.28,6.62-1.61-1.79-2.4-4.19-2.77-6.56-1.68-16.66,3.7-33.97,14.15-47.01h0Z"/>
          <path class="cls-1" d="m101.83,55.58c1.24,18.09,11.45,33.66,17.16,50.48,0,0,1.07,3.42,1.07,3.42l-1.32-3.32c-6.66-16.39-16.94-32.33-16.91-50.57h0Z"/>
          <path class="cls-1" d="m67.55,146.73c-11.27-13.19-1.79-30.56,4.06-43.97,2.03-4.74,3.92-9.58,4.7-14.71-.87,10.42-6.39,19.7-9.88,29.35-3.86,9.58-5.48,20.52,1.12,29.33h0Z"/>
          <path class="cls-6" d="m82.61,24.89c.24-.18.46-.4.62-.66.13-.22.22-.46.28-.71.13-.52.13-1.06.12-1.59-.02-1.35-.14-2.7-.36-4.03-.11-.7-.29-1.19-.81-1.68-.91-.85-2.22-1.35-3.47-1.16-.66.1-1.3.49-1.34,1.22-.02.28.05.56.13.84.31,1.02.84,1.98.97,3.05.15,1.18-.14,2.37-.24,3.53-.09,1.06.28,1.45,1.24,1.73s2.04.09,2.85-.52Z"/>
          <path class="cls-1" d="m73.96,28.7c-7.1,6.58-11.47,15.91-11.99,25.57-.06,1.21-.06,2.96-.01,4.17-.12-.69-.22-1.38-.32-2.07l-.16-2.1.02-2.11c.36-9.13,4.98-18.13,12.46-23.46h0Z"/>
        </g>
      </g>
    </g>
  </g>
</svg>