<?xml version="1.0" encoding="UTF-8"?>
<svg xmlns="http://www.w3.org/2000/svg" viewBox="0 0 188.31 185.72">
  <defs>
    <style>
      .cls-1 {
        fill: #19995c;
      }

      .cls-1, .cls-2, .cls-3, .cls-4 {
        stroke-width: 0px;
      }

      .cls-2 {
        fill: #008d4a;
      }

      .cls-5 {
        isolation: isolate;
      }

      .cls-3 {
        fill: #fff;
      }

      .cls-4 {
        fill: #33a46e;
      }

      .cls-6 {
        mix-blend-mode: multiply;
      }
    </style>
  </defs>
  <g class="cls-5">
    <g id="Layer_2" data-name="Layer 2">
      <g id="Blancos">
        <path class="cls-3" d="m176.33,95.49c-3.04-8.81-11.69-13.05-17.14-19.43-5.04-7.22-15.79-6.63-22.63-11.48,4.14-13.74-2.86-38.44-20.82-35.32-3.76.5-9.03,3.65-10.09-1.95C93.43,11.2,71.9,8.15,53.37,3.24,32.13-3.34,6.51-1.83,6.96,26.27c-2.08,20.45-5.83,44.53,7.86,61.78C8.68,98.94.19,111.13,3.55,124.18-.03,132.05-.8,141.87.78,150.32c6,11.81,5.28,34.85,22.62,35.4,10.42-1.49,21.7-5.77,29.44-13.14,6.62-3.25,15.61-4.3,21.94-7.98,5.85-1.64,13.22-16.17,17.03-10.8,4.96,3.97,11.55,3.68,17.07,1.18,10.24,4.04,21.05-3.59,31.43-4.44,8.69-2.58,19.12-1.22,27.13-6.61,6.45-5.44,18.06-7.31,20.41-16.54,2.97-11.45-8.65-21.35-11.51-31.9Z"/>
      </g>
      <g id="Productos">
        <g>
          <polygon class="cls-2" points="21.86 28.12 20.56 36.74 21.19 46.72 19.64 54.02 19.57 61.56 22.48 68.51 24.12 75.89 28.84 81.36 34.34 85.7 37.91 92.1 43.63 96.52 50.74 98.8 57.99 100.35 65.36 99.75 72.74 99.36 79.13 95.41 86.43 93.83 92.05 89.03 95.56 81.92 100.01 75.89 102.9 68.81 103.66 61.08 101.32 55.86 98.8 50.97 96.83 42.36 92.53 34.61 86.09 29.14 77.75 27.86 72.1 22.91 64.92 21.98 58.2 19.83 49.9 17.86 42.79 16.38 33.46 15.14 26.25 14.97 22.51 21.05 21.86 28.12"/>
          <polygon class="cls-2" points="82.07 128.22 86.74 134.43 94.2 136.78 100.92 141.92 108.51 139.22 115.8 141.44 122.82 138.86 129.92 137.54 136.97 135.94 143.93 133.88 151.83 133.96 159.12 131.46 165.76 127.05 173.46 123.13 169.44 116.11 165.69 108.6 162.59 101.54 158.41 95.02 151.41 91.08 146.93 84.73 139.26 82.62 132.65 79.42 126.03 76.12 119.4 71.62 111.5 73.49 104.13 73.13 96.39 70.64 89.49 74.92 81.83 74.76 76.51 79.95 71.46 84.99 70.12 92.05 68.08 99.1 71.45 105.77 71.83 114.29 77.82 120.38 80.88 128.2 82.07 128.22"/>
          <g>
            <g class="cls-6">
              <path class="cls-1" d="m161.14,120.28c-4.93-5.14-12.02-7.14-18.44-9.75-16.43-6.18-33.63-10.3-51.07-12.25-3.49-.44-7-.7-10.5-.98,3.52.06,7.04.22,10.55.49,17.57,1.42,34.93,5.5,51.3,12.02,6.37,2.77,13.53,5.01,18.17,10.46h0Z"/>
            </g>
            <g class="cls-6">
              <path class="cls-1" d="m98.74,106.09c1.06,8.84.82,17.91-.69,26.69.14-8.6.39-18.09.69-26.69h0Z"/>
            </g>
            <g class="cls-6">
              <path class="cls-1" d="m115.26,108.05c2.8,7.32,4.06,15.27,3.64,23.09-.97-7.79-2.17-15.39-3.64-23.09h0Z"/>
            </g>
            <g class="cls-6">
              <path class="cls-1" d="m137.87,113.06c4.99,3.46,8.27,9.56,8.4,15.63-1.57-5.88-4.36-11.08-8.4-15.63h0Z"/>
            </g>
            <g class="cls-6">
              <path class="cls-1" d="m109.86,96.41c5.32-5.06,11.18-9.71,14.32-16.55-1.83,7.4-8.16,12.61-14.32,16.55h0Z"/>
            </g>
            <g class="cls-6">
              <path class="cls-1" d="m132.94,101.12c3.42-4.24,7.98-7.22,11.2-11.62-2.03,5.14-6.9,8.45-11.2,11.62h0Z"/>
            </g>
            <g class="cls-6">
              <path class="cls-1" d="m150.27,109.6c2.62-2.59,5.36-4.79,8.45-6.79-2.13,3-5.07,5.36-8.45,6.79h0Z"/>
            </g>
          </g>
          <g>
            <g class="cls-6">
              <path class="cls-1" d="m78.3,81.26c-7.27-22.93-13.91-35.38-33.71-49.75-2.33-1.79-4.72-3.5-7.07-5.27,2.48,1.58,4.92,3.22,7.35,4.87,19.88,13.31,27.74,27.27,33.42,50.15h0Z"/>
            </g>
            <g class="cls-6">
              <path class="cls-1" d="m77.85,63.34c-.16-.48-.09-1.02.06-1.51.45-1.44,1-2.83,1.57-4.22,2.32-5.52,5.16-10.84,8.72-15.67-2.49,5.2-5.43,10.82-8.01,15.99,0,0-1.35,2.66-1.35,2.66-.43.89-1.06,1.72-.98,2.74h0Z"/>
            </g>
            <g class="cls-6">
              <path class="cls-1" d="m64.88,42.93c.26-5.3,1.19-10.5,2.8-15.56-.25,5.3-1.2,10.5-2.8,15.56h0Z"/>
            </g>
            <g class="cls-6">
              <path class="cls-1" d="m47.89,28.2c-.68-2.17-.69-4.37,0-6.54.69,2.17.68,4.37,0,6.54h0Z"/>
            </g>
            <g class="cls-6">
              <path class="cls-1" d="m38.63,31.47c-3.53-.64-6.79-1.17-10.34-1.7,3.47-.88,7.33-.24,10.34,1.7h0Z"/>
            </g>
            <g class="cls-6">
              <path class="cls-1" d="m57.91,48.1c-4.86-.28-9.73-.14-14.58.13-4.79.41-9.78.55-14.22,2.57,6.87-4.41,20.92-4.29,28.8-2.7h0Z"/>
            </g>
            <g class="cls-6">
              <path class="cls-1" d="m67.24,66.7c-11.87-2.25-24.13,1.51-35.58,4.41,1.41-.56,2.84-1.06,4.26-1.58,9.94-3.42,20.97-6.02,31.31-2.83h0Z"/>
            </g>
          </g>
          <polygon class="cls-1" points="33.38 91.93 27.82 95.59 24.64 101.32 21.18 106.6 19.96 111.7 17.58 116.78 18.97 125.78 15.77 134.36 14.82 141.42 15.68 148.58 18.68 154.56 20.29 160.78 23.4 170.75 28.46 169.12 34.21 167.3 39.85 164.05 44.94 159.58 51.79 156.94 58.74 154.47 66.06 152.42 72.2 148.04 77.13 142.32 82.82 137.56 87.98 130.67 90.96 126.03 92.88 120.84 91.32 114.86 92.95 109.33 87.01 100.83 82.51 92.9 77.41 88.33 71.16 85.48 64.16 85.59 57.62 84.8 50.77 81.8 43.89 83.29 37.22 85.68 33.38 91.93"/>
          <g>
            <g class="cls-6">
              <path class="cls-1" d="m29.1,157.64c5.04-19.9,17.44-37.86,34.01-49.93,0,0,3.38-2.31,3.38-2.31l-3.22,2.52c-15.87,12.84-27.88,30.29-34.17,49.72h0Z"/>
            </g>
            <g class="cls-6">
              <path class="cls-1" d="m37.1,146.1c1.53,3.69,3.25,6.93,5.45,10.26-3.22-2.33-5.31-6.29-5.45-10.26h0Z"/>
            </g>
            <g class="cls-6">
              <path class="cls-1" d="m52.68,127.63c3.12,6.43,4.3,14.16,9.96,19-6.64-3.78-8.2-12.18-9.96-19h0Z"/>
            </g>
            <g class="cls-6">
              <path class="cls-1" d="m69.96,112.35c3.86,6.49,8.19,12.46,13.14,18.17-5.91-4.68-10.54-11.09-13.14-18.17h0Z"/>
            </g>
            <g class="cls-6">
              <path class="cls-1" d="m22.08,141.29c3.04-3.53,7.79-5.68,12.45-5.61-4.48,1.35-8.48,3.15-12.45,5.61h0Z"/>
            </g>
            <g class="cls-6">
              <path class="cls-1" d="m25.57,116.88c4.95-.27,9.77-.19,14.71.25-4.86.94-9.88.85-14.71-.25h0Z"/>
            </g>
            <g class="cls-6">
              <path class="cls-1" d="m34,99.28c6.57-.56,13.22-.06,19.63,1.5-6.6-.19-13.08-.69-19.63-1.5h0Z"/>
            </g>
          </g>
          <polygon class="cls-4" points="120.86 72.76 118.2 78.97 113.95 84.2 110.81 90.03 105.97 94.59 98.41 98.12 92.53 98.63 86.57 97.84 82.03 93.91 77.09 90.1 75.43 84.06 75.48 77.87 79 70.18 83.6 64.57 87.83 58.66 93.42 53.98 99.55 49.95 106.18 48.34 112.25 45.38 118.89 43.96 119.62 44.77 119.2 45.62 122.6 51.9 122.6 58.92 120.56 65.66 120.86 72.76"/>
          <g>
            <g class="cls-6">
              <path class="cls-1" d="m115.43,49.44c-14.16,10.43-26.05,24.03-34.23,39.61,0,0-1.57,3.16-1.57,3.16,6.92-17.54,19.89-32.74,35.8-42.78h0Z"/>
            </g>
            <g class="cls-6">
              <path class="cls-1" d="m89.55,82.07c5.86-1.84,12.2-2.29,18.25-1.27-6.15.37-12.12.78-18.25,1.27h0Z"/>
            </g>
            <g class="cls-6">
              <path class="cls-1" d="m99.58,71.33c4.26-2.1,9.3-2.72,13.94-1.7-4.75.38-9.24.92-13.94,1.7h0Z"/>
            </g>
            <g class="cls-6">
              <path class="cls-1" d="m109.71,60.32c2.14-1.4,4.51-2.16,7.06-2.25-2.14,1.4-4.51,2.15-7.06,2.25h0Z"/>
            </g>
            <g class="cls-6">
              <path class="cls-1" d="m82.43,80.25c-2.22-2.31-3.08-5.96-2.09-9.01.44,3.19,1.08,5.95,2.09,9.01h0Z"/>
            </g>
            <g class="cls-6">
              <path class="cls-1" d="m89.91,69.05c-.8-2.5-.92-5.06-.35-7.62.8,2.5.91,5.06.35,7.62h0Z"/>
            </g>
            <g class="cls-6">
              <path class="cls-1" d="m98.56,60.61c-.91-2.23-.47-4.97,1.09-6.8-.27,2.41-.6,4.43-1.09,6.8h0Z"/>
            </g>
          </g>
          <polygon class="cls-4" points="38.36 108.35 36.75 114.54 36.07 120.89 33.76 126.86 31.95 132.98 33.87 137.94 36.2 138.88 43.2 137.16 50.03 134.98 57.31 134.82 64.33 133.26 71.57 130.18 78.15 125.62 81.43 119.94 83.93 113.96 84.01 107.48 85.29 99.07 80.86 92.32 73.47 89.93 66.06 88.17 58.33 88.02 51.38 90.55 46.63 96.19 43 102.46 38.36 108.35"/>
          <g>
            <g class="cls-6">
              <path class="cls-1" d="m36.26,133.8c4.7-15.94,23.3-34.27,38.59-40.41-2.13,1.07-4.22,2.19-6.18,3.54-12.81,8.69-26.61,22.37-32.41,36.88h0Z"/>
            </g>
            <g class="cls-6">
              <path class="cls-1" d="m64.73,103.69c1.7,6.72,4.41,12.9,8.17,18.72-4.87-4.91-7.87-11.81-8.17-18.72h0Z"/>
            </g>
            <g class="cls-6">
              <path class="cls-1" d="m52.49,114.8c-.71,5.41-1.21,10.63-1.55,16.07-1.05-5.34-.49-11.03,1.55-16.07h0Z"/>
            </g>
            <g class="cls-6">
              <path class="cls-1" d="m49.51,96.09c4.15.44,7.69,3.21,12,2.75-4.11,1.91-8.38-1-12-2.75h0Z"/>
            </g>
            <g class="cls-6">
              <path class="cls-1" d="m39.74,108.98c3.33-.25,6.51-.06,9.79.58-3.25.74-6.65.53-9.79-.58h0Z"/>
            </g>
          </g>
          <polygon class="cls-1" points="60.53 80.29 64.16 89.73 68.55 94.27 74.27 96.51 80.14 95.29 80.29 89.16 78.4 83.33 75.14 78.21 70.74 74.11 64.38 71.44 57.85 69.27 57.55 74.73 60.53 80.29"/>
          <polygon class="cls-1" points="80.84 102.56 86.38 104.38 92.29 105.5 102.5 105.3 103.01 105.12 103.31 104.6 101.34 94.69 94.55 87.47 90.32 85.57 81.34 86.67 75.82 90.93 75.66 97.83 80.84 102.56"/>
          <g class="cls-6">
            <path class="cls-1" d="m78.03,92.28c7.47-1.25,15.74,1.93,20.44,7.88-5.76-4.91-12.87-7.65-20.44-7.88h0Z"/>
          </g>
          <g class="cls-6">
            <path class="cls-1" d="m61.83,73.7c7.51,2.59,13.82,9.66,13.97,17.85-1.65-7.93-7.09-13.89-13.97-17.85h0Z"/>
          </g>
        </g>
      </g>
    </g>
  </g>
</svg>