<?xml version="1.0" encoding="UTF-8"?>
<svg xmlns="http://www.w3.org/2000/svg" viewBox="0 0 124.16 204.64">
  <defs>
    <style>
      .cls-1 {
        fill: #19995c;
      }

      .cls-1, .cls-2, .cls-3, .cls-4, .cls-5 {
        stroke-width: 0px;
      }

      .cls-2 {
        fill: #008d4a;
      }

      .cls-3 {
        fill: #eab520;
        mix-blend-mode: screen;
        opacity: .4;
      }

      .cls-6 {
        isolation: isolate;
      }

      .cls-4 {
        fill: #fff;
      }

      .cls-5 {
        fill: #a6d7c0;
      }
    </style>
  </defs>
  <g class="cls-6">
    <g id="Layer_2" data-name="Layer 2">
      <g id="Blancos">
        <path class="cls-4" d="m70.78,204.64c-3.56,0-7.25-.33-10.97-.99-.68-.07-1.35-.15-2.02-.23-.34-.04-.73-.09-1.16-.16-2-.03-4.09-.2-6.22-.5-.96-.12-1.89-.26-2.81-.4-.24-.04-.49-.08-.75-.13l-.34-.06c-.59-.1-1.19-.21-1.76-.32-.3-.06-.61-.12-.92-.19l-.21-.04c-.56-.12-1.09-.23-1.61-.36-.35-.08-.67-.17-1-.25l-.19-.05c-.52-.13-1.04-.27-1.54-.41-.39-.11-.79-.23-1.2-.35-.47-.14-.94-.29-1.41-.44-.39-.13-.8-.27-1.21-.41-.41-.14-.87-.31-1.31-.48-.41-.16-.81-.31-1.2-.47-.39-.16-.81-.33-1.23-.51-.44-.19-.83-.36-1.21-.54-.4-.18-.8-.38-1.2-.57l-.1-.05c-.36-.18-.71-.35-1.06-.54-.37-.19-.76-.41-1.16-.63-.36-.2-.71-.4-1.06-.6-.32-.19-.65-.39-.97-.59l-.24-.15c-.33-.2-.65-.41-.97-.62-.31-.21-.62-.42-.92-.64l-.22-.15c-.31-.22-.62-.44-.92-.66-.24-.18-.48-.37-.71-.55-.86-.67-1.64-1.33-2.38-2-.21-.18-.42-.37-.62-.56-.34-.32-.66-.64-.98-.96l-.11-.11c-.27-.26-.47-.46-.66-.67-.32-.33-.63-.68-.94-1.03l-.12-.14c-.19-.21-.38-.43-.57-.65-.3-.35-.6-.73-.91-1.11l-.08-.1c-.17-.21-.34-.43-.5-.65-.28-.37-.57-.77-.86-1.17-.16-.22-.33-.47-.5-.72-.28-.42-.56-.84-.82-1.26-.13-.2-.28-.44-.42-.68-.27-.45-.53-.89-.78-1.34-.09-.17-.21-.39-.33-.6-.27-.51-.51-.96-.74-1.42,0,0-.29-.6-.29-.61-.23-.48-.46-.97-.67-1.46-.04-.09-.12-.27-.19-.45-.24-.55-.46-1.1-.67-1.65-.03-.07-.06-.16-.08-.23-1.61-4.26-2.69-8.83-3.32-13.96,0-.03,0-.05,0-.08-.08-.65-.15-1.3-.21-1.96,0-.04,0-.09-.01-.13-.04-.47-.08-.93-.12-1.41-1.21-8.9-2.08-17.97-2.58-26.98C.02,118.61-.12,109.59.1,100.72c.23-9.71.95-22.46,4.39-34.98.08-.33.15-.6.23-.87,3.93-13.76,10.45-20.95,18.57-28.92l.61-.6c-.15-1.01-.24-2-.26-2.96-.04-1.4.07-2.8.3-4.19,1.01-5.91,4.42-10.95,9.35-13.81,2.45-1.43,5.22-2.28,8.07-2.5.04-.09.09-.17.13-.26.19-.36.34-.63.5-.9.42-.72.89-1.4,1.39-2.05.17-.23.35-.45.53-.67.66-.79,1.38-1.52,2.21-2.25.23-.2.5-.42.77-.64.55-.44,1.18-.9,1.84-1.32.21-.14.46-.29.71-.44.84-.5,1.68-.93,2.54-1.32C54.84.75,57.99.07,61.38,0c.05,0,.57,0,.57,0,1.96,0,3.96.19,6.12.59,1.25.23,2.54.53,3.83.89.43.12.88.25,1.34.39,5.67,1.72,11.17,4.39,15.18,6.33.95.46,1.81.88,2.55,1.22,2.03.93,3.96,1.94,5.75,2.99,2.9,1.7,5.51,3.57,7.78,5.55,4.38,3.84,7.56,8.23,9.43,13.04,1.37,3.5,2.02,7.14,1.93,10.81-.02.67-.05,1.28-.1,1.85.16.2.31.41.46.62,2.57,3.51,4.36,7.5,5.31,11.84.46,2.07.71,4.18.76,6.3.11,5.12-.99,10.21-3.21,14.7-.01.02-.02.05-.04.07.07.14.15.28.22.42.46.91.9,1.87,1.32,2.94.12.31.23.59.33.87.28.76.51,1.45.72,2.14.11.36.2.69.29,1.04.18.66.34,1.34.48,2.01l.03.13c.05.26.11.51.16.77.14.78.26,1.55.35,2.32.03.18.05.35.07.53.11,1,.17,1.91.21,2.88,0,.23.02.5.02.76.02.69.02,1.32,0,1.96,0,.3-.02.61-.03.92-.02.61-.05,1.17-.09,1.74v.17c-.03.26-.05.52-.07.79-.05.58-.12,1.21-.19,1.84-.02.21-.04.39-.07.58-.1.8-.22,1.59-.35,2.38-.03.16-.13.73-.13.73-.09.5-.18,1.02-.28,1.53l-.17.88c-.1.5-.2.96-.3,1.42,0,0-.25,1.13-.28,1.28.28,1.47.5,2.83.68,3.96l.24,1.48c.67,4.02,1.15,8.22,1.47,12.84.08,1.14.15,2.29.21,3.44.1,2,.17,4.04.22,6.26.02,1.03.04,2.05.05,3.07,0,.06,0,.12,0,.18,0,4.91-.21,11.41-1.86,18.18-.27,1.12-.58,2.24-.93,3.32-.36,1.14-.76,2.27-1.2,3.36-.35.87-.74,1.77-1.15,2.66-.19.4-.4.82-.61,1.23l-.18.35c-.16.32-.33.65-.5.96-.35.64-.7,1.24-1.06,1.83-.14.25-.28.47-.42.69-.38.61-.81,1.25-1.33,1.98-.1.14-.2.29-.3.42-.47.66-1,1.35-1.59,2.07-.05.06-.14.17-.14.17-1.03,1.24-2.13,2.44-3.31,3.58-7.03,14.28-20.96,22.38-38.8,22.38h0Z"/>
        <path class="cls-4" d="m109.11,138.52c-.04-1.95-.11-3.9-.2-5.84-.05-1.05-.12-2.1-.19-3.15-.26-3.81-.67-7.61-1.3-11.39-.09-.52-.17-1.05-.26-1.59-.33-2.09-.69-4.3-1.26-6.44,0,0,0,0,0,0,0,0,0,0,0,0,.14-.57.28-1.14.41-1.7.06-.23.11-.46.16-.7.09-.4.18-.79.27-1.19.06-.25.11-.51.17-.76.08-.39.16-.77.24-1.16.05-.25.1-.5.15-.75.08-.43.16-.86.23-1.29.03-.2.07-.39.1-.59.1-.62.19-1.23.27-1.84.02-.15.03-.31.05-.46.06-.47.11-.94.15-1.4.02-.22.03-.44.05-.66.03-.41.05-.82.07-1.23,0-.22.02-.45.02-.67,0-.43,0-.86,0-1.29,0-.18,0-.37-.01-.55-.02-.61-.07-1.21-.13-1.81,0-.09-.03-.17-.04-.26-.06-.51-.13-1.02-.23-1.52-.04-.19-.08-.39-.12-.58-.08-.4-.18-.8-.28-1.2-.06-.21-.11-.41-.18-.62-.12-.4-.26-.8-.4-1.2-.07-.18-.13-.36-.2-.54-.23-.57-.47-1.13-.76-1.69-1.23-2.41-3.03-4.76-2.92-7.47.09-2.34,1.61-4.35,2.64-6.46,1.18-2.4,1.73-5.08,1.67-7.75-.03-1.14-.16-2.29-.41-3.4-.49-2.23-1.42-4.37-2.77-6.22-.76-1.04-1.65-2.01-2.35-3.08-.14-.21-.27-.43-.39-.65-.24-.44-.45-.91-.59-1.4-.38-1.32-.27-2.69-.13-4.06.09-.83.19-1.65.21-2.48.04-1.78-.3-3.44-.91-5.01-1.06-2.72-2.98-5.13-5.35-7.21-1.66-1.45-3.53-2.75-5.48-3.89-1.46-.86-2.96-1.62-4.43-2.31-3.69-1.7-9.95-5.05-15.87-6.84-.31-.09-.62-.18-.93-.27-.87-.24-1.72-.44-2.55-.59-1.25-.23-2.45-.36-3.58-.34-.01,0-.02,0-.04,0-1.33.02-2.55.24-3.61.71-.37.16-.69.34-1,.52-.09.05-.17.11-.26.16-.22.14-.42.29-.61.44-.07.06-.14.11-.21.17-.23.21-.45.42-.64.64-.02.03-.04.06-.06.08-.16.2-.3.4-.43.62-.04.07-.08.15-.12.22-.1.18-.18.37-.25.56-.03.07-.06.14-.08.21-.09.25-.16.51-.21.78-.01.06-.02.12-.03.17-.04.22-.06.44-.08.66,0,.09-.01.19-.01.28,0,.21,0,.42,0,.63,0,.08,0,.16,0,.25.02.28.05.57.09.86.01.09.03.19.05.29.03.21.07.42.11.63.02.12.05.25.08.37.04.2.09.41.14.61.03.11.05.23.08.34.07.28.15.57.24.86.05.18.11.37.17.56.04.12.07.23.11.35.37,1.19.78,2.4,1.14,3.6-.12.09-.25.17-.38.24,0,0,0,0,0,0-1.04.57-2.36.53-3.67.18-.02,0-.04-.01-.06-.02-.13-.04-.27-.08-.4-.12-.05-.02-.09-.03-.14-.05-.12-.04-.23-.08-.35-.13-.06-.02-.12-.05-.18-.07-.1-.04-.21-.09-.31-.13-.07-.03-.15-.07-.22-.1-.09-.04-.18-.08-.27-.13-.09-.04-.17-.09-.26-.13-.08-.04-.15-.08-.23-.12-.1-.06-.2-.11-.3-.17-.06-.03-.11-.07-.17-.1-.15-.09-.31-.19-.45-.29-.92-.62-1.94-1.27-2.98-1.78-.22-.11-.45-.21-.67-.3-.3-.12-.6-.23-.9-.32-.18-.05-.35-.09-.53-.13-.35-.07-.7-.11-1.04-.11-.69,0-1.36.16-2,.53-1.19.69-1.86,1.99-2.1,3.36-.07.42-.11.85-.1,1.28.01.45.06.89.13,1.33.15.88.4,1.75.67,2.61.13.43.27.86.4,1.29.06.2.12.39.17.59.15.6.24,1.21.11,1.81-.05.22-.12.42-.22.62-.19.4-.46.76-.76,1.09-.15.17-.31.33-.46.49-1.71,1.73-3.34,3.31-4.88,4.82-6.66,6.54-11.64,11.78-14.65,22.33-.06.22-.11.45-.17.67-2.82,10.2-3.63,20.85-3.88,31.44-.21,8.54-.07,17.09.4,25.62.48,8.72,1.32,17.42,2.51,26.07,0,.05.02.11.02.16,0,0,0,0,0,0,.04.55.08,1.09.13,1.62v.06c.06.53.11,1.06.18,1.59,0,.01,0,.03,0,.04.45,3.73,1.24,7.26,2.48,10.52.02.05.03.09.05.14.15.38.3.76.46,1.14.05.11.09.22.14.32.15.34.31.68.47,1.01.06.14.13.27.2.41.16.31.32.62.48.93.08.15.16.3.24.45.16.29.33.58.51.87.09.16.19.31.29.47.17.28.35.55.54.82.11.16.22.32.33.47.19.26.37.52.57.78.12.16.25.31.37.47.2.25.4.5.6.74.13.15.27.3.41.46.21.24.42.48.65.71.14.15.29.29.43.43.23.23.46.46.7.69.14.13.28.25.42.37.49.44,1.01.88,1.54,1.29.17.13.33.26.5.39.23.17.47.34.71.5.23.16.45.32.68.48.24.16.49.31.73.46.25.16.5.31.75.47.25.15.51.29.76.43.27.15.54.3.81.44.26.14.53.27.8.4.29.14.58.28.88.42.27.12.55.25.83.37.31.13.62.27.94.39.28.11.57.23.86.33.33.13.67.25,1.01.37.29.1.59.2.89.3.36.12.72.23,1.09.34.3.09.61.18.92.27.39.11.78.21,1.18.31.31.08.61.16.93.23.43.1.87.19,1.31.29.3.06.6.13.91.19.5.1,1.01.19,1.53.27.27.05.52.1.79.14.79.13,1.6.24,2.43.35,0,0,0,0,0,0,1.89.27,3.79.41,5.66.36h0c.48.13.98.21,1.48.26.79.09,1.59.18,2.39.27h0c15.2,2.81,29.66-1.16,35.21-15.52,0,0,0-.01,0-.02,0,0,0,0,0,0,1.54-1.27,2.93-2.64,4.15-4.13.01-.01.02-.03.03-.04.39-.48.77-.97,1.14-1.47.04-.05.07-.11.11-.17.33-.47.65-.94.96-1.42.08-.13.15-.26.23-.39.26-.42.51-.84.75-1.28.14-.25.26-.51.39-.77.17-.33.34-.65.5-.99.28-.61.55-1.22.81-1.86.3-.76.58-1.53.82-2.31.25-.78.46-1.57.66-2.36,1.16-4.76,1.44-9.74,1.44-14.62-.01-.97-.03-1.95-.05-2.92Z"/>
      </g>
      <g id="Productos">
        <g>
          <path class="cls-5" d="m109.16,141.44c0,6.51-.48,13.2-2.92,19.3-2.07,5.2-5.19,9.49-9.6,12.96-.69.54-1.62,1.08-2.39.66-.28-.16-.49-.42-.68-.68-3.58-4.75-7.35-10.65-9.15-16.36-.73-2.31-1-4.74-1.25-7.15-1.45-14.09-2.31-28.61,1.78-42.18.77-2.55,1.78-5.15,3.78-6.9,2.98-2.6,7.71-2.59,11.07-.52,5.82,3.6,6.6,11.43,7.62,17.56,1.29,7.69,1.65,15.51,1.74,23.3Z"/>
          <path class="cls-1" d="m19.15,68.97c-2.97,10.4-3.79,21.29-4.05,32.11-.42,17.27.56,34.58,2.91,51.69,1.07,7.77,2.58,15.87,7.46,22.02,4.94,6.22,12.66,9.56,20.31,11.67,7,1.94,14.82,2.98,21.28-.34,9.91-5.08,12.56-17.94,12.8-29.07.17-7.57-.25-15.21-2.22-22.52-1.74-6.48-4.68-12.6-6.42-19.08-4.76-17.71-.31-36.45,4.3-54.2,2.22-8.53,2.96-15.72-2.93-22.83-4.1-4.96-2.69-12.01-9.9-14.98-.78-.32-1.66-.57-2.46-.31-2.51.79-1.63,4.76-3.25,6.84-1.82,2.34-5.56,1.11-8.02-.53-2.46-1.64-5.57-3.59-8.12-2.1-1.55.9-2.24,2.84-2.19,4.64s.69,3.51,1.21,5.23c.24.78.46,1.61.28,2.4-.19.87-.82,1.57-1.45,2.2-9.14,9.23-15.82,14.16-19.53,27.16Z"/>
          <path class="cls-2" d="m56.87,38.39c-1.01,2.59-3.38,4.72-3.46,7.5-.1,3.39,3.26,6.07,3.39,9.46.13,3.43-2.98,5.97-5.67,8.1-4.3,3.41-8.25,7.25-11.79,11.44-2.69,3.18-5.28,7.06-4.69,11.18.38,2.64,2.01,4.9,3.19,7.3,2.04,4.14,2.75,8.93,2.01,13.49-.71,4.35-2.7,8.53-2.46,12.93.35,6.29,5.07,11.29,8.76,16.4,9.41,13,13.09,30,9.9,45.73-.42,2.05-.76,4.61.92,5.85.73.54,1.68.67,2.58.77,9.11,1.08,18.94,1.86,26.88-2.74,7.9-4.57,12.21-13.65,13.8-22.63s.92-18.2,1.38-27.31c.33-6.58,1.26-13.13,2.77-19.54,2.49-10.6,6.46-22.17,1.51-31.87-1.23-2.41-3.03-4.76-2.92-7.47.09-2.34,1.6-4.35,2.64-6.46,2.7-5.48,2.09-12.43-1.51-17.36-1.21-1.66-2.76-3.16-3.33-5.13-.6-2.11.03-4.35.08-6.54.21-8.67-8.3-14.79-16.17-18.42-6.22-2.87-19.73-10.39-26.58-7.33-9.61,4.29,1.51,15.66-1.23,22.67Z"/>
          <path class="cls-5" d="m100.1,103.55c-3.87,15.52-7.59,31.43-5.36,47.4.88,7.4,2.34,14.76,2.46,22.21-5.54,14.51-20.13,18.49-35.43,15.61,0,0,23.23-39.85-9.19-72.71,8.98,2.73,14.08,11.96,18.05,20.46-.59-13.92-5.1-27.64-12.88-39.21-4.12-6.12-9.29-12.03-10.28-19.33,8.48,15.83,20.18,10.96,25.07,36.63-.58-8.69,2.71-18.08-2.75-25.58h0c-6.38-8.53-9.75-19.39-7.78-30,2.61,6.74,5.77,13.25,9.45,19.47h0c1.7,2.86,3.5,5.65,5.4,8.37,5.95-16.11-7.74-31.19-9.56-46.79,8.9,11.89,14.83,26,17.08,40.69,2.71-15.28,2.04-31.14-1.93-46.15,9.62,19.52,8.9,42.44,6.14,64.02,3.05-10.76,6.85-21.29,11.35-31.53,1.03,6.48-2.06,12.79-4.24,18.96-3.86,10.9-5.03,22.72-3.4,34.17,1.71-5.92,4.36-11.56,7.82-16.67Z"/>
          <path class="cls-5" d="m52.42,187.9c-55.19-6.89-27.04-64.72-29.96-101.75.55-1,2.17-1.22,2.36.2.48,3.51-1.6,16.92,2,21.03,3.95-7.49,9.49-18.21,16.31-23.24-.94,10.68-10.99,16.76-13.47,26.88-.65,2.04-3.28,9.97-1.33,11.62,1.38,1.18,3.97-4.69,4.34-5.51.94-2.31,8.77-14.96,10.42-8.68-8.03,6.87-9.82,19-11.53,28.93-1.73,19.29,11.24,35.16,20.86,50.5Z"/>
          <path class="cls-3" d="m107.42,118.14c-.42-2.53-.81-5.34-1.52-8.03,2.16-8.78,3.99-17.85,0-25.68-1.23-2.41-3.03-4.76-2.92-7.47.09-2.34,1.61-4.35,2.64-6.46,2.7-5.48,2.09-12.43-1.51-17.36-1.21-1.66-2.76-3.16-3.33-5.13-.6-2.11.03-4.35.08-6.54.21-8.67-8.3-14.79-16.17-18.42-6.22-2.87-19.73-10.39-26.58-7.33-6.5,2.9-3.52,9.03-1.76,14.86-1.96,1.46-5.19.34-7.4-1.14-2.46-1.64-5.57-3.59-8.12-2.1-1.55.9-2.24,2.84-2.19,4.64.05,1.79.69,3.51,1.21,5.23.24.78.46,1.61.28,2.4-.19.87-.82,1.57-1.45,2.2-9.14,9.23-15.82,14.16-19.53,27.16-2.97,10.4-3.79,21.29-4.05,32.11-.42,17.27.56,34.58,2.91,51.69,0,.05.02.11.02.16,1.23,17.79,8.96,31.78,34.39,34.96,1.89.27,3.79.41,5.66.36.48.13.98.21,1.48.26.79.09,1.59.18,2.39.27,15.21,2.81,29.67-1.16,35.22-15.54,4.13-3.39,7.09-7.53,9.07-12.51,2.43-6.1,2.92-12.79,2.92-19.3-.09-7.79-.45-15.6-1.74-23.3Z"/>
        </g>
      </g>
    </g>
  </g>
</svg>