<?xml version="1.0" encoding="UTF-8"?>
<svg id="Layer_2" data-name="Layer 2" xmlns="http://www.w3.org/2000/svg" viewBox="0 0 180.33 209.9">
  <defs>
    <style>
      .cls-1 {
        fill: #fff;
      }

      .cls-1, .cls-2, .cls-3 {
        stroke-width: 0px;
      }

      .cls-2 {
        fill: #e1ac85;
      }

      .cls-3 {
        fill: #cd7534;
      }
    </style>
  </defs>
  <g id="Blancos">
    <path class="cls-1" d="m179.57,102.13c-.73-7.45-2-14.84-3.82-22.1-3.67-14.7-11.85-33.3-28.92-35.56-10.17-1.35-20.78,8.69-30.06,5.47-9.49-3.29-10.47-21.47-14.9-29.38-5.69-10.16-14.81-18.28-26.59-20.14-11.81-1.87-23.93,2.73-33.44,9.98C22.52,25.15,9.97,48.12,3.32,71.1c-3.53,12.19-4.72,25.35-1.2,37.54,5.57,19.35,23.82,34.12,43.54,37,3.8.55,7.87.78,10.98,3.03,6.09,4.41,6.19,14.69,8,21.36,2.42,8.89,4.86,18.3,11.42,25.16,2.53,2.65,5.64,4.68,8.86,6.42,32.38,17.51,69.96,6.75,84.82-27.34,9.41-21.57,12.13-48.87,9.84-72.14Z"/>
  </g>
  <g id="Productos">
    <g>
      <path class="cls-3" d="m62.77,130.33c17.66-6.42,27.61-32.09,31.99-48.61,1.28-4.85,2.24-9.81,2.56-14.82.63-9.81-1.2-19.65-4.23-29-1.55-4.8-3.45-9.55-6.41-13.63-2.96-4.08-7.08-7.48-11.95-8.79-8.78-2.37-17.92,2.34-25.03,8.02-9.51,7.59-17.31,17.27-22.86,28.08-2.82,5.5-5.07,11.31-6.66,17.29-1.66,6.25-3.94,12.43-4.85,18.86-1.28,9.03-.01,18.71,5.14,26.25,4.81,7.03,12.38,11.45,19.97,14.91,6.11,2.78,15.96,3.75,22.34,1.43Z"/>
      <path class="cls-2" d="m48.74,123.65c3.18-5.31-2.38-4.94-2.65-10.15-5.91,2.48-2.69-5.64-8.18-1.26-2.2-6.26-2.34,2.66-5.18-2.81-1.32,5.64-5.12-.45-2.94,5.66-2.33,6.52,2.63,1,3.27,7.34,4.98-3.53,2.05,4.69,6.82.71,1.51,6.65,2.84-2.26,4.81,4.14,2.83-5.29,4.58,3.49,4.05-3.64Z"/>
      <path class="cls-2" d="m68.05,119.71c-4.1-13.37-19.96-19.72-32.68-21.69-4.56-.64-9.23-.72-13.76.27,4.43-1.51,9.23-1.65,13.87-1.22,12.98,1.37,29.72,8.52,32.57,22.63h0Z"/>
      <path class="cls-2" d="m79.53,104.48c-3.67-9.35-13.03-14.23-21.44-18.69-6.47-3.28-13.34-6.04-20.61-6.74-2.41-.27-4.85-.26-7.29-.04,2.4-.5,4.87-.63,7.34-.57,7.42.31,14.58,2.9,21.13,6.24,8.42,4.47,18.1,10,20.87,19.8h0Z"/>
      <path class="cls-2" d="m26.11,66.4c14.1-5.42,30.43-3.86,43.73,3.08,1.61.91,3.97,2.29,5.46,3.37-2.59-1.4-5.91-2.96-8.66-4.05-12.83-4.96-27.21-5.96-40.53-2.4h0Z"/>
      <path class="cls-2" d="m93.73,69.18c-9.86-9.24-22.33-15.07-35.74-16.72,13.51-.17,27.21,6.25,35.74,16.72h0Z"/>
      <path class="cls-2" d="m89.75,47.61c-12.94-7.25-28.15-10.46-42.91-8.8-1.84.2-4.51.62-6.32.95,1.73-.56,4.41-1.18,6.23-1.55,14.8-2.62,30.7.68,43,9.4h0Z"/>
      <path class="cls-2" d="m83.77,29.47c-7.6-3.03-15.35-4.73-23.51-5.2,8.05-1.31,16.76.62,23.51,5.2h0Z"/>
      <path class="cls-3" d="m105.3,192.77c10.81,3.03,26.11,2.53,35.63-3.92,12.56-8.51,17.92-28.08,21.16-42.04,3.27-14.13,4.18-28.79,2.75-43.21-.73-7.31-2.05-14.56-3.97-21.65-1.74-6.41-3.35-14.12-8.44-18.77-5.35-4.88-13.12-5.33-19.31-1.8-7.8,4.44-8.06,11.27-9.94,19.06-1.54,6.38-6.18,10.81-11.18,14.68-5.62,4.34-10.71,9.11-15.14,14.67-8.95,11.25-15.06,24.67-18.37,38.63-3.1,13.09,1.25,25.81,10.93,35.12,4.91,4.72,10.21,7.64,15.88,9.23Z"/>
      <path class="cls-2" d="m131.83,68.11c6.69-2.18,14.62-.93,20.31,3.22-6.57-2.57-13.27-3.64-20.31-3.22h0Z"/>
      <path class="cls-2" d="m158.2,92.5c-9.38-6.14-18.53-13.45-30.17-14.03,11.78-1.22,21.96,6.55,30.17,14.03h0Z"/>
      <path class="cls-2" d="m121.36,92.76c14.08.21,28.25,5.9,38.55,15.51-11.44-8.24-24.58-13.54-38.55-15.51h0Z"/>
      <path class="cls-2" d="m113.02,101.53c16.93.84,33.11,9.94,43.07,23.58,1.18,1.72,2.85,4.3,3.8,6.13-1.85-2.74-4.39-5.99-6.62-8.46-10.48-11.41-24.93-19.02-40.25-21.25h0Z"/>
      <path class="cls-2" d="m108.4,114.86c16.44,2.38,31.66,11.74,41.6,25,1.18,1.67,2.87,4.17,3.86,5.94-1.18-1.63-3.01-4-4.33-5.56-10.56-12.54-25.21-21.48-41.12-25.38h0Z"/>
      <path class="cls-2" d="m147.65,161.39c-12.28-13.77-26.39-27.21-44.53-32.45-2.55-.78-5.16-1.32-7.81-1.73,2.68.13,5.34.56,7.96,1.14,18.58,4.39,33.23,18.14,44.37,33.04h0Z"/>
      <path class="cls-2" d="m143.17,181.57c-11.69-17.76-29.34-33.22-51.03-36.16-3.05-.47-6.13-.54-9.22-.57,1.54-.09,3.09-.22,4.64-.23,23.85-.04,44.48,16.84,55.61,36.97h0Z"/>
      <path class="cls-2" d="m123.44,183.42c-9.24-11.4-22.53-18.42-37.16-19.67,0,0-2.9-.25-2.9-.25,15.7-1.13,31.63,6.53,40.05,19.91h0Z"/>
      <path class="cls-2" d="m104.35,191.73c.27-.72,1.94-1.09,1.79-1.78-.16-.73-2.08-1.14-2.6-1.82-.49-.64.15-1.97-.55-2.55s-2.44-.15-3.22-.64-.76-2.01-1.56-2.43c-.88-.46-2.41.28-3.18-.06-.49-.21-.49-1.64-1.11-1.89-.55-.22-1.6.8-2.19.61s-.91-1.64-1.49-1.76c-.62-.13-1.15,1.14-1.71,1.15-.61,0-1.87-1.15-2.32-.91-.42.22.63,1.4.41,1.87-.08.58-1.46,1.15-1.09,1.73.34.52,2.15.4,2.73.9.52.45.05,1.8.68,2.23s2.17-.19,2.81.19.49,1.83,1.11,2.18c.74.42,2.23-.27,2.76.06.42.21.18,1.6.83,1.95.5.27,1.81-.54,2.39-.25s.47,1.7,1.04,1.94c.6.25,1.65-.76,2.21-.6.66.19,1.33,1.61,1.86,1.58.6-.03.09-1.25.4-1.69Z"/>
    </g>
  </g>
</svg>