<?xml version="1.0" encoding="UTF-8"?>
<svg xmlns="http://www.w3.org/2000/svg" xmlns:xlink="http://www.w3.org/1999/xlink" viewBox="0 0 178.09 209.8">
  <defs>
    <style>
      .cls-1 {
        fill: #008d4a;
      }

      .cls-1, .cls-2, .cls-3, .cls-4, .cls-5, .cls-6 {
        stroke-width: 0px;
      }

      .cls-2, .cls-7 {
        fill: #e64228;
        mix-blend-mode: overlay;
      }

      .cls-8 {
        isolation: isolate;
      }

      .cls-3 {
        fill: #fdf8e9;
      }

      .cls-4 {
        fill: #fff;
      }

      .cls-5 {
        fill: #eab520;
      }

      .cls-6 {
        fill: #231f20;
      }

      .cls-9 {
        clip-path: url(#clippath);
      }
    </style>
    <clipPath id="clippath">
      <path class="cls-2" d="m52.74,135.35c.07-.68.15-1.37.24-2.07,1.17-9.25,5.05-17.95,9.88-25.85,4.72-7.72,10.64-14.92,17.8-20.51,4.28-3.34,10.94-7.97,16.6-8.06,4.92-.08,8.38,4.66,9.64,8.91,5.8,19.54-10.43,39.86-23.77,52.19-5.53,5.11-12.47,11.73-20.64,10.86-3.83-.41-6.87-2.62-8.52-6.08-1.49-3.14-1.54-6.15-1.22-9.38Z"/>
    </clipPath>
  </defs>
  <g class="cls-8">
    <g id="Layer_2" data-name="Layer 2">
      <g id="Blancos">
        <path class="cls-3" d="m173.76,29.4c-3.27-7.74-7.92-13.87-13.83-18.21-2.09-1.54-4.26-2.87-6.47-3.97-7.01-4.79-14.6-7.22-22.57-7.22-22.66,0-40.59,19.2-55,34.63-3.87,4.14-7.53,8.06-10.41,10.6-5.75,5.07-12.44,9.65-19.53,14.5-6.85,4.69-13.94,9.54-20.61,15.17C12.32,85.88,3.92,100.82,1.04,118.09c-2.66,15.98-.2,32.81,6.94,47.41,6.68,13.66,17.9,25.21,31.64,32.58,11.11,7.14,23.75,11.17,36.59,11.67.88.04,1.76.05,2.63.05,27.04,0,52.47-17.23,66.36-44.96,6.82-13.6,8.69-27.76,10.34-40.25,1.4-10.58,2.72-20.57,6.73-29.31,1.37-2.98,2.85-5.87,4.42-8.94,7.61-14.87,17.08-33.38,7.07-56.94Z"/>
      </g>
      <g id="Productos">
        <g>
          <path class="cls-5" d="m143.51,86c-10.21,22.22-5.79,47.03-16.85,69.1-10.55,21.06-30.55,37.61-55,36.65-8.55-.33-16.89-2.68-24.41-6.59-.03-.01-.04-.02-.06-.03-11.01-5.77-20.24-14.94-25.74-26.2-11.58-23.68-7.92-54.43,13.55-72.54,12.78-10.77,28.07-19.03,40.39-29.89C92.19,41.69,118.97.58,145.85,20.21c.03.01.05.04.08.05,4.05,2.97,6.92,7.32,8.89,11.96,8.86,20.89-2.96,35.64-11.31,53.78Z"/>
          <path class="cls-1" d="m148.65,89.02c-10.21,22.22-5.8,47.03-16.86,69.1-10.55,21.06-30.55,37.61-54.99,36.64-10.56-.41-20.79-3.87-29.54-9.61,7.52,3.91,15.86,6.26,24.41,6.59,24.44.96,44.45-15.58,55-36.65,11.06-22.07,6.64-46.88,16.85-69.1,8.35-18.15,20.17-32.9,11.31-53.78-1.97-4.63-4.84-8.98-8.89-11.96-.03-.01-.05-.04-.08-.05,1.74.78,3.47,1.8,5.2,3.07,4.05,2.97,6.94,7.32,8.89,11.96,8.87,20.88-2.96,35.64-11.3,53.78Z"/>
          <path class="cls-2" d="m136.71,88.85c-9.02,20.19-4.9,42.83-14.69,62.88-9.34,19.13-27.19,34.09-49.15,33.06-7.68-.36-15.18-2.55-21.96-6.16-.03-.01-.04-.02-.05-.03-9.92-5.33-18.27-13.75-23.28-24.05-10.54-21.66-7.46-49.67,11.71-66.04,11.4-9.74,25.08-17.17,36.07-26.99,14.98-13.38,38.77-50.68,63.03-32.62.03.01.05.04.07.05,3.65,2.74,6.26,6.72,8.06,10.96,8.09,19.1-2.43,32.47-9.81,48.96Z"/>
          <g>
            <path class="cls-7" d="m52.74,135.35c.07-.68.15-1.37.24-2.07,1.17-9.25,5.05-17.95,9.88-25.85,4.72-7.72,10.64-14.92,17.8-20.51,4.28-3.34,10.94-7.97,16.6-8.06,4.92-.08,8.38,4.66,9.64,8.91,5.8,19.54-10.43,39.86-23.77,52.19-5.53,5.11-12.47,11.73-20.64,10.86-3.83-.41-6.87-2.62-8.52-6.08-1.49-3.14-1.54-6.15-1.22-9.38Z"/>
            <g class="cls-9">
              <circle class="cls-6" cx="63.03" cy="146.44" r="6.34"/>
              <circle class="cls-6" cx="73.07" cy="141.83" r="6.34"/>
              <circle class="cls-6" cx="102.93" cy="98.83" r="6.34"/>
              <circle class="cls-6" cx="95.37" cy="118.68" r="6.34"/>
              <circle class="cls-6" cx="88.1" cy="130.34" r="6.34"/>
            </g>
          </g>
          <circle class="cls-6" cx="64.97" cy="134.01" r="6.34"/>
          <circle class="cls-6" cx="78.92" cy="132.73" r="6.34"/>
          <circle class="cls-6" cx="97.55" cy="109.08" r="6.34"/>
          <circle class="cls-6" cx="96.81" cy="89.82" r="6.34"/>
          <circle class="cls-6" cx="80.07" cy="103.19" r="6.34"/>
          <circle class="cls-6" cx="84.45" cy="121.02" r="6.34"/>
          <circle class="cls-6" cx="89.57" cy="99.47" r="6.34"/>
          <circle class="cls-6" cx="85.31" cy="88.59" r="6.34"/>
          <circle class="cls-6" cx="86.5" cy="113.41" r="6.34"/>
          <circle class="cls-6" cx="75.24" cy="114.89" r="6.34"/>
          <circle class="cls-6" cx="69.58" cy="105.09" r="6.34"/>
          <circle class="cls-6" cx="72.4" cy="125.02" r="6.34"/>
          <circle class="cls-6" cx="63.72" cy="117.97" r="6.34"/>
          <path class="cls-4" d="m82.96,131.91c.19.22.5.08.54-.2.02-.16-.03-.32-.07-.48-.2-.8.07-1.5.33-2.24.07-.2.6-1.76.05-1.77-.39,0-.67.36-.86.7-.36.66-.48,1.46-.45,2.2,0,.25.13,1.42.46,1.79Z"/>
          <path class="cls-4" d="m79.28,122.22c.21.34.47.48.79.11.29-.34.24-1.05.23-1.46-.02-.71.04-1.3.34-1.96.13-.29.54-.63.52-.97-.03-.48-.57-.31-.85-.17-.44.22-.76.61-1,1.03-.61,1.05-.67,2.36-.03,3.42Z"/>
          <path class="cls-4" d="m81.69,113.4s.05,0,.08-.01c.05-.02.09-.07.13-.11.43-.58.55-1.48.9-2.12.23-.43.68-.9.64-1.42-.03-.38-.46-.31-.69-.19-.67.34-1.29,1.1-1.5,1.81-.19.61-.17,1.28.18,1.83.06.1.16.2.27.21Z"/>
          <path class="cls-4" d="m73.77,133.48c.73.62.75-1.64.87-1.99.2-.63.66-1.15,1.11-1.65-.03-.45-.37-.46-.69-.36-1.18.38-2.35,3.09-1.28,3.99Z"/>
          <path class="cls-4" d="m68.65,142.78c-.02-.73.15-1.44.41-2.11.21-.55.71-1.24.35-1.84-.4-.67-.86-.28-1.21.22-.5.72-.75,1.77-.75,2.63,0,.5.07,1.12.36,1.54.5.7.86.35.84-.43Z"/>
          <path class="cls-4" d="m57.76,146.53c.22,0,.37-.22.47-.43.35-.74.65-1.52,1.22-2.1.47-.47,1.22-1.39.16-1.4-.46,0-1.08.36-1.38.69-.38.42-1.4,3.21-.46,3.23Z"/>
          <path class="cls-4" d="m67.33,126.17c.13-.01.26-.12.34-.35.11-.32.04-.75.1-1.08.07-.42.23-.83.46-1.19.27-.41.72-.82.77-1.33.05-.57-.37-.56-.78-.35-.78.4-1.23,1.2-1.39,2.04-.1.54-.16,1.13-.07,1.67.06.35.33.62.57.6Z"/>
          <path class="cls-4" d="m59.99,135.51c.06.05.14.09.2.05.04-.03.05-.08.06-.12.06-.35,0-.72.03-1.07.07-1.47,1.17-2.42,1.99-3.52.1-.14.21-.3.2-.47-.02-.31-.34-.29-.56-.22-.9.32-2,1.13-2.37,2.06-.4.99-.45,2.57.45,3.3Z"/>
          <path class="cls-4" d="m58.59,118.75c.72.84.76-2.03.87-2.37.19-.59.59-1.07.85-1.62.2-.43.17-1.22-.47-.7-1.08.87-2.33,3.34-1.27,4.66,0,0,.02.02.02.03Z"/>
          <path class="cls-4" d="m69.99,114.7c.13.11.31.09.54-.22.37-.5.37-1.37.61-1.95.14-.35.34-.67.6-.94.18-.19.7-.52.62-.83-.03-.12-.15-.2-.28-.22-.83-.13-1.8,1.11-2.09,1.75-.2.43-.28,1-.29,1.47,0,.27.09.76.3.93Z"/>
          <path class="cls-4" d="m64.05,105.15c.06.14.19.27.35.27.15,0,.28-.09.36-.21s.12-.27.16-.41c.3-.98.81-1.9,1.49-2.68.11-.12.22-.25.28-.4s.05-.35-.07-.46c-.62-.58-1.63.65-1.94,1.09-.46.66-.96,2-.63,2.8Z"/>
          <path class="cls-4" d="m74.73,102.47c.06.24.24.51.48.47.23-.04.32-.31.37-.53.25-1.01.72-1.97,1.36-2.79.1-.13.21-.26.23-.42s-.07-.35-.23-.36c-.55-.04-1.3.99-1.57,1.42-.41.65-.83,1.41-.64,2.2Z"/>
          <path class="cls-4" d="m84.48,98.74c.15.57.44.97.67.27.11-.33.08-.7.14-1.04.16-.87,1.2-1.44,1.8-2.01.25-.24.85-.59.83-1-.04-.74-.92-.38-1.33-.13-1.24.76-2.52,2.41-2.11,3.91Z"/>
          <path class="cls-4" d="m80.08,88.43c.26.17.62-.75.69-1.06.18-.72.54-1.38.98-1.98.23-.32.49-.62.76-.91.19-.2.51-.43.21-.64s-.99.18-1.23.35c-.57.41-1.08,1.07-1.35,1.71-.28.67-.38,1.47-.22,2.18.04.19.1.3.16.34Z"/>
          <path class="cls-4" d="m91.7,89.26c.19.11.48-.05.66-.46.31-.7.68-1.37,1.18-1.95.5-.58,1.11-1.06,1.63-1.61.1-.1.2-.21.23-.35s-.01-.31-.14-.36c-.09-.04-.19-.02-.28,0-1.24.32-2.24,1.24-2.85,2.35-.3.54-.56,1.18-.61,1.79-.03.32.05.51.18.59Z"/>
          <path class="cls-4" d="m90.15,119.34c.21.07.47-.13.58-.56.19-.74.44-1.47.83-2.12.39-.66.91-1.23,1.34-1.87.08-.12.16-.24.17-.39s-.07-.3-.2-.33c-.09-.02-.19.02-.28.06-1.17.52-2,1.61-2.41,2.79-.2.58-.35,1.25-.3,1.87.02.32.14.5.28.55Z"/>
          <path class="cls-4" d="m97.55,97.61c-.03.37,0,.75.2,1.07.05.08.1.15.19.18.19.07.38-.12.49-.3.82-1.34,1-3.1,2.18-4.14.08-.07.17-.14.21-.24s0-.24-.11-.26c-.05-.01-.1,0-.15.02-1.54.53-2.87,1.99-3.01,3.67Z"/>
          <path class="cls-4" d="m91.7,108.36c-.01.14-.02.28.03.41s.19.23.32.2c.14-.03.22-.16.29-.29.54-1.06,1-2.23,1.93-2.98.25-.21.54-.38.73-.65.07-.1.13-.22.09-.34-.07-.24-.41-.24-.65-.16-1.58.59-2.58,2.19-2.75,3.81Z"/>
        </g>
      </g>
    </g>
  </g>
</svg>