<?xml version="1.0" encoding="UTF-8"?>
<svg xmlns="http://www.w3.org/2000/svg" viewBox="0 0 218.91 202.3">
  <defs>
    <style>
      .cls-1 {
        fill: #19995c;
      }

      .cls-1, .cls-2, .cls-3, .cls-4, .cls-5, .cls-6, .cls-7, .cls-8, .cls-9 {
        stroke-width: 0px;
      }

      .cls-2 {
        fill: #99d1b7;
      }

      .cls-3 {
        fill: #b2ddc9;
      }

      .cls-4 {
        fill: #008d4a;
      }

      .cls-10 {
        isolation: isolate;
      }

      .cls-5 {
        fill: #cce8db;
      }

      .cls-6 {
        fill: #fff;
      }

      .cls-7 {
        fill: #80c6a5;
      }

      .cls-8 {
        fill: #faeecc;
        mix-blend-mode: multiply;
      }

      .cls-9 {
        fill: #40aa78;
      }
    </style>
  </defs>
  <g class="cls-10">
    <g id="Layer_2" data-name="Layer 2">
      <g id="Blancos">
        <path class="cls-6" d="m216.94,96.71c3.68-9.25,2.21-21.7-4.4-29.36.67-11.33-3.59-23.47-13.17-30.32-4.56-3.53-9.21-4.81-13.27-7.27-7.16-9.48-21.32-14.38-33.34-10.94-1.07-.53-2.18-1.03-3.3-1.46-2.87-11.69-17.33-17.3-27.45-10.91-8-.98-12.83-5.49-20.63-5.97-22.02.29-57.94-6.24-65.54,21.32-3.57,1.83-9.12,7.98-10.06,13.25-7.09,2.4-12.78,12.61-17.31,18.11-9.04,10.14-11.62,25.48-3.97,36.67-12.8,21.38,11.13,43.28,30.77,49.64,3.55,8.27,8.83,16.01,15.13,22.06-4.13,23.73,50.52,47.61,65.09,28.87,2.75-.08,5.62-.25,8.32-.52,25.74,19,63.12,18.15,74.02-16.21,10.37-7.29,17.24-18.08,15.11-31.44,5.71-7.43,7.14-18.13,3.04-26.59,2.02-4.81,1.77-10.21.22-15.23-.31-.91.5-2.58.73-3.7Z"/>
      </g>
      <g id="Productos">
        <g>
          <path class="cls-4" d="m195.55,114.3c2.58-.9,5.6-1.87,6.58-4.43.94-2.44-.46-5.09-.91-7.66-1.2-6.83,4.37-13.77,2.34-20.4-1.04-3.41-3.93-5.99-5.18-9.33-1.37-3.67-.59-7.76-1.1-11.65-.61-4.65-3.16-9.01-6.91-11.83-4.21-3.15-9.68-4.33-13.76-7.65-2.71-2.21-4.72-5.31-7.8-6.99-1.99-1.08-4.29-1.47-6.55-1.55-6.34-.21-12.79,2.11-17.35,6.53-4.56,4.41-7.11,10.91-6.49,17.22.38,3.86,1.86,7.51,3.35,11.08,2.52,6.09,5.09,12.17,7.66,18.24,3.9,9.23,7.81,18.45,11.8,27.64,2.43,5.59,6.25,18.77,14.48,13.85,3.33-1.99,5.87-5.38,9.1-7.61s6.92-4.14,10.72-5.47Z"/>
          <path class="cls-1" d="m49.98,135.55c3.71,7.68,9.08,14.5,16.12,19.56.98.7,1.97,1.47,2.5,2.54,1.41,2.83-4.09,6.18-3.5,7.28,2.95,5.5,11.07,10.01,16.43,12.75,6.41,3.28,14.58,5.25,21.77,3.92.13-2.16,1.21-3.84,1.25-6.15,8.94.04,17.97.06,26.68-1.95s17.19-6.29,22.59-13.42c4.34-5.73,8.94-11.93,11.96-18.45.6-1.29,1.16-2.69.9-4.08-.43-2.27-2.82-3.55-4.97-4.41-5.92-2.38-12.08-4.13-18.22-5.87-21.93-6.23-43.86-12.45-65.79-18.68-5.92-1.68-11.85-3.37-17.82-4.88-3.82-.97-9.54-3.81-13.46-2.03-5.4,2.46-2.31,14.59-1.45,18.86,1.04,5.18,2.71,10.25,5,14.99Z"/>
          <path class="cls-4" d="m198.06,117.14c-3.19-2.68-7.4-7.92-11.44-9.15-3.45-1.05-7.8-.99-11.47-1.86-9.79-2.32-19.68-4.61-28.83-8.91-12.15-5.72-23.18-15.89-25.67-29.09-2.16-11.46,2.35-23.06,2.78-34.71.16-4.4-.61-9.43-4.29-11.85-3.61-2.38-8.65-1.28-12.39-3.43-1.13-.65-2.11-1.59-3.3-2.12-1.74-.77-3.73-.61-5.63-.52-7.28.34-14.55-.64-21.84-.72-7.29-.08-14.84.82-21.09,4.57-1.49.89-2.94,2-3.72,3.55-1.12,2.22-.7,5-1.9,7.17-1.82,3.29-6.61,3.99-8.41,7.29-1,1.82-.84,4.03-1.05,6.1s-1.06,4.39-3.03,5.05c-1.53.51-3.25-.16-4.82.23-1.6.4-2.71,1.79-3.71,3.11-2.61,3.44-5.21,6.88-7.82,10.33-2.96,3.9-6.07,8.33-5.56,13.2.42,4.02,3.22,7.34,4.68,11.11,2.96,7.64-5.73,11.49-3.11,19.46,1.29,3.93,4.23,7.1,7.39,9.77,6.4,5.41,14.06,9.33,22.2,11.37,6.48,1.62,13.67,2.26,18.62,6.75,3.28,2.98,5.05,7.22,6.71,11.33,2.76,6.83,5.53,13.92,5.37,21.29,8.78-6.93,25.13-7.27,34.5-2.03,4.51,2.52,8.94,5.19,13.28,7.99,6.81,4.4,13.47,9.17,20.99,12.2s16.18,4.18,23.69,1.15c5.23-2.11,9.63-6.22,12.09-11.3,1.58-3.27,2.41-6.94,4.57-9.86,3.12-4.22,8.69-6.39,11.04-11.09,2.02-4.03,1.13-8.82.85-13.32-.07-1.14-.09-2.33.35-3.39.5-1.19,1.53-2.06,2.39-3.03,3-3.39,3.88-8.75,1.47-12.58-1-1.59-2.46-2.83-3.9-4.04Z"/>
          <path class="cls-2" d="m147.27,32.85c4.62,2.63,7.22,6.2,11.26,10,1.6,1.5,3.56,2.57,5.31,3.9,3.38,2.58,3.61,5.82,5.42,9.34,2.6,5.05,7.41,7.43,8.06,13.54.17,1.58.08,3.22.62,4.71.31.87.84,1.68.94,2.6.3,2.73-3.19,4.38-5.9,3.95-4.81-.78-8.95-3.27-14-3.2-5.36.07-10.16,3.13-14.76,5.87-5.63,3.36-11.52,6.43-17.89,7.99s-13.3,1.52-19.26-1.21c-1.77-.81-3.47-1.87-4.67-3.4-4.01-5.09-1.17-11.66-.29-17.24.99-6.34,3.68-12.33,4.93-18.71.76-3.86,1.25-7.81,2.59-11.51s3.67-7.23,7.17-9.04c3.52-1.82,6.97-1.1,10.75-1.32,5.77-.35,11.92.19,17.42,2.57.83.36,1.59.74,2.31,1.15Z"/>
          <path class="cls-3" d="m54.95,57.66c8.57-12.02,19.89-20.74,34.15-24.92,5.98-1.75,12.32-3.03,18.51-3.66,6.7-.69,13.2-.98,18.19-6.14.93-.96,1.76-2.03,2.79-2.88,1.73-1.42,3.98-2,5.64-.19,1.74,1.91.44,4.96.83,7.52.37,2.44,2.37,4.58,2.07,7.04-.32,2.55-2.9,4.07-5.15,5.31-5.76,3.16-3.07,5.93-4.75,11.02-1.54,4.65-7.12,6.68-9.69,10.85-4.95,8.04,1.44,17.59-4.3,25.65-1.15,1.62-2.63,3.09-3.18,5-1.41,4.88,3.78,9.66,2.91,14.66-.64,3.67-4.4,6.33-4.58,10.05-.14,2.97,2.04,5.48,3.02,8.29,1.82,5.2-1.58,10.79-3.52,15.51-1.75,4.26-6.79,3.93-10.71,6.35-4.68,2.89-10.74,1.7-16.15,13.22-1.07-15.35-1.01-27.89-10.1-40.69-7.51-10.57-26.14-17.07-27.79-31.3-1.23-10.53,5.95-22.43,11.84-30.69Z"/>
          <path class="cls-5" d="m158.6,151c11.95-9.51,20.43-23.06,24.72-37.72,1.88-6.43,2.99-13.22,1.87-19.82-.85-5.03-6.23-17.13-1.52-21.51,1.85-1.72,3.84-5.46-.08-6.61-2.23-.66-4.48,1.11-6.81,1.08-4.68-.06-7.04-5.03-12.26-4.84-2.77.1-5.58.72-8.29.15-3.35-.71-6.65-3.2-9.87-2.02-4.55,1.67-4.25,8.34-9.51,9.11-1.74.26-3.51-.25-5.27-.22-5.46.09-4.58,8.06-9.4,10.13-3.18,1.37-10.99,2.6-12.83,5.83-1.44,2.53.35,5.67-.9,8.38-1.44,3.09-4.96,5.15-7.72,6.89-3.03,1.91-7.11,5.22-6.12,9.28.27,1.1.73,2.17.79,3.3.24,4.02-4.28,6.17-4.28,10.09,0,2.44,1.97,4.42,2.55,6.79,1.46,5.96-6.4,11.29-9.25,15.77-2.86,4.49-4.09,10-3.41,15.28,5.56-5.22,13.97-5.58,21.59-5.47,10.51.16,20.22,4.13,30.61,4.89,9.9.72,17.76-2.69,25.38-8.76Z"/>
          <g>
            <path class="cls-7" d="m108.93,144.19c2.77-8.8,3.94-18.09,3.19-27.3-.08-1.15-.26-2.81-.38-3.95,2.73,10.29,1.73,21.62-2.81,31.25h0Z"/>
            <path class="cls-7" d="m140.54,152.73c16.84-8.23,29.38-24.37,33.49-42.61,0,0,.77-3.94.77-3.94l.5-3.99-.24,4.02s-.55,4-.55,4c-3.39,18.58-16.42,35.32-33.97,42.51h0Z"/>
            <path class="cls-7" d="m131.67,136.98c7.53-12.49,10.04-27.81,6.92-42.05-.4-1.78-1.1-4.32-1.64-6.04.4.97.78,1.94,1.16,2.92l.96,3,.73,3.07c2.77,13.38-.08,27.99-8.13,39.1h0Z"/>
            <path class="cls-7" d="m163.88,75.61c1.26,12.17-.35,24.68-4.63,36.15.17-.75.34-1.49.53-2.23,2.64-11.12,3.97-22.49,4.1-33.92h0Z"/>
            <path class="cls-7" d="m61.23,96.13c3.05-19.68,14.64-37.88,30.91-49.3,0,0,3.33-2.17,3.33-2.17l-3.17,2.38s-3.05,2.52-3.05,2.52c-14.01,12.01-23.95,28.56-28.02,46.57h0Z"/>
            <path class="cls-7" d="m95.47,82.97c-8.82,5.16-15.77,13.32-19.39,22.87-.46,1.2-1.02,2.95-1.39,4.17.17-1.25.59-3.08.92-4.33,2.94-9.93,10.3-18.63,19.86-22.71h0Z"/>
            <path class="cls-7" d="m50.97,87.54c-2.22-8.01,1.45-16.3,5.41-23.13-2.71,7.52-6.21,14.94-5.41,23.13h0Z"/>
          </g>
          <path class="cls-8" d="m198.06,117.14c-.89-.75-1.86-1.7-2.88-2.7.12-.04.24-.1.37-.14,2.58-.9,5.6-1.87,6.58-4.43.94-2.44-.46-5.09-.91-7.66-1.2-6.83,4.37-13.77,2.34-20.4-1.04-3.41-3.93-5.99-5.18-9.33-1.37-3.67-.59-7.76-1.1-11.65-.61-4.65-3.16-9.01-6.91-11.83-4.21-3.15-9.68-4.33-13.76-7.65-2.71-2.21-4.72-5.31-7.8-6.99-1.99-1.08-4.29-1.47-6.55-1.55-3.96-.13-7.96.73-11.52,2.46-1.06-.87-2.19-1.69-3.48-2.43-.72-.41-1.48-.79-2.31-1.15-2.97-1.29-6.13-2.02-9.32-2.39-.26-.63-.48-1.26-.58-1.92-.39-2.56.91-5.61-.83-7.52-1.65-1.82-3.9-1.24-5.64.19-1.04.85-1.86,1.92-2.79,2.88-1.09,1.12-2.25,2.01-3.47,2.72-.67-1.66-1.68-3.1-3.19-4.1-3.61-2.38-8.65-1.28-12.39-3.43-1.13-.65-2.11-1.59-3.3-2.12-1.74-.77-3.73-.61-5.63-.52-7.28.34-14.55-.64-21.84-.72-7.29-.08-14.84.82-21.09,4.57-1.49.89-2.94,2-3.72,3.55-1.12,2.22-.7,5-1.9,7.17-1.82,3.29-6.61,3.99-8.41,7.29-1,1.82-.84,4.03-1.05,6.1-.21,2.07-1.06,4.39-3.03,5.05-1.53.51-3.25-.16-4.82.23-1.6.4-2.71,1.79-3.71,3.11-2.61,3.44-5.21,6.88-7.82,10.33-2.96,3.91-6.07,8.33-5.56,13.2.42,4.02,3.22,7.34,4.68,11.11,2.96,7.64-5.73,11.49-3.11,19.46,1.29,3.93,4.23,7.1,7.39,9.77,6.4,5.41,14.06,9.33,22.2,11.37.23.06.46.11.69.16.89,2.85,1.97,5.63,3.26,8.31,3.71,7.68,9.08,14.5,16.12,19.56.98.7,1.97,1.47,2.5,2.54,1.41,2.83-4.09,6.18-3.5,7.28,2.95,5.5,11.07,10.01,16.43,12.75,6.41,3.28,14.58,5.25,21.77,3.92.13-2.16,1.21-3.84,1.25-6.15,7.62.03,15.31.04,22.81-1.2,5.83,3.83,11.66,7.72,18.11,10.32,7.52,3.03,16.18,4.18,23.69,1.15,5.23-2.11,9.63-6.22,12.09-11.3,1.58-3.27,2.41-6.94,4.57-9.86,3.12-4.22,8.69-6.39,11.04-11.09,2.02-4.03,1.13-8.82.85-13.32-.07-1.14-.09-2.33.35-3.39.5-1.19,1.53-2.06,2.39-3.03,3-3.39,3.88-8.75,1.47-12.58-1-1.59-2.46-2.83-3.9-4.04Z"/>
          <path class="cls-9" d="m28.16,102.41c4.56-4.86,12.64-6.29,18.58-3.27-6.43-1.56-13.08-.4-18.58,3.27h0Z"/>
          <path class="cls-9" d="m24.66,68.66c7.46-.93,15.52,3.38,18.87,10.12-4.62-5.89-11.4-9.53-18.87-10.12h0Z"/>
          <path class="cls-9" d="m62.6,24.25c5.05,4.99,4.53,14.43,1.26,20.28,1.88-6.6,2.55-14.28-1.26-20.28h0Z"/>
          <path class="cls-9" d="m93.52,157.8c19.13-1.79,38.87,4.08,54.13,15.7,0,0,2.97,2.42,2.97,2.42l-3.13-2.2c-15.79-10.72-34.89-16.37-53.98-15.92h0Z"/>
          <path class="cls-9" d="m162.71,151.38c6.07,3.49,10.97,9.07,13.91,15.41-4.16-5.63-8.64-10.77-13.91-15.41h0Z"/>
          <path class="cls-9" d="m178.9,129.47c5.15-3.7,12.04-5.25,18.26-3.88-6.38.06-12.39,1.41-18.26,3.88h0Z"/>
          <path class="cls-9" d="m184.99,84.49c3.65-3.56,8.88-5.76,14.01-5.49-5.01,1.16-9.5,3.05-14.01,5.49h0Z"/>
          <path class="cls-9" d="m61.19,114.4c-3.73.44-6.76,2.36-8.76,5.54.54-3.82,5.08-6.69,8.76-5.54h0Z"/>
          <path class="cls-9" d="m169.67,51.64c1.32-3.08,3.83-5.71,6.95-6.98-2.34,2.43-4.48,4.68-6.95,6.98h0Z"/>
        </g>
      </g>
    </g>
  </g>
</svg>