<?xml version="1.0" encoding="UTF-8"?>
<svg id="Layer_2" data-name="Layer 2" xmlns="http://www.w3.org/2000/svg" viewBox="0 0 162.83 221.08">
  <defs>
    <style>
      .cls-1 {
        fill: #089150;
      }

      .cls-1, .cls-2, .cls-3, .cls-4, .cls-5 {
        stroke-width: 0px;
      }

      .cls-2 {
        fill: #eec44c;
      }

      .cls-3 {
        fill: #fff;
      }

      .cls-4 {
        fill: #eab520;
      }

      .cls-5 {
        fill: #269e65;
      }
    </style>
  </defs>
  <g id="Blancos">
    <path class="cls-3" d="m162.28,97.5c-2.25-9.69-11.28-16.46-21.96-16.46-.92,0-1.84.05-2.74.16-7.09.81-12.56,4.24-16.98,7.48-.56.41-1.11.83-1.67,1.25-2.57-6.89-6.75-10.72-10.05-12.78-2.14-1.34-4.5-2.3-6.97-2.87,1.87-1.81,3.97-3.38,6.24-4.62.16-.09.32-.17.46-.24l9.07,6.56c1.23.89,4.51,3.26,9.42,3.61.39.03.79.04,1.18.04,7.14,0,13.61-4.6,16.1-11.44,1.31-3.62,1.45-7.53.4-11.61-.08-.32-.17-.63-.26-.94.41-.67.8-1.39,1.15-2.15,4.48-9.6.93-20.85-8.08-25.62-1.63-.86-3.22-1.4-4.7-1.73-1.03-2.57-2.5-4.79-4.41-6.62-3.23-3.09-7.45-4.79-11.87-4.79-.79,0-1.57.05-2.34.16-1.74-.91-3.64-1.57-5.65-1.95-.08-.18-.15-.36-.23-.54-3.33-7.53-11.06-12.39-19.68-12.39-4.05,0-8.04,1.08-11.52,3.11-3.79,2.21-6.8,5.46-8.73,9.28-1.06.3-2.1.67-3.13,1.11-5.14,2.21-9.18,6.62-11.23,11.9-3.02-1.83-6.55-2.83-10.21-2.83-.88,0-1.75.06-2.61.17-2.56-1.76-5.48-2.9-8.57-3.31-.64-.09-1.63-.2-2.81-.2-1.47,0-2.92.17-4.47.53-1.94.45-3.45,1.16-4.21,1.52-1.85.87-3.58,2.05-5.3,3.62-.89.82-1.73,1.75-2.5,2.75-1.97,2.3-3.31,4.98-3.93,7.85-.18.72-.32,1.44-.41,2.17,0,.03,0,.05-.01.08-.06.05-.11.09-.17.14-3.67,2.63-6.38,6.61-7.36,10.92-1.15,5.05-.3,10.13,2.39,14.31.23.35.47.69.72,1.02l.62.8c.39.51.82.99,1.27,1.44,1.97,1.96,4.37,3.46,6.98,4.38,1.43.59,3.78,1.54,6.78,1.89.84.88,1.75,1.69,2.73,2.39.73,1.76,1.54,3.48,2.41,5.15.26.49.52.97.78,1.44-3.64.84-7.15,2.12-10.42,3.8-9.2,4.72-13.01,11.17-14.59,15.74-1.96,5.67-1.54,12.02,1.14,17.42,2.51,5.06,6.77,8.79,11.98,10.5,2.07.68,4.25,1.02,6.47,1.02,5.6,0,6.98-.93,3.92,5.1-4.18,8.22-1.09,17.4,2.82,22.76l.28.37c1.64,2.18,3.35,3.93,4.87,5.47.75.77,1.47,1.49,1.96,2.07.37.43.72.89,1.06,1.38-2.08,7.8-3.59,14.33-4.78,20.64-.77,4.1-1.38,8.56-.62,13.49,1.19,7.7,5.47,14.16,11.75,17.73,2.3,1.3,4.85,1.96,7.41,1.96s5.16-.67,7.47-1.99c4.6-2.64,7.47-7.53,7.53-12.84.07-5.7.79-11.81,2.27-19.15.55-1.55.96-2.94,1.3-4.1.58-1.96.88-2.95,1.48-4.11,3.27-6.29,15.26-18.05,24.62-25.46,6.18-4.44,10.44-6.96,15.82-10.13.26-.15.52-.31.78-.46.82-.05,1.61-.07,2.36-.07,1.42,0,2.75.08,3.96.25,1.07.15,2.35.42,3.7.7,2.49.52,5.32,1.12,8.58,1.36.19.01.38.03.48.03.5.03,1.03.05,1.59.05h0c7.98,0,18.9-3.23,23.43-12.35,2.16-4.34,2.47-9.18,1.02-13.78,7.42-8.57,7.63-16.39,6.43-21.53Z"/>
  </g>
  <g id="Productos">
    <g>
      <path class="cls-1" d="m129.47,100.78c2.97-2.18,6.22-4.26,9.82-4.68s7.59,1.39,8.38,4.79c.75,3.21-1.45,6.51-3.81,9.04-4.48,4.78-10.1,8.62-16.32,10.62-4.5,1.45-9.24,1.92-13.7,3.49-1.55.55-3.06,1.22-4.53,1.97-1.33.68-3.07,2.18-4.49,2.51-1.63.38-.89-.81-.2-1.89.91-1.42,1.93-2.79,2.94-4.14,3.96-5.3,8.44-10.24,13.36-14.72,2.72-2.48,5.58-4.82,8.55-7Z"/>
      <path class="cls-1" d="m89.45,121.01c-.14-6.45-1.33-12.82-1.76-19.26-.12-1.83-.18-3.69.22-5.48.62-2.76,2.4-5.29,4.91-6.6,2.51-1.31,5.71-1.31,8.11.19,2.55,1.6,3.91,4.57,4.62,7.49.5,2.08.74,4.24.56,6.37-.15,1.89-.63,3.74-1.1,5.57-1.56,6.08-3.16,12.25-6.35,17.65-2.64,4.47-6.34,8.31-10.7,11.13-.53.35-2.3,1.81-2.59.99-.14-.38,1.42-2.7,1.63-3.19.93-2.16,1.54-4.45,1.93-6.77.44-2.67.58-5.39.52-8.09Z"/>
      <path class="cls-1" d="m44.72,96.35c-7.34-1.79-15.34-1.02-22.06,2.43-3.13,1.6-6.12,3.96-7.26,7.29-1.15,3.32.26,7.67,3.6,8.76,2.59.85,5.36-.39,7.82-1.58,6.6-3.2,13.49-6.3,20.82-6.65,3.75-.18,7.53.4,11.07,1.66,2.33.83,5.74,3.04,3.69-1.03-2.86-5.67-11.89-9.47-17.67-10.88Z"/>
      <path class="cls-4" d="m52.54,68.36c.57-3.73,3.03-6.86,5.41-9.8.44-.54.95-1.13,1.64-1.23.65-.09,1.3.29,1.69.82s.57,1.18.71,1.82c1.17,5.42-.14,11.33-3.49,15.76-1.22,1.61-4.49,3.97-5.84,1.16-.55-1.16-.28-2.69-.27-3.92.02-1.54-.09-3.08.15-4.61Z"/>
      <path class="cls-1" d="m52.15,83.73c-.19-3.07-.31-6.14-.37-9.21-.01-.79,0-1.66.49-2.28.63-.79,1.76-.89,2.75-1.11,1.03-.22,2.02-.64,2.91-1.22.5-.33.97-.72,1.54-.93s1.25-.21,1.7.2c.68.61.44,1.71.1,2.56-1.25,3.14-3.14,5.98-4.63,9.01s-2.61,6.4-2.16,9.75c0-.04-1.14-.8-1.29-1.07-.23-.41-.31-.92-.42-1.37-.36-1.43-.52-2.86-.61-4.33Z"/>
      <path class="cls-1" d="m39.82,149.34c-.05-.07-.1-.14-.15-.2-2.04-2.79-4.1-9.9,3.13-8.34,1.78.38,3.3,1.36,4.52,2.45,4.2,3.74,5.3,8.72,5.69,13.36.28,3.32-.15,6.38-.9,9.58-1.51-3.46-3.37-6.93-6.07-10.07-1.98-2.3-4.43-4.4-6.22-6.77Z"/>
      <path class="cls-4" d="m114.53,32.72c.16-1.13.43-2.46,1.49-2.89.71-.29,1.56,0,2.11.52s.86,1.27,1.07,2c.33,1.16.45,2.36.55,3.56.25,3.27.27,6.7-1.12,9.68-.86,1.85-2.61,3.94-4.65,4.53-1.9.55-3.72-.8-3.7-2.82.03-2.21,1.85-4.89,2.52-7.01.78-2.47,1.36-5.01,1.73-7.58Z"/>
      <path class="cls-4" d="m116.38,56.52c3.36,2.43,6.73,4.86,10.09,7.3.51.37,1.06.76,1.7.8.94.07,1.79-.67,2.11-1.56.32-.88.21-1.86-.03-2.77-.83-3.23-3.13-6-6.04-7.62-2.53-1.41-6.88-2.67-9.76-1.65-3.71,1.31.51,4.48,1.93,5.51Z"/>
      <path class="cls-4" d="m81.08,21.96c0-.06,0-.12.01-.18.2-2.2,1.42-4.41,3.65-5.71,3.63-2.12,8.45-.96,9.94,2.4.55,1.25.67,2.59.65,3.91-.04,2.65-.27,9.8-4.68,10.4-3.17.44-6.29-2.74-7.34-4.78-1.11-2.15-2.39-3.63-2.24-6.04Z"/>
      <path class="cls-4" d="m77.68,26.95c-2.15-.73-4.37-.55-6.44.34-2.17.93-3.54,3.46-3.61,5.74-.05,1.81.29,3.69,1.32,5.19,2.18,3.16,6.14,2.3,9.38,1.73,2.45-.43,6.65-1.16,7.74-3.82,1.6-3.92-5.49-8.19-8.39-9.17Z"/>
      <path class="cls-4" d="m104.55,38.62c.95.05,1.96.08,2.81-.42,1.45-.85,1.95-2.89,2.14-4.71.12-1.09.17-2.24-.25-3.23-3.8-8.97-28.71,6.99-4.69,8.35Z"/>
      <path class="cls-5" d="m94.43,33.5c1.38,1.38,2.3,3.23,1.51,4.87-.34.7-1.03,1.17-1.73,1.5-2.6,1.22-7.25,1.14-8.82-1.76-1.29-2.4,1.2-5.88,3.54-6.53,2.07-.58,4.05.49,5.49,1.92Z"/>
      <path class="cls-2" d="m118.07,42.18c3-1.39,6.39-1.69,9.69-1.6.97.03,1.98.1,2.84.55,2.01,1.07,2.45,3.95,1.49,6.01-.96,2.07-2.93,3.47-4.87,4.65-1.49.9-3.04,1.74-4.72,2.18-1.63.43-3.33.47-5.01.5-1.52.03-3.13.05-4.44-.72-5.11-2.96,2.03-10.19,5.03-11.58Z"/>
      <path class="cls-5" d="m65.64,112.36c5.58-9.59,7.92-21.83,11.76-32,2.05-5.41,4.9-10.53,6.46-16.12,1.42-5.06,2.24-10.28,3.19-15.44.14-.76.29-1.55.74-2.18s1.28-1.06,2.01-.79c.44,6.39-.6,12.87-3.01,18.8,5.08-3.07,8.75-8.2,14.04-10.88,1.84-.93,3.83-1.55,5.62-2.57s3.42-2.59,3.85-4.61c.11-.52.25-1.18.78-1.26.3-.05.58.14.82.33,2.28,1.85,3.46,4.97,2.98,7.87-.04.22-.35,1.24-.63,1.24-.13,0-.8-.3-1.41-.5-3.94-1.3-8.26.27-11.9,2.26-7.99,4.38-14.55,11.31-18.55,19.49-4.42,9.05-6.91,21.12-9.58,28.37-3.94,10.69-6.73,22.3-9.5,33.26-3.06,12.1-6.06,24.22-9.01,36.35-2.59,10.66-4.71,21.1-4.84,32.09-2.46-1.4-3.9-4.17-4.33-6.97-.43-2.8.01-5.65.53-8.43,2.71-14.41,7.03-28.66,11.17-42.72,5.16-17.53,9.56-33.81-1-50.33-5.36-8.38-12.47-15.56-17.12-24.41-2.81-5.35-4.63-11.22-5.32-17.23.77-.67,2.03-.45,2.69.33s.87,1.83,1.09,2.83c2.16,9.47,7.87,17.7,13.61,25.54,6.17,8.4,13.8,17.95,14.83,27.68Z"/>
      <path class="cls-4" d="m85.68,50.68c2.57.23,4.75-.55,7.31.2,2.09.61,4.03.59,5-1.64,2.55-5.88-2.14-13.43-8.89-11.69-2.71.7-5.42,3.17-6.61,5.66-.92,1.93-.95,4.64.6,6.27.76.79,1.64,1.11,2.59,1.19Z"/>
      <path class="cls-4" d="m37.63,42.36c.41-.46.81-.93,1.2-1.41.96-1.19,1.86-2.5,3.35-3.07,1.71-.65,3.84-.28,5.08,1.12,1.46,1.65.97,4.19-.11,5.92-1.97,3.17-5.69,5.01-9.22,5.83-.94.22-1.93.36-2.86.09-1.51-.44-2.19-2.04-1.67-3.49.4-1.09,1.27-1.93,2.1-2.75.73-.73,1.45-1.47,2.14-2.24Z"/>
      <path class="cls-4" d="m40.35,53.95c-.25-.52-.65-1.01-1.03-1.43-.37-.42-.85-.76-1.32-1.06-.47-.31-1.03-.52-1.56-.7-.56-.18-1.18-.24-1.77-.27-.92-.04-1.97.44-2.62,1.08,0,0-.01.02-.02.03-.02.02-.05.02-.08.04-.8.52-1.46,1.26-1.7,2.21-.22.89-.35,1.8-.44,2.7-.06.61-.08,1.23-.04,1.84.04.57.1,1.14.23,1.69.03.13.07.26.12.39.14.4.3.83.53,1.19.62.92,1.48,1.62,2.58,1.91.31.08.75.12,1.07.15.06,0,.12,0,.18,0,.16,0,.32,0,.49-.02.53-.05,1.12-.11,1.65-.27.4-.12.78-.3,1.16-.47.15-.06.29-.13.43-.22.9-.55,1.73-1.34,2.24-2.27.25-.45.48-.95.59-1.46.1-.42.15-.87.18-1.29.01-.15.01-.31,0-.46-.09-1.23-.35-2.21-.88-3.32Z"/>
      <path class="cls-4" d="m29.48,50.22c-.12-.36-.27-.76-.48-1.08-.22-.33-.47-.69-.78-.96-1.04-.91-2.21-1.33-3.57-1.4-.76-.04-1.59.09-2.31.35-.82.28-1.62.65-2.33,1.14-.72.5-1.4,1.05-2.07,1.61,0,0-.01.02-.02.02-.01,0-.03.01-.04.02-.77.45-1.5,1.33-1.7,2.21-.22.95-.17,2.01.37,2.85.19.25.39.5.58.75.46.46,1.01.78,1.63.95,1.34.55,2.67,1.17,4.17,1.1,1.9-.1,3.64-.9,4.99-2.24.38-.38.72-.82,1.01-1.26.39-.61.59-1.28.69-1.99.09-.71.11-1.38-.12-2.08Z"/>
      <path class="cls-4" d="m34.46,36.96c-.27-.5-.63-.97-1.05-1.36-.77-.71-1.65-1.17-2.69-1.31-.71-.09-1.11-.11-1.87.07-.43.1-.91.33-1.27.5-.55.26-1.06.67-1.51,1.08-.38.35-.71.76-1.01,1.19-.45.44-.81.97-.93,1.58-.01.07-.02.14-.03.22-.09.26-.15.52-.17.8-.06.25-.08.5-.07.74,0,.05-.02.11-.02.16-.07.68.02,1.36.15,2.03.23,1.18.95,2.28,1.76,3.14.72.77,1.62,1.4,2.59,1.81.29.12.54.24.85.29.85.15,1.01.16,1.76.06,1.05-.14,1.89-.59,2.69-1.28.42-.36.77-.83,1.03-1.32.49-.93.63-1.68.74-2.71.08-.69.1-1.39.03-2.08-.13-1.31-.36-2.44-.99-3.61Z"/>
      <path class="cls-5" d="m26.9,49.18c-.43,3.29,3.75,4.64,6.33,4.29,3.28-.45,6.49-4.49,3.75-7.47-.79-.86-1.91-1.21-3.06-1.24-1.4-.03-3.37.23-4.6.96-1.28.77-2.24,2.1-2.42,3.45Z"/>
      <path class="cls-5" d="m140.48,121.56c-1.18-1.57-3.05-2.48-4.94-3.02-8.76-2.49-17.67,1.66-25.32,5.59-5.19,2.67-10.27,5.59-15.31,8.54-4.34,2.54-8.65,5.18-12.68,8.19-7.64,5.72-14.87,12.04-21.21,19.19-1.46,1.65-2.81,3.36-4.04,5.12-4.66,6.65-7.77,14.04-10.14,21.99-.19.66-1.16,2.35-.88,3,.55,1.28,2.12.27,2.69-.35,1.49-1.63,2.34-3.73,3.19-5.76,1.91-4.55,2.08-7.7,4.35-12.08,5.1-9.82,20.32-23.77,28.89-30.53,8.36-6.03,13.7-8.94,20.92-13.26,4.34-.48,8.75-.63,13.09-.03,3.78.52,7.47,1.67,11.27,1.96.11,0,.22.02.33.02,4.45.27,14.57-2.22,9.76-8.58Z"/>
    </g>
  </g>
</svg>