<?xml version="1.0" encoding="UTF-8"?>
<svg id="Layer_2" data-name="Layer 2" xmlns="http://www.w3.org/2000/svg" viewBox="0 0 182.68 191.01">
  <defs>
    <style>
      .cls-1 {
        fill: #fff;
      }

      .cls-2 {
        fill: #e64428;
      }

      .cls-3 {
        fill: #008d4a;
      }
    </style>
  </defs>
  <g id="Blancos">
    <path class="cls-1" d="m161.11,55.77c-6.91-6.11-25.24-17.56-45.89-17.99,1.69-3.72,3.08-7.84,3.67-12.41.64-4.94.11-9.27-1.61-13.23C114.2,5.04,107.41.29,99.96.01c-.23,0-.45-.01-.68-.01-3.67,0-7.2,1.02-10.8,3.13-2.36,1.38-4.57,3.08-6.59,5.04-3.73-4.14-8.79-6.77-14.2-7.24-.6-.05-1.2-.08-1.8-.08-6.52,0-12.75,3.03-17.11,8.32-2.76,3.35-4.66,7.43-5.81,12.49-.46,2-.77,4-.97,5.96-.64-.36-1.28-.7-1.93-1.03-2.33-1.18-5.97-2.75-10.52-2.75-1.35,0-2.69.14-4.01.42-6.93,1.48-12.58,6.78-14.76,13.83-1.17,3.78-1.31,7.85-.45,12.43,1.59,8.46,5.88,16.42,12.07,22.41l.09.09c-4.14,3.22-7.85,6.97-10.99,11.16-13.8,18.44-15.2,40.21-4.15,64.71,8.86,19.64,29.82,35.18,53.39,39.58,9.16,1.71,17.43,2.54,25.3,2.54h0c17.02,0,32.27-3.97,46.64-12.15,21.44-12.2,36.7-25.84,46.51-56.09,11.6-35.78-8.78-58.77-18.09-67Z"/>
  </g>
  <g id="Layer_1-2" data-name="Layer 1">
    <g>
      <polygon class="cls-2" points="99.6 55.63 74.39 72.2 52.17 75.91 23.47 93.13 14.87 117.45 20.98 142.74 38.59 163.17 63.51 173.7 95.19 175.53 125.27 165.83 150.31 146.3 164.92 118.14 166.07 90.42 151.18 67.01 126.72 54.55 99.6 55.63"/>
      <polygon class="cls-3" points="72.83 80.35 76.39 78.73 71.63 48.02 73.57 26.1 71.75 19.6 66.38 15.9 60.41 18.74 57.56 24.97 60.09 51.84 72.83 80.35"/>
      <polygon class="cls-3" points="83.8 72.65 87.77 70.64 92.35 48.25 103.97 23.44 103.48 18.13 99.42 15.03 96.07 16.1 86.39 28.31 83.38 43.87 83.8 72.65"/>
      <polygon class="cls-3" points="57.75 78.57 62.69 84.23 66.56 85.55 66.6 82.66 62.87 75.02 50.7 55.17 33.29 39.99 28.69 38.94 25.13 42.5 25.08 47.75 32.83 62.15 57.75 78.57"/>
      <polygon class="cls-1" points="61.88 111.52 47.95 100.47 37.69 111.26 39.92 124.33 50.75 128.31 61.88 111.52"/>
    </g>
  </g>
</svg>