<?xml version="1.0" encoding="UTF-8"?>
<svg id="Layer_2" data-name="Layer 2" xmlns="http://www.w3.org/2000/svg" viewBox="0 0 225.79 201.93">
  <defs>
    <style>
      .cls-1 {
        fill: #fff;
      }

      .cls-2 {
        fill: #eab520;
      }

      .cls-3 {
        fill: #f1cb63;
      }
    </style>
  </defs>
  <g id="Blancos">
    <path class="cls-1" d="m29.01,201.93c-3.81,0-6.69-.49-8.22-.82C14.42,199.98.49,194.45,0,167.68c-.49-26.94,27.96-42.02,33.87-44.85,2.53-1.54,6.22-5.1,8.24-7.35,11.54-15.24,33.17-32.78,36.76-35.64,45.96-42.42,68.45-52.85,71.18-54.03,9.02-3.92,19.41-8.54,25.14-11.21,3.26-9.87,11.12-13.23,17.53-14.26,1.37-.22,2.74-.33,4.09-.33,11.97,0,20.22,8.27,23.54,17.02,2.57,4.97,6.73,16.54,5.05,37.37-1.98,24.56-17.32,43.41-23.87,51.47-.49.61-.94,1.15-1.33,1.64-5.44,6.83-31.04,25.28-51.69,39.62-2.59,1.97-18.35,13.62-38.11,21.73-11.38,4.67-15.28,7.12-20.68,10.51-3.24,2.04-6.92,4.35-12.48,7.33-8.44,4.53-15.55,7-21.64,7.52-10.38,6.29-20,7.71-26.59,7.71Z"/>
  </g>
  <g id="Layer_1-2" data-name="Layer 1">
    <g>
      <path class="cls-3" d="m40.83,136.13s-26.18,11.95-25.83,31.28,8.73,18.98,8.73,18.98c0,0,12.91,3.49,27.57-7.33,0,0,4.54,2.09,18.85-5.58s15.01-10.47,34.55-18.5c19.55-8.03,34.97-19.98,34.97-19.98,0,0,43.55-30.25,48.78-36.84s20.24-23.34,21.99-44.98-3.84-30.02-3.84-30.02c0,0-2.79-9.42-11.52-8.03s-4.19,8.03-8.38,10.47-30.71,13.96-30.71,13.96c0,0-21.29,9.07-67.36,51.66,0,0-23.72,18.72-34.89,33.73,0,0-6.64,7.67-12.91,11.17Z"/>
      <path class="cls-2" d="m40.7,144.1c.95,5.5,2.28,10.63,4.11,15.91-4.28-3.83-5.99-10.48-4.11-15.91h0Z"/>
      <path class="cls-2" d="m77.44,115.81c4.61,10.72,12.66,19.53,22.9,25.13-11.53-2.96-21.01-13.38-22.9-25.13h0Z"/>
      <path class="cls-2" d="m175.02,36.89c-.6,6.83.25,13.43,2.54,19.89-4.87-5.13-5.96-13.7-2.54-19.89h0Z"/>
      <path class="cls-2" d="m84.05,99.82c-.54,5.19-.21,10.08.99,15.15-3.85-3.87-4.3-10.81-.99-15.15h0Z"/>
    </g>
  </g>
</svg>