<?xml version="1.0" encoding="UTF-8"?>
<svg xmlns="http://www.w3.org/2000/svg" viewBox="0 0 156.51 230.09">
  <defs>
    <style>
      .cls-1 {
        fill: #fff;
      }

      .cls-2 {
        fill: #5eb78d;
      }

      .cls-3 {
        fill: #69bc94;
      }

      .cls-4 {
        fill: none;
        isolation: isolate;
      }

      .cls-5 {
        fill: #f9e9bc;
        mix-blend-mode: color-burn;
        opacity: .5;
      }

      .cls-6 {
        fill: #038e4c;
      }

      .cls-7 {
        fill: #17975b;
      }
    </style>
  </defs>
  <g class="cls-4">
    <g id="Layer_2" data-name="Layer 2">
      <g id="Blancos">
        <path class="cls-1" d="m126.5,230.09c-6.22,0-11.85-3.44-14.69-8.97-.04-.08-14.03-28.67-14.03-28.67-8.28-15.5-17.26-18.17-19.1-18.57h-.22c-4.07,0-16.46,0-19.84-11.7-1.14-3.94-.84-9.39,2.77-13.9-1.38.37-2.94.62-4.65.62-4.52,0-8.78-1.77-12-4.99-4.82-4.82-6.33-11.37-5.64-17.45-.11-.06-.22-.11-.32-.17-2.94-1.53-6.6-3.43-10.73-5.78C11.61,111.16,1.48,86.89,2.67,70.94c.36-4.77.16-7.31.05-8.21-6.53-17.8.08-32.79,5.12-38.94.57-.69,1.19-1.33,1.87-1.9,5.73-4.88,16.89-13.06,27.29-13.06,2.95,0,5.73.6,8.27,1.78.72.15,2.26.3,3.32.41,5.69.56,14.29,1.42,20.37,8.69,1.59,1.9,3.05,3.91,4.39,6.02,2.1-3.2,4.46-6.19,7.07-8.95l.63-.67c3.77-4.03,9.48-10.11,17.18-11.88,1.39-.32,2.85-.48,4.34-.48,1.09,0,2.05.09,2.82.17.62-.21,1.46-.55,2.13-.81,3.29-1.31,7.8-3.1,13.48-3.1,1.14,0,2.29.07,3.42.22,14.7,1.92,17.87,14.15,18.91,18.17.15.57.29,1.11.4,1.46,1.08,3.36,2.29,6.72,3.56,10.29,2.64,7.39,5.38,15.02,7.2,23.23,2.67,12.04,2.7,23.22.06,33.26-.58,2.22-1.27,4.29-1.88,6.12-.59,1.76-1.14,3.42-1.47,4.83-.06.26-.11.49-.16.71,2.52,2.85,6.06,8.15,5.05,16.44-.33,2.74-1.15,5.39-2.42,7.89-1.53,3-3.43,5.37-5.36,7.31,3.52,3.83,5.28,8.99,4.78,14.26-.58,6.09-4.08,11.46-9.4,14.44-.11.14-.28.41-.39.74,3.58,14.6,6.95,27.13,9.02,34.82.95,3.53,1.64,6.09,2.04,7.69,1.73,6.93-1.14,14.2-7.16,18.06l-1.07.68c-1.66,1.07-3.49,1.82-5.41,2.23-1.26,1.69-2.87,3.16-4.79,4.3l-.99.59c-2.54,1.52-5.47,2.33-8.45,2.33Z"/>
      </g>
      <g id="Layer_1-2" data-name="Layer 1">
        <g>
          <path class="cls-6" d="m102.53,123.02c1.35,1.26,2.54,2.58,3.44,4,3.06,4.79.51,8.23-1.25,12.93-.39,1.04-.46,2.2-.03,3.23,1.32,3.22,5.44,2.61,7.93,4.08,2.75,1.62,5.02,3.91,6.93,6.45s3.51,5.5,4.95,8.42c1.14,2.32,3.59,5.8,3.9,8.35-.65-5.25-1-10.69.64-15.71,1.24-3.8,3.84-7.33,7.29-9.19,2.2-1.19,2.52-4.26.58-5.84-1.83-1.49-4.2-2.32-6.69-2.83-4.16-.85-4.91-4.57-2.52-8.33,3.24-5.07,9.79-7.23,12.61-12.76.46-.91.78-1.89.9-2.9.51-4.17-2.07-4.86-4.07-7.61-2.12-2.91-1.31-7.89-.54-11.16.9-3.85,2.45-7.51,3.45-11.34,2.24-8.53,1.72-17.59-.2-26.19-2.44-10.99-6.96-21.5-10.4-32.17-1.37-4.26-1.28-8.61-6.97-9.35-5.76-.75-10.34,3.16-15.81,3.89-1.64.22-3.53-.5-5.06-.15-3.56.82-7.82,5.65-10.29,8.26-3.23,3.41-5.96,7.3-8.11,11.47-4.89,9.48-5.74,19.64-3.54,29.99.23,1.06.47,2.12.74,3.18,2.2,8.76,5.46,17.41,5.1,26.54-.11,2.73-.55,5.51.06,8.18.89,3.95,3.87,6.84,7.06,9.11,3.04,2.17,6.87,4.62,9.9,7.45Z"/>
          <path class="cls-2" d="m107.29,26.59c1.8,58.76,10.51,119.38,28.67,180.65.26.88,1.3,1.27,2.07.77l1.06-.68c.6-.39.89-1.12.72-1.81-2.33-9.33-17.28-61.36-24.29-106.32-2.59-16.62-8.23-72.6-8.23-72.6Z"/>
          <path class="cls-7" d="m113.43,183c-1.74-2.84-3.1-5.92-4.16-9.08-1.58-4.73-2.43-9.69-2.61-14.67s-.47-13.18,2.36-17.65c.4-.63.89-1.19,1.34-1.78.91-1.2,1.65-2.61,1.65-4.11,0-5.18-7.44-4.03-10.66-3.18-1.63.43-4.63-3.22-5.27-4.27-2.05-3.36-2.25-7.99-1.07-11.67s4.06-7.1,7.67-8.87c.31-.15.65-.31.83-.61.39-.64-.15-1.43-.69-1.96-1.54-1.52-3.32-2.75-5.21-3.79-1.49-.82-5.07-1.41-5.33-3.36-.13-.93.23-1.85.53-2.75,1.51-4.54,1.96-10.46-.77-14.65-3.36-5.17-10.08-9.56-10.08-9.56,0,0-5.17-6.98-7.23-14.21s-5.68-2.58-9.56-13.69c-1.74-4.99-4.32-9.75-7.71-13.8-3.7-4.42-13.17-2.45-18.38-5.06-5.68-2.84-19.64,9.04-19.64,9.04,0,0-8.27,10.08-2.33,25.06,0,0,1.29,3.36.52,13.69s6.46,28.94,17.83,35.4,18.86,9.3,20.93,12.4c1.51,2.26-.25,2.93-1.31,4.81-1.27,2.26-1.77,6.59.27,8.63,2.58,2.58,6.46-4.13,13.44-2.33,3.86,1,7.95,4.6,10.84,7.63,4.08,4.27,3.88,11.49-.72,15.33-1.54,1.28-3.41,2.08-5.11,3.15-3.31,2.08,5,1.76,5.84,1.79,0,0,17.73.77,31.5,26.75,2.28,4.3,2.43-2.4,2.29-2.63Z"/>
          <path class="cls-3" d="m34.69,37.96l54.26,102.32,36.21,73.99c.4.78,1.37,1.05,2.12.61l.99-.59c.7-.41.94-1.3.56-2.01l-38.35-74.31L34.69,37.96Z"/>
          <path class="cls-3" d="m46.17,59.67c-8.66,2.05-20.76-8.05-26.98-13.44,6.23,5.03,18.2,14.4,26.55,12.51,0,0,.43.92.43.92h0Z"/>
          <path class="cls-3" d="m57.85,81.58c-1.19-9.55-.5-19.18.5-28.7-.66,9.47-1,19.12.5,28.51,0,0-1,.19-1,.19h0Z"/>
          <path class="cls-3" d="m66.29,97.49c-1.34-2.15-3.89-3.53-6.05-4.84-5.81-3.38-12.25-5.81-17.59-9.97-1.03-.86-2.03-1.85-2.53-3.12.54,1.25,1.55,2.2,2.61,3.02,5.47,3.99,11.95,6.19,17.88,9.4,2.41,1.37,4.95,2.58,6.58,5.01,0,0-.89.5-.89.5h0Z"/>
          <path class="cls-3" d="m84.67,130.07c-9.49-2.43-18.87-7.25-24.65-15.37,4.46,5.9,10.99,9.84,17.85,12.35,2.29.83,4.65,1.54,7,2.01l-.2,1h0Z"/>
          <path class="cls-2" d="m95.65,37.96c3.82,6.98,8.79,13.34,14.57,18.79,0,0-.71.73-.71.73-5.6-5.74-10.32-12.34-13.86-19.52h0Z"/>
          <path class="cls-2" d="m112.48,88.53c-1.23-6.67,4.01-12.39,6.32-18.25,2.7-5.87,4.27-12.19,4.78-18.62-.34,6.46-1.75,12.86-4.31,18.83-1.8,4.47-4.49,8.59-5.77,13.23-.34,1.53-.38,3.08-.03,4.56l-.99.25h0Z"/>
          <path class="cls-2" d="m115.01,106.76c-.31-1.93-2.17-3.35-3.64-4.55-4.73-3.78-11.51-7.15-12.35-13.8.28,2.11,1.37,4.01,2.76,5.56,3.54,4.01,8.68,6.03,12.54,9.7.76.77,1.49,1.73,1.7,2.96l-1.01.14h0Z"/>
          <path class="cls-2" d="m120.34,132.04c.97-5.73,1.71-12.07,5.3-16.82-3.29,4.9-3.65,11.2-4.29,16.91,0,0-1.02-.09-1.02-.09h0Z"/>
          <path class="cls-3" d="m81.84,84.71c1.6,3.16,2.07,6.74,2.28,10.23.62,10.47-1.71,21.09-.13,31.49,0,0-1,.18-1,.18-1.36-10.58,1.24-21.08.88-31.66-.12-3.48-.5-7.05-2.02-10.25h0Z"/>
          <path class="cls-5" d="m137.14,105.31c-2.12-2.91-1.31-7.89-.54-11.16.9-3.85,2.45-7.51,3.45-11.34,2.24-8.53,1.72-17.59-.2-26.19-2.44-10.99-6.96-21.5-10.4-32.17-1.37-4.26-1.28-8.61-6.97-9.35-5.76-.75-10.34,3.16-15.81,3.89-1.64.22-3.53-.5-5.06-.15-3.56.82-7.82,5.65-10.29,8.26-3.23,3.41-5.96,7.3-8.11,11.47-4.65,9.03-5.64,18.66-3.83,28.5-1.6-2.69-3.55-6.42-4.65-10.24-2.07-7.23-5.68-2.58-9.56-13.69-1.74-4.99-4.32-9.75-7.71-13.8-3.7-4.42-13.17-2.45-18.38-5.06-5.68-2.84-19.64,9.04-19.64,9.04,0,0-8.27,10.08-2.33,25.06,0,0,1.29,3.36.52,13.69s6.46,28.94,17.83,35.4c11.37,6.46,18.86,9.3,20.93,12.4,1.51,2.26-.25,2.93-1.31,4.81-1.27,2.26-1.77,6.59.27,8.63,2.58,2.58,6.46-4.13,13.44-2.33,3.86,1,7.95,4.6,10.84,7.63,4.08,4.27,3.88,11.49-.72,15.33-1.54,1.28-3.41,2.08-5.11,3.15-3.31,2.08,5,1.76,5.84,1.79,0,0,17.73.77,31.5,26.74l14.02,28.64c.4.78,1.37,1.05,2.12.61l.99-.59c.7-.41.94-1.3.56-2.01l-18.98-36.77c-.19-.52-.39-1.05-.57-1.58-1.58-4.73-2.43-9.69-2.61-14.67-.14-3.79-.33-9.26.75-13.65,1.69.63,3.73.78,5.2,1.65,2.75,1.62,5.02,3.91,6.93,6.45,1.75,2.33,3.17,4.88,4.47,7.48,3.41,15.3,7.38,30.66,11.94,46.06.26.88,1.3,1.27,2.07.77l1.06-.68c.6-.39.89-1.12.72-1.81-1.28-5.11-6.34-23.03-11.81-45.57.17-1.76.48-3.5,1.03-5.18,1.24-3.8,3.84-7.33,7.29-9.19,2.2-1.19,2.52-4.26.58-5.84-1.83-1.49-4.2-2.32-6.69-2.83-4.16-.85-4.91-4.57-2.52-8.33,3.24-5.07,9.79-7.23,12.61-12.76.46-.91.78-1.89.9-2.9.51-4.17-2.07-4.86-4.07-7.61Zm-35.79,27.22c-1.63.43-4.63-3.22-5.27-4.27-1.95-3.2-2.21-7.54-1.21-11.12,2.55,1.77,5.33,3.71,7.66,5.89,1.35,1.26,2.54,2.58,3.44,4,1.11,1.74,1.48,3.3,1.42,4.81-2.15-.14-4.54.31-6.04.7Z"/>
        </g>
      </g>
    </g>
  </g>
</svg>