<?xml version="1.0" encoding="UTF-8"?>
<svg id="Layer_2" data-name="Layer 2" xmlns="http://www.w3.org/2000/svg" viewBox="0 0 258.23 173.22">
  <defs>
    <style>
      .cls-1 {
        fill: #eec44c;
        opacity: .4;
      }

      .cls-1, .cls-2, .cls-3, .cls-4, .cls-5, .cls-6 {
        stroke-width: 0px;
      }

      .cls-2 {
        fill: #efc44f;
      }

      .cls-3 {
        fill: #fff;
      }

      .cls-4 {
        fill: #33a46e;
      }

      .cls-5 {
        fill: #f5dc96;
      }

      .cls-6 {
        fill: #cd7534;
      }
    </style>
  </defs>
  <g id="Blancos">
    <path class="cls-3" d="m177.55,173.22c-18.56,0-37.32-6.21-52.8-17.5-4.66-3.39-9.12-7.26-13.24-11.45-7.03,3.75-14.5,6.22-22.1,7.27-4.27.59-8.58.89-12.8.89-14.05,0-27.35-3.31-38.46-9.56C17.74,131.39,4.13,112.71.8,91.64c-1.24-7.84-1.04-15.89.57-23.91C9.68,26.59,37.06,0,71.13,0c1.67,0,3.37.06,5.06.19,20.71,1.51,42.44,11.94,57.35,26.74,3.1-2.03,6.3-3.92,9.59-5.68,4.19-2.23,8.7-4.59,13.72-6.63,7.72-3.15,14.6-4.67,21.02-4.67,3.43,0,6.75.45,9.87,1.33,3.85,1.09,6.97,2.67,9.47,3.94l.78.4c.23.12.95.46.95.46.26.13.76.35.82.38.1.04.54.22.54.22.06.02.13.05.19.07.38-.12.88-.32,1.41-.52,1.86-.71,4.4-1.67,7.5-2.15,1.3-.2,2.62-.3,3.94-.3,6.19,0,12.34,2.25,17.88,6.52,8.63,5.3,15.22,15.69,17.85,21.24,7.05,14.89,9.98,31.79,8.96,51.65-.99,19.16-7.04,36.41-17.5,49.88-13.07,16.82-33.98,27.98-55.94,29.86-2.32.2-4.68.3-7.03.3h0Z"/>
  </g>
  <g id="Layer_1-2" data-name="Layer 1">
    <g>
      <path class="cls-4" d="m15.62,89.31c2.69,17.02,13.9,31.5,29.88,40.49,12.54,7.06,27.6,8.85,41.86,6.89,33.88-4.67,58.86-44.91,49.21-77.49-7.2-24.3-37.2-42.29-61.47-44.05-33.42-2.43-53.04,25.91-59.02,55.56-1.3,6.43-1.4,12.67-.46,18.6Z"/>
      <path class="cls-1" d="m15.62,89.31c2.69,17.02,13.9,31.5,29.88,40.49,12.54,7.06,27.6,8.85,41.86,6.89,33.88-4.67,58.86-44.91,49.21-77.49-7.2-24.3-37.2-42.29-61.47-44.05-33.42-2.43-53.04,25.91-59.02,55.56-1.3,6.43-1.4,12.67-.46,18.6Z"/>
      <path class="cls-6" d="m35.79,44.36c-2.75,1.75-5.17,4.05-6.78,6.22-5.28,7.12-7.56,17.37-3.81,25.65,1.21,2.68,3.12,5.25,5.88,6.27,8.33,3.09,16.29-7.15,19.45-13.48,3.2-6.42,6.62-18.77.9-24.69-4.42-4.57-10.6-3.18-15.64.03Z"/>
      <path class="cls-4" d="m133.59,143.6c14.24,10.38,32.16,15.88,49.72,14.37s34.56-10.2,45.38-24.12c9.11-11.73,13.61-26.62,14.37-41.45.79-15.37-.95-30.55-7.53-44.46-2.4-5.08-7.82-12.61-12.78-15.25-5.87-3.12-12.03-.08-18.51,1.39-22.42,5.08-43.62,15.21-61.86,29.18-9.18,7.03-17.62,15.04-25.08,23.88-3.45,4.09-5.49,5.46-8.31,10.02s-4.43,11.08-2.18,15.51c6.07,11.97,15.93,23.02,26.79,30.93Z"/>
      <path class="cls-1" d="m133.59,143.6c14.24,10.38,32.16,15.88,49.72,14.37s34.56-10.2,45.38-24.12c9.11-11.73,13.61-26.62,14.37-41.45.79-15.37-.95-30.55-7.53-44.46-2.4-5.08-7.82-12.61-12.78-15.25-5.87-3.12-12.03-.08-18.51,1.39-22.42,5.08-43.62,15.21-61.86,29.18-9.18,7.03-17.62,15.04-25.08,23.88-3.45,4.09-5.49,5.46-8.31,10.02s-4.43,11.08-2.18,15.51c6.07,11.97,15.93,23.02,26.79,30.93Z"/>
      <path class="cls-5" d="m162.51,28.51c-4.45,1.81-8.68,4.03-12.32,5.98-12.2,6.5-23.35,15.41-31.98,26.24-9.68,12.13-17.76,27.58-14.31,43.54,1.4,6.47,4.59,12.71,9.16,17.51,4.51,4.74,12.28,5.16,18.22,7.35,7,2.59,13.79,5.73,20.7,8.55,9.9,4.03,20.79,7.53,31.6,6.04,10.2-1.4,19.3-7.01,27.1-13.45,8.66-7.16,16.37-15.78,20.86-26.08,4.23-9.69,5.45-20.44,5.56-31.01.08-8.06-.48-16.24-3.17-23.83-2.93-8.25-11.93-22.04-22.23-20.45-2.59.4-4.95,1.7-7.48,2.39-8.27,2.26-13.24-3.51-20.56-5.58-6.63-1.88-14.16-.04-21.15,2.8Z"/>
      <path class="cls-2" d="m173.45,115.16c2.2.13,4.51-1.62,4.62-3.92.15-3.32-3.85-6.31-2.39-9.27.92-1.86,3.56-2.05,5.27-.98s2.76,2.96,3.88,4.68,2.54,3.45,4.5,3.87c2.88.61,5.76-2.25,5.89-5.31s-1.95-5.9-4.59-7.23c-2.12-1.07-4.77-1.49-6.07-3.53-1.53-2.4.23-6.23,2.99-6.51,4.59-.46,6.68,6.7,11.2,7.59,2.74.54,5.59-1.77,6.08-4.64s-1.18-5.86-3.68-7.16c-1.41-.73-3.01-.97-4.45-1.62s-2.83-1.89-2.92-3.53c-.12-2.17,2.11-3.8,4.19-3.99,2.08-.19,4.13.56,6.2.76s4.51-.36,5.49-2.29c1.27-2.51-.93-5.68-3.57-6.33-3.22-.79-6.44,1.83-9.54,2.59-.95.23-1.93.41-2.89.25s-1.9-.73-2.31-1.64c-.68-1.53.54-2.88,1.8-3.46,1.04-.48,2.19-.67,3.16-1.27,1.97-1.23,3.05-5.49,1.04-7.25-2.16-1.89-6.41.7-7.97,2.42-2.65,2.91-3.8,6.91-5.41,10.55-2.7,6.11-6.83,11.4-10.46,16.97-3.31,5.1-7.25,11.66-7.32,18.04-.05,4.46,2.17,11.91,7.24,12.22Z"/>
      <path class="cls-2" d="m153.31,71.36c.32.57.47,1.23.38,1.96-.29,2.3-2.51,2.19-4.34,2.2-2.62.02-5.5,1.18-6.3,3.93-.49,1.69.19,3.6,1.73,4.34,2.49,1.19,4.17-1.99,6.52-1.17,1.41.49,2.11,2.09,1.88,3.61-.36,2.32-2.28,3.77-4.2,4.79-2.15,1.13-4.54,1.98-5.9,4.26-.41.69-.64,1.5-.61,2.3.13,3.32,3.57,3.99,5.8,2.78,1.75-.94,2.93-2.71,4.05-4.41,6.87-10.48,13.74-20.96,20.61-31.44,2.06-3.14,4.13-6.32,5.7-9.74.99-2.17-.78-4.6-3.05-4.15s-4.22,2.13-4.49,4.59c-.09.84-.61,1.61-1.41,1.75-1.51.26-1.71-1.81-2.09-3.19-.53-1.9-2.45-3.26-4.34-3.06-4.41.46-3.91,5.76-2.4,8.89.94,1.96,2.37,3.73,2.22,6.09-.06.97-.53,1.91-1.33,2.41-1.51.94-2.97-.08-4.18-1.03-3.08-2.41-6.68-9.74-11.27-3.33-.35.49-.58,1.07-.66,1.68-.32,2.67,1.72,3.22,3.85,3.49,1.38.17,3.07,1.07,3.84,2.46Z"/>
      <path class="cls-6" d="m126.28,133.02c7.67,7.07,18.04,11.76,28.39,12.99,1.34.16,3.05.06,3.56-1.2.41-1.02-.28-2.11-.82-3.07s-.92-2.31-.08-3.03c.79-.67,2.02-.22,3.01-.53.88-.28,1.48-1.25,1.33-2.16-.28-1.78-3.94-3.67-5.4-4.35-8.15-3.82-16.67-6.86-25.39-9.07-2.53-.64-6.94-2.12-8.75.73-2.11,3.3,1.95,7.66,4.15,9.69Z"/>
      <path class="cls-6" d="m190.5,28.62c.02.81.4,1.73.81,2.3.73,1,1.83,1.68,2.97,2.16,3.15,1.3,7.02,1.09,9.68-1.04.29-.23.57-.55.68-.89-.14.04-.28.09-.43.13-5.47,1.49-9.5-.52-13.72-2.66Z"/>
    </g>
  </g>
</svg>