<?xml version="1.0" encoding="UTF-8"?>
<svg id="Layer_2" data-name="Layer 2" xmlns="http://www.w3.org/2000/svg" viewBox="0 0 171.14 240.55">
  <defs>
    <style>
      .cls-1 {
        fill: #fff;
      }

      .cls-2 {
        fill: #cc7533;
      }

      .cls-3 {
        fill: #eab520;
      }
    </style>
  </defs>
  <g id="Blancos">
    <path class="cls-1" d="m118.63,65.67c3.53-15.47,7.63-30.22,9.21-33.51,1.88-3.53,2.28-7.67,1.1-11.49-1.19-3.85-3.88-7.07-7.47-8.91-3.03-1.56-5.92-3.85-8.34-6.63-2.87-3.28-6.99-5.12-11.29-5.12-.57,0-1.14.03-1.71.1-2.62.3-5.08,1.28-7.15,2.8-.61-.22-1.24-.4-1.88-.54-.98-.21-9.78-2.09-17.24-2.09-.68,0-1.34.01-1.99.04-4.2.2-8.12,2.15-10.81,5.37-2.69,3.23-3.91,7.43-3.35,11.6,1.53,11.47,3.26,25.3,3.42,27.98,0,1.92-.08,5.53-.18,9.35-.06,2.59-.13,5.44-.19,8.32-10.59,3.94-22.08,10-35.31,18.61-6.87,4.47-16.42,16.31-20.2,21.2-1.63,2.1-2.67,4.59-3.02,7.22-.29,2.21-2.84,21.93-2.12,33.66,1.58,25.73,21.59,47.78,30.11,56.06.4.39.83.76,1.27,1.1,6.72,5.21,14.41,9.39,21.81,12.68-3.42,6.48-4.43,10.32-1.96,15.96,2.28,5.21,7.33,8.69,13.02,8.97.43.02.87.03,1.3.03,2.25,0,4.49-.29,6.66-.83,3.07,1.61,6.54,2.53,10.16,2.53.54,0,1.07-.02,1.6-.06,1.21-.09,2.37-.29,3.49-.59,2.16.71,4.45,1.1,6.81,1.1.76,0,1.53-.04,2.29-.12,4.55-.49,7.67-2.51,9.63-4.34.04,0,.09,0,.13,0,2.35,0,4.69-.55,6.82-1.64,3.56-1.82,6.25-4.98,7.47-8.79.93-2.91,1.64-7.7-.97-12.95,8.15-4.56,16.89-11.05,25.12-20.26,24.99-27.97,26.21-59.39,26.26-63.59.15-6.42-2.54-33.09-52.5-63.2Z"/>
  </g>
  <g id="Layer_1-2" data-name="Layer 1">
    <g>
      <path class="cls-2" d="m76.15,81.49c.52,2.27,1.36,4.1,2.71,4.89.81.48,1.76.47,2.67.45,5.97-.12,11.94-.23,17.92-.35.25-7.55,10.87-53.47,15.16-61.39-4.73-2.43-9.08-5.87-12.78-10.09-5.33,9.98-9.19,21.01-11.36,32.48-1.43-7.48-2.16-28.7-2.58-30.48,0,0-9.18-2.01-15.32-1.72,0,0,3.53,26.42,3.55,29.69.04,7.07-1.08,31.73.02,36.51Z"/>
      <path class="cls-3" d="m33.64,94.11c-5.48,3.57-16.53,17.81-16.53,17.81,0,0-2.67,20.15-2.02,30.76,1.04,16.98,13.56,34.53,25.6,46.23,17.81,13.79,44.92,19.59,44.92,19.59,0,0,26.05-1.39,48.07-26.04,22.7-25.41,22.44-53.88,22.44-53.88,0,0,1.29-22.43-46.46-50.8-21.77-12.93-49.13-1.18-76.03,16.32Z"/>
      <path class="cls-2" d="m65.11,223.39c3.89.19,7.82-1.57,10.27-4.6.4,3.61,3.97,6.57,7.59,6.29.45-.03.91-.12,1.31-.34,2.1-1.21.71-5.03,2.64-6.49.03,4.1,4.08,7.7,8.16,7.26.39-.04.81-.14,1.05-.44.25-.32.23-.76.2-1.15-.15-2.1-.3-4.2-.45-6.29,3.52,1.16,7.04,2.31,10.56,3.47.55-1.73-1.13-3.29-2.53-4.45-3.36-2.81-6.09-6.36-7.94-10.33-.59-1.27-1.15-2.67-2.32-3.46-1.03-.7-2.35-.8-3.6-.84-6.33-.24-11.02-.83-15.18,4.16-1.2,1.43-10.06,17.21-9.77,17.23Z"/>
      <g>
        <path class="cls-2" d="m101.65,198.95v-1.5c9.35-8.65,19.92-18.89,26.83-29.57,5.75-9.01,10.51-18.59,14.36-28.6-1.82,9.05-5.41,17.84-9.88,25.93-7.64,13.38-18.27,25.45-31.31,33.74h0Z"/>
        <path class="cls-2" d="m73.02,199.31c-13.09-5.06-24.28-14.81-32.36-26.21-6.62-9.68-13.48-34.72-13.93-37.7l.6-1.75c2.24,13.65,15.41,38,15.41,38,0,0,18.32,18.75,30.27,26.51,0,0,1.58.79,0,1.15h0Z"/>
        <path class="cls-2" d="m75.74,76.64c-9.55,5.56-20.55,11.73-25.35,22.03-4.45,9.42-5.88,21.21-4.83,31.47.14,1.31-.68,1.31-.68,1.31-1.4-11.94-1.77-24.96,4.24-35.82,4.78-8.55,24.22-18.58,25.32-18.97h1.29Z"/>
        <path class="cls-2" d="m85.29,77.96c-1.4.33-2.19,1.47-3.01,2.56,0,0-2.5,3.33-2.5,3.33-3.29,4.36-6.16,8.89-8.39,13.87-2.05,4.57-.6,13.27-2.12,7.94-1.87-8.61,3.1-17.2,9-23.11,1-1,2.03-1.96,3.1-2.88,1.06-.89,2.42-1.97,3.91-1.71h0Z"/>
        <path class="cls-1" d="m149.11,133.65c.51-1.41-.37-3.19-1.16-4.93,0,0-2.43-5.34-2.43-5.34-3.16-6.99-6.8-13.84-11.4-20.66-4.22-6.26-15.72-14.09-8.26-9.77,11.66,7.42,18.87,20.04,22.22,30.62.57,1.79,1.07,3.57,1.49,5.33.39,1.72.83,3.88-.45,4.75h0Z"/>
        <path class="cls-2" d="m93.6,81.52c8.07,20.25,8.94,45.08,2.27,65.84,0,0-2.27,3.6-2.27,1.16,0-1.07,3.65-13.35,3.91-17.68.97-15.72.58-34.39-4.61-47.24-.3-.74.87-1.29.7-2.07h0Z"/>
        <path class="cls-2" d="m81.38,109.85s.5-1.54.54.58c.3,15.77-2.11,37.85-.15,55.09.41,3.63.71,7.28,1.14,10.87.9,7.18,2.54,14.38,2.92,21.77l-.92.14c-.79-9.58-4.92-29.95-4.92-29.95,0,0-.8-17.54-.99-21.24-.53-18.41.31-18.36,2.28-36.68l.11-.58Z"/>
        <path class="cls-2" d="m101.79,77.96c7.9,5.71,20.45,23.49,20.45,23.49,0,0,3.83,7.2,6.04,23.7.48,3.55-.88,5-.88,5-2.6-29.03-16.6-41.97-25.61-50.71-.92-.89,0-1.47,0-1.47h0Z"/>
      </g>
    </g>
  </g>
</svg>