<?xml version="1.0" encoding="UTF-8"?>
<svg id="Layer_2" data-name="Layer 2" xmlns="http://www.w3.org/2000/svg" viewBox="0 0 195.52 216.94">
  <defs>
    <style>
      .cls-1 {
        fill: #fff;
      }

      .cls-2 {
        fill: #cc7533;
      }

      .cls-3 {
        fill: #008d4a;
      }
    </style>
  </defs>
  <g id="Blancos">
    <path class="cls-1" d="m23.31,177.85c2.13,1.14,5.33,2.55,8.17,3.74,4.43,8.49,14.47,21.63,36.32,30.32,8.51,3.38,18.03,5.03,29.12,5.03,2.7,0,5.56-.1,8.51-.3,7.67-.52,15.04-2.06,21.9-4.57,4.4-1.61,10.97-4.77,14.79-6.67,2.1-.1,4.76-.25,6.61-.41,10.44-.88,20.38-5.95,28-14.26,5.93-6.47,8.76-13.41,11.26-19.52.63-1.54,1.23-3,1.85-4.4,8.15-18.25,6.04-36.73,2.84-49.02-3.13-12.03-9.01-21.73-14.7-31.1-1.7-2.81-3.31-5.46-4.83-8.14-4.51-7.99-6.94-15.37-7.88-23.92-.07-.66-.14-1.33-.21-1.99-.58-5.51-1.23-11.75-3.72-18.16-4.08-10.51-10.22-15.24-15.46-17.31-.23-.38-.45-.74-.66-1.09-.07-.12-.14-.23-.21-.35-.11-.31-.23-.65-.36-1-1.43-4.04-3.21-9.07-8.34-12.26-2.59-1.61-5.55-2.46-8.58-2.46-5.89,0-11.32,3.19-14.69,8.48-1.36-.28-2.84-.45-4.43-.45-.43,0-.87.01-1.32.04-7.91.48-16.08,4.35-23.62,11.18-6.67,6.04-11.28,13.23-15.34,19.57l-1.15,1.79c-2.87,4.45-5.98,9.04-9.62,12.07-2.62,2.18-6.1,4.17-9.78,6.26-2.27,1.29-4.62,2.63-7,4.14-6.54,4.15-38.75,26.06-39.78,55.23-2.3,13.99-.6,28.56,4.71,40.15,2.93,6.39,9.09,14.84,17.6,19.39Z"/>
  </g>
  <g id="Layer_1-2" data-name="Layer 1">
    <g>
      <path class="cls-2" d="m133.46,34.03c.49-.06,1.04-.14,1.33-.53.17-.23.22-.51.26-.79.57-4.2-1.38-6.66-3.35-10-.86-1.46-2.22-6.83-3.31-7.51-1.19-.74-2.49.77-3.08,2.04-.5,1.08-1,2.15-1.5,3.23-.42.9-.89,1.86-1.76,2.36-.47.27-1.02.37-1.56.47-1.5.27-3.01.54-4.51.81-1.21.22-2.78.22-3.81.97-.14.1-.14.16-.28.26-1.47,1-1.34,3.37-.21,4.74s2.92,2,4.6,2.57c1.19.4,2.38.8,3.6,1.11,1.22.31,2.49.32,3.7.59,1.63.38,3.31.5,4.98.4,1.66-.11,3.25-.53,4.9-.72Z"/>
      <path class="cls-3" d="m15.98,119.74c-1.92,10.55-1.15,22.62,3.37,32.48,2.18,4.75,6.49,9.98,11.04,12.41,3.62,1.93,12.48,5.41,12.48,5.41,0,0,4.16,17.48,30.48,27.94,9.74,3.87,20.61,4.41,31.06,3.7,6.05-.41,12.07-1.61,17.77-3.69,5.48-2,16.06-7.42,16.06-7.42,0,0,6.15-.26,9.23-.52,6.97-.59,13.48-4.29,18.21-9.45,5.36-5.84,7.34-12.9,10.47-19.9,5.47-12.26,5.36-26.31,2.02-39.12-3.43-13.16-11.48-23.97-18.07-35.66-5.37-9.52-8.54-18.82-9.73-29.65-.61-5.49-.99-11.17-3.01-16.37-1.67-4.3-4.78-9.75-10.15-9.26-1.27.12-2.54.56-3.78.27-2.52-.59-2.74-3.4-4.71-4.58-2.25-1.35-5.11-.48-7.4.31-4.82,1.67-8-3.92-13.12-3.61-5.36.32-10.59,3.82-14.45,7.32-5.73,5.2-9.81,11.94-13.97,18.38-3.6,5.57-7.48,11.18-12.62,15.46-5.54,4.61-12.27,7.69-18.34,11.54-13.68,8.68-32.84,26.31-32.84,44Z"/>
      <path class="cls-1" d="m138.16,190.49c11.04-9.31,13.03-28.66,8.92-41.77-1.38-4.82-3.54-9.38-5.68-13.94,0,0,.18-.12.18-.12,3.18,3.99,5.85,8.47,7.56,13.4,1.75,4.9,2.07,10.27,1.66,15.41-.89,10.06-4.07,20.95-12.52,27.19,0,0-.13-.17-.13-.17h0Z"/>
      <path class="cls-1" d="m42.76,170.05c-3.25-14.82.29-33.03,12.24-43.18,0,0,.16.14.16.14-6.11,9.64-11.65,19.94-12.49,31.51-.35,3.81-.26,7.67.3,11.48l-.21.04h0Z"/>
      <path class="cls-1" d="m120.07,27.03c-3.08,1.17-6.01,2.75-8.55,4.8-2.48,2.24-4.52,4.38-6.97,6.74-.07.08-.21.01-.2-.09.68-5.52,6.14-8.45,10.77-10.35,1.6-.58,3.23-1.05,4.9-1.32.12-.02.18.17.06.21h0Z"/>
      <path class="cls-1" d="m131.58,29.63c3.23,3.4,6.42,9.08,3.41,13.56-.05.08-.19.06-.21-.03-.8-2.41-.77-4.48-.96-6.87-.38-2.29-1.28-4.47-2.41-6.52-.06-.1.09-.22.17-.13h0Z"/>
    </g>
  </g>
</svg>