<?xml version="1.0" encoding="UTF-8"?>
<svg xmlns="http://www.w3.org/2000/svg" viewBox="0 0 282.1 198.55">
  <defs>
    <style>
      .cls-1 {
        isolation: isolate;
      }

      .cls-2 {
        opacity: .7;
      }

      .cls-2, .cls-3 {
        fill: #3779b6;
        mix-blend-mode: hard-light;
      }

      .cls-2, .cls-3, .cls-4, .cls-5, .cls-6, .cls-7, .cls-8 {
        stroke-width: 0px;
      }

      .cls-3 {
        opacity: .6;
      }

      .cls-4 {
        fill: #e64228;
      }

      .cls-5 {
        fill: #fff;
      }

      .cls-6 {
        fill: #eab520;
      }

      .cls-7 {
        fill: #dc9e71;
      }

      .cls-8 {
        fill: #cd7534;
      }
    </style>
  </defs>
  <g class="cls-1">
    <g id="Layer_2" data-name="Layer 2">
      <g id="Blancos">
        <path class="cls-5" d="m189.39,198.55c-7.41,0-14.78-.67-21.9-2-10.75-2.01-20.34-8.59-27.55-14.65-.67.35-1.35.68-2.02,1.01-9.72,4.68-19.54,5.29-27.01,5.29-3.38,0-6.66-.14-9.84-.28-2.68-.11-5.22-.22-7.66-.24-.6,0-1.22,0-1.84,0,0,0-4.6.01-5.59.01-11.46,0-24.63-.5-35.77-6.5-8.98-4.83-18.27-12.41-26.16-21.35C8.54,142.26,0,119.66,0,96.2,0,43.16,43.16,0,96.2,0c26.31,0,50.82,10.44,68.85,29.01,9.19-3.18,18.87-4.83,28.52-4.83.68,0,1.36,0,2.03.04.04,0,.09,0,.13,0,13.97.34,27.85,4.1,40.16,10.89,12.17,6.72,23.16,16.78,31.78,29.11,3.09,4.42,7.48,11.29,9.92,19.87,2.48,8.74,3.9,16.62,4.34,24.09.06,1.04.11,2.06.13,3.09.14,5.23-.17,10.47-.93,15.51-3.75,25.12-20.26,47.39-45.3,61.08-9.4,5.15-20.2,8.46-32.08,9.85-4.76.55-9.6.83-14.37.83h0Z"/>
      </g>
      <g id="Layer_1-2" data-name="Layer 1">
        <g>
          <path class="cls-4" d="m177.4,96.2c0,20.46-7.87,40.44-21.83,55.4-6.87,7.36-15.1,13.43-24.16,17.79-11.64,5.61-25.16,3.38-37.88,3.28-11.27-.09-25.96.82-36.22-4.7-8.1-4.36-15.94-11.18-22.02-18.07-13.02-14.76-20.3-34.03-20.3-53.71,0-44.85,36.36-81.2,81.2-81.2s81.2,36.36,81.2,81.2Z"/>
          <path class="cls-2" d="m177.4,96.2c0,20.46-7.87,40.44-21.83,55.4-6.87,7.36-15.1,13.43-24.16,17.79-11.64,5.61-25.16,3.38-37.88,3.28-11.27-.09-25.96.82-36.22-4.7-8.1-4.36-15.94-11.18-22.02-18.07-13.02-14.76-20.3-34.03-20.3-53.71,0-44.85,36.36-81.2,81.2-81.2s81.2,36.36,81.2,81.2Z"/>
          <path class="cls-7" d="m64.61,28.8c14.57-8.14,27.72,10.31,40.44,14.64,7.14,2.72,14.44,0,21.61-1.46,7.26-1.72,16.25-.82,20.99,5.56-5.28-5.68-13.59-5.98-20.66-4.06-7.21,1.85-15.19,4.65-22.59,1.81-12.99-4.27-25.02-23.03-39.79-16.48h0Z"/>
          <path class="cls-4" d="m266.3,124.55c-3.28,22.02-18.49,39.67-37.66,50.15-8.19,4.48-17.37,7.03-26.62,8.11-10.54,1.23-21.35.93-31.79-1.01-9.07-1.7-18.05-8.87-24.7-14.95-6.01-5.5-11.12-11.98-15.06-19.1,2.88,3.78,7.84,6.46,10.87,9.63,1.7,1.77,2.4,4.15,3.56,6.27,2.11,3.85,6.78,6.15,10.54,8.09,23.39,12.08,49.23,5.59,71.37-6.03,6.53-3.43,12.84-7.35,18.29-12.34,12.19-11.18,16.39-26.83,17.41-42.87.55-8.55-.16-18.27-6.66-23.84-6.44-5.53-17.08-4.76-25.67-3.45.78-2.2.73-4.22-.9-5.73-1.26-1.17-3.13-1.41-4.84-1.1,2.85-4.01,4.28-9.07,3.58-13.96-1.23-8.5-8.1-15.34-15.93-18.89-5.38-2.44-11.2-3.59-17.08-4.33,11.74.23,23.37,3.37,33.64,9.04,10.66,5.88,19.78,14.63,26.73,24.57,3.37,4.82,6.19,9.76,7.79,15.37,1.94,6.84,3.37,13.76,3.79,20.88.05.85.09,1.7.11,2.55.12,4.31-.12,8.64-.76,12.93Z"/>
          <path class="cls-3" d="m266.3,124.55c-3.28,22.02-18.49,39.67-37.66,50.15-8.19,4.48-17.37,7.03-26.62,8.11-10.54,1.23-21.35.93-31.79-1.01-9.07-1.7-18.05-8.87-24.7-14.95-6.01-5.5-11.12-11.98-15.06-19.1,2.88,3.78,7.84,6.46,10.87,9.63,1.7,1.77,2.4,4.15,3.56,6.27,2.11,3.85,6.78,6.15,10.54,8.09,23.39,12.08,49.23,5.59,71.37-6.03,6.53-3.43,12.84-7.35,18.29-12.34,12.19-11.18,16.39-26.83,17.41-42.87.55-8.55-.16-18.27-6.66-23.84-6.44-5.53-17.08-4.76-25.67-3.45.78-2.2.73-4.22-.9-5.73-1.26-1.17-3.13-1.41-4.84-1.1,2.85-4.01,4.28-9.07,3.58-13.96-1.23-8.5-8.1-15.34-15.93-18.89-5.38-2.44-11.2-3.59-17.08-4.33,11.74.23,23.37,3.37,33.64,9.04,10.66,5.88,19.78,14.63,26.73,24.57,3.37,4.82,6.19,9.76,7.79,15.37,1.94,6.84,3.37,13.76,3.79,20.88.05.85.09,1.7.11,2.55.12,4.31-.12,8.64-.76,12.93Z"/>
          <path class="cls-6" d="m262.52,110.5c-1.02,16.04-5.23,31.69-17.41,42.87-5.44,4.98-11.76,8.9-18.29,12.34-22.14,11.62-47.99,18.11-71.37,6.03-3.77-1.94-8.43-4.24-10.54-8.09-1.16-2.12-1.86-4.49-3.56-6.27-3.03-3.17-7.99-5.84-10.87-9.63h0c-1.38-2.5-2.62-5.05-3.7-7.68-5.48-13.31-7.12-28.12-4.36-42.26.71-3.61,1.68-7.17,2.92-10.63,3.31-9.25,8.53-17.78,15.23-24.95,13.63-14.62,33.02-23.05,53.01-23.05.45,0,.9,0,1.35.02.03,0,.06,0,.09,0,5.88.75,11.7,1.89,17.08,4.33,7.83,3.55,14.71,10.38,15.93,18.89.7,4.89-.73,9.95-3.58,13.96-.25.04-.51.1-.76.17-1.91.54-3.61,1.62-5.41,2.45-7.71,3.57-16.69,2.44-25.03,4.01-9.88,1.85-18.95,7.73-24.7,15.98-4.5,6.48-10.89,21.15-4.86,28.46,6.04,7.32,20.27,6.82,28,3.58,15.19-6.38,20.32-21.49,28.91-34.3,1.84-2.75,7.85-8.57,9.61-13.52,8.59-1.3,19.23-2.08,25.67,3.45,6.5,5.57,7.21,15.29,6.66,23.84Z"/>
          <path class="cls-8" d="m230.16,83.68c-1.87,5.29-8.29,11.51-10.26,14.44-9.17,13.67-14.65,29.81-30.86,36.62-8.26,3.47-23.45,4-29.9-3.82-6.44-7.8.39-23.46,5.19-30.38,6.14-8.82,15.82-15.09,26.37-17.07,8.91-1.68,18.5-.47,26.73-4.28,1.93-.89,3.74-2.04,5.78-2.62.27-.07.54-.14.82-.18,1.83-.34,3.82-.07,5.17,1.17,1.74,1.61,1.8,3.77.96,6.11Z"/>
        </g>
      </g>
    </g>
  </g>
</svg>