<?xml version="1.0" encoding="UTF-8"?>
<svg xmlns="http://www.w3.org/2000/svg" viewBox="0 0 174.64 211.96">
  <defs>
    <style>
      .cls-1 {
        isolation: isolate;
      }

      .cls-2 {
        fill: #e64228;
      }

      .cls-2, .cls-3, .cls-4 {
        stroke-width: 0px;
      }

      .cls-3 {
        fill: #fff;
      }

      .cls-4 {
        fill: #3779b6;
        mix-blend-mode: multiply;
        opacity: .75;
      }
    </style>
  </defs>
  <g class="cls-1">
    <g id="Layer_2" data-name="Layer 2">
      <g id="Blancos">
        <path class="cls-3" d="m158.31,135.16c-1.06-.76-2.16-1.43-3.28-2.04,13.73-5.04,21.26-17.97,19.31-33.5-.75-5.95-2.84-11.88-6.06-17.15-4.37-7.17-10.57-13.05-17.89-17.24,10.09-10.82,14.8-24.72,12.18-37.1-2.07-9.78-9.16-17.51-18.95-20.68-3.22-1.04-6.58-1.57-9.99-1.57-11.47,0-22.4,5.97-29.25,15.96-.05.07-.09.13-.14.2-.33.5-.66,1.01-.98,1.51-.43.67-.99,1.53-1.47,2.21-1.22-4.96-3.57-9.46-7.02-13.35C87.64,4.41,76.61,0,63.7,0,46.13,0,24.4,8.82,15.44,28.52c-5.91,13.01-5.28,27.25,1.71,38.1,1.64,2.54,3.58,4.79,5.73,6.71-6.74,2.05-15.42,5.89-20.17,16.07-2.83,6.05-3.47,13.1-1.8,19.86,2.17,8.78,7.77,15.86,15.71,20.3-7.69,5.83-12.9,14.16-13.99,23.71-1.59,13.9,6.51,30.17,28.11,35.5.76.91,1.96,2.95,2.79,4.37,3.86,6.58,11.06,18.82,27.47,18.82h0c3.18,0,6.56-.5,10.05-1.48,7.66-2.16,13.88-6.25,18.32-11.71,7.5,7.24,17.98,11.22,29.6,11.22h.26c10.23-.05,20.95-3.2,29.41-8.64,14.32-9.2,23.17-25.52,22.55-41.57-.39-10.03-5.08-19-12.88-24.62Z"/>
      </g>
      <g id="Productos">
        <g>
          <path class="cls-2" d="m119.15,194.99c-7.32.04-14.47-2.1-19.64-7.26-6.58-6.56-6.44-16.57,1.24-22.18,4.47-3.27,10.16-4.45,15.58-4.78,5.74-.35,8.68-5.15,11.82-9.25,6.08-7.67,14.74-8.97,21.39-4.18,4.17,3,6.46,7.9,6.66,13.03.43,11.22-6.4,22.41-15.67,28.37-5.94,3.82-13.75,6.22-21.38,6.26Z"/>
          <path class="cls-2" d="m159.45,101.49c.97,7.67-1.71,15.22-10.69,17.92-10.94,3.29-16.04-7.66-24.93-11.2-4.03-1.61-7.85-.46-12.03-.5-3.73-.04-9.38-1.64-11.5-5.07-12.06-19.43,9.78-30.94,26.94-29.35,11.39,1.06,22.22,7.12,28.23,16.99,2.04,3.35,3.49,7.31,3.98,11.22Z"/>
          <path class="cls-2" d="m66.97,196.04c31.26-8.82,9.11-59.12-22.35-60.18-28.42-.96-39.09,31.7-9.73,38.49,13.98,3.23,11.12,27.61,32.08,21.7Z"/>
          <path class="cls-2" d="m70.81,102.45c-1.63,2.88-3.57,5.43-5.67,7.36-8.54,7.9-22.14,11.4-33.51,9.34-7.49-1.36-14.26-5.75-16.17-13.48-.82-3.31-.62-6.83.83-9.92,5.76-12.32,23.76-5.57,31.14-19.84.58-1.13,1.33-2.17,2.21-3.09,5.91-6.2,15.79-6.09,21.86.38.37.4.71.82,1.02,1.27,5.24,7.58,3.18,19.31-1.72,27.97Z"/>
          <path class="cls-4" d="m119.15,194.99c-7.32.04-14.47-2.1-19.64-7.26-6.58-6.56-6.44-16.57,1.24-22.18,4.47-3.27,10.16-4.45,15.58-4.78,5.74-.35,8.68-5.15,11.82-9.25,6.08-7.67,14.74-8.97,21.39-4.18,4.17,3,6.46,7.9,6.66,13.03.43,11.22-6.4,22.41-15.67,28.37-5.94,3.82-13.75,6.22-21.38,6.26Z"/>
          <path class="cls-4" d="m159.45,101.49c.97,7.67-1.71,15.22-10.69,17.92-10.94,3.29-16.04-7.66-24.93-11.2-4.03-1.61-7.85-.46-12.03-.5-3.73-.04-9.38-1.64-11.5-5.07-12.06-19.43,9.78-30.94,26.94-29.35,11.39,1.06,22.22,7.12,28.23,16.99,2.04,3.35,3.49,7.31,3.98,11.22Z"/>
          <path class="cls-4" d="m66.97,196.04c31.26-8.82,9.11-59.12-22.35-60.18-28.42-.96-39.09,31.7-9.73,38.49,13.98,3.23,11.12,27.61,32.08,21.7Z"/>
          <path class="cls-4" d="m70.81,102.45c-1.63,2.88-3.57,5.43-5.67,7.36-8.54,7.9-22.14,11.4-33.51,9.34-7.49-1.36-14.26-5.75-16.17-13.48-.82-3.31-.62-6.83.83-9.92,5.76-12.32,23.76-5.57,31.14-19.84.58-1.13,1.33-2.17,2.21-3.09,5.91-6.2,15.79-6.09,21.86.38.37.4.71.82,1.02,1.27,5.24,7.58,3.18,19.31-1.72,27.97Z"/>
          <path class="cls-3" d="m127.35,158.29c-.49-.09-.99.13-1.25.56-2.57,4.29-6.16,6.87-10.96,7.88-.54.11-.93.58-.95,1.13-.02.55.34,1.04.86,1.2,1.77.52,3.54.67,5.18.47,2.07-.25,3.95-1.04,5.42-2.34,2.21-1.96,3.18-4.85,2.66-7.92-.08-.5-.47-.89-.96-.98Z"/>
          <path class="cls-2" d="m113.09,69.4c-7.8,1.76-15.73,1.62-21.95-1.54-7.92-4.03-9.14-12.56-1.71-19.15,4.32-3.83,10.23-6.18,15.97-7.74,6.07-1.65,8.55-6.42,11.35-10.65,5.44-7.95,14.5-11.1,22.25-8.6,4.86,1.57,7.98,5.19,8.89,9.51,2,9.44-3.76,20.56-12.84,27.81-5.81,4.64-13.82,8.53-21.96,10.36Z"/>
          <path class="cls-4" d="m113.09,69.4c-7.8,1.76-15.73,1.62-21.95-1.54-7.92-4.03-9.14-12.56-1.71-19.15,4.32-3.83,10.23-6.18,15.97-7.74,6.07-1.65,8.55-6.42,11.35-10.65,5.44-7.95,14.5-11.1,22.25-8.6,4.86,1.57,7.98,5.19,8.89,9.51,2,9.44-3.76,20.56-12.84,27.81-5.81,4.64-13.82,8.53-21.96,10.36Z"/>
          <path class="cls-3" d="m119.25,36.69c-.49-.11-1,.1-1.27.53-2.68,4.22-6.34,6.71-11.16,7.59-.54.1-.95.55-.98,1.1-.04.55.31,1.05.83,1.22,1.76.56,3.52.76,5.17.61,2.08-.19,3.98-.94,5.48-2.2,2.26-1.9,3.3-4.76,2.87-7.85-.07-.5-.44-.9-.94-1.01Z"/>
          <path class="cls-3" d="m131.24,105.25c-1.66-3.76-4.49-6.32-7.77-7.03-3.09-.67-6.31.31-9.07,2.76-.38.33-.5.86-.32,1.33.01.03.02.05.03.08.23.48.74.76,1.27.68,3.08-.46,5.36-.41,7.64.18,1.1.28,2.09.95,3.14,1.66,1.08.73,2.19,1.48,3.59,1.97.45.16.95.03,1.28-.32.32-.35.41-.87.22-1.3Z"/>
          <path class="cls-3" d="m51.36,79.32c-.48-.05-.94.18-1.18.59-2.46,4.25-5.99,6.81-10.78,7.82-.52.11-.9.55-.95,1.07-.05.53.26,1.02.75,1.22,3.9,1.55,7.48.9,10.63-1.92.95-.85,1.67-1.75,2.15-2.69.83-1.63.97-3.39.39-5.26-.14-.46-.54-.79-1.01-.84Z"/>
          <g>
            <path class="cls-2" d="m91.77,115.48c11.04,7.23,24.58-7.24,34.18,2.81,1.7,1.78,2.87,3.99,3.57,6.34,6.03,20.24-25.1,34.69-42.79,26.48-.35-.16-.7-.32-1.06-.45-30.81-11.79-24.76-48.59,3.69-36.48.84.36,1.65.8,2.41,1.31Z"/>
            <path class="cls-4" d="m91.77,115.48c11.04,7.23,24.58-7.24,34.18,2.81,1.7,1.78,2.87,3.99,3.57,6.34,6.03,20.24-25.1,34.69-42.79,26.48-.35-.16-.7-.32-1.06-.45-30.81-11.79-24.76-48.59,3.69-36.48.84.36,1.65.8,2.41,1.31Z"/>
            <path class="cls-3" d="m103.29,124.74c.3-.37.36-.88.15-1.3-.21-.43-.66-.69-1.13-.66-5.09.25-9.07-1.34-12.16-4.84-.36-.41-.94-.52-1.43-.28-.1.05-.19.11-.27.18-.31.28-.46.7-.38,1.12.81,4.3,3.36,7.03,7.58,8.12,3.29.85,5.58.15,7.64-2.33Z"/>
          </g>
          <path class="cls-3" d="m51.64,176.27c0-.09-.02-.19-.02-.28-.27-4.71-4.29-9.24-8.96-10.11-1.78-.37-3.59-.18-5.39.57l-.1.04c-.4.17-1.48.6-1.69,1.68-.05.25-.05.53.02.85.28,1.41,1.68,1.65,2.14,1.73,4.26.72,7.41,2.9,9.63,6.68l.07.12c.3.53,1.22,2.12,2.95,1.49,1.56-.58,1.4-2.16,1.34-2.76Z"/>
          <path class="cls-2" d="m87.58,36.92c3.49-29.41-46.61-28.31-58.49-2.19-10.73,23.6,13.04,43.99,29.02,21.63,7.6-10.65,27.13.28,29.47-19.44Z"/>
          <path class="cls-4" d="m87.58,36.92c3.49-29.41-46.61-28.31-58.49-2.19-10.73,23.6,13.04,43.99,29.02,21.63,7.6-10.65,27.13.28,29.47-19.44Z"/>
          <path class="cls-3" d="m65.58,42.92c-.08-.03-.16-.05-.24-.08-4.06-1.41-9.28.39-11.64,4.01-.93,1.37-1.4,2.96-1.4,4.74v.09c0,.4,0,1.46.83,2.01.19.13.43.22.72.28,1.29.26,1.98-.84,2.2-1.2,2.09-3.33,5.03-5.22,8.99-5.78l.13-.02c.55-.07,2.22-.29,2.28-1.97.06-1.52-1.33-1.94-1.86-2.1Z"/>
        </g>
      </g>
    </g>
  </g>
</svg>