<?xml version="1.0" encoding="UTF-8"?>
<svg xmlns="http://www.w3.org/2000/svg" viewBox="0 0 171.83 222.52">
  <defs>
    <style>
      .cls-1 {
        fill: #008d4a;
      }

      .cls-1, .cls-2, .cls-3, .cls-4, .cls-5 {
        stroke-width: 0px;
      }

      .cls-6 {
        isolation: isolate;
      }

      .cls-2 {
        fill: #eab520;
        mix-blend-mode: hard-light;
        opacity: .4;
      }

      .cls-3 {
        fill: #fff;
      }

      .cls-4 {
        fill: #fcf4dd;
      }

      .cls-5 {
        fill: #d1c4ba;
      }
    </style>
  </defs>
  <g class="cls-6">
    <g id="Layer_2" data-name="Layer 2">
      <g id="Blancos">
        <path class="cls-3" d="m170.59,34.91c-3.55-10.44-14.63-17.46-27.58-17.46-6.59,0-12.71,1.94-17.23,5.47-5.08,3.96-7.39,9.26-8.63,12.11-5.02,11.51-9.71,24.78-14.24,37.61-.51,1.44-1.01,2.87-1.51,4.28-.35-2.62-.68-5.34-1.01-8.16-1.01-8.67-1.85-17.58-2.67-26.21-.46-4.84-.92-9.68-1.41-14.52l-.08-.88c-.51-5.44-1.87-19.88-15.17-24.93-3.81-1.45-7.98-2.22-12.05-2.22-4.87,0-9.25,1.09-13.01,3.24-1.17.67-2.26,1.43-3.25,2.28-.49-.07-.98-.12-1.49-.14-.85-.04-1.7-.05-2.55-.05-1.14,0-2.29.03-3.4.1-.9.05-1.8.13-2.65.21-.23.02-.82.09-.82.09-.66.08-1.32.16-1.97.26,0,0-.58.09-.77.12-.89.14-1.77.3-2.65.48-.88.18-1.75.39-2.6.61-.23.06-.77.2-.77.2-.64.17-1.27.35-1.98.57l-.69.21c-.86.27-1.71.56-2.54.87-1.44.53-5.84,2.16-9,6.71-3.43,4.95-3.15,10.12-3.06,11.83.54,9.93,1.6,19.8,2.61,29.34.99,9.24,1.92,17.98,2.43,26.79.21,3.66.43,17.06.23,20.68-.09,1.06-.76,3.62-1.39,5.3-.16.22-.3.41-.45.6-2.28,2.96-4.38,5.96-6.25,8.91-6,9.5-9.97,19.19-11.82,28.79-3.14,16.39.07,32.85,8.81,45.17,2.92,4.12,6.1,7.17,9.71,9.34,4.02,2.42,8.03,3.39,10.95,4.11.5.12,1,.24,1.5.38,4.52,1.19,9.36,3.52,14.49,5.98,9.31,4.47,19.86,9.53,32.27,9.53,1.29,0,2.59-.06,3.87-.17,12.45-1.08,22.52-7.31,29.92-12.61,4.37-3.14,10-7.5,14.72-13.41,7.51-9.41,11.91-21.96,12.38-35.35.11-3.21.02-6.21-.08-9.11-.09-2.79-.18-5.42-.05-7.81.15-2.74.61-5.6,1.36-8.51.31-1.19.7-2.49,1.27-4.19.09-.26.23-.68,1.44-4.77,1.59-4.17,3.14-7.96,4.64-11.63,2.92-7.13,5.93-14.5,9.28-24.68,2.89-8.78,5.91-18.09,8.98-27.68.23-.71.66-1.82,1.12-2.99,2.4-6.11,6.02-15.35,2.84-24.71Z"/>
      </g>
      <g id="Productos">
        <g>
          <path class="cls-1" d="m156.38,39.73c-2.51-7.38-15.77-9.37-21.39-4.99-1.99,1.55-3.1,3.96-4.11,6.27-8.68,19.92-16.54,45.9-24.72,66.02-3.51,8.62-5.01,12.3-8.21,15.94.06,0,.12,0,.18,0,.18-.02,3.43-3.21,3.52-2.86,1.01,3.67,2.19,7.59,5.18,9.93,3,2.34,7.25,2.52,10.89,1.4,1.9-.58,3.73-1.4,5.37-2.5,2.55-1.72,5.16-5.3,6.41-7.16,0,0,0,0,0,0,4.83-12.72,8.94-21.11,13.89-36.19,3.02-9.18,6-18.37,8.94-27.57,1.61-5.04,5.89-12.87,4.04-18.3Z"/>
          <path class="cls-1" d="m36.92,113.85c.24.2.6-.02.81-.26.66-.79.92-1.83,1.33-2.78.4-.95,1.06-1.91,2.06-2.14.34,1.77.88,3.5,1.59,5.15.26.6.55,1.2,1.01,1.65.51.5,1.2.79,1.89.97,4.35,1.15,9.51-1.68,11.89-5.27,1.69-2.54,2.34-5.74,1.79-8.74.04.08.08.15.13.23-1.98-21.73-4.15-43.2-6.03-65.07-.37-4.33-.75-8.68-1.65-12.92-.55-2.61-2.93-4.42-5.59-4.27-4.46.26-8.88,1.17-13.07,2.72-.7.26-1.44.57-1.87,1.19-.48.7-.46,1.61-.41,2.46,1.02,18.75,3.96,37.39,5.04,56.08.24,4.04.47,17.98.24,22.4-.16,3.05-1.67,8.6-3.2,11.79,1.32-1.95,2.5-3.95,3.72-6.04.4.88.52,1.89.34,2.84Z"/>
          <path class="cls-1" d="m74.11,117.49c4.86.61,8.9,3.87,12.67,7-1.29-1.07-.99-4.36-.86-5.81,0,0,2.32.99,4.38.22,2.56-.96,2.47-3.14,3.22-2.79,0,0,.01.03.03.08-.45-1.51-.8-3.13-1.26-5.06-3.19-13.38-5.23-27-6.82-40.65-1.59-13.63-2.72-27.3-4.1-40.95-.44-4.31-.73-11.43-5.66-13.3-3.74-1.42-8.97-1.87-12.27.02-1.45.83-2.53,2.12-2.94,3.98-1.83,8.36.21,17.97.68,26.4.64,11.21,2.38,22.31,3.99,33.41,1.44,10.02,3,20.13,3.78,30.23.16,2.04.13,4.15.38,6.17.17.11.34.21.52.29,1.3.63,2.82.58,4.25.76Z"/>
          <path class="cls-4" d="m123.1,128.94c-1.64,1.11-3.48,1.92-5.37,2.5-3.64,1.12-7.89.94-10.89-1.4-3-2.34-4.17-6.26-5.18-9.93-.1-.35-3.34,2.84-3.52,2.86-.06,0-.12,0-.18,0-.61,0-1.15-.39-1.61-.94-.28-.33-.53-.73-.75-1.14-.97-1.58-1.57-3.08-2.05-4.7-.02-.05-.03-.08-.03-.08-.75-.35-.66,1.83-3.22,2.79-2.06.77-4.38-.22-4.38-.22-.13,1.45-.43,4.74.86,5.81-3.76-3.13-7.81-6.39-12.67-7-1.44-.18-2.95-.13-4.25-.76-.18-.09-.36-.19-.52-.29-1.18-.77-2.01-2.02-2.83-3.2-2.44-3.55-5.09-6.78-7.1-10.58-.04-.08-.09-.15-.13-.23.55,3-.11,6.2-1.79,8.74-2.38,3.59-7.54,6.43-11.89,5.27-.69-.18-1.38-.47-1.89-.97-.46-.46-.75-1.06-1.01-1.65-.71-1.65-1.24-3.38-1.59-5.15-1,.23-1.66,1.19-2.06,2.14-.4.95-.66,1.99-1.33,2.78-.2.24-.57.46-.81.26.19-.95.07-1.96-.34-2.84-1.22,2.08-2.39,4.08-3.72,6.04-.55.81-1.12,1.62-1.74,2.42-1.93,2.5-3.76,5.09-5.45,7.77-4.6,7.28-8.15,15.19-9.77,23.61-2.21,11.52-.48,24.09,6.31,33.66,1.42,2.01,3.09,3.9,5.2,5.17,2.59,1.55,5.64,2.07,8.55,2.84,15.59,4.12,29.44,16.3,45.5,14.9,8.25-.72,15.74-5.03,22.47-9.85,4.29-3.08,8.44-6.45,11.74-10.58,5.93-7.43,8.78-17.02,9.12-26.53.2-5.73-.43-11.47-.12-17.2.21-3.87.85-7.72,1.82-11.47.45-1.73.98-3.45,1.55-5.15.17-.51,1.42-4.73,1.45-4.84,0,0,0,0,0,0-1.25,1.86-3.86,5.45-6.41,7.16Z"/>
          <path class="cls-5" d="m34.42,124.5c-8.81,17.5-13.5,38.82-5.68,57.51-1.11-2.24-2.1-4.55-2.82-6.95-5.03-16.98-.38-35.66,8.5-50.55h0Z"/>
          <path class="cls-5" d="m45.11,123.44c-8.35,15.76-7.71,36.3-4.14,53.34.47,2.69,2.28,9.57,3,12.27-1.3-3.84-2.75-8.14-3.64-12.13-4.19-16.85-4.68-38.31,4.78-53.48h0Z"/>
          <path class="cls-5" d="m56.36,124.5c2.6,17.44,5.62,52.15-4.13,67.05,8.46-15.05,5.44-49.46,4.13-67.05h0Z"/>
          <path class="cls-5" d="m65.13,195.42c9.33-12.95,10.47-29.9,8.38-45.26-.36-1.8-1.08-6-1.46-7.73-.45-1.63-1.59-5.92-2.04-7.61-2.06-6.71-4.72-13.2-7.47-19.66,3.13,6.3,5.98,12.75,8.2,19.43.49,1.72,1.71,5.98,2.17,7.63.4,1.72,1.17,6,1.54,7.79,2.19,15.45.8,32.84-9.33,45.4h0Z"/>
          <path class="cls-5" d="m77.78,126.52c9.78,16.26,13.77,36.75,8.34,55.17-1.8,6.13-4.69,11.9-8.34,17.09,1.6-2.74,3.2-5.47,4.42-8.4,9.27-20.37,5.78-44.5-4.42-63.86h0Z"/>
          <path class="cls-5" d="m86.78,124.5c6.44,10.9,8.77,24.18,7.14,36.68-.11.84-.24,1.67-.37,2.5.87-13.36-1.17-26.97-6.77-39.18h0Z"/>
          <path class="cls-5" d="m102.29,138.27c6.14,20.68,2.21,45.56-14.16,60.54,1.8-2.03,3.59-4.06,5.1-6.3,11.12-15.49,13.06-35.96,9.05-54.23h0Z"/>
          <path class="cls-5" d="m103.11,191.55c10.31-13.7,10.38-32.11,8.44-48.44-.21-2.43.14-4.99,1.45-7.04-1.1,2.16-1.32,4.65-.96,6.98,2.72,16.27,2.46,35.43-8.93,48.5h0Z"/>
          <path class="cls-5" d="m113,185.61c8.32-10.27,8.65-24.68,6.23-37.11-.34-2.1-1.02-4.3-.73-6.54.27-2.2,1.17-4.35,2.72-5.9-1.38,1.69-2.13,3.81-2.23,5.94-.18,2.14.54,4.19.99,6.34,1.03,4.25,1.49,8.64,1.54,13.03-.08,8.63-2.26,17.96-8.52,24.24h0Z"/>
          <path class="cls-2" d="m156.38,39.73c-2.51-7.38-15.77-9.37-21.39-4.99-1.99,1.55-3.1,3.96-4.11,6.27-8.68,19.92-16.54,45.9-24.72,66.02-3.51,8.62-5.01,12.3-8.21,15.94.06,0,.12,0,.18,0,.18-.02,3.43-3.21,3.52-2.86,1.01,3.67,2.19,7.59,5.18,9.93,3,2.34,7.25,2.52,10.89,1.4,1.9-.58,3.73-1.4,5.37-2.5,2.55-1.72,5.16-5.3,6.41-7.16,0,0,0,0,0,0,4.83-12.72,8.94-21.11,13.89-36.19,3.02-9.18,6-18.37,8.94-27.57,1.61-5.04,5.89-12.87,4.04-18.3Z"/>
          <path class="cls-2" d="m36.92,113.85c.24.2.6-.02.81-.26.66-.79.92-1.83,1.33-2.78.4-.95,1.06-1.91,2.06-2.14.34,1.77.88,3.5,1.59,5.15.26.6.55,1.2,1.01,1.65.51.5,1.2.79,1.89.97,4.35,1.15,9.51-1.68,11.89-5.27,1.69-2.54,2.34-5.74,1.79-8.74.04.08.08.15.13.23-1.98-21.73-4.15-43.2-6.03-65.07-.37-4.33-.75-8.68-1.65-12.92-.55-2.61-2.93-4.42-5.59-4.27-4.46.26-8.88,1.17-13.07,2.72-.7.26-1.44.57-1.87,1.19-.48.7-.46,1.61-.41,2.46,1.02,18.75,3.96,37.39,5.04,56.08.24,4.04.47,17.98.24,22.4-.16,3.05-1.67,8.6-3.2,11.79,1.32-1.95,2.5-3.95,3.72-6.04.4.88.52,1.89.34,2.84Z"/>
          <path class="cls-2" d="m74.11,117.49c4.86.61,8.9,3.87,12.67,7-1.29-1.07-.99-4.36-.86-5.81,0,0,2.32.99,4.38.22,2.56-.96,2.47-3.14,3.22-2.79,0,0,.01.03.03.08-.45-1.51-.8-3.13-1.26-5.06-3.19-13.38-5.23-27-6.82-40.65-1.59-13.63-2.72-27.3-4.1-40.95-.44-4.31-.73-11.43-5.66-13.3-3.74-1.42-8.97-1.87-12.27.02-1.45.83-2.53,2.12-2.94,3.98-1.83,8.36.21,17.97.68,26.4.64,11.21,2.38,22.31,3.99,33.41,1.44,10.02,3,20.13,3.78,30.23.16,2.04.13,4.15.38,6.17.17.11.34.21.52.29,1.3.63,2.82.58,4.25.76Z"/>
        </g>
      </g>
    </g>
  </g>
</svg>