<?xml version="1.0" encoding="UTF-8"?>
<svg xmlns="http://www.w3.org/2000/svg" viewBox="0 0 151.93 224.93">
  <defs>
    <style>
      .cls-1, .cls-2, .cls-3, .cls-4 {
        stroke-width: 0px;
      }

      .cls-1, .cls-3 {
        fill: #e6ba9a;
      }

      .cls-1, .cls-5 {
        mix-blend-mode: multiply;
      }

      .cls-6 {
        isolation: isolate;
      }

      .cls-2 {
        fill: #fff;
      }

      .cls-4 {
        fill: #cd7534;
      }
    </style>
  </defs>
  <g class="cls-6">
    <g id="Layer_2" data-name="Layer 2">
      <g id="Blancos">
        <path class="cls-2" d="m151.58,195.35c-.61-3.92-1.88-7.16-2.91-9.77-.27-.67-.53-1.35-.77-2.03-2.15-6.03-2.35-13.51-2.56-21.43-.27-9.98-.57-21.28-4.92-32.32-1.35-3.42-2.93-6.5-4.47-9.48-1.9-3.69-4.5-8.74-4.08-10.63.17-.76,1.07-2.52,1.8-3.93,2.02-3.93,4.78-9.32,5-16.19.24-7.22-2.42-12.99-4.36-17.21-.69-1.51-1.55-3.38-1.7-4.19-.13-.72-.16-2.23-.18-3.57-.11-5.62-.33-16.08-9.34-23.1-3.92-3.05-8.71-4.66-13.85-4.66-3.63,0-7.32.85-10.67,2.4-3.49-7.41-10.74-12.58-18.6-13.21-.42-3.31-1.06-7.61-3.1-11.94C72.92,5.62,65.09.22,56.39,0h-.45c-5.1,0-9.04,1.77-11.4,2.83-5.31,2.39-13.02,5.87-18.76,12.72-1.04-.12-2.18-.21-3.39-.21-2.67,0-5.23.43-7.6,1.28C4.47,20.32-1.25,31.07.23,44.04c1.28,11.02,6.16,21.55,13.76,29.65,5.87,6.26,12.81,10.56,18.94,14.35,1.76,1.09,3.45,2.13,5.03,3.17-.23.15-.44.3-.64.44-1.5,0-3.44.05-5.66.46-11.66,2.16-20.38,12.7-20.73,25.03-.28,9.17,3.92,18.17,11.5,24.67,6.33,5.45,13.68,8.05,18.67,9.54.52.15,1.04.3,1.56.45,1.33.38,3.34.96,3.93,1.33.58.38,2,1.97,2.93,3.02,3.15,3.54,7.46,8.39,14.48,10.92,2.44.88,4.74,1.3,6.59,1.58.27.57.58,1.17.93,1.79,1.82,3.23,4.05,5.58,5.68,7.3.25.27.5.53.74.79,2.88,3.13,5.24,6.96,6.82,11.1.42,1.1.88,3.41,1.28,5.44.89,4.53,2,10.17,4.82,15.41.04.07.07.14.11.2,1.65,3.01,3.71,5.61,6.16,7.74,7.49,6.49,16.78,6.49,19.84,6.49.33,0,1.07,0,1.07,0,6.75-.1,18.05-.26,26.05-7.16,4.17-3.63,6.88-8.86,7.63-14.73.02-.18.04-.37.06-.56.25-2.36.18-4.78-.2-7.12Z"/>
      </g>
      <g id="Productos">
        <g>
          <path class="cls-4" d="m136.76,197.65c-.49-3.15-1.92-6.06-2.99-9.06-6.05-16.97-.7-36.53-7.31-53.29-3.78-9.6-11.48-18.83-9.22-28.89,1.36-6.05,6.24-11.12,6.44-17.32.21-6.45-4.72-11.96-5.84-18.32-1.06-6.05.9-13.63-3.95-17.41-3.23-2.51-8.17-1.66-11.32.95-3.16,2.61-4.88,6.55-6.17,10.43-1.98,5.95-3.23,12.42-1.54,18.45.63,2.22,1.65,4.39,1.6,6.7s-1.69,4.83-4,4.76c-1.61-.05-2.91-1.3-3.89-2.58-2.95-3.86-4.56-8.74-4.48-13.6.06-3.11.78-6.23.36-9.32-.28-2.07-1.07-4.07-1.07-6.16s.74-3.97,1.35-5.91c1.1-3.46,1.8-7.27.58-10.69-1.21-3.43-4.92-6.19-8.42-5.22-4.41,1.21-5.63,6.78-6.05,11.33-2.68-7.37-4.53-15.04-5.53-22.82-.4-3.14-.68-6.37-2.03-9.24-1.34-2.87-4.03-5.36-7.2-5.44-1.88-.04-3.66.74-5.37,1.51-5.48,2.47-11.25,5.18-14.56,10.19-.79,1.2-1.45,2.55-2.6,3.43-3.71,2.85-9.28-.97-13.69.61-4.24,1.52-5.24,7.09-4.73,11.57.91,7.84,4.4,15.36,9.8,21.12,10.13,10.8,26.27,15.15,34.65,27.36,7.03,10.25,7.13,24.1,14.23,34.31-5.01-.84-8.93-4.73-11.93-8.82-3-4.1-5.51-8.66-9.38-11.94-1-.84-2.16-1.62-3.46-1.64-2.29-.03-3.9,2.18-5.96,3.17-2.64,1.28-5.8.46-8.69.99-4.85.9-8.33,5.81-8.47,10.74-.15,4.93,2.55,9.64,6.29,12.85,3.74,3.22,8.42,5.12,13.15,6.53,3.17.94,6.46,1.71,9.26,3.49,5.43,3.44,8.43,10.32,14.48,12.5,3.99,1.44,8.96.69,11.96,3.67,1.75,1.73,2.31,4.29,3.53,6.43,1.13,2,2.83,3.61,4.39,5.3,4.25,4.61,7.57,10.06,9.8,15.91,2.1,5.49,2.28,13.56,5.34,19.19t.01.02c.75,1.37,1.67,2.6,2.83,3.61,2.94,2.55,7.04,2.88,10.76,2.82,4.81-.07,12.67-.16,16.52-3.48,1.54-1.34,2.34-3.27,2.6-5.31v-.04c.14-1.14.1-2.32-.08-3.44Z"/>
          <g class="cls-5">
            <path class="cls-3" d="m20.88,47.45c6.81-5.78,15.36,2.06,22.92.07,7.89-1.53,13.22-8.42,16.67-15.29-.71,1.85-1.58,3.65-2.57,5.38-3.02,5.21-7.83,9.64-13.9,10.89-7.8,2.05-15.84-6.05-23.11-1.05h0Z"/>
          </g>
          <g class="cls-5">
            <path class="cls-3" d="m38.35,31.19c6.9,2.32,13.37-2.18,17.47-7.52-2.77,6.23-10.92,11.41-17.47,7.52h0Z"/>
          </g>
          <g class="cls-5">
            <path class="cls-3" d="m34.92,65.87c3.93-1.83,8.04-3.53,12.4-4.03,2.89-.35,5.81.1,8.67-.03,2.82-.14,5.61-.94,8.05-2.37,1.26-.68,2.39-1.56,3.47-2.53-.92,1.12-2.01,2.1-3.21,2.94-3.64,2.61-8.26,3.24-12.63,2.88-5.8-.47-11.29,1.4-16.75,3.13h0Z"/>
          </g>
          <g class="cls-5">
            <path class="cls-3" d="m74.59,49.33c2.51.93,4.66,1.65,7.22,2.41-2.58.67-5.56-.33-7.22-2.41h0Z"/>
          </g>
          <g class="cls-5">
            <path class="cls-3" d="m54.6,79.64c-.04-1.33,1.25-2.22,2.04-3.14,5.6-5.44,13.82-7.21,21.4-6.49,1.26.14,2.52.29,3.77.55-1.27-.03-2.53-.09-3.79-.06-7.43-.02-15.18,1.6-21.06,6.37-.87.81-2.18,1.51-2.36,2.78h0Z"/>
          </g>
          <g class="cls-5">
            <path class="cls-3" d="m64.53,93.45c6.45-.17,12.52-1.76,18.23-4.75-4.89,4.19-11.92,6.01-18.23,4.75h0Z"/>
          </g>
          <g class="cls-5">
            <path class="cls-3" d="m120.49,94.03c-1.81-1.58-4.4-1.76-6.59-1.11-4.62,1.37-7.28,5.72-11.1,8.44-1.95,1.46-4.35,2.47-6.83,2.44-4.87-.09-9.05-2.86-13.76-3.39-4.59-.55-9.4.67-13.27,3.38,1.81-1.53,3.96-2.65,6.23-3.38,2.29-.7,4.71-.96,7.12-.76,4.86.39,9.1,3.16,13.69,3.16,4.84.14,8.21-3.81,11.61-6.78,3.26-3.11,9.13-5.7,12.9-1.99h0Z"/>
          </g>
          <g class="cls-5">
            <path class="cls-3" d="m97.07,83.1c3.09-2.07,5.24-5.08,8.3-7.37,2.85-2.28,7.63-3.52,10.55-.73-7.67-4.04-12.58,5.57-18.85,8.1h0Z"/>
          </g>
          <g class="cls-5">
            <path class="cls-3" d="m101.02,60.42c4.41-2.28,10.33-2.7,13.36,1.95-1.9-1.51-4.07-2.44-6.34-2.65-2.33-.23-4.66.51-7.02.69h0Z"/>
          </g>
          <g class="cls-5">
            <path class="cls-3" d="m29.7,123.32c-.58-3.02,3.88-6.43,6.54-7.02,3.21-.59,6.72.06,9.04-2.66,1.54-1.51,2.74-3.42,4.26-5.06-1.19,1.9-2.21,3.87-3.7,5.58-.74.86-1.65,1.65-2.76,2.12-2.11.83-4.5.54-6.65.94-2.49.51-6.77,3.27-6.74,6.1h0Z"/>
          </g>
          <g class="cls-5">
            <path class="cls-3" d="m48.98,135.67c-1.15-5.43,2.21-11.01,7.64-12.56,1.67-.58,3.4-.89,5.13-1.13-1.64.61-3.28,1.17-4.85,1.85-4.94,1.84-7.88,6.63-7.92,11.83h0Z"/>
          </g>
          <g class="cls-5">
            <path class="cls-3" d="m65.44,147.73c.22-5.56,2.45-13.35,9.35-13.06,1.49.1,2.93.39,4.13-.13.6-.26,1-.68,1.27-1.31,2.97-8.6,11.01-4.85,17.58-4.09,2.86.39,5.69.05,8.28-1.29,1.31-.62,2.62-1.33,4.07-1.75,4.3-1.27,9.33.55,11.78,4.26-2.68-3.45-7.47-4.97-11.6-3.65-2.75.92-5.15,2.96-8.15,3.31-4.43.67-8.83-.94-13.13-1.28-4.16-.57-6.54,1-8.03,4.88-.59,1.57-2.52,2.23-4.07,2.07-8.03-1.8-10.67,5.47-11.49,12.06h0Z"/>
          </g>
          <g class="cls-5">
            <path class="cls-3" d="m78.93,119.57c3.6-3.96,9.64-3.48,14.52-3.32,5.02.2,10.08,2.08,14.96.2-1.09.66-2.34,1.05-3.61,1.28-6.32.64-12.62-1.16-18.93-.58-2.48.17-4.99.78-6.94,2.43h0Z"/>
          </g>
          <g class="cls-5">
            <path class="cls-3" d="m84.45,153.14c2.95-5,8.77-8.25,14.61-8.21,3.88,0,7.59,1.28,11.38,1.69,3.87.57,7.39-1.06,11.15-1.71,1.91-.25,3.99-.15,5.63.89-1.75-.83-3.72-.8-5.55-.41-3.69.86-7.39,2.71-11.32,2.13-3.83-.31-7.5-1.59-11.31-1.69-5.67-.08-11.22,2.74-14.6,7.3h0Z"/>
          </g>
          <g class="cls-5">
            <path class="cls-3" d="m96.56,171.7c6.37-6.37,16.82-7.88,24.85-3.9,0,0,3.97,1.88,3.97,1.88,1.31.63,2.67,1.17,4.07,1.59-1.46-.2-2.87-.66-4.26-1.14-2.72-1.03-5.37-2.29-8.2-2.95-7.06-1.63-14.68.11-20.44,4.52h0Z"/>
          </g>
          <g class="cls-5">
            <path class="cls-3" d="m103.32,189.75c-.16-.29-.02-.65.18-.89.65-.68,1.5-1.12,2.28-1.64,7.55-4.4,17.63-4.32,24.93.57,0,0-1.7-.73-1.7-.73-7.34-2.9-15.84-2.75-23,.59-.8.39-1.7.74-2.39,1.31-.21.19-.39.48-.29.79h0Z"/>
          </g>
          <path class="cls-1" d="m136.84,201.09v.04c-.26,2.04-1.06,3.97-2.6,5.31-3.85,3.32-11.71,3.41-16.52,3.48-3.72.06-7.82-.27-10.76-2.82-1.16-1.01-2.08-2.24-2.83-3.61t-.01-.02c-.34-.9.69-2.15,1.48-2.69,5.44-3.67,12.32-5.15,18.79-4.05,2.22.38,4.41,1.05,6.66.99,1.32-.04,2.67-.32,3.93.07,1.25.39,2.01,1.54,1.86,3.3Z"/>
        </g>
      </g>
    </g>
  </g>
</svg>