<?xml version="1.0" encoding="UTF-8"?>
<svg id="Layer_2" data-name="Layer 2" xmlns="http://www.w3.org/2000/svg" viewBox="0 0 212.71 218.86">
  <defs>
    <style>
      .cls-1 {
        fill: #f1cc67;
      }

      .cls-1, .cls-2, .cls-3, .cls-4, .cls-5, .cls-6, .cls-7 {
        stroke-width: 0px;
      }

      .cls-2 {
        fill: #ecc9b0;
      }

      .cls-3 {
        fill: #fff;
      }

      .cls-4 {
        fill: #f9e8b9;
      }

      .cls-5 {
        fill: #d68c57;
      }

      .cls-6 {
        fill: #cd7534;
      }

      .cls-7 {
        fill: #e4b38f;
      }
    </style>
  </defs>
  <g id="Blancos">
    <path class="cls-3" d="m212.71,120.51c0-15.2-11.51-27.75-26.28-29.41,3.02-4.67,4.77-10.2,4.77-16.05,0-14.73-10.82-26.99-24.94-29.23,3.07-4.66,4.86-10.24,4.86-16.23,0-16.32-13.28-29.6-29.6-29.6-10.72,0-20.13,5.73-25.32,14.29-5.3-4.99-12.43-8.05-20.26-8.05-15.69,0-28.56,12.26-29.54,27.71-.65.54-1.26,1.12-1.86,1.71-2.64-.77-5.43-1.2-8.31-1.2-16.32,0-29.6,13.28-29.6,29.6,0,7.8,3.04,14.91,7.99,20.2-1.64-.28-3.31-.44-5.03-.44-16.32,0-29.6,13.28-29.6,29.6,0,12.87,8.26,23.84,19.75,27.91-.27,1.59-.41,3.22-.41,4.89,0,9.7,4.69,18.33,11.93,23.73-2.93,4.59-4.63,10.03-4.63,15.87,0,16.32,13.28,29.6,29.6,29.6,2.69,0,5.36-.37,7.92-1.09,4.62,2.91,10.05,4.53,15.77,4.53,15.52,0,28.28-12.01,29.5-27.23,3.51,1.47,7.35,2.29,11.39,2.29,4.4,0,8.57-.97,12.33-2.7,5.33,7.86,14.33,13.03,24.52,13.03,16.32,0,29.6-13.28,29.6-29.6,0-5.49-1.54-10.77-4.29-15.31,1.03-2.96,1.58-6.1,1.62-9.29,15.65-.76,28.14-13.73,28.14-29.56Z"/>
  </g>
  <g id="Productos">
    <g>
      <circle class="cls-5" cx="151.55" cy="95.96" r="14.6"/>
      <circle class="cls-5" cx="95.94" cy="70.91" r="14.6"/>
      <circle class="cls-7" cx="65.32" cy="100.1" r="14.6"/>
      <circle class="cls-6" cx="81.34" cy="87.62" r="14.6"/>
      <circle class="cls-4" cx="85.43" cy="110.56" r="14.6"/>
      <circle class="cls-5" cx="48.94" cy="146.22" r="14.6"/>
      <circle class="cls-1" cx="87.71" cy="131.63" r="14.6"/>
      <circle class="cls-7" cx="91.17" cy="152.13" r="14.6"/>
      <circle class="cls-6" cx="126.93" cy="141.51" r="14.6"/>
      <circle class="cls-5" cx="102.31" cy="137.54" r="14.6"/>
      <circle class="cls-1" cx="105.77" cy="98.83" r="14.6"/>
      <circle class="cls-2" cx="119.11" cy="120.23" r="14.6"/>
      <circle class="cls-6" cx="100.03" cy="117.03" r="14.6"/>
      <circle class="cls-6" cx="128.45" cy="66.03" r="14.6"/>
      <circle class="cls-4" cx="128.45" cy="93.26" r="14.6"/>
      <circle class="cls-2" cx="109.89" cy="78.66" r="14.6"/>
      <circle class="cls-1" cx="143.05" cy="114.7" r="14.6"/>
      <circle class="cls-4" cx="154.99" cy="149.73" r="14.6"/>
      <circle class="cls-5" cx="120.8" cy="164.33" r="14.6"/>
      <circle class="cls-2" cx="157.65" cy="174.66" r="14.6"/>
      <circle class="cls-5" cx="79.92" cy="189.26" r="14.6"/>
      <circle class="cls-2" cx="56.24" cy="185.82" r="14.6"/>
      <circle class="cls-2" cx="29.6" cy="113.43" r="14.6"/>
      <circle class="cls-4" cx="56.24" cy="64.06" r="14.6"/>
      <circle class="cls-7" cx="85.43" cy="56.63" r="14.6"/>
      <circle class="cls-1" cx="95.94" cy="35.84" r="14.6"/>
      <circle class="cls-5" cx="141.53" cy="29.6" r="14.6"/>
      <circle class="cls-2" cx="161.6" cy="75.05" r="14.6"/>
      <circle class="cls-7" cx="183.11" cy="120.51" r="14.6"/>
    </g>
  </g>
</svg>