<?xml version="1.0" encoding="UTF-8"?>
<svg xmlns="http://www.w3.org/2000/svg" viewBox="0 0 196.92 209.01">
  <defs>
    <style>
      .cls-1 {
        fill: #fefefe;
      }

      .cls-1, .cls-2, .cls-3, .cls-4, .cls-5 {
        stroke-width: 0px;
      }

      .cls-2 {
        fill: #008d4a;
      }

      .cls-6 {
        isolation: isolate;
      }

      .cls-3 {
        fill: #eab520;
        mix-blend-mode: darken;
        opacity: .71;
      }

      .cls-4 {
        fill: #fff;
      }

      .cls-5 {
        fill: #66bb93;
      }
    </style>
  </defs>
  <g class="cls-6">
    <g id="Layer_2" data-name="Layer 2">
      <g id="Blancos">
        <path class="cls-4" d="m196.62,118.87c-1.24-11.59-10.05-24.01-24.11-21.99-.82-.69-1.69-1.3-2.61-1.8,8.28-7.65,10.9-26.91.54-34.13-.67-2.13-1.82-4.18-3.32-5.91.62-2.12.86-4.38.64-6.57,3.02-4.93,5.24-10.77,4.48-16.52,6.27-10.4,2.09-25.55-10.45-28.14-6.55-5.56-16.87-4.8-23.29.7-5.2-.06-10.28,2.58-13.73,6.55-8.98-.22-13.89,7.07-17.99,13.74-5.4-6.91-14.2-9.03-21.03-5.7-17.15-2.8-21.5,14.4-21.84,27.75-.6-.17-1.21-.3-1.81-.39-9.79-19.58-46.49-9.14-42.36,13.24-2.84,3.89-3.77,8.96-2.55,13.63-14.8-.69-22.08,16.9-13.58,28.11-.22,5.19,2.53,9.88,5.56,13.96.26,9.93,3.22,19.42,11.93,25.32,5,16.81,25.26,13.19,38.79,16.24,1.33,3.57,2.63,7.26,3.81,10.88-1.72,9.21-5.03,18.42-4.2,27.65,2.75,17.41,29.77,18.34,33.37.74,2.95-8.07,2.37-18.82,6.98-25.91,7.1,7.75,18.34,16.94,29.55,12.04,9.36,2.97,17.93-.62,25.16-6.35,4.6-.14,9.44-1.19,12.91-4.1,13.1-.62,21.13-15.84,13.51-26.54,3.24-1.99,5.74-5.15,6.93-8.75,6.08-3.58,10.14-10.71,8.7-17.76Z"/>
      </g>
      <g id="Productos">
        <g>
          <path class="cls-5" d="m149.69,21.26c1.88-1.58,4.05-2.55,6.46-2.98.74-.13,1.49-.15,2.24.03,1.13.27,1.75,1.03,1.79,2.2.05,1.47-.45,2.79-1.07,4.08-1.18,2.45-2.7,4.7-4.09,7.02-.35.59-.7,1.18-1.1,1.86.43-.15.76-.28,1.11-.39.54-.17,1.09-.2,1.64-.07.49.11.7.41.71.91.03,1.46-.42,2.8-1.05,4.09-1.17,2.41-2.67,4.64-3.99,6.96-.83,1.46-1.77,2.85-2.75,4.33.5-.15.92-.3,1.34-.41,1.48-.38,2.2.33,1.8,1.81-.3,1.13-1.09,1.96-1.87,2.77-3.65,3.76-7.48,7.34-11.36,10.86-3.13,2.84-6.3,5.63-9.43,8.47-2.08,1.88-4.13,3.81-6.19,5.71-.2.18-.37.37-.45.63-.04.14-.07.31.05.42.16.14.27-.04.37-.12.82-.62,1.63-1.25,2.46-1.87,4.78-3.56,9.76-6.83,14.93-9.8,1.33-.76,2.58-1.66,4.04-2.19.42-.15.84-.28,1.28-.29,1.01-.03,1.73.73,1.63,1.74-.02.19-.07.38-.12.61,1.19-.75,2.36-1.48,3.52-2.22.78-.49,1.62-.86,2.54-.98.62-.08,1.27-.17,1.72.4.5.64.41,1.36.08,2.04-.58,1.19-1.5,2.13-2.42,3.06-.79.8-1.64,1.54-2.47,2.3,0,0,0,.01,0,.01v-.02c2.44-.1,4.86-.45,7.3-.2.99.1,1.98.22,2.89.69,1.13.6,1.29,1.51.36,2.38-1.59,1.49-3.48,2.45-5.53,2.98,1.12.15,2.31.25,3.43.71.99.41,1.81,1,1.84,2.18.03.91-.38,1.71-.99,2.38-.87.96-2,1.5-3.18,1.97-2.33.91-4.76,1.51-7.2,2.03-.23.05-.49.04-.69.22,1.52.3,3.03.57,4.5,1.07.45.15.88.35,1.25.66.65.57.72,1.32.16,1.99-.36.44-.82.74-1.34.95-1.52.62-3.13.78-4.75.86-2.14.1-4.27-.14-6.4-.33-2.49-.22-4.99-.22-7.5-.06.06.19.2.19.31.22,1.09.3,2.19.55,3.22,1,.63.28,1.23.62,1.74,1.08.49.44.46.83-.1,1.18-.64.4-1.37.51-2.09.66-1.82.37-3.67.31-5.52.36-3.91.12-7.72.83-11.46,1.92-3.85,1.13-7.53,2.67-11.1,4.49-1.92.98-3.8,2.02-5.64,3.14-.07.04-.15.06-.22.09-.09-.01-.17,0-.2.1,0,0,0,0,0,0-.14-.06-.49.04-.36-.22.12-.23.08-.47.2-.68.59-1.05.99-2.18,1.41-3.3.19-.51.53-.92.68-1.45.13-.45.31-.96.69-1.25.5-.37.92-.83,1.44-1.18.74-.5,1.39-1.14,2.09-1.7.79-.63,1.51-1.38,2.42-1.85.65-.33,1.21-.79,1.79-1.21.69-.49,1.37-.99,2.1-1.41.98-.56,1.92-1.18,2.93-1.7.95-.49,1.8-1.18,2.77-1.67.56-.28,1.09-.67,1.66-.86.71-.25,1.3-.69,1.97-.98.74-.32,1.45-.69,2.18-1.04,1.06-.5,2.21-.8,3.24-1.39.23-.13.46-.23.71-.3.73-.21,1.43-.53,2.15-.78.8-.28,1.56-.68,2.38-.9.59-.16,1.16-.38,1.76-.53.85-.21,1.6-.72,2.5-.86.33-.05.64-.3.95-.45-.01-.05-.03-.1-.04-.16-.88.35-1.8.13-2.72.43-1.72.55-3.5.91-5.25,1.36-.26.07-.57-.08-.76.11-.33.33-.76.36-1.15.49-1.33.45-2.68.8-3.98,1.34-.96.41-1.96.73-2.94,1.1-.35.13-.63.47-.95.49-.73.03-1.26.49-1.88.74-.55.22-1.13.42-1.64.8-.53.39-1.23.57-1.84.87-.67.33-1.3.73-1.95,1.07-.81.43-1.64.85-2.35,1.41-.66.53-1.55.68-2.11,1.36-.02.02-.06.04-.09.04-.38.03-.65.28-.93.5-.54.42-1.09.83-1.63,1.24-.09.07-.19.19-.3.1-.16-.13.04-.22.09-.32.04-.09.11-.16.16-.24.47-.76.96-1.51,1.36-2.3.35-.69.6-1.47.98-2.13.78-1.34,1.6-2.67,2.44-3.98.49-.77.95-1.57,1.5-2.31.24-.32.45-.69.59-1.05.25-.64.63-1.2,1-1.74.66-.97,1.26-1.98,1.82-3.01.34-.63.71-1.25,1.02-1.9.28-.6.67-1.2,1.05-1.78.48-.72.93-1.47,1.35-2.23.38-.67.83-1.28,1.22-1.94.43-.72.92-1.4,1.36-2.12.35-.56.61-1.18,1.05-1.69.61-.68.98-1.53,1.56-2.24.41-.51.83-1.04,1.15-1.63.54-1.02,1.26-1.92,1.92-2.86.41-.58.86-1.15,1.21-1.77.34-.59.73-1.14,1.1-1.71.33-.52.74-.98,1.01-1.54.33-.69.84-1.28,1.19-1.97.27-.53.68-1.01.96-1.56.17-.35.35-.73.6-.99.64-.66.88-1.55,1.43-2.25.28-.36.59-.74.76-1.19.29-.78.74-1.48,1.21-2.14.62-.86,1.12-1.76,1.56-2.71.04-.08.14-.18.04-.26-.11-.1-.22,0-.31.06-.06.04-.08.13-.12.2-.47.86-1.2,1.53-1.75,2.34-.38.56-.79,1.11-1.16,1.67-.8,1.23-1.7,2.38-2.55,3.56-.42.58-.82,1.16-1.23,1.75-.69,1-1.45,1.94-2.07,2.98-.31.51-.72.96-1.07,1.44-1.07,1.43-2.07,2.91-3.1,4.37-.71,1-1.43,1.99-2.15,2.98-.56.77-1.13,1.54-1.68,2.32-.72,1.04-1.4,2.1-2.13,3.13-1.14,1.59-2.18,3.25-3.18,4.93-.96,1.61-1.91,3.23-2.85,4.85-.76,1.29-1.49,2.6-2.26,3.88-.65,1.1-1.26,2.22-1.94,3.3-.49.78-.88,1.61-1.4,2.37-.58.85-1.05,1.79-1.54,2.7-.31.58-.71,1.11-.97,1.72-.2.46-.48.88-.73,1.32-.05.09-.14.2-.27.17-.13-.03-.14-.16-.17-.27-.06-.19,0-.39-.02-.57-.21-1.43-.37-2.86-.59-4.29-.34-2.16-.76-4.31-1.34-6.42-.41-1.48-.74-2.99-1.23-4.45-.25-.75-.42-1.54-.69-2.26-.54-1.44-.96-2.91-1.55-4.33-.38-.91-.66-1.86-1.11-2.74-.55-1.1-1.01-2.24-1.53-3.35-.57-1.21-1.17-2.41-1.73-3.62-.46-1.01-1.07-1.95-1.56-2.96-.44-.9-.98-1.75-1.5-2.61-.19-.31-.45-.58-.68-.87.4,1.37,1.04,2.61,1.6,3.89.8,1.81,1.44,3.67,2.22,5.48.36.84.62,1.71.94,2.57.39,1.08.74,2.18,1.1,3.27.31.97.61,1.94.9,2.91.06.19.17.34.22.53.29,1.21.61,2.41.95,3.61.21.75.39,1.5.59,2.25.29,1.08.4,2.2.67,3.28.21.83.38,1.68.5,2.52.22,1.55.5,3.1.66,4.66.15,1.43.3,2.87.46,4.3.08.73.08,1.46.09,2.19.02,1.19.39,2.36-.35,3.54-.38.61-.57,1.4-.95,2.03-.61,1.01-.95,2.12-1.55,3.13-.5.84-.77,1.81-1.29,2.65-.37-1.02-.49-2.09-.66-3.15-.64-4.16-1.13-8.34-2.09-12.45-.85-3.63-1.88-7.19-3.2-10.68-1.3-3.43-2.86-6.73-4.74-9.87-1.59-2.66-3.28-5.26-5.35-7.58-.82-.92-1.78-1.73-2.47-2.78-.31-.48-.59-.98-.62-1.57-.05-1.24.87-2.06,2.11-1.86,1.25.2,2.26.9,3.28,1.57.13.09.23.24.42.23,0,.04,0,.1.06.03-.02,0-.05-.01-.07-.02-.31-.94-.77-1.82-1.25-2.68-1.42-2.55-3.19-4.85-5.04-7.09-.65-.79-1.25-1.63-1.73-2.55-.07-.14-.15-.29-.21-.44-.37-.98.03-1.6,1.09-1.67,1-.06,1.9.25,2.73.77.11.07.21.14.45.3-.23-.52-.4-.92-.59-1.3-.86-1.8-1.72-3.6-2.17-5.55-.27-1.14-.34-2.31.06-3.43.51-1.41,1.62-1.93,3.04-1.47,1.42.46,2.62,1.3,3.76,2.24.85.7,1.58,1.51,2.26,2.37.66.85,1.19,1.79,1.75,2.86.1-.97,0-1.81-.09-2.65-.14-1.51-.31-3.02-.05-4.54.32-1.79,1.4-2.22,2.84-1.1.83.65,1.39,1.49,1.83,2.48.73,1.64,1.38,3.3,2.07,4.96.65,1.55,1.17,3.15,1.53,4.78h.04s-.02-.03-.02-.04c.12-.97.15-1.95.67-2.83.51-.86,1.34-1.05,2.15-.46,1.03.77,1.5,1.86,1.81,3.05.25,1,.39,2.02.46,3.05.12,1.71.45,3.4.68,5.09.27,1.99.47,3.99.65,5.99.24-1.21.25-2.44.26-3.66.01-1.14,0-2.29.21-3.42.09-.48.12-1.02.7-1.18.6-.16,1.14.04,1.56.48.84.88,1.25,1.97,1.5,3.14.38,1.75.4,3.53.58,5.3.38,3.78.3,7.57.23,11.35-.04,2.48.02,4.96.28,7.44.6-2.03,1.53-3.93,2.02-6,.86-3.59,1.56-7.21,1.93-10.88.44-4.37.47-8.73-.04-13.1-.15-1.31-.39-2.61-.56-3.92-.07-.52-.1-1.04.03-1.56.25-.99,1.07-1.33,1.96-.8.88.53,1.57,1.27,2.26,2.07-.04-.57-.06-1.14-.11-1.71-.16-1.94-.33-3.87-.48-5.8-.04-.5-.06-1.01-.08-1.51-.01-.35.06-.68.18-1.01.45-1.23,1.64-1.61,2.79-.88.34.22.66.47,1.01.85-.25-2.01.09-3.88.3-5.74.32-2.91,3.22-3.13,4.84-2.08.44.29.84.63,1.12,1.08.7,1.14,1.46,2.24,1.86,3.59.51-1.03,1.03-2.01,1.49-3.02.87-1.88,1.73-3.77,2.87-5.51.63-.96,1.3-1.88,2.21-2.61,1.27-1.02,2.49-.85,3.46.46.53.72.66,1.55.67,2.41,0,.39-.04.78-.06,1.28.61-.83,1.14-1.63,1.75-2.36,1.63-1.97,3.17-4.03,5.14-5.7.84-.72,1.79-1.27,2.95-1.28.1,0,.2,0,.29,0,.53.05,1.08.13,1.34.66.24.5-.05.94-.33,1.36-.83,1.23-1.53,2.55-2.22,3.86-.08.16-.18.31-.18.5,0,0-.03.01-.03.01l.02-.02Z"/>
          <path class="cls-5" d="m70.87,144.02c-3.92-1.3-7.99-1.88-12.05-2.53-3.69-.59-7.39-1.08-11.11-1.47-1.91-.2-3.85-.19-5.76-.43-1.72-.21-3.43-.47-4.96-1.38-.8-.48-1.39-1.13-1.55-2.09-.13-.77.14-1.34.83-1.71.76-.42,1.62-.49,2.45-.62.22-.04.45-.05.58-.07-1.75-.2-3.42-.9-4.93-1.92-2.93-1.98-5.65-4.21-8.01-6.86-.4-.45-.74-.95-.99-1.51-.45-1-.15-1.68.91-1.98.82-.23,1.67-.28,2.52-.29.28,0,.55,0,.9,0-.35-.39-.76-.61-1.13-.87-1.4-.97-2.76-1.97-3.78-3.36-.05-.07-.09-.13-.14-.2-.35-.51-.67-1.04-.31-1.67.28-.48,1.07-.68,1.83-.44.93.3,1.83.68,2.75,1.01.64.23,1.3.42,1.95.63.03,0,.08-.03.05.04-.02-.01-.04-.03-.05-.04-2.91-1.58-5.11-3.95-7.13-6.5-1.52-1.92-2.89-3.95-4.27-5.97-.31-.46-.56-.95-.74-1.49-.34-1.01.05-1.59,1.13-1.62.31-.01.62-.02.93.01.29.03.57.1.95.17-.35-.4-.64-.72-.92-1.05-1.18-1.42-2.06-3.06-3.17-4.53-.77-1.02-1.49-2.06-2.05-3.21-.32-.65-.56-1.32-.65-2.04-.12-.93.39-1.58,1.32-1.72,1.66-.25,3.17.23,4.63.95,1.12.55,2.15,1.23,3.17,1.95,1.28.9,2.71,1.58,3.98,2.5.21.15.42.31.58.51,0,0,.01,0,.01,0h-.02c-.05-.52-.38-.9-.61-1.32-.68-1.27-1.34-2.54-1.68-3.95-.06-.27-.12-.54-.15-.82-.02-.18-.12-.4.1-.54.19-.11.34.03.49.11.99.56,1.87,1.25,2.68,2.04,1.42,1.37,2.55,2.96,3.45,4.72.29.57.65,1.07,1.19,1.47.1-.24-.04-.38-.1-.54-1.07-2.55-1.92-5.17-2.58-7.85-.14-.56-.14-1.13-.06-1.71.06-.51.23-.6.69-.35.47.27.87.64,1.25,1.02,1.65,1.68,3.08,3.53,4.34,5.53,2.1,3.33,4.19,6.65,6.39,9.91,3.09,4.59,6.39,9.03,9.64,13.51,1.37,1.89,2.7,3.82,3.99,5.77-1.25-2.93-2.65-5.78-4.05-8.63-1.87-3.81-3.78-7.6-5.66-11.4-2.67-5.39-5.96-10.38-9.79-15.01-1.44-1.74-2.6-3.67-4.01-5.43-.47-.59-.99-1.13-1.33-1.81-.27-.53-.44-1.09-.4-1.69.04-.54.28-.83.8-.97.61-.17,1.2-.09,1.78.11.87.3,1.67.73,2.44,1.23.16.1.3.26.52.22,0,.02.02.04.03.06,0-.01,0-.02,0-.03,0,0-.02-.01-.04-.02-.39-.93-1.03-1.7-1.65-2.47-1.24-1.54-2.52-3.04-3.77-4.57-.29-.35-.59-.7-.74-1.14-.22-.65-.08-1.14.43-1.58,1.07-.93,2.29-1.18,3.65-.88.72.16,1.39.45,2.08.73.1-.17-.01-.29-.06-.42-1.11-3.09-2.09-6.22-3.08-9.34-.26-.81-.39-1.65-.32-2.51.11-1.38.88-1.82,2.15-1.24.47.22.88.54,1.32.96-.06-.57-.11-1.05-.17-1.53-.17-1.52.48-2.04,1.92-1.51,1.49.54,2.54,1.62,3.47,2.85.86,1.13,1.56,2.37,2.23,3.62.12.23.26.44.43.65.05-.55-.12-1.07-.21-1.6-.26-1.59-.67-3.16-.88-4.76-.06-.49-.05-.98.1-1.45.2-.62.74-.88,1.35-.67.76.27,1.28.84,1.75,1.45,2.78,3.62,5.19,7.47,7.17,11.6,1.69,3.53,2.54,7.29,3.12,11.12.02.16.01.33.15.47.1-2.38.07-4.75.06-7.12-.01-2.14.06-4.28.47-6.39.19-.94.52-1.12,1.4-.75.96.4,1.5,1.19,1.87,2.1.55,1.37,1.01,2.77,1.35,4.22.21.92.39,1.84.4,2.88.28-.34.46-.66.73-.89.74-.64,1.63-.44,2.03.45.45,1,.64,2.05.66,3.14.05,2.76-.16,5.51-.47,8.25-.03.24-.02.49-.03.73-.02.06-.03.11-.05.17.01,0,.02,0,.04,0,0-.06,0-.12,0-.18.34-.08.36-.43.53-.65.29-.4.58-.79,1.04-1.01.68-.33,1.18-.1,1.39.62.21.73.2,1.48.15,2.23-.14,2.23-.68,4.38-1.08,6.56-.62,3.44-1.09,6.9-1.34,10.38-.18,2.51-.3,5.02-.25,7.54.06,3.55.35,7.07.96,10.57.02.12.07.24.14.48.07-2.15.23-4.17.42-6.19.22-2.36.53-4.7.96-7.03.61-3.3,1.46-6.52,2.77-9.62.23-.54.49-1.07.8-1.57.59-.93,1.65-1.07,2.47-.32.73.67.98,1.54,1.01,2.59.45-1.01.88-1.95,1.29-2.89.68-1.54,1.32-3.09,2.23-4.52.28-.43.6-.82.94-1.19.84-.9,2.21-.58,2.62.6.13.37.2.76.21,1.15,0,.42,0,.84,0,1.38.37-.46.55-.89.78-1.29.6-1.05,1.23-2.08,2.14-2.9.26-.23.54-.42.85-.57.76-.36,1.25-.36,1.73.7.33.74.26,1.54.14,2.32-.21,1.3-.66,2.53-1.19,3.72-1.05,2.35-1.79,4.79-2.48,7.26-.12.44-.25.88-.41,1.43.59-.54,1.1-1,1.61-1.46.47-.43,1-.8,1.58-1.06.64-.29,1.3-.46,1.95,0,.66.46.86,1.14.79,1.89-.12,1.46-.81,2.7-1.53,3.93-.37.63-.75,1.26-1.07,1.97.27-.18.54-.36.81-.55.64-.45,1.3-.88,2.04-1.15.64-.24,1.31-.41,1.9.08.64.52.72,1.25.59,2.01-.28,1.68-1.15,3.11-2.03,4.52-1.09,1.75-2.37,3.36-3.65,4.96-.04.05-.06.11-.13.23.55-.16,1.02-.35,1.51-.42.6-.09,1.2-.11,1.79.1.94.33,1.32.93,1.18,1.92-.15,1.02-.6,1.93-1.1,2.81-1.65,2.86-3.73,5.39-5.88,7.87-1.8,2.07-3.65,4.09-5.61,6.02-1.29,1.28-2.78,2.32-4.16,3.5-1.05.9-2.04,1.87-2.92,2.94-.26-.45-.44-.93-.64-1.41-.46-1.09-.84-2.21-1.28-3.3-.36-.9-.81-1.78-1.05-2.74-.12-.47-.07-.85.35-1.14.08-.05.18-.05.25-.14.61-.79,1.22-1.59,1.85-2.37,1.08-1.35,2-2.81,2.8-4.33.75-1.41,1.33-2.93,1.91-4.43.32-.83.49-1.72.71-2.58.27-1.04.48-2.08.64-3.14.17-1.09.29-2.18.33-3.28.05-1.48.08-2.97-.09-4.45-.04-.36.01-.77-.36-1.16-.16,1.17-.27,2.25-.4,3.32-.23,1.98-.69,3.9-1.25,5.8-.45,1.54-.97,3.05-1.61,4.53-.48,1.12-.97,2.23-1.53,3.3-.58,1.1-1.2,2.2-1.87,3.25-.77,1.21-1.69,2.32-2.55,3.47-.19.26-.37.22-.52-.05-.07-.13-.12-.26-.17-.4-.53-1.36-1.05-2.73-1.61-4.08-.61-1.47-1.16-2.96-1.72-4.45-.5-1.32-1-2.64-1.46-3.98-.27-.79-.6-1.55-.91-2.32-.27-.67-.43-1.39-.68-2.06-.46-1.23-.85-2.48-1.26-3.73-.45-1.39-.88-2.79-1.28-4.2-.44-1.53-.87-3.06-1.31-4.59-.32-1.12-.66-2.24-.95-3.37-.14-.54-.36-1.04-.49-1.57-.16-.61-.25-1.24-.38-1.85-.29-1.36-.67-2.7-1.04-4.04-.2-.71-.47-1.41-.7-2.11-.05,0-.1.02-.14.03.06.61-.1,1.21.13,1.84.29.78.23,1.64.4,2.44.24,1.14.24,2.31.61,3.43.43,1.31.4,2.72.7,4.07.4,1.82.71,3.66,1.1,5.48.43,1.98.87,3.96,1.41,5.91.46,1.66.88,3.33,1.37,4.98.6,2.02,1.34,3.98,1.97,5.98.49,1.55,1.19,3.03,1.76,4.56.51,1.36,1.1,2.7,1.64,4.06.16.39.29.8.49,1.17.07.13.11.3.02.42-.11.14-.23-.04-.35-.05-.42,0-.69-.33-1.04-.5-.45-.21-.96-.35-1.37-.6-1.29-.79-2.66-1.4-3.96-2.16-1.4-.82-2.76-1.69-4.17-2.49-1.14-.65-2.14-1.49-3.22-2.23-.49-.34-.89-.83-1.39-1.15-1.05-.68-2.01-1.48-2.99-2.26-1.06-.84-2.09-1.72-3.12-2.59-.81-.68-1.61-1.39-2.43-2.07-.34-.28-.58-.69-.89-.93-.73-.57-1.34-1.26-2.08-1.81-.4-.3-.75-.67-1.06-1.07-.51-.65-1.08-1.26-1.67-1.82-.94-.91-1.73-1.96-2.74-2.79-.08-.07-.15-.22-.27-.11-.09.08-.07.24.02.31.26.2.38.5.51.76.26.49.71.83.93,1.32.22.48.55.95.92,1.23.78.6,1.02,1.63,1.89,2.16.21.13.47.52.69.79,1.12,1.34,2.28,2.65,3.47,3.93,1.01,1.08,2.06,2.12,3.14,3.14.67.64,1.38,1.24,2.06,1.87.9.83,1.87,1.59,2.79,2.39,1.14.99,2.4,1.81,3.63,2.69,2.2,1.56,4.43,3.05,6.83,4.29,1.07.55,2.1,1.17,3.17,1.71.94.47,1.94.79,2.9,1.21.6.26,1.32.42,1.62,1.13.23.57.44,1.15.69,1.71.49,1.13.85,2.3,1.39,3.41.19.38.24.82.44,1.21.08.15.09.31,0,.46Zm-13.09-22.49h.03s-.02.05-.02.05v-.05Z"/>
          <path class="cls-5" d="m127.92,108.5c.57-.37,1.04-.89,1.68-1.18.77-.35,1.34-.26,1.86.31.29.32.31.71.27,1.1-.14,1.34-.72,2.54-1.29,3.73-.71,1.47-1.47,2.9-2.26,4.46.64-.31,1.14-.67,1.74-.81.49-.12.96-.13,1.45,0,.43.12.61.39.59.83-.02.57-.25,1.08-.5,1.58-1.09,2.19-2.56,4.13-4.04,6.05-1.82,2.37-3.75,4.64-5.76,6.85-1.25,1.38-2.66,2.59-4.03,3.84,0,0-.01.01-.01.01h.01c1.82-.91,3.5-2.02,5.15-3.2,4.24-3.02,8.1-6.47,11.68-10.23,1.77-1.86,3.37-3.85,5.03-5.8.92-1.08,1.91-2.1,3.06-2.94.29-.22.58-.41.95-.46.53-.07.9.2.93.74.05.73-.17,1.41-.45,2.08,0,0,0,.01,0,.01v-.02c.85-.61,1.48-1.42,2.24-2.11,1.63-1.48,3.17-3.07,5.09-4.19.48-.28.97-.55,1.53-.62.79-.11,1.3.3,1.33,1.1.02.47-.14.9-.31,1.4.64-.42,1.22-.81,1.82-1.19,1.58-1,3.21-1.89,5.11-2.1.62-.07,1.21.02,1.76.3.56.28.67.71.35,1.25-.47.8-1.2,1.34-1.92,1.86-2.57,1.84-4.78,4.1-7.13,6.18-.02.02-.03.06-.05.08,0,0-.02,0-.02,0h.01c2.39-1.35,4.76-2.72,7.39-3.56,4.74-1.52,9.58-2.27,14.56-2.12.71.02,1.44.05,2.11.37.48.23.52.39.25.84-.46.77-1.16,1.28-1.92,1.71-1.29.73-2.6,1.43-3.9,2.15-.14.08-.28.16-.41.27,1.16-.14,2.29-.41,3.45-.52,1.45-.14,2.9-.23,4.31.28.52.19,1.01.45,1.43.82.49.44.53.74.1,1.25-.51.62-1.24.94-1.94,1.41.6.14,1.19.18,1.71.44,1.18.58,1.21.95.41,1.92-.65.79-1.55,1.25-2.48,1.61-1.81.7-3.64,1.36-5.47,2-.91.32-1.72.84-2.73,1.1.74.39,1.4.77,1.97,1.3.66.61,1.07,1.35,1.14,2.26.08,1.05-.5,1.74-1.55,1.88-1.22.17-2.45.1-3.67.08-1.44-.03-2.87-.14-4.31,0-.23.02-.45.04-.69.14.97.38,1.94.72,2.82,1.26.34.21.66.43.93.71.54.56.5,1.15-.12,1.63-1.02.8-2.22.9-3.44.82-3.36-.22-6.72-.14-10.08.11-3.23.25-6.43.66-9.6,1.31-3.49.71-6.95,1.53-10.41,2.34-2.71.64-5.43,1.25-8.14,1.9-.95.23-1.88.54-2.82.82,0,0,0,.02,0,.03.01,0,.03-.02.04-.02,2.34-.04,4.66-.26,6.99-.41,4.84-.32,9.66-.8,14.49-1.25,3.58-.34,7.14-.75,10.72-1.04,2.07-.17,4.11-.07,6.15.27.32.05.8.02.89.38.1.37-.36.55-.61.75-.82.65-1.79.99-2.75,1.37-1.67.66-3.32,1.38-5.07,1.81-.09.02-.17.08-.27.13.49.2.88.24,1.52.1,2.38-.52,4.76-.6,7.13,0,.43.11.84.26,1.26.39.16.05.33.11.36.29.04.23-.16.3-.31.39-1.15.69-2.42,1.04-3.73,1.3-.73.14-1.47.29-2.29.45,1.08.43,2.13.62,3.15.92,2,.59,4.05,1.06,5.91,2.03.75.39,1.49.83,2.02,1.51,1.13,1.44.64,2.84-1.12,3.32-1.05.28-2.13.33-3.21.33-2.48,0-4.95.19-7.57.25.54.33.95.61,1.28.99.36.42.86.81.66,1.44-.21.63-.83.8-1.4.92-1.02.23-2.07.31-3.11.35-2.92.11-5.85.19-8.75-.26-1.6-.25-3.14-.75-4.84-1.2,1.08.74,2.08,1.32,3.08,1.91.39.23.8.45,1.19.69.21.13.41.28.57.45.35.36.55.8.37,1.29-.18.5-.66.61-1.12.66-1.22.12-2.41-.04-3.6-.31-.89-.2-1.76-.5-2.63-.77-.02,0-.03-.01-.04-.02h.05c.06.34.35.5.54.73.5.6.99,1.22,1.29,1.95.46,1.11.09,1.8-1.07,2.07-.84.19-1.69.17-2.53.08-2.62-.29-5.2-.78-7.65-1.77-1.55-.63-2.91-1.61-4.28-2.55-.27-.18-.54-.36-.91-.6.26.59.63.97.9,1.42.35.59.72,1.16.79,1.88.06.67-.25,1.12-.8,1.45-1.49.9-2.92.53-4.32-.21-1.63-.86-3-2.08-4.41-3.24-3.04-2.51-5.7-5.4-8.22-8.43-1.28-1.54-2.63-3.01-4.3-4.17-.83-.57-1.69-1.11-2.5-1.72.3-.48.82-.67,1.27-.94,1.21-.74,2.42-1.49,3.63-2.24.12-.08.25-.09.37-.02,1.04.58,2.18.93,3.21,1.5.94.52,1.95.86,2.97,1.16.98.29,1.91.72,2.9.99,1.33.37,2.68.63,4.02.98,1.18.31,2.42.43,3.63.63,1.22.2,2.43.46,3.65.55,1.89.14,3.78.31,5.67.31,2.95,0,5.89.01,8.84-.26,1.58-.15,3.14-.37,4.71-.62.08-.01.18,0,.18-.12,0-.09-.08-.14-.16-.15-.11-.02-.23,0-.34-.02-.78-.05-1.56.08-2.34.09-2.65.03-5.3-.12-7.95-.29-.34-.02-.7.03-1.03-.03-.94-.2-1.9-.24-2.85-.34-1.16-.12-2.31-.32-3.47-.47-1.68-.23-3.34-.6-5.01-.93-.93-.18-1.87-.36-2.79-.62-.6-.17-1.21-.29-1.79-.53-.77-.31-1.62-.44-2.43-.68-.98-.28-1.93-.66-2.85-1.1-.35-.17-.77-.11-1.12-.31-.46-.27-.92-.48-1.48-.56-.34-.05-.72-.2-1-.47-.15-.14-.27-.3-.04-.43.56-.31,1.12-.64,1.71-.86.66-.24,1.27-.6,1.91-.88.69-.31,1.37-.68,2.06-1.01.52-.25,1.09-.4,1.61-.67.46-.24.9-.51,1.37-.72.94-.42,1.87-.85,2.82-1.24.59-.24,1.09-.62,1.69-.84.86-.32,1.7-.69,2.54-1.06.51-.23,1.04-.42,1.55-.67.97-.47,1.96-.91,2.96-1.3,1.49-.59,2.93-1.28,4.41-1.88,1.62-.65,3.23-1.32,4.84-1.99,1.4-.58,2.83-1.12,4.21-1.75.95-.43,1.96-.73,2.91-1.16.44-.2.9-.37,1.34-.56.68-.3,1.4-.46,2.05-.84.27-.16.48-.46.85-.44.14,0,.35,0,.31-.19-.03-.17-.25-.09-.38-.09-.08,0-.17.03-.23.07-.62.41-1.39.43-2.05.77-.91.47-1.93.72-2.9,1.08-.85.31-1.69.66-2.54.96-.66.23-1.26.62-1.92.8-1.52.4-2.93,1.12-4.4,1.64-.77.27-1.52.63-2.29.9-1.5.53-2.98,1.14-4.48,1.69-1.64.6-3.23,1.33-4.86,1.94-1.47.55-2.93,1.16-4.41,1.67-1.61.56-3.19,1.2-4.76,1.85-1.23.51-2.51.92-3.71,1.54-.59.3-1.21.56-1.79.84-.51.25-1.07.4-1.56.7-.37.23-.51.07-.47-.38.02-.25.16-.45.21-.7.31-1.72.75-3.41,1.36-5.05.11-.31.28-.59.36-.91.29-1.08.75-2.09,1.11-3.14.22-.63.64-1.19.84-1.8.41-1.26,1.01-2.44,1.62-3.58.81-1.52,1.63-3.05,2.53-4.52.67-1.1,1.44-2.14,2.08-3.25.25-.43.52-.85.78-1.28.06-.11.16-.24,0-.34-.08-.05-.22-.04-.25.06-.3.83-1.01,1.35-1.54,2-1.21,1.5-2.29,3.09-3.37,4.68-.63.92-1.17,1.89-1.73,2.85-.71,1.23-1.38,2.49-1.98,3.78-.64,1.37-1.24,2.77-1.76,4.2-.95,2.57-1.73,5.2-2.11,7.93-.05.39-.17.69-.61.89-.73.32-1.42.71-2.09,1.15-1.03.68-2.16,1.18-3.12,1.96-.27.22-.36.13-.37-.17.21-.9.43-1.81.62-2.71.6-2.95.94-5.93,1.04-8.94.09-2.74.51-5.45.86-8.17.42-3.29,1.31-6.45,2.42-9.56.45-1.26,1.16-1.38,2.05-.36.42.49.74,1.03.93,1.76.59-2.35,1.04-4.63,1.92-6.78.43-1.04.89-2.07,1.74-2.86.76-.71,1.84-.68,2.31.07.22.36.37.76.46,1.17.19.83.21,1.68.32,2.6.41-.75.57-1.51.86-2.23.41-1.03.83-2.06,1.61-2.89.22-.23.46-.42.74-.55.89-.44,1.75-.13,2.14.79.47,1.11.31,2.28.27,3.43,0,.11-.02.23-.03.33,1.88-2.12,3.38-4.49,4.67-7,.56-1.09,1.22-2.12,2.12-2.98.43-.41.91-.74,1.5-.89.55-.14.92.05,1.12.58.39,1.05.15,2.07-.17,3.07-.28.87-.61,1.72-.92,2.58Z"/>
          <path class="cls-2" d="m99.38,148.06c0,.3.1.39.37.17.96-.78,2.09-1.29,3.12-1.96.66-.44,1.36-.84,2.09-1.15.44-.19.56-.5.61-.89.38-2.73,1.16-5.36,2.11-7.93.53-1.42,1.12-2.82,1.76-4.2.6-1.29,1.27-2.55,1.98-3.78.55-.96,1.1-1.92,1.73-2.85,1.08-1.59,2.16-3.18,3.37-4.68.52-.65,1.24-1.17,1.54-2,.04-.11.17-.12.25-.06.16.1.07.23,0,.34-.25.43-.53.85-.78,1.28-.64,1.12-1.41,2.15-2.08,3.25-.9,1.48-1.73,3-2.53,4.52-.61,1.14-1.21,2.32-1.62,3.58-.2.61-.62,1.18-.84,1.8-.36,1.05-.82,2.07-1.11,3.14-.08.31-.25.6-.36.91-.61,1.64-1.05,3.33-1.36,5.05-.04.25-.18.45-.21.7-.04.45.1.61.47.38.49-.31,1.05-.45,1.56-.7.59-.29,1.2-.54,1.79-.84,1.19-.61,2.47-1.02,3.71-1.54,1.57-.65,3.15-1.3,4.76-1.85,1.49-.51,2.94-1.12,4.41-1.67,1.63-.61,3.22-1.34,4.86-1.94,1.5-.55,2.97-1.16,4.48-1.69.76-.27,1.52-.63,2.29-.9,1.48-.52,2.88-1.23,4.4-1.64.66-.18,1.26-.57,1.92-.8.85-.3,1.69-.65,2.54-.96.97-.36,1.99-.6,2.9-1.08.67-.35,1.43-.36,2.05-.77.07-.04.15-.07.23-.07.14,0,.35-.08.38.09.04.19-.17.2-.31.19-.37-.02-.58.28-.85.44-.65.38-1.37.54-2.05.84-.44.19-.9.36-1.34.56-.96.43-1.96.73-2.91,1.16-1.39.62-2.81,1.17-4.21,1.75-1.61.67-3.23,1.33-4.84,1.99-1.48.6-2.92,1.3-4.41,1.88-1.01.4-1.99.83-2.96,1.3-.51.24-1.04.44-1.55.67-.83.37-1.68.74-2.54,1.06-.6.22-1.11.6-1.69.84-.95.39-1.88.82-2.82,1.24-.47.21-.91.49-1.37.72-.51.26-1.09.41-1.61.67-.69.33-1.36.7-2.06,1.01-.64.28-1.25.64-1.91.88-.6.22-1.15.55-1.71.86-.23.13-.11.3.04.43.28.27.67.42,1,.47.55.08,1.02.29,1.48.56.35.2.77.14,1.12.31.92.44,1.87.82,2.85,1.1.81.23,1.66.36,2.43.68.59.24,1.2.35,1.79.53.91.26,1.85.44,2.79.62,1.67.33,3.33.7,5.01.93,1.16.16,2.31.35,3.47.47.95.1,1.91.14,2.85.34.33.07.68.01,1.03.03,2.65.17,5.3.32,7.95.29.78,0,1.56-.14,2.34-.09.11,0,.23,0,.34.02.08.01.16.06.16.15,0,.11-.1.1-.18.12-1.56.25-3.13.47-4.71.62-2.94.28-5.89.27-8.84.26-1.9,0-3.79-.17-5.67-.31-1.22-.09-2.44-.35-3.65-.55-1.21-.19-2.45-.32-3.63-.63-1.33-.35-2.69-.61-4.02-.98-.98-.27-1.91-.7-2.9-.99-1.02-.3-2.03-.63-2.97-1.16-1.03-.58-2.18-.93-3.21-1.5-.12-.07-.25-.06-.37.02-1.21.75-2.42,1.5-3.63,2.24-.45.28-.97.47-1.27.94-.67.32-1.23.8-1.81,1.24-3.55,2.67-7.02,5.44-10.13,8.62-1.81,1.85-3.38,3.89-4.45,6.28-.6,1.32-.87,2.73-1.13,4.14-.68,3.76-1.49,7.49-2.31,11.21-.79,3.58-1.62,7.16-2.51,10.72-.34,1.35-1.24,1.89-2.6,1.54-1.05-.27-1.65-.89-1.46-2.22.77-5.51,1.9-10.95,3.07-16.39.52-2.41,1.1-4.8,1.72-7.19.18-.7.09-1.32-.1-1.96-.9-3.12-1.98-6.18-3.04-9.25-1.44-4.13-3-8.21-4.58-12.29-.1-.27-.16-.57-.46-.71.1-.15.08-.32,0-.46-.2-.38-.26-.83-.44-1.21-.54-1.11-.91-2.28-1.39-3.41-.24-.56-.45-1.15-.69-1.71-.29-.72-1.02-.88-1.62-1.13-.96-.42-1.96-.74-2.9-1.21-1.08-.53-2.11-1.15-3.17-1.71-2.4-1.24-4.63-2.73-6.83-4.29-1.23-.87-2.49-1.7-3.63-2.69-.93-.8-1.89-1.57-2.79-2.39-.68-.63-1.39-1.23-2.06-1.87-1.07-1.02-2.13-2.06-3.14-3.14-1.19-1.28-2.35-2.59-3.47-3.93-.22-.27-.48-.66-.69-.79-.87-.53-1.11-1.56-1.89-2.16-.37-.28-.7-.74-.92-1.23-.22-.49-.68-.84-.93-1.32-.14-.26-.26-.56-.51-.76-.09-.07-.11-.23-.02-.31.13-.11.19.05.27.11,1.02.83,1.81,1.88,2.74,2.79.58.57,1.16,1.17,1.67,1.82.31.4.66.77,1.06,1.07.74.55,1.35,1.24,2.08,1.81.31.24.55.65.89.93.82.68,1.61,1.38,2.43,2.07,1.03.87,2.06,1.75,3.12,2.59.98.78,1.94,1.57,2.99,2.26.5.32.89.81,1.39,1.15,1.08.73,2.08,1.58,3.22,2.23,1.41.8,2.77,1.67,4.17,2.49,1.3.76,2.67,1.38,3.96,2.16.41.25.91.39,1.37.6.35.16.62.49,1.04.5.12,0,.23.19.35.05.09-.12.05-.28-.02-.42-.2-.38-.33-.78-.49-1.17-.54-1.36-1.12-2.7-1.64-4.06-.57-1.53-1.28-3.01-1.76-4.56-.63-2-1.37-3.97-1.97-5.98-.49-1.65-.91-3.32-1.37-4.98-.54-1.95-.98-3.93-1.41-5.91-.39-1.82-.7-3.66-1.1-5.48-.3-1.35-.27-2.76-.7-4.07-.37-1.12-.37-2.29-.61-3.43-.17-.8-.11-1.66-.4-2.44-.23-.63-.07-1.23-.13-1.84.05,0,.1-.02.14-.03.24.7.5,1.4.7,2.11.37,1.34.75,2.68,1.04,4.04.13.61.23,1.25.38,1.85.13.53.35,1.03.49,1.57.29,1.13.62,2.25.95,3.37.44,1.53.87,3.06,1.31,4.59.4,1.41.83,2.81,1.28,4.2.4,1.25.79,2.5,1.26,3.73.25.67.41,1.39.68,2.06.31.77.64,1.53.91,2.32.46,1.34.95,2.66,1.46,3.98.57,1.48,1.12,2.98,1.72,4.45.56,1.35,1.07,2.72,1.61,4.08.05.14.11.27.17.4.14.27.32.31.52.05.86-1.15,1.78-2.27,2.55-3.47.67-1.05,1.29-2.15,1.87-3.25.56-1.07,1.05-2.19,1.53-3.3.64-1.48,1.16-2.99,1.61-4.53.55-1.9,1.01-3.82,1.25-5.8.13-1.07.24-2.15.4-3.32.37.39.32.8.36,1.16.17,1.48.14,2.97.09,4.45-.03,1.1-.16,2.19-.33,3.28-.16,1.06-.36,2.11-.64,3.14-.23.86-.39,1.75-.71,2.58-.58,1.5-1.15,3.01-1.91,4.43-.81,1.51-1.72,2.98-2.8,4.33-.63.78-1.24,1.58-1.85,2.37-.07.09-.17.09-.25.14-.42.29-.47.67-.35,1.14.25.96.69,1.84,1.05,2.74.44,1.1.83,2.21,1.28,3.3.2.48.38.96.64,1.41-.02.44.22.81.37,1.21,1.75,4.64,3.35,9.34,4.85,14.07.55,1.74,1.16,3.47,1.74,5.2.02.07.06.15.13.34.36-1.24.7-2.37,1.02-3.5,1.34-4.8,2.86-9.53,4.47-14.24.98-2.84,1.96-5.68,2.95-8.51,1.97-5.63,4.05-11.22,6.28-16.76,1.66-4.13,3.39-8.24,5.25-12.29.07-.16.11-.34.17-.51.52-.84.79-1.8,1.29-2.65.6-1,.94-2.12,1.55-3.13.38-.63.57-1.42.95-2.03.73-1.17.37-2.35.35-3.54-.01-.73,0-1.46-.09-2.19-.16-1.43-.3-2.87-.46-4.3-.17-1.56-.44-3.11-.66-4.66-.12-.84-.29-1.69-.5-2.52-.27-1.08-.38-2.2-.67-3.28-.2-.75-.38-1.5-.59-2.25-.34-1.2-.65-2.4-.95-3.61-.05-.2-.16-.35-.22-.53-.29-.97-.59-1.94-.9-2.91-.35-1.09-.7-2.19-1.1-3.27-.31-.85-.58-1.73-.94-2.57-.78-1.81-1.42-3.68-2.22-5.48-.57-1.27-1.21-2.52-1.6-3.89.23.29.49.56.68.87.52.86,1.05,1.71,1.5,2.61.49,1,1.1,1.95,1.56,2.96.55,1.22,1.16,2.41,1.73,3.62.52,1.11.98,2.26,1.53,3.35.44.88.73,1.83,1.11,2.74.58,1.42,1.01,2.89,1.55,4.33.27.72.44,1.52.69,2.26.49,1.46.82,2.97,1.23,4.45.59,2.11,1,4.26,1.34,6.42.23,1.42.38,2.86.59,4.29.03.18-.04.38.02.57.04.11.04.24.17.27.13.03.22-.08.27-.17.25-.43.53-.86.73-1.32.26-.61.66-1.14.97-1.72.49-.91.96-1.85,1.54-2.7.52-.76.91-1.59,1.4-2.37.68-1.08,1.28-2.2,1.94-3.3.77-1.29,1.51-2.59,2.26-3.88.95-1.62,1.9-3.24,2.85-4.85,1-1.68,2.04-3.34,3.18-4.93.74-1.02,1.41-2.09,2.13-3.13.55-.78,1.12-1.55,1.68-2.32.72-.99,1.44-1.98,2.15-2.98,1.03-1.46,2.03-2.94,3.1-4.37.36-.48.77-.94,1.07-1.44.63-1.04,1.39-1.98,2.07-2.98.4-.58.81-1.17,1.23-1.75.85-1.19,1.75-2.34,2.55-3.56.37-.56.78-1.12,1.16-1.67.55-.81,1.28-1.48,1.75-2.34.04-.07.06-.16.12-.2.09-.07.2-.15.31-.06.1.09,0,.18-.04.26-.44.95-.95,1.85-1.56,2.71-.48.66-.92,1.36-1.21,2.14-.17.44-.48.83-.76,1.19-.55.7-.79,1.59-1.43,2.25-.25.26-.43.64-.6.99-.28.55-.69,1.03-.96,1.56-.35.69-.86,1.28-1.19,1.97-.27.56-.68,1.03-1.01,1.54-.37.57-.76,1.12-1.1,1.71-.35.62-.79,1.18-1.21,1.77-.66.94-1.38,1.84-1.92,2.86-.31.59-.73,1.12-1.15,1.63-.58.71-.95,1.55-1.56,2.24-.44.5-.71,1.12-1.05,1.69-.44.71-.93,1.39-1.36,2.12-.39.66-.84,1.27-1.22,1.94-.42.75-.87,1.5-1.35,2.23-.38.58-.76,1.17-1.05,1.78-.31.66-.68,1.27-1.02,1.9-.56,1.03-1.16,2.03-1.82,3.01-.37.54-.74,1.11-1,1.74-.14.36-.35.73-.59,1.05-.55.74-1.01,1.54-1.5,2.31-.84,1.31-1.66,2.64-2.44,3.98-.38.66-.63,1.44-.98,2.13-.4.79-.89,1.54-1.36,2.3-.05.08-.12.16-.16.24-.05.1-.25.19-.09.32.1.08.2-.03.3-.1.54-.42,1.09-.83,1.63-1.24.28-.22.55-.47.93-.5.03,0,.07-.02.09-.04.56-.68,1.44-.83,2.11-1.36.71-.57,1.54-.98,2.35-1.41.65-.35,1.28-.75,1.95-1.07.61-.3,1.31-.48,1.84-.87.52-.37,1.1-.58,1.64-.8.62-.25,1.15-.71,1.88-.74.32-.01.6-.35.95-.49.98-.38,1.98-.7,2.94-1.1,1.3-.55,2.65-.89,3.98-1.34.38-.13.82-.16,1.15-.49.19-.19.5-.05.76-.11,1.75-.45,3.53-.81,5.25-1.36.92-.29,1.84-.08,2.72-.43.01.05.03.1.04.16-.32.16-.62.4-.95.45-.89.13-1.65.65-2.5.86-.6.15-1.17.37-1.76.53-.82.22-1.58.62-2.38.9-.72.25-1.41.57-2.15.78-.25.07-.49.17-.71.3-1.02.6-2.17.89-3.24,1.39-.73.34-1.44.72-2.18,1.04-.67.29-1.26.73-1.97.98-.57.2-1.1.58-1.66.86-.97.49-1.82,1.18-2.77,1.67-1.01.52-1.95,1.14-2.93,1.7-.73.42-1.42.92-2.1,1.41-.59.42-1.15.87-1.79,1.21-.92.47-1.63,1.22-2.42,1.85-.7.56-1.35,1.2-2.09,1.7-.52.35-.94.81-1.44,1.18-.38.28-.56.8-.69,1.25-.15.53-.49.95-.68,1.45-.42,1.12-.82,2.25-1.41,3.3-.12.21-.09.45-.2.68-.13.26.22.15.36.22-.69.33-.99.95-1.28,1.62-2.74,6.19-5.36,12.43-7.65,18.81-1.06,2.95-2.07,5.91-3.06,8.88-1.91,5.74-3.54,11.57-5.25,17.36-.79,2.66-1.32,5.38-1.86,8.13.51-.64,1-1.3,1.53-1.92,1.78-2.11,3.77-4.03,5.82-5.87,2.06-1.84,4.2-3.57,6.49-5.12.31-.21.36-.52.52-.79Z"/>
          <path class="cls-5" d="m104.12,106.96c.03-.11.11-.12.2-.1-.05.08-.12.1-.2.1Z"/>
          <polygon class="cls-1" points="149.69 21.26 149.66 21.28 149.69 21.26 149.69 21.26"/>
          <path class="cls-5" d="m87.24,59s.05.01.07.02c-.05.07-.05.01-.06-.03,0,0,0,0,0,0Z"/>
          <polygon class="cls-5" points="151.06 72.23 151.04 72.25 151.05 72.23 151.06 72.23"/>
          <path class="cls-5" d="m66.84,82.22c0,.06,0,.12,0,.18-.01,0-.02,0-.04,0,.02-.06.03-.11.05-.17,0,0,0,0,0,0Z"/>
          <path class="cls-1" d="m30.86,116.25s.04.03.05.04c.03-.07-.02-.04-.05-.04,0,0,0,0,0,0Z"/>
          <polygon class="cls-5" points="57.77 121.53 57.78 121.57 57.8 121.53 57.77 121.53"/>
          <path class="cls-1" d="m37.93,77.82s.03.01.04.02c0,0,0,.02,0,.03,0-.02-.02-.04-.03-.06,0,0,0,0,0,0Z"/>
          <polygon class="cls-1" points="28.61 94.2 28.63 94.2 28.61 94.2 28.61 94.2"/>
          <path class="cls-5" d="m138.13,163.39h-.05s.03,0,.04,0c0,0,0,0,0,0Z"/>
          <polygon class="cls-5" points="144 115.46 143.99 115.48 143.99 115.46 144 115.46"/>
          <polygon class="cls-5" points="153.8 117.43 153.79 117.44 153.81 117.43 153.8 117.43"/>
          <polygon class="cls-5" points="117.63 135.27 117.62 135.28 117.63 135.27 117.63 135.27"/>
          <path class="cls-3" d="m180.94,120.76c-.52-.26-1.1-.3-1.71-.44.7-.47,1.43-.79,1.94-1.41.42-.51.39-.81-.1-1.25-.42-.37-.91-.63-1.43-.82-1.41-.52-2.86-.43-4.31-.28-1.16.11-2.29.38-3.45.52.13-.11.27-.19.41-.27,1.3-.71,2.61-1.42,3.9-2.15.76-.43,1.46-.94,1.92-1.71.27-.45.23-.61-.25-.84-.67-.31-1.39-.35-2.11-.37-4.98-.15-9.83.61-14.56,2.12-2.63.84-5,2.21-7.39,3.55.02-.03.03-.06.05-.08,2.35-2.09,4.56-4.34,7.13-6.18.73-.52,1.46-1.06,1.92-1.86.32-.55.21-.97-.35-1.25-.55-.28-1.14-.37-1.76-.3-1.91.21-3.53,1.11-5.11,2.1-.59.37-1.18.77-1.82,1.19.17-.5.33-.93.31-1.4-.04-.8-.54-1.21-1.33-1.1-.57.08-1.05.34-1.53.62-1.93,1.12-3.46,2.71-5.09,4.19-.76.69-1.4,1.51-2.23,2.11,0,0,0,0,0,0,.29-.66.5-1.34.45-2.08-.04-.54-.4-.81-.93-.74-.37.05-.66.25-.95.46-1.15.85-2.14,1.87-3.06,2.94-1.66,1.94-3.26,3.94-5.03,5.8-3.59,3.77-7.44,7.22-11.68,10.23-1.65,1.17-3.33,2.29-5.15,3.18,0,0,0,0,0,0,1.38-1.25,2.78-2.46,4.03-3.84,2.01-2.21,3.94-4.49,5.76-6.85,1.48-1.93,2.95-3.86,4.04-6.05.25-.5.47-1,.5-1.58.02-.44-.16-.71-.59-.83-.49-.13-.96-.12-1.45,0-.6.14-1.1.5-1.74.81.79-1.55,1.55-2.99,2.26-4.46.57-1.19,1.15-2.39,1.29-3.73.04-.4.03-.78-.27-1.1-.52-.57-1.09-.66-1.86-.31-.64.29-1.11.8-1.68,1.18.31-.86.64-1.71.92-2.58.32-1,.56-2.02.17-3.07-.2-.53-.57-.72-1.12-.58-.59.15-1.07.48-1.5.89-.9.86-1.56,1.89-2.12,2.98-1.29,2.52-2.79,4.89-4.67,7,.01-.1.03-.22.03-.33.05-1.15.2-2.32-.27-3.43-.39-.91-1.25-1.23-2.14-.79-.28.14-.52.33-.74.55-.78.83-1.19,1.86-1.61,2.89-.29.72-.46,1.48-.86,2.23-.11-.92-.13-1.77-.32-2.6-.09-.42-.24-.82-.46-1.17-.47-.75-1.55-.78-2.31-.07-.85.79-1.31,1.82-1.74,2.86-.88,2.15-1.33,4.42-1.92,6.78-.19-.73-.5-1.27-.93-1.76-.89-1.02-1.6-.9-2.05.36-1.11,3.11-2,6.27-2.42,9.56-.35,2.72-.76,5.43-.85,8.17-.1,3.01-.45,5.99-1.04,8.94-.18.91-.41,1.81-.62,2.71-.16.27-.22.58-.52.79-2.29,1.55-4.44,3.28-6.49,5.12-2.06,1.84-4.04,3.76-5.82,5.87-.53.63-1.02,1.28-1.53,1.92.54-2.74,1.07-5.46,1.86-8.13,1.72-5.8,3.34-11.62,5.25-17.36.99-2.97,2.01-5.93,3.06-8.88,2.29-6.38,4.91-12.62,7.65-18.81.3-.67.59-1.29,1.28-1.62,0,0,0,0,0,0,.09,0,.16-.03.2-.1.07-.03.15-.05.22-.09,1.84-1.12,3.72-2.17,5.64-3.14,3.57-1.81,7.25-3.36,11.1-4.49,3.74-1.09,7.55-1.81,11.46-1.92,1.84-.06,3.69.01,5.52-.36.72-.15,1.45-.26,2.09-.66.56-.35.58-.74.1-1.18-.51-.46-1.11-.8-1.74-1.08-1.04-.45-2.14-.71-3.22-1-.11-.03-.25-.02-.31-.22,2.51-.15,5.01-.16,7.5.06,2.13.19,4.26.43,6.4.33,1.62-.08,3.22-.23,4.75-.86.52-.21.98-.52,1.34-.95.56-.67.49-1.42-.16-1.99-.36-.32-.8-.51-1.25-.66-1.46-.5-2.98-.77-4.5-1.07.2-.17.46-.17.69-.22,2.45-.52,4.87-1.11,7.2-2.03,1.18-.46,2.31-1.01,3.18-1.97.61-.68,1.02-1.47.99-2.38-.03-1.17-.86-1.77-1.84-2.18-1.12-.47-2.31-.56-3.43-.71,2.05-.53,3.94-1.49,5.53-2.98.93-.87.77-1.78-.36-2.38-.9-.47-1.89-.59-2.89-.69-2.44-.25-4.86.1-7.28.2v.02s0-.01,0-.01c.82-.77,1.68-1.5,2.47-2.3.92-.93,1.84-1.87,2.42-3.06.33-.68.42-1.39-.08-2.04-.45-.58-1.1-.49-1.72-.4-.92.12-1.75.49-2.54.98-1.17.73-2.33,1.47-3.52,2.22.04-.23.1-.42.12-.61.1-1.01-.62-1.78-1.63-1.74-.45.02-.87.14-1.28.29-1.45.53-2.71,1.43-4.04,2.19-5.17,2.97-10.15,6.24-14.93,9.8-.82.61-1.63,1.25-2.46,1.87-.1.08-.21.26-.37.12-.12-.11-.09-.28-.05-.42.08-.26.25-.45.45-.63,2.06-1.9,4.11-3.83,6.19-5.71,3.13-2.84,6.3-5.63,9.43-8.47,3.88-3.52,7.71-7.1,11.36-10.86.78-.81,1.57-1.64,1.87-2.77.4-1.48-.33-2.19-1.8-1.81-.43.11-.85.26-1.34.41.98-1.48,1.92-2.87,2.75-4.33,1.33-2.32,2.82-4.55,3.99-6.96.63-1.29,1.08-2.62,1.05-4.09-.01-.5-.22-.79-.71-.91-.56-.13-1.1-.09-1.64.07-.34.11-.68.24-1.11.39.4-.68.75-1.27,1.1-1.86,1.39-2.33,2.91-4.58,4.09-7.02.62-1.29,1.12-2.61,1.07-4.08-.04-1.17-.66-1.93-1.79-2.2-.74-.18-1.5-.16-2.24-.03-2.4.43-4.57,1.4-6.45,2.97,0-.18.1-.34.18-.49.69-1.32,1.38-2.63,2.22-3.86.28-.41.57-.86.33-1.36-.26-.53-.81-.61-1.34-.66-.1,0-.2,0-.29,0-1.16,0-2.11.56-2.95,1.28-1.97,1.67-3.51,3.73-5.14,5.7-.6.73-1.13,1.52-1.75,2.36.03-.5.06-.89.06-1.28,0-.86-.14-1.69-.67-2.41-.97-1.31-2.19-1.48-3.46-.46-.9.72-1.58,1.65-2.21,2.61-1.14,1.74-2,3.63-2.87,5.51-.47,1.01-.98,1.99-1.49,3.02-.39-1.35-1.16-2.45-1.86-3.59-.28-.45-.68-.8-1.12-1.08-1.62-1.05-4.52-.83-4.84,2.08-.2,1.87-.54,3.73-.3,5.74-.36-.38-.67-.63-1.01-.85-1.15-.73-2.34-.35-2.79.88-.12.33-.19.66-.18,1.01.02.51.04,1.01.08,1.51.16,1.94.32,3.87.48,5.8.05.57.07,1.14.11,1.71-.7-.81-1.38-1.55-2.26-2.07-.89-.53-1.71-.19-1.96.8-.13.52-.1,1.04-.03,1.56.17,1.31.41,2.61.56,3.92.51,4.37.47,8.73.04,13.1-.37,3.67-1.07,7.29-1.93,10.88-.49,2.07-1.42,3.97-2.02,6-.27-2.48-.32-4.96-.28-7.44.06-3.79.14-7.58-.23-11.35-.18-1.77-.2-3.55-.58-5.3-.25-1.17-.66-2.26-1.5-3.14-.42-.44-.96-.65-1.56-.48-.58.16-.6.7-.7,1.18-.22,1.13-.2,2.27-.21,3.42-.01,1.23-.02,2.45-.26,3.66-.18-2-.37-4-.65-5.99-.23-1.7-.56-3.38-.68-5.09-.07-1.03-.21-2.05-.46-3.05-.3-1.19-.77-2.29-1.81-3.05-.8-.59-1.64-.41-2.15.46-.52.88-.55,1.86-.67,2.83,0,.01.01.03.02.04h-.04c-.36-1.64-.88-3.23-1.53-4.78-.69-1.65-1.34-3.32-2.07-4.96-.44-.99-.99-1.83-1.83-2.48-1.44-1.12-2.52-.69-2.84,1.1-.27,1.51-.09,3.03.05,4.54.08.84.19,1.68.09,2.65-.56-1.07-1.08-2.01-1.75-2.86-.67-.87-1.41-1.67-2.26-2.37-1.14-.94-2.34-1.78-3.76-2.24-1.42-.47-2.54.06-3.04,1.47-.4,1.12-.33,2.29-.06,3.43.45,1.95,1.31,3.75,2.17,5.55.19.39.35.78.59,1.3-.23-.16-.34-.23-.45-.3-.84-.52-1.74-.83-2.73-.77-1.05.06-1.45.68-1.09,1.67.06.15.13.3.21.44.47.92,1.07,1.75,1.73,2.55,1.85,2.24,3.62,4.55,5.04,7.09.48.86.94,1.74,1.25,2.68-.18,0-.28-.14-.41-.23-1.02-.68-2.03-1.37-3.28-1.57-1.23-.2-2.16.62-2.11,1.86.03.6.3,1.09.62,1.57.69,1.05,1.64,1.85,2.47,2.78,2.07,2.32,3.76,4.92,5.35,7.58,1.88,3.15,3.44,6.45,4.74,9.87,1.32,3.48,2.36,7.05,3.2,10.68.96,4.11,1.44,8.29,2.09,12.45.16,1.06.29,2.13.66,3.15.26-.42.46-.87.65-1.32-.19.45-.39.9-.65,1.32-.06.17-.09.35-.17.51-1.86,4.05-3.59,8.15-5.25,12.29-2.22,5.54-4.31,11.13-6.28,16.76-.99,2.83-1.97,5.67-2.95,8.51-1.62,4.71-3.14,9.45-4.47,14.24-.32,1.13-.66,2.26-1.02,3.5-.08-.19-.11-.26-.13-.34-.58-1.73-1.19-3.46-1.74-5.2-1.5-4.73-3.09-9.43-4.85-14.07-.15-.39-.38-.76-.37-1.21.88-1.07,1.87-2.04,2.92-2.94,1.37-1.18,2.86-2.22,4.16-3.5,1.95-1.93,3.81-3.94,5.61-6.02,2.15-2.48,4.23-5.02,5.88-7.87.51-.88.96-1.79,1.1-2.81.14-.98-.24-1.58-1.18-1.92-.59-.21-1.18-.19-1.79-.1-.5.07-.96.26-1.51.42.07-.12.09-.18.13-.23,1.28-1.61,2.56-3.22,3.65-4.96.88-1.42,1.75-2.84,2.03-4.52.13-.76.05-1.49-.59-2.01-.6-.49-1.26-.31-1.9-.08-.74.27-1.4.7-2.04,1.15-.26.19-.54.36-.81.55.32-.71.7-1.33,1.07-1.97.72-1.23,1.41-2.48,1.53-3.93.06-.75-.13-1.43-.79-1.89-.65-.46-1.31-.28-1.95,0-.58.26-1.11.63-1.58,1.06-.51.46-1.02.92-1.61,1.46.16-.56.28-.99.41-1.43.68-2.47,1.43-4.92,2.48-7.26.53-1.19.98-2.42,1.19-3.72.12-.77.2-1.58-.14-2.32-.48-1.06-.97-1.06-1.73-.7-.31.15-.59.34-.85.57-.91.82-1.53,1.86-2.14,2.9-.23.4-.41.83-.78,1.29,0-.54,0-.96,0-1.38,0-.4-.08-.78-.21-1.15-.41-1.18-1.77-1.5-2.62-.6-.35.37-.67.76-.94,1.19-.91,1.42-1.56,2.98-2.23,4.52-.41.94-.84,1.88-1.29,2.89-.03-1.05-.28-1.92-1.01-2.59-.82-.75-1.88-.61-2.47.32-.32.5-.57,1.03-.8,1.57-1.31,3.1-2.16,6.32-2.77,9.62-.43,2.33-.75,4.67-.96,7.03-.19,2.02-.34,4.04-.42,6.19-.07-.24-.12-.36-.14-.48-.61-3.5-.9-7.02-.96-10.57-.04-2.52.07-5.03.25-7.54.25-3.49.72-6.95,1.34-10.39.4-2.18.94-4.34,1.08-6.56.05-.75.06-1.5-.15-2.23-.21-.73-.71-.95-1.39-.62-.46.22-.75.61-1.04,1.01-.16.22-.18.56-.52.65.01-.24,0-.48.03-.72.31-2.74.52-5.49.47-8.25-.02-1.08-.21-2.14-.66-3.14-.41-.89-1.29-1.09-2.03-.45-.27.23-.45.55-.73.89-.01-1.04-.19-1.96-.4-2.88-.34-1.44-.8-2.85-1.35-4.22-.37-.91-.91-1.7-1.87-2.1-.89-.37-1.22-.19-1.4.75-.42,2.11-.48,4.24-.47,6.39.01,2.37.04,4.74-.06,7.12-.14-.15-.12-.31-.15-.47-.59-3.84-1.43-7.59-3.12-11.12-1.97-4.13-4.39-7.97-7.17-11.6-.46-.61-.99-1.18-1.75-1.45-.61-.22-1.15.05-1.35.67-.15.47-.16.96-.1,1.45.2,1.6.61,3.17.88,4.76.09.53.26,1.05.21,1.6-.18-.21-.31-.43-.43-.65-.67-1.25-1.37-2.49-2.23-3.62-.93-1.22-1.99-2.3-3.47-2.85-1.44-.53-2.09-.01-1.92,1.51.05.48.1.96.17,1.53-.44-.42-.84-.74-1.32-.96-1.27-.58-2.03-.14-2.15,1.24-.07.86.06,1.7.32,2.51,1,3.12,1.97,6.26,3.08,9.34.04.12.16.25.06.42-.68-.28-1.35-.57-2.08-.73-1.37-.3-2.59-.05-3.65.88-.51.45-.65.94-.43,1.58.15.44.46.79.74,1.14,1.25,1.53,2.53,3.03,3.77,4.57.62.77,1.26,1.54,1.65,2.46-.21.03-.35-.12-.51-.22-.77-.5-1.58-.93-2.44-1.23-.58-.2-1.18-.27-1.78-.11-.53.14-.77.43-.8.97-.04.6.13,1.16.4,1.69.35.68.87,1.22,1.33,1.81,1.41,1.76,2.58,3.7,4.01,5.43,3.84,4.63,7.12,9.62,9.79,15.01,1.88,3.8,3.79,7.59,5.66,11.4,1.4,2.85,2.8,5.71,4.05,8.63-1.29-1.96-2.61-3.88-3.99-5.77-3.24-4.48-6.54-8.92-9.64-13.51-2.2-3.26-4.3-6.58-6.39-9.91-1.26-2-2.69-3.85-4.34-5.53-.38-.38-.77-.76-1.25-1.02-.45-.25-.62-.16-.69.35-.07.57-.07,1.15.06,1.71.66,2.68,1.51,5.3,2.58,7.85.07.16.2.3.1.54-.54-.39-.9-.9-1.19-1.47-.9-1.76-2.03-3.35-3.45-4.72-.81-.78-1.7-1.48-2.68-2.04-.15-.09-.31-.23-.49-.11-.22.13-.13.35-.1.53.03.27.09.55.15.82.33,1.41,1,2.69,1.68,3.95.23.43.56.81.61,1.32-.16-.2-.37-.35-.58-.5-1.27-.92-2.69-1.6-3.98-2.5-1.01-.72-2.05-1.4-3.17-1.95-1.46-.71-2.97-1.2-4.63-.95-.93.14-1.44.79-1.32,1.72.09.72.34,1.39.65,2.04.56,1.15,1.29,2.19,2.05,3.21,1.11,1.47,1.99,3.11,3.17,4.53.28.33.57.65.92,1.05-.39-.07-.67-.15-.95-.17-.31-.03-.62-.02-.93-.01-1.08.04-1.47.61-1.13,1.62.18.53.43,1.02.74,1.49,1.38,2.02,2.75,4.05,4.27,5.97,2.02,2.55,4.22,4.92,7.13,6.5-.65-.21-1.3-.4-1.94-.63-.92-.33-1.82-.71-2.75-1.01-.76-.25-1.55-.05-1.83.44-.36.62-.04,1.16.31,1.67.05.07.09.14.14.2,1.02,1.39,2.38,2.4,3.78,3.36.37.26.78.48,1.13.87-.35,0-.63,0-.9,0-.85.02-1.7.06-2.52.29-1.06.3-1.36.99-.91,1.98.25.56.59,1.06.99,1.51,2.36,2.65,5.08,4.88,8.01,6.86,1.52,1.02,3.19,1.73,4.93,1.92-.13.01-.35.03-.58.07-.84.13-1.69.2-2.45.62-.69.37-.96.94-.83,1.71.16.96.75,1.62,1.55,2.09,1.53.91,3.24,1.17,4.96,1.38,1.91.24,3.85.23,5.76.43,3.71.39,7.42.88,11.11,1.47,4.06.65,8.13,1.22,12.05,2.53h0c.3.14.36.45.46.71,1.58,4.08,3.14,8.16,4.58,12.29,1.07,3.07,2.14,6.13,3.04,9.25.19.64.28,1.27.1,1.96-.62,2.38-1.2,4.78-1.72,7.19-1.18,5.43-2.3,10.88-3.07,16.39-.19,1.33.41,1.95,1.46,2.22,1.36.35,2.27-.18,2.6-1.54.89-3.56,1.73-7.13,2.51-10.72.82-3.73,1.63-7.46,2.31-11.21.26-1.41.53-2.82,1.13-4.14,1.07-2.39,2.64-4.43,4.45-6.28,3.11-3.18,6.58-5.95,10.13-8.62.58-.44,1.14-.92,1.81-1.24.81.61,1.67,1.14,2.5,1.72,1.67,1.16,3.02,2.63,4.3,4.17,2.52,3.03,5.17,5.92,8.22,8.43,1.41,1.16,2.78,2.39,4.41,3.24,1.4.74,2.83,1.11,4.32.21.55-.33.86-.78.8-1.45-.07-.71-.44-1.29-.79-1.88-.27-.45-.64-.83-.9-1.42.37.24.64.41.91.6,1.37.94,2.73,1.92,4.28,2.55,2.45.99,5.03,1.48,7.65,1.77.84.09,1.69.11,2.53-.08,1.16-.27,1.53-.96,1.07-2.07-.3-.73-.79-1.35-1.29-1.95-.19-.23-.47-.39-.53-.72.87.27,1.73.57,2.62.77,1.19.27,2.38.43,3.6.31.46-.05.93-.16,1.12-.66.18-.5-.02-.93-.37-1.29-.17-.17-.37-.32-.57-.45-.39-.24-.79-.46-1.19-.69-1-.58-2-1.17-3.08-1.91,1.71.44,3.24.95,4.84,1.2,2.91.45,5.83.37,8.75.26,1.04-.04,2.09-.12,3.11-.35.58-.13,1.2-.29,1.4-.92.2-.62-.3-1.02-.66-1.44-.33-.38-.74-.66-1.28-.99,2.62-.06,5.09-.25,7.57-.25,1.08,0,2.15-.05,3.21-.33,1.76-.48,2.25-1.88,1.12-3.32-.53-.68-1.27-1.12-2.02-1.51-1.87-.98-3.91-1.44-5.91-2.03-1.02-.3-2.07-.49-3.15-.92.82-.16,1.56-.3,2.29-.45,1.3-.26,2.57-.61,3.73-1.3.15-.09.34-.16.31-.39-.03-.19-.2-.24-.36-.29-.42-.13-.84-.28-1.26-.39-2.38-.6-4.75-.52-7.13,0-.64.14-1.03.1-1.52-.1.1-.05.18-.11.27-.13,1.75-.43,3.4-1.15,5.07-1.81.96-.38,1.93-.72,2.75-1.37.26-.2.71-.38.61-.75-.09-.36-.57-.32-.89-.38-2.04-.34-4.08-.43-6.15-.27-3.58.29-7.15.7-10.72,1.04-4.83.45-9.65.93-14.49,1.25-2.33.15-4.65.38-6.99.41-.01,0-.03.02-.04.02,0-.01,0-.03,0-.03.94-.28,1.87-.59,2.82-.82,2.71-.65,5.43-1.26,8.14-1.9,3.46-.81,6.92-1.63,10.41-2.34,3.17-.64,6.37-1.06,9.6-1.31,3.36-.26,6.72-.33,10.08-.11,1.23.08,2.42-.02,3.44-.82.61-.48.66-1.07.12-1.63-.27-.28-.6-.5-.93-.71-.88-.54-1.85-.88-2.82-1.26.24-.1.46-.12.69-.14,1.44-.15,2.87-.04,4.31,0,1.22.03,2.45.09,3.67-.08,1.05-.14,1.63-.83,1.55-1.88-.07-.9-.48-1.65-1.14-2.26-.57-.52-1.23-.9-1.97-1.3,1.01-.26,1.82-.79,2.73-1.1,1.83-.64,3.66-1.3,5.47-2,.93-.36,1.83-.82,2.48-1.61.79-.97.76-1.33-.41-1.92Zm-93.7-61.75s.04.01.06.02c-.05.07-.05.02-.06-.02Zm-49.28,18.87s-.01-.03-.02-.04c0,0,.02,0,.02.01,0,0,0,.02,0,.03Zm-9.35,16.33s0,0,0,0h.02s-.01,0-.01,0Zm38.22-11.95s0,.1,0,.15c-.01,0-.02,0-.04,0,.01-.05.03-.09.04-.14Z"/>
        </g>
      </g>
    </g>
  </g>
</svg>