<?xml version="1.0" encoding="UTF-8"?>
<svg xmlns="http://www.w3.org/2000/svg" viewBox="0 0 170.63 236.26">
  <defs>
    <style>
      .cls-1 {
        fill: #19995c;
      }

      .cls-1, .cls-2, .cls-3, .cls-4, .cls-5, .cls-6, .cls-7, .cls-8 {
        stroke-width: 0px;
      }

      .cls-2 {
        fill: #b2ddc9;
      }

      .cls-3 {
        fill: #008d4a;
      }

      .cls-9 {
        isolation: isolate;
      }

      .cls-4 {
        fill: #cce8db;
      }

      .cls-5 {
        fill: #eab520;
        mix-blend-mode: soft-light;
      }

      .cls-6 {
        fill: #fff;
      }

      .cls-7 {
        fill: #33a46e;
      }

      .cls-8 {
        fill: #d1c4ba;
      }
    </style>
  </defs>
  <g class="cls-9">
    <g id="Layer_2" data-name="Layer 2">
      <g id="Blancos">
        <path class="cls-6" d="m169.1,65.14l-4.78-9.37c6.06-8.21-.71-18.03-5.77-24.9,5.19-11.17-8.22-20.23-14.94-26.81-6.96-6.58-16.98-4.69-23.1,2.21-5.12-5.58-20.02-3.08-26.72-3.59-5.39,0-10.13,2.85-12.77,7.13-12.18-1.22-25.41,1.95-24.19,16.95.71.28,4.99,54.97-13.63,98.18-1.1,3.14-3.79,5.65-5.56,8.4-2.68,3.71-5.28,7.49-7.57,10.98-4.44,6.73-8.61,13.62-12.55,20.74-3.89,7.09-7.58,14.4-10.74,21.87-1.16,1.69-2.2,3.66-2.93,5.56h0c-1.11,2.83-1.73,5.94-1.73,9.01-5.79,9.59,1.26,22.63,9.18,28.94,4.99,2.5,14.21,5.53,18.97,5.8,8.51-.63,18.49-4.86,20.09-14.21,3.3-3.62,5.52-8.55,6.22-14.1,7.8-24.69,18.81-41.51,31.19-59.89,39.17-56.88,92.63-57,81.34-82.91Z"/>
      </g>
      <g id="Productos">
        <g>
          <path class="cls-8" d="m16.99,207.84c-.94.39-2.58,1.14-1.93,2.39.7,1.05,2.8-.2,3.19,1.2.03.11-.58.74-.67.86-.16.22-.32.43-.47.66-.12.18-.39.5-.38.73.02.33.46.25.7.29.42.06.79.22,1.02.59.18.28.26.61.3.94.03.24.04.47.04.71,0,.58-.14,1.15.45,1.52.3.19.62.1.91-.06.78-.42,1.31-1.18,2.07-1.63.18-.11.94-.47,1.11-.16.5.91.02,2.16.51,3.1,1.6,2.8,2.73-3.66,4.33-1.6.73,1.24.44,4.46,2.67,3.8.92-.95.51-2.62,1.37-3.59,1.29-.91,1.45,2.5,2.91,2.09,1.1-.3.28-1.78.08-2.38-.27-.81-.17-1.7-.44-2.53s-.69-1.53-1.27-2.14c-.94-.98-2.18-1.62-3.42-2.13-.98-.4-2-.72-3-1.08-4.84-1.73-4.5-4.58-10.07-1.6Z"/>
          <path class="cls-3" d="m133.31,14.99s-23.36,19.62-31.14,38.93,3.11,24.92,3.11,24.92c0,0,3.43-18.39,39.24-53.26l-11.21-10.58Z"/>
          <path class="cls-1" d="m110.77,17.7s-3.11,52.01-12.46,67.89l-21.5,16.76s15.88-38.56,16.98-84.66h16.98Z"/>
          <path class="cls-7" d="m143.22,34.92s-57.56,39.48-70.64,80.63h16.51s17.44-32.67,62.6-67.86l-8.47-12.77Z"/>
          <path class="cls-7" d="m78.49,118.95c-.11-7.05-1.86-11.81-4.32-12.5-3.58-.99-11.16,9.56-15.86,21.32,20-52.06,13.39-102.94,13.39-102.94h16.79c1.24,64.13-6.88,87.55-10,94.12Z"/>
          <path class="cls-2" d="m78.38,118.93c-.03.14-.07.28-.11.43-.39,1.19-1.32,2.12-2.22,2.99-9.25,9.02-18.5,18.03-27.76,27.05,4.3-6.95,7.02-14.73,10.25-22.24,1.51-3.5,3.15-6.96,5.1-10.23s4.21-6.36,6.93-9.02c.54-.53,1-1,1.72-1.23.91-.29,1.78-.37,2.63.16.9.56,1.48,1.52,1.9,2.49.94,2.15,1.28,4.51,1.55,6.85.11.92.2,1.86,0,2.76Z"/>
          <path class="cls-1" d="m155.74,71.98s-46.68,21.92-80.05,67.19c7.01-11.4,9.35-22.71,6.29-24.97-3.02-2.23-12.77,4.38-21.39,13.87,20.21-24.81,48.76-51.71,87.36-71.35l7.79,15.26Z"/>
          <path class="cls-4" d="m75.69,139.17c-4.8,6.5-9.31,13.48-13.38,20.95,0,0-16.51,26.9-20.56,45.4,0,0-.62,14.09-15.88,6.61-15.26-7.47-5.92-17.75-5.92-17.75,0,0,11.91-31.05,40.64-66.31,8.62-9.49,18.37-16.1,21.39-13.87,3.06,2.26.72,13.57-6.29,24.97Z"/>
          <path class="cls-5" d="m147.95,56.72c-6.88,3.5-13.43,7.23-19.68,11.14,6.8-6.48,14.57-13.27,23.42-20.17l-8.47-12.77s-10.92,7.49-24.32,19.34c5.79-7.78,13.99-17.36,25.63-28.69l-11.21-10.58s-14.89,12.51-24.85,27.38c1.64-13.54,2.31-24.67,2.31-24.67h-16.98c-.41,17.28-2.9,33.5-5.85,47.02.6-11.12.85-24.3.55-39.89h-16.79s6.57,50.61-13.24,102.53c-1.01,2.36-1.98,4.75-2.96,7.13-25.06,32.52-35.55,59.89-35.55,59.89,0,0-5.68,6.25-.94,12.54-.58.21-1.24.5-2.02.92-.94.39-2.58,1.14-1.93,2.39.7,1.05,2.79-.2,3.19,1.2.03.11-.58.74-.67.86-.16.22-.32.43-.47.66-.12.18-.39.5-.38.73.02.33.46.25.7.29.42.06.79.22,1.02.59.18.28.26.61.3.94.03.24.04.47.04.71,0,.58-.14,1.15.45,1.52.3.19.62.1.91-.06.78-.42,1.31-1.18,2.07-1.63.18-.11.94-.47,1.11-.16.5.91.02,2.16.51,3.1,1.6,2.8,2.73-3.66,4.33-1.6.73,1.24.44,4.46,2.67,3.8.92-.95.51-2.62,1.37-3.58,1.29-.91,1.45,2.5,2.91,2.09,1.1-.3.28-1.78.08-2.38-.27-.81-.17-1.7-.44-2.53-.06-.18-.13-.35-.2-.51,6.84-.65,7.2-8.75,7.2-8.75,4.05-18.5,20.56-45.4,20.56-45.4,4.07-7.47,8.58-14.45,13.38-20.95,33.37-45.27,80.05-67.19,80.05-67.19l-7.79-15.26Z"/>
        </g>
      </g>
    </g>
  </g>
</svg>