<?xml version="1.0" encoding="UTF-8"?>
<svg xmlns="http://www.w3.org/2000/svg" viewBox="0 0 162.54 212.04">
  <defs>
    <style>
      .cls-1 {
        fill: #f49297;
        mix-blend-mode: hue;
        opacity: .8;
      }

      .cls-1, .cls-2, .cls-3, .cls-4, .cls-5 {
        stroke-width: 0px;
      }

      .cls-2 {
        fill: #008d4a;
      }

      .cls-6 {
        isolation: isolate;
      }

      .cls-3 {
        fill: #e64228;
      }

      .cls-4 {
        fill: #fff;
      }

      .cls-5 {
        fill: #33a46e;
      }
    </style>
  </defs>
  <g class="cls-6">
    <g id="Layer_2" data-name="Layer 2">
      <g id="Blancos">
        <path class="cls-4" d="m153.81,111.24c-6.84-11.88-21.23-18.92-31.49-21.35-1.68-.4-3.38-.71-5.09-.94.33-.31.66-.62.99-.93,1.21-1.14,2.47-2.33,3.75-3.61,2.7-2.7,5.66-6.14,7.24-11.16,2.63-8.37-.19-17.33-7.02-22.3-.61-.44-1.21-.83-1.82-1.17.06-1.46.02-2.9-.12-4.33-.77-7.72-4.64-14.63-10.62-18.95-1.62-1.17-3.39-2.13-5.25-2.86-.2-.49-.41-.97-.64-1.45-3.35-7.08-9.4-12.32-16.6-14.4-2.17-.62-4.42-.94-6.7-.94-.6,0-1.19.02-1.78.07-1.63-1.34-3.39-2.52-5.26-3.53-4.11-2.22-8.61-3.39-13-3.39s-8.9,1.29-12.52,3.73c-2.22,1.5-4.12,3.38-5.63,5.56-.58.2-1.14.42-1.66.65-.23-.26-.47-.53-.72-.79-4.68-4.98-10.93-7.83-17.15-7.83-2.5,0-4.94.45-7.27,1.34C8.9,5.17,4.09,10.87,1.92,18.7-.29,26.67.18,35.1,3,42.7c-1.31,2.44-2.23,5.14-2.68,7.99-1.04,6.62.42,13.62,4.23,20.21.79,1.38,1.63,2.61,2.48,3.71-.25,4.14.25,8.28,1.51,12.14,2.88,8.77,9.62,15.89,18.03,19.03.86.32,1.72.59,2.56.83,1.49,3.34,3.88,6.28,6.89,8.34,3.7,2.54,8.05,3.82,12.94,3.82,1.52,0,3.05-.12,4.67-.37,2.83-.43,5.39-1.12,7.72-1.84-5.2,8.85-7.88,18.92-7.39,28.93.78,15.82,9.7,30.77,23.05,40.16.09.75.24,1.5.46,2.24,1.6,5.66,5.8,10.26,11.52,12.63,3.11,1.29,5.92,1.63,7.77,1.85l.24.03c3.04.37,7.41,1.05,10.24,2.76.42.25.85.52,1.29.8,3.85,2.42,9.68,6.08,17.32,6.08h0c2.66,0,5.28-.46,7.78-1.35,8.45-3.03,14.46-10.77,15.32-19.7.25-2.61,0-4.9-.23-6.6.16-.21.32-.43.47-.62.65-.86,1.39-1.83,2.13-2.93,7.12-10.6,11.1-23.48,11.21-36.25.1-11.72-2.92-23.24-8.73-33.33Z"/>
      </g>
      <g id="Productos">
        <g>
          <path class="cls-2" d="m100.07,85.49c3.17-4.36,7.45-7.83,11.27-11.67,1.48-1.48,2.93-3.09,3.55-5.06s.2-4.41-1.53-5.67c-1.58-1.15-3.72-1.04-5.68-1.27s-4.21-1.2-4.46-3.08c-.11-.85.22-1.68.53-2.47,1.13-2.97,1.89-6.15,1.57-9.32s-1.81-6.35-4.48-8.28c-2.66-1.92-6.56-2.34-9.27-.57.3-3.2,0-6.53-1.39-9.48s-3.98-5.48-7.2-6.41-7.01-.02-8.99,2.54c-1.57-3.42-4.33-6.33-7.71-8.16-3.1-1.67-7.15-2.35-10.02-.42-2.22,1.49-3.22,4.25-3.18,6.89s.97,5.18,1.95,7.65c.2.49.37,1.11,0,1.49-.19.19-.47.26-.73.33-2.87.79-5.22,2.71-7.3,4.75-1.28,1.26-2.51,2.61-3.22,4.24-1.35,3.12-.5,6.9,1.63,9.65s5.38,4.54,8.78,5.53c2.09.61,4.27.95,6.25,1.84-.2,2.17-2.77,3.16-4.51,4.52-2.4,1.87-3.47,4.94-3.76,7.92-.28,2.87.14,5.98,2.05,8.24,2.48,2.92,6.71,3.65,10.52,4.45,3.49.74,6.97,1.71,10.14,3.33,8.03,4.16,15.32,11.02,22.06,16.97-2.74-5.94-.55-13.4,3.13-18.48Z"/>
          <path class="cls-5" d="m91.78,88.18c-.35-4.36.83-8.7.91-13.07.1-5.26-1.51-10.65-4.97-14.61s-8.87-6.33-14.08-5.59c.42-3.74.17-7.67-1.58-11.01-1.37-2.61-3.68-4.78-6.49-5.7s-6.08-.49-8.39,1.33c-.1-4-1.12-7.96-2.94-11.52-1.29-2.5-3.55-5.08-6.34-4.73-3.43.44-5.22,5.02-8.67,5.33-1.74.16-3.38-.87-4.63-2.1-2.16-2.13-3.58-4.9-5.66-7.11s-5.28-3.85-8.11-2.77c-2.43.93-3.76,3.55-4.46,6.05-2.16,7.79-.02,16.63,5.46,22.58-3.55.76-6.13,4.15-6.69,7.73s.6,7.25,2.41,10.39c1.39,2.42,3.4,4.75,6.13,5.32-1.86,4.16-2.29,9.01-.87,13.34s4.76,8.06,9.03,9.65c2.57.96,5.32,1.12,8.03,1.3,1.17.08,6.57-.37,4.84,2.01-.39.54-.99.9-1.44,1.39-1.59,1.76-.71,4.81,1.25,6.15s4.52,1.36,6.87,1c5.21-.8,10.06-3.17,15.24-4.1,5.6-1,11.32-.27,16.83.89,2.67.56,4.71.97,6.8,2.74,1.98,1.66,3.65,3.68,5.74,5.21,2.16,1.58,2.9-.01,2.81-2.31-.12-3.03-2.39-5.34-3.77-7.88-1.68-3.08-2.97-6.41-3.26-9.94Z"/>
          <path class="cls-3" d="m126.59,191.72c.56-2.87-1.73-6.04-4-7.51-1.92-1.25-4.23-1.78-6.5-2.07-6.66-.84-13.3-1.31-19.73-3.4-14.9-4.84-26.64-18.78-27.39-33.99-.65-13.14,6.41-25.77,17.1-33.48,9.3-6.71,21.3-9.5,32.81-6.78,7.83,1.85,17.79,7.03,21.93,14.23,4.46,7.76,6.8,16.78,6.73,25.72-.08,9.91-3.13,19.78-8.66,28.01-1.75,2.61-4.18,5.08-5.12,8.14-.88,2.89.56,6.02.28,8.96-.3,3.11-2.51,5.96-5.45,7.01-4.93,1.77-9.56-1.83-13.56-4.24-4.86-2.94-10.57-4.13-16.2-4.81-1.38-.17-2.78-.31-4.06-.84s-2.45-1.52-2.83-2.86c.31,1.1,5.44,1.77,6.42,1.94,2.39.39,4.82.53,7.22.81,4.68.55,9.42,1.97,13.36,4.61,1.11.75,2.15,1.65,3.41,2.14s2.84.44,3.76-.54c.27-.29.43-.65.51-1.04Z"/>
          <path class="cls-1" d="m126.59,191.72c.56-2.87-1.73-6.04-4-7.51-1.92-1.25-4.23-1.78-6.5-2.07-6.66-.84-13.3-1.31-19.73-3.4-14.9-4.84-26.64-18.78-27.39-33.99-.65-13.14,6.41-25.77,17.1-33.48,9.3-6.71,21.3-9.5,32.81-6.78,7.83,1.85,17.79,7.03,21.93,14.23,4.46,7.76,6.8,16.78,6.73,25.72-.08,9.91-3.13,19.78-8.66,28.01-1.75,2.61-4.18,5.08-5.12,8.14-.88,2.89.56,6.02.28,8.96-.3,3.11-2.51,5.96-5.45,7.01-4.93,1.77-9.56-1.83-13.56-4.24-4.86-2.94-10.57-4.13-16.2-4.81-1.38-.17-2.78-.31-4.06-.84s-2.45-1.52-2.83-2.86c.31,1.1,5.44,1.77,6.42,1.94,2.39.39,4.82.53,7.22.81,4.68.55,9.42,1.97,13.36,4.61,1.11.75,2.15,1.65,3.41,2.14s2.84.44,3.76-.54c.27-.29.43-.65.51-1.04Z"/>
          <path class="cls-4" d="m119.84,110.22c15.82,3.5,25.52,21.55,22.22,36.94-.4-3.87-1.1-7.58-2.15-11.16-3.25-11.18-9.93-19.91-20.07-25.77h0Z"/>
          <path class="cls-2" d="m26.36,33.63c7.53,11.92,15.24,23.73,25.3,33.63,10.01,9.83,22.3,17.26,32.97,26.45-12.21-7.31-24.78-14.37-35.08-24.32-10.12-10.13-17.74-22.6-23.2-35.76h0Z"/>
        </g>
      </g>
    </g>
  </g>
</svg>