<?xml version="1.0" encoding="UTF-8"?>
<svg id="Layer_2" data-name="Layer 2" xmlns="http://www.w3.org/2000/svg" viewBox="0 0 109.13 205.97">
  <defs>
    <style>
      .cls-1 {
        fill: #99d1b7;
      }

      .cls-1, .cls-2, .cls-3, .cls-4, .cls-5 {
        stroke-width: 0px;
      }

      .cls-2 {
        fill: #008d4a;
      }

      .cls-3 {
        fill: #cce8db;
      }

      .cls-4 {
        fill: #fff;
      }

      .cls-5 {
        fill: #4caf81;
      }
    </style>
  </defs>
  <g id="Blancos">
    <path class="cls-4" d="m107.47,180.67c-2.15-4.72-5.86-7.46-8.08-9.1-.17-.12-.34-.24-.5-.37-1.41-1.68-2.7-3.72-3.9-6.2.02-.35.06-.78.17-1.24.87-4.03,2.64-8.37,5.42-13.27,3.91-6.92,2.67-15.14-2.59-20.29-.05-2.19-.37-5.12-1.73-8.12.5-3.53-.14-7.09-1.79-10.16-.04-.41-.1-.82-.17-1.24-.76-4.27-3.25-8.13-6.8-10.57-2.15-1.48-4.6-2.42-7.21-2.79-.12-.36-.27-.74-.43-1.13.43-.83.91-1.8,1.37-2.89.27-.65.5-1.25.7-1.86.58-1.75.94-3.52,1.05-5.25.12-1.86.07-5.96-2.1-9.99.89-2.21,1.53-4.88,1.42-7.97-.22-6.28-3.69-11.62-8.68-14.3.36-1.64.58-3.49.46-5.48-.34-5.99-3.92-11.08-8.97-13.6,0-1.48-.16-3.12-.6-4.86-.66-2.6-1.89-4.9-3.54-6.79.4-1.36.61-2.77.64-4.23.09-4.91-2.03-9.49-5.76-12.53-2.81-2.3-6.39-3.57-10.07-3.57-.75,0-1.51.05-2.27.16C40.76,1.11,37.49,0,34.05,0c-1.39,0-2.75.18-4.06.53-1.34-.35-2.73-.53-4.14-.53-1.6,0-3.18.23-4.73.7-4.09,1.24-7.39,3.94-9.47,7.56-2.28.63-4.4,1.76-6.19,3.32-6.66,5.81-7.3,15.79-1.54,23.33-.65,1.13-1.17,2.34-1.54,3.62-1.19,4.13-.73,8.52,1.29,12.34,1.37,2.59,3.43,4.85,5.96,6.53.5.33.99.63,1.47.9.24,2.54,1.06,5.08,2.47,7.45-.63,1.5-.91,2.74-1.02,3.35-.74,4.03.06,8.06,2.1,11.49-.13,4.02,1.26,8.01,3.98,11.21,1.8,2.11,3.85,3.57,5.76,4.6-4.69,4.88-6.04,11.91-3.33,17.93,1.86,4.15,5.4,7.25,9.83,8.71,0,.01.01.02.02.03-.77,1.58-1.3,3.31-1.54,5.15-.5,3.9.3,7.61,2.14,10.77-.92,5.21.81,10.59,4.8,14.55.43.42.87.82,1.33,1.19-.13,1.25-.11,2.52.06,3.8,1.28,9.26,9.35,12.8,12.07,13.97l.6.33c2.04,1.14,4.34,2.43,6.9,3.58.81.37,1.62.72,2.42,1.06,1.44.61,3.23,1.38,3.68,1.81.38.36.8.8,1.24,1.28,3.24,6.78,6.39,11.97,10.06,16.59,1.84,2.33,4.5,5.24,8.7,7.15,2.45,1.11,5.06,1.68,7.73,1.68h0c6.23,0,11.92-3.07,15.22-8.2,3.26-5.07,3.68-11.46,1.12-17.1Z"/>
  </g>
  <g id="Productos">
    <g>
      <path class="cls-2" d="m77.33,164.14c.03.06.07.13.1.19.45.88.83,1.82,1.12,2.76.14.45.28.94.27,1.41-.01.41-.3.9-.76.52-.47-.39-.76-.98-1.11-1.47-.69-.97-1.42-1.9-2.22-2.78-.59-.65-1.07-1.4-1.62-2.1-1.14-1.45-2.36-2.83-3.65-4.15-1.68-1.73-3.48-3.33-5.29-4.9-1.64-1.43-3.29-2.91-5.15-4.11-.85-.55-.07-1.1.61-1.07,2.23.12,4.65.72,6.54,1.95,1.99,1.29,3.47,3.23,5.07,4.94,2.44,2.62,4.39,5.67,6.11,8.8Z"/>
      <path class="cls-2" d="m41.3,20.98c-.17.22-.34.45-.5.68-1.72,2.52-3.01,5.35-3.69,8.33-.72,3.14-.5,6.19-.34,9.37.07,1.33.25,2.8,1.23,3.71.14.13.34.26.52.19.2-.07.26-.33.29-.54.16-1.47.06-2.96.14-4.43.09-1.57.28-3.14.56-4.68.46-2.53,1.19-5.01,2.15-7.4s2.67-4.29,4.29-6.24c.3-.36.61-.75.62-1.25,0-.25-.08-.5-.27-.66-.24-.19-.58-.2-.88-.14-1.63.32-3.13,1.81-4.12,3.06Z"/>
      <path class="cls-2" d="m15.32,22.89c-.86.75.03,2.29.57,2.98,1.11,1.41,2.33,2.73,3.63,3.96,1.41,1.34,2.81,2.81,3.8,4.49.45.76.75,1.58,1.31,2.3.6.77,1.32,1.44,2.1,2.02,1.78,1.31,4,1.88,5.72,3.19,1.95,1.47,3.8,3.07,5.54,4.78.13-.38-.04-.79-.23-1.15-1.09-2.12-2.76-3.88-4.3-5.68-3.19-3.74-6.61-7.3-9.57-11.24-1.02-1.28-2.06-2.57-3.3-3.64-.77-.66-1.63-1.24-2.56-1.64-.65-.28-2.08-.93-2.73-.37Z"/>
      <path class="cls-5" d="m16.94,43.86c.23.43.62.79,1.02,1.06.93.62,2.03.94,3.09,1.31,2.99,1.04,6.08,1.55,8.75,3.35.94.63,1.81,1.37,2.74,2.02,1.53,1.06,3.21,1.89,4.75,2.94,2.32,1.6,4.24,3.7,6.23,5.7.06.06.12.12.2.13.15.03.28-.13.33-.28.17-.52-.11-1.06-.38-1.53-1.39-2.4-2.88-4.75-4.46-7.03-3.54-5.13-9.47-8.32-15.49-9.54-1.66-.34-3.38-.59-5.08-.58-.8,0-1.61.5-1.84,1.29-.12.42-.05.82.14,1.17Z"/>
      <path class="cls-1" d="m47.59,75.29c-2.42-2.63-5.86-4.35-9.38-4.86-2.3-.33-4.63-.3-6.96-.25-1.3.03-3.63-.09-3.93,1.6-.18,1,.68,1.82,1.46,2.28,1.96,1.17,4.27,1.16,6.47.96,2.37-.21,4.56-.13,6.83.61,1.63.53,3.19,1.3,4.59,2.29.71.5,1.5,1.06,2.06,1.72.47.55.8,1.45,1.55,1.68.55.17-.16-2.11-.2-2.2-.6-1.4-1.47-2.72-2.5-3.84Z"/>
      <path class="cls-2" d="m52.99,74.93c-.25,2.63-.5,5.25-.75,7.88-.23,2.45-.47,4.91-.42,7.37.01.75.1,1.6.69,2.06.24.19.61.28.83.07.12-.11.15-.29.18-.45.36-2.01.45-4.06.87-6.06.13-.62.29-1.24.45-1.86,1.5-5.83,2.57-11.78,3.21-17.77.07-.68.14-1.37-.06-2.02s-.74-1.24-1.42-1.29c-1.86-.15-2.34,3.62-2.6,4.82-.52,2.39-.75,4.82-.98,7.25Z"/>
      <path class="cls-5" d="m44.5,95.09c.52.89,1.05,1.77,1.69,2.58,2.15,2.74,5.33,4.55,7.35,7.39,1.24,1.74,1.98,3.79,3.02,5.66.35.62.75,1.24,1.32,1.67.24.18.59.31.81.11.13-.12.15-.31.16-.48.23-3.74-1.04-7.45-3.01-10.59-.82-1.3-1.7-2.51-2.85-3.54s-2.49-1.96-3.6-3.09c-.41-.42-.81-.86-1.18-1.32-.86-1.05-2.27-3.04-3.9-2.39s-.36,3.03.21,4.02Z"/>
      <path class="cls-3" d="m78.55,164.5c-6.67-18.66-14.16-37.73-18.6-57.01-3.86-16.76-8.51-33.34-13.95-49.65-1.66-4.98-3.4-9.95-5.83-14.6-.89-1.71-1.96-3.32-2.89-5.02-.37-.68-.77-1.38-1.41-1.8s-1.62-.44-2.1.17c-.3.38-.33.9-.28,1.38.24,2.28,1.64,4.78,2.86,6.69,4.32,6.77,6.37,15.19,8.84,22.77,10.75,33.11,16.21,67.97,30.09,100.26,3.04,7.08,6.38,14.11,11.17,20.15.88,1.11,1.85,2.22,3.14,2.8,2.59,1.17,5.54-.86,4.23-3.75-.88-1.94-4.23-3.56-5.7-5.21-4.4-4.93-7.35-11-9.56-17.18Z"/>
      <path class="cls-1" d="m31.73,19.61c-.41,2.21-.42,4.56-.37,6.62.09,3.59.74,7.19,2.16,10.51.42.99.91,1.95,1.47,2.88.57.94,1.29,1.89,2.33,2.25.13.05.28.08.42.04.16-.05.26-.21.34-.36.58-1.16.23-2.54-.12-3.79-.58-2.08-1.13-4.18-1.66-6.28-.56-2.27-1.16-4.56-1.12-6.92.02-1.41.2-2.81.35-4.21s.37-2.71,0-4.02c-.33-1.17-1.7-1.96-2.43-.68-.67,1.18-1.09,2.54-1.36,3.96Z"/>
      <path class="cls-5" d="m73.56,147.36c.26-2.19.77-4.35,1.49-6.49,1.4-4.2,4.83-7.52,5.69-11.97.16-.83.73-2.15,1.58-1.06.93,1.2.64,3.49.62,4.91-.02,2.43-.83,4.75-1.8,6.95-1.43,3.22-2.84,6.35-3.93,9.7-.43,1.32-.95,2.64-1.03,4.02-.04.64.14,5.01-1,4.7-.86-.23-1.18-1.53-1.32-2.26-.56-2.85-.63-5.69-.29-8.5Z"/>
      <path class="cls-1" d="m58.95,140.23c-1.83-.43-3.71-.67-5.59-.73-1.18-.04-2.36,0-3.53.11-1.52.14-4.9,1.32-2.94,3.26.39.39.89.64,1.41.84,3.11,1.2,6.41.76,9.66.93s6.42,1.18,9.16,2.92c1.31.84,2.53,1.86,3.36,3.17.28.45.57,1.18,1.03,1.48,1.04.67.73-.84.53-1.3-.77-1.71-1.8-3.36-3.02-4.79-2.38-2.79-5.4-4.63-8.91-5.6-.38-.11-.76-.2-1.15-.29Z"/>
      <path class="cls-5" d="m64.49,134.48c-.05-.05-.11-.11-.16-.16-2.33-2.24-5.04-3.91-8.19-4.7-3-.75-6.24-.96-9.33-1.02-1.07-.02-2.38.28-2.54,1.51-.25,1.94,1.96,2.91,3.48,3.28,2.44.59,4.97.55,7.44.97,2.33.4,4.67,1.1,6.72,2.31,1.01.6,1.93,1.32,2.86,2.02.84.64,1.6,1.53,2.64,1.83.03,0,.07.02.1,0,.04-.02.05-.07.06-.12.3-2.32-1.52-4.41-3.09-5.93Z"/>
      <path class="cls-2" d="m67.39,118.25c1.81-1.85,3.92-3.27,6.16-4.56,1.16-.67,2.35-1.3,3.7-1.48.59-.08,1.23-.05,1.72.28s.74,1.07.4,1.55c-.28.39-.9.55-1.3.77-.55.3-1.08.62-1.61.96-1.05.68-2.04,1.44-3,2.25-2.79,2.34-5.2,5.1-8.02,7.4-.33.27-.8.38-1.15.09-.18-.15-.29-.36-.36-.57-.73-2.23,1.57-4.61,2.91-6.09.18-.2.37-.4.56-.6Z"/>
      <path class="cls-5" d="m62.66,108.96c.05.67.1,1.34.12,2.01.11,2.61-.35,5.21-.27,7.83.1,2.87.81,5.67,1.51,8.45.57,2.23,1.14,4.47,1.71,6.7.13.5.38,1.46.95,1.66.77.28.82-.93.82-1.48-.01-4.2-.02-8.4-.03-12.59-.01-6.12-.03-12.27-1.15-18.29-.14-.76-.32-1.57-.87-2.13-1.54-1.58-2.36.89-2.63,2.12-.42,1.91-.31,3.8-.17,5.71Z"/>
      <path class="cls-1" d="m53.88,115.85c-2.56-1.54-5.52-2.47-8.5-2.45-.65,0-1.41.13-1.7.71-.23.46-.04,1.03.24,1.46.79,1.23,2.18,1.9,3.4,2.71,2.15,1.44,3.86,3.46,6.11,4.76.98.57,2.06.88,3.08,1.37,2.62,1.25,4.01,3.95,6.33,5.58.13.09.29.19.45.17.37-.05.41-.56.33-.93-.87-4.29-3.4-8.21-6.65-11.09-.96-.85-1.99-1.62-3.09-2.28Z"/>
      <path class="cls-2" d="m55.29,110.39c-2.04-1.18-4.32-1.95-6.66-2.29-2.08-.3-4.16-.04-6.18.53-2.14.6-4.35.72-6.54.23-.45-.1-.96-.27-1.15-.69-.25-.55.19-1.17.64-1.56,1.85-1.61,4.39-2.12,6.81-2.57.81-.15,1.63-.3,2.45-.36,3.95-.29,7.83,1.53,10.76,4.19.61.55,1.18,1.15,1.68,1.79.4.51,1.24,1.48,1.27,2.16.04.82-.66.76-1.07.3-.63-.7-1.19-1.26-2.01-1.74Z"/>
      <path class="cls-1" d="m54.47,91.11c-.07-2.14.36-4.43.92-6.32.9-3,2.15-5.92,3.54-8.73,1.56-3.18,3.51-6.26,6.26-8.54,1.23-1.02,2.03-.07,2.08,1.27.08,2.17-1.66,3.98-2.82,5.67-2.06,3.03-3.64,6.34-5.11,9.68-.66,1.5-1.32,3-1.99,4.49-.65,1.44-.96,3.03-1.63,4.46-.1.21-.25.41-.47.48-.83.26-.76-2-.78-2.46Z"/>
      <path class="cls-2" d="m51.04,87.77c-1.3-1.89-2.9-3.57-4.48-4.78-2.38-1.82-4.89-2.31-7.79-2.61-1.51-.16-3.03-.25-4.55-.29-1.29-.03-2.94-.35-4.13.31-.68.38-.43,1.16,0,1.65,1.19,1.4,3.34,1.88,5,2.43,2.81.94,5.68,1.7,8.43,2.8,4.1,1.79,6.97,5.17,10.03,8.29.04.04.09.09.15.09.13,0,.18-.16.17-.29-.06-2.56-1.2-5.25-2.82-7.61Z"/>
      <path class="cls-2" d="m50.36,59.56c-1.46,4.04-2.04,8.46-1.21,12.68.1.5.23,1.02.58,1.39.56-.96.77-2.08,1.04-3.16.92-3.71,2.54-7.2,4.19-10.63.83-1.73,1.67-3.45,2.43-5.21.69-1.58,1.78-3.55,1.68-5.32-.05-.85-.77-1.31-1.59-1.13-.96.21-1.42,1.1-1.96,1.84-1.38,1.91-2.68,3.94-3.68,6.07-.56,1.12-1.05,2.28-1.48,3.46Z"/>
      <path class="cls-2" d="m26.77,58.49c2.58,3.35,6.31,5.61,10.06,7.58.92.48,1.84.95,2.72,1.5,3.06,1.91,5.49,4.68,7.62,7.6.11.14.25.31.42.28.21-.03.29-.28.32-.49.1-.96-.19-1.91-.52-2.81-1.24-3.38-3.15-6.52-5.67-9.08s-5.65-4.55-9.08-5.62c-1.18-.37-2.4-.63-3.55-1.1-.74-.3-2.04-.97-2.76-.28s0,1.83.45,2.43Z"/>
      <path class="cls-1" d="m50.41,55.44c.84-3.31,1.66-6.64,1.81-10,.03-.56,0-1.2-.43-1.56-.21-.18-.5-.26-.78-.27-.75-.02-1.43.46-1.86,1.07s-.63,1.35-.8,2.07c-.8,3.36-.88,6.74-1.37,10.14-.25,1.71-.4,3.44-.31,5.17.08,1.4.24,2.85.67,4.19,1.74-.74,1.42-3.63,1.72-5.14.37-1.89.86-3.78,1.34-5.68Z"/>
      <path class="cls-2" d="m42.57,43.42c-.38,2.26-.4,4.56-.38,6.85.02,1.57.06,3.15.47,4.67s1.23,2.97,2.52,3.86c-.02-.71-.26-1.4-.44-2.09-.69-2.61-.59-5.43.29-7.98.33-.95.76-1.86,1.2-2.76,1.49-3.03,2.99-5.89,3.63-9.24.19-1,.33-2.05.07-3.04-.1-.38-.3-.81-.74-.82-.29,0-.56.13-.8.29-1.02.66-1.72,1.61-2.41,2.59-.76,1.07-1.54,2.14-2.09,3.33-.63,1.38-1.06,2.85-1.31,4.34Z"/>
      <path class="cls-5" d="m25.37,25.86c.39,1.41.89,2.79,1.56,4.07,1.73,3.3,4.63,5.82,6.62,8.97.83,1.3,1.58,2.7,2.71,3.77.24.23.55.46.88.41,1.57-.25-2.44-8.22-2.92-9.09-1.2-2.18-2.48-4.44-3.47-6.77s-1.5-4.85-2.08-7.37c-.29-1.24-.54-2.65-1.18-3.76-.4-.7-1.22-1.28-2-1.04-.84.25-1.16,1.26-1.25,2.12-.29,2.82.39,5.97,1.14,8.69Z"/>
      <path class="cls-2" d="m77.72,161.36c-.28,2.86.12,5.74,1.27,8.38.21.48.67,1.51,1.37,1.23.35-.14.38-.46.29-.76-.93-3.03-.83-6.53-.17-9.6,1.33-6.14,3.94-12.03,7.02-17.48.46-.82.68-1.82-.31-2.4-1-.58-2.41.29-3.02,1.1-2.03,2.71-3.19,5.88-4.32,9.04-1.21,3.37-1.8,6.94-2.14,10.5Z"/>
      <path class="cls-2" d="m70.24,138.71c-.43,2.81-.43,6.88,1.25,9.34.15.23.37.42.59.58.14.1.39.28.57.22.12-.04.13-.2.13-.3,0-.16.01-.32,0-.47-.03-.37-.13-.72-.2-1.08-.03-.13-.05-.26-.06-.39-.11-.98-.18-1.97-.18-2.95,0-1.87.21-3.74.71-5.55,1.66-6.06,4.58-11.8,7.95-17.08.51-.8.77-1.78-.18-2.41-.97-.64-2.42.17-3.07.94-2.17,2.59-3.5,5.7-4.8,8.79-1.39,3.3-2.17,6.84-2.7,10.37Z"/>
      <path class="cls-1" d="m67.67,86.72c-.09.27-.19.53-.3.78-.61,1.45-1.43,2.81-2.11,4.23s-1.06,3-1.45,4.57c-.74,2.93-1.44,5.87-2.32,8.75-.68,2.23-1.36,4.56-1.74,6.9-.08.48-.08,1.31-.5,1.65-1.47,1.19-1.21-3.52-1.19-4.06.08-2.03.12-4.06-.01-6.09-.06-.89-.14-1.77-.12-2.66.06-2.69,1.13-5.21,2.06-7.69,1.37-3.69,2.74-7.8,6.23-10.04.16-.1.33-.2.52-.23,1.12-.17,1.31,1.67,1.26,2.41-.03.5-.15,1-.31,1.48Z"/>
      <path class="cls-5" d="m50.12,77.91c.07-1.27.1-2.55.16-3.8.25-4.95-.09-9.65-1.57-14.41-.35-1.13-.64-2.6-1.47-3.49-.34-.36-.84-.62-1.33-.56-.74.09-1.23.82-1.47,1.53-.66,1.94-.21,4.07.25,6.07.66,2.92,1.3,5.84,1.84,8.79.56,3.07,1.02,6.5,2.53,9.27.05.09.11.19.21.23.42.15.61-1.1.65-1.34.1-.76.16-1.53.21-2.31Z"/>
      <path class="cls-5" d="m37.86,28.42c-.17-.64-.36-1.29-.79-1.78s-1.18-.78-1.77-.48c-.62.31-.82,1.1-.85,1.79-.08,1.72.45,3.41.9,5.07.64,2.39,1.14,4.81,1.49,7.26.26,1.79.44,3.63,1.18,5.28.18.4.6.88,1.02.47.31-.3.26-1.11.31-1.52.11-.97.13-1.94.14-2.92.03-2.83-.19-5.67-.64-8.47-.25-1.58-.58-3.15-.99-4.7Z"/>
      <path class="cls-5" d="m63.47,162.75c3.66,1.66,7.24,2.81,10.22,5.64,1.72,1.63,3.23,3.45,4.87,5.16.09.1.2.2.33.23.25.06.48-.18.53-.43.11-.6-.28-1.45-.5-1.98-1.85-4.43-4.71-8.44-8.29-11.64-1.09-.97-2.26-1.88-3.6-2.47-1-.44-2.07-.69-3.14-.94-2.9-.67-5.83-1.35-8.8-1.31-.71,0-1.46.08-2.01.52-2.01,1.63,2.53,3.03,3.53,3.59,2.26,1.26,4.5,2.56,6.86,3.62Z"/>
    </g>
  </g>
</svg>