<?xml version="1.0" encoding="UTF-8"?>
<svg xmlns="http://www.w3.org/2000/svg" viewBox="0 0 153.05 213.55">
  <defs>
    <style>
      .cls-1 {
        isolation: isolate;
      }

      .cls-2 {
        fill: #fff;
      }

      .cls-2, .cls-3, .cls-4, .cls-5 {
        stroke-width: 0px;
      }

      .cls-6, .cls-4 {
        mix-blend-mode: multiply;
        opacity: .25;
      }

      .cls-3 {
        fill: #d28248;
      }

      .cls-4, .cls-5 {
        fill: #cd7534;
      }
    </style>
  </defs>
  <g class="cls-1">
    <g id="Layer_2" data-name="Layer 2">
      <g id="Blancos">
        <path class="cls-2" d="m142.08,158.54c-3.34-2.92-6.88-4.79-10.38-6.01,1.49-2.12,2.71-4.42,3.61-6.89,2.99-8.2,2.18-17.22-2.29-25.41-1.62-2.97-3.66-5.74-6.17-8.36,1.71-3.66,2.8-7.65,3.19-11.79.83-8.98-1.78-17.83-7.1-24.74,2.43-9.92.73-20.73-4.97-29.38-1.77-2.69-3.67-4.83-5.35-6.71-1.15-1.29-2.23-2.5-2.77-3.38-.23-.37-.55-.97-.89-1.6-1.14-2.13-2.69-5.06-5.34-7.87-7.89-8.38-18.74-8.79-22.31-8.93-.3-.01-.6-.02-.91-.02-.88,0-1.7.04-2.46.11-.39-.58-.82-1.18-1.31-1.79C68.66,5.76,57.86,0,47,0c-1.93,0-3.88.18-5.78.54-13.41,2.51-24.38,13.38-26.7,26.42-1.96,11.06,3.13,22.03,13.22,29.34-1.29,1.59-2.19,3.25-2.83,4.86-12.15,3.13-21.79,12.51-24.26,24.5-1.24,6.02-.74,12.5,1.44,18.72.18.5.36,1,.53,1.49.13.37.29.8.43,1.2-2.62,6.66-3.4,13.4-2.31,20.08,1.45,8.97,6.33,17.39,13.38,23.11,1.06.86,2.06,1.61,2.94,2.26.41.31.9.67,1.32,1,.49,5.72,1.61,12.82,5.13,19.55,5.5,10.5,15.98,17.24,27.33,17.58.09,0,.19,0,.28,0,.6,1.25,1.32,2.69,2.25,4.17,4.94,7.84,11.65,12.98,19.41,14.87,2.21.54,4.5.81,6.81.81,5.33,0,9.78-1.4,13.35-2.52.78-.24,1.77-.56,2.62-.79,1.64,1.2,3.93,2.68,6.93,3.67,5.38,1.79,10.7,2.7,15.81,2.7.44,0,.88,0,1.33-.02,16.57-.51,29.04-9.63,32.55-23.79,2.77-11.18-1.2-23.43-10.1-31.2Z"/>
      </g>
      <g id="Productos">
        <g>
          <path class="cls-3" d="m51.73,90.62c.98,16.02.93,31.51,9.94,45.59,11.02,17.22,32.32,27.77,52.41,28.78,6.44.33,13.02.38,18.14,4.85,4.5,3.93,6.85,10.43,5.4,16.29-2.13,8.59-10.26,12.15-18.45,12.41-4.06.12-8.1-.64-11.94-1.92-3.35-1.11-5.09-4.39-8.66-4.72-7.59-.71-14.43,5.11-22.22,3.21-4.48-1.09-7.88-4.5-10.27-8.3-2.34-3.71-3.37-9.04-7.98-10.7-2.14-.77-4.51-.4-6.78-.47-6.3-.19-11.62-4.06-14.5-9.56-2.43-4.63-3.2-9.95-3.58-15.17-.47-6.52-5.03-8.58-9.65-12.33-4.24-3.44-7.15-8.47-8.02-13.85-.74-4.59.08-9.11,1.94-13.33,1.91-4.33.22-7.82-1.24-12-1.2-3.43-1.64-7.18-.9-10.74,1.71-8.35,10.07-13.55,18.24-13.63,1.51-.02,3.4-.08,4.01-1.46,1.06-2.37.13-6.31,2.13-8.21,3.79-3.61,7.67,3.35,8.66,6.17,2.16,6.19,2.94,12.6,3.33,19.08Z"/>
          <path class="cls-3" d="m40.42,46.48c1.51.75,3.04,1.41,4.44,2,16.17,6.8,31.44,17,34.46,35.67,1.11,6.87-.13,13.61,2.74,20.22,1.73,3.96,4.13,7.84,4.68,12.19.52,4.1-.66,8.22-.46,12.33.65,12.99,11.19,26.49,25.03,21.11,9.67-3.76,13.64-13.26,8.56-22.57-1.67-3.06-4.05-5.63-6.71-7.85-.68-.57-6.89-5.82-7.66-5.37,11.49-6.79,13.13-23.58,3.05-32.38-1.87-1.63-3.45-2.49-2.12-4.96,3.78-6.97,3.39-16.01-.97-22.64-2.44-3.71-5.97-6.62-8.32-10.39-1.49-2.38-2.5-5.09-4.43-7.14-3.08-3.27-7.66-4.05-11.95-4.22-2.85-.11-6.3,1.21-9.19.32-3.4-1.05-4.59-5.05-6.67-7.66-4.97-6.25-12.59-11.42-20.93-9.86-6.91,1.29-13.44,7.24-14.69,14.3-1.33,7.51,4.95,13.84,11.12,16.9Z"/>
          <g class="cls-6">
            <path class="cls-5" d="m28.7,106.76c8.31,1.11,17.1-3.21,18.01-12.21.7,9.48-9.74,14.96-18.01,12.21h0Z"/>
          </g>
          <path class="cls-4" d="m62.5,145.22c-2.54-7.03-10.1-9.85-16.64-7.95,6.05-4.21,7.2-12.28,3.56-18.71,2.2,5.72,1.91,12.83-2.78,17.22-.81.8-1.71,1.52-2.67,2.18-1.33.6-2.59,1.41-3.71,2.44,6.14-4.33,15.25-3.96,20.17,2.02l1.01,1.39.86,1.5c.22.54.45,1.07.68,1.61-.15-.56-.31-1.13-.47-1.69Z"/>
          <g class="cls-6">
            <path class="cls-5" d="m63.32,173.06c-.08-4.71,3.75-8.47,7.54-10.74,2.94-1.73,6.47-2.68,9.89-2.27,0,0,1.67.4,1.67.4.53.21,1.05.44,1.56.68-.55-.13-1.09-.28-1.62-.42l-1.65-.16-1.64.03c-6.37.68-14.64,5.77-15.74,12.48h0Z"/>
          </g>
          <g class="cls-6">
            <path class="cls-5" d="m99.35,169.07c-1.93,6.44-.42,12.97,2.21,19-3.91-5.25-5.54-13.06-2.21-19h0Z"/>
          </g>
          <g class="cls-6">
            <path class="cls-5" d="m88.35,119.96c1.83-2.59,4.67-4.52,7.82-5.32l.14.98c-2.58-.03-5.44-.55-7.26-2.5,3.37,2,8,1.46,11.74,1.33,0,0-4.38,1.15-4.38,1.15-2.95.77-5.63,2.35-8.07,4.36h0Z"/>
          </g>
          <g class="cls-6">
            <path class="cls-5" d="m82.73,84.91c1.64-2.35,4.16-4.09,6.92-5v.95c-2.61-.81-4.98-2.49-6.42-4.76,2.02,1.75,4.27,3.07,6.73,3.81l1.5.45c-3.17.94-6.09,2.4-8.72,4.55h0Z"/>
          </g>
          <g class="cls-6">
            <path class="cls-5" d="m95.71,46.11c.54,2.26-.6,4.63-2.1,6.3,0,0-.57-.79-.57-.79,2.31-1.09,5.1-1.02,7.25.13-2.33-.38-4.71-.25-6.82.76,0,0-2.48,1.2-2.48,1.2,2.09-2.08,4.37-4.53,4.73-7.61h0Z"/>
          </g>
          <g class="cls-6">
            <path class="cls-5" d="m50.53,46.47c6.58-1.63,13.12-5.87,15.41-12.5-.88,7.2-8.49,12.34-15.41,12.5h0Z"/>
          </g>
          <g class="cls-6">
            <path class="cls-5" d="m68.16,56.48c-3.55-4.21-3.05-11.35,1.15-14.95-2.91,4.46-3.32,10.05-1.15,14.95h0Z"/>
          </g>
        </g>
      </g>
    </g>
  </g>
</svg>