<?xml version="1.0" encoding="utf-8"?>
<!-- Generator: Adobe Illustrator 26.2.1, SVG Export Plug-In . SVG Version: 6.00 Build 0)  -->
<svg version="1.1" id="Layer_1" xmlns="http://www.w3.org/2000/svg" xmlns:xlink="http://www.w3.org/1999/xlink" x="0px" y="0px" viewBox="0 0 195.75 42.52" style="enable-background:new 0 0 195.75 42.52;" xml:space="preserve">
  <style type="text/css">
	.st0{fill:#5892C9;}
</style>
  <g>
    <path class="st0" d="M21.26,42.52C9.54,42.52,0,32.98,0,21.26C0,9.54,9.54,0,21.26,0s21.26,9.54,21.26,21.26
		C42.52,32.98,32.98,42.52,21.26,42.52z M21.18,12.88c0.03,0,1.73,1.82,1.73,3.28c0,1.58-1.23,1.95-1.65,1.95c-0.02,0-0.05,0-0.07,0
		h-0.02c-0.03,0-0.05,0-0.07,0c-0.41,0-1.65-0.38-1.65-1.95C19.45,14.7,21.15,12.88,21.18,12.88z M5.17,22.44h1.94v-3.58h3.26v-1.5
		H7.11v-1.99h3.37v-1.5H5.17V22.44z M22.94,13.14h2.05l-2.38-8.57h-2.61l-2.46,8.57h1.89l0.54-1.92h2.48L22.94,13.14z M22.09,9.77
		H20.3l0.83-3.73h0.14L22.09,9.77z M31.07,18.16c0,2.52,1.17,4.43,3.63,4.43c2.47,0,3.65-1.91,3.65-4.43c0-2.52-1.18-4.43-3.65-4.43
		C32.24,13.73,31.07,15.64,31.07,18.16z M33.13,18.16c0-1.64,0.4-2.98,1.57-2.98c1.17,0,1.59,1.34,1.59,2.98
		c0,1.65-0.42,2.98-1.59,2.98C33.54,21.14,33.13,19.8,33.13,18.16z M20.35,40.15c0.11-0.83,0.23-2.16,0.23-3.72
		c0-0.43,0-0.14,0-0.26c0-2.19-0.08-2.94-1.55-3.42c-2.26-0.75-3.19-3.27-2.69-6.42L8.77,7.07c-3.94,3.47-6.42,8.54-6.42,14.19
		C2.35,31.39,10.35,39.68,20.35,40.15z M21.25,27.87c-3.01-0.7-4.13-3.45-4.13-5.88L10.49,5.72c-0.43,0.3-0.85,0.62-1.26,0.95
		c1.46,3.46,8,18.98,8.01,19c1.16,2.79,3.26,1.86,3.77,4.17c0.12,0.56,0.13,0.8,0.13,0.8h0.23c0,0,0-0.24,0.13-0.8
		c0.51-2.3,2.61-1.38,3.77-4.17c0.01-0.02,6.55-15.55,8.01-19c-0.41-0.33-0.82-0.65-1.26-0.95L25.4,21.99
		c0,2.44-1.12,5.18-4.13,5.88H21.25z M21.25,22.96c-1.28-0.29-2.87-1.55-3.08-3.19c-0.07-0.62-0.13-0.79-0.04-2.03L12.32,4.6
		c-0.47,0.25-0.92,0.53-1.37,0.82C12.69,9.32,18,21.24,18,21.26c0.84,1.77,2.31,1.8,2.82,2.86c0.31,0.62,0.33,1.18,0.34,1.23h0.19
		c0-0.04,0.04-0.6,0.34-1.23c0.51-1.05,1.99-1.09,2.82-2.86c0-0.01,5.32-11.94,7.05-15.84c-0.44-0.29-0.9-0.56-1.37-0.82l-5.8,13.15
		c0.09,1.23,0.03,1.41-0.05,2.03c-0.21,1.63-1.8,2.9-3.07,3.19H21.25z M21.33,20.73l0.09-0.72c0.37-1.67,1.58-1.46,2.41-3.09
		c0-0.01,0.01-0.02,0.01-0.02c0.02-0.06,4.13-8.88,5.85-12.56c-2.54-1.27-5.4-1.99-8.43-1.99c-3.03,0-5.89,0.72-8.44,1.99
		c1.71,3.68,5.82,12.5,5.85,12.56c0,0,0.01,0.02,0.01,0.02c0.83,1.63,2.04,1.43,2.41,3.09l0.09,0.72H21.33z M40.17,21.26
		c0-5.65-2.49-10.72-6.42-14.19l-7.58,19.25c0.5,3.15-0.43,5.67-2.69,6.42c-1.47,0.49-1.55,1.23-1.55,3.42c0,0.12,0-0.17,0,0.26
		c0,1.56,0.12,2.89,0.23,3.72C32.17,39.68,40.17,31.39,40.17,21.26z M8.33,26.85c0,0,0.28,0.59,0.51,1.02
		c0.23,0.42,0.53,0.93,0.53,0.93l-0.5,0.29c0,0-0.38-0.63-0.73-1.36c-0.1,0.05-0.69,0.36-0.79,0.41c0.06,0.11,0.67,1.29,0.67,1.29
		l-0.51,0.29c0,0-0.62-1.21-0.67-1.31c-0.11,0.05-1.4,0.72-1.4,0.72l-0.31-0.61l3.16-1.64L8.33,26.85z M10.32,30.08l0.44,0.53
		L8,32.92l-0.45-0.53l2.74-2.29L10.32,30.08z M12.88,32.5l0.55,0.39l-0.71,3.81l-0.63-0.36c0,0,0.16-0.78,0.18-0.85
		c-0.03-0.02-0.4-0.24-0.75-0.49c-0.36-0.26-0.71-0.55-0.74-0.57c-0.07,0.04-0.76,0.45-0.76,0.45l-0.54-0.46l3.37-1.9L12.88,32.5z
		 M11.28,34.12c0.06,0.05,0.3,0.24,0.54,0.42c0.25,0.17,0.49,0.33,0.56,0.37c0.04-0.16,0.29-1.41,0.34-1.64
		C12.52,33.38,11.43,34.03,11.28,34.12z M15.16,33.9c0,0,0.58,0.29,1.41,0.57c0.57,0.2,1.04,0.35,1.52,0.45l-0.16,0.55
		c0,0-0.45-0.08-1.18-0.3c-0.04,0.12-0.99,2.83-0.99,2.83l-0.65-0.23c0,0,0.95-2.72,0.99-2.84c-0.68-0.25-1.15-0.51-1.15-0.51
		L15.16,33.9z M26.53,34.63c0.24,0.12,0.41,0.34,0.5,0.66c0.04,0.13,0.06,0.26,0.06,0.38c0,0.5-0.35,0.9-0.99,1.1
		c0,0-0.32,0.1-0.42,0.13c0.04,0.11,0.42,1.33,0.42,1.33l-0.63,0.16l-1.07-3.47l0.96-0.3C25.84,34.47,26.23,34.48,26.53,34.63z
		 M25.19,35.28c0.03,0.11,0.3,0.95,0.33,1.06c0.13-0.04,0.42-0.13,0.42-0.13c0.1-0.03,0.32-0.12,0.43-0.32
		c0.04-0.07,0.05-0.14,0.05-0.22c0-0.06-0.01-0.12-0.03-0.19c-0.04-0.12-0.12-0.22-0.23-0.28c-0.19-0.1-0.46-0.08-0.62-0.03
		C25.54,35.17,25.28,35.25,25.19,35.28z M28.67,33.12l3.12,2.29l-0.55,0.39c0,0-0.63-0.48-0.69-0.52c-0.04,0.02-0.36,0.25-0.71,0.45
		c-0.33,0.2-0.68,0.37-0.72,0.39c0.02,0.08,0.14,0.85,0.14,0.85l-0.6,0.28l-0.52-3.83L28.67,33.12z M29.03,35.54
		c0.09-0.04,0.34-0.18,0.58-0.32c0.21-0.13,0.39-0.24,0.47-0.31c-0.13-0.1-1.1-0.84-1.3-0.99C28.82,34.17,29.01,35.38,29.03,35.54z
		 M32.24,29.97l2.72,2.43l-0.49,0.57c0,0-2.55-0.75-2.94-0.85c0.29,0.27,1.87,1.94,1.87,1.94l-0.48,0.43l-2.57-2.61l0.6-0.54
		c0,0,2.46,0.73,2.85,0.84c-0.29-0.27-1.99-1.73-1.99-1.73L32.24,29.97z M33.48,28.15l3.15,1.83l-0.32,0.55l-3.17-1.83L33.48,28.15z
		 M34.85,25.13l0.54,0.28l-0.05,0.06c-0.18,0.21-0.25,0.32-0.34,0.56c-0.04,0.11-0.09,0.32-0.01,0.48c0.04,0.08,0.11,0.14,0.22,0.18
		c0.24,0.08,0.45-0.13,0.69-0.37c0.33-0.34,0.75-0.76,1.41-0.53c0.68,0.23,0.91,0.83,0.63,1.65c-0.08,0.25-0.24,0.46-0.38,0.66
		l-0.03,0.04l-0.56-0.26l0.06-0.07c0.07-0.08,0.3-0.35,0.39-0.62c0.09-0.24,0.08-0.64-0.29-0.76c-0.3-0.1-0.53,0.13-0.79,0.4
		c-0.32,0.34-0.69,0.71-1.29,0.51c-0.27-0.09-0.46-0.26-0.58-0.48c-0.14-0.27-0.14-0.62-0.01-0.99c0.08-0.25,0.22-0.5,0.37-0.7
		L34.85,25.13z" />
  </g>
  <g>
    <path class="st0" d="M53.38,4.21c1.74,0,3.33,1.3,3.33,4.31c0,3.01-1.6,4.31-3.33,4.31c-1.74,0-3.33-1.3-3.33-4.31
		C50.05,5.51,51.64,4.21,53.38,4.21z M53.38,11.65c0.97,0,1.75-0.83,1.75-3.13c0-2.3-0.78-3.13-1.75-3.13
		c-0.97,0-1.75,0.83-1.75,3.13C51.63,10.82,52.41,11.65,53.38,11.65z" />
    <path class="st0" d="M57.98,7.54c0-0.38-0.01-0.74-0.05-1.02h1.34c0.01,0.37,0.05,0.76,0.05,1.13h0.02
		c0.18-0.48,0.65-1.22,1.57-1.22c0.1,0,0.17,0.02,0.25,0.04v1.39c-0.13-0.04-0.26-0.06-0.42-0.06c-0.61,0-1.28,0.37-1.28,1.52v3.38
		h-1.49V7.54z" />
    <path class="st0" d="M62.23,13.66c0.35,0.19,1.04,0.53,1.82,0.53c1.4,0,1.63-0.97,1.63-1.94v-0.59h-0.02
		c-0.24,0.48-0.66,1.04-1.63,1.04c-0.86,0-2.16-0.58-2.16-3.07c0-1.7,0.61-3.2,2.23-3.2c0.9,0,1.32,0.52,1.63,1.06h0.05
		c0-0.32,0.04-0.64,0.05-0.96h1.34c-0.02,0.32-0.05,0.65-0.05,0.97v4.56c0,1.93-0.59,3.31-2.85,3.31c-0.98,0-1.76-0.25-2.12-0.38
		L62.23,13.66z M64.37,11.61c0.94,0,1.31-0.67,1.31-2.07c0-1.29-0.49-1.99-1.2-1.98C63.7,7.57,63.4,8.29,63.4,9.55
		C63.4,11,63.87,11.61,64.37,11.61z" />
    <path class="st0" d="M68.77,6.88c0.42-0.19,1.01-0.46,1.96-0.46c1.92,0,2.36,0.94,2.36,2.48v2.7c0,0.44,0.05,0.85,0.08,1.09h-1.34
		c-0.07-0.24-0.08-0.54-0.08-0.84h-0.02c-0.37,0.5-0.84,0.94-1.73,0.94c-0.96,0-1.85-0.66-1.85-1.81c0-1.68,1.37-2.1,3.25-2.1h0.3
		V8.66c0-0.61-0.3-1.17-1.15-1.17c-0.74,0-1.4,0.36-1.69,0.6L68.77,6.88z M71.7,9.68h-0.13c-1.27,0-2.03,0.26-2.03,1.16
		c0,0.56,0.37,0.95,0.95,0.95c0.89,0,1.21-0.66,1.21-1.76V9.68z" />
    <path class="st0" d="M74.47,7.54c0-0.38-0.01-0.74-0.05-1.02h1.39c0.01,0.31,0.05,0.64,0.05,0.95h0.02
		c0.22-0.37,0.63-1.04,1.64-1.04c1.4,0,1.82,1.04,1.82,2.29v3.98h-1.49V9c0-0.95-0.24-1.34-0.85-1.34c-0.78,0-1.05,0.66-1.05,1.45
		v3.6h-1.49V7.54z" />
    <path class="st0" d="M80.81,3.9h1.53v1.46h-1.53V3.9z M80.83,6.52h1.49v6.18h-1.49V6.52z" />
    <path class="st0" d="M83.47,11.42l2.64-3.77h-2.56V6.52h4.04V7.8L85,11.57h2.67v1.13h-4.21V11.42z" />
    <path class="st0" d="M88.98,6.88c0.42-0.19,1.01-0.46,1.96-0.46c1.92,0,2.36,0.94,2.36,2.48v2.7c0,0.44,0.05,0.85,0.08,1.09h-1.34
		c-0.07-0.24-0.08-0.54-0.08-0.84h-0.02c-0.37,0.5-0.84,0.94-1.73,0.94c-0.96,0-1.85-0.66-1.85-1.81c0-1.68,1.37-2.1,3.25-2.1h0.3
		V8.66c0-0.61-0.3-1.17-1.15-1.17c-0.74,0-1.4,0.36-1.69,0.6L88.98,6.88z M91.91,9.68h-0.13c-1.27,0-2.03,0.26-2.03,1.16
		c0,0.56,0.37,0.95,0.95,0.95c0.89,0,1.21-0.66,1.21-1.76V9.68z" />
    <path class="st0" d="M98.87,12.55c-0.35,0.13-0.86,0.25-1.46,0.25c-2.04,0-2.9-1.43-2.9-3.18c0-1.76,0.91-3.19,2.99-3.19
		c0.47,0,1.02,0.14,1.3,0.25l-0.08,1.18c-0.26-0.13-0.64-0.3-1.04-0.3c-1.13,0-1.62,0.76-1.62,2.07c0,1.15,0.55,2.04,1.69,2.04
		c0.36,0,0.85-0.17,1.06-0.3L98.87,12.55z" />
    <path class="st0" d="M99.91,3.9h1.53v1.46h-1.53V3.9z M99.93,6.52h1.49v6.18h-1.49V6.52z" />
    <path class="st0" d="M105.46,6.43c1.26,0,2.71,0.66,2.71,3.18c0,2.59-1.45,3.19-2.71,3.19c-1.26,0-2.72-0.6-2.72-3.19
		C102.73,7.09,104.2,6.43,105.46,6.43z M105.46,11.74c0.96,0,1.18-1.1,1.18-2.13c0-1.03-0.22-2.12-1.18-2.12
		c-0.96,0-1.19,1.09-1.19,2.12C104.27,10.64,104.5,11.74,105.46,11.74z M105.52,4.11h1.39l-1.22,1.73h-0.94L105.52,4.11z" />
    <path class="st0" d="M109.34,7.54c0-0.38-0.01-0.74-0.05-1.02h1.39c0.01,0.31,0.05,0.64,0.05,0.95h0.02
		c0.22-0.37,0.64-1.04,1.64-1.04c1.4,0,1.82,1.04,1.82,2.29v3.98h-1.49V9c0-0.95-0.24-1.34-0.85-1.34c-0.78,0-1.05,0.66-1.05,1.45
		v3.6h-1.49V7.54z" />
    <path class="st0" d="M123.75,3.71v7.94c0,0.44,0.01,0.83,0.05,1.06h-1.39c-0.02-0.18-0.05-0.54-0.05-0.96h-0.04
		c-0.24,0.53-0.68,1.06-1.64,1.06c-1.53,0-2.17-1.46-2.17-3.18c0-2.01,0.8-3.19,2.13-3.19c0.89,0,1.38,0.5,1.59,0.98h0.02V3.71
		H123.75z M121.09,11.71c0.88,0,1.17-0.95,1.17-2.11c0-1.2-0.34-2.07-1.15-2.07c-0.83,0-1.11,0.8-1.11,2.04
		C120,10.99,120.23,11.71,121.09,11.71z" />
    <path class="st0" d="M129.65,12.4c-0.31,0.13-0.96,0.4-1.85,0.4c-1.99,0-2.85-1.43-2.85-3.09c0-1.85,0.97-3.27,2.54-3.27
		c1.33,0,2.47,0.78,2.47,3.3v0.29h-3.57c0,1.06,0.42,1.69,1.57,1.69c0.91,0,1.34-0.28,1.62-0.48L129.65,12.4z M128.52,9.08
		c0-1.09-0.36-1.64-1.03-1.64c-0.78,0-1.1,0.83-1.1,1.64H128.52z" />
    <path class="st0" d="M134.37,3.71h1.49v8.99h-1.49V3.71z" />
    <path class="st0" d="M137.64,6.88c0.42-0.19,1.01-0.46,1.96-0.46c1.92,0,2.36,0.94,2.36,2.48v2.7c0,0.44,0.05,0.85,0.08,1.09h-1.34
		c-0.07-0.24-0.08-0.54-0.08-0.84h-0.02c-0.37,0.5-0.84,0.94-1.73,0.94c-0.96,0-1.85-0.66-1.85-1.81c0-1.68,1.37-2.1,3.25-2.1h0.3
		V8.66c0-0.61-0.3-1.17-1.15-1.17c-0.74,0-1.4,0.36-1.69,0.6L137.64,6.88z M140.57,9.68h-0.13c-1.27,0-2.03,0.26-2.03,1.16
		c0,0.56,0.37,0.95,0.95,0.95c0.89,0,1.21-0.66,1.21-1.76V9.68z" />
    <path class="st0" d="M143.17,11.26c0.24,0.1,0.85,0.41,1.55,0.41c0.54,0,0.96-0.13,0.96-0.61c0-0.24-0.12-0.47-0.66-0.78
		l-0.61-0.36c-0.62-0.37-1.31-0.77-1.31-1.74c0-0.85,0.83-1.75,2.13-1.75c0.79,0,1.4,0.2,1.55,0.25l-0.08,1.15
		c-0.37-0.14-0.77-0.28-1.31-0.28c-0.6,0-0.85,0.23-0.85,0.6c0,0.34,0.26,0.52,0.69,0.79l0.73,0.47c0.77,0.49,1.15,0.84,1.15,1.56
		c0,1.14-0.96,1.82-2.3,1.82c-0.77,0-1.4-0.18-1.72-0.3L143.17,11.26z" />
    <path class="st0" d="M151.54,4.33h1.82l2.78,6.57h0.02V4.33h1.39v8.37h-1.83l-2.77-6.52h-0.02v6.52h-1.39V4.33z" />
    <path class="st0" d="M159.4,6.88c0.42-0.19,1.01-0.46,1.96-0.46c1.92,0,2.36,0.94,2.36,2.48v2.7c0,0.44,0.05,0.85,0.08,1.09h-1.34
		c-0.07-0.24-0.08-0.54-0.08-0.84h-0.02c-0.37,0.5-0.84,0.94-1.73,0.94c-0.96,0-1.85-0.66-1.85-1.81c0-1.68,1.37-2.1,3.25-2.1h0.3
		V8.66c0-0.61-0.3-1.17-1.15-1.17c-0.74,0-1.4,0.36-1.69,0.6L159.4,6.88z M162.33,9.68h-0.13c-1.27,0-2.03,0.26-2.03,1.16
		c0,0.56,0.37,0.95,0.95,0.95c0.89,0,1.21-0.66,1.21-1.76V9.68z" />
    <path class="st0" d="M169.29,12.55c-0.35,0.13-0.86,0.25-1.46,0.25c-2.04,0-2.9-1.43-2.9-3.18c0-1.76,0.91-3.19,2.99-3.19
		c0.47,0,1.02,0.14,1.3,0.25l-0.08,1.18c-0.26-0.13-0.64-0.3-1.04-0.3c-1.13,0-1.62,0.76-1.62,2.07c0,1.15,0.55,2.04,1.69,2.04
		c0.36,0,0.85-0.17,1.06-0.3L169.29,12.55z" />
    <path class="st0" d="M170.32,3.9h1.54v1.46h-1.54V3.9z M170.34,6.52h1.49v6.18h-1.49V6.52z" />
    <path class="st0" d="M175.87,6.43c1.26,0,2.71,0.66,2.71,3.18c0,2.59-1.45,3.19-2.71,3.19c-1.26,0-2.72-0.6-2.72-3.19
		C173.15,7.09,174.61,6.43,175.87,6.43z M175.87,11.74c0.96,0,1.18-1.1,1.18-2.13c0-1.03-0.22-2.12-1.18-2.12
		c-0.96,0-1.19,1.09-1.19,2.12C174.68,10.64,174.91,11.74,175.87,11.74z" />
    <path class="st0" d="M179.75,7.54c0-0.38-0.01-0.74-0.05-1.02h1.39c0.01,0.31,0.05,0.64,0.05,0.95h0.02
		c0.22-0.37,0.64-1.04,1.64-1.04c1.4,0,1.82,1.04,1.82,2.29v3.98h-1.49V9c0-0.95-0.24-1.34-0.85-1.34c-0.78,0-1.05,0.66-1.05,1.45
		v3.6h-1.49V7.54z" />
    <path class="st0" d="M190.51,12.4c-0.31,0.13-0.96,0.4-1.85,0.4c-1.99,0-2.85-1.43-2.85-3.09c0-1.85,0.97-3.27,2.54-3.27
		c1.33,0,2.47,0.78,2.47,3.3v0.29h-3.57c0,1.06,0.42,1.69,1.57,1.69c0.91,0,1.34-0.28,1.62-0.48L190.51,12.4z M189.38,9.08
		c0-1.09-0.36-1.64-1.03-1.64c-0.78,0-1.1,0.83-1.1,1.64H189.38z" />
    <path class="st0" d="M191.8,11.26c0.24,0.1,0.85,0.41,1.55,0.41c0.54,0,0.96-0.13,0.96-0.61c0-0.24-0.12-0.47-0.66-0.78l-0.61-0.36
		c-0.62-0.37-1.31-0.77-1.31-1.74c0-0.85,0.83-1.75,2.13-1.75c0.79,0,1.4,0.2,1.55,0.25l-0.08,1.15c-0.37-0.14-0.77-0.28-1.31-0.28
		c-0.6,0-0.85,0.23-0.85,0.6c0,0.34,0.26,0.52,0.7,0.79l0.73,0.47c0.77,0.49,1.15,0.84,1.15,1.56c0,1.14-0.96,1.82-2.3,1.82
		c-0.77,0-1.4-0.18-1.72-0.3L191.8,11.26z" />
    <path class="st0" d="M51.85,17.88v5.42c0,1.39,0.42,1.85,1.32,1.85c0.88,0,1.31-0.45,1.31-1.85v-5.42h1.54v5.42
		c0,2.21-1.27,3.07-2.84,3.07c-1.58,0-2.85-0.86-2.85-3.07v-5.42H51.85z" />
    <path class="st0" d="M57.49,21.09c0-0.38-0.01-0.74-0.05-1.02h1.39c0.01,0.31,0.05,0.64,0.05,0.95h0.02
		c0.22-0.37,0.64-1.04,1.64-1.04c1.4,0,1.82,1.04,1.82,2.29v3.98h-1.49v-3.71c0-0.95-0.24-1.34-0.85-1.34
		c-0.78,0-1.05,0.66-1.05,1.45v3.6h-1.49V21.09z" />
    <path class="st0" d="M63.83,17.45h1.54v1.46h-1.54V17.45z M63.86,20.08h1.49v6.18h-1.49V20.08z" />
    <path class="st0" d="M71.9,17.26v7.94c0,0.44,0.01,0.83,0.05,1.05h-1.39c-0.02-0.18-0.05-0.54-0.05-0.96h-0.04
		c-0.24,0.53-0.68,1.05-1.64,1.05c-1.54,0-2.17-1.46-2.17-3.18c0-2.01,0.8-3.19,2.13-3.19c0.89,0,1.38,0.5,1.6,0.98h0.02v-3.71H71.9
		z M69.24,25.26c0.88,0,1.17-0.95,1.17-2.11c0-1.2-0.34-2.07-1.15-2.07c-0.83,0-1.11,0.8-1.11,2.04
		C68.15,24.54,68.38,25.26,69.24,25.26z" />
    <path class="st0" d="M73.57,20.43c0.42-0.19,1.01-0.46,1.96-0.46c1.92,0,2.36,0.94,2.36,2.48v2.7c0,0.44,0.05,0.85,0.08,1.09h-1.34
		c-0.07-0.24-0.08-0.54-0.08-0.84h-0.02c-0.37,0.5-0.84,0.93-1.73,0.93c-0.96,0-1.85-0.66-1.85-1.81c0-1.68,1.37-2.1,3.25-2.1h0.3
		v-0.23c0-0.61-0.3-1.17-1.15-1.17c-0.74,0-1.4,0.36-1.69,0.6L73.57,20.43z M76.5,23.23h-0.13c-1.27,0-2.03,0.26-2.03,1.16
		c0,0.56,0.37,0.95,0.95,0.95c0.89,0,1.21-0.66,1.21-1.76V23.23z" />
    <path class="st0" d="M79.09,24.81c0.24,0.1,0.85,0.41,1.55,0.41c0.54,0,0.96-0.13,0.96-0.61c0-0.24-0.12-0.47-0.66-0.78l-0.61-0.36
		c-0.62-0.37-1.31-0.77-1.31-1.74c0-0.85,0.83-1.75,2.13-1.75c0.79,0,1.4,0.2,1.55,0.25l-0.08,1.15c-0.37-0.14-0.77-0.28-1.31-0.28
		c-0.6,0-0.85,0.23-0.85,0.6c0,0.34,0.26,0.52,0.7,0.79l0.73,0.47c0.77,0.49,1.15,0.84,1.15,1.56c0,1.14-0.96,1.82-2.3,1.82
		c-0.77,0-1.4-0.18-1.72-0.3L79.09,24.81z" />
    <path class="st0" d="M87.28,21.13c0-0.44-0.01-0.83-0.05-1.06h1.39c0.02,0.18,0.05,0.54,0.05,0.96h0.04
		c0.24-0.53,0.68-1.06,1.64-1.06c1.53,0,2.17,1.46,2.17,3.18c0,2.01-0.8,3.19-2.13,3.19c-0.89,0-1.38-0.5-1.6-0.98h-0.02v3.48h-1.49
		V21.13z M89.92,25.26c0.83,0,1.12-0.8,1.12-2.04c0-1.43-0.23-2.15-1.09-2.15c-0.88,0-1.18,0.95-1.18,2.11
		C88.77,24.38,89.1,25.26,89.92,25.26z" />
    <path class="st0" d="M94,20.43c0.42-0.19,1.01-0.46,1.96-0.46c1.92,0,2.36,0.94,2.36,2.48v2.7c0,0.44,0.05,0.85,0.08,1.09h-1.34
		c-0.07-0.24-0.08-0.54-0.08-0.84h-0.02c-0.37,0.5-0.84,0.93-1.73,0.93c-0.96,0-1.85-0.66-1.85-1.81c0-1.68,1.37-2.1,3.25-2.1h0.3
		v-0.23c0-0.61-0.3-1.17-1.15-1.17c-0.74,0-1.4,0.36-1.69,0.6L94,20.43z M96.92,23.23h-0.13c-1.27,0-2.03,0.26-2.03,1.16
		c0,0.56,0.37,0.95,0.95,0.95c0.89,0,1.21-0.66,1.21-1.76V23.23z" />
    <path class="st0" d="M99.74,21.09c0-0.38-0.01-0.74-0.05-1.02h1.34c0.01,0.37,0.05,0.76,0.05,1.13h0.02
		c0.18-0.48,0.65-1.22,1.57-1.22c0.1,0,0.17,0.02,0.25,0.04v1.39c-0.13-0.04-0.26-0.06-0.42-0.06c-0.61,0-1.28,0.37-1.28,1.52v3.38
		h-1.49V21.09z" />
    <path class="st0" d="M104.09,20.43c0.42-0.19,1.01-0.46,1.95-0.46c1.92,0,2.36,0.94,2.36,2.48v2.7c0,0.44,0.05,0.85,0.08,1.09
		h-1.34c-0.07-0.24-0.08-0.54-0.08-0.84h-0.02c-0.37,0.5-0.84,0.93-1.73,0.93c-0.96,0-1.85-0.66-1.85-1.81c0-1.68,1.37-2.1,3.25-2.1
		h0.3v-0.23c0-0.61-0.3-1.17-1.15-1.17c-0.74,0-1.4,0.36-1.69,0.6L104.09,20.43z M107.01,23.23h-0.13c-1.27,0-2.03,0.26-2.03,1.16
		c0,0.56,0.37,0.95,0.95,0.95c0.89,0,1.21-0.66,1.21-1.76V23.23z" />
    <path class="st0" d="M113.04,17.26h1.49v8.99h-1.49V17.26z" />
    <path class="st0" d="M116.31,20.43c0.42-0.19,1.01-0.46,1.96-0.46c1.92,0,2.36,0.94,2.36,2.48v2.7c0,0.44,0.05,0.85,0.08,1.09
		h-1.34c-0.07-0.24-0.08-0.54-0.08-0.84h-0.02c-0.37,0.5-0.84,0.93-1.73,0.93c-0.96,0-1.85-0.66-1.85-1.81c0-1.68,1.37-2.1,3.25-2.1
		h0.3v-0.23c0-0.61-0.3-1.17-1.15-1.17c-0.74,0-1.4,0.36-1.69,0.6L116.31,20.43z M119.24,23.23h-0.13c-1.27,0-2.03,0.26-2.03,1.16
		c0,0.56,0.37,0.95,0.95,0.95c0.89,0,1.21-0.66,1.21-1.76V23.23z" />
    <path class="st0" d="M128.88,24.24H126l-0.6,2.01h-1.54l2.81-8.37h1.68l2.7,8.37h-1.58L128.88,24.24z M128.56,23.06l-1.06-3.91
		h-0.02l-1.15,3.91H128.56z" />
    <path class="st0" d="M131.93,17.26h1.49v8.99h-1.49V17.26z" />
    <path class="st0" d="M135.03,17.45h1.54v1.46h-1.54V17.45z M135.05,20.08h1.49v6.18h-1.49V20.08z" />
    <path class="st0" d="M137.99,21.08c0-0.44-0.02-0.78-0.05-1.01h1.49c0.01,0.32,0.05,0.65,0.05,0.97h0.02
		c0.23-0.48,0.71-1.07,1.56-1.07c1.04,0,1.38,0.65,1.56,0.98c0.3-0.43,0.74-0.98,1.66-0.98c1.34,0,1.77,0.96,1.77,2.46v3.81h-1.49
		v-3.9c0-0.77-0.24-1.15-0.79-1.15c-0.66,0-1.01,0.62-1.01,1.31v3.74h-1.49v-3.9c0-0.77-0.24-1.15-0.79-1.15
		c-0.66,0-1.01,0.62-1.01,1.31v3.74h-1.49V21.08z" />
    <path class="st0" d="M151.88,25.95c-0.31,0.13-0.96,0.4-1.85,0.4c-1.99,0-2.85-1.43-2.85-3.09c0-1.85,0.97-3.27,2.54-3.27
		c1.33,0,2.47,0.78,2.47,3.3v0.29h-3.57c0,1.05,0.42,1.69,1.57,1.69c0.91,0,1.34-0.27,1.62-0.48L151.88,25.95z M150.76,22.63
		c0-1.09-0.36-1.64-1.03-1.64c-0.78,0-1.1,0.83-1.1,1.64H150.76z" />
    <path class="st0" d="M153.35,21.09c0-0.38-0.01-0.74-0.05-1.02h1.39c0.01,0.31,0.05,0.64,0.05,0.95h0.02
		c0.22-0.37,0.64-1.04,1.64-1.04c1.4,0,1.82,1.04,1.82,2.29v3.98h-1.49v-3.71c0-0.95-0.24-1.34-0.85-1.34
		c-0.78,0-1.05,0.66-1.05,1.45v3.6h-1.49V21.09z" />
    <path class="st0" d="M160.12,18.8l1.49-0.46v1.73h1.23v1.09h-1.23v3.2c0,0.66,0.24,0.85,0.67,0.85c0.26,0,0.46-0.07,0.56-0.13v1.05
		c-0.23,0.11-0.55,0.2-1,0.2c-1.1,0-1.73-0.5-1.73-1.8v-3.38h-0.98v-1.09h0.98V18.8z" />
    <path class="st0" d="M164.08,20.43c0.42-0.19,1.01-0.46,1.96-0.46c1.92,0,2.36,0.94,2.36,2.48v2.7c0,0.44,0.05,0.85,0.08,1.09
		h-1.34c-0.07-0.24-0.08-0.54-0.08-0.84h-0.02c-0.37,0.5-0.84,0.93-1.73,0.93c-0.96,0-1.85-0.66-1.85-1.81c0-1.68,1.37-2.1,3.25-2.1
		h0.3v-0.23c0-0.61-0.3-1.17-1.15-1.17c-0.74,0-1.4,0.36-1.69,0.6L164.08,20.43z M167.01,23.23h-0.13c-1.27,0-2.03,0.26-2.03,1.16
		c0,0.56,0.37,0.95,0.95,0.95c0.89,0,1.21-0.66,1.21-1.76V23.23z" />
    <path class="st0" d="M173.98,26.1c-0.35,0.13-0.86,0.25-1.46,0.25c-2.04,0-2.9-1.43-2.9-3.18c0-1.76,0.91-3.19,2.99-3.19
		c0.47,0,1.02,0.14,1.3,0.25l-0.08,1.18c-0.26-0.13-0.64-0.3-1.04-0.3c-1.13,0-1.62,0.76-1.62,2.07c0,1.15,0.55,2.04,1.69,2.04
		c0.36,0,0.85-0.17,1.06-0.3L173.98,26.1z" />
    <path class="st0" d="M175.01,17.45h1.54v1.46h-1.54V17.45z M175.03,20.08h1.49v6.18h-1.49V20.08z" />
    <path class="st0" d="M180.56,19.98c1.26,0,2.71,0.66,2.71,3.18c0,2.59-1.45,3.19-2.71,3.19s-2.72-0.6-2.72-3.19
		C177.84,20.64,179.3,19.98,180.56,19.98z M180.56,25.29c0.96,0,1.18-1.1,1.18-2.13c0-1.03-0.22-2.12-1.18-2.12
		c-0.96,0-1.19,1.09-1.19,2.12C179.37,24.19,179.6,25.29,180.56,25.29z M180.62,17.67h1.39l-1.22,1.73h-0.94L180.62,17.67z" />
    <path class="st0" d="M184.44,21.09c0-0.38-0.01-0.74-0.05-1.02h1.39c0.01,0.31,0.05,0.64,0.05,0.95h0.02
		c0.22-0.37,0.64-1.04,1.64-1.04c1.4,0,1.82,1.04,1.82,2.29v3.98h-1.49v-3.71c0-0.95-0.24-1.34-0.85-1.34
		c-0.78,0-1.05,0.66-1.05,1.45v3.6h-1.49V21.09z" />
    <path class="st0" d="M52.34,38.29h0.02l1.19-4.67h1.44l-2.25,7.35c-0.26,0.85-0.77,1.49-1.76,1.49c-0.4,0-0.73-0.08-0.95-0.16
		l0.08-1.14c0.17,0.06,0.34,0.12,0.56,0.12c0.44,0.01,0.64-0.26,0.83-0.9l0.11-0.53l-2.05-6.24h1.54L52.34,38.29z" />
    <path class="st0" d="M58.98,30.81h1.49v8.99h-1.49V30.81z" />
    <path class="st0" d="M62.25,33.99c0.42-0.19,1.01-0.45,1.96-0.45c1.92,0,2.36,0.94,2.36,2.48v2.7c0,0.44,0.05,0.85,0.08,1.09h-1.34
		c-0.07-0.24-0.08-0.54-0.08-0.84H65.2c-0.37,0.5-0.84,0.93-1.73,0.93c-0.96,0-1.85-0.66-1.85-1.81c0-1.68,1.37-2.1,3.25-2.1h0.3
		v-0.23c0-0.61-0.3-1.17-1.15-1.17c-0.74,0-1.4,0.36-1.69,0.6L62.25,33.99z M65.18,36.78h-0.13c-1.27,0-2.03,0.26-2.03,1.16
		c0,0.56,0.37,0.95,0.95,0.95c0.89,0,1.21-0.66,1.21-1.76V36.78z" />
    <path class="st0" d="M74.82,37.79h-2.88l-0.6,2.01H69.8l2.81-8.37h1.68l2.7,8.37H75.4L74.82,37.79z M74.49,36.61l-1.06-3.91h-0.02
		l-1.15,3.91H74.49z" />
    <path class="st0" d="M77.92,40.76c0.35,0.19,1.04,0.53,1.82,0.53c1.4,0,1.63-0.97,1.63-1.94v-0.59h-0.02
		c-0.24,0.48-0.66,1.04-1.63,1.04c-0.86,0-2.16-0.58-2.16-3.07c0-1.7,0.61-3.2,2.23-3.2c0.9,0,1.32,0.52,1.63,1.06h0.05
		c0-0.32,0.04-0.64,0.05-0.96h1.34c-0.02,0.32-0.05,0.65-0.05,0.97v4.56c0,1.93-0.59,3.31-2.85,3.31c-0.98,0-1.76-0.25-2.12-0.38
		L77.92,40.76z M80.07,38.71c0.94,0,1.31-0.67,1.31-2.07c0-1.29-0.49-1.99-1.2-1.98c-0.78,0.01-1.08,0.73-1.08,1.99
		C79.09,38.1,79.56,38.71,80.07,38.71z" />
    <path class="st0" d="M84.21,34.65c0-0.38-0.01-0.74-0.05-1.02h1.34c0.01,0.37,0.05,0.76,0.05,1.13h0.02
		c0.18-0.48,0.65-1.22,1.57-1.22c0.1,0,0.17,0.02,0.25,0.04v1.39c-0.13-0.04-0.26-0.06-0.42-0.06c-0.61,0-1.28,0.37-1.28,1.52v3.38
		h-1.49V34.65z" />
    <path class="st0" d="M88.5,31h1.54v1.46H88.5V31z M88.53,33.63h1.49v6.18h-1.49V33.63z" />
    <path class="st0" d="M95.7,39.65c-0.35,0.13-0.86,0.25-1.46,0.25c-2.04,0-2.9-1.43-2.9-3.18c0-1.76,0.91-3.19,2.99-3.19
		c0.47,0,1.02,0.14,1.3,0.25l-0.08,1.18c-0.26-0.13-0.64-0.3-1.04-0.3c-1.13,0-1.62,0.76-1.62,2.07c0,1.15,0.55,2.04,1.69,2.04
		c0.36,0,0.85-0.17,1.06-0.3L95.7,39.65z" />
    <path class="st0" d="M101.49,38.78c0,0.38,0.01,0.74,0.05,1.02h-1.39c-0.01-0.31-0.05-0.64-0.05-0.95l-0.04-0.01l0.01,0.01
		c-0.29,0.46-0.67,1.04-1.64,1.04c-1.4,0-1.82-1.04-1.82-2.29v-3.98h1.49v3.71c0,0.95,0.26,1.34,0.89,1.34
		c0.79,0,1.02-0.72,1.02-1.51v-3.54h1.49V38.78z" />
    <path class="st0" d="M102.97,30.81h1.49v8.99h-1.49V30.81z" />
    <path class="st0" d="M106.5,32.35l1.49-0.46v1.73h1.23v1.09h-1.23v3.2c0,0.66,0.24,0.85,0.67,0.85c0.26,0,0.46-0.07,0.56-0.13v1.05
		c-0.23,0.11-0.55,0.2-1,0.2c-1.1,0-1.73-0.5-1.73-1.8v-3.38h-0.98v-1.09h0.98V32.35z" />
    <path class="st0" d="M115.05,38.78c0,0.38,0.01,0.74,0.05,1.02h-1.39c-0.01-0.31-0.05-0.64-0.05-0.95l-0.04-0.01l0.01,0.01
		c-0.29,0.46-0.67,1.04-1.64,1.04c-1.4,0-1.82-1.04-1.82-2.29v-3.98h1.49v3.71c0,0.95,0.26,1.34,0.89,1.34
		c0.79,0,1.02-0.72,1.02-1.51v-3.54h1.49V38.78z" />
    <path class="st0" d="M116.43,34.65c0-0.38-0.01-0.74-0.05-1.02h1.34c0.01,0.37,0.05,0.76,0.05,1.13h0.02
		c0.18-0.48,0.65-1.22,1.57-1.22c0.1,0,0.17,0.02,0.25,0.04v1.39c-0.13-0.04-0.26-0.06-0.42-0.06c-0.61,0-1.28,0.37-1.28,1.52v3.38
		h-1.49V34.65z" />
    <path class="st0" d="M120.79,33.99c0.42-0.19,1.01-0.45,1.96-0.45c1.92,0,2.36,0.94,2.36,2.48v2.7c0,0.44,0.05,0.85,0.08,1.09
		h-1.34c-0.07-0.24-0.08-0.54-0.08-0.84h-0.02c-0.37,0.5-0.84,0.93-1.73,0.93c-0.96,0-1.85-0.66-1.85-1.81c0-1.68,1.37-2.1,3.25-2.1
		h0.3v-0.23c0-0.61-0.3-1.17-1.15-1.17c-0.74,0-1.4,0.36-1.69,0.6L120.79,33.99z M123.71,36.78h-0.13c-1.27,0-2.03,0.26-2.03,1.16
		c0,0.56,0.37,0.95,0.95,0.95c0.89,0,1.21-0.66,1.21-1.76V36.78z" />
  </g>
</svg>