<?xml version="1.0" encoding="UTF-8"?>
<svg xmlns="http://www.w3.org/2000/svg" viewBox="0 0 216.92 206.84">
  <defs>
    <style>
      .cls-1 {
        fill: #f6f3f1;
      }

      .cls-1, .cls-2, .cls-3, .cls-4, .cls-5 {
        stroke-width: 0px;
      }

      .cls-6 {
        isolation: isolate;
      }

      .cls-2 {
        fill: #fff;
      }

      .cls-3 {
        mix-blend-mode: multiply;
      }

      .cls-3, .cls-4 {
        fill: #cd7534;
      }

      .cls-5 {
        fill: #d1c4ba;
      }
    </style>
  </defs>
  <g class="cls-6">
    <g id="Layer_2" data-name="Layer 2">
      <g id="Blancos">
        <path class="cls-2" d="m108.12,206.84c-18.49,0-36.75-4.51-52.81-13.04-8.43-4.47-16.25-10.08-23.25-16.69C14.41,160.48,3.2,138.59.49,115.47-3.42,82.27,16.68,39.47,45.29,20.08,64.43,7.13,88.67,0,113.57,0c7.6,0,15.15.68,22.42,2.03,12.12,2.23,23.36,6.25,33.39,11.94,36.69,20.85,54.05,62.35,45.31,108.33-2.98,15.7-9.92,30.76-20.06,43.55-20.38,25.67-52.72,40.99-86.52,40.99Z"/>
      </g>
      <g id="Layer_1-2" data-name="Layer 1">
        <g>
          <path class="cls-4" d="m173.85,115.87c-5,17.14-19.02,33.81-32.99,44.94-23.71,18.9-71.14,23.43-98.5,5.4-14.6-13.76-24.59-32.2-26.97-52.48-3.34-28.38,15.01-65.43,38.33-81.23,22.13-14.97,52.34-20.75,79.55-15.72,26.05,7.67,36.66,23.78,41.6,44.05,4.44,18.22,3.98,37.89-1.01,55.04Z"/>
          <path class="cls-3" d="m173.85,115.87c-5,17.14-19.02,33.81-32.99,44.94-23.71,18.9-71.14,23.43-98.5,5.4-14.6-13.76-24.59-32.2-26.97-52.48-3.34-28.38,15.01-65.43,38.33-81.23,22.13-14.97,52.34-20.75,79.55-15.72,26.05,7.67,36.66,23.78,41.6,44.05,4.44,18.22,3.98,37.89-1.01,55.04Z"/>
          <path class="cls-4" d="m199.96,119.5c-2.57,13.53-8.54,26.27-17.08,37.04-17.91,22.57-46.11,35.31-74.77,35.31-15.89,0-31.73-3.83-45.77-11.29-7.3-3.87-14.03-8.72-19.99-14.35,27.37,18.03,74.79,13.5,98.5-5.4,13.98-11.13,27.99-27.79,32.99-44.94,4.99-17.16,5.45-36.82,1.01-55.04-4.93-20.27-15.55-36.37-41.6-44.05,10.19,1.88,19.95,5.27,28.71,10.24,33.66,19.12,44.9,56.09,37.98,92.48Z"/>
          <path class="cls-1" d="m21.25,124.39c3.11,13.36,9.69,26.21,20.18,35.04,23.52,19.81,58.89,16.63,85.26,4.76,23.41-10.54,39.34-33.28,44.87-58.16s2-55.05-15.66-73.4c-19.67-20.44-55.61-16.25-79.7-7.39-28.13,10.34-48.76,35.71-55,64.91-2.4,11.25-2.57,23.02.05,34.25Z"/>
          <path class="cls-5" d="m41.26,109.01c.58,11.51,6.91,22.33,16.38,28.81,14.08,9.68,33.04,9.9,49.12,5.88,16.58-4.03,30.07-16.26,37.12-31.67,7.04-15.02,9.2-33.51,2.22-48.88-2.37-4.95-6.04-9.31-10.94-11.57-5.11-2.44-11.01-2.32-16.6-3.59-13.12-3.6-19.25-8.31-33.33-3.42-5.45,1.9-10.58,4.65-15.65,7.39,9.68-6.22,20.62-12.67,32.68-10.89,5.93.85,11.36,3.32,16.83,4.36,5.71,1.06,11.81.83,17.35,3.32,11.59,5.07,16.38,18.47,17.48,30.2,1.48,17.88-4.48,36.17-16.15,49.77-15.47,18.66-42.51,24.09-65.33,18.33-17.26-4.08-31.66-19.84-31.19-38.03h0Z"/>
          <path class="cls-5" d="m126.96,136.23c-10.85,8.09-25.07,11.5-38.43,11.44-6.9-.03-13.86-1-20.4-3.25-1.18-.41-2.35-.86-3.48-1.38,1.65-6.8,6.73-13.27,12.85-17.08,9.87-6.13,21.81-7.77,32.65-11.94,10.85-4.16,21.65-12.61,22.36-24.2.45-7.37-3.32-14.48-2.97-21.85.32-6.46,4.26-12.47,9.73-15.85,8.58,6.02,12.22,17.91,12.86,27.97,1.36,21.08-8.1,43.45-25.16,56.15Z"/>
        </g>
      </g>
    </g>
  </g>
</svg>