<?xml version="1.0" encoding="UTF-8"?>
<svg id="Layer_2" data-name="Layer 2" xmlns="http://www.w3.org/2000/svg" viewBox="0 0 172.99 230.71">
  <defs>
    <style>
      .cls-1 {
        fill: #008d4a;
      }

      .cls-1, .cls-2, .cls-3 {
        stroke-width: 0px;
      }

      .cls-2 {
        fill: #e64228;
      }

      .cls-3 {
        fill: #fff;
      }
    </style>
  </defs>
  <g id="Blancos">
    <path class="cls-3" d="m164.36,82.25c1.39-1.39,2.5-3.04,3.26-4.89,1.52-3.7,1.51-7.85-.04-11.53-3.89-9.24-10.3-17.15-18.53-22.88l-5.98-4.16c-5.62-3.91-12.22-5.98-19.07-5.98-1.23,0-2.45.07-3.66.2-2.25-7.88-7.34-14.73-14.51-19.18l-18.65-11.57c-2.45-1.52-5.19-2.25-7.9-2.25-4.51,0-8.94,2.03-11.88,5.83l-6.5,8.41c-4.5,5.82-6.88,12.83-6.98,19.97h-.11c-8.55,0-16.69,3.23-22.92,9.1l-16.33,15.4c-4.94,4.66-6.05,11.92-3.07,17.74-5.65,11.28-9.25,27.58-10.94,49.31-1.38,17.73-1.98,61.82,22.17,88.11,10.13,11.02,22.58,16.85,36.02,16.85,6.33,0,12.68-1.33,18.87-3.95,11.44-4.85,33.38-15.41,51.87-31.7,15.58-13.73,25.46-28.5,29.49-44.07,1.94-.52,3.78-1.43,5.4-2.7,3.24-2.54,5.29-6.31,5.67-10.41l2.81-30.15c.87-9.35-2.31-18.62-8.48-25.48Z"/>
  </g>
  <g id="Productos">
    <g>
      <path class="cls-2" d="m37.01,71.98c-.29.05-.57.11-.85.17-15.83,3.73-19.61,41.26-20.66,54.77-1.95,25.09,1.03,58.04,18.26,76.8,10.55,11.49,24.2,15.08,37.99,9.23,33.41-14.16,88.61-48.61,70.9-96.78-7.73-21.02-35.16-32.25-53.88-37.07-8.93-2.3-18.03-3.69-27.16-4.68-7-.76-17.54-3.68-24.59-2.44Z"/>
      <path class="cls-1" d="m73.73,52.08l-17.09-2.66c-5.62-.87-11.32.9-15.46,4.8l-16.33,15.4,11.85,14.35c4.35,5.27,11.27,7.7,17.97,6.3l14.89-3.12v18.6c0,2.2.42,4.38,1.24,6.43h0c1.87,4.67,5.67,8.29,10.42,9.93l8.28,2.86,23.8-18.93,9.36,17.97c2.73,5.23,7.8,8.84,13.63,9.7l18.82,2.78,2.81-30.15c.6-6.46-2.24-12.76-7.49-16.58l-14.68-10.7,18.01-7.42h0c-2.78-6.61-7.38-12.29-13.27-16.38l-5.98-4.16c-6.18-4.29-14.35-4.4-20.63-.26l-7,4.61-.26-13.59c-.12-6.24-3.39-12-8.7-15.3l-18.65-11.57-6.5,8.41c-3.75,4.85-4.84,11.26-2.9,17.08l3.87,11.59Z"/>
      <polygon class="cls-3" points="38.63 126.99 46.74 126.99 46.74 137.66 35.58 137.66 38.63 126.99"/>
      <polygon class="cls-3" points="87.5 135.68 85.02 149.48 92.26 149.48 97.12 141.01 87.5 135.68"/>
      <polygon class="cls-3" points="99.26 154.1 109.61 159.52 104.43 169.09 93.11 169.09 99.26 154.1"/>
      <polygon class="cls-3" points="53.97 145.41 65.18 148.32 59.57 160.4 53.97 157.11 53.97 145.41"/>
    </g>
  </g>
</svg>