<?xml version="1.0" encoding="UTF-8"?>
<svg id="Layer_2" data-name="Layer 2" xmlns="http://www.w3.org/2000/svg" viewBox="0 0 470.73 251.6">
  <defs>
    <style>
      .cls-1 {
        fill: #008d4a;
      }
    </style>
  </defs>
  <g id="Layer_1-2" data-name="Layer 1">
    <g>
      <g>
        <path class="cls-1" d="m168.75,40.3c-1.69-2.55-4.05-4.76-7.11-6.61-4.35-2.61-9.23-3.92-14.66-3.92-6.32,0-11.87,1.56-16.66,4.67-4.79,3.11-8.52,7.48-11.18,13.11-2.67,5.63-4,12.44-4,20.44s1.36,14.57,4.07,20.29c2.71,5.73,6.47,10.14,11.26,13.25,4.79,3.11,10.29,4.67,16.51,4.67,5.63,0,10.66-1.38,15.11-4.15,3.28-2.04,5.7-4.55,7.26-7.51v9.88h25.77V0h-26.36v40.3Zm-3.55,41.82c-2.57,2.91-5.83,4.37-9.77,4.37s-7.35-1.46-9.92-4.37c-2.57-2.91-3.85-7.63-3.85-14.14s1.28-11.38,3.85-14.29c2.57-2.91,5.87-4.37,9.92-4.37s7.21,1.46,9.77,4.37c2.57,2.91,3.85,7.68,3.85,14.29s-1.28,11.23-3.85,14.14Z"/>
        <path class="cls-1" d="m273.89,67.68c0-7.8-1.46-14.51-4.37-20.14-2.91-5.63-7.03-10-12.36-13.11-5.33-3.11-11.7-4.67-19.1-4.67s-13.99,1.63-19.77,4.89c-5.78,3.26-10.32,7.75-13.62,13.47-3.31,5.73-4.96,12.34-4.96,19.84s1.73,14.42,5.18,20.14c3.46,5.73,8.42,10.17,14.88,13.33,6.46,3.16,14.14,4.74,23.03,4.74,5.43,0,10.83-.81,16.22-2.44,5.38-1.63,9.95-3.73,13.7-6.29l-6.52-17.62c-3.26,2.27-6.91,3.95-10.96,5.03-4.05,1.09-7.95,1.63-11.7,1.63-4.34,0-7.95-.64-10.81-1.92-2.87-1.28-4.96-3.35-6.29-6.22-.65-1.4-1.14-3.03-1.48-4.89h48.94v-5.78Zm-42.65-18.59c2.27-1.43,4.94-2.15,8-2.15,4.24,0,7.48,1.29,9.7,3.85,1.95,2.25,3.04,5.61,3.28,10.07h-27.48c.28-2.05.74-3.88,1.39-5.48,1.13-2.76,2.84-4.86,5.11-6.29Z"/>
      </g>
      <path class="cls-1" d="m62.41,131.19c0-3.71.77-6.77,2.32-9.17,1.54-2.4,3.98-4.29,7.31-5.68,3.32-1.39,8-2.16,14.04-2.32l10.67-.69-2.09-29.47-14.15.7c-20.42,1.08-35.42,6.03-45.01,14.85-8.77,8.06-13.52,19.83-14.27,35.27H0v30.39h21.11v83.75h41.3v-83.75h29v-30.39h-29v-3.48Z"/>
      <path class="cls-1" d="m184.44,139.2c-8.35-4.87-18.33-7.31-29.93-7.31s-21.92,2.55-30.97,7.66c-9.05,5.1-16.16,12.14-21.34,21.11-5.18,8.97-7.77,19.34-7.77,31.09s2.71,22.59,8.12,31.55c5.41,8.97,13.18,15.93,23.32,20.88,10.13,4.95,22.16,7.42,36.08,7.42,8.5,0,16.97-1.27,25.4-3.83,8.43-2.55,15.58-5.84,21.46-9.86l-10.21-27.61c-5.1,3.56-10.83,6.19-17.17,7.89-6.34,1.7-12.45,2.55-18.33,2.55-6.81,0-12.45-1-16.94-3.01-4.49-2.01-7.77-5.26-9.86-9.75-1.02-2.2-1.79-4.75-2.31-7.65h76.67v-9.05c0-12.22-2.28-22.74-6.84-31.55-4.56-8.81-11.02-15.66-19.37-20.53Zm-40.6,22.97c3.56-2.24,7.73-3.37,12.53-3.37,6.65,0,11.72,2.01,15.2,6.03,3.05,3.53,4.77,8.79,5.14,15.78h-43.05c.43-3.22,1.15-6.09,2.18-8.58,1.78-4.33,4.45-7.62,8-9.86Z"/>
      <path class="cls-1" d="m309.67,102.87c-22.88,10.34-35.51,28.61-45.88,50.36v-18.56h-40.14v114.15h41.76v-50.49c0-26.84,13.36-42.8,36.64-55.24,13.29-7.1,26.2-8.08,41.3-8.5v-39.85c0-.2-15.27-.18-33.68,8.14Z"/>
      <rect class="cls-1" x="302.06" y="147.84" width="41.3" height="100.98"/>
      <path class="cls-1" d="m464.58,154.28c-4.1-7.5-10.29-13.11-18.56-16.82-8.28-3.71-18.76-5.57-31.44-5.57-5.73,0-11.95.62-18.68,1.86-6.73,1.24-13.11,2.94-19.14,5.1-6.03,2.17-11.06,4.64-15.08,7.43l10.67,27.14c6.96-3.86,13.96-6.73,21-8.59,7.04-1.85,13.57-2.78,19.61-2.78,6.8,0,11.64,1.12,14.5,3.36,2.86,2.24,4.29,6.23,4.29,11.95v3.25h-8.82c-15.93,0-28.73,1.04-38.4,3.13-9.67,2.09-16.67,5.53-21,10.32-4.33,4.8-6.5,11.37-6.5,19.72,0,7.27,1.89,13.73,5.68,19.37,3.79,5.65,9.09,10.13,15.89,13.46,6.8,3.32,14.62,4.99,23.43,4.99,5.72,0,10.83-1.04,15.31-3.13,4.48-2.09,8.12-4.95,10.91-8.58,1.69-2.2,3-4.62,3.94-7.24v16.18h38.51v-65.66c0-11.75-2.05-21.38-6.15-28.88Zm-35.61,60.56c-1.86,3.01-4.29,5.37-7.31,7.07-3.02,1.7-6.38,2.55-10.09,2.55-4.95,0-8.66-1.16-11.14-3.48-2.47-2.32-3.71-5.26-3.71-8.81,0-2.16.5-3.98,1.51-5.45,1-1.47,2.59-2.67,4.76-3.6,2.16-.93,4.87-1.7,8.12-2.32,3.25-.62,7.19-.93,11.83-.93h8.82v4.41c0,4.02-.93,7.54-2.78,10.56Z"/>
    </g>
  </g>
</svg>