<?xml version="1.0" encoding="UTF-8"?>
<svg xmlns="http://www.w3.org/2000/svg" viewBox="0 0 191.45 161.21">
  <defs>
    <style>
      .cls-1 {
        fill: #fff;
      }

      .cls-2 {
        fill: #52606b;
      }

      .cls-3 {
        fill: #008d4a;
      }

      .cls-4 {
        fill: none;
        isolation: isolate;
      }

      .cls-5 {
        fill: #269e65;
      }

      .cls-6 {
        fill: #4caf81;
      }

      .cls-7 {
        fill: #eab520;
        mix-blend-mode: color-burn;
        opacity: .5;
      }
    </style>
  </defs>
  <g class="cls-4">
    <g id="Layer_2" data-name="Layer 2">
      <g id="Blancos">
        <path class="cls-1" d="m191.11,16.88c-1.49-6.92-7.61-11.83-14.66-11.83-.1,0-.9.01-1.21.01-4.46,0-8.89-.64-13.17-1.9-.59-.17-1.19-.36-1.78-.55-.48-.15-.97-.3-1.46-.45-.71-.22-1.42-.42-2.14-.62-.88-.24-1.71-.44-2.52-.61-1.07-.23-2.17-.41-3.28-.56-1.9-.25-3.87-.37-5.86-.37,0,0-.46,0-.51,0-1,.01-2.03.05-3.05.13-2.99.22-6.09.71-9.21,1.47-.23.05-.47.11-.7.17-2.18.56-4.43,1.26-6.7,2.1-.5.18-.99.37-1.47.56-5.28,2.06-10.15,4.62-13.36,6.36-2.45,1.33-5.67,3.13-8.88,5.26-.78.52-1.55,1.05-2.3,1.59-2.57,1.85-4.82,3.73-6.88,5.75-1.17,1.15-2.32,2.39-3.4,3.68-2.54,3.04-4.65,6.3-6.25,9.69-.18.38-.36.77-.53,1.16-1.82-.3-3.7-.45-5.62-.45-.94,0-1.9.04-2.86.11-.7.05-1.4.13-2.1.21-1.81.23-3.66.58-5.65,1.07-2.25.55-4.34,1.2-6.12,1.76-.67.21-1.35.43-2.02.67-.6.21-1.2.43-1.79.67-2.88,1.16-5.29,2.6-7.38,4.37-.66.56-1.26,1.12-1.84,1.74-1.47,1.56-2.78,3.54-3.88,5.88-.87,1.84-1.87,4.5-2.31,7.54-1.96.7-3.77,1.43-5.47,2.21-2.26,1.03-4.38,2.18-6.31,3.41-2.25,1.43-4.33,3.02-6.2,4.75-1.63,1.51-3.16,3.17-4.67,5.08-.21.26-.41.52-.62.8-.62.81-1.24,1.68-1.84,2.58-1.15,1.71-2.29,3.56-3.47,5.68-1.07,1.91-2.12,3.93-3.11,6-.36.76-.72,1.52-1.06,2.28-1.64,3.65-3.03,7.34-4.13,10.99-.7,2.31-1.29,4.62-1.77,6.88-.33,1.55-.61,3.12-.83,4.65-.46,3.13-.71,6.23-.75,9.23-.01,1,0,2,.03,2.98.04,1.34.17,5.42,4.94,21.48,1.59,5.37,6.04,9.39,11.54,10.46.95.18,1.9.27,2.84.27,4.53,0,8.89-2.06,11.77-5.69.01-.01,1.12-1.41,2.76-3.25.26-.3.54-.6.83-.92.29-.32.59-.64.88-.95l.47-.5c1-1.04,1.95-1.97,2.82-2.75l.45-.4c1.26-1.1,1.97-1.57,2.22-1.72.55-.33,1.13-.66,1.79-1.01,1.53-.83,3.21-1.63,4.98-2.49,2.52-1.21,5.12-2.46,7.8-3.99,2.37-1.35,4.44-2.71,6.35-4.17,1.1-.84,2.2-1.76,3.26-2.72,6.28-5.67,10.84-12.45,14.98-18.92l.59-.92c.82-1.28,1.73-2.71,2.65-4.28.54,1.73,1.08,3.35,1.64,4.92l.17.46c.33.89.66,1.77,1.02,2.65.03.08.07.18.1.25.38.94.79,1.88,1.21,2.78.11.24.22.48.31.68.49,1.05.93,1.94,1.38,2.79.01.02.02.05.04.07,3.72,7.06,10.1,11.27,17.07,11.27,1.64,0,3.28-.23,4.87-.7,4.69-1.37,8.64-4.73,10.83-9.24.41-.85.77-1.75,1.05-2.67.54-1.75.81-3.56.82-5.41,0-.94-.06-1.88-.2-2.8-.69-4.69-2.9-8.04-4.09-9.84l-.11-.16c-.42-.63-.85-1.33-1.37-2.2l-.28-.48c-.44-.74-.86-1.49-1.28-2.28l-.15-.29c-.38-.73-.76-1.47-1.13-2.24l-.14-.28c-.39-.82-.76-1.64-1.1-2.46,0,0-.16-.37-.16-.38-.72-1.71-1.39-3.48-1.99-5.25.12-.22.23-.44.36-.68.14-.27.27-.55.38-.79.22-.47.42-.94.61-1.41.13-.32.25-.64.36-.94.24-.67.41-1.25.53-1.69.1-.33.19-.66.26-.99.02-.08.04-.15.05-.23,4.95-.31,9.37-1.47,12.73-2.34,3.54-.92,6.9-2.11,9.99-3.52,1.34-.61,2.67-1.3,4.08-2.1,2.1-1.2,3.98-2.44,5.73-3.8,1.95-1.52,3.78-3.15,5.6-5,.03-.03.05-.05.08-.08,2.7-2.75,4.98-5.6,7.09-8.27,1.99-2.53,3.79-4.7,5.52-6.65.93-1.05,1.8-1.99,2.65-2.88.46-.48.93-.96,1.41-1.43,1.93-1.92,3.84-3.59,5.67-4.99.46-.35.93-.69,1.4-1.02,1.84-1.29,3.66-2.32,5.4-3.07,6.59-2.83,10.25-9.94,8.74-16.95Z"/>
      </g>
      <g id="Layer_1-2" data-name="Layer 1">
        <g>
          <path class="cls-3" d="m57.33,58.37c1.73-1.83,4.24-2.68,6.65-3.44,3.43-1.08,6.9-2.12,10.49-2.4s7.33.27,10.38,2.17c3.43,2.13,5.7,5.77,7.04,9.57s1.89,7.84,2.62,11.81c2.22,11.93,6.34,23.62,13.02,33.75.8,1.22,1.67,2.47,1.88,3.91s-.47,3.14-1.87,3.55c-1.9.56-3.54-1.41-4.46-3.16-6.93-13.14-7.74-28.84-14.69-41.97-.41-.77-.85-1.54-1.52-2.09-1.12-.92-2.66-1.06-4.1-1.24-3.46-.44-6.85-1.35-10.07-2.7-2.58-1.08-4.57-2.07-7.38-1.43-1.97.45-7.64,3.05-9.35,1.99-2.31-1.43.1-7,1.35-8.32Z"/>
          <path class="cls-5" d="m24.74,93.32c2.13-3.79,4.51-7.5,7.71-10.46,5.04-4.66,11.71-7.09,18.3-8.98,10.83-3.1,23.73-4.62,32.24,2.76-2.7-.79-5.45,1.49-6.5,4.1s-.95,5.52-1.45,8.29c-.89,5-3.67,9.43-6.4,13.71-4.36,6.83-8.87,13.79-15.31,18.72-5.91,4.53-13.17,6.88-19.54,10.72s-14.46,14.04-14.46,14.04c0,0-4.21-14.2-4.32-17.69-.39-12.31,3.76-24.58,9.72-35.21Z"/>
          <path class="cls-5" d="m94.53,46.66c1.47-4.78,4.36-9.06,7.93-12.55,4.28-4.18,9.48-7.29,14.74-10.14,7.93-4.31,16.35-8.23,25.35-8.87,2.85-.2,5.73-.07,8.52.52,2.3.49,4.52,1.28,6.77,1.94,6.03,1.77,12.32,2.62,18.6,2.49-11.25,4.84-20.48,15.09-27.92,24.55-3.18,4.05-6.11,7.62-10.19,10.8s-9.23,5.41-14.37,6.75c-3.86,1.01-7.75,1.98-11.72,1.94-4.5-.05-9-.09-13.49-.13,1.06,4.02,1.77,8.63-.6,12.04-3.31,4.76-5.58-1.82-5.16-4.82.57-4.09,2.59-6.82,1.54-11.02-1.14-4.55-1.38-8.94,0-13.48Z"/>
          <path class="cls-2" d="m55.88,60.9c2.39-1.97,6.16-1.92,8.62-.02,1.23.95,2.19,2,3.39,2.79,1.17.82,2.49,1.46,3.85,2.05-1.47-.21-2.94-.64-4.26-1.39-1.36-.71-2.45-1.82-3.57-2.65-2.27-1.74-5.39-1.94-8.03-.78h0Z"/>
          <path class="cls-2" d="m82.99,76.64c-17.25-4.44-35.55,1.99-48.59,13.56-4.41,3.84-8.48,8.1-11.97,12.81,3.16-4.96,7.11-9.4,11.46-13.39,12.85-11.98,31.94-18.6,49.1-12.99h0Z"/>
          <path class="cls-2" d="m96.67,67.32c-1.89-5.54-.69-11.65,1.22-17.03,3.95-11.09,12.82-19.5,22.49-25.77,4.83-3.16,9.89-5.99,15.18-8.29-5.09,2.67-10.04,5.63-14.75,8.92-9.41,6.43-18.04,14.59-22.2,25.41-2.05,5.27-3.39,11.16-1.93,16.76h0Z"/>
          <path class="cls-6" d="m79.99,67.61c-1.36,2.43-2.14,5.18-2.27,7.96-.05.95-.01,1.93.36,2.8.59,1.4,1.92,2.32,3.18,3.16,3.86,2.56,7.71,5.12,11.57,7.69,1.52-5.34,7.15-9.05,7.75-14.57.44-4.04-2.06-7.89-5.15-10.53-.73-.63-1.52-1.21-2.42-1.56-3.12-1.19-4.59,1.09-6.64,2.76-2.22,1.81-4.71-.68-6.37,2.29Z"/>
          <path class="cls-2" d="m87.45,64.35c-2.57,3.67-.77,8.36.31,12.27.45,1.37.9,2.74,1.4,4.12-2.76-4.07-6.23-12.49-1.71-16.38h0Z"/>
          <path class="cls-7" d="m157.84,17.55c-2.25-.66-4.47-1.46-6.77-1.94-2.79-.59-5.68-.72-8.52-.52-9,.65-17.42,4.57-25.35,8.87-5.26,2.86-10.46,5.96-14.74,10.14-3.58,3.5-6.47,7.77-7.93,12.55-1.39,4.54-1.15,8.93,0,13.48.31,1.26.35,2.38.24,3.45-.55-.42-1.12-.79-1.76-1.03-.73-.28-1.36-.36-1.93-.31-1.38-3.04-3.4-5.8-6.21-7.55-3.06-1.89-6.8-2.44-10.38-2.17s-7.06,1.31-10.49,2.4c-2.41.76-4.91,1.61-6.65,3.44-1.25,1.32-3.65,6.89-1.35,8.32,1.71,1.06,7.37-1.54,9.35-1.99,2.8-.64,4.8.35,7.38,1.43,2.24.93,4.56,1.65,6.93,2.15-.82,1.63-1.39,3.38-1.69,5.17-8.09-3.58-18.34-2.11-27.19.42-6.59,1.89-13.26,4.33-18.3,8.98-3.19,2.95-5.58,6.66-7.71,10.46-5.96,10.63-10.11,22.9-9.72,35.21.11,3.48,4.32,17.69,4.32,17.69,0,0,8-10.15,14.46-14.04,6.37-3.84,13.63-6.2,19.54-10.72,6.43-4.93,10.95-11.89,15.31-18.72,2.73-4.28,5.51-8.71,6.4-13.71.49-2.77.4-5.68,1.45-8.29.35-.88.9-1.71,1.57-2.41,0,.01,0,.02.01.03.59,1.4,1.92,2.32,3.18,3.16,3.86,2.56,7.71,5.12,11.57,7.69.26-.92.65-1.79,1.11-2.63,2.72,9.32,4.64,18.97,9.15,27.54.92,1.75,2.56,3.72,4.46,3.16,1.4-.41,2.08-2.1,1.87-3.55-.21-1.44-1.07-2.69-1.88-3.91-5.34-8.08-9.03-17.16-11.44-26.56,1.99-2.72,4.11-5.35,4.47-8.63.19-1.72-.16-3.4-.85-4.96-.07-1.93-.48-3.9-.97-5.75,4.5.04,9,.09,13.49.13,3.97.04,7.86-.93,11.72-1.94,5.14-1.34,10.16-3.47,14.37-6.75,4.08-3.18,7.01-6.75,10.19-10.8,7.44-9.46,16.67-19.71,27.92-24.55-6.28.12-12.58-.72-18.6-2.49Z"/>
        </g>
      </g>
    </g>
  </g>
</svg>