<?xml version="1.0" encoding="UTF-8"?>
<svg xmlns="http://www.w3.org/2000/svg" viewBox="0 0 220.41 230.15">
  <defs>
    <style>
      .cls-1 {
        fill: #fff;
      }

      .cls-2 {
        fill: #f1edea;
      }

      .cls-3 {
        fill: none;
        isolation: isolate;
      }

      .cls-4 {
        fill: #7dc5a3;
      }

      .cls-5 {
        fill: #cd7534;
      }

      .cls-6 {
        fill: #231f20;
      }

      .cls-7 {
        fill: #eab520;
        mix-blend-mode: color-burn;
        opacity: .5;
      }
    </style>
  </defs>
  <g class="cls-3">
    <g id="Layer_2" data-name="Layer 2">
      <g id="Blancos">
        <path class="cls-1" d="m97.01,230.15c-.46,0-.91,0-1.37-.02-1.14-.04-2.3-.11-3.43-.23-1.97-.21-4.01-.57-6.06-1.08-1.81-.45-3.63-1.02-5.42-1.72-1.04-.4-2.06-.85-3.05-1.32-1.92-.92-3.63-1.89-5.22-2.96-.32-.22-.66-.46-1-.7l-.14-.1c-.39-.28-.77-.55-1.14-.83-.59-.44-1.17-.89-1.75-1.34-.98-.76-2.44-1.89-3.1-2.22-.2-.03-.68-.07-1.73-.08h-1.6c-.6.02-1.2.03-1.8.03-1.53,0-2.81-.05-4.03-.14-2.84-.23-5.68-.8-8.43-1.68-1.76-.57-3.51-1.27-5.18-2.1-1.06-.52-2.15-1.13-3.32-1.85-1.35-.83-2.56-1.67-3.68-2.55-.72-.56-1.43-1.16-2.11-1.77-4.98-4.51-8.69-10.15-10.73-16.33-.41-1.23-.71-2.35-.98-3.35-.18-.66-.42-1.55-.56-1.94-.05-.08-.11-.17-.17-.25-.09-.12-.2-.26-.32-.4-.33-.41-.69-.82-1.05-1.23-.54-.62-1.08-1.25-1.6-1.89-7.86-9.62-12.12-22.26-11.68-34.68.02-.7.06-1.39.11-2.09.04-.64.09-1.47.08-1.94-.03-.08-.07-.17-.12-.3-.2-.47-.42-.94-.64-1.41-.24-.52-.49-1.05-.72-1.58C1.06,131.07-.58,121.13.18,110.56c.27-3.65.83-7.37,1.67-11.06.32-1.41.69-2.85,1.11-4.29,1.4-4.86,3.29-9.67,5.6-14.3,1.62-3.23,3.44-6.38,5.44-9.38l.99-1.48c.24-.35.45-.68.66-1.02.13-.22.21-.36.25-.43.06-.26.19-.92.28-1.42l.22-1.15c.04-.23.09-.47.14-.7,1.33-6.19,3.96-12.17,8.05-18.34,1.47-2.22,3.17-4.52,5.18-7.03.84-1.05,1.71-2.09,2.58-3.12.82-.98,1.66-1.95,2.48-2.91.47-.55.95-1.11,1.44-1.66,1.28-1.46,2.29-2.58,3.29-3.63,1.45-1.52,2.94-2.93,4.42-4.19,2.46-2.09,4.89-3.78,7.44-5.15,1.38-.74,2.83-1.41,4.32-1.99,5.93-2.31,11.94-3.03,17.06-3.22,2.83-3.32,6.5-6.04,10.72-7.83,3.93-1.67,8.33-2.57,13.06-2.68.33,0,.67-.01,1.01-.01,1.81,0,3.73.11,5.69.34,1.96.22,4.02.58,6.3,1.1,8.69,1.98,17.08,5.97,24.26,11.54,1.52,1.18,2.98,2.49,4.39,3.95,1.15-2.07,2.24-4.1,3.28-6.11,1.22-2.37,3.27-6.35,7.36-9.59,3.97-3.15,8.88-4.81,14.19-4.81,3.84,0,7.74.9,11.28,2.6,3.84,1.85,11.82,5.69,14.34,14.71,1.08,3.89,1.44,9.95-3.02,16.78-1.08,1.66-2.2,3.31-3.31,4.96-1.38,2.05-2.73,4.06-4,6.04.54.41,1.08.83,1.67,1.32.41.34.82.71,1.22,1.09l.41.38c.52.47,1.03.95,1.52,1.46.65.66,1.18,1.28,1.57,1.73l.25.29c.38.43.76.86,1.12,1.31.92,1.16,1.77,2.35,2.54,3.55.03.05.07.1.1.15.26.41.51.83.76,1.25.21.34,1.08,1.83,1.08,1.83.2.34.35.58.46.75.47.25,1.21.6,1.79.87.82.38,1.63.77,2.43,1.18,17.66,9.02,27.96,29.74,24.49,49.26-.23,1.3-.5,2.5-.74,3.55-.11.48-.22.96-.32,1.44-.04.2-.09.44-.13.68-.08.42-.1.65-.11.77,0,.03,0,.1.01.26.05.48.16,1.19.28,1.95.12.76.25,1.52.35,2.28.2,1.51.34,3.04.41,4.57.07,1.47.07,2.98,0,4.49-.03.75-.08,1.48-.14,2.21-1.2,14.38-8.07,26.74-13.14,34.79-.24.37-.48.76-.72,1.14-.54.85-1.09,1.69-1.65,2.52-.53.8-1.07,1.59-1.61,2.38l-.81,1.17c-1.19,1.72-2.39,3.4-3.58,5.06l-8.35,11.62c-1.51,2.11-3.08,4.29-4.83,6.5-1.01,1.29-1.97,2.43-2.92,3.5-1.1,1.25-2.24,2.44-3.36,3.53-2.54,2.46-5.36,4.68-8.38,6.63-1.96,1.26-4.02,2.42-6.14,3.43-5.26,2.53-10.86,4.24-16.65,5.08-2.73.4-5.51.6-8.25.6h0c-4.36,0-8.67-.51-12.83-1.51-.2-.05-.41-.1-.61-.15-.2.17-.4.33-.6.49-2.41,1.94-5.12,3.66-8.07,5.09-1.53.74-2.94,1.35-4.3,1.84-1.86.67-3.79,1.22-5.89,1.67-1.54.33-3,.57-4.45.73-1.75.2-3.51.3-5.23.3Z"/>
      </g>
      <g id="Layer_1-2" data-name="Layer 1">
        <g>
          <path class="cls-4" d="m101.58,18.82c-4.11-.47-8.4-.36-12.21,1.26-3.81,1.62-7.06,4.95-7.73,9.04-7.88-.21-16.18-.32-23.13,3.41-4.92,2.64-8.67,6.96-12.32,11.19-6.36,7.38-12.93,15.2-14.98,24.72-.37,1.73-.59,3.5-1.17,5.17-.79,2.26-2.23,4.24-3.56,6.23-10.55,15.84-15.43,36.77-7.7,54.17.94,2.13,2.07,4.21,2.52,6.5.47,2.43.14,4.94.05,7.42-.32,8.86,2.69,17.8,8.3,24.66,1.72,2.11,3.7,4.05,4.92,6.48,1.16,2.3,1.57,4.9,2.38,7.35,2.88,8.71,11.28,15.31,20.42,16.05,4.15.34,8.45-.42,12.43.82,4.19,1.31,7.39,4.63,11.03,7.08,10.28,6.91,25.04,6.27,34.68-1.52,1.95-1.57,3.8-3.45,6.22-4.09,2.6-.68,5.31.2,7.92.83,13.43,3.23,28.38-.84,38.31-10.44,3.56-3.44,6.46-7.48,9.35-11.49,2.78-3.87,5.56-7.74,8.34-11.62,10.19-14.18,20.89-30.27,18.55-47.58-.29-2.15-.78-4.28-.78-6.45,0-3.09.99-6.08,1.54-9.13,2.32-13.06-4.73-27.24-16.54-33.28-2.62-1.34-5.49-2.34-7.64-4.35-2.04-1.9-3.24-4.52-4.73-6.88-4.4-6.98-11.67-11.5-19.63-13.3-5.64-1.28-11.84-.56-16.41-4.63-5.92-5.28-8.82-12.96-15.38-18.04s-14.66-8.63-23.05-9.58Z"/>
          <path class="cls-5" d="m158.25,51.58c3.31-9.39,9.44-17.41,14.84-25.68,3.37-5.16-.52-7.5-5.26-9.78-3.06-1.47-6.99-1.65-9.65.46-1.52,1.2-2.45,2.98-3.34,4.7-4.36,8.47-9.66,17.05-14.03,25.82,4.48,3.36,10.3,2.79,15.62,3.99.61.14,1.22.32,1.82.5Z"/>
          <path class="cls-7" d="m188.43,75.62c-2.62-1.34-5.49-2.34-7.64-4.35-2.04-1.9-3.24-4.52-4.73-6.88-4.06-6.44-10.57-10.76-17.8-12.81-.61-.17-1.21-.36-1.82-.5-5.32-1.21-11.15-.64-15.62-3.99-.27-.2-.53-.41-.79-.64-5.92-5.28-8.82-12.96-15.38-18.04-6.65-5.16-14.66-8.63-23.05-9.58-4.11-.47-8.4-.36-12.21,1.26-3.81,1.62-7.06,4.95-7.73,9.04-7.88-.21-16.18-.32-23.13,3.41-4.92,2.64-8.67,6.96-12.32,11.19-6.36,7.38-12.93,15.2-14.98,24.72-.37,1.73-.59,3.5-1.17,5.17-.79,2.26-2.23,4.24-3.56,6.23-10.55,15.84-15.43,36.77-7.7,54.17.94,2.13,2.07,4.21,2.52,6.5.47,2.43.14,4.94.05,7.42-.32,8.86,2.69,17.8,8.3,24.66,1.72,2.11,3.7,4.05,4.92,6.48,1.16,2.3,1.57,4.9,2.38,7.35,2.88,8.71,11.28,15.31,20.42,16.05,4.15.34,8.45-.42,12.43.82,4.19,1.31,7.39,4.63,11.03,7.08,10.28,6.91,25.04,6.27,34.68-1.52,1.95-1.57,3.8-3.45,6.22-4.09,2.6-.68,5.31.2,7.92.83,13.43,3.23,28.38-.84,38.31-10.44,3.56-3.44,6.46-7.48,9.35-11.49,2.78-3.87,5.56-7.74,8.34-11.62,10.19-14.18,20.89-30.27,18.55-47.58-.29-2.15-.78-4.28-.78-6.45,0-3.09.99-6.08,1.54-9.13,2.32-13.06-4.73-27.24-16.54-33.28Z"/>
          <path class="cls-2" d="m102.28,26.07c-3.8-.43-7.77-.33-11.29,1.16s-6.53,4.58-7.15,8.36c-7.29-.19-14.96-.3-21.39,3.15-4.55,2.44-8.02,6.44-11.39,10.35-5.88,6.83-11.96,14.05-13.85,22.86-.34,1.6-.55,3.24-1.09,4.78-.73,2.09-2.06,3.92-3.29,5.76-9.76,14.65-14.26,34-7.12,50.09.87,1.97,1.92,3.89,2.33,6.01.44,2.25.13,4.57.04,6.86-.29,8.19,2.49,16.46,7.68,22.8,1.59,1.95,3.42,3.75,4.55,5.99,1.07,2.13,1.45,4.53,2.2,6.79,2.66,8.05,10.43,14.16,18.88,14.84,3.84.31,7.82-.39,11.49.76,3.88,1.21,6.83,4.28,10.2,6.55,9.51,6.39,23.16,5.79,32.07-1.4,1.8-1.45,3.51-3.19,5.75-3.78,2.4-.63,4.91.19,7.33.77,12.42,2.99,26.24-.78,35.43-9.65,3.29-3.18,5.98-6.91,8.64-10.63,2.57-3.58,5.14-7.16,7.72-10.74,9.42-13.12,19.32-27.99,17.16-44-.27-1.99-.72-3.96-.72-5.97,0-2.86.92-5.63,1.42-8.44,2.15-12.08-4.37-25.19-15.3-30.77-2.42-1.24-5.08-2.17-7.07-4.02-3.81-3.55-3.51-7.35-9-8.76-4.13-1.06-8.89-.16-12.61,1.81-5.41,2.86-9.34,8.07-11.48,13.8-1.69,4.52-2.71,9.9-6.84,12.41-1.3.79-2.79,1.2-4.17,1.84-3.2,1.48-5.68,4.14-8.07,6.73-5.14,5.57-10.28,11.14-15.42,16.7-3,3.25-6.58,6.76-11,6.64,1.18.03,11.22-16.77,12.76-18.72,4.34-5.49,8.89-9.58,12.74-15.61.76-1.19,1.53-2.41,1.86-3.78.32-1.34.19-2.74.45-4.1.44-2.33,1.96-4.28,3.3-6.24,9.94-14.52,10.2-30.99-4.44-42.35-6.15-4.78-13.56-7.98-21.32-8.86Z"/>
          <path class="cls-6" d="m151.7,107.01c2.13,1.21,4.62,1.57,7.05,1.89,5.64.74,11.78,1.3,16.66-1.63,1.43-.86,2.81-2.25,2.69-3.92-.1-1.46-1.32-2.58-2.51-3.43-6.05-4.31-13.99-5.85-21.21-4.12-5.91,1.41-8.99,7.65-2.68,11.22Z"/>
          <path class="cls-6" d="m158.92,141.6c2.87,1.1,6.25,1.41,8.91-.11s4.11-5.3,2.39-7.85c-2.9-4.31-8.09-3.91-12.21-5.82-3.53-1.64-5.16-3.99-9.63-4.4-3.21-.3-7.03-.31-8.94,2.29-1.71,2.33-.89,5.82,1.13,7.9,3.81,3.94,13.22,6.08,18.35,8Z"/>
          <path class="cls-6" d="m124.97,150.22c-1.29-.1-2.65-.14-3.8.46-9.21,4.83,6.17,20.86,16.15,14.3,12.68-8.34-4.81-14.19-12.35-14.76Z"/>
          <path class="cls-6" d="m104.61,185.9c10.59-1.94,4.15-19.81-5.87-17.67-10.38,2.21-2.31,19.17,5.87,17.67Z"/>
          <path class="cls-6" d="m39.23,140.25c-.93,1.82-1.86,3.98-.97,5.81.39.8,1.09,1.41,1.84,1.89,4.91,3.19,25.02,2.35,21.32-7.14-2.85-7.31-19.12-6.61-22.2-.57Z"/>
          <path class="cls-6" d="m60.97,101.91c-3.66-2.13-9.87-3.68-13.99-1.97-2.8,1.16-2.97,5.57-2.48,8.1.8,4.21,4.67,7.03,8.23,9.42,4.54,3.04,13.15,8.67,16.58,1.34,2.87-6.14-3.38-14.01-8.34-16.89Z"/>
          <path class="cls-6" d="m77.68,90.46c3.18,2.55,6.67,3.31,9.47-1.07,4.14-6.5-4.43-14.87-6.76-20.46-2.03-4.88-6.24-5.57-9.58-1.4-1.73,2.16-2.36,5.03-2.34,7.79.01,1.47.21,2.98.89,4.28,1.3,2.48,4.6,7.88,8.32,10.86Z"/>
          <path class="cls-6" d="m104.57,72.32c2.65-.61,4.28-3.22,2.77-8.44-1.22-4.21-6.69-21.63-12.97-14.52-3.71,4.2-2.81,11.63-.68,16.34,2.15,4.75,7.39,7.43,10.88,6.63Z"/>
        </g>
      </g>
    </g>
  </g>
</svg>