<?xml version="1.0" encoding="UTF-8"?>
<svg xmlns="http://www.w3.org/2000/svg" viewBox="0 0 197.54 273.92">
  <defs>
    <style>
      .cls-1 {
        fill: #fff;
      }

      .cls-2 {
        fill: #6ebe98;
      }

      .cls-3 {
        fill: #8cccae;
      }

      .cls-4 {
        fill: #80c6a5;
      }

      .cls-5 {
        fill: #69bc94;
      }

      .cls-6 {
        fill: none;
        isolation: isolate;
      }

      .cls-7 {
        fill: #038e4c;
      }

      .cls-8 {
        fill: #99d1b7;
      }

      .cls-9 {
        fill: #eab520;
        mix-blend-mode: color-burn;
        opacity: .5;
      }
    </style>
  </defs>
  <g class="cls-6">
    <g id="Layer_2" data-name="Layer 2">
      <g id="Blancos">
        <path class="cls-1" d="m37.18,273.92c-2.33,0-4.64-.36-6.86-1.07-1.11-.36-2.26-.78-3.51-1.3l-.1-.04c-.3-.12-.6-.25-.9-.38-.19-.08-.34-.15-.48-.22-2.31-1.06-4.54-2.3-6.69-3.71-.17-.11-.32-.21-.48-.31-.77-.52-1.61-1.12-2.49-1.79-.16-.12-.33-.24-.48-.36-.04-.03-1.02-.82-1.02-.82-.17-.14-.34-.28-.51-.42-.26-.22-.51-.43-.75-.64l-.64-.56c-.29-.26-.56-.51-.83-.76l-.45-.42c-.34-.32-.65-.63-.96-.93l-.26-.25c-1.39-1.39-2.73-2.86-3.97-4.36-1.73-2.09-3.1-4.43-4.08-6.96-1.57-4.04-2.09-8.46-1.49-12.77,1.56-11.14,6.12-33.88,19.11-61.13,2.24-4.69,4.64-9.34,7.14-13.81,3.68-6.57,7.33-13.9,10.87-21.81-.2-.8-.45-1.24-.87-1.79-8.21-9.89-14.86-22.13-4.63-38.59-.76-1.46-2.11-3.52-3.1-5.02-4.12-6.27-9.75-14.83-8.64-25.97.93-13.02,10.9-23.69,22.91-24.94-.2-2.87-.37-5.83-.11-8.74.35-3.88,1.81-6.74,2.88-8.51v-.28c0-3.74-.01-10.67,5.28-17.02C55.3,3.01,61.49,0,68.11,0c.74,0,1.49.04,2.22.12,4.5.47,8.27,2.13,11.3,4.96,2.19-.94,4.78-1.61,7.75-1.61,10.39,0,16.68,7.95,19.65,12.54,1.12-.38,2.43-.87,3.45-1.26,4.38-1.66,9.35-3.55,15.09-3.55,3.34,0,6.51.66,9.42,1.95,4.37,1.92,7.06,4.94,8.68,8.33.06,0,.12,0,.19,0,3.75,0,7.29,1.18,10.23,3.4,3.21,2.42,7.75,7.39,8.16,16.24.79-.07,1.57-.1,2.36-.1,7.84,0,14.7,3.4,18.8,9.33,2.24,3.23,5.33,9.76,2.92,19.1,3.63,2.67,6.35,6.33,7.87,10.75,5.38,15.63-6.76,34.63-11.95,40.71-1.8,2.13-3.93,3.85-5.94,5.38,2.73,6.09,3.1,13.04.99,19.81-2.77,8.9-9.51,16.73-18.05,20.95-9.35,4.62-18.88,5.13-27.3,5.58-1.56.08-3.11.17-4.65.28-5.55.38-10.71,2.15-16.41,5.66-.63,1.39-1.26,2.75-1.88,4.08-12.91,27.84-24.53,48.31-34.54,60.85-.04.05-.08.1-.11.13-.32.4-.64.79-.95,1.17-1.53,1.85-3.02,3.51-4.44,4.95-.89.9-1.8,1.76-2.69,2.55l-.41.36c-.36.31-.69.58-1.01.84-.06.05-.12.1-.19.15-.25.2-.47.37-.68.53-.34.26-.66.49-.96.7-.19.29-.39.59-.6.89-6.96,10.25-14.71,16.24-23.04,17.78-.06.01-.46.08-.6.1-1.21.19-2.43.29-3.64.29Z"/>
      </g>
      <g id="Layer_1-2" data-name="Layer 1">
        <g>
          <path class="cls-7" d="m96.8,171.58c9.51-7.43,19.24-12.8,31.4-13.63,8.96-.66,18.34-.37,26.39-4.35,8.05-3.98,13.94-14.24,9.57-22.08-1.19-2.13-3.04-3.96-3.53-6.35-1.15-5.61,8.92-10.08,12.18-13.98,5.92-6.91,17.1-28.39,2.7-31.3-1.61.1-3.22.96-4.79-.5-3.67-3.8,1.1-8.28,2.52-11.92,4.11-10.92-5.82-14.16-14.65-9.14-8.3,4.22-12.73-3.54-9.97-11,.88-3.65,1.42-8.22-1.58-10.48-1.88-1.42-5.7,1.47-9.23,4.58-2.24,1.97-5.72.14-5.34-2.82.66-5.15,1.02-10.63-1.55-11.75-9.34-4.2-24.5,13.31-33.51-1.14-9.91-16.58-12.96.77-21.06-1.68-3.59-1.81-1.98-8.42-7.56-9.01-2.37-.25-4.64.85-6.1,2.73-3.34,3.89-.76,9.21-2.74,13.37-.78,1.63-1.94,2.64-2.08,4.26-.65,7.3,3.56,22.05-5.15,23.4-2.35.07-4.6-1-6.94-1.11-5.76-.27-10.38,5.57-10.69,11.33-1.45,12.63,15.89,22.31,11.63,34.61-7.33,9.57-6.48,14.72,1.46,24.26,5.99,7.54,3.51,13.92,6.3,22.09,2.94,8.63,11.67,11.7,17.65,17.79,7.21,9.84,14.65,11.96,24.7,3.82Z"/>
          <path class="cls-5" d="m15.1,237.91c-.41,2.9.41,5.84,2.27,8.1,3.25,3.93,9.26,9.89,17.53,12.54,7.82,2.51,15.76-8.91,18.44-13.25.56-.9,1.31-1.66,2.23-2.19,4.5-2.61,21.17-16.89,53.56-93.27,0,0,18.7-35.74,26.71-47.23s-61.29-24.89-61.29-24.89c0,0-12.4,50.22-34.97,90.51-17.75,31.7-23.04,59.33-24.49,69.67Z"/>
          <path class="cls-8" d="m135.85,102.62c-8.02,11.5-26.72,47.23-26.72,47.23-32.39,76.37-49.05,90.65-53.55,93.26-.91.53-1.67,1.29-2.23,2.19-2.68,4.34-10.62,15.76-18.44,13.25-2.09-.67-4.05-1.56-5.84-2.57-1.66-.92-3.19-1.96-4.57-3.04.76-2.97,2.51-5.37,4.75-7.43,4.21-3.9,10.15-6.6,14.4-9.67.82-.59,1.63-1.21,2.42-1.83,3.98-3.14,7.62-6.67,10.97-10.47,1.27-1.44,2.5-2.91,3.69-4.42,12.5-15.84,21.7-34.43,31.99-51.72l21.28-35.77c6.72-11.28,12.4-23.87,21.21-33.76,1.4,1.59,1.74,3.19.65,4.75Z"/>
          <path class="cls-3" d="m24.49,252.95c-3.06-2.37-5.45-4.92-7.12-6.94-1.87-2.26-2.68-5.2-2.28-8.1,1.45-10.34,6.73-37.97,24.49-69.67,22.56-40.29,34.97-90.52,34.97-90.52,0,0,1.04.2,2.86.58-3.99,13.55-7.42,27.25-10.28,41.09h0c-3.88,11.18-7.92,22.17-12.15,33.11-5,12.95-10.14,25.86-15.38,38.72-3.51,8.63-8.4,17.03-10.76,26.06-.84,3.21-1.36,6.5-1.39,9.91-.04,6.05,1.19,12.02,1.74,18.03,0,.1.02.21.03.3-2.24,2.06-3.99,4.46-4.75,7.43Z"/>
          <path class="cls-4" d="m46.06,234.03c-.79.62-1.6,1.24-2.42,1.83-4.25,3.07-10.18,5.77-14.4,9.67,0-.1-.02-.21-.03-.3-.55-6.01-1.78-11.98-1.74-18.03.02-3.41.54-6.7,1.39-9.91.62-1.02,1.27-2.02,1.95-3,5.21-7.58,10.57-14.95,14.77-23.18,9.76-19.12,15.47-39.16,19.31-60.15.71-3.86,1.46-7.71,2.26-11.56h0c2.86-13.84,6.29-27.55,10.28-41.09.82.17,1.82.38,2.94.62,2.26.48,5.05,1.1,8.18,1.83-4.2,10.02-6.05,20.7-8.38,31.36-4.65,21.33-9.88,42.57-16.65,63.34-1.55,4.76-3.18,9.49-4.9,14.19v.02c-2.07,5.66-4.28,11.27-6.61,16.82-3.63,8.61-6.79,16.96-6.03,26.53.03.34.06.68.1,1.02Z"/>
          <path class="cls-3" d="m57.03,223.55c-3.35,3.8-6.99,7.33-10.97,10.47-.04-.34-.07-.68-.1-1.02-.76-9.56,2.4-17.91,6.03-26.53,2.34-5.55,4.54-11.16,6.61-16.82v-.02c8.13-13.81,14.83-28.53,20.52-43.36,7.93-20.68,16.43-41.14,24.94-61.59,5.26,1.45,10.58,3.07,15.34,4.8-15.28,31.26-30.56,62.53-45.84,93.79-6.37,13.03-12.82,26.34-16.54,40.27Z"/>
          <path class="cls-9" d="m15.1,237.91c-.41,2.9.41,5.84,2.27,8.1,3.25,3.93,9.26,9.89,17.53,12.54,7.82,2.51,15.76-8.91,18.44-13.25.56-.9,1.31-1.66,2.23-2.19,4.5-2.61,21.17-16.89,53.56-93.27,0,0,18.7-35.74,26.71-47.23s-61.29-24.89-61.29-24.89c0,0-12.4,50.22-34.97,90.51-17.75,31.7-23.04,59.33-24.49,69.67Z"/>
          <path class="cls-7" d="m73.24,122.08c-.47-6.63,3.17-12.88,3.7-19.51.36-4.5-.73-8.99-.77-13.51s1.28-9.5,5.08-11.92c.77-.49,1.64-.87,2.28-1.52,1.84-1.84,1.5-5.37,3.75-6.67.65-.37,1.41-.48,2.15-.56,2.99-.31,6.1-.14,8.86,1.03s5.16,3.46,5.96,6.36c.29,1.04.36,2.17.02,3.2-.38,1.16-1.25,2.09-2.09,2.98-3.29,3.49-6.58,6.97-9.86,10.46,1.72-.5,3.39,1.36,3.41,3.15s-1.03,3.4-2.04,4.87c-2.02,2.95-4.09,5.96-7.02,8.01-1.57,1.1-3.37,1.91-4.7,3.29-1.01,1.05-1.68,2.36-2.34,3.65-1.81,3.54-3.63,7.09-5.44,10.63-1.36-2.44-1.54-5.51-.47-8.09"/>
          <path class="cls-7" d="m105.89,122.3c2.69-1.25,5.63-2.27,7.64-4.47,3.28-3.6,3.24-9.47,6.8-12.79,1.35-1.26,3.28-2.31,3.42-4.15.11-1.46-1.02-2.69-2.07-3.72-1.18-1.16-2.36-2.32-3.54-3.48-2.05-2.01-5.06-4.16-7.5-2.64-1.54.96-2.18,3.14-3.9,3.72-1.53.51-3.14-.5-4.75-.62-1.41-.1-2.78.5-4.01,1.2-5.16,2.97-8.96,8.2-10.19,14.03-.79,3.74-.56,7.6-.69,11.42-.14,4.33-1.07,8.38-1.73,12.63-.8,5.18,2.72,2.18,5.46.08,4.94-3.8,8.98-9.04,15.08-11.2Z"/>
          <path class="cls-7" d="m68.11,85.08c-1.32-.58-2.64-1.16-3.95-1.74-1.46,1.64-1.33,4.21-.43,6.21s2.41,3.65,3.63,5.48c2.25,3.38,3.46,7.44,3.42,11.5.02-2.37,2.17-5.87,2.92-8.19.99-3.05,1.82-6.14,2.73-9.22,1.07-3.62,2.77-7.07,3.74-10.72.79-2.97.64-5.56-.81-8.31-2.19-4.16-6.84-9.59-9.49-3.31-2.41,5.7-2.99,12.24-1.75,18.3Z"/>
          <path class="cls-7" d="m130.14,131.43c1.12-.21,2.3-.36,3.37.04s1.94,1.54,1.65,2.64c-.35,1.37-2.21,2.01-2.4,3.41-.18,1.33,1.24,2.3,2.53,2.68s2.78.63,3.52,1.75c.83,1.28.15,3.09-1.05,4.02s-2.76,1.24-4.25,1.56-3.05.76-4.1,1.86c-.69.72-1.15,1.73-2.06,2.13-.8.36-1.74.14-2.57-.13-4.93-1.57-10.14-6.09-15.59-4.28-1.44.48-4.68,3.47-5.76,2.1-1.23-1.57,2.96-5.4,3.85-6.21,1.49-1.36,2.99-2.71,4.48-4.07,4.65-4.22,12.35-6.4,18.39-7.52Z"/>
          <path class="cls-7" d="m118.97,102.93c-.03-2.2-2.32-3.37-5.2-3.22-2.38.13-4.64,1.08-7,1.35-4.74.55-9.31-1.64-13.58-3.76-.98-.49-2-1.01-2.62-1.91-.75-1.08-.78-2.48-.78-3.78-.02-4.46.42-9.78,4.29-12,1.53-.88,3.35-1.08,5.11-1.14,10.8-.37,21.26,3.94,30.52,9.51,3.58,2.15,7.3,4.86,8.35,8.9.55,2.09.3,4.31,0,6.45-1.08,7.55-3.54,13.85-7.55,20.32-.34.56-.74,1.15-1.37,1.35-.45.14-.94.05-1.39-.09-1.79-.56-3.31-1.91-4.08-3.62-.62-1.38-.97-3.19-2.4-3.69-.92.82-1.67,1.82-2.2,2.94-1.77-1.85-2.59-4.44-2.75-7-.24-3.71.81-5.62,2.21-8.71.31-.69.45-1.31.44-1.87Z"/>
          <path class="cls-2" d="m54.59,93.61c-.65-.99-1.23-2.05-1.48-3.31-.44-1.93.72-4.6,2.99-4.89,1.89-.39,4.41,1.49,5.2-.97.47-1.59.07-3.37.73-5.1.78-2.42,2.63-4.44,4.88-5.25-2.78,2.34-3.81,5.53-3.47,8.95.15,2.01-1.18,4.89-3.79,4.65-1.23-.03-2.27-.58-3.33-.56-2.87.52-2.33,4.26-1.72,6.46h0Z"/>
          <path class="cls-2" d="m130.4,149.2c3.38-1.78,3.97-6.7.87-8.92-5.19-2.64-3.53-8.06.53-10.8,2.34-1.75,5.42-3.16,5.9-6.21.16-1.36-.38-3.02-1.88-3.65,1.72.19,2.78,2.02,2.86,3.67.07,1.82-.92,3.41-2.06,4.61-2.01,2.22-5.2,3.51-6.3,6.23-.49,1.2-.44,2.6.31,3.4.98.91,2.84,2.01,3.35,3.51,1.63,3.12-.2,7.39-3.58,8.17h0Z"/>
          <path class="cls-2" d="m70.93,44.09c-1.3-3.1,2.08-6.29,5.23-5.12,4.41,1.61,5.97,4.22,9.66-.43,1.71-2.12,4.38-4.57,7.45-3.98,1.47.28,2.84,1.31,3.17,2.69-.75-1.17-2.06-1.72-3.28-1.72-4.54.12-5.44,5.38-9.25,7.2-2.95,1.45-5.88-1.18-8.24-2.31-2.37-1.18-5.04,1.03-4.73,3.65h0Z"/>
          <path class="cls-2" d="m101.15,77.33c.69-2.72,4.67-2.77,6.35-.84,1.47,1.52,1.46,3.52,1.55,5.36.06,1.29.09,2.58,1.71,2.36,1.08-.14,2.55-.52,3.69-.07,2.46.7,4.23,3.65,3.05,5.97.24-2.35-1.59-4.15-3.43-4.45-1.82-.31-3.45,1.17-5.33.11-2.01-1.16-1.58-3.61-1.68-5.52-.02-1.07-.21-2-.73-2.72-1.19-1.62-3.89-2.05-5.18-.19h0Z"/>
          <path class="cls-2" d="m131.68,59.87c3.08-1.8,7.65-.77,9.8,2.22,1.25,1.72,1.8,3.96,2.72,5.74,2.04,4.43,6.84,2.07,10.69,2.89,3.53.6,4.98,4.51,4.48,7.66-.44,4.07-2.94,8.07-2.15,12.03.23,1.25.77,2.43,1.68,3.24.85.85,2.28,1.09,3.59,1.94,2.88,1.94,1.22,5.83-.71,7.78,1.35-1.98,2.81-5.51.19-6.95-1.07-.62-2.6-.74-3.9-1.76-2.49-1.99-2.98-5.47-2.5-8.4.52-3.86,2.95-7.89,1.38-11.67-1.12-2.48-3.98-2.17-6.41-2.1-2.1.11-4.95-.15-6.49-2.01-2.4-2.7-2.01-6.87-4.77-9.21-1.95-1.75-4.97-2.39-7.6-1.39h0Z"/>
        </g>
      </g>
    </g>
  </g>
</svg>