<?xml version="1.0" encoding="UTF-8"?>
<svg xmlns="http://www.w3.org/2000/svg" viewBox="0 0 143.26 211.98">
  <defs>
    <style>
      .cls-1 {
        fill: #008d4a;
      }

      .cls-1, .cls-2, .cls-3, .cls-4, .cls-5, .cls-6 {
        stroke-width: 0px;
      }

      .cls-7 {
        isolation: isolate;
      }

      .cls-8 {
        mix-blend-mode: hard-light;
        opacity: .35;
      }

      .cls-2 {
        fill: #0d9353;
      }

      .cls-3 {
        fill: #73c09c;
      }

      .cls-4 {
        fill: #fff;
      }

      .cls-5 {
        fill: #eab520;
      }

      .cls-6 {
        fill: #4caf81;
      }
    </style>
  </defs>
  <g class="cls-7">
    <g id="Layer_2" data-name="Layer 2">
      <g id="Blancos">
        <path class="cls-4" d="M140.28,97c-.18-2.26-.74-4.52-1.66-6.73,1.06-1.61,1.89-3.32,2.49-5.14.95-2.86,1.13-5.38,1.18-7.67.11-4.79-.12-10.46-2.69-16.2-1.12-2.49-2.5-4.57-4.25-6.36-.75-.77-1.58-1.47-2.46-2.13,2.25-3.16,3.45-6.96,3.4-10.99-.07-5.84-2.85-11.83-7.43-16.03-4.93-4.52-11.48-7.12-17.97-7.12-2.59,0-5.11.41-7.48,1.21-.5-1.44-1.12-2.82-1.88-4.15-3.7-6.5-10.37-11.17-18.29-12.82-1.94-.4-3.89-.61-5.79-.61-3.16,0-6.14.55-8.91,1.64C64.98,1.48,60.67.07,56.13,0h-.38c-5.04,0-10.12,1.57-15.08,4.68-8.27,5.18-13.74,13.04-15,21.57-.2,1.37-.27,2.58-.33,3.46,0,.01,0,.02,0,.03-.04.1-.08.19-.12.29-.94,2.29-2.98,7.29-2.12,13.05-6.95,1.16-13.33,4.92-17.66,10.54-3.33,4.34-5.04,9.28-4.94,14.3.04,2.11.41,3.91.74,5.24-.32,1.1-.71,2.52-.96,4.18-.97,6.41.78,11.88,1.82,15.15.95,2.98,2.71,8.51,7.24,13.05,4.45,4.46,9.7,6.28,14.25,7.47,2.31.6,4.54,1.11,6.71,1.6,3.8,2.24,8.26,3.42,12.94,3.42,2.83,0,5.7-.42,8.54-1.25.19-.06.39-.11.58-.17,2.65,12.81,3.56,27.3,2.84,44.67-.39,9.25-1.25,20.03-4.64,29.76-2.72,7.8,1.38,16.33,9.16,19.08l2.83,1c1.65.58,3.34.86,5,.86,6.17,0,11.96-3.84,14.14-9.99.05-.15.1-.31.16-.46,1.62.6,3.35.93,5.15.93.52,0,1.04-.03,1.57-.08l2.98-.31c8.19-.85,14.16-8.15,13.38-16.35-.79-8.25-1.74-19.08-2.07-29.82-.15-9.81.69-19.87,2.51-30.01.73.52,1.52,1.01,2.36,1.47,3.11,1.69,6.65,2.59,10.22,2.59,4.84,0,9.33-1.63,12.79-4.53,6.89-2.27,12.02-8.71,12.49-16.5.31-5.2-1.49-9.37-2.94-11.92Z"/>
      </g>
      <g id="Productos">
        <g>
          <g>
            <path class="cls-3" d="M90.31,87.81c-.01-.2-.02-.41-.03-.61-.06-2.1.09-4.2.46-6.26.24-1.32.58-2.66,1.37-3.75.77-1.07,2.02-1.88,3.37-1.69.53.07,1.08.19,1.58,0,.59-.22.89-.77,1.31-1.19.49-.49,1.09-.84,1.71-1.15,1.52-.75,3.29-1.01,4.95-.66.68-1.37,1.11-2.96,2.19-4.08,1.02-1.06,2.44-1.74,3.9-1.87.63-.05,1.2.14,1.81.14.54,0,.28.16.63-.22.2-.21.3-.63.47-.88.76-1.11,1.97-1.91,3.27-2.24,1.77-.45,3.68-.11,5.33.66.72.34,1.4.76,1.95,1.33.57.58.98,1.3,1.31,2.04,1.35,3.01,1.46,6.41,1.38,9.71-.03,1.12-.08,2.26-.43,3.32-.6,1.8-2,3.22-3.5,4.39-1.5,1.17-3.14,2.16-4.5,3.48-.05.05-.11.11-.12.19-.01.11.08.2.17.27,1.61,1.28,3,2.9,4.25,4.56,1.16,1.55,2.34,3.67,2.16,5.69,0,.72-.11,1.44.05,2.14.18.81.69,1.5,1.16,2.18.96,1.41,1.82,3.01,1.72,4.71-.1,1.7-1.52,3.41-3.22,3.26-.55-.05-1.11-.28-1.64-.13-.78.23-1.07,1.14-1.5,1.84-1.36,2.23-4.71,2.44-7.01,1.19-2.3-1.25-3.83-3.51-5.39-5.61-1.51-2.02-3.1-3.56-5.31-4.78s-5.27-1.25-7.69-1.43c-.59-.04-1.21-.09-1.69-.43-.33-.23-.56-.58-.73-.94-.88-1.82-.54-4.04-1.37-5.89-.28-.63-.69-1.19-1.03-1.79-.93-1.67-1.27-3.6-1.38-5.51Z"/>
            <path class="cls-3" d="M28.72,57.75c-4.31-.37-8.75,1.59-11.38,5.02-1.07,1.4-1.87,3.09-1.84,4.85.04,1.77.9,3.43,1,5.19.14,2.32-1.04,4.5-1.39,6.79-.42,2.81.41,5.65,1.28,8.36.8,2.52,1.69,5.13,3.56,7,1.96,1.97,4.74,2.85,7.43,3.56,2.36.62,4.75,1.15,7.13,1.68.61.14,1.23.27,1.8.54.53.25,1,.6,1.5.91,2.87,1.74,6.53,1.69,9.75.75s6.14-2.68,9.11-4.23c2.22-1.15,4.97-2.19,7.12-.9-.28-2.89,2.34-5.11,4.1-7.42,3.48-4.56,3.86-11.25.93-16.17-.51-.85-1.12-1.67-1.96-2.21-1.14-.74-2.53-.95-3.46-2-.99-1.12-1.18-2.7-1.95-3.95-1.72-2.78-5.88-3.58-8.87-2.85-.43.11-.86.25-1.31.25-1.74-.02-3.56-1.49-5.39-1.71-1.99-.24-4.1.01-5.87,1-1.89,1.06-1.44,1.14-3.1-.52-2.2-2.19-5.08-3.66-8.2-3.92Z"/>
            <path class="cls-2" d="M64.71,195.97c3.78-10.85,4.97-22.47,5.47-34.06.84-20.25-.22-40.78-6.17-60.24-3.63-12.35-9.14-10.52-17.43-17.27-2.27-2.11-3.95-4.7-5.17-7.41-1.19-2.67-2.22-5.41-4.67-7.17,2.74,1.25,4.31,4.12,5.77,6.59,1.47,2.46,3.24,4.73,5.4,6.45,4.51,3.52,11.33,4.61,14.93,9.6,2.87,3.81,4.03,8.18,5.26,12.57,1.97,7.12,3.32,14.41,4.2,21.73,1.43,11.72,1.56,23.54,1.06,35.28-.47,11.72-1.82,23.65-5.82,34.92l-2.83-1h0Z"/>
            <path class="cls-2" d="M117.66,72.12c-1.51,5.07-4.76,9.49-8.39,13.29-3.65,3.83-7.7,7.02-10.37,11.15-4.1,6.27-5.77,14.04-7.28,21.41-2.64,12.58-3.96,25.45-3.76,38.28.31,10.26,1.15,20.62,2.13,30.9l-2.98.31c-.54-5.18-1.02-10.35-1.44-15.53-1.74-18.2-.81-36.7,3.07-54.57,1.65-7.76,3.27-15.62,7.81-22.44,2.98-4.46,7.23-7.77,11.1-11.26,3.77-3.44,7.06-7.27,10.11-11.54h0Z"/>
            <path class="cls-3" d="M58.71,53.96c-2.28-.31-4.61-.08-6.86-.53-3.48-.76-3.73-2.69-5.72-5.05-1.55-1.83-4.28-3.16-6.17-4.67-.56-.45-1.14-.92-1.52-1.53-1.84-2.94,1.37-6.82,1.74-9.8.16-1.3.14-2.63.33-3.92.69-4.67,4.13-8.56,8.13-11.07,2.19-1.37,4.68-2.44,7.26-2.4s5.26,1.38,6.32,3.74c.77,1.71.62,3.68.99,5.52.62,3.02,2.61,5.54,4.55,7.93.06-2.65.13-5.33.9-7.87.76-2.54,2.32-4.95,4.67-6.16,2.08-1.07,4.56-1.1,6.85-.62,3.36.7,6.61,2.57,8.31,5.56,2.25,3.95,1.4,8.96-.34,13.17-1.22,2.97-2.84,5.75-4.2,8.66-2.08,4.42-3.56,9.11-4.42,13.92-.32,1.78-.05,9.65-1.99,9.48s-4.97-5.69-6.25-7.01c-3.39-3.49-7.64-6.67-12.58-7.35Z"/>
            <path class="cls-6" d="M87.22,61.2c3.47-1.05,7.19-.95,10.78-1.48,4.36-.65,8.63-1.93,12.63-3.79,2.55-1.18,5.18-2.82,6.07-5.49.48-1.43.44-3.12,1.45-4.24.59-.65,1.45-1,2.09-1.61,2.14-2.06.66-5.78-1.53-7.79-3.35-3.07-8.79-4.4-12.48-1.75-1.42,1.02-2.57,2.58-4.29,2.93-1.2.24-2.42-.17-3.6-.51-4.76-1.35-10.58-1.12-13.79,2.64-1.89,2.2-2.51,5.19-3.07,8.03-1.13,5.72-3.33,12.19-3.42,17.99,2.6-1.43.7-2.38,9.16-4.93Z"/>
            <path class="cls-2" d="M75.65,34.57c-2.77,7.13-2.48,15.02-.28,22.2,1.6,4.35,3.8,8.48,4.25,13.21.88,6.18,1.05,12.31,1.17,18.43.32,20.78.16,52.32.4,73.14.1,6.03.16,12.16.6,18.14,0,0-2.98.3-2.98.3-1.62-24.44-.95-48.83-1.09-73.28-.1-12.07.44-24.37-1.03-36.32-.57-4.46-1.85-8.85-2.88-13.22-1.57-7.47-1.74-15.69,1.85-22.61h0Z"/>
            <path class="cls-2" d="M48.32,26.23c3.9,4.21,7.17,9.17,11.18,13.2,3.13,2.89,7.23,4.86,10.25,7.99,1,1.08,1.88,2.28,2.43,3.63-.75-1.25-1.69-2.34-2.77-3.28-3.27-2.91-7.32-4.59-10.59-7.61-4.13-4.21-7.14-9.15-10.5-13.93h0Z"/>
            <path class="cls-2" d="M56.64,47.96c6.55-1.34,12.42,3.62,16.25,8.36-4.94-3.76-9.7-8.21-16.25-8.36h0Z"/>
            <path class="cls-2" d="M79.85,47.32c-1.53,2.74-3.18,5.02-3.54,8.21-1.15-3.1.98-6.53,3.54-8.21h0Z"/>
            <path class="cls-2" d="M83.33,54.71c.63-5.72,6.32-8.49,9.82-12.31-1.06,2.5-3.4,4.14-5.21,6.04-1.87,1.83-3.57,3.78-4.61,6.27h0Z"/>
            <path class="cls-2" d="M85.98,59.41c4.21-4.3,15.64-3.08,21.4-3.41-5.38,1.33-10.92.85-16.32,1.76-1.71.39-3.71.45-5.08,1.65h0Z"/>
            <path class="cls-2" d="M109.95,41.6c-5.66,7.63-16.02,8.82-23.53,13.8-3.94,3.08-7.65,8.1-6.99,13.3,0,0-1.8.28-1.8.28-.6-5.99,3.46-11.29,8.01-14.67,7.73-4.96,18.12-5.38,24.31-12.72h0Z"/>
            <path class="cls-1" d="M33.86,94.04c-.6-1.57,1.23-2.84,2.33-3.65,3.81-2.39,8.81-3.42,13.13-1.97-1.5-.14-2.96-.05-4.41.13-2.51.26-11.22,2.37-11.04,5.49h0Z"/>
            <path class="cls-1" d="M39.74,80.47c-5.4-4.57-13.59-6.02-20.01-2.81,5.81-4.64,15.55-2.98,20.01,2.81h0Z"/>
            <path class="cls-1" d="M60.4,73.48c-2.55,3.85-2.65,8.21-2.12,12.66-1.98-4-1.62-9.77,2.12-12.66h0Z"/>
            <path class="cls-1" d="M49.85,66.02c-.33,2.54-.92,4.99-.73,7.42.15,2.49.77,4.96.89,7.49-2.04-4.96-2.78-10.01-.16-14.92h0Z"/>
            <path class="cls-2" d="M96.74,96.06c5.02-5.66,13.08-8.05,20.46-7.31-1.83.19-3.62.51-5.38.94-5.18,1.19-10.16,3.57-13.73,7.55,0,0-1.36-1.18-1.36-1.18h0Z"/>
            <path class="cls-2" d="M106.5,98.23c5.52,1.12,10.58,5,13.09,10.06-3.71-4.26-8.01-7.57-13.09-10.06h0Z"/>
            <path class="cls-2" d="M113.37,96.86c3.29,0,7.41.23,9.51,3.14-2.98-1.76-6.4-1.74-9.51-3.14h0Z"/>
            <path class="cls-2" d="M96.66,90.74c-1.91-3.66-1.8-8.3.33-11.84-.77,3.98-.88,7.79-.33,11.84h0Z"/>
            <path class="cls-2" d="M104.74,73.88c-1.53,4.52-.96,9.52.13,14.03,0,0-1.96.38-1.96.38-.44-4.85-.33-9.99,1.83-14.41h0Z"/>
          </g>
          <g class="cls-8">
            <path class="cls-5" d="M126.53,103.31c-.47-.68-.98-1.37-1.16-2.18-.16-.7-.05-1.43-.05-2.14.18-2.02-1-4.14-2.16-5.69-1.24-1.65-2.64-3.27-4.25-4.56-.09-.07-.18-.16-.17-.27,0-.07.06-.13.12-.19,1.36-1.32,3.01-2.32,4.5-3.48,1.5-1.17,2.9-2.59,3.5-4.39.35-1.06.4-2.2.43-3.32.08-3.3-.03-6.7-1.38-9.71-.33-.74-.74-1.46-1.31-2.04-.55-.57-1.24-.99-1.95-1.33-1.65-.78-3.56-1.11-5.33-.66-1.3.33-2.51,1.12-3.27,2.24-.17.25-.28.67-.47.88-.36.38-.09.22-.63.22-.61,0-1.18-.2-1.81-.14-1.46.13-2.88.81-3.9,1.87-1.08,1.12-1.51,2.71-2.19,4.08-1.66-.36-3.43-.1-4.95.66-.62.31-1.22.66-1.71,1.15-.42.42-.73.97-1.31,1.19-.5.19-1.05.08-1.58,0-1.34-.19-2.6.62-3.37,1.69-.78,1.09-1.13,2.43-1.37,3.75-.37,2.06-.53,4.17-.46,6.26,0,.2.01.41.03.61.1,1.92.44,3.84,1.38,5.51.34.6.74,1.16,1.03,1.79.67,1.49.59,3.21.98,4.78-2.55,5.54-3.8,11.53-5.06,17.47-3.88,17.87-4.81,36.37-3.07,54.57.41,5.19.89,10.35,1.44,15.53l2.98-.31c-.98-10.28-1.82-20.64-2.13-30.9-.2-12.83,1.13-25.7,3.76-38.28,1.07-5.24,2.24-10.69,4.29-15.66.2.02.39.04.59.06,2.42.17,5.55.24,7.69,1.43,2.2,1.22,3.8,2.76,5.31,4.78,1.56,2.1,3.09,4.36,5.39,5.61,2.3,1.25,5.64,1.05,7.01-1.19.42-.69.72-1.61,1.5-1.84.53-.16,1.09.08,1.64.13,1.7.15,3.11-1.56,3.22-3.26s-.75-3.31-1.72-4.71Z"/>
            <path class="cls-5" d="M68.1,105.04c-1-3.56-1.96-7.1-3.82-10.34.81-1.74,2.41-3.28,3.62-4.86,3.48-4.56,3.86-11.25.93-16.17-.51-.85-1.12-1.67-1.96-2.21-1.14-.74-2.53-.95-3.46-2-.99-1.12-1.18-2.7-1.95-3.95-1.72-2.78-5.88-3.58-8.87-2.85-.43.11-.86.25-1.31.25-1.74-.02-3.56-1.49-5.39-1.71-1.99-.24-4.1.01-5.87,1-1.89,1.06-1.44,1.14-3.1-.52-2.2-2.19-5.08-3.66-8.2-3.92-4.31-.37-8.75,1.59-11.38,5.02-1.07,1.4-1.87,3.09-1.84,4.85.04,1.77.9,3.43,1,5.19.14,2.32-1.04,4.5-1.39,6.79-.42,2.81.41,5.65,1.28,8.36.8,2.52,1.69,5.13,3.56,7,1.97,1.97,4.74,2.85,7.43,3.56,2.36.62,4.75,1.15,7.13,1.68.61.14,1.23.27,1.8.54.53.25,1,.6,1.5.91,2.87,1.74,6.53,1.69,9.75.75,3.22-.94,6.14-2.68,9.11-4.23,1.66-.86,3.62-1.66,5.4-1.47.69,1.36,1.33,2.98,1.92,4.99,5.94,19.45,7.01,39.99,6.17,60.24-.49,11.59-1.68,23.2-5.47,34.06l2.83,1c4-11.27,5.36-23.2,5.82-34.92.5-11.74.36-23.55-1.06-35.28-.88-7.32-2.23-14.61-4.2-21.73Z"/>
            <path class="cls-5" d="M80.78,88.41c-.12-6.12-.29-12.25-1.17-18.43-.04-.45-.11-.89-.19-1.33-.16-1.31-.04-2.61.29-3.86.83-.89,1.87-1.88,7.51-3.58,3.47-1.05,7.19-.95,10.78-1.48,4.36-.65,8.63-1.93,12.63-3.79,2.55-1.18,5.18-2.82,6.07-5.49.48-1.43.44-3.12,1.45-4.24.59-.65,1.45-1,2.09-1.61,2.14-2.06.66-5.78-1.53-7.79-3.35-3.07-8.79-4.4-12.48-1.75-1.42,1.02-2.57,2.58-4.29,2.93-1.2.24-2.42-.17-3.6-.51-3.56-1.01-7.71-1.13-10.92.44.25-.54.5-1.08.73-1.63,1.73-4.21,2.59-9.22.34-13.17-1.7-2.99-4.95-4.86-8.31-5.56-2.29-.48-4.77-.45-6.85.62-2.35,1.21-3.91,3.63-4.67,6.16-.76,2.54-.83,5.22-.9,7.87-1.93-2.39-3.93-4.91-4.55-7.93-.38-1.84-.22-3.81-.99-5.52-1.06-2.36-3.74-3.7-6.32-3.74-2.58-.04-5.07,1.02-7.26,2.4-4,2.51-7.44,6.39-8.13,11.07-.19,1.3-.17,2.62-.33,3.92-.37,2.98-3.58,6.87-1.74,9.8.38.61.96,1.08,1.53,1.53,1.89,1.51,4.62,2.84,6.17,4.67,1.99,2.35,2.24,4.28,5.72,5.05,2.25.45,4.59.22,6.86.53,4.94.68,9.19,3.87,12.58,7.35,1.02,1.05,3.16,4.73,4.95,6.3.17.93.33,1.86.45,2.79,1.47,11.95.93,24.25,1.03,36.32.14,24.45-.54,48.84,1.09,73.28l2.98-.3c-.44-5.99-.51-12.11-.6-18.14-.24-20.82-.08-52.36-.4-73.14Z"/>
          </g>
        </g>
      </g>
    </g>
  </g>
</svg>