<?xml version="1.0" encoding="UTF-8"?>
<svg xmlns="http://www.w3.org/2000/svg" viewBox="0 0 188.37 143.82">
  <defs>
    <style>
      .cls-1 {
        isolation: isolate;
      }

      .cls-2 {
        fill: #e64228;
      }

      .cls-2, .cls-3, .cls-4, .cls-5 {
        stroke-width: 0px;
      }

      .cls-3 {
        fill: #fff;
      }

      .cls-4 {
        fill: #eab520;
      }

      .cls-5 {
        fill: #3779b6;
        mix-blend-mode: hard-light;
        opacity: .28;
      }
    </style>
  </defs>
  <g class="cls-1">
    <g id="Layer_2" data-name="Layer 2">
      <g id="Blancos">
        <path class="cls-3" d="m105.63,125.03c-5.2,2.26-10.63,4.21-16.15,5.8-23.4,6.77-46.9,10.28-66.81,12.82-7.73.99-15.41-2.64-19.56-9.25-4.2-6.69-4.15-14.96.15-21.58,2.6-4.01,4.38-9.09,6.27-14.47,1.76-5.03,3.59-10.22,6.32-15.53,8.97-17.42,24.83-32.63,47.16-45.21,8.67-4.89,17.73-9.39,26.93-13.38,11.44-4.96,23.2-9.19,34.95-12.55,3.98-1.14,8.08-1.76,12.04-2.37,4.28-.65,8.71-1.32,11.4-2.49.66-.29.98-.51,1.09-.59,2.02-1.54,4.33-2.9,6.69-3.92,11.96-5.19,24.14-1.45,29.6,9.09,5.53,10.66,1.14,23.44-1.49,31.07l-.37,1.07c-4.85,14.3-13.63,28.46-26.84,43.27-15.59,17.48-32.39,29.98-51.39,38.22Z"/>
      </g>
      <g id="Layer_1-2" data-name="Layer 1">
        <g>
          <path class="cls-2" d="m20.77,128.78c-4.28.55-7.28-4.17-4.93-7.78,6.29-9.7,8.11-21.14,13.35-31.3,8.84-17.17,24.64-29.69,41.18-39,18.41-10.37,38.35-18.76,58.65-24.58,9.02-2.59,21.96-2.18,29.5-7.95,3.9-2.98,10.98-5.4,13.86.15s-.98,15.21-2.74,20.42c-4.85,14.31-13.85,26.92-23.83,38.1-16.77,18.81-36.21,32.57-60.51,39.6-21.03,6.08-42.85,9.58-64.54,12.35Z"/>
          <path class="cls-5" d="m20.77,128.78c-4.28.55-7.28-4.17-4.93-7.78,6.29-9.7,8.11-21.14,13.35-31.3,8.84-17.17,24.64-29.69,41.18-39,18.41-10.37,38.35-18.76,58.65-24.58,9.02-2.59,21.96-2.18,29.5-7.95,3.9-2.98,10.98-5.4,13.86.15s-.98,15.21-2.74,20.42c-4.85,14.31-13.85,26.92-23.83,38.1-16.77,18.81-36.21,32.57-60.51,39.6-21.03,6.08-42.85,9.58-64.54,12.35Z"/>
          <path class="cls-4" d="m25.73,97.64c.8,6.26,2.16,12.2,5.16,17.79-5.35-3.87-7.23-11.66-5.16-17.79h0Z"/>
          <path class="cls-4" d="m72.2,119.88c-9.07-3.79-14.19-13.6-16.25-22.77-.23-1.35-.45-2.71-.58-4.07.57,1.26,1.03,2.53,1.52,3.79,3.52,8.58,7.87,17.19,15.31,23.05h0Z"/>
          <path class="cls-4" d="m87.88,41.64c-1.71,10.45-.16,20.96,3.84,30.71-6.6-8.47-8.36-20.9-3.84-30.71h0Z"/>
          <path class="cls-4" d="m166.28,47.07c-4.01-4.85-7.62-10.61-11.46-15.59,5.86,3.1,9.79,9.3,11.46,15.59h0Z"/>
          <path class="cls-4" d="m142.33,80.63c-9.77-.06-16.85-9.62-18.89-18.41,1.13,1.67,2.58,4.09,3.74,5.76,3.81,5.44,8.63,10.55,15.15,12.65h0Z"/>
        </g>
      </g>
    </g>
  </g>
</svg>