<?xml version="1.0" encoding="UTF-8"?>
<svg id="Layer_2" data-name="Layer 2" xmlns="http://www.w3.org/2000/svg" viewBox="0 0 216.42 231.34">
  <defs>
    <style>
      .cls-1 {
        fill: #f1cb63;
      }

      .cls-1, .cls-2, .cls-3, .cls-4 {
        stroke-width: 0px;
      }

      .cls-2 {
        fill: #f7e2a8;
      }

      .cls-3 {
        fill: #fff;
      }

      .cls-4 {
        fill: #eab520;
      }
    </style>
  </defs>
  <g id="Blancos">
    <path class="cls-3" d="m198.75,231.34c-2.36,0-4.66-.51-6.82-1.51-1.23-.57-2.43-1.17-3.62-1.77l-.89-.44c-.34-.16-.67-.33-1-.49-2.3-1.18-4.58-2.41-6.78-3.66-2.12-1.21-4.35-2.55-6.82-4.1l-1.5-.96c-.87-.55-1.73-1.1-2.59-1.67-.09-.06-.19-.13-.29-.2-1.37-.91-2.79-1.88-4.22-2.89-.06-.04-.13-.09-.17-.12-1.4-.99-2.91-2.08-4.6-3.33-1.49-1.1-3.05-2.29-4.63-3.52-1.53-1.19-3.06-2.4-4.57-3.63-1.54-1.25-3.06-2.5-4.57-3.78-1.5-1.26-2.99-2.54-4.47-3.83l-.7-.61c-.5-.43-1-.87-1.5-1.3-.52-.46-1.04-.93-1.56-1.4l-.63-.57c-1.46-1.3-2.91-2.62-4.35-3.94,0,0-1.48-1.35-1.99-1.82-.77-.71-1.53-1.42-2.29-2.12-1.41-1.31-2.81-2.63-4.22-3.95-1.39-1.32-2.78-2.63-4.17-3.95l-8.25-7.86c-.83-.79-1.63-1.57-2.44-2.35-.57-.55-7.45-7.18-7.45-7.18-.84-.81-1.69-1.62-2.53-2.44l-1.04-1c-.63-.61-1.26-1.23-1.89-1.85l-1.18-1.16c-.88-.86-1.76-1.73-2.64-2.6l-2.34-2.31c-1.06-1.05-2.13-2.1-3.19-3.15-.55-.55-1.11-1.1-1.67-1.65-.81-.79-1.61-1.59-2.41-2.39-.79-.79-1.57-1.59-2.36-2.38-.55-.56-9.7-9.83-9.7-9.83-1.33-1.36-2.66-2.72-3.98-4.08l-4.14-4.3c-1.26-1.31-2.52-2.61-3.78-3.92-.55-.58-1.11-1.15-1.66-1.72-.77-.79-1.54-1.59-2.3-2.39l-.3-.31c-1.14-1.19-2.34-2.44-3.54-3.69-1.3-1.35-2.6-2.69-3.91-4.03l-3.95-4.06-3.98-4.11c-1.34-1.39-2.67-2.78-4-4.17l-1.73-1.84c-.76-.81-1.51-1.62-2.26-2.42-1.34-1.45-2.67-2.9-3.98-4.37-1.34-1.49-2.66-2.99-3.96-4.5-1.51-1.75-2.76-3.24-3.94-4.67-1.26-1.53-2.53-3.13-3.87-4.87-1.28-1.66-2.55-3.36-3.88-5.2l-.21-.29c-1.38-1.92-2.59-3.67-3.71-5.38-1.21-1.83-2.25-3.46-3.18-5-.09-.15-.19-.33-.29-.5-.49-.84-.95-1.71-1.35-2.58-.38-.8-.66-1.51-.86-2.03-1.03-2.67-1.65-5.42-1.87-8.19-.32-4.14.27-8.29,1.73-12.26-.41-4.45.71-10.11,6.24-15.87,2.24-2.33,5.78-5.71,10.68-8.09C22.47.97,26.59.01,30.64.01c1.95,0,3.86.22,5.71.66,2.5-.45,4.93-.67,7.3-.67.42,0,.83,0,1.24.02,1.36.05,2.56.15,3.7.31.42.06.86.14,1.31.23,3.35.65,6.7,1.96,9.93,3.89,2.17,1.3,4.34,2.91,6.48,4.79.65.58,1.3,1.18,1.94,1.79,1.06,1.02,2.14,2.14,3.21,3.3,1.35,1.48,2.76,3.11,4.42,5.15.73.89,1.43,1.76,2.12,2.61.58.72,1.14,1.41,1.68,2.07.58.7,1.13,1.37,1.66,1.97.39.44.78.89,1.17,1.34l.68.79c1.32,1.51,2.63,3.01,3.93,4.53l.79.91c.71.83,1.41,1.67,2.11,2.51l1.65,1.96c1.02,1.22,2.04,2.43,3.06,3.66.46.56,3.71,4.52,3.71,4.52,1.21,1.49,2.43,2.97,3.63,4.47,1.21,1.5,4.42,5.48,4.42,5.48l6.14,7.64,3.43,4.25c1.12,1.39,3.76,4.63,3.76,4.63l2.99,3.66c1.1,1.34,2.21,2.67,3.31,4,1.1,1.32,2.21,2.65,3.32,3.96l.97,1.16,2.75,3.25c1,1.19,2.01,2.37,3,3.56.94,1.12,1.88,2.25,2.82,3.38l1.27,1.52,4.29,5.19c1.22,1.48,2.48,3.03,3.74,4.57,0,0,3.2,3.94,3.9,4.81.02.02.08.1.1.12,1.28,1.59,2.5,3.11,3.71,4.63,1.26,1.58,2.5,3.16,3.75,4.74,1.24,1.57,2.47,3.15,3.7,4.73l.12.15c1.17,1.5,2.33,3,3.49,4.5,1.08,1.41,2.16,2.83,3.23,4.24l.31.41c1.16,1.53,2.32,3.07,3.47,4.6l1.54,2.06c.61.81,1.22,1.63,1.82,2.45,1.04,1.4,2.07,2.82,3.1,4.23l.18.24c1.06,1.45,2.11,2.91,3.17,4.38,0,0,2.64,3.68,3.05,4.26.75,1.06,1.49,2.12,2.24,3.19l.83,1.19c.82,1.17,1.64,2.35,2.46,3.53l2.32,3.39c.81,1.18,1.62,2.37,2.42,3.55l1.34,2c.78,1.17,1.57,2.33,2.35,3.51,1.16,1.75,2.31,3.52,3.46,5.28,1.1,1.69,2.19,3.39,3.28,5.1l.63.99c.7,1.1,1.4,2.19,2.09,3.29l.46.74c1.03,1.67,2.54,4.25,3.7,7.26,1.27,3.29,1.9,6.44,1.93,9.61,0,.06,0,.13,0,.19,0,1.76-.31,3.62-.57,4.88-.32,1.58-.76,3.09-1.3,4.48-2.31,5.96-6.25,8.78-9.15,10.09-2.12.96-4.35,1.44-6.65,1.44h0Z"/>
  </g>
  <g id="Layer_1-2" data-name="Layer 1">
    <g>
      <path class="cls-2" d="m17.31,27.09c.61,1.02,1.56,1.78,2.48,2.52.28.22.57.45.92.54s.76,0,.95-.31c.17-.29.1-.65.18-.98.18-.68,1-.98,1.7-.91s1.36.37,2.05.44,1.53-.21,1.73-.88c.09-.31.04-.69.26-.93.22-.24.6-.22.93-.21,2.25.07,4.48-1.37,5.33-3.45.43-1.05.6-2.31,1.53-2.97.47-.33,1.1-.47,1.43-.95.29-.41.25-.99.02-1.44s-.63-.79-1.04-1.07c-3.01-2.09-7.19-1.82-10.49-.21-2.46,1.19-4.53,3.03-6.41,4.98-1.62,1.69-3.01,3.43-1.57,5.83Z"/>
      <g>
        <path class="cls-4" d="m201.42,210.45c-.19-.02-.38-.03-.57-.07.11.56.14,1.14.11,1.71-.04.79-.22,1.57-.54,2.3h-.01c-.29.66-.69,1.28-1.19,1.85.57-.26,1.01-.98,1.35-1.85.26-.67.46-1.41.59-2.08.17-.85.26-1.58.26-1.85,0,0,0,0,0-.01Z"/>
        <path class="cls-4" d="m200.49,206.07c-.65-1.69-1.57-3.31-2.49-4.81-1.54,1.06-3.42,1.44-5.19,1.09.11.56.14,1.14.11,1.71-.09,1.62-.75,3.21-1.98,4.44-1.09,1.09-2.45,1.72-3.87,1.93,2.02,1.15,4.08,2.27,6.17,3.33.62-.32,1.2-.73,1.71-1.25,1.24-1.24,1.89-2.83,1.98-4.44.03-.57,0-1.15-.11-1.71,1.22.24,2.49.13,3.66-.3Z"/>
        <path class="cls-4" d="m188.8,198.34c2.16.42,4.48-.2,6.15-1.87,0,0,0,0,0,0-1.06-1.67-2.13-3.33-3.21-4.99-.24.35-.51.68-.81.98-1.67,1.67-4,2.3-6.15,1.87.11.56.14,1.14.11,1.71-.09,1.62-.75,3.21-1.98,4.44-1.67,1.67-4,2.3-6.15,1.87.11.56.14,1.14.11,1.71,0,.02,0,.04,0,.06.06.04.11.08.17.12.99.66,2,1.29,3,1.92.26.17.52.33.78.5-.01-.1-.02-.2-.04-.3,2.16.42,4.48-.2,6.15-1.87,1.24-1.24,1.89-2.83,1.98-4.44.03-.57,0-1.15-.11-1.71Z"/>
        <path class="cls-4" d="m178.9,196.46c1.24-1.24,1.89-2.83,1.98-4.44.03-.57,0-1.15-.11-1.71,2.16.42,4.48-.2,6.15-1.87.64-.64,1.11-1.37,1.44-2.15-.88-1.33-1.78-2.66-2.67-3.99-.31-.47-.62-.93-.94-1.4-.09.48-.22.95-.41,1.4h-.01c-.33.77-.81,1.49-1.44,2.12-1.67,1.67-4,2.3-6.15,1.87.11.56.14,1.14.11,1.71-.09,1.62-.75,3.21-1.98,4.44-.63.63-1.35,1.1-2.12,1.44h0c-1.27.56-2.67.7-4.01.44.11.56.14,1.14.11,1.71-.04.72-.21,1.44-.48,2.12,1.42,1.05,2.86,2.1,4.31,3.12.02-.1.06-.19.08-.29v-.14c.05-.26.07-.52.09-.78.03-.52,0-1.05-.09-1.57v-.14c2.15.41,4.47-.21,6.13-1.88Z"/>
        <path class="cls-4" d="m164.85,175.98c.03-.57,0-1.15-.11-1.71,2.16.42,4.48-.2,6.15-1.87,1-1,1.62-2.23,1.87-3.52v-.14c.05-.26.07-.52.09-.78.03-.52,0-1.05-.09-1.57v-.14c.63.12,1.28.14,1.92.08-.64-.9-1.28-1.79-1.92-2.68-.36-.5-.72-1-1.08-1.5-.96.24-1.97.27-2.94.08.11.56.14,1.14.11,1.71-.09,1.62-.75,3.21-1.98,4.44-1.67,1.67-4,2.3-6.15,1.87.11.56.14,1.14.11,1.71-.09,1.62-.75,3.21-1.98,4.44-1.67,1.67-4,2.3-6.15,1.87.11.56.14,1.14.11,1.71-.04.79-.22,1.57-.54,2.3h-.01c-.29.66-.68,1.28-1.18,1.84,1.42,1.24,2.84,2.46,4.28,3.67.89-1.13,1.39-2.46,1.47-3.82.03-.56,0-1.13-.11-1.69h.14c.78.14,1.57.14,2.35,0h.14c1.29-.25,2.52-.88,3.52-1.87,1.24-1.24,1.89-2.83,1.98-4.44Z"/>
        <path class="cls-4" d="m154.83,172.4c1.24-1.24,1.89-2.83,1.98-4.44.03-.57,0-1.15-.11-1.71,2.16.42,4.48-.2,6.15-1.87,1.24-1.24,1.89-2.83,1.98-4.44.03-.57,0-1.15-.11-1.71,1.28.25,2.62.12,3.84-.36-1.07-1.47-2.14-2.93-3.21-4.39-1.43.8-3.08,1.05-4.64.74.11.56.14,1.14.11,1.71-.09,1.62-.75,3.21-1.98,4.44-1.67,1.67-4,2.3-6.15,1.87.11.56.14,1.14.11,1.71-.09,1.62-.75,3.21-1.98,4.44-1.67,1.67-4,2.3-6.15,1.87.11.56.14,1.14.11,1.71-.09,1.62-.75,3.21-1.98,4.44-.06.06-.12.11-.18.16,1.4,1.28,2.81,2.56,4.22,3.82,1.22-1.23,1.87-2.81,1.96-4.41.03-.57,0-1.15-.11-1.71,2.16.42,4.48-.2,6.15-1.87Z"/>
        <path class="cls-4" d="m146.8,164.37c1.24-1.24,1.89-2.83,1.98-4.44.03-.57,0-1.15-.11-1.71,2.16.42,4.48-.2,6.15-1.87,1.24-1.24,1.89-2.83,1.98-4.44.03-.56,0-1.13-.11-1.69h.14c.78.14,1.57.14,2.35,0h.14c.96-.19,1.89-.58,2.71-1.19-1.13-1.51-2.27-3.02-3.41-4.53-1.66,1.53-3.88,2.1-5.95,1.7.11.56.14,1.14.11,1.71-.04.79-.22,1.57-.54,2.3h-.01c-.33.77-.81,1.49-1.44,2.12-1.67,1.67-4,2.3-6.15,1.87.11.56.14,1.14.11,1.71-.09,1.62-.75,3.21-1.98,4.44-.63.63-1.35,1.1-2.12,1.44h0c-1.27.56-2.67.7-4.01.44.11.56.14,1.14.11,1.71-.09,1.62-.75,3.21-1.98,4.44-.16.16-.33.3-.5.44,1.38,1.3,2.76,2.6,4.15,3.89.12-.11.25-.2.36-.32,1-1,1.62-2.23,1.87-3.52v-.14c.05-.26.07-.52.09-.78.03-.52,0-1.05-.09-1.57v-.14c2.15.41,4.47-.21,6.13-1.88Z"/>
        <path class="cls-4" d="m170.89,188.43c1-1,1.62-2.23,1.87-3.52v-.14c.05-.26.07-.52.09-.78.03-.52,0-1.05-.09-1.57v-.12h.12c.78.14,1.57.14,2.35,0h.14c1.29-.25,2.52-.88,3.52-1.87,1.24-1.24,1.89-2.83,1.98-4.44.01-.26.01-.52,0-.77-.26-.37-.51-.75-.77-1.12-.86-1.25-1.73-2.49-2.6-3.74-.25-.02-.5-.05-.75-.1.11.56.14,1.14.11,1.71-.09,1.62-.75,3.21-1.98,4.44-.63.63-1.35,1.1-2.12,1.44h0c-1.27.56-2.67.7-4.01.44.11.56.14,1.14.11,1.71-.04.79-.22,1.57-.54,2.3h-.01c-.33.77-.81,1.49-1.44,2.12-1.67,1.67-4,2.3-6.15,1.87.11.56.14,1.14.11,1.71-.07,1.19-.45,2.37-1.14,3.4,1.43,1.16,2.88,2.31,4.33,3.44.47-.89.76-1.85.82-2.83.03-.57,0-1.15-.11-1.71,2.16.42,4.48-.2,6.15-1.87Z"/>
        <path class="cls-4" d="m127.25,150.21c1.29-.25,2.52-.88,3.52-1.87,1.24-1.24,1.89-2.83,1.98-4.44.03-.57,0-1.15-.11-1.71,2.16.42,4.48-.2,6.15-1.87,1-1,1.62-2.23,1.87-3.52v-.14c.05-.26.07-.52.09-.78.03-.52,0-1.05-.09-1.57v-.14c2.15.41,4.47-.21,6.13-1.88.48-.48.85-1.03,1.16-1.61-1.23-1.56-2.46-3.12-3.69-4.67-.33.82-.82,1.6-1.48,2.26-.63.63-1.35,1.1-2.12,1.44h0c-1.27.56-2.67.7-4.01.44.11.56.14,1.14.11,1.71-.09,1.62-.75,3.21-1.98,4.44-1.67,1.67-4,2.3-6.15,1.87.11.56.14,1.14.11,1.71-.09,1.62-.75,3.21-1.98,4.44-1.67,1.67-4,2.3-6.15,1.87.11.56.14,1.14.11,1.71-.04.79-.22,1.57-.54,2.3h-.01c-.33.77-.81,1.49-1.44,2.12-.29.29-.6.54-.93.76,1.37,1.31,2.73,2.64,4.1,3.95.29-.21.58-.44.84-.7,1.24-1.24,1.89-2.83,1.98-4.44.03-.56,0-1.13-.11-1.69h.14c.78.14,1.57.14,2.35,0h.14Z"/>
        <path class="cls-4" d="m122.74,140.3c1.24-1.24,1.89-2.83,1.98-4.44.03-.57,0-1.15-.11-1.71,2.16.42,4.48-.2,6.15-1.87,1.24-1.24,1.89-2.83,1.98-4.44.03-.57,0-1.15-.11-1.71,2.16.42,4.48-.2,6.15-1.87.85-.85,1.41-1.87,1.72-2.94-.86-1.07-1.72-2.13-2.58-3.19-.42-.52-.85-1.04-1.27-1.56-.09.53-.22,1.06-.43,1.56h-.01c-.33.77-.81,1.49-1.44,2.12-1.67,1.67-4,2.3-6.15,1.87.11.56.14,1.14.11,1.71-.09,1.62-.75,3.21-1.98,4.44-1.67,1.67-4,2.3-6.15,1.87.11.56.14,1.14.11,1.71-.09,1.62-.75,3.21-1.98,4.44-1.67,1.67-4,2.3-6.15,1.87.11.56.14,1.14.11,1.71-.09,1.62-.75,3.21-1.98,4.44-.34.34-.71.63-1.09.88,1.36,1.32,2.73,2.63,4.1,3.95.35-.24.69-.5,1.01-.81,1.24-1.24,1.89-2.83,1.98-4.44.03-.57,0-1.15-.11-1.71,2.16.42,4.48-.2,6.15-1.87Z"/>
        <path class="cls-4" d="m138.8,156.34c1-1,1.62-2.23,1.87-3.52v-.14c.05-.26.07-.52.09-.78.03-.52,0-1.05-.09-1.57v-.12h.12c.78.14,1.57.14,2.35,0h.14c1.29-.25,2.52-.88,3.52-1.87,1.24-1.24,1.89-2.83,1.98-4.44.03-.57,0-1.15-.11-1.71,2.16.42,4.48-.2,6.15-1.87.12-.12.21-.26.33-.39-1.18-1.53-2.36-3.06-3.55-4.58-.23.34-.49.66-.79.96-1.67,1.67-4,2.3-6.15,1.87.11.56.14,1.14.11,1.71-.09,1.62-.75,3.21-1.98,4.44-.63.63-1.35,1.1-2.12,1.44h0c-1.27.56-2.67.7-4.01.44.11.56.14,1.14.11,1.71-.04.79-.22,1.57-.54,2.3h-.01c-.33.77-.81,1.49-1.44,2.12-1.67,1.67-4,2.3-6.15,1.87.11.56.14,1.14.11,1.71-.09,1.62-.75,3.21-1.98,4.44-.23.23-.47.44-.73.63,1.37,1.31,2.75,2.62,4.13,3.93.21-.17.42-.35.61-.54,1.24-1.24,1.89-2.83,1.98-4.44.03-.57,0-1.15-.11-1.71,2.16.42,4.48-.2,6.15-1.87Z"/>
        <path class="cls-4" d="m90.64,108.21c1.24-1.24,1.89-2.83,1.98-4.44.03-.57,0-1.15-.11-1.71,2.16.42,4.48-.2,6.15-1.87,1.24-1.24,1.89-2.83,1.98-4.44.03-.57,0-1.15-.11-1.71,2.16.42,4.48-.2,6.15-1.87,1-1,1.62-2.23,1.87-3.52v-.14c.05-.26.07-.52.09-.78.03-.52,0-1.05-.09-1.57v-.12h.12c.78.14,1.57.14,2.35,0h.14s.01,0,.02,0c-.88-1.07-1.76-2.15-2.64-3.22-.26-.32-.52-.63-.78-.95-1.05.31-2.16.37-3.24.16.11.56.14,1.14.11,1.71-.04.79-.22,1.57-.54,2.3h-.01c-.33.77-.81,1.49-1.44,2.12-1.67,1.67-4,2.3-6.15,1.87.11.56.14,1.14.11,1.71-.09,1.62-.75,3.21-1.98,4.44-1.67,1.67-4,2.3-6.15,1.87.11.56.14,1.14.11,1.71-.09,1.62-.75,3.21-1.98,4.44-1.67,1.67-4,2.3-6.15,1.87.11.56.14,1.14.11,1.71-.09,1.62-.75,3.21-1.98,4.44-.34.34-.71.63-1.09.88,1.31,1.35,2.63,2.7,3.95,4.04.41-.26.8-.55,1.16-.91,1.24-1.24,1.89-2.83,1.98-4.44.03-.57,0-1.15-.11-1.71,2.16.42,4.48-.2,6.15-1.87Z"/>
        <path class="cls-4" d="m108.58,134.15c2.15.41,4.47-.21,6.13-1.88,1.24-1.24,1.89-2.83,1.98-4.44.03-.57,0-1.15-.11-1.71,2.16.42,4.48-.2,6.15-1.87,1.24-1.24,1.89-2.83,1.98-4.44.03-.56,0-1.13-.11-1.69h.14c.78.14,1.57.14,2.35,0h.14c1.29-.25,2.52-.88,3.52-1.87,1.24-1.24,1.89-2.83,1.98-4.44,0,0,0-.01,0-.02-.64-.77-1.28-1.55-1.92-2.32-.7-.85-1.4-1.69-2.1-2.54.02.29.02.57,0,.86-.09,1.62-.75,3.21-1.98,4.44-1.67,1.67-4,2.3-6.15,1.87.11.56.14,1.14.11,1.71-.04.79-.22,1.57-.54,2.3h-.01c-.33.77-.81,1.49-1.44,2.12-1.67,1.67-4,2.3-6.15,1.87.11.56.14,1.14.11,1.71-.09,1.62-.75,3.21-1.98,4.44-.63.63-1.35,1.1-2.12,1.44h0c-1.27.56-2.67.7-4.01.44.11.56.14,1.14.11,1.71-.09,1.62-.75,3.21-1.98,4.44-.37.37-.77.68-1.2.94,1.35,1.33,2.69,2.67,4.04,3.99.41-.26.81-.56,1.17-.92,1-1,1.62-2.23,1.87-3.52v-.14c.05-.26.07-.52.09-.78.03-.52,0-1.05-.09-1.57v-.14Z"/>
        <path class="cls-4" d="m106.7,124.24c1-1,1.62-2.23,1.87-3.52v-.14c.05-.26.07-.52.09-.78.03-.52,0-1.05-.09-1.57v-.12h.12c.78.14,1.57.14,2.35,0h.14c1.29-.25,2.52-.88,3.52-1.87,1.24-1.24,1.89-2.83,1.98-4.44.03-.57,0-1.15-.11-1.71,2.16.42,4.48-.2,6.15-1.87,1.24-1.24,1.89-2.83,1.98-4.44.03-.57,0-1.15-.11-1.71.02,0,.04,0,.07,0-1.1-1.31-2.21-2.61-3.31-3.92-.26-.02-.52-.05-.77-.1.11.56.14,1.14.11,1.71-.09,1.62-.75,3.21-1.98,4.44-1.67,1.67-4,2.3-6.15,1.87.11.56.14,1.14.11,1.71-.09,1.62-.75,3.21-1.98,4.44-.63.63-1.35,1.1-2.12,1.44h0c-1.27.56-2.67.7-4.01.44.11.56.14,1.14.11,1.71-.04.79-.22,1.57-.54,2.3h-.01c-.33.77-.81,1.49-1.44,2.12-1.67,1.67-4,2.3-6.15,1.87.11.56.14,1.14.11,1.71-.09,1.62-.75,3.21-1.98,4.44-.39.39-.81.71-1.25.98,1.34,1.34,2.7,2.66,4.04,4,.43-.27.85-.59,1.23-.96,1.24-1.24,1.89-2.83,1.98-4.44.03-.57,0-1.15-.11-1.71,2.16.42,4.48-.2,6.15-1.87Z"/>
        <path class="cls-4" d="m95.01,118.11h.14c1.29-.25,2.52-.88,3.52-1.87,1.24-1.24,1.89-2.83,1.98-4.44.03-.57,0-1.15-.11-1.71,2.16.42,4.48-.2,6.15-1.87,1-1,1.62-2.23,1.87-3.52v-.14c.05-.26.07-.52.09-.78.03-.52,0-1.05-.09-1.57v-.14c2.15.41,4.47-.21,6.13-1.88,1.24-1.24,1.89-2.83,1.98-4.44.03-.57,0-1.15-.11-1.71.46.09.94.12,1.41.12-1.14-1.35-2.27-2.7-3.4-4.05-.68.07-1.36.05-2.03-.08.11.56.14,1.14.11,1.71-.09,1.62-.75,3.21-1.98,4.44-.63.63-1.35,1.1-2.12,1.44h0c-1.27.56-2.67.7-4.01.44.11.56.14,1.14.11,1.71-.09,1.62-.75,3.21-1.98,4.44-1.67,1.67-4,2.3-6.15,1.87.11.56.14,1.14.11,1.71-.09,1.62-.75,3.21-1.98,4.44-1.67,1.67-4,2.3-6.15,1.87.11.56.14,1.14.11,1.71-.04.79-.22,1.57-.54,2.3h-.01c-.33.77-.81,1.49-1.44,2.12-.37.37-.77.68-1.2.94,1.33,1.35,2.65,2.69,3.99,4.03.43-.27.85-.59,1.22-.96,1.24-1.24,1.89-2.83,1.98-4.44.03-.56,0-1.13-.11-1.69h.14c.78.14,1.57.14,2.35,0Z"/>
        <path class="cls-4" d="m63.06,86.02c1.29-.25,2.52-.88,3.52-1.87,1.24-1.24,1.89-2.83,1.98-4.44.03-.57,0-1.15-.11-1.71,2.16.42,4.48-.2,6.15-1.87,1-1,1.62-2.23,1.87-3.52v-.14c.05-.26.07-.52.09-.78.03-.52,0-1.05-.09-1.57v-.14c2.15.41,4.47-.21,6.13-1.88,1.24-1.24,1.89-2.83,1.98-4.44.03-.57,0-1.15-.11-1.71,2.06.4,4.25-.16,5.9-1.65-1.2-1.48-2.4-2.95-3.6-4.42-.06.06-.11.13-.17.18-1.67,1.67-4,2.3-6.15,1.87.11.56.14,1.14.11,1.71-.09,1.62-.75,3.21-1.98,4.44-.63.63-1.35,1.1-2.12,1.44h0c-1.27.56-2.67.7-4.01.44.11.56.14,1.14.11,1.71-.09,1.62-.75,3.21-1.98,4.44-1.67,1.67-4,2.3-6.15,1.87.11.56.14,1.14.11,1.71-.09,1.62-.75,3.21-1.98,4.44-1.67,1.67-4,2.3-6.15,1.87.11.56.14,1.14.11,1.71-.04.79-.22,1.57-.54,2.3h-.01c-.33.77-.81,1.49-1.44,2.12-.19.19-.4.37-.61.54,1.32,1.36,2.64,2.71,3.95,4.07.23-.18.46-.37.67-.59,1.24-1.24,1.89-2.83,1.98-4.44.03-.56,0-1.13-.11-1.69h.14c.78.14,1.57.14,2.35,0h.14Z"/>
        <path class="cls-4" d="m58.55,76.11c1.24-1.24,1.89-2.83,1.98-4.44.03-.57,0-1.15-.11-1.71,2.16.42,4.48-.2,6.15-1.87,1.24-1.24,1.89-2.83,1.98-4.44.03-.57,0-1.15-.11-1.71,2.16.42,4.48-.2,6.15-1.87,1-1,1.62-2.23,1.87-3.52v-.14c.05-.26.07-.52.09-.78.03-.52,0-1.05-.09-1.57v-.12h.12c.78.14,1.57.14,2.35,0h.14c1.29-.25,2.52-.88,3.52-1.87.2-.2.36-.43.53-.64-1.22-1.48-2.46-2.95-3.7-4.42-.25.37-.53.72-.85,1.05-.63.63-1.35,1.1-2.12,1.44h0c-1.27.56-2.67.7-4.01.44.11.56.14,1.14.11,1.71-.04.79-.22,1.57-.54,2.3h-.01c-.33.77-.81,1.49-1.44,2.12-1.67,1.67-4,2.3-6.15,1.87.11.56.14,1.14.11,1.71-.09,1.62-.75,3.21-1.98,4.44-1.67,1.67-4,2.3-6.15,1.87.11.56.14,1.14.11,1.71-.09,1.62-.75,3.21-1.98,4.44-1.67,1.67-4,2.3-6.15,1.87.11.56.14,1.14.11,1.71-.09,1.62-.75,3.21-1.98,4.44-.14.14-.28.27-.43.39,1.3,1.37,2.6,2.73,3.91,4.08.18-.15.37-.29.54-.46,1.24-1.24,1.89-2.83,1.98-4.44.03-.57,0-1.15-.11-1.71,2.16.42,4.48-.2,6.15-1.87Z"/>
        <path class="cls-4" d="m50.52,68.08c1.24-1.24,1.89-2.83,1.98-4.44.03-.57,0-1.15-.11-1.71,2.16.42,4.48-.2,6.15-1.87,1.24-1.24,1.89-2.83,1.98-4.44.03-.56,0-1.13-.11-1.69h.14c.78.14,1.57.14,2.35,0h.14c1.29-.25,2.52-.88,3.52-1.87,1.24-1.24,1.89-2.83,1.98-4.44.03-.57,0-1.15-.11-1.71,2.16.42,4.48-.2,6.15-1.87.45-.45.81-.94,1.1-1.47-1.26-1.48-2.54-2.94-3.82-4.4-.32.67-.74,1.3-1.3,1.86-1.67,1.67-4,2.3-6.15,1.87.11.56.14,1.14.11,1.71-.09,1.62-.75,3.21-1.98,4.44-1.67,1.67-4,2.3-6.15,1.87.11.56.14,1.14.11,1.71-.04.79-.22,1.57-.54,2.3h-.01c-.33.77-.81,1.49-1.44,2.12-1.67,1.67-4,2.3-6.15,1.87.11.56.14,1.14.11,1.71-.09,1.62-.75,3.21-1.98,4.44-.63.63-1.35,1.1-2.12,1.44h0c-1.27.56-2.67.7-4.01.44.11.56.14,1.14.11,1.71-.09,1.62-.75,3.21-1.98,4.44-.04.04-.08.07-.11.1,1.26,1.41,2.53,2.8,3.82,4.19.1-.09.21-.18.31-.27,1-1,1.62-2.23,1.87-3.52v-.14c.05-.26.07-.52.09-.78.03-.52,0-1.05-.09-1.57v-.14c2.15.41,4.47-.21,6.13-1.88Z"/>
        <path class="cls-4" d="m76.48,102.06c2.15.41,4.47-.21,6.13-1.88,1.24-1.24,1.89-2.83,1.98-4.44.03-.57,0-1.15-.11-1.71,2.16.42,4.48-.2,6.15-1.87,1.24-1.24,1.89-2.83,1.98-4.44.03-.56,0-1.13-.11-1.69h.14c.78.14,1.57.14,2.35,0h.14c1.29-.25,2.52-.88,3.52-1.87,1.24-1.24,1.89-2.83,1.98-4.44.03-.57,0-1.15-.11-1.71,1.28.25,2.61.12,3.83-.36-1.15-1.42-2.3-2.85-3.45-4.27-1.37.69-2.92.91-4.4.62.11.56.14,1.14.11,1.71-.09,1.62-.75,3.21-1.98,4.44-1.67,1.67-4,2.3-6.15,1.87.11.56.14,1.14.11,1.71-.04.79-.22,1.57-.54,2.3h-.01c-.33.77-.81,1.49-1.44,2.12-1.67,1.67-4,2.3-6.15,1.87.11.56.14,1.14.11,1.71-.09,1.62-.75,3.21-1.98,4.44-.63.63-1.35,1.1-2.12,1.44h0c-1.27.56-2.67.7-4.01.44.11.56.14,1.14.11,1.71-.09,1.62-.75,3.21-1.98,4.44-.29.29-.61.54-.93.76,1.31,1.36,2.62,2.72,3.93,4.07.36-.24.7-.51,1.02-.82,1-1,1.62-2.23,1.87-3.52v-.14c.05-.26.07-.52.09-.78.03-.52,0-1.05-.09-1.57v-.14Z"/>
        <path class="cls-4" d="m74.61,92.15c1-1,1.62-2.23,1.87-3.52v-.14c.05-.26.07-.52.09-.78.03-.52,0-1.05-.09-1.57v-.12h.12c.78.14,1.57.14,2.35,0h.14c1.29-.25,2.52-.88,3.52-1.87,1.24-1.24,1.89-2.83,1.98-4.44.03-.57,0-1.15-.11-1.71,2.16.42,4.48-.2,6.15-1.87,1.24-1.24,1.89-2.83,1.98-4.44.03-.57,0-1.15-.11-1.71,1.68.33,3.45.02,4.94-.92-1.17-1.45-2.34-2.91-3.51-4.36-1.59,1.21-3.58,1.63-5.45,1.26.11.56.14,1.14.11,1.71-.09,1.62-.75,3.21-1.98,4.44-1.67,1.67-4,2.3-6.15,1.87.11.56.14,1.14.11,1.71-.09,1.62-.75,3.21-1.98,4.44-.63.63-1.35,1.1-2.12,1.44h0c-1.27.56-2.67.7-4.01.44.11.56.14,1.14.11,1.71-.04.79-.22,1.57-.54,2.3h-.01c-.33.77-.81,1.49-1.44,2.12-1.67,1.67-4,2.3-6.15,1.87.11.56.14,1.14.11,1.71-.09,1.62-.75,3.21-1.98,4.44-.24.24-.49.44-.75.64,1.23,1.27,2.46,2.55,3.67,3.83.08.08.16.17.24.25.29-.21.58-.44.84-.7,1.24-1.24,1.89-2.83,1.98-4.44.03-.57,0-1.15-.11-1.71,2.16.42,4.48-.2,6.15-1.87Z"/>
        <path class="cls-4" d="m34.48,52.05c1.24-1.24,1.89-2.83,1.98-4.44.03-.57,0-1.15-.11-1.71,2.16.42,4.48-.2,6.15-1.87,1-1,1.62-2.23,1.87-3.52v-.14c.05-.26.07-.52.09-.78.03-.52,0-1.05-.09-1.57v-.14c2.15.41,4.47-.21,6.13-1.88,1.24-1.24,1.89-2.83,1.98-4.44.03-.57,0-1.15-.11-1.71,2.16.42,4.48-.2,6.15-1.87.99-.99,1.59-2.21,1.84-3.49-.84-.91-1.69-1.8-2.57-2.65-.48-.46-.96-.91-1.44-1.34-.09.45-.21.9-.4,1.34h-.01c-.33.77-.81,1.49-1.44,2.12-1.67,1.67-4,2.3-6.15,1.87.11.56.14,1.14.11,1.71-.09,1.62-.75,3.21-1.98,4.44-.63.63-1.35,1.1-2.12,1.44h0c-1.27.56-2.67.7-4.01.44.11.56.14,1.14.11,1.71-.09,1.62-.75,3.21-1.98,4.44-1.67,1.67-4,2.3-6.15,1.87.11.56.14,1.14.11,1.71-.09,1.62-.75,3.21-1.98,4.44-1.67,1.67-4,2.3-6.15,1.87.11.56.14,1.14.11,1.71-.04.79-.22,1.57-.54,2.3h-.01c-.04.1-.09.19-.14.28,1.17,1.62,2.35,3.22,3.57,4.79.68-1.03,1.06-2.2,1.13-3.39.03-.56,0-1.13-.11-1.69h.14c.78.14,1.57.14,2.35,0h.14c1.29-.25,2.52-.88,3.52-1.87Z"/>
        <path class="cls-4" d="m26.46,44.02c1.24-1.24,1.89-2.83,1.98-4.44.03-.57,0-1.15-.11-1.71,2.16.42,4.48-.2,6.15-1.87,1.24-1.24,1.89-2.83,1.98-4.44.03-.57,0-1.15-.11-1.71,2.16.42,4.48-.2,6.15-1.87,1-1,1.62-2.23,1.87-3.52v-.14c.05-.26.07-.52.09-.78.03-.52,0-1.05-.09-1.57v-.12h.12c.78.14,1.57.14,2.35,0h.14c1.29-.25,2.52-.88,3.52-1.87.76-.76,1.28-1.67,1.6-2.63-1.65-.99-3.34-1.7-5.08-2.04-.17.22-.34.45-.54.65-.63.63-1.35,1.1-2.12,1.44h0c-1.27.56-2.67.7-4.01.44.11.56.14,1.14.11,1.71-.04.79-.22,1.57-.54,2.3h-.01c-.33.77-.81,1.49-1.44,2.12-1.67,1.67-4,2.3-6.15,1.87.11.56.14,1.14.11,1.71-.09,1.62-.75,3.21-1.98,4.44-1.67,1.67-4,2.3-6.15,1.87.11.56.14,1.14.11,1.71-.09,1.62-.75,3.21-1.98,4.44-1.67,1.67-4,2.3-6.15,1.87.06.32.09.64.11.97.24.51.52,1.03.82,1.55.02.04.04.08.07.12.93,1.53,1.89,3.03,2.87,4.52.13-.47.22-.95.25-1.43.03-.57,0-1.15-.11-1.71,2.16.42,4.48-.2,6.15-1.87Z"/>
        <path class="cls-4" d="m20.41,31.55c.03-.57,0-1.15-.11-1.71,2.16.42,4.48-.2,6.15-1.87,1.24-1.24,1.89-2.83,1.98-4.44.03-.56,0-1.13-.11-1.69h.14c.78.14,1.57.14,2.35,0h.14c1.29-.25,2.52-.88,3.52-1.87,1.11-1.11,1.72-2.51,1.91-3.95-3.67.97-7.38,2.59-10.65,4.72-.55.36-1.09.72-1.62,1.11-.14.1-.27.2-.4.3-.32.65-.74,1.27-1.29,1.82-.72.72-1.57,1.24-2.47,1.57-.91.99-1.73,2.02-2.42,3.1-1.8,2.82-2.76,5.94-2.51,9.21,1.24-.27,2.42-.87,3.39-1.84,1.24-1.24,1.89-2.83,1.98-4.44Z"/>
        <path class="cls-4" d="m42.51,60.05c1-1,1.62-2.23,1.87-3.52v-.14c.05-.26.07-.52.09-.78.03-.52,0-1.05-.09-1.57v-.12h.12c.78.14,1.57.14,2.35,0h.14c1.29-.25,2.52-.88,3.52-1.87,1.24-1.24,1.89-2.83,1.98-4.44.03-.57,0-1.15-.11-1.71,2.16.42,4.48-.2,6.15-1.87,1.24-1.24,1.89-2.83,1.98-4.44.03-.57,0-1.15-.11-1.71,2.16.42,4.48-.2,6.15-1.87.68-.68,1.17-1.47,1.5-2.31-1.19-1.45-2.45-3.04-3.79-4.68-.31,1.09-.86,2.12-1.72,2.97-1.67,1.67-4,2.3-6.15,1.87.11.56.14,1.14.11,1.71-.09,1.62-.75,3.21-1.98,4.44-1.67,1.67-4,2.3-6.15,1.87.11.56.14,1.14.11,1.71-.09,1.62-.75,3.21-1.98,4.44-.63.63-1.35,1.1-2.12,1.44h0c-1.27.56-2.67.7-4.01.44.11.56.14,1.14.11,1.71-.04.79-.22,1.57-.54,2.3h-.01c-.33.77-.81,1.49-1.44,2.12-1.67,1.67-4,2.3-6.15,1.87.11.56.14,1.14.11,1.71-.08,1.4-.61,2.76-1.54,3.9,1.21,1.48,2.45,2.94,3.7,4.39,1.14-1.21,1.76-2.73,1.85-4.28.03-.57,0-1.15-.11-1.71,2.16.42,4.48-.2,6.15-1.87Z"/>
      </g>
      <g>
        <path class="cls-1" d="m201.42,210.45c0-1.49-.37-2.96-.92-4.38-1.18.43-2.44.54-3.66.3.11.56.14,1.14.11,1.71-.09,1.62-.75,3.21-1.98,4.44-.52.52-1.1.93-1.71,1.25.42.22.86.42,1.28.63,1.24.62,2.47,1.25,3.74,1.83.35.16.67.14.96.01.5-.56.9-1.19,1.19-1.85h.01c.32-.74.49-1.52.54-2.3.03-.57,0-1.15-.11-1.71.19.04.38.05.57.07Z"/>
        <path class="cls-1" d="m198.01,201.26c-.13-.21-.26-.42-.38-.62-.88-1.4-1.77-2.79-2.66-4.19,0,0,0,0,0,0-1.67,1.67-4,2.3-6.15,1.87.11.56.14,1.14.11,1.71-.09,1.62-.75,3.21-1.98,4.44-1.67,1.67-4,2.3-6.15,1.87.02.1.02.2.04.3,2.06,1.3,4.14,2.56,6.26,3.77,1.41-.2,2.78-.84,3.87-1.93,1.24-1.24,1.89-2.83,1.98-4.44.03-.57,0-1.15-.11-1.71,1.77.35,3.65-.02,5.19-1.09Z"/>
        <path class="cls-1" d="m182.91,200.48c1.24-1.24,1.89-2.83,1.98-4.44.03-.57,0-1.15-.11-1.71,2.16.42,4.48-.2,6.15-1.87.31-.31.58-.64.81-.98-1.12-1.73-2.25-3.46-3.39-5.18-.33.78-.81,1.51-1.44,2.15-1.67,1.67-4,2.3-6.15,1.87.11.56.14,1.14.11,1.71-.09,1.62-.75,3.21-1.98,4.44-1.67,1.67-3.98,2.29-6.13,1.88v.14c.09.52.12,1.04.09,1.57-.01.26-.04.52-.09.78v.14c-.02.1-.06.2-.08.29.03.02.05.04.08.05,1.35.95,2.72,1.89,4.09,2.8,0-.02,0-.04,0-.06.03-.57,0-1.15-.11-1.71,2.16.42,4.48-.2,6.15-1.87Z"/>
        <path class="cls-1" d="m158.85,176.41c1.24-1.24,1.89-2.83,1.98-4.44.03-.57,0-1.15-.11-1.71,2.16.42,4.48-.2,6.15-1.87,1.24-1.24,1.89-2.83,1.98-4.44.03-.57,0-1.15-.11-1.71.97.19,1.98.16,2.94-.08-1.03-1.44-2.07-2.87-3.11-4.3-1.23.49-2.56.61-3.84.36.11.56.14,1.14.11,1.71-.09,1.62-.75,3.21-1.98,4.44-1.67,1.67-4,2.3-6.15,1.87.11.56.14,1.14.11,1.71-.09,1.62-.75,3.21-1.98,4.44-1.67,1.67-4,2.3-6.15,1.87.11.56.14,1.14.11,1.71-.09,1.61-.74,3.18-1.96,4.41.71.64,1.41,1.27,2.13,1.9.7.62,1.41,1.23,2.11,1.84.5-.56.9-1.18,1.18-1.84h.01c.32-.74.49-1.52.54-2.3.03-.57,0-1.15-.11-1.71,2.16.42,4.48-.2,6.15-1.87Z"/>
        <path class="cls-1" d="m150.82,168.38c1.24-1.24,1.89-2.83,1.98-4.44.03-.57,0-1.15-.11-1.71,2.16.42,4.48-.2,6.15-1.87,1.24-1.24,1.89-2.83,1.98-4.44.03-.57,0-1.15-.11-1.71,1.57.31,3.21.05,4.64-.74-.8-1.09-1.61-2.17-2.42-3.25-.29-.4-.59-.79-.89-1.19-.82.6-1.75,1-2.71,1.19h-.14c-.78.14-1.57.14-2.35,0h-.14c.11.56.14,1.12.11,1.69-.09,1.62-.75,3.21-1.98,4.44-1.67,1.67-4,2.3-6.15,1.87.11.56.14,1.14.11,1.71-.09,1.62-.75,3.21-1.98,4.44-1.67,1.67-3.98,2.29-6.13,1.88v.14c.09.52.12,1.04.09,1.57-.01.26-.04.52-.09.78v.14c-.25,1.29-.88,2.52-1.87,3.52-.12.12-.24.21-.36.32.74.69,1.49,1.39,2.24,2.08.64.6,1.29,1.19,1.94,1.78.06-.06.12-.11.18-.16,1.24-1.24,1.89-2.83,1.98-4.44.03-.57,0-1.15-.11-1.71,2.16.42,4.48-.2,6.15-1.87Z"/>
        <path class="cls-1" d="m172.77,193.89h0c.77-.34,1.49-.82,2.12-1.45,1.24-1.24,1.89-2.83,1.98-4.44.03-.57,0-1.15-.11-1.71,2.16.42,4.48-.2,6.15-1.87.63-.63,1.1-1.35,1.44-2.12h.01c.19-.45.32-.92.41-1.4-.83-1.23-1.67-2.46-2.51-3.69-.46-.67-.91-1.33-1.37-2,.01.26.02.51,0,.77-.09,1.62-.75,3.21-1.98,4.44-1,1-2.23,1.62-3.52,1.87h-.14c-.78.14-1.57.14-2.35,0h-.12v.12c.09.52.12,1.04.09,1.57-.01.26-.04.52-.09.78v.14c-.25,1.29-.88,2.52-1.87,3.52-1.67,1.67-4,2.3-6.15,1.87.11.56.14,1.14.11,1.71-.06.98-.35,1.94-.82,2.83,1.44,1.12,2.89,2.22,4.35,3.31.27-.68.44-1.4.48-2.12.03-.57,0-1.15-.11-1.71,1.34.26,2.74.12,4.01-.43Z"/>
        <path class="cls-1" d="m166.88,184.42c.63-.63,1.1-1.35,1.44-2.12h.01c.32-.74.49-1.52.54-2.3.03-.57,0-1.15-.11-1.71,1.34.26,2.74.12,4.01-.43h0c.77-.34,1.49-.82,2.12-1.45,1.24-1.24,1.89-2.83,1.98-4.44.03-.57,0-1.15-.11-1.71.25.05.5.08.75.1-.94-1.34-1.88-2.69-2.83-4.03-.64.06-1.29.04-1.92-.08v.14c.09.52.12,1.04.09,1.57-.01.26-.04.52-.09.78v.14c-.25,1.29-.88,2.52-1.87,3.52-1.67,1.67-4,2.3-6.15,1.87.11.56.14,1.14.11,1.71-.09,1.62-.75,3.21-1.98,4.44-1,1-2.23,1.62-3.52,1.87h-.14c-.78.14-1.57.14-2.35,0h-.14c.11.56.14,1.12.11,1.69-.08,1.36-.58,2.69-1.47,3.82,1.44,1.21,2.89,2.41,4.35,3.6.69-1.03,1.07-2.21,1.14-3.4.03-.57,0-1.15-.11-1.71,2.16.42,4.48-.2,6.15-1.87Z"/>
        <path class="cls-1" d="m126.75,144.32c1.24-1.24,1.89-2.83,1.98-4.44.03-.57,0-1.15-.11-1.71,2.16.42,4.48-.2,6.15-1.87,1.24-1.24,1.89-2.83,1.98-4.44.03-.57,0-1.15-.11-1.71,1.34.26,2.74.12,4.01-.43h0c.77-.34,1.49-.82,2.12-1.45.67-.67,1.15-1.44,1.48-2.26-1.2-1.5-2.4-3-3.6-4.5-.05-.06-.1-.13-.16-.2-.31,1.08-.87,2.09-1.72,2.94-1.67,1.67-4,2.3-6.15,1.87.11.56.14,1.14.11,1.71-.09,1.62-.75,3.21-1.98,4.44-1.67,1.67-4,2.3-6.15,1.87.11.56.14,1.14.11,1.71-.09,1.62-.75,3.21-1.98,4.44-1.67,1.67-4,2.3-6.15,1.87.11.56.14,1.14.11,1.71-.09,1.62-.75,3.21-1.98,4.44-.31.31-.65.58-1.01.81.37.35.73.71,1.1,1.06,1,.96,1.99,1.92,2.99,2.88.32-.23.64-.47.93-.76.63-.63,1.1-1.35,1.44-2.12h.01c.32-.74.49-1.52.54-2.3.03-.57,0-1.15-.11-1.71,2.16.42,4.48-.2,6.15-1.87Z"/>
        <path class="cls-1" d="m118.72,136.29c1.24-1.24,1.89-2.83,1.98-4.44.03-.57,0-1.15-.11-1.71,2.16.42,4.48-.2,6.15-1.87,1.24-1.24,1.89-2.83,1.98-4.44.03-.57,0-1.15-.11-1.71,2.16.42,4.48-.2,6.15-1.87.63-.63,1.1-1.35,1.44-2.12h.01c.22-.5.34-1.03.43-1.56-1.24-1.53-2.49-3.05-3.74-4.57-.06-.07-.11-.14-.17-.2,0,0,0,.01,0,.02-.09,1.62-.75,3.21-1.98,4.44-1,1-2.23,1.62-3.52,1.87h-.14c-.78.14-1.57.14-2.35,0h-.14c.11.56.14,1.12.11,1.69-.09,1.62-.75,3.21-1.98,4.44-1.67,1.67-4,2.3-6.15,1.87.11.56.14,1.14.11,1.71-.09,1.62-.75,3.21-1.98,4.44-1.67,1.67-3.98,2.29-6.13,1.88v.14c.09.52.12,1.04.09,1.57-.01.26-.04.52-.09.78v.14c-.25,1.29-.88,2.52-1.87,3.52-.36.36-.75.66-1.17.92,1.01.99,2.02,1.99,3.04,2.98.34.33.69.66,1.03.99.39-.25.75-.54,1.09-.88,1.24-1.24,1.89-2.83,1.98-4.44.03-.57,0-1.15-.11-1.71,2.16.42,4.48-.2,6.15-1.87Z"/>
        <path class="cls-1" d="m140.67,161.8h0c.77-.34,1.49-.82,2.12-1.45,1.24-1.24,1.89-2.83,1.98-4.44.03-.57,0-1.15-.11-1.71,2.16.42,4.48-.2,6.15-1.87.63-.63,1.1-1.35,1.44-2.12h.01c.32-.74.49-1.52.54-2.3.03-.57,0-1.15-.11-1.71,2.08.41,4.3-.17,5.95-1.7-1.16-1.53-2.32-3.06-3.49-4.58-.11.13-.2.27-.33.39-1.67,1.67-4,2.3-6.15,1.87.11.56.14,1.14.11,1.71-.09,1.62-.75,3.21-1.98,4.44-1,1-2.23,1.62-3.52,1.87h-.14c-.78.14-1.57.14-2.35,0h-.12v.12c.09.52.12,1.04.09,1.57-.01.26-.04.52-.09.78v.14c-.25,1.29-.88,2.52-1.87,3.52-1.67,1.67-4,2.3-6.15,1.87.11.56.14,1.14.11,1.71-.09,1.62-.75,3.21-1.98,4.44-.2.2-.4.37-.61.54,1.37,1.31,2.75,2.61,4.13,3.91.17-.14.34-.28.5-.44,1.24-1.24,1.89-2.83,1.98-4.44.03-.57,0-1.15-.11-1.71,1.34.26,2.74.12,4.01-.43Z"/>
        <path class="cls-1" d="m134.78,152.32c.63-.63,1.1-1.35,1.44-2.12h.01c.32-.74.49-1.52.54-2.3.03-.57,0-1.15-.11-1.71,1.34.26,2.74.12,4.01-.43h0c.77-.34,1.49-.82,2.12-1.45,1.24-1.24,1.89-2.83,1.98-4.44.03-.57,0-1.15-.11-1.71,2.16.42,4.48-.2,6.15-1.87.3-.3.56-.62.79-.96-1.21-1.56-2.43-3.11-3.65-4.66-.31.57-.68,1.12-1.16,1.61-1.67,1.67-3.98,2.29-6.13,1.88v.14c.09.52.12,1.04.09,1.57-.01.26-.04.52-.09.78v.14c-.25,1.29-.88,2.52-1.87,3.52-1.67,1.67-4,2.3-6.15,1.87.11.56.14,1.14.11,1.71-.09,1.62-.75,3.21-1.98,4.44-1,1-2.23,1.62-3.52,1.87h-.14c-.78.14-1.57.14-2.35,0h-.14c.11.56.14,1.12.11,1.69-.09,1.62-.75,3.21-1.98,4.44-.26.26-.55.49-.84.7.14.13.27.26.41.4,1.24,1.18,2.48,2.36,3.72,3.54.25-.19.5-.4.73-.63,1.24-1.24,1.89-2.83,1.98-4.44.03-.57,0-1.15-.11-1.71,2.16.42,4.48-.2,6.15-1.87Z"/>
        <path class="cls-1" d="m94.66,112.22c1.24-1.24,1.89-2.83,1.98-4.44.03-.57,0-1.15-.11-1.71,2.16.42,4.48-.2,6.15-1.87,1.24-1.24,1.89-2.83,1.98-4.44.03-.57,0-1.15-.11-1.71,1.34.26,2.74.12,4.01-.43h0c.77-.34,1.49-.82,2.12-1.45,1.24-1.24,1.89-2.83,1.98-4.44.03-.57,0-1.15-.11-1.71.67.13,1.35.15,2.03.08-1.13-1.35-2.26-2.71-3.38-4.07,0,0,0,0,0,0,0,0-.01,0-.02,0h-.14c-.78.14-1.57.14-2.35,0h-.12v.12c.09.52.12,1.04.09,1.57-.01.26-.04.52-.09.78v.14c-.25,1.29-.88,2.52-1.87,3.52-1.67,1.67-4,2.3-6.15,1.87.11.56.14,1.14.11,1.71-.09,1.62-.75,3.21-1.98,4.44-1.67,1.67-4,2.3-6.15,1.87.11.56.14,1.14.11,1.71-.09,1.62-.75,3.21-1.98,4.44-1.67,1.67-4,2.3-6.15,1.87.11.56.14,1.14.11,1.71-.09,1.62-.75,3.21-1.98,4.44-.36.36-.75.65-1.16.91.32.32.64.64.95.97,1,1.02,2.02,2.04,3.02,3.06.42-.27.83-.58,1.2-.94.63-.63,1.1-1.35,1.44-2.12h.01c.32-.74.49-1.52.54-2.3.03-.57,0-1.15-.11-1.71,2.16.42,4.48-.2,6.15-1.87Z"/>
        <path class="cls-1" d="m86.63,104.19c1.24-1.24,1.89-2.83,1.98-4.44.03-.57,0-1.15-.11-1.71,2.16.42,4.48-.2,6.15-1.87,1.24-1.24,1.89-2.83,1.98-4.44.03-.57,0-1.15-.11-1.71,2.16.42,4.48-.2,6.15-1.87.63-.63,1.1-1.35,1.44-2.12h.01c.32-.74.49-1.52.54-2.3.03-.57,0-1.15-.11-1.71,1.07.21,2.18.15,3.24-.16-1.14-1.4-2.28-2.81-3.42-4.21-1.22.48-2.56.61-3.83.36.11.56.14,1.14.11,1.71-.09,1.62-.75,3.21-1.98,4.44-1,1-2.23,1.62-3.52,1.87h-.14c-.78.14-1.57.14-2.35,0h-.14c.11.56.14,1.12.11,1.69-.09,1.62-.75,3.21-1.98,4.44-1.67,1.67-4,2.3-6.15,1.87.11.56.14,1.14.11,1.71-.09,1.62-.75,3.21-1.98,4.44-1.67,1.67-3.98,2.29-6.13,1.88v.14c.09.52.12,1.04.09,1.57-.01.26-.04.52-.09.78v.14c-.25,1.29-.88,2.52-1.87,3.52-.32.32-.66.58-1.02.82.97,1,1.93,2.01,2.89,3,.34.35.68.71,1.03,1.07.39-.25.75-.54,1.09-.88,1.24-1.24,1.89-2.83,1.98-4.44.03-.57,0-1.15-.11-1.71,2.16.42,4.48-.2,6.15-1.87Z"/>
        <path class="cls-1" d="m108.58,129.7h0c.77-.34,1.49-.82,2.12-1.45,1.24-1.24,1.89-2.83,1.98-4.44.03-.57,0-1.15-.11-1.71,2.16.42,4.48-.2,6.15-1.87.63-.63,1.1-1.35,1.44-2.12h.01c.32-.74.49-1.52.54-2.3.03-.57,0-1.15-.11-1.71,2.16.42,4.48-.2,6.15-1.87,1.24-1.24,1.89-2.83,1.98-4.44.02-.29.02-.57,0-.86-.29-.35-.59-.71-.89-1.06-1.06-1.27-2.11-2.53-3.17-3.79-.02,0-.04,0-.07,0,.11.56.14,1.14.11,1.71-.09,1.62-.75,3.21-1.98,4.44-1.67,1.67-4,2.3-6.15,1.87.11.56.14,1.14.11,1.71-.09,1.62-.75,3.21-1.98,4.44-1,1-2.23,1.62-3.52,1.87h-.14c-.78.14-1.57.14-2.35,0h-.12v.12c.09.52.12,1.04.09,1.57-.01.26-.04.52-.09.78v.14c-.25,1.29-.88,2.52-1.87,3.52-1.67,1.67-4,2.3-6.15,1.87.11.56.14,1.14.11,1.71-.09,1.62-.75,3.21-1.98,4.44-.38.38-.79.69-1.23.96,1.34,1.34,2.7,2.66,4.04,3.99.42-.27.83-.58,1.2-.94,1.24-1.24,1.89-2.83,1.98-4.44.03-.57,0-1.15-.11-1.71,1.34.26,2.74.12,4.01-.43Z"/>
        <path class="cls-1" d="m102.69,120.23c.63-.63,1.1-1.35,1.44-2.12h.01c.32-.74.49-1.52.54-2.3.03-.57,0-1.15-.11-1.71,1.34.26,2.74.12,4.01-.43h0c.77-.34,1.49-.82,2.12-1.45,1.24-1.24,1.89-2.83,1.98-4.44.03-.57,0-1.15-.11-1.71,2.16.42,4.48-.2,6.15-1.87,1.24-1.24,1.89-2.83,1.98-4.44.03-.57,0-1.15-.11-1.71.25.05.51.08.77.1-.79-.94-1.58-1.87-2.37-2.81-.34-.4-.67-.8-1-1.19-.47,0-.94-.03-1.41-.12.11.56.14,1.14.11,1.71-.09,1.62-.75,3.21-1.98,4.44-1.67,1.67-3.98,2.29-6.13,1.88v.14c.09.52.12,1.04.09,1.57-.01.26-.04.52-.09.78v.14c-.25,1.29-.88,2.52-1.87,3.52-1.67,1.67-4,2.3-6.15,1.87.11.56.14,1.14.11,1.71-.09,1.62-.75,3.21-1.98,4.44-1,1-2.23,1.62-3.52,1.87h-.14c-.78.14-1.57.14-2.35,0h-.14c.11.56.14,1.12.11,1.69-.09,1.62-.75,3.21-1.98,4.44-.38.38-.79.69-1.22.96,1.33,1.34,2.65,2.7,3.99,4.03.44-.27.87-.6,1.25-.98,1.24-1.24,1.89-2.83,1.98-4.44.03-.57,0-1.15-.11-1.71,2.16.42,4.48-.2,6.15-1.87Z"/>
        <path class="cls-1" d="m62.56,80.13c1.24-1.24,1.89-2.83,1.98-4.44.03-.57,0-1.15-.11-1.71,2.16.42,4.48-.2,6.15-1.87,1.24-1.24,1.89-2.83,1.98-4.44.03-.57,0-1.15-.11-1.71,1.34.26,2.74.12,4.01-.43h0c.77-.34,1.49-.82,2.12-1.45,1.24-1.24,1.89-2.83,1.98-4.44.03-.57,0-1.15-.11-1.71,2.16.42,4.48-.2,6.15-1.87.06-.06.11-.12.17-.18-.53-.65-1.06-1.29-1.58-1.93-.69-.84-1.37-1.68-2.06-2.52-.17.22-.33.44-.53.64-1,1-2.23,1.62-3.52,1.87h-.14c-.78.14-1.57.14-2.35,0h-.12v.12c.09.52.12,1.04.09,1.57-.01.26-.04.52-.09.78v.14c-.25,1.29-.88,2.52-1.87,3.52-1.67,1.67-4,2.3-6.15,1.87.11.56.14,1.14.11,1.71-.09,1.62-.75,3.21-1.98,4.44-1.67,1.67-4,2.3-6.15,1.87.11.56.14,1.14.11,1.71-.09,1.62-.75,3.21-1.98,4.44-1.67,1.67-4,2.3-6.15,1.87.11.56.14,1.14.11,1.71-.09,1.62-.75,3.21-1.98,4.44-.17.17-.35.31-.54.46.45.47.91.94,1.37,1.41.86.89,1.72,1.77,2.58,2.66.21-.17.42-.34.61-.54.63-.63,1.1-1.35,1.44-2.12h.01c.32-.74.49-1.52.54-2.3.03-.57,0-1.15-.11-1.71,2.16.42,4.48-.2,6.15-1.87Z"/>
        <path class="cls-1" d="m54.53,72.1c1.24-1.24,1.89-2.83,1.98-4.44.03-.57,0-1.15-.11-1.71,2.16.42,4.48-.2,6.15-1.87,1.24-1.24,1.89-2.83,1.98-4.44.03-.57,0-1.15-.11-1.71,2.16.42,4.48-.2,6.15-1.87.63-.63,1.1-1.35,1.44-2.12h.01c.32-.74.49-1.52.54-2.3.03-.57,0-1.15-.11-1.71,1.34.26,2.74.12,4.01-.43h0c.77-.34,1.49-.82,2.12-1.45.33-.33.61-.68.85-1.05-.99-1.18-1.97-2.37-2.97-3.54-.25-.3-.52-.59-.77-.89-.3.52-.66,1.02-1.1,1.47-1.67,1.67-4,2.3-6.15,1.87.11.56.14,1.14.11,1.71-.09,1.62-.75,3.21-1.98,4.44-1,1-2.23,1.62-3.52,1.87h-.14c-.78.14-1.57.14-2.35,0h-.14c.11.56.14,1.12.11,1.69-.09,1.62-.75,3.21-1.98,4.44-1.67,1.67-4,2.3-6.15,1.87.11.56.14,1.14.11,1.71-.09,1.62-.75,3.21-1.98,4.44-1.67,1.67-3.98,2.29-6.13,1.88v.14c.09.52.12,1.04.09,1.57-.01.26-.04.52-.09.78v.14c-.25,1.29-.88,2.52-1.87,3.52-.1.1-.21.18-.31.27.73.78,1.45,1.56,2.19,2.34.56.6,1.12,1.2,1.69,1.79.15-.12.29-.25.43-.39,1.24-1.24,1.89-2.83,1.98-4.44.03-.57,0-1.15-.11-1.71,2.16.42,4.48-.2,6.15-1.87Z"/>
        <path class="cls-1" d="m76.48,97.61h0c.77-.34,1.49-.82,2.12-1.45,1.24-1.24,1.89-2.83,1.98-4.44.03-.57,0-1.15-.11-1.71,2.16.42,4.48-.2,6.15-1.87.63-.63,1.1-1.35,1.44-2.12h.01c.32-.74.49-1.52.54-2.3.03-.57,0-1.15-.11-1.71,2.16.42,4.48-.2,6.15-1.87,1.24-1.24,1.89-2.83,1.98-4.44.03-.57,0-1.15-.11-1.71,1.48.29,3.03.08,4.4-.62-1.16-1.44-2.31-2.88-3.47-4.32-1.49.94-3.26,1.25-4.94.92.11.56.14,1.14.11,1.71-.09,1.62-.75,3.21-1.98,4.44-1.67,1.67-4,2.3-6.15,1.87.11.56.14,1.14.11,1.71-.09,1.62-.75,3.21-1.98,4.44-1,1-2.23,1.62-3.52,1.87h-.14c-.78.14-1.57.14-2.35,0h-.12v.12c.09.52.12,1.04.09,1.57-.01.26-.04.52-.09.78v.14c-.25,1.29-.88,2.52-1.87,3.52-1.67,1.67-4,2.3-6.15,1.87.11.56.14,1.14.11,1.71-.09,1.62-.75,3.21-1.98,4.44-.26.26-.55.49-.84.7,1.3,1.37,2.62,2.71,3.93,4.07.33-.23.64-.47.93-.76,1.24-1.24,1.89-2.83,1.98-4.44.03-.57,0-1.15-.11-1.71,1.34.26,2.74.12,4.01-.43Z"/>
        <path class="cls-1" d="m70.59,88.13c.63-.63,1.1-1.35,1.44-2.12h.01c.32-.74.49-1.52.54-2.3.03-.57,0-1.15-.11-1.71,1.34.26,2.74.12,4.01-.43h0c.77-.34,1.49-.82,2.12-1.45,1.24-1.24,1.89-2.83,1.98-4.44.03-.57,0-1.15-.11-1.71,2.16.42,4.48-.2,6.15-1.87,1.24-1.24,1.89-2.83,1.98-4.44.03-.57,0-1.15-.11-1.71,1.87.37,3.86-.06,5.45-1.26-1.18-1.47-2.37-2.94-3.56-4.41-1.65,1.5-3.85,2.06-5.9,1.65.11.56.14,1.14.11,1.71-.09,1.62-.75,3.21-1.98,4.44-1.67,1.67-3.98,2.29-6.13,1.88v.14c.09.52.12,1.04.09,1.57-.01.26-.04.52-.09.78v.14c-.25,1.29-.88,2.52-1.87,3.52-1.67,1.67-4,2.3-6.15,1.87.11.56.14,1.14.11,1.71-.09,1.62-.75,3.21-1.98,4.44-1,1-2.23,1.62-3.52,1.87h-.14c-.78.14-1.57.14-2.35,0h-.14c.11.56.14,1.12.11,1.69-.09,1.62-.75,3.21-1.98,4.44-.21.21-.44.41-.67.59,1.32,1.35,2.63,2.71,3.94,4.06.26-.19.51-.4.75-.64,1.24-1.24,1.89-2.83,1.98-4.44.03-.57,0-1.15-.11-1.71,2.16.42,4.48-.2,6.15-1.87Z"/>
        <path class="cls-1" d="m30.47,48.03c1.24-1.24,1.89-2.83,1.98-4.44.03-.57,0-1.15-.11-1.71,2.16.42,4.48-.2,6.15-1.87,1.24-1.24,1.89-2.83,1.98-4.44.03-.57,0-1.15-.11-1.71,1.34.26,2.74.12,4.01-.43h0c.77-.34,1.49-.82,2.12-1.45,1.24-1.24,1.89-2.83,1.98-4.44.03-.57,0-1.15-.11-1.71,2.16.42,4.48-.2,6.15-1.87.63-.63,1.1-1.35,1.44-2.12h.01c.19-.43.31-.88.4-1.34-1.38-1.22-2.8-2.3-4.26-3.17-.32.96-.84,1.87-1.6,2.63-1,1-2.23,1.62-3.52,1.87h-.14c-.78.14-1.57.14-2.35,0h-.12v.12c.09.52.12,1.04.09,1.57-.01.26-.04.52-.09.78v.14c-.25,1.29-.88,2.52-1.87,3.52-1.67,1.67-4,2.3-6.15,1.87.11.56.14,1.14.11,1.71-.09,1.62-.75,3.21-1.98,4.44-1.67,1.67-4,2.3-6.15,1.87.11.56.14,1.14.11,1.71-.09,1.62-.75,3.21-1.98,4.44-1.67,1.67-4,2.3-6.15,1.87.11.56.14,1.14.11,1.71-.03.48-.12.96-.25,1.43,1.09,1.65,2.22,3.28,3.38,4.89.07.09.13.19.2.28.05-.09.1-.19.14-.28h.01c.32-.74.49-1.52.54-2.3.03-.57,0-1.15-.11-1.71,2.16.42,4.48-.2,6.15-1.87Z"/>
        <path class="cls-1" d="m22.44,40c1.24-1.24,1.89-2.83,1.98-4.44.03-.57,0-1.15-.11-1.71,2.16.42,4.48-.2,6.15-1.87,1.24-1.24,1.89-2.83,1.98-4.44.03-.57,0-1.15-.11-1.71,2.16.42,4.48-.2,6.15-1.87.63-.63,1.1-1.35,1.44-2.12h.01c.32-.74.49-1.52.54-2.3.03-.57,0-1.15-.11-1.71,1.34.26,2.74.12,4.01-.43h0c.77-.34,1.49-.82,2.12-1.45.2-.2.37-.43.54-.65-.19-.04-.39-.08-.58-.11-.67-.1-1.37-.14-2.08-.17-2.38-.08-4.96.23-7.57.89-.14.04-.28.07-.42.11-.19,1.44-.8,2.84-1.91,3.95-1,1-2.23,1.62-3.52,1.87h-.14c-.78.14-1.57.14-2.35,0h-.14c.11.56.14,1.12.11,1.69-.09,1.62-.75,3.21-1.98,4.44-1.67,1.67-4,2.3-6.15,1.87.11.56.14,1.14.11,1.71-.09,1.62-.75,3.21-1.98,4.44-.96.96-2.15,1.57-3.39,1.84.1,1.3.39,2.62.91,3.96.14.35.28.7.44,1.06-.01-.32-.05-.65-.11-.97,2.16.42,4.48-.2,6.15-1.87Z"/>
        <path class="cls-1" d="m23.73,22.13c-1.38,1.04-2.64,2.17-3.76,3.38.9-.33,1.75-.85,2.47-1.57.54-.54.97-1.16,1.29-1.82Z"/>
        <path class="cls-1" d="m44.39,65.51h0c.77-.34,1.49-.82,2.12-1.45,1.24-1.24,1.89-2.83,1.98-4.44.03-.57,0-1.15-.11-1.71,2.16.42,4.48-.2,6.15-1.87.63-.63,1.1-1.35,1.44-2.12h.01c.32-.74.49-1.52.54-2.3.03-.57,0-1.15-.11-1.71,2.16.42,4.48-.2,6.15-1.87,1.24-1.24,1.89-2.83,1.98-4.44.03-.57,0-1.15-.11-1.71,2.16.42,4.48-.2,6.15-1.87.56-.56.98-1.19,1.3-1.86-.6-.68-1.18-1.38-1.79-2.06-.65-.73-1.32-1.54-2.03-2.4-.33.84-.82,1.63-1.5,2.31-1.67,1.67-4,2.3-6.15,1.87.11.56.14,1.14.11,1.71-.09,1.62-.75,3.21-1.98,4.44-1.67,1.67-4,2.3-6.15,1.87.11.56.14,1.14.11,1.71-.09,1.62-.75,3.21-1.98,4.44-1,1-2.23,1.62-3.52,1.87h-.14c-.78.14-1.57.14-2.35,0h-.12v.12c.09.52.12,1.04.09,1.57-.01.26-.04.52-.09.78v.14c-.25,1.29-.88,2.52-1.87,3.52-1.67,1.67-4,2.3-6.15,1.87.11.56.14,1.14.11,1.71-.09,1.55-.71,3.07-1.85,4.28,1.24,1.44,2.5,2.86,3.77,4.28.04-.04.08-.06.11-.1,1.24-1.24,1.89-2.83,1.98-4.44.03-.57,0-1.15-.11-1.71,1.34.26,2.74.12,4.01-.43Z"/>
        <path class="cls-1" d="m38.5,56.04c.63-.63,1.1-1.35,1.44-2.12h.01c.32-.74.49-1.52.54-2.3.03-.57,0-1.15-.11-1.71,1.34.26,2.74.12,4.01-.43h0c.77-.34,1.49-.82,2.12-1.45,1.24-1.24,1.89-2.83,1.98-4.44.03-.57,0-1.15-.11-1.71,2.16.42,4.48-.2,6.15-1.87,1.24-1.24,1.89-2.83,1.98-4.44.03-.57,0-1.15-.11-1.71,2.16.42,4.48-.2,6.15-1.87.86-.86,1.41-1.89,1.72-2.97-1.24-1.51-2.54-3.05-3.89-4.53-.25,1.28-.86,2.5-1.84,3.49-1.67,1.67-4,2.3-6.15,1.87.11.56.14,1.14.11,1.71-.09,1.62-.75,3.21-1.98,4.44-1.67,1.67-3.98,2.29-6.13,1.88v.14c.09.52.12,1.04.09,1.57-.01.26-.04.52-.09.78v.14c-.25,1.29-.88,2.52-1.87,3.52-1.67,1.67-4,2.3-6.15,1.87.11.56.14,1.14.11,1.71-.09,1.62-.75,3.21-1.98,4.44-1,1-2.23,1.62-3.52,1.87h-.14c-.78.14-1.57.14-2.35,0h-.14c.11.56.14,1.12.11,1.69-.07,1.19-.45,2.36-1.13,3.39,1.18,1.53,2.38,3.04,3.6,4.53.93-1.15,1.46-2.51,1.54-3.9.03-.57,0-1.15-.11-1.71,2.16.42,4.48-.2,6.15-1.87Z"/>
      </g>
    </g>
  </g>
</svg>