<?xml version="1.0" encoding="UTF-8"?>
<svg id="Layer_2" data-name="Layer 2" xmlns="http://www.w3.org/2000/svg" viewBox="0 0 182.81 233.22">
  <defs>
    <style>
      .cls-1 {
        fill: #19995c;
      }

      .cls-1, .cls-2, .cls-3, .cls-4, .cls-5 {
        stroke-width: 0px;
      }

      .cls-2 {
        fill: #008d4a;
      }

      .cls-3 {
        fill: #59b58a;
      }

      .cls-4 {
        fill: #fff;
      }

      .cls-5 {
        fill: #33a46e;
      }
    </style>
  </defs>
  <g id="Blancos">
    <path class="cls-4" d="m176.72,49.82c-2.4-2.55-5.3-4.34-8.44-5.26,1.85-2.87,3.76-6.36,4.68-10.77.77-3.7.38-6.83-.02-8.93.72-2.65,1.25-6.85-.87-11.44-1.88-4.08-5.38-7.21-9.87-8.82-.64-.23-2.39-.86-5.54-1.04-.11-.06-.23-.13-.35-.19-2.52-1.33-5.28-2-8.21-2-1.8,0-3.62.26-5.56.79-4.5,1.23-7.57,3.74-9.4,5.24-.2.17-.4.33-.6.48-1.94,1.22-4.63,2.3-7.48,3.44-4.03,1.61-8.59,3.44-13.08,6.4-2.22,1.46-4.22,3.06-6.05,4.75-.29-3.21-.88-6.8-2.47-10.44-3.29-7.52-9.77-12.01-17.33-12.01-5.09,0-9.16,2.1-11.84,3.76-.19,0-.39,0-.59,0-2.47,0-4.83.41-7.04,1.21-6.79,2.48-10.61,7.95-12.66,10.89-10.9,15.64-15.43,30.88-18.69,45.02-.52,2.25-2.06,5.13-3.7,8.19-.96,1.8-1.96,3.66-2.91,5.68-3.29,6.97-6.2,14.23-8.65,21.57-4.64,13.91-6.39,27.4-8.09,40.44-.76,5.83-1.47,11.34-2.44,16.93l-.17.96c-.61,3.39-1.61,8.9-.22,14.72-1.17,3.22-2.21,6.24-3.14,9.15-1.74,5.42-3.14,10.46-4.27,15.4-.07.28-.16.59-.26.91-.72,2.49-1.82,6.24-1.34,10.6.75,6.79,4.88,12.36,10.45,14.83,1.97,7.15,7.47,11.4,12.92,12.58,1.17.25,2.37.38,3.56.38,4.58,0,8.86-1.84,12.06-5.18.1-.11.2-.21.3-.32,2.97-.49,5.79-1.76,8.13-3.7,5.64-4.68,7.2-11.29,8.22-15.66.13-.57.31-1.34.41-1.66,1.3-3.51,2.46-6.1,3.65-8.17,1.34-2.31,2.78-4.66,4.36-7.12,8.43-3.94,14.37-10.06,19.7-15.57,1.04-1.07,2.08-2.15,3.15-3.21,6.92-6.88,14.16-13.64,21.52-20.09,14.87-13.02,30.54-25.06,46.6-35.78,9.79-6.54,17.02-14.64,21.47-24.06,1.27-2.69,2.88-6.31,4.03-10.48.85-3.06,1.04-6.3.57-9.46.89-2.13,1.41-4.31,1.55-6.53.35-5.79-1.97-12.08-6.05-16.41Z"/>
  </g>
  <g id="Layer_1-2" data-name="Layer 1">
    <g>
      <path class="cls-5" d="m146.17,61.59c2.04-.97,3.86-2.48,5.92-3.42,1.43-.65,3.05-.94,4.56-.45.45.14.89.36,1.23.73.48.52.34,1.32.88,1.57.35.17,1.06-.07,1.41-.15.81-.2,1.56-.6,2.35-.88,2.82-.99,5.46,3.37,5.28,6.34-.06.97-.45,1.86-.93,2.65-.69,1.14-1.48,2.19-2.15,3.35.13-.22,1.51,2.84,1.58,3.15.27,1.24.24,2.54-.1,3.74-.78,2.83-1.91,5.47-3.14,8.08-3.68,7.8-9.68,13.61-16.24,18-16.7,11.16-32.78,23.52-48.14,36.97-7.59,6.65-15.01,13.56-22.22,20.74-6.84,6.8-12.65,14.05-21.62,17.01-1.59.52-3.52.83-4.74-.53-1.03-1.14-1.07-3.07-.54-4.57s1.52-2.69,2.39-3.94c6.96-10,9.26-24.21,14.97-35.26,6.15-11.9,14.66-22.13,24.77-29.54,9.28-6.8,19.82-11.29,28.54-19.01,7.12-6.29,12.81-14.55,20.02-20.7,1.85-1.57,3.82-2.89,5.92-3.89Z"/>
      <path class="cls-5" d="m51.38,177.23c2.51-3.63,5.15-7.18,7.82-10.7,21.2-27.93,44.67-54.05,70.45-77.84,4.02-3.71,8.1-7.37,12.23-10.96,3.76-3.27,7.62-7.44,11.93-9.94-3.5,2.03-6.72,6.29-9.64,9.11-3.3,3.19-6.56,6.43-9.79,9.7-7.24,7.34-13.85,14.02-21.26,21.09-12.75,12.17-24.52,26.83-35.5,40.61-10.79,13.54-22.09,27.73-30.77,42.74-1.92,3.32-3.45,6.99-4.78,10.58-1.09,2.95-1.55,8.76-4.09,10.86-.68.56-1.81.69-2.39.03-.54-.61-.39-1.55-.2-2.34,1.58-6.43,4.08-12.6,7.15-18.47,2.62-5.01,5.63-9.8,8.85-14.45Z"/>
      <path class="cls-5" d="m66.3,24.43c-8.7,12.49-12.98,25.06-16.38,39.82-1.39,6.01-5.05,11.37-7.66,16.9-3.05,6.47-5.72,13.13-7.98,19.91-6.1,18.29-6.75,36.45-9.97,55.17-.63,3.66-1.79,8.48.33,11.9,4,6.45,8.82-2.36,10.3-5.25,3.42-6.66,7.52-12.93,12.07-18.87,4.43-5.79,10.56-10.28,14.36-16.54,3.43-5.65,4.3-12.21,6.09-18.45,1.94-6.74,4.68-13.12,8.3-19.12,7.8-12.92,12.66-27.97,15.96-42.63,1.22-5.4,1.34-9.05.14-14.32-1.05-4.63-.25-10.59-2.14-14.91-2.67-6.09-7.32-1.39-10.45.32-2.48,1.36-4.99-.21-7.48.7-2.21.81-3.98,3.2-5.5,5.38Z"/>
      <path class="cls-5" d="m30.35,175.67c-1.55-3.91,1.69-8.58,3.03-12.13,1.43-3.79,3.11-7.48,4.72-11.19,8.92-20.63,18.49-41.2,30.36-60.37,4.28-6.91,9.17-13.49,14.89-19.29,3.48-3.54,7.56-6.46,11.05-10.03,3.29-3.37,5.95-7.29,8.49-11.23,4.93-7.66,9.56-16.06,17.36-21.2,6.34-4.18,14.14-5.71,20.53-9.82,1.84-1.18,3.55-3.2,5.71-3.79.87-.24,1.97-.44,2.82,0,.36.19,2.06,2.61,2.04,2.66.47-.99,4.94-.88,5.79-.58,2.6.93.94,2.66.61,4.44-.48,2.57,1.1,4.82.53,7.59-.47,2.27-1.68,4.31-2.96,6.24-10.47,15.78-26.92,26.77-37.84,42.24-5.32,7.54-9.22,15.98-14.14,23.78-3.19,5.05-7.09,10.49-11.58,14.46s-10.97,6.86-15.9,10.89c-10.14,8.29-18.72,18.5-25.07,29.96-2.02,3.65-3.83,7.44-6.06,10.97-1.91,3.02-11.15,14.49-14.37,6.38Z"/>
      <path class="cls-5" d="m71.46,115.86c-11.02,14.34-21.74,29.07-29.7,45.32-7.96,16.25-13.09,34.21-12.32,52.28.09,2.12-.71,5.16-2.79,4.72-1.48-.32-1.84-2.24-1.85-3.76-.03-20.41,7.62-40.13,17.54-57.96,10.65-19.13,23.97-36.63,37.23-54.05,15.36-20.17,30.79-40.43,48.72-58.42,2.57-2.58,5.19-5.11,7.86-7.58,2.3-2.13,5.6-4.2,7.36-6.77-19.94,21.08-38.43,43.95-56.6,66.56-5.22,6.5-10.38,13.05-15.46,19.67Z"/>
      <path class="cls-5" d="m66.58,68.2c-12.1,29.44-24.21,58.88-36.31,88.32-3.6,8.76-7.1,17.57-10,26.59-1.5,4.68-2.84,9.41-3.94,14.19-.43,1.88-1.51,4.57-1.3,6.49.18,1.62,1.59,4.05,3.28,2.16,1-1.12.18-4.98.53-6.56,2.46-11.21,5.93-22.14,9.94-32.89,5.24-14.04,11.41-27.7,17.57-41.35,0-1.85,2.28-5.04,3.05-6.76,1.17-2.6,2.35-5.2,3.52-7.8,2.13-4.71,4.45-9.3,6.62-13.98,6.62-14.28,10.54-29.57,15.33-44.51,1.15-3.57,2.59-6.67,3.17-10.35.7-4.45,1.53-9.51,2.84-13.82-2.43,7.98-4.89,15.88-7.74,23.71-2.03,5.58-4.29,11.07-6.55,16.56Z"/>
    </g>
    <g>
      <path class="cls-1" d="m146.17,61.59c2.04-.97,3.86-2.48,5.92-3.42,1.43-.65,3.05-.94,4.56-.45.45.14.89.36,1.23.73.48.52.34,1.32.88,1.57.35.17,1.06-.07,1.41-.15.81-.2,1.56-.6,2.35-.88,2.82-.99,5.46,3.37,5.28,6.34-.06.97-.45,1.86-.93,2.65-.69,1.14-1.48,2.19-2.15,3.35.13-.22,1.51,2.84,1.58,3.15.27,1.24.24,2.54-.1,3.74-.78,2.83-1.91,5.47-3.14,8.08-3.68,7.8-9.68,13.61-16.24,18-16.7,11.16-32.78,23.52-48.14,36.97-7.59,6.65-15.01,13.56-22.22,20.74-6.84,6.8-12.65,14.05-21.62,17.01-1.59.52-3.52.83-4.74-.53-1.03-1.14-1.07-3.07-.54-4.57s1.52-2.69,2.39-3.94c6.96-10,9.26-24.21,14.97-35.26,6.15-11.9,14.66-22.13,24.77-29.54,9.28-6.8,19.82-11.29,28.54-19.01,7.12-6.29,12.81-14.55,20.02-20.7,1.85-1.57,3.82-2.89,5.92-3.89Z"/>
      <path class="cls-3" d="m51.38,177.23c2.51-3.63,5.15-7.18,7.82-10.7,21.2-27.93,44.67-54.05,70.45-77.84,4.02-3.71,8.1-7.37,12.23-10.96,3.76-3.27,7.62-7.44,11.93-9.94-3.5,2.03-6.72,6.29-9.64,9.11-3.3,3.19-6.56,6.43-9.79,9.7-7.24,7.34-13.85,14.02-21.26,21.09-12.75,12.17-24.52,26.83-35.5,40.61-10.79,13.54-22.09,27.73-30.77,42.74-1.92,3.32-3.45,6.99-4.78,10.58-1.09,2.95-1.55,8.76-4.09,10.86-.68.56-1.81.69-2.39.03-.54-.61-.39-1.55-.2-2.34,1.58-6.43,4.08-12.6,7.15-18.47,2.62-5.01,5.63-9.8,8.85-14.45Z"/>
      <path class="cls-1" d="m66.3,24.43c-8.7,12.49-12.98,25.06-16.38,39.82-1.39,6.01-5.05,11.37-7.66,16.9-3.05,6.47-5.72,13.13-7.98,19.91-6.1,18.29-6.75,36.45-9.97,55.17-.63,3.66-1.79,8.48.33,11.9,4,6.45,8.82-2.36,10.3-5.25,3.42-6.66,7.52-12.93,12.07-18.87,4.43-5.79,10.56-10.28,14.36-16.54,3.43-5.65,4.3-12.21,6.09-18.45,1.94-6.74,4.68-13.12,8.3-19.12,7.8-12.92,12.66-27.97,15.96-42.63,1.22-5.4,1.34-9.05.14-14.32-1.05-4.63-.25-10.59-2.14-14.91-2.67-6.09-7.32-1.39-10.45.32-2.48,1.36-4.99-.21-7.48.7-2.21.81-3.98,3.2-5.5,5.38Z"/>
      <path class="cls-2" d="m30.35,175.67c-1.55-3.91,1.69-8.58,3.03-12.13,1.43-3.79,3.11-7.48,4.72-11.19,8.92-20.63,18.49-41.2,30.36-60.37,4.28-6.91,9.17-13.49,14.89-19.29,3.48-3.54,7.56-6.46,11.05-10.03,3.29-3.37,5.95-7.29,8.49-11.23,4.93-7.66,9.56-16.06,17.36-21.2,6.34-4.18,14.14-5.71,20.53-9.82,1.84-1.18,3.55-3.2,5.71-3.79.87-.24,1.97-.44,2.82,0,.36.19,2.06,2.61,2.04,2.66.47-.99,4.94-.88,5.79-.58,2.6.93.94,2.66.61,4.44-.48,2.57,1.1,4.82.53,7.59-.47,2.27-1.68,4.31-2.96,6.24-10.47,15.78-26.92,26.77-37.84,42.24-5.32,7.54-9.22,15.98-14.14,23.78-3.19,5.05-7.09,10.49-11.58,14.46s-10.97,6.86-15.9,10.89c-10.14,8.29-18.72,18.5-25.07,29.96-2.02,3.65-3.83,7.44-6.06,10.97-1.91,3.02-11.15,14.49-14.37,6.38Z"/>
      <path class="cls-3" d="m71.46,115.86c-11.02,14.34-21.74,29.07-29.7,45.32-7.96,16.25-13.09,34.21-12.32,52.28.09,2.12-.71,5.16-2.79,4.72-1.48-.32-1.84-2.24-1.85-3.76-.03-20.41,7.62-40.13,17.54-57.96,10.65-19.13,23.97-36.63,37.23-54.05,15.36-20.17,30.79-40.43,48.72-58.42,2.57-2.58,5.19-5.11,7.86-7.58,2.3-2.13,5.6-4.2,7.36-6.77-19.94,21.08-38.43,43.95-56.6,66.56-5.22,6.5-10.38,13.05-15.46,19.67Z"/>
      <path class="cls-3" d="m66.58,68.2c-12.1,29.44-24.21,58.88-36.31,88.32-3.6,8.76-7.1,17.57-10,26.59-1.5,4.68-2.84,9.41-3.94,14.19-.43,1.88-1.51,4.57-1.3,6.49.18,1.62,1.59,4.05,3.28,2.16,1-1.12.18-4.98.53-6.56,2.46-11.21,5.93-22.14,9.94-32.89,5.24-14.04,11.41-27.7,17.57-41.35,0-1.85,2.28-5.04,3.05-6.76,1.17-2.6,2.35-5.2,3.52-7.8,2.13-4.71,4.45-9.3,6.62-13.98,6.62-14.28,10.54-29.57,15.33-44.51,1.15-3.57,2.59-6.67,3.17-10.35.7-4.45,1.53-9.51,2.84-13.82-2.43,7.98-4.89,15.88-7.74,23.71-2.03,5.58-4.29,11.07-6.55,16.56Z"/>
    </g>
  </g>
</svg>