<?xml version="1.0" encoding="UTF-8"?>
<svg id="Layer_2" data-name="Layer 2" xmlns="http://www.w3.org/2000/svg" viewBox="0 0 189.04 224.22">
  <defs>
    <style>
      .cls-1 {
        fill: #008d4a;
      }

      .cls-1, .cls-2, .cls-3, .cls-4 {
        stroke-width: 0px;
      }

      .cls-2 {
        fill: #fff;
      }

      .cls-3 {
        fill: #33a46e;
      }

      .cls-4 {
        fill: #66bb93;
      }
    </style>
  </defs>
  <g id="Blancos">
    <path class="cls-2" d="m170.43,224.22c-4.68,0-15.97-1.84-19.89-18.83-2.13-9.22-4.12-16.8-6.92-23.8-1.26-3.15-2.71-6.21-4.32-9.16-.04.05-.07.1-.11.16-1.79,4.15-4.64,6.89-6.38,8.43-2.05,5.12-6.33,8.81-11.52,9.92-1.83,1.68-4.07,2.91-6.55,3.53-1.2.3-2.42.44-3.62.44-.58,0-1.16-.03-1.73-.1-1.56.53-3.18.79-4.8.79-2.41,0-4.81-.58-7.01-1.74-2.14-1.13-3.93-2.74-5.28-4.66-.75.11-1.5.17-2.25.17-3.31,0-6.55-1.09-9.2-3.15l-2.57-2c-1.17-.2-2.32-.54-3.44-1.03l-.75-.32c-1.64-.7-3.11-1.68-4.37-2.87-.12-.03-.23-.07-.35-.09-4.5-1.04-8.26-4.1-10.2-8.29-1.34-2.88-1.71-6.07-1.12-9.12-.08-.38-.14-.76-.19-1.15-.28-2.17-.08-4.35.55-6.4-1.52-3.91-1.33-8.28.53-12.04.68-1.39,1.57-2.64,2.61-3.74-.63.07-1.27.11-1.9.11-.43,0-.86-.02-1.29-.05-.81.46-1.66.88-2.55,1.26-1.86.79-3.85,1.18-5.83,1.18-1.49,0-2.98-.22-4.42-.67-1.14-.08-2.27-.29-3.39-.64-.08-.03-.16-.05-.24-.08l-1.03-.02c-4.78-.1-9.01-2.42-11.68-5.97-1.97-1.21-3.64-2.87-4.86-4.82-2.21-.96-4.19-2.45-5.74-4.39l-2.69-3.36c-.18-.22-.35-.45-.52-.68-3.64-1.32-6.75-4.04-8.49-7.77l-.15-.33c-2.05-2.22-3.43-5.05-3.85-8.14-.5-3.6.34-7.2,2.24-10.16.64-2.09,1.75-4.05,3.28-5.72.42-.45.8-.9,1.16-1.32,1.13-1.31,2.5-2.9,4.31-4.45,0,0,0-.01,0-.02-1.83-1.16-3.42-2.72-4.63-4.62-2.03-3.18-2.74-6.93-2.15-10.5-.13-.32-.25-.64-.37-.96-.25-.74-.64-2.13-.76-3.92-.91-1.23-1.64-2.61-2.14-4.1C1.29,56.2-.11,52.45,0,48.56c.14-4.57,2.35-8.82,6-11.55.01-.01.02-.03.03-.04,1.81-2.43,4.28-4.21,7.05-5.18.41-.35.84-.68,1.29-.99.4-.27.8-.52,1.22-.75.12-1.07.36-2.35.86-3.73.07-1.4.32-2.95.87-4.57,1.51-4.48,4.38-8.03,8.02-10.19,1.37-2.25,3.34-4.15,5.81-5.45l1.05-.55c1.76-.93,3.65-1.48,5.56-1.66,1.64-1.33,3.86-2.7,6.77-3.43,1.2-.3,2.52-.46,3.76-.46,4.55,0,7.85,1.9,9.93,3.56.19.04.37.09.56.14,2.9.76,5.42,2.34,7.33,4.45,1.03.61,1.99,1.35,2.85,2.21,2.38.37,4.69,1.31,6.72,2.83l.99.74c1.83,1.37,3.29,3.12,4.3,5.08.53.37,1.04.77,1.53,1.21l3.46,3.13c.56.51,1.08,1.06,1.56,1.64.84-.4,1.73-.73,2.65-.96,1.25-.33,2.52-.49,3.79-.49.21,0,.43,0,.64.01.68-.09,1.48-.16,2.36-.16,7.69,0,13.97,5.02,15.95,12.47.33.64.62,1.29.88,1.93,2.13,2.13,3.6,4.87,4.16,7.89.47,2.55.27,5.15-.54,7.55.38,1.52.51,3.09.4,4.64,0,.02.01.05.02.07,1.28,1.53,2.24,3.3,2.83,5.2.54-.21,1.07-.39,1.58-.54,2.43-1.55,5.24-2.35,8.07-2.35,2.45,0,4.91.6,7.17,1.83,3.87,2.11,6.84,5.03,8.77,8.54,2.11,1.03,3.99,2.57,5.46,4.54.3.41.62.82.95,1.24,1.22,1.57,2.73,3.52,4.11,5.92,1.59,2.77,2.34,5.98,2.26,9.17,2.63,2.6,4.19,5.7,4.65,9.26l.12.86c.35,2.54.89,6.37.02,10.68-.25,1.25-.67,2.6-1.35,3.94.25,3.28-.43,7.86-4.67,12.03-1.06,2.22-2.42,3.92-3.89,5.23,15.85,17.63,24.7,40.42,32.6,60.78l.66,1.7c2.84,7.31,2.47,14.36-1.02,19.87-3.11,4.89-8.35,7.92-14.4,8.33-.44.03-.87.04-1.29.04h0Z"/>
  </g>
  <g id="Layer_1-2" data-name="Layer 1">
    <g>
      <path class="cls-3" d="m124.9,138.1c-2.72-.11-5.63.29-7.71,2.04-1.82,1.53-2.74,3.86-3.39,6.14-1.23,4.29-1.78,8.76-1.96,13.22-.07,1.91-.08,3.83-.54,5.69s-1.43,3.66-3.03,4.7c-.61-4.21-1.22-8.42-1.83-12.63-.18-1.22-.39-2.52-1.24-3.42-1.26-1.34-3.4-1.25-5.21-.93-4.61.82-9.07,2.51-13.06,4.96-1.04.64-2.55,1.28-3.33.34-.77-.93.1-2.29.95-3.14,2.91-2.9,6.07-5.55,9.43-7.91,1.54-1.08,3.32-2.52,3.05-4.38-.27-1.88-2.41-2.74-4.06-3.67-3.5-1.98-5.85-5.87-5.96-9.9-.04-1.48.56-3.34,2.04-3.48,1.08-.1,1.95.8,2.69,1.59,3.86,4.14,8.73,7.3,14.05,9.23,2.63.95,5.45,1.68,8.24,1.91,2.51.21,4.56-1.48,6.9-2.06,2.69-.67,5.48-.99,8.26-.86,1.02.04,2.07.16,2.97.65.72.39,1.35,1.09,1.5,1.9.28,1.45-2.26.53-2.94.5-1.95-.1-3.88-.4-5.83-.48Z"/>
      <path class="cls-3" d="m125.89,130.28c-.87-2.68-.72-4.9-.73-7.32,0-1.1-4.16-11.21-6.94-14.38-1.8-2.05-3.72-4-5.47-6.1-.82-.99-1.37-1.81-2.41-2.43-.93-.56-1.73-.95-2.25-1.98-.91-1.82.26-2.97.3-4.68,1.7-.33,3.57.61,4.87,1.63,1.39,1.1,2.47,2.52,3.59,3.89,1.36,1.67,2.79,3.28,4.28,4.83.26.27.54.55.9.64.59.15,1.2-.27,1.48-.81s.3-1.17.33-1.78c.3-6.27,1.47-12.5,3.46-18.46.35-1.04,1.12-2.31,2.19-2.03,1.06.28,1.12,1.74.97,2.83-.87,6.36-.92,12.83-.14,19.2.07.54.16,1.14.58,1.5.74.63,1.84.11,2.7-.33,1.81-.93,3.83-1.43,5.86-1.45,1.14-.01,2.32.13,3.29.72s1.69,1.7,1.55,2.83c-.13,1.08-.99,1.93-1.94,2.46s-2.01.81-2.99,1.27c-3.98,1.88-5.93,6.38-9.16,9.37-.85.79-1.82,1.5-2.35,2.53-.43.84-.52,1.82-.52,2.76-.02,3.68,1.16,7.05,3.04,10.16-3.43-1.03-3.46-1.68-4.5-4.87Z"/>
      <path class="cls-3" d="m81.45,93.95c-.79-2.65-.74-5.77,1.03-7.89.97-1.16,2.33-1.91,3.67-2.62,3.22-1.73,6.5-3.49,9.06-6.1,1.13-1.15,2.16-2.85,1.44-4.29-.3-.6-.85-1.04-1.23-1.59-.68-1.01-.72-2.33-.43-3.51s.87-2.26,1.36-3.37c1.85-4.22,2.35-9.02,1.42-13.54-.23-1.09-.82-2.41-1.94-2.39-.73,3.15-1.47,6.32-2.89,9.23s-3.58,5.55-6.5,6.94c-.93.44-2.02.75-2.98.37-1.23-.48-1.9-1.94-3.16-2.31-1.12-.33-2.36.39-2.95,1.4s-.66,2.24-.57,3.41c.29,4.08,2.21,7.9,2.64,11.97.28,2.64,1.04,4.97.16,7.48-.89,2.52-.8,5.82-.06,8.36.39,1.35,2.33,5.73,4.25,5.44,1.3-.19-.3-2.26-.64-2.94-.65-1.31-1.28-2.65-1.7-4.06Z"/>
      <path class="cls-3" d="m79.34,98.44c1.6.15,3.24.32,4.69,1,1.46.68,2.72,1.99,2.9,3.59-3.44-1.68-7.13-2.87-10.91-3.52-2.39-.41-4.93-1.04-7.15-.05-1.74.77-3.11,2.63-4.47,3.95-3.65,3.54-7.66,6.72-11.93,9.49-.88.57-2.13,1.1-2.89.38-.75-.7-.35-1.94.1-2.86.89-1.83,1.78-3.67,2.68-5.5-6.95-.61-13.93-.97-20.91-1.06-.75-.01-1.56-.04-2.16-.49s-.77-1.52-.13-1.92c6.67-2.09,13.65-3.17,20.64-3.18.09-1.92-1.06-3.67-2.3-5.16-1.23-1.48-2.62-2.93-3.17-4.78s.14-4.24,1.98-4.82c1.1-.35,2.31.04,3.28.67s1.75,1.5,2.63,2.24c2.21,1.88,4.95,2.98,7.5,4.37,1.79.97,3.37,2.13,4.77,3.61.88.93,1.34,1.68,2.53,2.23,1.55.72,3.84.99,5.5,1.15,2.27.22,4.54.44,6.82.66Z"/>
      <path class="cls-3" d="m99.53,110.19c-11.64-9.38-22.54-19.58-32.95-30.49-5.88-6.15-13.09-16.23-9.33-21.66,2.26-3.26,6.37-9.41,7.4-13.24s-.64-5.27-4.49-6.2c-1.91-.46-4.35,1.53-5.79.18-2.47-2.33.85-12.47-1.86-14.51-1.38-1.04-3.53-.37-4.55,1.03-1.02,1.4-1.16,3.26-1.02,4.98.34,4.17,2.07,8.08,3.06,12.14,1,4.06,1.21,12.87-1.25,16.25-4.23-1.07-8.06-3.65-12.29-4.72-.41,1.47-.83,1.41-1.24,2.88,3.92,1.57,7.38,3.74,11.23,5.48,5.08,2.3,7.91,5.14,10.7,9.63,8.85,14.2,20.62,26.37,33.25,37.23,12.43,10.69,26.88,18.1,39.49,28.57,12.24,10.17,21.7,23.42,27.64,38.29,3.34,8.35,5.59,17.25,7.6,26,.63,2.72,1.87,7.44,5.55,7.19,4.4-.3,3.53-5.05,2.46-7.8-8.48-21.83-17.89-46.86-35.65-63.16-11.57-10.63-25.75-18.19-37.98-28.05Z"/>
      <path class="cls-3" d="m88.82,104.04c.08.05.16.1.23.15-.06-.07-.11-.13-.16-.2l-.07.05Z"/>
      <path class="cls-3" d="m103.7,120.29c-.11,0-.23.04-.33.08-.89.37-1.79.74-2.68,1.11-.07.03-.15.06-.23.04-.1-.02-.16-.11-.21-.2-.27-.52-.3-1.24-.83-1.48-.18-.08-.38-.09-.58-.09-2.16-.03-4.43.47-6.11,1.95-.9.79-1.41,2-2.25,2.87-.28.29-1.09.25-1.6.12-3.06-.78-5.33.71-5.8,3.55-1.35.86-2.92,1.35-3.5,2.38-.62,1.1-.7,2.88-.26,4.09.39,1.08,1.8,1.8,2.93,2.83-.29.46-.77,1.22-1.42,2.26,4.46,1.03,9.09.09,13.84,2.66-1.59.72-2.54,1.56-3.35,1.44-1.66-.24-3.33-.82-4.83-1.57-2.81-1.41-3.9-1.21-5.65,1.38-.33.49-1.01,1.08-1.5,1.06-4.01-.24-4.55,4.11-6.97,4.78.68,1.69,1.19,2.93,1.94,4.8,3.37-1.23,7.11-2.59,10.84-3.95.15.36.3.73.45,1.09-3.09,4.23-9.46,3.72-12.9,7.94,1.13.82,1.84,1.33,2.7,1.95-.53.5-.96.76-1.19,1.15-.53.9-.97,1.85-1.45,2.78,1.12.26,2.24.69,3.37.73,1.07.04,2.15-.33,3.23-.53.26,1.46.45,2.52.64,3.59.26.11.53.23.79.34,2.65-3.61,5.31-7.23,7.96-10.84.32.2.63.4.95.61-.3,4.56-5.33,8.16-2.6,12.89.92.71,1.84,1.43,2.94,2.28.53-.83,1.12-1.76,1.7-2.67q2.97,1.43,4.7-2.96c.58.15,1.16.3,1.96.51.02-2.14-.24-4.09.12-5.92.47-2.38,1.3-4.72,2.27-6.94.25-.58,1.6-.68,2.44-1,.19.78.69,1.64.51,2.32-.56,2.22-1.36,4.38-2.08,6.55-.27.81-1.03,1.76-.81,2.39.76,2.2.39,4.02-.92,5.88-.23.32.56,1.93.78,1.91,2.91-.29,3.3,1.73,3.66,3.79.13.77.13,1.57.19,2.35.48-.28.96-.55,1.43-.82.69-.96,1.37-1.92,1.86-2.6,1.19,1,2.22,1.87,3.24,2.73.53-1.32,1.22-2.59,1.56-3.95.5-2.03,1.48-2.41,3.21-.84,1.27,1.15,2.73,2.03,3.16-.23.84-4.34,6.27-5.3,6.76-9.73,0-.07.14-.12.21-.19,2.26-2.17,2.46-4.08.46-6.56-1.14-1.41-2.54-2.62-3.79-3.94-1.9-2.02-4.03-3.9-5.59-6.16-3.37-4.86,1.31-8.8,1.55-9.13-.24-.2-3.16,2.01-3.98,3.43-3.91,6.85-4.63,14.54-5.59,22.16-.14,1.12-.26,2.25-.4,3.37-1.37-8.56.76-16.65,3.32-25.59-9.53,4.96-18.21,9.47-26.89,13.99,6.93-6.42,15.84-9.48,24.29-14.46-8.79-.37-19.07-6.24-21.13-12.38,4.38,4.61,8.58,8.23,14.16,9.55,5.55,1.31,11.21,1.09,15.89-1.86-.74,0-1.47-.13-2.18.05-3.95,1.02-6.91-.44-8.01-4.36-.94-3.33-1.51-6.78-2.23-10.33-.52-.85-1.06-1.65-1.83-2.29-.09-.08-.2-.16-.32-.17-.01,0-.02,0-.03,0Z"/>
      <path class="cls-3" d="m130.28,75.25c-.42.42-1.23,1.8-1.76,1.69-3.86-.73-3.79,2.33-4.42,4.48-.27.9-.57,2.19-1.72,2.06s-2.89-1.69-3.6-2.55c-.35-.43-.85-.82-1.4-.76-.53.06-.91.53-1.18.98-.77,1.29-1.63,4.09-.73,5.52.49.78,1.55,1.14,2.29,1.64,1.35.9,2.53,2.47,2.19,4.2-.3,1.53-1.6,2.42-3.11,1.82-1.14-.45-1.95-1.72-2.9-2.64-.47-.46-.9-1.31-1.39-1.34-2.4-.16-4.81-.13-7.21-.1-1.69.02-2.01,1.03-1.81,2.53.34,2.48.48,4.98.84,7.46.08.53.64,1.23,1.14,1.41,1.8.66,3.65,1.2,5.52,1.66,1.81.45,3.87.85,3.71,3.09-.04.51-2.73,1.16-4.2,1.15-2.34,0-4.15.22-5.65,2.36-.32,3.18,2.65,5.14,5.11,6.43,1.6.84,3.27,1.54,4.93,2.27,1.7.75,3.23,1.87,5.08,2.22.88.17,1.7.33,2.54.69.34.15,2.62,1.08,2.62,1.43-.01-6.24-2.29-11.14-5.77-15.44-3.36-4.14-7.1-7.98-10.89-12.19.28.31,1.61.51,2.04.72.72.36,1.42.8,2.07,1.28,1.26.92,2.26,2.3,3.28,3.5,1.59,1.87,3.13,3.79,4.65,5.71.7.88,1.39,1.77,2.14,2.58.21.23,2.02,1.9,2.01,2.04.74-9.95.47-19.84,4.13-29.16-1.28,10.44-2.53,20.87-1.63,31.94,4.87-4.37,9.63-7.48,15.41-8.88-.88,1.26-1.92,2.31-3.15,3.03-2.18,1.29-4.71,2.07-6.67,3.61-3.94,3.1-6.19,7.23-5.39,12.29.48-2.34,2.38-3.24,4.59-2.98,2.64.31,5.22,1.1,7.85,1.57,3.84.7,4.61.12,5.06-3.33,1.01-.76,2.66-1.56,2.57-2.01-.28-1.42-.49-3.23-2.66-3.47-.51-.06-1.32-1.04-1.27-1.53.05-.52.87-1.15,1.49-1.41,1.38-.59,3.92-.78,4.07-1.51.43-2.11-.03-4.43-.31-6.64-.06-.49-.82-.96-1.34-1.31-1.07-.73-2.2-1.37-3.47-2.15-.8.41-2.2,1.69-2.94,1.38-2.17-.9-3.62-.23-5.22,1.04-.34.27-1.18-.07-1.79-.13.11-.59.02-1.45.38-1.73,1.74-1.34,3.64-2.48,5.42-3.78,1.3-.95,2.71-1.89,3.67-3.14.54-.71.69-2.29.25-3.04-1.2-2.09-2.8-3.95-4.12-5.73-2.1.75-4.08,1.45-6.83,2.43,1.24-4.78,2.11-8.75-2.52-11.28Z"/>
      <path class="cls-3" d="m44.88,17.92c-2.22-1.24-1.83,1.88-2.93,2.95-1.03-.76-1.9-1.4-2.77-2.04-.35.18-.7.37-1.05.55.57,1.65.88,3.45,1.76,4.92,1.02,1.7,2.69,3.01,3.78,4.68,1.06,1.65,1.72,3.54-.1,5.78-1.07-1.74-2.04-3.13-2.81-4.63-.82-1.61-1.44-3.32-2.11-4.89-1.06-.12-2.15.07-2.83-.37-2.33-1.5-3.64-.3-4.3,1.67-.34,1,.22,2.3.39,3.57-3.18,1.89-.16,2.99.67,3.97-.53,1.18-1.47,2.46-1.2,2.83.66.87,1.89,1.31,3.06,2.03-.08.3-.23.9-.39,1.51,1.59.65,3.14,1.2,4.6,1.91,3.51,1.71,6.74,3.87,8.41,7.53.45.98.18,3.07-.55,3.64-1.42,1.11-2.93.19-3.73-1.38-.47-.93-.76-1.96-1.06-2.97q-1.15-3.89-4.82-4.05c-2.09-.86-4.18-1.71-6.42-2.63-.34,1.07-.63,1.98-.74,2.32-2.47-.59-4.63-1.11-6.89-1.65-.2,1.47-.31,2.28-.44,3.29-1.58-.19-2.97-.35-4.36-.52.1.24.2.47.31.71-1.02.72-2.05,1.44-3.36,2.36,1.43,1.14,2.94,2.34,4.53,3.6-.48.53-.96,1.06-1.47,1.62,2.29.65,4.42,1.25,7.26,2.05-1.91,1.36-3.13,2.22-4.71,3.34,3.17.64.04,1.73.34,2.61,4.17,1.37,7.13-4.29,11.48-1.4-1.68,1-3.51,1.42-5.3,1.95-1.62.47-4.46.07-2.54,3.35.17.29-.47,1.11-.8,1.64-.44.71-.95,1.38-1.88,2.71,2.04-.36,3.21-.56,4.39-.77.48.94.89,1.75,1.33,2.6.98-.2,1.77-.36,2.71-.56.47,3.22,2.62,3.43,4.72,2.41,2-.98,3.84-2.48,5.43-4.06,5.61-5.6,10.39-5.6,15.72.17.05.06-2.69-6.41-6.96-7.67-4.59-1.36-8.75-4.19-13.1-6.38.17-.32.34-.64.51-.97,2.59,1.38,5.11,2.89,7.78,4.09,2.73,1.23,5.6,2.16,8.05,3.09-.87-11.6-1.72-22.79-2.56-33.99l.85-.07c1.45,10.27.31,20.86,3.6,31.22,1.96-4.55,3.77-8.75,5.59-12.95.26.11.52.23.78.34-1.19,3.09-2.54,6.14-3.55,9.29-2.11,6.54-2.05,6.91-.12,9.68-1.07-3.53-.02-5.87,2.8-7.39,3.72-2,8.08-2.94,12.01-4.56,1.8-.74,1.89-2.65,1.74-4.47-.15-1.74-.45-3.65,1.14-4.85.31-.39.78-.85,1.43-1.46.67-.64,1.21-2.59.85-2.93-2.04-1.94-1.34-4.25-1.13-5.82-1.31-1.19-2.17-1.96-3.47-3.14-1.42-.03-3.5-.06-5.6-.1.23-1.5.53-3.41.83-5.31-.33-.25-.66-.49-.99-.74-.98.75-1.94,1.52-2.94,2.24-.59.42-1.53,1.24-1.82,1.07-3.29-2.02-2.96.92-3.57,2.52-.57,1.5-1.07,3.02-1.6,4.54-.34-.07-.69-.15-1.03-.22-.03-.88-.28-1.83-.05-2.64.76-2.65,1.78-5.22,2.51-7.88.33-1.2.18-2.52.25-3.79-1.1-.02-2.19-.04-3.47-.06l.05-2.75c-1.53-.4-2.91-.56-4.09-1.13-1.03-.5-2.03-2.24-2.7-2.07-1.12.28-1.97,1.65-3.3,2.9Z"/>
      <path class="cls-3" d="m77.78,54.68c-.81.35-1.81.36-2.88-.03-.57-.21-1.09-.56-1.69-.67-.79-.14-1.6.19-2.28.62-.33.21-.66.46-.86.8s-.23.8,0,1.12c.4.54,1.16.03,1.68.3.69.35,1.08,1.62,1.28,2.29-1.18.23-2.16.42-2.57.5-.47,1.37-.52,2.58-1.15,3.2-2.24,2.18-2.11,3.07.73,4.55,1.46.76,2.76,1.84,4.13,2.77-.18.36-.36.73-.55,1.09-1.44-.2-2.88-.39-5.08-.69,1.5,1.5,2.46,2.46,3.62,3.62-3.24,1.37-2.61,3.11-.76,4.82-.49.96-.9,1.77-1.5,2.94,3.6,1.49,9.04-.66,9.69,5.22,2.29-3.36,2.36-6.74,1.34-10.35-1.11-3.92-1.92-7.93-2.86-11.9.19-.06.37-.11.56-.17,1.43,4.75,2.85,9.5,4.45,14.83,5.43-9.74,13.79-17.33,13.71-29.03.67,6.23-1.36,11.69-4.5,16.82-2.21,3.6-4.47,7.17-6.67,10.77-.45.73-.74,1.56-1.42,3.03,2.06-.83,3.35-1.23,4.51-1.86,1.26-.68,2.44-1.53,3.6-2.37.97-.71,1.88-1.51,2.81-2.28.21.32.42.64.63.96-2.83,1.9-5.46,4.33-8.56,5.55-3.57,1.4-5.33,3.6-5.88,7.17,3.09-2.03,4.25-2.23,7.21-.84,1.55.73,2.92,1.84,4.45,2.61,1.19.6,2.5.94,3.76,1.4.02-1.32.03-2.64.07-3.96,0-.17.11-.34.08-.25,1.65-1,3.1-1.89,5.19-3.16-3.01-.85-5.41-1.52-7.81-2.2.08-.41.15-.81.23-1.22,1.21.1,2.58-.13,3.61.36,3.05,1.45,4.86-1.31,7.31-1.83-.16-.66-.12-1.69-.51-1.91-1.61-.86-3.35-1.46-5.72-2.43,3.22-2.03,7.09-2.81,7.15-7.32-2.48.57-4.75,1.15-7.05,1.58-.85.16-1.77-.02-2.65-.04.41-.86.64-1.88,1.26-2.55,1.68-1.82,3.52-3.48,5.33-5.24q-1.88-1.57-.37-4.5c-.97-1.62-2.62-3.13-2.47-4.45.17-1.5,1.94-2.81,2.83-3.96-1.24-.75-3.31-1.88-3.25-2,1.2-2.52-1.14-4.14-1.43-6.22-.48-3.35-3.14-.81-4.55-1.65-.51.88-1.27,1.71-1.47,2.66-.23,1.09.03,2.28.08,3.43-.25.09-.5.18-.75.28-.78-.83-1.56-1.67-2.32-2.48-1.05,1.21-2.66,2.23-2.77,3.4-.12,1.3,1.29,2.68,1.7,4.12.34,1.17.19,2.48.26,3.73-.37.12-.73.24-1.1.36-.45-1.87-5.87-8.3-7.47-5.16-.44.87-.3,2.2-.45,3.15-.2,1.31-.9,2.23-1.89,2.66Z"/>
      <path class="cls-3" d="m63.19,120.99c-1.42,1.48-2.26,3.14-3.33,3.29-1.82.27-4.1-2.79-4.07-4.84.01-.96.37-1.94.23-2.85-.11-.7-.77-1.32-1.18-1.98-.51.6-1.4,1.17-1.47,1.82-.17,1.6,0,3.25.1,4.87.13,2.44-.75,4.23-3.51,5.4-.38-.9-.74-1.77-1.17-2.8-.91.91-1.54,1.54-2.17,2.17-.04-.22-.08-.45-.12-.67-1.71-.03-3.41-.07-5.32-.1,0-.76,0-1.77,0-2.63-1.22-.33-2.34-.64-4.14-1.12,2.08-1.56,3.42-2.57,5.04-3.79-2.72-2.19-1.15-3.28.77-4.59,1.49-1.02,2.67-2.49,3.99-3.77-.18-.36-.37-.72-.55-1.09-1.36.3-3.07.19-4.02.98-2.17,1.81-3.93,4.12-5.96,6.11-.61.59-1.61,1.2-2.36,1.13-1.19-.12-2.33-.8-3.63-.79-.78-.98-1.56-1.95-2.69-3.36,2.74-1.87,5.75-3.92,8.77-5.97-.15-.3-.31-.61-.46-.91-4-.99-6.45,3.69-10.53,3.3l.6-3.29c-2.05.54-3.77,1-5.5,1.45-.11-.23-.22-.46-.32-.69.5-.6.99-1.21,1.55-1.88-1.27-.51-2.45-.99-3.97-1.61.98-.76,1.64-1.27,2.42-1.87-.32-.81-.64-1.65-.71-1.81,1.73-1.89,2.99-3.62,4.62-4.87.81-.62,2.32-.52,3.49-.45,1.99.11,3.96.44,6.46.74-2.24-3.01-3.95-5.3-5.63-7.55,1.83-.95,3.37-2.11,5.08-2.49.95-.21,2.24.78,3.29,1.38,1.25.71,2.41,1.58,3.62,2.38.23-.23.47-.46.7-.69-.87-1.52-1.73-3.03-2.33-4.09.29-1.6.51-2.82.82-4.5.27-.05,1.16-.22,2.14-.41.25-.75.51-1.54.94-2.85.83.68,1.35,1.29,2.01,1.61.75.37,1.86.93,2.4.64,2.17-1.17,3.1.12,3.74,1.71.53,1.31.68,2.77,1,4.16.22.97.44,1.95.7,3.09,2.43-2.01,2.44-2.19.55-9.59.97-.41,1.98-.85,2.92-1.25,2.1,1.53,4.07,2.97,6.05,4.41l-.31,1.03c1.58-.69,3.17-1.37,5.58-2.42-.07,2.78,0,5.03-.24,7.25-.15,1.39-.93,2.7-1.19,4.09-.92,4.87-.03,6.17,4.66,7.16-.06.26-4.52.33-6.18-.71-5.09-3.23-9.93-6.85-14.85-10.35-.9-.64-1.71-1.39-2.56-2.09-.19.24-.38.47-.57.71,5.56,4.43,11.11,8.86,17.28,13.78-11.58,1.19-22.75,2.33-33.92,3.47,0,.12,0,.23,0,.35,3.6-.14,7.21-.21,10.81-.42,3.64-.21,7.27-.52,10.91-.85,3.72-.34,7.43-.75,11.42-1.16-4.16,4.06-8.12,7.93-12.09,11.8.22.25.44.49.66.74.82-.78,1.6-1.61,2.46-2.34,3.8-3.22,7.57-6.48,11.48-9.57,1.03-.82,2.52-1.07,4.14-1.72-1.03,1.6-2.21,2.68-2.36,3.89-.16,1.3.51,2.77,1.06,4.08.7,1.68,1.81,3.2,2.4,4.9.54,1.57,1.69,3.45-1.04,4.56-.58.24-.63,1.8-.96,2.87l-2.64-.48c-.38.71-.77,1.46-1.19,2.26l-1.63-.3Z"/>
    </g>
    <g>
      <path class="cls-4" d="m124.9,138.1c-2.72-.11-5.63.29-7.71,2.04-1.82,1.53-2.74,3.86-3.39,6.14-1.23,4.29-1.78,8.76-1.96,13.22-.07,1.91-.08,3.83-.54,5.69s-1.43,3.66-3.03,4.7c-.61-4.21-1.22-8.42-1.83-12.63-.18-1.22-.39-2.52-1.24-3.42-1.26-1.34-3.4-1.25-5.21-.93-4.61.82-9.07,2.51-13.06,4.96-1.04.64-2.55,1.28-3.33.34-.77-.93.1-2.29.95-3.14,2.91-2.9,6.07-5.55,9.43-7.91,1.54-1.08,3.32-2.52,3.05-4.38-.27-1.88-2.41-2.74-4.06-3.67-3.5-1.98-5.85-5.87-5.96-9.9-.04-1.48.56-3.34,2.04-3.48,1.08-.1,1.95.8,2.69,1.59,3.86,4.14,8.73,7.3,14.05,9.23,2.63.95,5.45,1.68,8.24,1.91,2.51.21,4.56-1.48,6.9-2.06,2.69-.67,5.48-.99,8.26-.86,1.02.04,2.07.16,2.97.65.72.39,1.35,1.09,1.5,1.9.28,1.45-2.26.53-2.94.5-1.95-.1-3.88-.4-5.83-.48Z"/>
      <path class="cls-4" d="m125.89,130.28c-.87-2.68-.72-4.9-.73-7.32,0-1.1-4.16-11.21-6.94-14.38-1.8-2.05-3.72-4-5.47-6.1-.82-.99-1.37-1.81-2.41-2.43-.93-.56-1.73-.95-2.25-1.98-.91-1.82.26-2.97.3-4.68,1.7-.33,3.57.61,4.87,1.63,1.39,1.1,2.47,2.52,3.59,3.89,1.36,1.67,2.79,3.28,4.28,4.83.26.27.54.55.9.64.59.15,1.2-.27,1.48-.81s.3-1.17.33-1.78c.3-6.27,1.47-12.5,3.46-18.46.35-1.04,1.12-2.31,2.19-2.03,1.06.28,1.12,1.74.97,2.83-.87,6.36-.92,12.83-.14,19.2.07.54.16,1.14.58,1.5.74.63,1.84.11,2.7-.33,1.81-.93,3.83-1.43,5.86-1.45,1.14-.01,2.32.13,3.29.72s1.69,1.7,1.55,2.83c-.13,1.08-.99,1.93-1.94,2.46s-2.01.81-2.99,1.27c-3.98,1.88-5.93,6.38-9.16,9.37-.85.79-1.82,1.5-2.35,2.53-.43.84-.52,1.82-.52,2.76-.02,3.68,1.16,7.05,3.04,10.16-3.43-1.03-3.46-1.68-4.5-4.87Z"/>
      <path class="cls-4" d="m81.45,93.95c-.79-2.65-.74-5.77,1.03-7.89.97-1.16,2.33-1.91,3.67-2.62,3.22-1.73,6.5-3.49,9.06-6.1,1.13-1.15,2.16-2.85,1.44-4.29-.3-.6-.85-1.04-1.23-1.59-.68-1.01-.72-2.33-.43-3.51s.87-2.26,1.36-3.37c1.85-4.22,2.35-9.02,1.42-13.54-.23-1.09-.82-2.41-1.94-2.39-.73,3.15-1.47,6.32-2.89,9.23s-3.58,5.55-6.5,6.94c-.93.44-2.02.75-2.98.37-1.23-.48-1.9-1.94-3.16-2.31-1.12-.33-2.36.39-2.95,1.4s-.66,2.24-.57,3.41c.29,4.08,2.21,7.9,2.64,11.97.28,2.64,1.04,4.97.16,7.48-.89,2.52-.8,5.82-.06,8.36.39,1.35,2.33,5.73,4.25,5.44,1.3-.19-.3-2.26-.64-2.94-.65-1.31-1.28-2.65-1.7-4.06Z"/>
      <path class="cls-4" d="m79.34,98.44c1.6.15,3.24.32,4.69,1,1.46.68,2.72,1.99,2.9,3.59-3.44-1.68-7.13-2.87-10.91-3.52-2.39-.41-4.93-1.04-7.15-.05-1.74.77-3.11,2.63-4.47,3.95-3.65,3.54-7.66,6.72-11.93,9.49-.88.57-2.13,1.1-2.89.38-.75-.7-.35-1.94.1-2.86.89-1.83,1.78-3.67,2.68-5.5-6.95-.61-13.93-.97-20.91-1.06-.75-.01-1.56-.04-2.16-.49s-.77-1.52-.13-1.92c6.67-2.09,13.65-3.17,20.64-3.18.09-1.92-1.06-3.67-2.3-5.16-1.23-1.48-2.62-2.93-3.17-4.78s.14-4.24,1.98-4.82c1.1-.35,2.31.04,3.28.67s1.75,1.5,2.63,2.24c2.21,1.88,4.95,2.98,7.5,4.37,1.79.97,3.37,2.13,4.77,3.61.88.93,1.34,1.68,2.53,2.23,1.55.72,3.84.99,5.5,1.15,2.27.22,4.54.44,6.82.66Z"/>
      <path class="cls-4" d="m99.53,110.19c-11.64-9.38-22.54-19.58-32.95-30.49-5.88-6.15-13.09-16.23-9.33-21.66,2.26-3.26,6.37-9.41,7.4-13.24s-.64-5.27-4.49-6.2c-1.91-.46-4.35,1.53-5.79.18-2.47-2.33.85-12.47-1.86-14.51-1.38-1.04-3.53-.37-4.55,1.03-1.02,1.4-1.16,3.26-1.02,4.98.34,4.17,2.07,8.08,3.06,12.14,1,4.06,1.21,12.87-1.25,16.25-4.23-1.07-8.06-3.65-12.29-4.72-.41,1.47-.83,1.41-1.24,2.88,3.92,1.57,7.38,3.74,11.23,5.48,5.08,2.3,7.91,5.14,10.7,9.63,8.85,14.2,20.62,26.37,33.25,37.23,12.43,10.69,26.88,18.1,39.49,28.57,12.24,10.17,21.7,23.42,27.64,38.29,3.34,8.35,5.59,17.25,7.6,26,.63,2.72,1.87,7.44,5.55,7.19,4.4-.3,3.53-5.05,2.46-7.8-8.48-21.83-17.89-46.86-35.65-63.16-11.57-10.63-25.75-18.19-37.98-28.05Z"/>
      <path class="cls-1" d="m88.82,104.04c.08.05.16.1.23.15-.06-.07-.11-.13-.16-.2l-.07.05Z"/>
      <path class="cls-1" d="m103.7,120.29c-.11,0-.23.04-.33.08-.89.37-1.79.74-2.68,1.11-.07.03-.15.06-.23.04-.1-.02-.16-.11-.21-.2-.27-.52-.3-1.24-.83-1.48-.18-.08-.38-.09-.58-.09-2.16-.03-4.43.47-6.11,1.95-.9.79-1.41,2-2.25,2.87-.28.29-1.09.25-1.6.12-3.06-.78-5.33.71-5.8,3.55-1.35.86-2.92,1.35-3.5,2.38-.62,1.1-.7,2.88-.26,4.09.39,1.08,1.8,1.8,2.93,2.83-.29.46-.77,1.22-1.42,2.26,4.46,1.03,9.09.09,13.84,2.66-1.59.72-2.54,1.56-3.35,1.44-1.66-.24-3.33-.82-4.83-1.57-2.81-1.41-3.9-1.21-5.65,1.38-.33.49-1.01,1.08-1.5,1.06-4.01-.24-4.55,4.11-6.97,4.78.68,1.69,1.19,2.93,1.94,4.8,3.37-1.23,7.11-2.59,10.84-3.95.15.36.3.73.45,1.09-3.09,4.23-9.46,3.72-12.9,7.94,1.13.82,1.84,1.33,2.7,1.95-.53.5-.96.76-1.19,1.15-.53.9-.97,1.85-1.45,2.78,1.12.26,2.24.69,3.37.73,1.07.04,2.15-.33,3.23-.53.26,1.46.45,2.52.64,3.59.26.11.53.23.79.34,2.65-3.61,5.31-7.23,7.96-10.84.32.2.63.4.95.61-.3,4.56-5.33,8.16-2.6,12.89.92.71,1.84,1.43,2.94,2.28.53-.83,1.12-1.76,1.7-2.67q2.97,1.43,4.7-2.96c.58.15,1.16.3,1.96.51.02-2.14-.24-4.09.12-5.92.47-2.38,1.3-4.72,2.27-6.94.25-.58,1.6-.68,2.44-1,.19.78.69,1.64.51,2.32-.56,2.22-1.36,4.38-2.08,6.55-.27.81-1.03,1.76-.81,2.39.76,2.2.39,4.02-.92,5.88-.23.32.56,1.93.78,1.91,2.91-.29,3.3,1.73,3.66,3.79.13.77.13,1.57.19,2.35.48-.28.96-.55,1.43-.82.69-.96,1.37-1.92,1.86-2.6,1.19,1,2.22,1.87,3.24,2.73.53-1.32,1.22-2.59,1.56-3.95.5-2.03,1.48-2.41,3.21-.84,1.27,1.15,2.73,2.03,3.16-.23.84-4.34,6.27-5.3,6.76-9.73,0-.07.14-.12.21-.19,2.26-2.17,2.46-4.08.46-6.56-1.14-1.41-2.54-2.62-3.79-3.94-1.9-2.02-4.03-3.9-5.59-6.16-3.37-4.86,1.31-8.8,1.55-9.13-.24-.2-3.16,2.01-3.98,3.43-3.91,6.85-4.63,14.54-5.59,22.16-.14,1.12-.26,2.25-.4,3.37-1.37-8.56.76-16.65,3.32-25.59-9.53,4.96-18.21,9.47-26.89,13.99,6.93-6.42,15.84-9.48,24.29-14.46-8.79-.37-19.07-6.24-21.13-12.38,4.38,4.61,8.58,8.23,14.16,9.55,5.55,1.31,11.21,1.09,15.89-1.86-.74,0-1.47-.13-2.18.05-3.95,1.02-6.91-.44-8.01-4.36-.94-3.33-1.51-6.78-2.23-10.33-.52-.85-1.06-1.65-1.83-2.29-.09-.08-.2-.16-.32-.17-.01,0-.02,0-.03,0Z"/>
      <path class="cls-1" d="m130.28,75.25c-.42.42-1.23,1.8-1.76,1.69-3.86-.73-3.79,2.33-4.42,4.48-.27.9-.57,2.19-1.72,2.06s-2.89-1.69-3.6-2.55c-.35-.43-.85-.82-1.4-.76-.53.06-.91.53-1.18.98-.77,1.29-1.63,4.09-.73,5.52.49.78,1.55,1.14,2.29,1.64,1.35.9,2.53,2.47,2.19,4.2-.3,1.53-1.6,2.42-3.11,1.82-1.14-.45-1.95-1.72-2.9-2.64-.47-.46-.9-1.31-1.39-1.34-2.4-.16-4.81-.13-7.21-.1-1.69.02-2.01,1.03-1.81,2.53.34,2.48.48,4.98.84,7.46.08.53.64,1.23,1.14,1.41,1.8.66,3.65,1.2,5.52,1.66,1.81.45,3.87.85,3.71,3.09-.04.51-2.73,1.16-4.2,1.15-2.34,0-4.15.22-5.65,2.36-.32,3.18,2.65,5.14,5.11,6.43,1.6.84,3.27,1.54,4.93,2.27,1.7.75,3.23,1.87,5.08,2.22.88.17,1.7.33,2.54.69.34.15,2.62,1.08,2.62,1.43-.01-6.24-2.29-11.14-5.77-15.44-3.36-4.14-7.1-7.98-10.89-12.19.28.31,1.61.51,2.04.72.72.36,1.42.8,2.07,1.28,1.26.92,2.26,2.3,3.28,3.5,1.59,1.87,3.13,3.79,4.65,5.71.7.88,1.39,1.77,2.14,2.58.21.23,2.02,1.9,2.01,2.04.74-9.95.47-19.84,4.13-29.16-1.28,10.44-2.53,20.87-1.63,31.94,4.87-4.37,9.63-7.48,15.41-8.88-.88,1.26-1.92,2.31-3.15,3.03-2.18,1.29-4.71,2.07-6.67,3.61-3.94,3.1-6.19,7.23-5.39,12.29.48-2.34,2.38-3.24,4.59-2.98,2.64.31,5.22,1.1,7.85,1.57,3.84.7,4.61.12,5.06-3.33,1.01-.76,2.66-1.56,2.57-2.01-.28-1.42-.49-3.23-2.66-3.47-.51-.06-1.32-1.04-1.27-1.53.05-.52.87-1.15,1.49-1.41,1.38-.59,3.92-.78,4.07-1.51.43-2.11-.03-4.43-.31-6.64-.06-.49-.82-.96-1.34-1.31-1.07-.73-2.2-1.37-3.47-2.15-.8.41-2.2,1.69-2.94,1.38-2.17-.9-3.62-.23-5.22,1.04-.34.27-1.18-.07-1.79-.13.11-.59.02-1.45.38-1.73,1.74-1.34,3.64-2.48,5.42-3.78,1.3-.95,2.71-1.89,3.67-3.14.54-.71.69-2.29.25-3.04-1.2-2.09-2.8-3.95-4.12-5.73-2.1.75-4.08,1.45-6.83,2.43,1.24-4.78,2.11-8.75-2.52-11.28Z"/>
      <path class="cls-1" d="m44.88,17.92c-2.22-1.24-1.83,1.88-2.93,2.95-1.03-.76-1.9-1.4-2.77-2.04-.35.18-.7.37-1.05.55.57,1.65.88,3.45,1.76,4.92,1.02,1.7,2.69,3.01,3.78,4.68,1.06,1.65,1.72,3.54-.1,5.78-1.07-1.74-2.04-3.13-2.81-4.63-.82-1.61-1.44-3.32-2.11-4.89-1.06-.12-2.15.07-2.83-.37-2.33-1.5-3.64-.3-4.3,1.67-.34,1,.22,2.3.39,3.57-3.18,1.89-.16,2.99.67,3.97-.53,1.18-1.47,2.46-1.2,2.83.66.87,1.89,1.31,3.06,2.03-.08.3-.23.9-.39,1.51,1.59.65,3.14,1.2,4.6,1.91,3.51,1.71,6.74,3.87,8.41,7.53.45.98.18,3.07-.55,3.64-1.42,1.11-2.93.19-3.73-1.38-.47-.93-.76-1.96-1.06-2.97q-1.15-3.89-4.82-4.05c-2.09-.86-4.18-1.71-6.42-2.63-.34,1.07-.63,1.98-.74,2.32-2.47-.59-4.63-1.11-6.89-1.65-.2,1.47-.31,2.28-.44,3.29-1.58-.19-2.97-.35-4.36-.52.1.24.2.47.31.71-1.02.72-2.05,1.44-3.36,2.36,1.43,1.14,2.94,2.34,4.53,3.6-.48.53-.96,1.06-1.47,1.62,2.29.65,4.42,1.25,7.26,2.05-1.91,1.36-3.13,2.22-4.71,3.34,3.17.64.04,1.73.34,2.61,4.17,1.37,7.13-4.29,11.48-1.4-1.68,1-3.51,1.42-5.3,1.95-1.62.47-4.46.07-2.54,3.35.17.29-.47,1.11-.8,1.64-.44.71-.95,1.38-1.88,2.71,2.04-.36,3.21-.56,4.39-.77.48.94.89,1.75,1.33,2.6.98-.2,1.77-.36,2.71-.56.47,3.22,2.62,3.43,4.72,2.41,2-.98,3.84-2.48,5.43-4.06,5.61-5.6,10.39-5.6,15.72.17.05.06-2.69-6.41-6.96-7.67-4.59-1.36-8.75-4.19-13.1-6.38.17-.32.34-.64.51-.97,2.59,1.38,5.11,2.89,7.78,4.09,2.73,1.23,5.6,2.16,8.05,3.09-.87-11.6-1.72-22.79-2.56-33.99l.85-.07c1.45,10.27.31,20.86,3.6,31.22,1.96-4.55,3.77-8.75,5.59-12.95.26.11.52.23.78.34-1.19,3.09-2.54,6.14-3.55,9.29-2.11,6.54-2.05,6.91-.12,9.68-1.07-3.53-.02-5.87,2.8-7.39,3.72-2,8.08-2.94,12.01-4.56,1.8-.74,1.89-2.65,1.74-4.47-.15-1.74-.45-3.65,1.14-4.85.31-.39.78-.85,1.43-1.46.67-.64,1.21-2.59.85-2.93-2.04-1.94-1.34-4.25-1.13-5.82-1.31-1.19-2.17-1.96-3.47-3.14-1.42-.03-3.5-.06-5.6-.1.23-1.5.53-3.41.83-5.31-.33-.25-.66-.49-.99-.74-.98.75-1.94,1.52-2.94,2.24-.59.42-1.53,1.24-1.82,1.07-3.29-2.02-2.96.92-3.57,2.52-.57,1.5-1.07,3.02-1.6,4.54-.34-.07-.69-.15-1.03-.22-.03-.88-.28-1.83-.05-2.64.76-2.65,1.78-5.22,2.51-7.88.33-1.2.18-2.52.25-3.79-1.1-.02-2.19-.04-3.47-.06l.05-2.75c-1.53-.4-2.91-.56-4.09-1.13-1.03-.5-2.03-2.24-2.7-2.07-1.12.28-1.97,1.65-3.3,2.9Z"/>
      <path class="cls-1" d="m77.78,54.68c-.81.35-1.81.36-2.88-.03-.57-.21-1.09-.56-1.69-.67-.79-.14-1.6.19-2.28.62-.33.21-.66.46-.86.8s-.23.8,0,1.12c.4.54,1.16.03,1.68.3.69.35,1.08,1.62,1.28,2.29-1.18.23-2.16.42-2.57.5-.47,1.37-.52,2.58-1.15,3.2-2.24,2.18-2.11,3.07.73,4.55,1.46.76,2.76,1.84,4.13,2.77-.18.36-.36.73-.55,1.09-1.44-.2-2.88-.39-5.08-.69,1.5,1.5,2.46,2.46,3.62,3.62-3.24,1.37-2.61,3.11-.76,4.82-.49.96-.9,1.77-1.5,2.94,3.6,1.49,9.04-.66,9.69,5.22,2.29-3.36,2.36-6.74,1.34-10.35-1.11-3.92-1.92-7.93-2.86-11.9.19-.06.37-.11.56-.17,1.43,4.75,2.85,9.5,4.45,14.83,5.43-9.74,13.79-17.33,13.71-29.03.67,6.23-1.36,11.69-4.5,16.82-2.21,3.6-4.47,7.17-6.67,10.77-.45.73-.74,1.56-1.42,3.03,2.06-.83,3.35-1.23,4.51-1.86,1.26-.68,2.44-1.53,3.6-2.37.97-.71,1.88-1.51,2.81-2.28.21.32.42.64.63.96-2.83,1.9-5.46,4.33-8.56,5.55-3.57,1.4-5.33,3.6-5.88,7.17,3.09-2.03,4.25-2.23,7.21-.84,1.55.73,2.92,1.84,4.45,2.61,1.19.6,2.5.94,3.76,1.4.02-1.32.03-2.64.07-3.96,0-.17.11-.34.08-.25,1.65-1,3.1-1.89,5.19-3.16-3.01-.85-5.41-1.52-7.81-2.2.08-.41.15-.81.23-1.22,1.21.1,2.58-.13,3.61.36,3.05,1.45,4.86-1.31,7.31-1.83-.16-.66-.12-1.69-.51-1.91-1.61-.86-3.35-1.46-5.72-2.43,3.22-2.03,7.09-2.81,7.15-7.32-2.48.57-4.75,1.15-7.05,1.58-.85.16-1.77-.02-2.65-.04.41-.86.64-1.88,1.26-2.55,1.68-1.82,3.52-3.48,5.33-5.24q-1.88-1.57-.37-4.5c-.97-1.62-2.62-3.13-2.47-4.45.17-1.5,1.94-2.81,2.83-3.96-1.24-.75-3.31-1.88-3.25-2,1.2-2.52-1.14-4.14-1.43-6.22-.48-3.35-3.14-.81-4.55-1.65-.51.88-1.27,1.71-1.47,2.66-.23,1.09.03,2.28.08,3.43-.25.09-.5.18-.75.28-.78-.83-1.56-1.67-2.32-2.48-1.05,1.21-2.66,2.23-2.77,3.4-.12,1.3,1.29,2.68,1.7,4.12.34,1.17.19,2.48.26,3.73-.37.12-.73.24-1.1.36-.45-1.87-5.87-8.3-7.47-5.16-.44.87-.3,2.2-.45,3.15-.2,1.31-.9,2.23-1.89,2.66Z"/>
      <path class="cls-1" d="m63.19,120.99c-1.42,1.48-2.26,3.14-3.33,3.29-1.82.27-4.1-2.79-4.07-4.84.01-.96.37-1.94.23-2.85-.11-.7-.77-1.32-1.18-1.98-.51.6-1.4,1.17-1.47,1.82-.17,1.6,0,3.25.1,4.87.13,2.44-.75,4.23-3.51,5.4-.38-.9-.74-1.77-1.17-2.8-.91.91-1.54,1.54-2.17,2.17-.04-.22-.08-.45-.12-.67-1.71-.03-3.41-.07-5.32-.1,0-.76,0-1.77,0-2.63-1.22-.33-2.34-.64-4.14-1.12,2.08-1.56,3.42-2.57,5.04-3.79-2.72-2.19-1.15-3.28.77-4.59,1.49-1.02,2.67-2.49,3.99-3.77-.18-.36-.37-.72-.55-1.09-1.36.3-3.07.19-4.02.98-2.17,1.81-3.93,4.12-5.96,6.11-.61.59-1.61,1.2-2.36,1.13-1.19-.12-2.33-.8-3.63-.79-.78-.98-1.56-1.95-2.69-3.36,2.74-1.87,5.75-3.92,8.77-5.97-.15-.3-.31-.61-.46-.91-4-.99-6.45,3.69-10.53,3.3l.6-3.29c-2.05.54-3.77,1-5.5,1.45-.11-.23-.22-.46-.32-.69.5-.6.99-1.21,1.55-1.88-1.27-.51-2.45-.99-3.97-1.61.98-.76,1.64-1.27,2.42-1.87-.32-.81-.64-1.65-.71-1.81,1.73-1.89,2.99-3.62,4.62-4.87.81-.62,2.32-.52,3.49-.45,1.99.11,3.96.44,6.46.74-2.24-3.01-3.95-5.3-5.63-7.55,1.83-.95,3.37-2.11,5.08-2.49.95-.21,2.24.78,3.29,1.38,1.25.71,2.41,1.58,3.62,2.38.23-.23.47-.46.7-.69-.87-1.52-1.73-3.03-2.33-4.09.29-1.6.51-2.82.82-4.5.27-.05,1.16-.22,2.14-.41.25-.75.51-1.54.94-2.85.83.68,1.35,1.29,2.01,1.61.75.37,1.86.93,2.4.64,2.17-1.17,3.1.12,3.74,1.71.53,1.31.68,2.77,1,4.16.22.97.44,1.95.7,3.09,2.43-2.01,2.44-2.19.55-9.59.97-.41,1.98-.85,2.92-1.25,2.1,1.53,4.07,2.97,6.05,4.41l-.31,1.03c1.58-.69,3.17-1.37,5.58-2.42-.07,2.78,0,5.03-.24,7.25-.15,1.39-.93,2.7-1.19,4.09-.92,4.87-.03,6.17,4.66,7.16-.06.26-4.52.33-6.18-.71-5.09-3.23-9.93-6.85-14.85-10.35-.9-.64-1.71-1.39-2.56-2.09-.19.24-.38.47-.57.71,5.56,4.43,11.11,8.86,17.28,13.78-11.58,1.19-22.75,2.33-33.92,3.47,0,.12,0,.23,0,.35,3.6-.14,7.21-.21,10.81-.42,3.64-.21,7.27-.52,10.91-.85,3.72-.34,7.43-.75,11.42-1.16-4.16,4.06-8.12,7.93-12.09,11.8.22.25.44.49.66.74.82-.78,1.6-1.61,2.46-2.34,3.8-3.22,7.57-6.48,11.48-9.57,1.03-.82,2.52-1.07,4.14-1.72-1.03,1.6-2.21,2.68-2.36,3.89-.16,1.3.51,2.77,1.06,4.08.7,1.68,1.81,3.2,2.4,4.9.54,1.57,1.69,3.45-1.04,4.56-.58.24-.63,1.8-.96,2.87l-2.64-.48c-.38.71-.77,1.46-1.19,2.26l-1.63-.3Z"/>
    </g>
  </g>
</svg>