<?xml version="1.0" encoding="UTF-8"?>
<svg xmlns="http://www.w3.org/2000/svg" viewBox="0 0 206.55 120.91">
  <defs>
    <style>
      .cls-1 {
        isolation: isolate;
      }

      .cls-2 {
        fill: #fff;
      }

      .cls-2, .cls-3, .cls-4, .cls-5, .cls-6, .cls-7 {
        stroke-width: 0px;
      }

      .cls-3 {
        fill: #eab520;
      }

      .cls-4 {
        fill: #e64228;
        mix-blend-mode: multiply;
        opacity: .4;
      }

      .cls-5 {
        fill: #33a46e;
      }

      .cls-6 {
        fill: #da9767;
      }

      .cls-7 {
        fill: #cd7534;
      }
    </style>
  </defs>
  <g class="cls-1">
    <g id="Layer_2" data-name="Layer 2">
      <g id="Blancos">
        <path class="cls-2" d="m206.54,68.39c.2-7.34-1.82-13.41-6-18.03-.03-.03-.06-.06-.09-.09-3.82-4.16-8.47-5.92-11-6.87-2.86-1.07-5.75-2.14-8.67-3.18,1.86-4.07,3.44-9.11,3.36-14.82-.15-11.14-7.18-21.12-17.09-24.28-.33-.1-.66-.2-.99-.29-7.27-1.96-15.19-.34-21.74,4.45-5.91,4.32-11.23,11.11-14.99,18.69-.54-.15-1.09-.3-1.63-.44-8.41-2.27-16.99-4.41-25.5-6.35-1.69-.39-3.37-.79-5.04-1.19-4.68-1.12-9.52-2.28-14.71-3.12-2.73-.44-5.46-.87-8.18-1.31-3.72-.59-7.45-1.19-11.18-1.79-.12-.02-.48-.07-.48-.07-4.34-.7-12.22-1.91-20.06,1.59-9.72,4.36-13.77,13.12-16.45,18.91-.86,1.86-1.67,3.61-2.39,4.68-1.13,1.68-3.53,3.62-6.07,5.68-1.36,1.1-2.76,2.24-4.21,3.51C2.07,54.03-.14,63.97,0,70.58c.22,9.32,5.41,18.45,13.88,24.43,5.87,4.14,12.01,6.15,18.31,8.01,3.61,1.06,7.36,2.12,11.16,3.14.91.25,1.82.49,2.72.73,16.18,4.29,32.58,7.82,48.75,10.49,16.38,2.69,35.77,5.07,55.41,2.3,14.29-2,26.28-6.57,35.63-13.57,12.56-9.39,20.29-23.49,20.67-37.73Z"/>
      </g>
      <g id="Layer_1-2" data-name="Layer 1">
        <g>
          <path class="cls-5" d="m191.54,67.98c.07-2.69-.33-5.57-2.14-7.57-1.37-1.49-3.34-2.27-5.23-2.98-15.99-6.01-32.2-11.39-48.6-16.15-12.14-3.52-24.38-6.69-36.7-9.5-6.31-1.44-12.42-3.08-18.82-4.12-6.46-1.04-12.93-2.05-19.39-3.11-.09-.01-.17-.02-.27-.04-3.92-.64-8.09-1.18-11.71.44-6.87,3.09-8.33,12.03-12.54,18.28-3.28,4.87-8.39,8.17-12.81,12.06-4.42,3.89-8.46,9.05-8.33,14.93.12,5.06,3.4,9.61,7.53,12.53,4.13,2.91,9.05,4.45,13.9,5.88,4.48,1.32,8.98,2.57,13.49,3.76,15.61,4.14,31.42,7.56,47.34,10.19,16.82,2.76,34.02,4.63,50.9,2.25,10.23-1.43,20.45-4.53,28.73-10.73,8.28-6.19,14.38-15.78,14.66-26.12Z"/>
          <path class="cls-5" d="m65.42,83.71c-3.91,4.65-9.51,8.01-15.51,8.68-4.51-1.19-9.01-2.44-13.49-3.76-4.84-1.43-9.77-2.96-13.9-5.88-4.13-2.91-7.41-7.47-7.53-12.53-.13-5.88,3.91-11.04,8.33-14.93,4.42-3.89,9.52-7.19,12.81-12.06,4.21-6.25,5.67-15.2,12.54-18.28,3.63-1.62,7.79-1.07,11.71-.44,3.31,1.35,6.14,4.06,7.99,7.18,2.62,4.42,3.6,9.62,4.26,14.73.83,6.47,1.23,13.04.28,19.5-.95,6.45-3.31,12.8-7.51,17.79Z"/>
          <path class="cls-5" d="m153.17,17.37c2.66-1.95,6.18-2.97,9.33-1.97,4.13,1.31,6.59,5.86,6.65,10.19.06,4.33-1.82,8.45-4.02,12.19-3.39,5.74-18.21,28.58-24.68,16.17-5.78-11.1,3.75-30.01,12.73-36.57Z"/>
          <path class="cls-5" d="m65.42,83.71c-3.91,4.65-9.51,8.01-15.51,8.68-4.51-1.19-9.01-2.44-13.49-3.76-4.84-1.43-9.77-2.96-13.9-5.88-4.13-2.91-7.41-7.47-7.53-12.53-.13-5.88,3.91-11.04,8.33-14.93,4.42-3.89,9.52-7.19,12.81-12.06,4.21-6.25,5.67-15.2,12.54-18.28,3.63-1.62,7.79-1.07,11.71-.44,3.31,1.35,6.14,4.06,7.99,7.18,2.62,4.42,3.6,9.62,4.26,14.73.83,6.47,1.23,13.04.28,19.5-.95,6.45-3.31,12.8-7.51,17.79Z"/>
          <g>
            <path class="cls-5" d="m87.28,34.26c6.06,6.37,6.98,17.92,6.79,26.26-.26,11.8-3.67,27.83-15.09,33.75"/>
            <path class="cls-5" d="m87.28,34.26c6.36,5.81,7.66,15.2,7.94,23.4.13,11.09-1.83,23.2-9.42,31.76-1.93,2.07-4.25,3.78-6.81,4.86,4.71-2.94,7.89-7.57,9.95-12.61,4.92-11.93,6.53-36.78-1.65-47.4h0Z"/>
          </g>
          <g>
            <path class="cls-5" d="m102.6,99.02c8.54-6.98,14.35-17.22,15.96-28.12,1.62-10.91-.98-22.39-7.12-31.54"/>
            <path class="cls-5" d="m102.6,99.02c11.83-11.31,17.73-28.25,14.43-44.35-1.03-5.31-2.92-10.47-5.59-15.32,3.48,4.31,5.96,9.47,7.36,14.91,4.45,16.32-2.18,35.21-16.2,44.75h0Z"/>
          </g>
          <g>
            <path class="cls-5" d="m136.49,99.96c10.01-15.52,9.47-37.14-1.3-52.14"/>
            <path class="cls-5" d="m136.49,99.96c8.43-16.26,7.91-36.32-1.3-52.14,12.32,14.13,12.89,37.41,1.3,52.14h0Z"/>
          </g>
          <g>
            <path class="cls-5" d="m141.3,43.91c2.36,3.74,7.03,5.87,11.4,5.21"/>
            <path class="cls-5" d="m141.3,43.91c3.32,2.84,7.08,4.54,11.4,5.21-4.25,2.06-10.17-.66-11.4-5.21h0Z"/>
          </g>
          <g>
            <path class="cls-5" d="m166.94,58.15c3.48,4.17,3.55,10.21,2.5,15.54-1.38,6.96-4.41,13.58-8.77,19.18"/>
            <path class="cls-5" d="m166.94,58.15c8.95,8.71,1.68,27.41-6.27,34.71,1.53-2.77,2.94-5.52,4.15-8.35,3.11-8.1,6.69-18.18,2.12-26.37h0Z"/>
          </g>
          <g>
            <path class="cls-5" d="m145.74,33.7c2.82,5.4,9.28,8.63,15.29,7.66"/>
            <path class="cls-5" d="m145.74,33.7c4.16,4.32,9.35,6.9,15.29,7.66-5.88,2.8-14.01-1.29-15.29-7.66h0Z"/>
          </g>
          <g>
            <path class="cls-5" d="m152.03,22.86c3.09,4.88,8.84,7.96,14.62,7.82"/>
            <path class="cls-5" d="m152.03,22.86c4.34,3.76,9.09,6.29,14.62,7.82-5.8,1.91-12.98-1.94-14.62-7.82h0Z"/>
          </g>
          <path class="cls-5" d="m56.71,70.7c-2.06,2.44-5,4.22-8.16,4.57-2.37-.63-4.74-1.29-7.1-1.98-2.55-.75-5.14-1.56-7.31-3.09-2.17-1.53-3.9-3.93-3.96-6.59-.07-3.09,2.06-5.81,4.38-7.85,2.33-2.05,5.01-3.78,6.74-6.35,2.22-3.29,2.98-8,6.6-9.62,1.91-.85,4.1-.57,6.16-.23,1.74.71,3.23,2.14,4.2,3.78,1.38,2.32,1.89,5.06,2.24,7.75.44,3.4.65,6.86.15,10.26-.5,3.39-1.74,6.74-3.95,9.36Z"/>
        </g>
        <g>
          <path class="cls-6" d="m191.54,67.98c.07-2.69-.33-5.57-2.14-7.57-1.37-1.49-3.34-2.27-5.23-2.98-15.99-6.01-32.2-11.39-48.6-16.15-12.14-3.52-24.38-6.69-36.7-9.5-6.31-1.44-12.42-3.08-18.82-4.12-6.46-1.04-12.93-2.05-19.39-3.11-.09-.01-.17-.02-.27-.04-3.92-.64-8.09-1.18-11.71.44-6.87,3.09-8.33,12.03-12.54,18.28-3.28,4.87-8.39,8.17-12.81,12.06-4.42,3.89-8.46,9.05-8.33,14.93.12,5.06,3.4,9.61,7.53,12.53,4.13,2.91,9.05,4.45,13.9,5.88,4.48,1.32,8.98,2.57,13.49,3.76,15.61,4.14,31.42,7.56,47.34,10.19,16.82,2.76,34.02,4.63,50.9,2.25,10.23-1.43,20.45-4.53,28.73-10.73,8.28-6.19,14.38-15.78,14.66-26.12Z"/>
          <path class="cls-3" d="m65.42,83.71c-3.91,4.65-9.51,8.01-15.51,8.68-4.51-1.19-9.01-2.44-13.49-3.76-4.84-1.43-9.77-2.96-13.9-5.88-4.13-2.91-7.41-7.47-7.53-12.53-.13-5.88,3.91-11.04,8.33-14.93,4.42-3.89,9.52-7.19,12.81-12.06,4.21-6.25,5.67-15.2,12.54-18.28,3.63-1.62,7.79-1.07,11.71-.44,3.31,1.35,6.14,4.06,7.99,7.18,2.62,4.42,3.6,9.62,4.26,14.73.83,6.47,1.23,13.04.28,19.5-.95,6.45-3.31,12.8-7.51,17.79Z"/>
          <path class="cls-6" d="m153.17,17.37c2.66-1.95,6.18-2.97,9.33-1.97,4.13,1.31,6.59,5.86,6.65,10.19.06,4.33-1.82,8.45-4.02,12.19-3.39,5.74-18.21,28.58-24.68,16.17-5.78-11.1,3.75-30.01,12.73-36.57Z"/>
          <path class="cls-4" d="m65.42,83.71c-3.91,4.65-9.51,8.01-15.51,8.68-4.51-1.19-9.01-2.44-13.49-3.76-4.84-1.43-9.77-2.96-13.9-5.88-4.13-2.91-7.41-7.47-7.53-12.53-.13-5.88,3.91-11.04,8.33-14.93,4.42-3.89,9.52-7.19,12.81-12.06,4.21-6.25,5.67-15.2,12.54-18.28,3.63-1.62,7.79-1.07,11.71-.44,3.31,1.35,6.14,4.06,7.99,7.18,2.62,4.42,3.6,9.62,4.26,14.73.83,6.47,1.23,13.04.28,19.5-.95,6.45-3.31,12.8-7.51,17.79Z"/>
          <path class="cls-7" d="m87.28,34.26c6.36,5.81,7.66,15.2,7.94,23.4.13,11.09-1.83,23.2-9.42,31.76-1.93,2.07-4.25,3.78-6.81,4.86,4.71-2.94,7.89-7.57,9.95-12.61,4.92-11.93,6.53-36.78-1.65-47.4h0Z"/>
          <path class="cls-7" d="m102.6,99.02c11.83-11.31,17.73-28.25,14.43-44.35-1.03-5.31-2.92-10.47-5.59-15.32,3.48,4.31,5.96,9.47,7.36,14.91,4.45,16.32-2.18,35.21-16.2,44.75h0Z"/>
          <path class="cls-7" d="m136.49,99.96c8.43-16.26,7.91-36.32-1.3-52.14,12.32,14.13,12.89,37.41,1.3,52.14h0Z"/>
          <path class="cls-7" d="m141.3,43.91c3.32,2.84,7.08,4.54,11.4,5.21-4.25,2.06-10.17-.66-11.4-5.21h0Z"/>
          <path class="cls-7" d="m166.94,58.15c8.95,8.71,1.68,27.41-6.27,34.71,1.53-2.77,2.94-5.52,4.15-8.35,3.11-8.1,6.69-18.18,2.12-26.37h0Z"/>
          <path class="cls-7" d="m145.74,33.7c4.16,4.32,9.35,6.9,15.29,7.66-5.88,2.8-14.01-1.29-15.29-7.66h0Z"/>
          <path class="cls-7" d="m152.03,22.86c4.34,3.76,9.09,6.29,14.62,7.82-5.8,1.91-12.98-1.94-14.62-7.82h0Z"/>
          <path class="cls-4" d="m56.71,70.7c-2.06,2.44-5,4.22-8.16,4.57-2.37-.63-4.74-1.29-7.1-1.98-2.55-.75-5.14-1.56-7.31-3.09-2.17-1.53-3.9-3.93-3.96-6.59-.07-3.09,2.06-5.81,4.38-7.85,2.33-2.05,5.01-3.78,6.74-6.35,2.22-3.29,2.98-8,6.6-9.62,1.91-.85,4.1-.57,6.16-.23,1.74.71,3.23,2.14,4.2,3.78,1.38,2.32,1.89,5.06,2.24,7.75.44,3.4.65,6.86.15,10.26-.5,3.39-1.74,6.74-3.95,9.36Z"/>
        </g>
      </g>
    </g>
  </g>
</svg>