<?xml version="1.0" encoding="UTF-8"?>
<svg xmlns="http://www.w3.org/2000/svg" viewBox="0 0 264.73 204.75">
  <defs>
    <style>
      .cls-1 {
        fill: #19995c;
      }

      .cls-1, .cls-2, .cls-3, .cls-4, .cls-5, .cls-6, .cls-7 {
        stroke-width: 0px;
      }

      .cls-2 {
        fill: #008d4a;
      }

      .cls-8 {
        isolation: isolate;
      }

      .cls-3 {
        fill: #dea479;
      }

      .cls-4 {
        fill: #fdf7e6;
      }

      .cls-5 {
        fill: #fff;
      }

      .cls-6 {
        fill: #f1cd69;
        mix-blend-mode: hard-light;
        opacity: .46;
      }

      .cls-7 {
        fill: #cd7534;
      }
    </style>
  </defs>
  <g class="cls-8">
    <g id="Layer_2" data-name="Layer 2">
      <g id="Blancos">
        <path class="cls-5" d="m264.63,108.55c-.15-4.69-.47-8.91-.97-12.89-.44-3.47-1.02-6.82-1.74-9.95-1.09-4.72-2.54-9.23-4.31-13.39-5.6-13.16-15.6-24.14-27.45-30.14-2.16-1.09-4.36-2.02-6.56-2.75-.65-.22-1.3-.42-1.96-.61-.82-.23-1.65-.45-2.48-.64.4-1.03.79-2.05,1.15-3.07.39-1.07.79-2.15,1.19-3.23,1.47-3.95,2.99-8.04,4.2-12.34,1.17-4.12.52-8.54-1.78-12.15-2.3-3.61-6.03-6.06-10.25-6.75-2.58-.42-5.22-.63-7.84-.63-.7,0-1.41.01-2.11.04-3.6.16-6.79,1.32-9.46,3.45-2.28,1.82-5.15,5.14-5.87,10.67-.7,5.51-2.05,10.96-4.04,16.23-.43.04-.86.1-1.29.16-3.89.55-7.6,1.72-11.01,3.48-.24.02-.49.03-.75.04-1.07.06-2.54.14-4.34.36-2.8.35-5.6,1.05-8.57,2.11-.88.32-1.77.67-2.66,1.04-1.02.43-1.95.85-2.82,1.28-1.09.53-2.25,1.12-3.53,1.82-1.89,1.03-3.73,2.09-5.46,3.17-4.24,2.63-7.77,5.32-10.81,8.22-.78.74-1.53,1.51-2.24,2.27-2.36,2.55-4.35,5.25-6.01,7.83-3.66-3.65-7.43-6.42-11.49-8.43-.94-.47-1.92-.9-2.93-1.3-3.33-1.32-6.95-2.24-11.06-2.82-2.13-.3-4.41-.51-7.17-.66-2.58-.14-5.2-.22-7.79-.23h-.55c-5.1,0-10.29.26-15.42.78-2.49.25-4.94.56-7.29.91-.98.15-2.01.29-3.07.43-1.33.18-2.7.37-4.17.59l-.46.07c-2.55.39-4.79.81-6.81,1.28-1.59.37-3.04.75-4.43,1.19-1.1.35-2.21.74-3.39,1.21-2.81,1.12-5.24,2.41-7.42,3.94-2.95,2.07-5.87,4.5-8.67,7.23-3.62,3.52-6.98,7.49-9.73,11.47-.72,1.04-1.4,2.09-2.04,3.13-1.82,2.98-3.36,6.21-4.71,9.86-.29.79-.57,1.6-.84,2.4-.69,2.1-1.33,4.35-1.96,6.88-1.21,4.89-2.12,9.89-2.7,14.84-1.12,9.65-.99,19.09.38,28.08.26,1.72.57,3.43.92,5.12.18.84.37,1.67.57,2.53.62,2.57,1.35,5.1,2.17,7.53,1.14,3.37,2.5,6.66,4.04,9.78,2.01,4.07,4.37,7.95,7.02,11.53,2.97,4.01,6.65,7.63,10.92,10.77.66.49,1.34.96,2.03,1.42,16.99,11.36,38.41,13.06,49.67,13.06h.35c1.35,0,2.7-.03,4.08-.09.15,0,.3-.01.45-.03,2.9-.13,5.84-.4,8.77-.82.43-.06.85-.13,1.32-.2,5.96-.94,11.78-2.51,17.3-4.65,3.73-1.45,7.26-3.11,10.48-4.94,1.91-1.09,3.6-2.16,5.19-3.28,1.97-1.39,3.7-2.82,5.32-4.36.78-.75,1.56-1.55,2.3-2.37,1.29-1.44,2.53-3,3.78-4.75.53-.75,1.05-1.51,1.56-2.28.39-.59.77-1.19,1.17-1.85.64.46,1.29.89,1.95,1.3.85.54,1.73,1.04,2.62,1.5,1.96,1.02,4.04,1.89,6.34,2.66,3.1,1.03,6.09,1.69,8.73,2.28,5.14,1.14,10.46,2.31,15.74,3.42,4.04.85,8.75,1.81,13.64,2.44,3.05.39,5.82.62,8.47.69.65.02,1.31.03,1.96.03,2.22,0,4.4-.11,6.51-.33,13.22-1.36,25.76-7.24,35.31-16.54.64-.62,1.27-1.26,1.87-1.91.46-.49.9-1,1.33-1.51l.27-.31c3.09-3.57,5.64-7.24,8.19-10.99l1.11-1.65c3.09-4.61,6.21-9.72,8.01-15.8,1.55-5.21,1.88-10.22,2-14.83,0-.02.03-1.23.04-1.78.04-1.97.08-3.95.09-5.94,0-1.03.01-2.06,0-3.08,0-2.2-.04-4.24-.1-6.24Z"/>
      </g>
      <g id="Productos">
        <g>
          <path class="cls-2" d="m156.51,53.89c-5.33,2.89-10.52,6.2-14.64,10.65-3.3,3.57-5.82,7.78-8.03,12.11-8.22,16.08-12.39,35.02-7.38,52.38,2.76,9.56,8.15,18.19,14.51,25.84,3.17,3.81,6.68,7.48,11.08,9.78,3.53,1.84,7.47,2.72,11.36,3.58,5.2,1.15,10.39,2.3,15.6,3.39,8.54,1.8,17.26,3.49,25.94,2.59,10.5-1.08,20.56-6.07,27.77-13.78,3.14-3.36,5.74-7.18,8.33-10.99,2.84-4.18,5.71-8.44,7.15-13.28,1.21-4.09,1.34-8.4,1.43-12.66.33-15.34.19-31.18-5.82-45.3-6.01-14.12-19.34-26.21-34.68-26.13-1.85,0-3.76.18-5.5-.43-1.7-.6-3.04-1.88-4.5-2.93-5.82-4.2-14-4.55-20.32-1.26-3.85,2.01-5.67,1.36-9.99,1.9s-8.49,2.49-12.31,4.56Z"/>
          <path class="cls-1" d="m113.8,180.99c2.7-1.54,5.3-3.29,7.55-5.44,2.11-2.02,3.88-4.37,5.48-6.81,11.03-16.8,14.3-38.48,8.69-57.78-1.69-5.81-4.12-11.37-6.84-16.78-3.22-6.41-6.87-12.64-11.48-18.14-2.96-3.54-6.38-6.8-10.51-8.85-4.71-2.33-10.07-2.96-15.32-3.24-9.35-.51-18.76-.07-28.02,1.31-7.23,1.08-17.22,1.85-23.34,6.15-6.2,4.35-12.3,10.9-16.26,17.37-2.79,4.57-4.45,9.73-5.74,14.93-5.6,22.6-3.96,48.16,9.9,66.86,11.52,15.54,36.14,19.81,54.35,19.1,11-.42,21.95-3.22,31.54-8.69Z"/>
          <path class="cls-4" d="m112.16,178.6c2.58-1.47,5.07-3.14,7.22-5.2,2.02-1.93,3.7-4.18,5.24-6.51,10.55-16.06,13.67-36.79,8.31-55.24-1.61-5.55-3.94-10.87-6.54-16.04-3.08-6.12-6.57-12.08-10.97-17.34-2.83-3.38-6.1-6.5-10.05-8.46-4.5-2.23-9.63-2.83-14.65-3.1-8.94-.49-17.93-.06-26.79,1.26-6.91,1.03-16.46,1.77-22.31,5.88-5.93,4.16-11.76,10.42-15.54,16.61-2.67,4.37-4.25,9.3-5.49,14.27-5.36,21.6-3.79,46.04,9.47,63.92,11.01,14.86,34.55,18.94,51.96,18.26,10.52-.41,20.98-3.08,30.15-8.31Z"/>
          <path class="cls-3" d="m83.39,106.03c.45.1.91.09,1.38.09,2.11-.03,4.19-1.2,3.26-3.75-.46-1.27-1.86-1.92-3.13-2.04-3.65-.34-5.58,4.79-1.5,5.7Z"/>
          <path class="cls-3" d="m64.63,107.81c.45.1.91.09,1.38.09,2.11-.03,4.19-1.2,3.26-3.75-.46-1.27-1.86-1.92-3.13-2.04-3.65-.34-5.58,4.79-1.5,5.7Z"/>
          <path class="cls-3" d="m50.36,138.87c.45.1.91.09,1.38.09,2.11-.03,4.19-1.2,3.26-3.75-.46-1.27-1.86-1.92-3.13-2.04-3.65-.34-5.58,4.79-1.5,5.7Z"/>
          <path class="cls-3" d="m91.09,111.83c.45.1.91.09,1.38.09,2.11-.03,4.19-1.2,3.26-3.75-.46-1.27-1.86-1.92-3.13-2.04-3.65-.34-5.58,4.79-1.5,5.7Z"/>
          <path class="cls-3" d="m84.57,149.87c-.13.44-.17.9-.19,1.36-.14,2.11.87,4.27,3.48,3.54,1.31-.36,2.06-1.7,2.28-2.96.62-3.62-4.34-5.94-5.57-1.95Z"/>
          <path class="cls-3" d="m55.7,146.1c-.43.16-.82.41-1.21.67-1.76,1.16-2.88,3.27-.72,4.92,1.08.82,2.6.62,3.73.03,3.26-1.69,2.12-7.05-1.8-5.61Z"/>
          <path class="cls-3" d="m54.32,115.98c-.44-.15-.9-.2-1.36-.24-2.1-.21-4.3.72-3.67,3.36.31,1.32,1.63,2.12,2.88,2.38,3.59.75,6.09-4.12,2.15-5.49Z"/>
          <path class="cls-3" d="m99.31,148.31c-.24-.39-.56-.73-.89-1.05-1.48-1.5-3.76-2.19-4.96.24-.6,1.22-.1,2.67.69,3.67,2.29,2.87,7.32.72,5.16-2.86Z"/>
          <path class="cls-3" d="m98.8,127.91c.45.1.91.09,1.38.09,2.11-.03,4.19-1.2,3.26-3.75-.46-1.27-1.86-1.92-3.13-2.04-3.65-.34-5.58,4.79-1.5,5.7Z"/>
          <path class="cls-3" d="m76.29,146.44c.11.45.33.86.54,1.27.98,1.87,2.97,3.19,4.82,1.21.93-.99.87-2.53.4-3.71-1.35-3.41-6.8-2.81-5.77,1.23Z"/>
          <path class="cls-3" d="m72.79,120.32c.38.36.85.65,1.37.73.12.02.24.02.35.02.41-.02.82-.18,1.09-.49,1.52-1.72-.42-5.37-1.9-6.48-.14-.11-.3-.21-.47-.24-.18-.03-.37.03-.53.11-.8.4-1.21,1.33-1.24,2.21s.25,1.75.53,2.6c.2.6.33,1.08.8,1.53Z"/>
          <path class="cls-3" d="m63.61,156.24c.41-.33.75-.77.89-1.27.03-.11.05-.23.06-.35.03-.41-.08-.83-.35-1.14-1.52-1.72-5.38-.24-6.67,1.09-.12.13-.25.27-.29.44-.05.18-.01.37.05.54.3.84,1.17,1.36,2.05,1.5s1.77-.04,2.64-.21c.62-.13,1.12-.19,1.62-.61Z"/>
          <path class="cls-3" d="m53.23,130.51c.44-.3.82-.7,1-1.19.04-.11.07-.23.09-.34.07-.41,0-.84-.25-1.16-1.37-1.84-5.34-.71-6.74.5-.13.12-.27.25-.33.41-.07.17-.05.36,0,.54.22.86,1.04,1.46,1.9,1.68s1.77.12,2.65.02c.63-.07,1.13-.1,1.67-.46Z"/>
          <path class="cls-3" d="m104.36,138.5c.44-.3.82-.7,1-1.19.04-.11.07-.23.09-.34.07-.41,0-.84-.25-1.16-1.37-1.84-5.34-.71-6.74.5-.13.12-.27.25-.33.41-.07.17-.05.36,0,.54.22.86,1.04,1.46,1.9,1.68s1.77.12,2.65.02c.63-.07,1.13-.1,1.67-.46Z"/>
          <path class="cls-3" d="m59.5,112.17c.52-.04,1.05-.21,1.46-.54.09-.08.17-.16.25-.25.26-.32.41-.73.35-1.14-.29-2.28-4.3-3.24-6.11-2.87-.17.04-.35.08-.49.2-.14.12-.22.29-.27.47-.23.86.19,1.79.84,2.4s1.48.97,2.3,1.32c.58.25,1.03.47,1.68.42Z"/>
          <path class="cls-3" d="m99.46,116.46c.15-.5.2-1.05.03-1.55-.04-.11-.08-.22-.14-.32-.2-.36-.53-.65-.93-.75-2.22-.57-4.6,2.81-4.92,4.63-.03.18-.05.36,0,.53.06.17.19.31.34.42.71.53,1.73.48,2.54.11s1.45-1.02,2.07-1.65c.45-.45.82-.78,1.01-1.41Z"/>
          <path class="cls-3" d="m79.8,108.7c.15-.5.2-1.05.03-1.55-.04-.11-.08-.22-.14-.32-.2-.36-.53-.65-.93-.75-2.22-.57-4.6,2.81-4.92,4.63-.03.18-.05.36,0,.53.06.17.19.31.34.42.71.53,1.73.48,2.54.11s1.45-1.02,2.07-1.65c.45-.45.82-.78,1.01-1.41Z"/>
          <path class="cls-3" d="m74.68,154.97c0-.58-.09-1.23-.36-1.87-.06-.14-.13-.28-.21-.42-.27-.48-.63-.89-1-1.1-2.1-1.17-3.35,2.41-3.19,4.53.02.2.04.42.13.64.09.22.25.42.41.58.76.79,1.64.95,2.26.67s1.02-.92,1.42-1.55c.28-.45.52-.77.54-1.48Z"/>
          <path class="cls-6" d="m243.81,78.18c-6.01-14.12-19.34-26.21-34.68-26.13-1.85,0-3.76.18-5.5-.43-1.7-.6-3.04-1.88-4.5-2.93-5.82-4.2-14-4.55-20.32-1.26-3.85,2.01-5.67,1.36-9.99,1.9-4.35.55-8.49,2.49-12.31,4.56-5.33,2.89-10.52,6.2-14.64,10.65-3.3,3.57-5.82,7.78-8.03,12.11-2.51,4.92-4.64,10.1-6.25,15.43-2.96-5.66-6.3-11.14-10.4-16.03-2.96-3.54-6.38-6.8-10.51-8.85-4.71-2.33-10.07-2.96-15.32-3.24-9.35-.51-18.76-.07-28.02,1.31-7.23,1.08-17.22,1.85-23.34,6.15-6.2,4.35-12.3,10.9-16.26,17.37-2.79,4.57-4.45,9.73-5.74,14.93-5.6,22.6-3.96,48.16,9.9,66.86,11.52,15.54,36.14,19.81,54.35,19.1,11-.42,21.95-3.22,31.54-8.69,2.7-1.54,5.3-3.28,7.55-5.44,2.11-2.02,3.88-4.37,5.48-6.81,4.13-6.29,7.18-13.27,9.07-20.55,1.59,2.3,3.29,4.53,5.07,6.67,3.17,3.81,6.68,7.48,11.08,9.78,3.53,1.84,7.47,2.72,11.36,3.58,5.2,1.15,10.39,2.3,15.6,3.39,8.54,1.8,17.26,3.49,25.94,2.59,10.5-1.08,20.56-6.07,27.77-13.78,3.15-3.36,5.74-7.18,8.33-10.99,2.84-4.18,5.71-8.44,7.15-13.28,1.21-4.09,1.34-8.4,1.43-12.66.33-15.34.19-31.18-5.82-45.3Z"/>
          <path class="cls-7" d="m190.57,55.3c.61-.2,1.22-.41,1.83-.61,1.97-.66,3.23-1.27,4.18-3.14,3.58-7.03,6.95-14.18,9.63-21.56,1.74-4.8,3.69-9.7,5.06-14.54-2.28-.37-4.6-.51-6.91-.41-.27.01-.56.03-.77.2-.25.19-.3.53-.34.83-1.01,7.98-3.16,15.82-6.34,23.27-1.59,3.73-3.46,7.33-5.54,10.84-1.17,1.98-2.54,3.56-3.1,5.9.76-.26,1.53-.51,2.29-.77Z"/>
          <path class="cls-5" d="m164.32,58.11c3.51-1.56,6.87-3,10.58-4.13,1.88-.54,4.08-.72,6.17.01,1.03.35,2.05,1.02,2.79,1.87.66.76,1.24,1.5,1.65,1.71.4.19.48-.01.91-.44,4.65-5.98,13.54-4.51,18.99-.56-5.46-1.8-11.91-3.07-16.29,1.16-.79.76-1.14,1.69-2.43,2.22-.75.3-1.72.2-2.39-.19-1.98-1.3-2.08-2.8-4.07-3.56-1.45-.63-3.16-.6-4.92-.32-3.58.71-7.33,1.7-11,2.24h0Z"/>
        </g>
      </g>
    </g>
  </g>
</svg>