<?xml version="1.0" encoding="UTF-8"?>
<svg xmlns="http://www.w3.org/2000/svg" viewBox="0 0 235.9 166.95">
  <defs>
    <style>
      .cls-1 {
        fill: #008d4a;
      }

      .cls-1, .cls-2, .cls-3, .cls-4, .cls-5, .cls-6, .cls-7, .cls-8, .cls-9 {
        stroke-width: 0px;
      }

      .cls-10 {
        isolation: isolate;
      }

      .cls-2, .cls-3, .cls-6 {
        fill: #e64228;
      }

      .cls-3 {
        opacity: .35;
      }

      .cls-3, .cls-6, .cls-8 {
        mix-blend-mode: hard-light;
      }

      .cls-4 {
        fill: #fff;
      }

      .cls-5 {
        fill: #eab520;
      }

      .cls-6 {
        opacity: .25;
      }

      .cls-7 {
        mix-blend-mode: multiply;
      }

      .cls-7, .cls-9 {
        fill: #cd7534;
      }

      .cls-8 {
        fill: #edc041;
        opacity: .5;
      }
    </style>
  </defs>
  <g class="cls-10">
    <g id="Layer_2" data-name="Layer 2">
      <g id="Blancos">
        <path class="cls-4" d="m235.83,108.21c-.04-.48-.1-.95-.18-1.42-1.47-8.47-8.33-14.38-16.67-14.38-.88,0-1.74.07-2.56.18-11.64-9.24-30.68-12.82-46.86-12.82-.49,0-.98,0-1.47,0-2.03-7.79-4.68-15.22-7.28-22.5-.54-1.51-1.08-3.02-1.61-4.53-5.4-16.81-13.31-27.94-23.61-33.26-.4-2.61-1.27-5.48-3.05-8.33-.08-.14-.17-.27-.26-.4-3.43-5.11-9.14-8.16-15.27-8.16-5.55,0-10.76,2.42-14.38,6.41-6.36-5.42-14.24-9.01-23.28-9.01-3.94,0-7.89.7-11.74,2.08-.5.18-.99.38-1.47.61-13.89,6.71-22.17,19.24-28.05,32.21-14.66,1.19-26.12,9.18-32.51,22.79-12.52,26.64-2.34,72.52,14.43,92.75.41.49.84.95,1.31,1.39,8.26,7.72,19.48,11.96,31.61,11.96s23.61-4,32.62-10.87c8.41,5.99,19.19,9.31,31.21,9.31,4.03,0,8.14-.38,12.16-1.12,8.9,4.69,19.55,5.83,27.77,5.83h0c19.9,0,46.43-6.91,60.84-22.36,4.68-5.02,7.82-10.63,9.31-16.59,6.18-4.78,9.6-11.92,8.99-19.79Z"/>
      </g>
      <g id="Productos">
        <g>
          <path class="cls-1" d="m44.17,73.36c.81,12.01,3.83,24.29,11.37,33.67,7.54,9.38,20.31,15.21,31.91,12.01,10.62-2.92,18.29-12.73,21.39-23.3s2.31-21.87.87-32.78c-2.44-18.46-9.26-51.66-34.37-47.68-15.45,2.45-32.59,37.04-31.16,58.08Z"/>
          <path class="cls-2" d="m87.49,124.85c2.57-10.51-.09-21.61-4.15-31.64-3.89-9.6-9.06-18.67-15.19-27.03-4.57-6.23-9.96-12.28-17.13-15.18-10.4-4.21-23.48-.25-29.8,9.02-2.29,3.36-3.72,7.23-4.67,11.18-3.77,15.66-.17,32.08,4.2,47.58,1.94,6.89,4.13,13.91,8.6,19.5,15.29,19.12,52.46,9.84,58.14-13.44Z"/>
          <path class="cls-5" d="m86.35,60.07c-4.99,11.77-6.38,24.75-6.67,37.54-.19,8.03.05,16.18,2.23,23.91s6.48,15.1,13.09,19.67c7.23,5,16.48,6.21,25.25,5.68,4.81-.29,9.64-1.08,14.07-2.95,14.87-6.27,22.39-23.69,22.28-39.82-.11-16.14-6.26-31.52-11.62-46.74-2.42-6.86-4.81-13.99-9.69-19.39-17.85-19.77-41.73,5.12-48.94,22.1Z"/>
          <path class="cls-9" d="m160.04,95.16c-10.07,1.42-20.23,4.73-27.68,11.66-7.44,6.93-11.57,18.05-8.16,27.63,3.12,8.77,11.85,14.63,20.95,16.59,9.1,1.96,18.57.6,27.68-1.29,15.41-3.2,45.65-10.88,39.03-38.94-3.04-12.86-34.18-18.15-51.82-15.65Z"/>
          <path class="cls-8" d="m103.88,37.34c-7.82,6.05-14.32,15.18-17.53,22.74-3.53,8.31-5.26,17.23-6.06,26.25-3.41-7.07-7.5-13.81-12.14-20.14-4.57-6.24-9.96-12.28-17.13-15.18-.98-.39-1.98-.72-3.01-.97,5.73-16.86,16.92-33.12,27.33-34.76,15.18-2.4,23.67,8.76,28.55,22.05Z"/>
          <path class="cls-6" d="m85.47,130.3c-9.63,19.17-42.11,25.54-56.12,7.99-4.47-5.59-6.66-12.61-8.6-19.5-4.37-15.5-7.98-31.91-4.2-47.57.96-3.94,2.39-7.83,4.68-11.19,5.72-8.4,16.99-12.43,26.78-9.98,1.03.24,2.03.58,3.01.97,7.17,2.9,12.56,8.94,17.13,15.18,4.64,6.33,8.74,13.07,12.14,20.14-.34,3.75-.53,7.52-.61,11.27-.17,7.49.02,15.07,1.81,22.31.12.54.27,1.08.42,1.6.86,3.03,2.03,6.02,3.57,8.78Z"/>
          <path class="cls-6" d="m124.19,134.45c1.48,4.15,4.21,7.66,7.64,10.38-3.72,1.24-7.67,1.8-11.59,2.03-8.78.54-18.03-.67-25.26-5.67-4.02-2.78-7.18-6.59-9.52-10.89-1.53-2.77-2.71-5.76-3.57-8.78-.15-.53-.29-1.07-.42-1.6-1.79-7.24-1.98-14.82-1.81-22.31.09-3.75.27-7.52.61-11.27.81-9.03,2.54-17.95,6.06-26.25,3.21-7.56,9.72-16.69,17.53-22.74,9.74-7.56,21.5-10.33,31.41.64,4.88,5.39,7.27,12.52,9.69,19.38,4.43,12.61,9.41,25.32,11.05,38.48-8.71,1.69-17.23,4.97-23.67,10.98-7.45,6.93-11.58,18.06-8.17,27.64Z"/>
          <path class="cls-3" d="m172.83,149.75c-9.12,1.9-18.59,3.25-27.68,1.29-4.79-1.03-9.48-3.15-13.32-6.21-3.43-2.72-6.16-6.22-7.64-10.38-3.41-9.58.72-20.7,8.17-27.64,6.44-6,14.96-9.29,23.67-10.98,1.34-.27,2.67-.49,4.01-.67,17.64-2.49,48.78,2.79,51.82,15.66,6.63,28.06-23.62,35.74-39.03,38.93Z"/>
          <g>
            <path class="cls-9" d="m77.48,24.24c1.55.63,3.31.43,4.97.21.5-.07,1.04-.16,1.52-.33.56-.2,1.05-.5,1.34-1.01.52-.9.16-2.1-.59-2.82-3.57-3.42-10.59,2.57-7.24,3.94Z"/>
            <path class="cls-9" d="m112.67,20.98c.06-.24.14-.48.23-.72,1.05-2.73,5.07-4.09,6.93-1.32,1.52,2.26,1.03,6.1.95,8.67-.09,2.85.69,5.24,1.89,7.76.36.76.53,1.74-.03,2.37-.29.33-.72.49-1.14.62-5.46,1.66-9.19-.33-9.16-6.2.01-2.59.03-5.18.04-7.76,0-1.14.02-2.31.3-3.42Z"/>
            <path class="cls-9" d="m34.32,59.51c.52-.21,1.02-.45,1.51-.72,1.36-.74,2.61-1.7,3.78-2.71,1.82-1.58.97-2.29-.65-2.44s-4.19,1.53-5.57,2.32c-.9.52-4.06,2.04-4.19,3.26-.24,2.21,3.91.77,5.13.29Z"/>
            <path class="cls-9" d="m219.49,107.28c.37.05.67.2.91.47.34.39.44.92.48,1.43.5,6.58-7.52,10.2-13.12,9.52-1.95-.24-2.43-2.48-1.72-4.15.6-1.4,1.62-1.58,2.94-2.06,1.78-.65,7.77-5.6,10.51-5.21Z"/>
            <path class="cls-7" d="m77.48,24.24c1.55.63,3.31.43,4.97.21.5-.07,1.04-.16,1.52-.33.56-.2,1.05-.5,1.34-1.01.52-.9.16-2.1-.59-2.82-3.57-3.42-10.59,2.57-7.24,3.94Z"/>
            <path class="cls-7" d="m112.67,20.98c.06-.24.14-.48.23-.72,1.05-2.73,5.07-4.09,6.93-1.32,1.52,2.26,1.03,6.1.95,8.67-.09,2.85.69,5.24,1.89,7.76.36.76.53,1.74-.03,2.37-.29.33-.72.49-1.14.62-5.46,1.66-9.19-.33-9.16-6.2.01-2.59.03-5.18.04-7.76,0-1.14.02-2.31.3-3.42Z"/>
            <path class="cls-7" d="m34.32,59.51c.52-.21,1.02-.45,1.51-.72,1.36-.74,2.61-1.7,3.78-2.71,1.82-1.58.97-2.29-.65-2.44s-4.19,1.53-5.57,2.32c-.9.52-4.06,2.04-4.19,3.26-.24,2.21,3.91.77,5.13.29Z"/>
            <path class="cls-7" d="m219.49,107.28c.37.05.67.2.91.47.34.39.44.92.48,1.43.5,6.58-7.52,10.2-13.12,9.52-1.95-.24-2.43-2.48-1.72-4.15.6-1.4,1.62-1.58,2.94-2.06,1.78-.65,7.77-5.6,10.51-5.21Z"/>
          </g>
          <path class="cls-4" d="m44.3,143.39c.94.19,1.92.32,2.84.08s1.79-.91,2.02-1.84c.27-1.12-.45-2.28-1.38-2.96s-2.07-1.01-3.12-1.5c-2.03-.94-3.77-2.48-4.94-4.39-1.69-2.74-2.89-9.99-6.97-10.43-3.11-.33-3.69,3.5-3.54,5.89.48,7.42,8.26,13.74,15.09,15.15Z"/>
          <path class="cls-4" d="m83.32,106.54c-.12-2.75-.13-5.47-.08-8.12.02-.84.43-8.64,2.03-7.68.79.47.98,1.51,1.07,2.42,1.06,10.75.8,20.25,5.09,30.44.63,1.49,1.58,5.73-.96,6-2.3.24-4.22-4.52-4.67-6.08-1.55-5.37-2.24-11.22-2.49-16.98Z"/>
          <path class="cls-4" d="m128.14,121.96c-.34,1.26-.35,3.02.9,3.41,2,.62,6.23-7.38,7.44-8.88,1.05-1.31,2.1-2.61,3.28-3.81,3.53-3.58,8.16-6.06,13.12-7.02,1.11-.22,3.38-.92,2.52-2.47-1.71-3.09-12.8,1.34-14.96,2.5-6.38,3.42-10.42,9.4-12.3,16.28Z"/>
          <path class="cls-4" d="m53.98,46.1c-.23.8-.45,1.64-.22,2.44s1.06,1.48,1.85,1.24c.64-.19.98-.86,1.27-1.46,1.59-3.37,3.36-6.68,5.66-9.61,1.95-2.49,6.68-10.78-.24-7.09-4.89,2.61-6.87,9.55-8.32,14.48Z"/>
        </g>
      </g>
    </g>
  </g>
</svg>