<?xml version="1.0" encoding="UTF-8"?>
<svg id="Layer_2" data-name="Layer 2" xmlns="http://www.w3.org/2000/svg" viewBox="0 0 112.45 200.19">
  <defs>
    <style>
      .cls-1 {
        fill: #008d4a;
      }

      .cls-1, .cls-2, .cls-3, .cls-4 {
        stroke-width: 0px;
      }

      .cls-2 {
        fill: #fff;
      }

      .cls-3 {
        fill: #eab520;
      }

      .cls-5 {
        fill: none;
        stroke: #008d4a;
        stroke-linecap: round;
        stroke-miterlimit: 10;
        stroke-width: 3px;
      }

      .cls-4 {
        fill: #faecc7;
      }
    </style>
  </defs>
  <g id="Blancos">
    <path class="cls-2" d="m107.69,84.39c-5.69-6.01-15.09-7.42-22.03-11.58,2.79-4.43,3.14-10.17.55-15.04,31.16-5.19,32.3-37.46,7.3-52.4-17.28-11.72-46.76-3.67-50.38,18.18-8.66,1.47-18.66-.28-25.11,7.34C-12.99,40.72.05,73.57,26.81,77.26c.96,1.79,1.96,3.51,2.97,5.18-9.56,12.55.42,24.21,14.06,26.19.62,2.14,1.08,4.27,1.36,6.37-17.01,8.28-18.23,28.73-.34,36.43,0,10.15.61,23.47,2.32,34.73,1.61,14.17,21.4,19.23,29.55,7.52,8.61-14.58-4.62-39.48,3.61-59.27,6.18-2.64,10.72-8.38,10.34-15.07,17.21,2.2,28.71-22.61,17-34.95Z"/>
  </g>
  <g id="Productos">
    <g>
      <path class="cls-1" d="m55.1,140.09c.21-3.54-.06-7.34,1.34-10.64-1.08,3.38-.46,7.11-.34,10.61,0,0-1,.04-1,.04h0Z"/>
      <path class="cls-1" d="m53.41,138.08c-2.03-1.52-4.32-3.1-6.94-3.32,2.7-.11,5.22,1.2,7.52,2.51,0,0-.58.81-.58.81h0Z"/>
      <g>
        <path class="cls-5" d="m61.49,140.67s7.09-29.03,18.05-46.65"/>
        <path class="cls-5" d="m36.16,56.09c2.84,13.72,12.84,24.3,18.98,36.58,3.42,6.84,5.8,14.26,6.6,21.89s-.18,16.03-.3,23.97c-.19,12.94-.21,25.93,1.22,38.81.25,2.22.53,4.44.85,6.65"/>
        <path class="cls-5" d="m61.9,116.49c0-62.14,9.44-62.72,13.79-80.53"/>
      </g>
      <g>
        <path class="cls-4" d="m15.22,50.43c-.49.96-.63,2.04-.06,2.92.68,1.06,2.12,1.38,3.36,1.19,2.37-.36,3.94-2.14,5.8-3.44,2.04-1.43,3.95-2.83,5.59-4.74.12-.14.24-.29.24-.47,0-.25-.21-.45-.43-.58-1.22-.74-2.75-.6-4.16-.41-1.8.24-3.62.52-5.32,1.18-2.07.8-3.99,2.34-5.02,4.34Z"/>
        <path class="cls-4" d="m47.82,38.43c.97.02,1.96.12,2.85.51,1.05.46,1.96,1.42,2.02,2.61.04.85-.44,1.74-1.23,2.05-.49.19-1.03.16-1.55.12-3.54-.25-6.93-.62-10.42.22-1.08.26-1.32-1.33-1.05-2.13s1.23-1.27,1.92-1.65c2.26-1.25,4.88-1.78,7.45-1.74Z"/>
        <path class="cls-4" d="m21.72,52.16c-1.33,1.44-2.23,3.2-2.35,5.32-.04.75.19,1.55.77,2.01.79.63,2,.45,2.82-.13s1.37-1.47,1.9-2.33c1.21-1.94,2.49-3.83,3.86-5.66.61-.81,1.54-1.85,1.7-2.89.19-1.28-1.39-1.04-2.27-.71-2.25.84-4.81,2.62-6.43,4.39Z"/>
        <path class="cls-4" d="m38.62,56.42c.38.54.8,1.03,1.24,1.45.44.42.97.78,1.57.9,3.79.76,2.92-4.89,1.91-6.69-.94-1.68-2.35-3.13-3.67-4.51-.92-.95-2.17-1.97-3.55-1.24-.89.47-.93,1.25-.74,2.16.55,2.49,1.61,5.64,3.24,7.93Z"/>
        <path class="cls-4" d="m25.65,55.56c-.35,1-.62,2.05-.59,3.12s.38,2.15,1.13,2.9c1.09,1.1,2.99,1.26,4.26.37.96-.67,1.5-1.81,1.81-2.94.63-2.3.48-4.73.33-7.11-.13-2.01-.26-4.01-.39-6.02-.02-.29-.84.5-.88.54-.35.42-.58.95-.94,1.39-.5.62-1.01,1.22-1.49,1.86-1.37,1.81-2.5,3.74-3.25,5.9Z"/>
        <path class="cls-4" d="m48.73,51.62c.11.35.17.7.18,1.06,0,.99-.55,2.03-1.49,2.32-.77.24-1.6-.05-2.34-.4-1.87-.89-3.55-2.17-4.92-3.73-.93-1.06-2.17-2.35-2.38-3.81-.24-1.61,1.89-1.64,3.07-1.54,2.85.24,5.42,2.06,7.02,4.43.35.51.66,1.07.85,1.66Z"/>
        <path class="cls-4" d="m36.97,59.13c-.05.33-.11.66-.3.94-.41.63-1.27.75-2.02.82-.67.06-1.41.09-1.92-.35-.31-.26-.47-.65-.59-1.04-.33-1.06-.44-2.18-.5-3.29-.08-1.77-.02-3.56.27-5.31.14-.84.35-1.71.88-2.38,2.11-2.67,3.3,1.06,3.73,2.7.69,2.57.85,5.28.43,7.91Z"/>
        <path class="cls-4" d="m51.33,45.02c.82.73,1.57,1.78,1.34,2.86-.21,1.03-1.29,1.71-2.34,1.79s-2.07-.34-3.01-.82c-1.36-.7-2.62-1.56-3.96-2.29-.78-.43-3.1-.89-3.13-1.92-.08-2.76,5.29-2.18,6.76-1.83,1.59.38,3.1,1.12,4.33,2.21Z"/>
        <path class="cls-3" d="m28.89,49.02c.78.39,1.68.46,2.55.51,2.38.15,4.99.16,7.02-.94.47-.25.91-.57,1.31-.95,2.72-2.62,1.36-6.67-2.04-7.82-2.07-.7-4.91-.46-6.94.29-3.19,1.19-5.97,6.91-1.9,8.91Z"/>
      </g>
      <g>
        <path class="cls-4" d="m59.62,22.64c-.91.57-1.58,1.44-1.54,2.49.05,1.26,1.13,2.26,2.29,2.73,2.23.89,4.48.16,6.75-.02,2.48-.2,4.84-.44,7.22-1.25.17-.06.35-.13.45-.28.13-.21.04-.49-.08-.71-.67-1.25-2.07-1.91-3.38-2.46-1.68-.71-3.38-1.39-5.18-1.68-2.19-.36-4.63-.01-6.53,1.19Z"/>
        <path class="cls-4" d="m93.81,28.84c.83.51,1.63,1.1,2.2,1.89.67.93.97,2.22.42,3.28-.39.75-1.26,1.28-2.1,1.14-.52-.08-.97-.39-1.4-.68-2.92-2.01-5.66-4.05-9.09-5.1-1.07-.32-.46-1.82.18-2.37s1.7-.47,2.49-.45c2.59.07,5.11.94,7.3,2.29Z"/>
        <path class="cls-4" d="m64.35,27.43c-1.87.57-3.54,1.62-4.73,3.39-.42.62-.62,1.43-.36,2.12.36.94,1.49,1.4,2.5,1.32,1.01-.08,1.93-.58,2.82-1.04,2.02-1.06,4.09-2.03,6.2-2.92.94-.39,2.27-.81,2.93-1.63.82-1-.67-1.6-1.6-1.76-2.36-.42-5.47-.18-7.77.52Z"/>
        <path class="cls-4" d="m76.75,39.68c.06.66.17,1.29.34,1.88.17.59.44,1.16.89,1.57,2.88,2.58,5-2.73,5.04-4.8.04-1.92-.43-3.89-.88-5.75-.31-1.29-.87-2.8-2.43-2.87-1.01-.05-1.44.61-1.73,1.48-.79,2.43-1.47,5.68-1.23,8.48Z"/>
        <path class="cls-4" d="m66,32.35c-.81.69-1.58,1.45-2.09,2.38s-.77,2.04-.5,3.07c.39,1.5,1.94,2.61,3.48,2.48,1.17-.09,2.21-.8,3.05-1.62,1.71-1.66,2.82-3.83,3.89-5.96.91-1.79,1.82-3.59,2.72-5.38.13-.26-.98,0-1.03.03-.52.19-.99.52-1.51.72-.75.28-1.49.54-2.22.85-2.1.86-4.05,1.96-5.79,3.43Z"/>
        <path class="cls-4" d="m87.89,40.67c-.08.35-.2.69-.39,1.01-.49.85-1.5,1.47-2.46,1.24-.79-.18-1.36-.86-1.81-1.53-1.16-1.72-1.96-3.67-2.34-5.7-.27-1.39-.68-3.12-.12-4.49.61-1.51,2.46-.46,3.43.23,2.33,1.66,3.62,4.52,3.81,7.38.04.62.03,1.26-.11,1.86Z"/>
        <path class="cls-4" d="m73.95,41.17c-.21.26-.43.51-.73.66-.67.33-1.47,0-2.15-.32-.6-.29-1.26-.64-1.47-1.27-.13-.38-.07-.8.02-1.19.25-1.08.72-2.1,1.24-3.08.83-1.57,1.78-3.08,2.92-4.44.55-.66,1.17-1.3,1.97-1.61,3.17-1.23,2.3,2.59,1.85,4.22-.71,2.56-1.95,4.98-3.64,7.04Z"/>
        <path class="cls-4" d="m93.48,36.3c.34,1.05.45,2.33-.29,3.14-.71.78-1.98.82-2.92.35s-1.62-1.34-2.18-2.23c-.82-1.29-1.47-2.67-2.25-3.98-.46-.77-2.22-2.34-1.73-3.25,1.33-2.42,5.66.81,6.76,1.86,1.18,1.13,2.11,2.54,2.61,4.1Z"/>
        <path class="cls-4" d="m67.16,21.5c-.9-.42-1.83-.86-2.43-1.64-2.05-2.63,1.74-4.09,3.83-3.7,1.62.31,3.69,1.26,4.79,2.53,1.04,1.2,2.77,4.51.26,5.03-1.86.38-4.87-1.49-6.44-2.22Z"/>
        <path class="cls-4" d="m94.01,26.18c.96,1.42.81,2.84-1.27,2.61-.79-.09-1.52-.44-2.27-.68-2.83-.89-5.47-.16-8.11-1.84-.22-.14-.46-.33-.44-.59.01-.23.23-.4.43-.52,4.03-2.62,8.7-3.38,11.67,1.02Z"/>
        <path class="cls-4" d="m73.23,15.96c.27-.82.88-1.33,1.98-1.25,1.03.08,2.06.35,2.91.93,2.05,1.4,2.21,4.64,1.74,6.84-.41,1.89-3.73,1.41-4.82.33-1.1-1.08-2.46-4.86-1.8-6.85Z"/>
        <path class="cls-4" d="m79.64,20.04c.2-.92.77-1.81,1.64-2.14.3-.11.63-.16.95-.2.71-.09,1.44-.19,2.13,0,.47.13.89.39,1.31.64.71.44,1.43.89,2,1.51s.97,1.43.93,2.26c-.02.39-.15.79-.45,1.04-.18.15-.4.23-.61.31-1.24.45-2.53.81-3.85.83-2.83.04-4.68-1.29-4.05-4.24Z"/>
        <path class="cls-3" d="m72.11,28.36c.48.73,1.22,1.25,1.94,1.74,1.97,1.34,4.22,2.67,6.52,2.75.53.02,1.07-.03,1.61-.16,3.67-.88,4.55-5.06,2.21-7.77-1.43-1.65-4-2.89-6.13-3.27-3.35-.6-8.65,2.92-6.16,6.71Z"/>
      </g>
      <g>
        <path class="cls-4" d="m62.7,85.24c-.98.44-1.76,1.2-1.87,2.25-.13,1.25.8,2.39,1.89,3.02,2.08,1.19,4.42.78,6.68.91,2.49.15,4.85.23,7.32-.24.18-.03.37-.08.48-.21.16-.19.11-.48.02-.72-.5-1.33-1.79-2.18-3.01-2.91-1.56-.93-3.16-1.84-4.9-2.38-2.12-.66-4.58-.65-6.63.28Z"/>
        <path class="cls-4" d="m94.22,93.09c.88.41,1.75.89,2.41,1.61.78.85,1.23,2.08.81,3.21-.3.8-1.1,1.42-1.95,1.39-.52-.02-1.01-.27-1.47-.51-3.14-1.64-6.1-3.34-9.64-3.97-1.1-.19-.68-1.75-.11-2.37s1.63-.67,2.42-.74c2.58-.24,5.18.32,7.52,1.39Z"/>
        <path class="cls-4" d="m94.79,100.54c.46,1,.72,2.26.08,3.16-.61.86-1.86,1.06-2.86.7s-1.76-1.14-2.43-1.95c-.96-1.18-1.78-2.48-2.71-3.68-.55-.71-2.48-2.06-2.1-3.02,1.03-2.56,5.72.13,6.93,1.04,1.31.98,2.4,2.26,3.08,3.76Z"/>
        <path class="cls-4" d="m82.87,102.05c.37.92.76,1.87,1.5,2.52,2.51,2.19,4.18-1.51,3.9-3.62-.22-1.64-1.05-3.75-2.26-4.92-1.14-1.1-4.35-3.02-5-.53-.48,1.83,1.22,4.95,1.86,6.55Z"/>
        <path class="cls-4" d="m65.02,94.18c1.42-3.99,7.17-3.55,10.48-2.83.22.05.46.11.62.29.46.52-.1,1.31-.63,1.7-2.15,1.58-4.52,2.81-7.02,3.64-.7.24-1.45.44-2.18.28s-1.45-.77-1.55-1.59c-.04-.4.06-.79.17-1.17.03-.11.07-.22.1-.32Z"/>
        <path class="cls-4" d="m80.92,103.13c-.36.78-.91,1.25-1.73,1.11-.76-.13-1.49-.45-2.03-1.06-1.29-1.47-.81-4.63-.03-6.75.66-1.82,3.09-1.17,3.71-.06.63,1.11.95,4.86.08,6.76Z"/>
        <path class="cls-4" d="m76,99.04c-.85,1.08-1.8,2.17-2.78,2.41-.8.19-1.44-.25-2.01-.72-.46-.38-.92-.81-1.16-1.48s-.2-1.65.24-2.48c.29-.54.72-.95,1.14-1.3,2.11-1.77,5.64-3.49,6.26-.18.2,1.09-.71,2.48-1.52,3.52-.06.08-.12.15-.18.23Z"/>
        <path class="cls-3" d="m86.35,92.99c-.23-1.39-1.07-2.79-2.04-3.68-1.35-1.23-3.01-2.16-4.81-2.43-2.44-.36-6.57,1.74-6.53,4.55.05,3.46,5.22,5,7.89,5.48,1.18.21,2.45.36,3.55-.14,1.74-.79,2.19-2.28,1.94-3.78Z"/>
      </g>
      <path class="cls-1" d="m57.22,99.87c-1.58-2.25-4.69-3.64-7.25-4.76-2.83-1.17-5.8-2.1-8.84-2.68,3.1.25,6.17.86,9.18,1.74,3.13,1.03,6.21,1.92,8.56,4.56,0,0-1.64,1.14-1.64,1.14h0Z"/>
      <path class="cls-1" d="m63.23,74.05c2.35-3.85,5.66-7.12,9.73-9.06-3.55,2.39-6.29,6-7.92,9.91,0,0-1.81-.85-1.81-.85h0Z"/>
      <path class="cls-1" d="m62.7,78.35c-1.25-2.08-2.33-4.18-3.26-6.41-.84-2.18-1.78-4.58-1.36-6.95-.08,2.37,1.14,4.5,2.26,6.5,1.17,1.98,2.54,3.91,3.98,5.69,0,0-1.63,1.17-1.63,1.17h0Z"/>
      <path class="cls-1" d="m63.87,69.7c.35-4.92-.29-10.08-2.39-14.6,2.08,3.24,3.3,6.98,3.95,10.77.21,1.29.38,2.55.43,3.91l-2-.08h0Z"/>
      <path class="cls-1" d="m65.69,124.56c2.86-2.37,6.54-3.41,10-4.52-2.88,1.53-5.81,3.1-8.13,5.4-.12.13-.29.32-.31.38l-1.55-1.26h0Z"/>
      <path class="cls-1" d="m60.71,146.67c-4.76-4.81-9.78-10.32-10.88-17.22.75,3.34,2.73,6.19,4.89,8.75,2.16,2.54,4.67,4.88,7.27,6.93,0,0-1.29,1.53-1.29,1.53h0Z"/>
    </g>
  </g>
</svg>