<?xml version="1.0" encoding="UTF-8"?>
<svg xmlns="http://www.w3.org/2000/svg" viewBox="0 0 226.54 168.01">
  <defs>
    <style>
      .cls-1 {
        fill: #008d4a;
      }

      .cls-1, .cls-2, .cls-3, .cls-4 {
        stroke-width: 0px;
      }

      .cls-5 {
        isolation: isolate;
      }

      .cls-2 {
        fill: #e64228;
      }

      .cls-3 {
        fill: #fff;
      }

      .cls-4 {
        fill: #eab520;
        mix-blend-mode: screen;
        opacity: .67;
      }
    </style>
  </defs>
  <g class="cls-5">
    <g id="Layer_2" data-name="Layer 2">
      <g id="Blancos">
        <path class="cls-3" d="m224.35,32.97c-1.95-9.18-4.47-16.53-8.43-24.58-2.9-5.9-9.3-9.22-15.78-8.21-.02,0-4.88.78-4.88.78-.54.07-1.07.15-1.6.23-12.53,1.96-23.95,7.32-32.5,11.77-5.47,2.84-8.64,8.75-7.99,14.88.7,6.65-4.06,18.15-11.31,27.35-1.73,2.2-3.68,4.31-5.79,6.28-9.89,9.23-23.2,15.71-36.52,17.8-8.62,1.35-21.32,1.46-32.92-5.66-2.03-1.25-2.73-1.99-2.94-2.25-3.43-4.29-8.83-6.26-14.03-5.45-1.52.24-3.02.71-4.44,1.43-13.08,6.61-24.45,13.12-34.77,19.91-.52.34-1.01.71-1.48,1.11l-3.68,3.13c-6,5.11-7.02,13.99-2.35,20.33,18.78,25.45,44.37,43.26,73.99,51.5,1.97.55,4,1.06,6.04,1.53,1.12.26,2.25.5,3.37.72,3.37.67,6.81,1.21,10.23,1.61,2.27.26,4.58.46,6.86.59,8.83.52,17.71.09,26.39-1.27,2.6-.41,5.21-.9,7.77-1.48,1.12-.25,2.24-.52,3.34-.8,13.58-3.45,26.16-9.15,37.43-16.97.02-.02.35-.24.49-.34,1.62-1.14,3.27-2.37,4.93-3.68,1.24-.98,2.27-1.82,3.23-2.64.45-.38.89-.78,1.33-1.18l.42-.38c2.28-2.03,4.25-3.91,6.02-5.75.77-.81,1.54-1.62,2.3-2.47,6.69-7.41,12.42-15.84,17.04-25.06.51-1.01,1-2.03,1.47-3.05,5.72-12.26,9.24-25.19,10.47-38.42.15-1.58.26-3.19.34-4.77.15-3.05.17-6.11.07-9.11l-.03-.83c-.09-1.99-.23-4.01-.44-5.99-.14-1.4-.29-2.67-.46-3.86-.32-2.27-.72-4.55-1.2-6.78Z"/>
      </g>
      <g id="Productos">
        <g>
          <path class="cls-1" d="m209.68,36.09c-1.64-7.73-3.73-13.98-7.22-21.09l-5.04.81c1.46,13.84-33.82,38.89-41.65,48.81-2.35,2.98-4.93,5.77-7.71,8.35-23.66,22.07-62.97,32.43-91.9,14.64-2.64-1.62-35.56,14.57-37.48,12.17l-3.68,3.13c17.59,23.84,42.43,40.69,71.31,47.32,31.62,7.26,66.07.2,90.98-21.05,2.33-1.99,4.56-4.09,6.69-6.3,21.4-22.25,32.19-56.36,25.71-86.82Z"/>
          <path class="cls-2" d="m204.97,37.31c-1.57-7.36-4.23-14.73-7.55-21.5-10.13,1.3-20.06,5.64-29.33,10.46,1.39,13.18-7,28.77-14.46,38.22-2.24,2.84-4.7,5.49-7.34,7.96-22.54,21.02-59.97,30.88-87.53,13.95-2.52-1.55-4.97-3.36-6.8-5.65-11.42,5.77-22.57,12-33.29,19.05,16.76,22.71,41.29,39.93,68.79,46.24,30.11,6.91,62.93.19,86.64-20.04,2.22-1.89,4.35-3.89,6.37-6,20.38-21.19,30.65-53.68,24.48-82.68Z"/>
          <path class="cls-4" d="m209.68,36.09c-1.64-7.73-3.73-13.98-7.22-21.09l-5.04.81c-10.13,1.3-20.06,5.64-29.33,10.46,1.39,13.18-7,28.77-14.46,38.22-2.24,2.84-4.7,5.49-7.34,7.96-22.54,21.02-59.97,30.88-87.53,13.95-2.52-1.55-4.97-3.36-6.8-5.65-11.42,5.77-22.57,12-33.29,19.05l-3.68,3.13c17.59,23.84,42.43,40.69,71.31,47.32,31.62,7.26,66.07.2,90.98-21.05,2.33-1.99,4.56-4.09,6.69-6.3,21.4-22.25,32.19-56.36,25.71-86.81Z"/>
          <path class="cls-3" d="m60.52,125.47c17.62,13.43,46.55,13.82,67.73,10.93,13.97-2.09,27.43-6.55,40.03-13.08-7.81,5.39-16.54,9.5-25.66,12.37-23.67,7.62-63.25,8.19-82.1-10.22h0Z"/>
        </g>
      </g>
    </g>
  </g>
</svg>