<?xml version="1.0" encoding="UTF-8"?>
<svg xmlns="http://www.w3.org/2000/svg" viewBox="0 0 213.31 188.43">
  <defs>
    <style>
      .cls-1 {
        isolation: isolate;
      }

      .cls-2 {
        fill: #fff;
      }

      .cls-2, .cls-3, .cls-4, .cls-5, .cls-6 {
        stroke-width: 0px;
      }

      .cls-3 {
        fill: #e64228;
        mix-blend-mode: color-burn;
        opacity: .24;
      }

      .cls-4 {
        fill: #eab520;
      }

      .cls-5 {
        fill: #ad581b;
      }

      .cls-7 {
        mix-blend-mode: multiply;
      }

      .cls-6 {
        fill: #cd7534;
      }
    </style>
  </defs>
  <g class="cls-1">
    <g id="Layer_2" data-name="Layer 2">
      <g id="Blancos">
        <path class="cls-2" d="m213.22,112.88c-.48-8.42-2.92-16.75-7.04-24.07-3.26-5.82-7.13-10.13-11.81-13.17-.84-.55-1.62-.98-2.21-1.3h0c-.17-.09-.35-.18-.52-.27-.26-.13-.52-.25-.78-.36-.36-.2-.73-.38-1.11-.54-2.9-1.28-5.71-2.05-8.07-2.7-1.6-.44-3.15-.77-4.66-1.09-1.63-.35-4.07-.87-4.98-1.29-1.18-.86-2.53-2.05-3.95-3.32-1.71-1.51-3.64-3.23-5.85-4.87-3.25-2.42-7.15-5.13-12.23-6.78-.79-.26-1.63-.5-2.55-.71-.04,0-.07-.02-.11-.02-2.63-.6-5.37-.89-8.39-.89-.31,0-.63,0-.95,0-6.32-12.13-17.65-23.5-29.76-29.65-5.36-2.72-11.12-4.42-16.85-4.99.02-.54,0-1.08-.03-1.63-.38-5.11-3.34-9.66-7.85-12.09-2.83-1.52-7.51-3.15-12.17-3.15-8.38,0-15.14,5.46-16.52,13.3-.33,1.8-.61,3.6-.84,5.4-3.5.07-6.87.54-10.03,1.4-5.46,1.49-10.91,4.16-16.19,7.94-9.45,6.75-16.99,16.15-21.81,27.18-9.56,21.92-7.46,48.72,5.34,68.27,5.19,7.92,14.84,22.66,32.31,23.11.46.01.92.02,1.38.02,1.14,0,2.28-.04,3.42-.07.81-.03,1.62-.06,2.43-.06,1.02,0,1.53.06,1.78.1,1.27.24,3.56,1.6,5.78,2.92,3.03,1.8,6.47,3.83,10.7,5.31,4.03,1.41,8.34,2.12,12.82,2.12.23,0,.46,0,.69,0,7.51,13.96,19.92,24.45,34.06,28.55,6.12,1.78,12.24,2.32,17.88,2.63,3.63.21,6.63.31,9.45.31h0c9.77,0,17.71-1.22,24.99-3.83,20.16-7.23,35.86-26.25,42-50.86,1.88-7.54,2.62-14.36,2.25-20.86Z"/>
      </g>
      <g id="Productos">
        <g>
          <path class="cls-5" d="m69.58,15.92c.3-1.82,5-.55,6.82.44-7.44,5.57-4.66,15.57-3.57,22.81.24.72.47,1.39.47,1.39-.72.19-4.29,1.3-4.29,1.3-1.5-8.43-.93-17.7.57-25.93Z"/>
          <path class="cls-4" d="m125.94,61.04c-4.5-10.36-14.41-20.68-24.49-25.8-4.31-2.19-9.11-3.51-13.95-3.58-2.26-.03-6.25,0-9.53,1.2-3.45,1.27-8.38,3.81-8.38,3.81,0,0-11.27-4.94-21.69-2.09-4.11,1.12-7.97,3.2-11.42,5.67-7.4,5.29-13.15,12.65-16.77,20.97-7.42,17.02-6.11,38.4,4.14,54.06,4.79,7.32,10.69,16.09,20.15,16.33,3.82.1,7.69-.46,11.45.26,6.76,1.3,12.1,6.52,18.59,8.79,17.23,6.02,39.92-10.27,49.3-23.69,12.1-17.32,10.69-37.32,2.61-55.93Z"/>
          <path class="cls-3" d="m125.94,61.04c-4.5-10.36-14.41-20.68-24.49-25.8-4.31-2.19-9.11-3.51-13.95-3.58-2.26-.03-6.25,0-9.53,1.2-3.45,1.27-8.38,3.81-8.38,3.81,0,0-11.27-4.94-21.69-2.09-4.11,1.12-7.97,3.2-11.42,5.67-7.4,5.29-13.15,12.65-16.77,20.97-7.42,17.02-6.11,38.4,4.14,54.06,4.79,7.32,10.69,16.09,20.15,16.33,3.82.1,7.69-.46,11.45.26,6.76,1.3,12.1,6.52,18.59,8.79,17.23,6.02,39.92-10.27,49.3-23.69,12.1-17.32,10.69-37.32,2.61-55.93Z"/>
          <path class="cls-4" d="m64.9,40.71c-14.24,11.8-21.38,30.75-19.74,48.97.61,6.04,2.32,12,5.39,17.51-4.29-4.65-6.97-10.79-8.12-17.12-3.35-18.69,5.15-40.52,22.47-49.36h0Z"/>
          <path class="cls-4" d="m191.97,112.25c-1.04,11.71-5.71,22.98-12.45,32.55-13.94,19.76-39,25.63-61.43,18.13-9.51-3.17-18.16-9.17-24.23-17.12-.01-.01-.01-.03-.01-.03-.16-.38-.31-.75-.47-1.14-4.83-12.24-4.91-25.99-2.16-38.87.97-4.6,2.32-9.16,4.39-13.4,7.36-15.04,23.79-24.55,40.49-25.76,2.64-.19,5.35-.18,7.92.4.97.63,1.84,1.45,2.54,2.36,1.9,2.47,2.8,5.58,3.34,8.67,1.09,6.15.97,12.53-.32,18.63,4.24-3.78,8.9-7.68,13.79-10.61,3.65-2.2,9.52-3.52,20.55,1.01,5.48,4.41,8.77,17.13,8.06,25.17Z"/>
          <path class="cls-4" d="m196.41,130.1c-4.35,17.47-15.57,34.3-32.51,40.37-9.04,3.25-18.92,3.23-28.5,2.67-4.91-.27-9.85-.69-14.56-2.06-12.23-3.55-21.99-13.54-26.97-25.28,6.06,7.94,14.72,13.94,24.23,17.12,22.43,7.5,47.48,1.63,61.43-18.13,6.74-9.56,11.41-20.83,12.45-32.55.71-8.05-2.58-20.77-8.06-25.17.36.14.74.31,1.11.47.01.01.04.01.05.03.36.19.74.4,1.09.63,2.98,1.92,5.2,4.85,6.93,7.94,3.02,5.36,4.79,11.43,5.14,17.58.31,5.51-.49,11.03-1.83,16.38Z"/>
          <path class="cls-4" d="m183.91,87.08c-11.03-4.53-16.89-3.21-20.55-1.01-4.88,2.93-9.55,6.83-13.79,10.61,1.3-6.1,1.41-12.48.32-18.63-.54-3.08-1.44-6.19-3.34-8.67-.7-.91-1.57-1.72-2.54-2.36.44.1.88.22,1.31.36,2.93.95,5.51,2.75,7.97,4.57,3.54,2.63,6.65,5.95,10.2,8.47,3.82,2.73,9.77,3.3,14.24,4.52,2.02.56,4.06,1.11,5.97,1.96h.01c.06.06.13.1.19.17Z"/>
          <path class="cls-3" d="m196.41,130.1c-4.35,17.47-15.57,34.3-32.51,40.37-9.04,3.25-18.92,3.23-28.5,2.67-4.91-.27-9.85-.69-14.56-2.06-12.23-3.55-21.99-13.54-26.97-25.28,6.06,7.94,14.72,13.94,24.23,17.12,22.43,7.5,47.48,1.63,61.43-18.13,6.74-9.56,11.41-20.83,12.45-32.55.71-8.05-2.58-20.77-8.06-25.17.36.14.74.31,1.11.47.01.01.04.01.05.03.36.19.74.4,1.09.63,2.98,1.92,5.2,4.85,6.93,7.94,3.02,5.36,4.79,11.43,5.14,17.58.31,5.51-.49,11.03-1.83,16.38Z"/>
          <path class="cls-3" d="m183.91,87.08c-11.03-4.53-16.89-3.21-20.55-1.01-4.88,2.93-9.55,6.83-13.79,10.61,1.3-6.1,1.41-12.48.32-18.63-.54-3.08-1.44-6.19-3.34-8.67-.7-.91-1.57-1.72-2.54-2.36.44.1.88.22,1.31.36,2.93.95,5.51,2.75,7.97,4.57,3.54,2.63,6.65,5.95,10.2,8.47,3.82,2.73,9.77,3.3,14.24,4.52,2.02.56,4.06,1.11,5.97,1.96h.01c.06.06.13.1.19.17Z"/>
          <path class="cls-6" d="m126.15,102.77c-4.27,5.3-7.02,11.91-7.14,17.6-.13,6.54,1.51,12.98,3.54,19.2.09.28.19.58.41.78.38.35.97.31,1.48.24,9.5-1.35,17.9-4.87,23.96-12.55,4.77-6.05,7.46-13.81,7.24-21.52-.08-2.58-.58-5.34-1.61-7.71-.85-1.96-2.29-3.75-4.26-4.56-8.84-3.64-17.7,1.18-23.62,8.53Z"/>
          <g class="cls-7">
            <path class="cls-6" d="m122.42,129.31c.52.73,1.23,1.72,2.03,2,.57,0,1.01-.65,1.59-.91,1.03-.56,2.28-.63,3.39-.23,1.5.6,2.33,1.83,3.39,2.5.53.34,1.1.52,1.77.45.66-.01,1.42-.2,2.09.07-1.41,0-2.84,1.03-4.24.16-1.34-.69-2.23-1.85-3.36-2.25-.84-.32-1.83-.28-2.65.08-.66.27-1.23.94-2.1.76-1.06-.47-1.55-1.67-1.9-2.64h0Z"/>
          </g>
          <g class="cls-7">
            <path class="cls-6" d="m122.66,120.2c.14,1.14,1.36,1.69,2.32,1.63,1.02-.05,1.96-.6,2.96-1.08,1.56-.85,3.75-.97,4.96.64,1.68,1.46,4.14-.02,6.16.88.58.21,1.13.73,1.39,1.24.49,1.05,1.58,1,2.58,1.12,1.08.12,2.17.09,3.27.01-1.62.43-3.3.62-4.98.37-.6-.08-1.21-.58-1.5-1.07-1.38-1.9-3.82-.54-5.9-.97-1.27-.11-1.89-1.34-2.8-1.78-2.02-.73-4,1.23-6.14,1.13-1.11-.08-2.42-.9-2.32-2.12h0Z"/>
          </g>
          <g class="cls-7">
            <path class="cls-6" d="m124.85,110.79c1.67,3.3,7.03-.44,9.8.84.79.39.88,1.39,1.07,2.05.19.52.68.98,1.27,1.11.6.16,1.3-.04,1.82-.51-.35.62-1.09,1.01-1.88,1-.79-.04-1.55-.53-1.92-1.28-.31-.58-.25-1.25-.8-1.53-.42-.21-1.08-.14-1.75-.03-1.39.18-2.73.38-4.16.46-1.37.13-3.28-.53-3.44-2.1h0Z"/>
          </g>
          <g class="cls-7">
            <path class="cls-6" d="m143.39,112.98c.67-.4,1.69-.27,2.31.42,1.07,1.3.6,2.81,1.75,3.94.45.49,1.03.89,1.76,1.15-.76.16-1.61-.08-2.27-.57-.67-.47-1.16-1.28-1.33-2.07-.24-1.49-.45-2.8-2.21-2.87h0Z"/>
          </g>
          <g class="cls-7">
            <path class="cls-6" d="m130.49,103.99c1.24-.97,2.87-1.47,4.46-1.44.26.03.54-.05.95.22.39.35.33.78.35.99.05.86.7,1.63,1.51,1.98,1.24.57,2.8.09,3.93-.66.43-.25.96-.7,1.78-.57.71.14,1.08.8,1.32,1.35.79,2.14,3.5,1.03,5.18,2.02.48.24.9.67,1,1.19-.47-.98-1.62-1.16-2.58-1.16-1.47.1-3.73.14-4.39-1.65-.24-.47-.47-.8-.72-.82-.51-.11-1.49.91-2.54,1.22-1.05.37-2.3.46-3.39-.07-1.04-.51-1.91-1.58-1.89-2.82.02-.28-.01-.45-.04-.45-1.56-.44-3.46-.07-4.95.66h0Z"/>
          </g>
          <g class="cls-7">
            <path class="cls-6" d="m139.06,96.32c1.63-.27,3.77-1.09,4.57,1.01.34.89.54,1.7,1.54,1.64.62-.05,1.64-.75,2.43-.33.85.42.76,1.48,1.48,1.96-.57-.08-.9-.67-1.22-1-.34-.38-.65-.44-1.04-.29-.41.15-.85.46-1.5.6-.68.12-1.39-.14-1.85-.67-.75-.88-.45-1.98-1.42-2.49-.78-.4-1.93-.11-2.97-.43h0Z"/>
          </g>
        </g>
      </g>
    </g>
  </g>
</svg>