<?xml version="1.0" encoding="UTF-8"?>
<svg xmlns="http://www.w3.org/2000/svg" viewBox="0 0 231.45 197.99">
  <defs>
    <style>
      .cls-1 {
        fill: #f3d279;
        mix-blend-mode: color-burn;
      }

      .cls-1, .cls-2, .cls-3, .cls-4, .cls-5, .cls-6, .cls-7, .cls-8 {
        stroke-width: 0px;
      }

      .cls-2, .cls-3 {
        fill: #e64228;
      }

      .cls-2, .cls-6 {
        mix-blend-mode: overlay;
      }

      .cls-9 {
        isolation: isolate;
      }

      .cls-4 {
        fill: #fff;
      }

      .cls-5, .cls-6 {
        fill: #eab520;
      }

      .cls-7 {
        mix-blend-mode: multiply;
      }

      .cls-7, .cls-8 {
        fill: #cd7534;
      }
    </style>
  </defs>
  <g class="cls-9">
    <g id="Layer_2" data-name="Layer 2">
      <g id="Blancos">
        <path class="cls-4" d="m211.42,84.96c-9.51-14.12-31.9-34.82-56.1-36.62-2.98-5.14-6.74-10.2-11.36-15.31-3.97-4.37-8.38-8.53-13.08-12.36l-.12-.1c-4.2-3.43-8.95-7.32-15.51-9.95-2.89-1.16-5.79-2-8.64-2.5-.55-.14-1.3-.33-2.22-.49C97.9,4.24,90.02.47,80.61.04c-.6-.03-1.19-.04-1.78-.04-12.9,0-25.65,6.35-37.89,18.87C18.05,42.27,3.63,75.29.33,111.83c-.91,10.07-.73,28.98,10.74,42.45,6.57,7.72,15.7,12.19,26.39,12.94,7.66.53,15.83,1.06,23.96,1.06,11.06,0,20.83-.99,30.02-3.08,11.2,12.48,27.71,22.47,40.47,27.21,9.98,3.71,20.75,5.59,32,5.59h0c4.45,0,9.03-.3,13.63-.88,1.38-.18,2.79-.33,4.22-.48,7.34-.79,15.66-1.67,23.73-5.64,12.35-6.07,16.93-17.32,20.27-25.54.7-1.72,1.36-3.34,2.04-4.81,11.14-24.07-5.86-60.03-16.4-75.68Z"/>
      </g>
      <g id="Productos">
        <g>
          <path class="cls-3" d="m79.92,15.03c6.91.32,13.28,3.65,19.39,6.9.4.21.81.43,1.21.64-.03.02-.06.04-.08.07-.94,1.03,1.14,3.65,1.67,4.52,2.17,3.55,4.95,6.43,7.66,9.56,1.8,2.07,2.86,4.23,3.66,6.83.76,2.47,1.21,5.02,2.95,7.04,2.76,3.22,7.45,3.68,9.59,7.32.54.94.82,1.95,1.21,2.93,1.48,3.79,4.7,7.29,8.16,8.84,1.37.62,2.69,1.34,3.86,2.27,1.85,1.46,2.88,3.53,4.05,5.53.68,1.15,1.38,2.33,2.33,3.28.87.88,3.2,2.49,3.61.99.47,1.22.88,2.46,1.22,3.72,2.31,8.74.38,18.24-3.96,26.18-4.34,7.93-10.93,14.43-18.11,19.92-9.22,7.04-19.62,12.51-30.59,16.26-19.84,6.79-38.71,5.85-59.22,4.41-20.06-1.4-24.81-21.68-23.24-39.07,2.79-30.94,14.67-61.61,36.39-83.82,7.61-7.78,17.38-14.83,28.26-14.33Z"/>
          <path class="cls-8" d="m100.52,22.57c.68-.52,2.43.17,3.15.28,2.05.33,4.06.93,5.99,1.71,4.49,1.8,8.05,4.73,11.73,7.74,4.08,3.33,7.93,6.94,11.48,10.84,6.26,6.91,11.73,14.93,14.35,23.96,1.31,4.51,1.61,9.18,2,13.84.03.34,0,.61-.05.82-.41,1.49-2.73-.11-3.61-.99-.95-.95-1.65-2.12-2.33-3.28-1.16-2-2.2-4.06-4.05-5.53-1.17-.92-2.49-1.64-3.86-2.27-3.46-1.56-6.68-5.05-8.16-8.84-.39-.98-.67-1.99-1.21-2.93-2.14-3.64-6.83-4.1-9.59-7.32-1.74-2.02-2.19-4.57-2.95-7.04-.8-2.6-1.86-4.76-3.66-6.83-2.71-3.13-5.48-6.01-7.66-9.56-.53-.88-2.61-3.49-1.67-4.52.03-.03.05-.05.08-.07Z"/>
          <path class="cls-6" d="m79.92,15.03c6.91.32,13.28,3.65,19.39,6.9.4.21.81.43,1.21.64-.03.02-.06.04-.08.07-.94,1.03,1.14,3.65,1.67,4.52,2.17,3.55,4.95,6.43,7.66,9.56,1.8,2.07,2.86,4.23,3.66,6.83.76,2.47,1.21,5.02,2.95,7.04,2.76,3.22,7.45,3.68,9.59,7.32.54.94.82,1.95,1.21,2.93,1.48,3.79,4.7,7.29,8.16,8.84,1.37.62,2.69,1.34,3.86,2.27,1.85,1.46,2.88,3.53,4.05,5.53.68,1.15,1.38,2.33,2.33,3.28.87.88,3.2,2.49,3.61.99.47,1.22.88,2.46,1.22,3.72,2.31,8.74.38,18.24-3.96,26.18-4.34,7.93-10.93,14.43-18.11,19.92-9.22,7.04-19.62,12.51-30.59,16.26-19.84,6.79-38.71,5.85-59.22,4.41-20.06-1.4-24.81-21.68-23.24-39.07,2.79-30.94,14.67-61.61,36.39-83.82,7.61-7.78,17.38-14.83,28.26-14.33Z"/>
          <path class="cls-7" d="m100.52,22.57c.68-.52,2.43.17,3.15.28,2.05.33,4.06.93,5.99,1.71,4.49,1.8,8.05,4.73,11.73,7.74,4.08,3.33,7.93,6.94,11.48,10.84,6.26,6.91,11.73,14.93,14.35,23.96,1.31,4.51,1.61,9.18,2,13.84.03.34,0,.61-.05.82-.41,1.49-2.73-.11-3.61-.99-.95-.95-1.65-2.12-2.33-3.28-1.16-2-2.2-4.06-4.05-5.53-1.17-.92-2.49-1.64-3.86-2.27-3.46-1.56-6.68-5.05-8.16-8.84-.39-.98-.67-1.99-1.21-2.93-2.14-3.64-6.83-4.1-9.59-7.32-1.74-2.02-2.19-4.57-2.95-7.04-.8-2.6-1.86-4.76-3.66-6.83-2.71-3.13-5.48-6.01-7.66-9.56-.53-.88-2.61-3.49-1.67-4.52.03-.03.05-.05.08-.07Z"/>
          <path class="cls-5" d="m98.44,120.57c-19.4,23.99,18.67,50.33,38.7,57.77,12.39,4.6,25.47,5.55,38.52,3.89,7.66-.97,16.17-1.24,23.23-4.7,9.09-4.47,11.29-14.5,15.31-23.18,7.74-16.72-5.72-46.89-15.22-61-10.74-15.94-37.89-37.58-58.3-27.6-6.61,3.24-10.19,16.51-14.44,22.4-7.19,9.96-15.17,19.36-23.84,28.06-1.48,1.48-2.79,2.93-3.95,4.37Z"/>
          <path class="cls-1" d="m178.24,149.08c4.01-.94,6.93-3.2,7.7-7.39,2.32-12.66-3.89-25.63-13.94-33.61-17.99-14.3-39.1-5.52-39.1-5.52,0,0-8.14,21.56,9.32,36.57,5.42,4.66,24.84,12.56,36.01,9.96Z"/>
          <path class="cls-2" d="m98.44,120.57c-19.4,23.99,18.67,50.33,38.7,57.77,12.39,4.6,25.47,5.55,38.52,3.89,7.66-.97,16.17-1.24,23.23-4.7,9.09-4.47,11.29-14.5,15.31-23.18,7.74-16.72-5.72-46.89-15.22-61-10.74-15.94-37.89-37.58-58.3-27.6-6.61,3.24-10.19,16.51-14.44,22.4-7.19,9.96-15.17,19.36-23.84,28.06-1.48,1.48-2.79,2.93-3.95,4.37Z"/>
        </g>
      </g>
    </g>
  </g>
</svg>