<?xml version="1.0" encoding="UTF-8"?>
<svg xmlns="http://www.w3.org/2000/svg" viewBox="0 0 197.59 212.25">
  <defs>
    <style>
      .cls-1 {
        fill: #038e4c;
      }

      .cls-1, .cls-2, .cls-3, .cls-4, .cls-5, .cls-6, .cls-7, .cls-8, .cls-9 {
        stroke-width: 0px;
      }

      .cls-2 {
        fill: #008d4a;
      }

      .cls-10 {
        isolation: isolate;
      }

      .cls-3 {
        fill: #c4e5d5;
      }

      .cls-4 {
        fill: #e5f4ed;
      }

      .cls-5 {
        fill: #17975b;
      }

      .cls-6 {
        fill: #eab520;
        mix-blend-mode: soft-light;
      }

      .cls-7 {
        fill: #fff;
      }

      .cls-8 {
        fill: #faeecc;
        mix-blend-mode: multiply;
      }

      .cls-9 {
        fill: #40aa78;
      }
    </style>
  </defs>
  <g class="cls-10">
    <g id="Layer_2" data-name="Layer 2">
      <g id="Blancos">
        <path class="cls-7" d="m197.41,178.97c-2.97-32.3-27.82-56.12-47.1-80.27-24.41-27.78-26.46-59.58-51.25-83.51C88.26,6.28,74.29-2.49,59.85,1.01c-8.68-3.41-19.27,2.15-22.16,11-4.3,3.59-7.95,8.79-9.16,14.35-5.76,15.53-3.52,32.26,1.62,47.7-37.01,13.49-41.52,63.7-4.78,80.72-8.36,47.87,61.74,69.63,85.55,29.33,15.44,10.82,31.51,22.8,50.07,27.32,20.37,4.77,38.65-12,36.42-32.46Z"/>
      </g>
      <g id="Productos">
        <g>
          <path class="cls-5" d="m56.71,97.56c21.59,41.49,56.72,75.79,98.7,96.39,9.11,4.47,22.48,5.81,26.38-6.48,1.76-5.53.52-11.54-1.15-17.1-8.05-26.79-25.97-41.23-42.13-62.53-12.7-16.75-24.12-35.43-31.68-55.11-5.34-13.9-16.83-29.76-31.7-34.99-18.69-6.58-36.04,10.43-35,29.15.99,17.71,8.48,35.12,16.57,50.66Z"/>
          <path class="cls-9" d="m46.11,49.55c19.24,55.52,43.98,97.05,94.3,129.68,6.57,4.2,13.41,8,20.5,11.26-14.33-6.23-27.73-14.58-39.92-24.37-39.51-31.05-59.66-69.61-74.88-116.57h0Z"/>
          <path class="cls-9" d="m53.5,34.42c7.75,18.72,15.46,38.69,26.37,55.78,0,0,2.25,3.46,2.25,3.46l-2.47-3.31c-11.96-16.9-19.47-36.47-26.15-55.93h0Z"/>
          <path class="cls-9" d="m146.09,132.05c13.5,12.25,23.53,28.35,28.88,45.77,0,0,.98,3.51.98,3.51l-1.23-3.42c-6.29-17.03-16.1-32.71-28.63-45.85h0Z"/>
          <path class="cls-9" d="m129.69,156.69c9.67,8.41,19.06,17.43,30.49,23.43.77.38,1.53.77,2.3,1.17-.81-.3-1.61-.61-2.41-.93-11.97-5.1-21.61-14.29-30.38-23.67h0Z"/>
          <path class="cls-9" d="m93.08,82.71c13.81,22.25,28.01,44.84,47.72,62.42,0,0,3.99,3.44,3.99,3.44l-4.16-3.24c-20.43-16.86-34.85-39.68-47.54-62.62h0Z"/>
          <path class="cls-9" d="m90.92,41.67c13.94,17.84,20.39,40.13,32,59.36,0,0,2.39,3.82,2.39,3.82,0,0-2.61-3.67-2.61-3.67-12.54-18.76-18.88-40.96-31.78-59.5h0Z"/>
          <path class="cls-1" d="m61.63,21.65c.56-.69,1.43-1.12,2.31-1.15.6-.02,1.22.12,1.79-.06.83-.27,1.29-1.13,1.8-1.85.89-1.25,1.57-.65,2.63-1.06,1.27-.48,1.03-1.69-.18-2.04-1.86-.54-3.85-.36-5.75.02-1.9.38-3.76.96-5.68,1.2-2.22.28-3.56-3.1-5.83-.82-1.07,1.07-.86,2.67-1.64,3.88-1.72,2.69-4.71,4.24-6.43,6.9-.62.96-2.05,3.75-1.22,4.9,1.25,1.72,2.3-1.3,3.72-1.85,1.24-.48,2.79.35,3.92-.35,1.03-.64,1.05-2.12,1.69-3.15.58-.94,1.7-1.84,2.79-1.96,1.46-.17,3,.89,4.36-.12.79-.58,1.03-1.64,1.63-2.42.02-.02.04-.05.06-.07Z"/>
          <path class="cls-2" d="m77.27,116.63c.17,17.64-16.84,30.61-35.18,27.95-9.38-1.36-16.78-6.67-22.62-13.67-5.88-7.04-5.5-18.34-1.89-26.34,4.72-10.46,15.76-17.91,27.58-18.21,15.02-.38,28.98,11.11,31.63,25.36.31,1.67.47,3.31.48,4.92Z"/>
          <path class="cls-4" d="m75.77,116.58c.16,16.8-16.03,29.14-33.49,26.6-8.93-1.3-15.97-6.35-21.53-13.01-5.6-6.7-5.23-17.46-1.8-25.08,4.49-9.96,15.01-17.05,26.26-17.34,14.3-.36,27.59,10.58,30.11,24.14.3,1.59.45,3.15.46,4.68Z"/>
          <path class="cls-2" d="m113.28,130.32c.17,17.64-16.84,30.61-35.18,27.95-9.38-1.36-16.78-6.67-22.62-13.67-5.88-7.04-5.5-18.34-1.89-26.34,4.72-10.46,15.76-17.91,27.58-18.21,15.02-.38,28.98,11.11,31.63,25.36.31,1.67.47,3.31.48,4.92Z"/>
          <path class="cls-4" d="m111.78,130.28c.16,16.8-16.03,29.14-33.49,26.6-8.93-1.3-15.97-6.35-21.53-13.01-5.6-6.7-5.23-17.46-1.8-25.08,4.49-9.96,15.01-17.05,26.26-17.34,14.3-.36,27.59,10.58,30.11,24.14.3,1.59.45,3.15.46,4.68Z"/>
          <path class="cls-2" d="m102.18,162.29c.17,17.64-16.84,30.61-35.18,27.95-9.38-1.36-16.78-6.67-22.62-13.67-5.88-7.04-5.5-18.34-1.89-26.34,4.72-10.46,15.76-17.91,27.58-18.21,15.02-.38,28.98,11.11,31.63,25.36.31,1.67.47,3.31.48,4.92Z"/>
          <path class="cls-4" d="m100.68,162.24c.16,16.8-16.03,29.14-33.49,26.6-8.93-1.3-15.97-6.35-21.53-13.01s-5.23-17.46-1.8-25.08c4.49-9.96,15.01-17.05,26.26-17.34,14.3-.36,27.59,10.58,30.11,24.14.3,1.59.45,3.15.46,4.68Z"/>
          <g>
            <path class="cls-3" d="m67.17,176.72c.65.62,1.52,1.02,2.39.82,1.52-.36,1.69-2.13,1.48-3.39-.16-.94-.53-1.88-1.03-2.69-.39-.64-1.06-1.42-1.84-1.54-1.27-.2-1.87,1.67-2.07,2.61-.3,1.45-.04,3.13,1.07,4.19Z"/>
            <path class="cls-3" d="m56.14,168.04c-.08.89.15,1.82.86,2.38,1.23.97,2.72,0,3.57-.96.63-.71,1.14-1.59,1.46-2.48.25-.71.45-1.71.05-2.4-.64-1.12-2.48-.42-3.33.01-1.32.67-2.47,1.92-2.61,3.45Z"/>
            <path class="cls-3" d="m56.04,154c-.75.49-1.34,1.25-1.33,2.15.01,1.57,1.7,2.12,2.97,2.2.95.06,1.95-.1,2.85-.41.71-.24,1.62-.72,1.91-1.46.48-1.2-1.22-2.2-2.09-2.6-1.35-.61-3.04-.74-4.32.11Z"/>
            <path class="cls-3" d="m66.96,145.18c-.85-.28-1.81-.26-2.51.3-1.22.99-.6,2.65.14,3.7.55.78,1.3,1.47,2.09,1.98.63.4,1.57.82,2.33.59,1.23-.37.96-2.32.73-3.25-.36-1.43-1.32-2.84-2.78-3.31Z"/>
            <path class="cls-3" d="m80.67,148.22c-.31-.84-.92-1.58-1.8-1.77-1.53-.33-2.45,1.19-2.8,2.41-.27.91-.34,1.93-.24,2.87.08.75.34,1.74.99,2.19,1.06.73,2.41-.7,3-1.46.9-1.18,1.39-2.8.86-4.24Z"/>
            <path class="cls-3" d="m86.84,160.82c.46-.77.66-1.71.26-2.52-.69-1.4-2.45-1.17-3.63-.69-.88.36-1.72.94-2.39,1.6-.54.53-1.15,1.35-1.09,2.14.09,1.29,2.05,1.45,3.01,1.43,1.48-.03,3.06-.66,3.85-1.97Z"/>
            <path class="cls-3" d="m80.83,173.51c.89-.12,1.75-.55,2.13-1.36.67-1.42-.61-2.65-1.73-3.27-.83-.46-1.81-.76-2.74-.87-.75-.09-1.77-.06-2.35.48-.95.87.14,2.51.75,3.24.95,1.14,2.42,1.98,3.94,1.78Z"/>
            <path class="cls-3" d="m66.27,126.41c-.58.68-.93,1.57-.68,2.44.45,1.5,2.22,1.56,3.47,1.28.92-.21,1.85-.64,2.62-1.18.62-.43,1.35-1.14,1.43-1.93.13-1.28-1.78-1.77-2.73-1.91-1.46-.21-3.13.14-4.12,1.3Z"/>
            <path class="cls-3" d="m74.3,114.9c-.89-.03-1.81.25-2.33.99-.89,1.29.16,2.71,1.16,3.51.74.59,1.65,1.05,2.56,1.31.72.21,1.73.35,2.4-.08,1.08-.7.28-2.5-.21-3.33-.74-1.28-2.06-2.36-3.59-2.41Z"/>
            <path class="cls-3" d="m88.31,114c-.53-.72-1.33-1.26-2.23-1.2-1.56.1-2.02,1.82-2.02,3.1,0,.95.21,1.95.57,2.82.28.7.81,1.57,1.56,1.83,1.22.41,2.13-1.34,2.47-2.23.53-1.38.56-3.08-.35-4.31Z"/>
            <path class="cls-3" d="m97.74,124.39c.23-.87.16-1.82-.45-2.49-1.05-1.16-2.68-.44-3.68.35-.74.59-1.39,1.38-1.85,2.2-.37.65-.73,1.61-.45,2.36.44,1.21,2.37.83,3.29.54,1.41-.44,2.76-1.48,3.15-2.96Z"/>
            <path class="cls-3" d="m95.5,138.25c.82-.36,1.53-1.01,1.67-1.9.25-1.55-1.32-2.37-2.57-2.66-.92-.21-1.94-.22-2.88-.07-.74.12-1.71.44-2.13,1.12-.67,1.1.83,2.37,1.63,2.91,1.23.83,2.88,1.23,4.28.61Z"/>
            <path class="cls-3" d="m42.26,131.06c.65.62,1.52,1.02,2.39.82,1.52-.36,1.69-2.13,1.48-3.39-.16-.94-.53-1.88-1.03-2.69-.39-.64-1.06-1.42-1.84-1.54-1.27-.2-1.87,1.67-2.07,2.61-.3,1.45-.04,3.13,1.07,4.19Z"/>
            <path class="cls-3" d="m31.23,122.38c-.08.89.15,1.82.86,2.38,1.23.97,2.72,0,3.57-.96.63-.71,1.14-1.59,1.46-2.48.25-.71.45-1.71.05-2.4-.64-1.12-2.48-.42-3.33.01-1.32.67-2.47,1.92-2.61,3.45Z"/>
            <path class="cls-3" d="m31.14,108.34c-.75.49-1.34,1.25-1.33,2.15.01,1.57,1.7,2.12,2.97,2.2.95.06,1.95-.1,2.85-.41.71-.24,1.62-.72,1.91-1.46.48-1.2-1.22-2.2-2.09-2.6-1.35-.61-3.04-.74-4.32.11Z"/>
            <path class="cls-3" d="m42.06,99.52c-.85-.28-1.81-.26-2.51.3-1.22.99-.6,2.65.14,3.7.55.78,1.3,1.47,2.09,1.98.63.4,1.57.82,2.33.59,1.23-.37.96-2.32.73-3.25-.36-1.43-1.32-2.84-2.78-3.31Z"/>
            <path class="cls-3" d="m55.76,102.56c-.31-.84-.92-1.58-1.8-1.77-1.53-.33-2.45,1.19-2.8,2.41-.27.91-.34,1.93-.24,2.87.08.75.34,1.74.99,2.19,1.06.73,2.41-.7,3-1.46.9-1.18,1.39-2.8.86-4.24Z"/>
          </g>
          <path class="cls-8" d="m181.8,187.47c-3.9,12.28-17.28,10.95-26.38,6.48-19.7-9.67-37.9-22.36-53.89-37.39.06.27.12.54.17.82.31,1.67.47,3.31.48,4.92.17,17.64-16.84,30.61-35.18,27.95-9.38-1.36-16.78-6.67-22.62-13.67-5.88-7.04-5.5-18.34-1.89-26.34.85-1.88,1.91-3.67,3.14-5.33-1.17-.04-2.35-.15-3.54-.32-9.38-1.36-16.78-6.67-22.62-13.67-5.88-7.04-5.5-18.34-1.89-26.34,4.72-10.46,15.76-17.91,27.58-18.21,2.13-.05,4.23.14,6.29.53-5.85-12.66-10.55-26.24-11.32-40-.3-5.43.95-10.71,3.32-15.32,0,0,0,0,0,0-.83-1.14.6-3.94,1.22-4.9,1.72-2.66,4.71-4.22,6.43-6.9.78-1.22.57-2.81,1.64-3.88,2.27-2.28,3.61,1.1,5.83.82,1.92-.24,3.78-.82,5.68-1.2,1.9-.38,3.89-.56,5.75-.02.7.2,1.06.7,1,1.17,1.37.24,2.75.58,4.14,1.07,14.87,5.23,26.36,21.09,31.7,34.99,7.56,19.68,18.98,38.36,31.68,55.11,16.16,21.3,34.08,35.74,42.13,62.53,1.67,5.56,2.91,11.57,1.15,17.09ZM45.21,87.77c-11.25.28-21.76,7.37-26.25,17.33-3.44,7.62-3.81,18.38,1.79,25.08,5.56,6.66,12.6,11.71,21.53,13.01,1.49.21,2.98.32,4.43.33,1.58-1.91,3.4-3.64,5.4-5.14-2.09-6.47-1.19-14.19,1.48-20.11,3.37-7.46,9.95-13.39,17.73-16.29-5.52-8.58-15.54-14.48-26.11-14.21Zm66.11,37.83c-2.52-13.56-15.8-24.5-30.1-24.14-2.65.07-5.25.52-7.75,1.29-.47.14-.94.3-1.4.46-7.51,2.73-13.87,8.42-17.11,15.59-2.47,5.48-3.35,12.6-1.56,18.66,4.87-3.29,10.67-5.29,16.67-5.44.2-.01.4-.01.6-.01.61,0,1.21.02,1.81.05,12.14.71,23.2,8.99,27.62,19.9,7.08-4.83,11.77-12.6,11.68-21.68-.01-1.53-.16-3.09-.46-4.68Zm-11.1,31.97c-.22-1.16-.51-2.3-.88-3.41-.15-.47-.31-.93-.49-1.38-4.22-10.87-15.34-19.08-27.4-19.35-.44-.01-.89-.01-1.33,0-.21.01-.41.01-.62.03-5.64.26-11.08,2.23-15.62,5.41-.43.29-.85.6-1.26.93-1.43,1.09-2.75,2.32-3.95,3.66h0c-.42.47-.84.96-1.23,1.46-1.43,1.8-2.63,3.76-3.57,5.85-3.43,7.61-3.8,18.37,1.8,25.07,5.56,6.66,12.6,11.71,21.53,13.01,17.46,2.54,33.65-9.81,33.49-26.6-.01-1.53-.16-3.09-.46-4.68Z"/>
          <path class="cls-6" d="m45.21,87.77c-11.25.28-21.76,7.37-26.25,17.33-3.44,7.62-3.81,18.38,1.79,25.08,5.56,6.66,12.6,11.71,21.53,13.01,1.49.21,2.98.32,4.43.33,1.58-1.91,3.4-3.64,5.4-5.14-2.09-6.47-1.19-14.19,1.48-20.11,3.37-7.46,9.95-13.39,17.73-16.29-5.52-8.58-15.54-14.48-26.11-14.21Z"/>
          <path class="cls-6" d="m111.32,125.6c-2.52-13.56-15.8-24.5-30.1-24.14-2.65.07-5.25.52-7.75,1.29-.47.14-.94.3-1.4.46-7.51,2.73-13.87,8.42-17.11,15.59-2.47,5.48-3.35,12.6-1.56,18.66,4.87-3.29,10.67-5.29,16.67-5.44.2-.01.4-.01.6-.01.61,0,1.21.02,1.81.05,12.14.71,23.2,8.99,27.62,19.9,7.08-4.83,11.77-12.6,11.68-21.68-.01-1.53-.16-3.09-.46-4.68Z"/>
          <path class="cls-6" d="m100.22,157.57c-.22-1.16-.51-2.3-.88-3.41-.15-.47-.31-.93-.49-1.38-4.22-10.87-15.34-19.08-27.4-19.35-.44-.01-.89-.01-1.33,0-.21.01-.41.01-.62.03-5.64.26-11.08,2.23-15.62,5.41-.43.29-.85.6-1.26.93-1.43,1.09-2.75,2.32-3.95,3.66h0c-.42.47-.84.96-1.23,1.46-1.43,1.8-2.63,3.76-3.57,5.85-3.43,7.61-3.8,18.37,1.8,25.07,5.56,6.66,12.6,11.71,21.53,13.01,17.46,2.54,33.65-9.81,33.49-26.6-.01-1.53-.16-3.09-.46-4.68Z"/>
        </g>
      </g>
    </g>
  </g>
</svg>