<?xml version="1.0" encoding="UTF-8"?>
<svg id="Layer_2" data-name="Layer 2" xmlns="http://www.w3.org/2000/svg" viewBox="0 0 171.15 211.47">
  <defs>
    <style>
      .cls-1 {
        fill: #fff;
      }

      .cls-2 {
        fill: #3779b6;
      }

      .cls-3 {
        fill: #eab520;
      }
    </style>
  </defs>
  <g id="Blancos">
    <path class="cls-1" d="m158.28,39.95c-1.93-1.13-6.22-4.1-10.34-7.03.63-19.01-.04-20.38-1.55-23.49C141.79,0,131.67,0,122.73,0c-3.14,0-5.73.08-5.83.08-7.47.24-13.63,5.95-14.43,13.38l-1.19,11.02c-3.75,1.2-7.89,2.5-10.85,3.35-1.81.52-3.63,1.02-5.35,1.49-9.98,2.73-14.98,4.1-18.54,9.98-2.58,4.28-3.03,9.33-1.22,13.85,1.25,3.12,3.14,5.23,5.19,6.7-1.69,4.04-3.13,7.97-4.05,11.14-1.6,5.51-9.18,20.46-12.7,25.27-4.04,2.04-11.47,5.94-18.44,9.9-16.82,9.55-21.61,13.87-24.19,18.11l-.11.18C7.19,130.74-.77,143.79.06,161.38c.92,19.46,15.97,35.4,28.58,43.15,7.62,4.68,18.12,6.95,32.12,6.95,6.9,0,14.62-.53,23.62-1.63,20.61-2.51,51.63-18.49,62.63-32.26,10.53-13.17,21.02-48.46,22.25-61.1,1.3-13.32-1.3-34.54-4.55-46-.06-.21-.12-.42-.18-.63,3.2-2.23,5.47-5.58,6.27-9.58,2.34-11.61-8.08-17.71-12.53-20.32Z"/>
  </g>
  <g id="Layer_1-2" data-name="Layer 1">
    <g>
      <g>
        <path class="cls-2" d="m143.69,52.9c-2.02-4.02-9.86-11.18-17-13.03-7.14-1.85-28.14,2.79-32.23,7.06-4.09,4.27-11.29,20.31-13.59,28.26-2.3,7.94-14.09,31.49-18.47,33.56-4.38,2.07-35.24,18.08-38.46,23.35-3.21,5.27-9.51,15.42-8.89,28.57.62,13.15,11.71,25.09,21.44,31.07,9.74,5.98,28.47,5.36,46.08,3.22,17.6-2.14,44.74-16.73,52.73-26.73,7.99-10,17.93-41.87,19.04-53.2,1.11-11.33-1.25-30.58-4.05-40.45-2.8-9.88-6.6-21.67-6.6-21.67Z"/>
        <path class="cls-3" d="m150.7,52.9c-4.85-2.84-18.05-12.52-18.05-12.52,0,0,.93-22.98.25-24.38-.68-1.4-15.53-.93-15.53-.93l-2.23,20.67s-13.39,4.44-20.57,6.51c-7.18,2.07-14.59,3.79-15.2,4.81-.61,1.01.3.89,6.89,2.81,6.59,1.92,12.58,3.55,12.58,3.55,0,0-2.25,5.52-4.84,11.26-2.59,5.75-4.04,11.71-3.8,13.55.24,1.83,8.95-4.17,14.45-7.69,5.5-3.52,14.95-13.72,14.95-13.72,0,0,.33,1.07,1.06,3.77.73,2.7,1.56,10.41,3.18,15.6,1.62,5.19,3.67,6.59,4.61,6.66.94.06.77-.78,2.17-8.92,1.41-8.14,3.5-22.33,3.5-22.33l5.82,2.71c5.82,2.71,13.41,3.69,15.36,3.43,1.95-.26.23-2.02-4.62-4.85Z"/>
      </g>
      <path class="cls-1" d="m52.3,187.09c5.87.22,11.7.56,17.43.2,5.73-.33,11.28-1.56,16.88-3.11,10.98-3.12,22.8-5.56,31.08-14.07-1.43,2.59-3.52,4.81-5.84,6.7-7.05,5.56-15.87,8.21-24.4,10.49-5.67,1.51-11.67,2.65-17.66,2.46-5.97-.13-11.8-1.17-17.48-2.67h0Z"/>
    </g>
  </g>
</svg>