<?xml version="1.0" encoding="UTF-8"?>
<svg id="Layer_2" data-name="Layer 2" xmlns="http://www.w3.org/2000/svg" xmlns:xlink="http://www.w3.org/1999/xlink" viewBox="0 0 218.74 186.43">
  <defs>
    <style>
      .cls-1 {
        clip-path: url(#clippath-2);
      }

      .cls-1, .cls-2, .cls-3 {
        fill: none;
      }

      .cls-4 {
        fill: #fff;
      }

      .cls-5 {
        fill: #3779b6;
      }

      .cls-6 {
        fill: #081c2c;
      }

      .cls-7 {
        fill: #213241;
      }

      .cls-2 {
        clip-path: url(#clippath);
      }

      .cls-3 {
        clip-path: url(#clippath-1);
      }
    </style>
    <clipPath id="clippath">
      <path class="cls-7" d="m72.84,24.37c.98-.76,2.46.15,3.63-.26,2.56-1.6.96-6.92,4.95-7.88,3.47-1.82,5.73,2.75,8.64,2.67,5.37-5.88,9.13-.27,8.57,5.79-.25.7-.98,1.28-1.7,1.09-4.06-2.89-3.92,4.43-6.68,5.33-2.84.79-3.89-2.59-6.92-.31-1,.75-2.32,1.58-3.4.94-1.34-1.22-1.89-2.74-3.8-1.45-2.06.56-4.17-4.63-3.29-5.93Z"/>
    </clipPath>
    <clipPath id="clippath-1">
      <path class="cls-7" d="m154.59,72.14s0-.05,0-.08c.11-1.16,1.12-2.61,2.73-1.77.57.29.88.89,1.59.99.55.07,1.15-.12,1.58-.4.49-.31.85-.74,1.22-1.14,1.36-1.47,3.5-3.2,5.97-2.76,1.3.23,2.34,1,3.28,1.73.84.66,1.69,1.54,2.89,1.75,1.19.2,2.24-.49,3.29-.82,1.25-.39,2.51-.13,3.57.51,1.27.76,2.18,1.92,2.65,3.14.56,1.43.62,2.96.57,4.47-.03.78-.1,1.59-.61,2.25-1.3,1.68-4.03.41-5.15-.73-.34-.34-.62-.73-1.06-.99-1.33-.8-2.38.48-2.88,1.35-.79,1.37-1.6,3.94-3.89,4.09-.94.06-1.8-.47-2.36-1.1-1.34-1.51-2.1-3.34-3.29-4.93-.62-.83-1.58-1.23-2.67-.68-.86.43-1.66.95-2.38,1.53-.51.41-1.32,1.59-2.15,1.5-.67-.08-.91-.8-1.09-1.25-.29-.7-.58-1.39-.85-2.1-.55-1.44-1.08-3-.95-4.55Z"/>
    </clipPath>
    <clipPath id="clippath-2">
      <path class="cls-7" d="m80.94,111.48c.89-1.62,1.34-3.18-.5-4.45-1.55-1.08-3.92-.05-5.47-1.13-1.42-.99-1.42-3.25-2.79-4.3-1.15-.88-2.81-.57-4.13.03s-2.58,1.45-4.02,1.56c-2.91.23-6.13-2.51-8.41-.71-2.04,1.61-.85,5.11-2.33,7.24-1.15,1.66-3.73,2.19-4.3,4.14-.47,1.61.77,3.21,2.06,4.29s2.83,2.1,3.26,3.73c.6,2.24-.93,5.3,1,6.58,1.83,1.21,4.07-1.07,6.26-1.05,3.35.03,9.1,5.97,11.28.1.37-.99.28-2.58,1.24-3.2.76-.49,2.92.04,3.93-.3,1.25-.43,2.37-1.48,2.47-2.79.12-1.54-1.14-2.82-1.58-4.3-.51-1.7,1.04-3.61,2.03-5.43Z"/>
    </clipPath>
  </defs>
  <g id="Blancos">
    <path class="cls-4" d="m70.95,186.43c-4.31,0-8.63-.39-12.85-1.15-26.65-4.83-49.09-25.08-55.83-50.39C-2.18,118.19-.06,101.58,8.38,86.86c5.67-9.89,14.09-18.51,24.25-24.95.43-25.21,13.81-45.46,35.55-54.38,2.51-2.94,5.49-4.52,7.92-5.36,2.22-.91,4.55-1.37,6.94-1.37,1.35,0,2.61.15,3.77.4,3.59-.79,7.32-1.2,11.16-1.2,7.13,0,14.48,1.43,21.24,4.14,16.56,6.64,29.52,20.47,35.73,37.25,1.36-.09,2.72-.14,4.08-.14,7.72,0,15.32,1.53,22.57,4.55,29.9,12.44,44.8,47.06,33.21,77.17-8.46,21.96-29.3,38.95-53.1,43.29-3.93.72-7.93,1.08-11.91,1.08h0c-9.43,0-18.37-1.96-26.3-5.67-5.04,6.4-11.11,11.71-18.02,15.71-10.25,5.93-22.18,9.06-34.52,9.06Z"/>
  </g>
  <g id="Layer_1-2" data-name="Layer 1">
    <g>
      <path class="cls-5" d="m16.76,131.03c5.35,20.1,23.54,35.79,44.01,39.49,12.62,2.29,26.08.29,37.19-6.13,26.77-15.49,34.56-56.13,15.63-80.5-33.77-43.5-111.15-6.67-96.83,47.14Z"/>
      <path class="cls-5" d="m47.62,63.2c0,18.14,11.75,35.74,28.5,42.71,22.09,9.19,52.65-1.66,63.38-23.16,11.96-23.98-1.29-54.82-25.86-64.68-10.5-4.21-22.65-4.27-31.92.88-22.94,5.15-34.1,23.68-34.09,44.25Z"/>
      <path class="cls-5" d="m200.81,117.58c8.73-22.67-2.67-48.65-24.97-57.93-39.85-16.58-82.48,30.81-64.87,69.55,8.38,18.42,28.97,25.77,48.05,22.3,18.93-3.45,35.23-16.88,41.79-33.92Z"/>
      <g>
        <path class="cls-7" d="m72.84,24.37c.98-.76,2.46.15,3.63-.26,2.56-1.6.96-6.92,4.95-7.88,3.47-1.82,5.73,2.75,8.64,2.67,5.37-5.88,9.13-.27,8.57,5.79-.25.7-.98,1.28-1.7,1.09-4.06-2.89-3.92,4.43-6.68,5.33-2.84.79-3.89-2.59-6.92-.31-1,.75-2.32,1.58-3.4.94-1.34-1.22-1.89-2.74-3.8-1.45-2.06.56-4.17-4.63-3.29-5.93Z"/>
        <g class="cls-2">
          <path class="cls-6" d="m81.9,21.15c3.25-1.58,7.02-2.49,10.65-1.87,4.19.58,7.36,3.96,5.2,8.2-2.99,5.7-10.97,6.12-16.67,6.08-3.89-.35-7.5-4.42-5.02-8.15,1.28-2.08,3.64-3.32,5.84-4.25-2.04,1.09-4.31,2.4-5.42,4.49-2.1,3.41,1.27,6.79,4.69,7.05,5.14-.02,13.07-.56,15.76-5.62,1.13-2.05.69-4.55-1.31-5.86-4.02-2.59-9.43-1.67-13.72-.06h0Z"/>
        </g>
      </g>
      <g>
        <path class="cls-7" d="m154.59,72.14s0-.05,0-.08c.11-1.16,1.12-2.61,2.73-1.77.57.29.88.89,1.59.99.55.07,1.15-.12,1.58-.4.49-.31.85-.74,1.22-1.14,1.36-1.47,3.5-3.2,5.97-2.76,1.3.23,2.34,1,3.28,1.73.84.66,1.69,1.54,2.89,1.75,1.19.2,2.24-.49,3.29-.82,1.25-.39,2.51-.13,3.57.51,1.27.76,2.18,1.92,2.65,3.14.56,1.43.62,2.96.57,4.47-.03.78-.1,1.59-.61,2.25-1.3,1.68-4.03.41-5.15-.73-.34-.34-.62-.73-1.06-.99-1.33-.8-2.38.48-2.88,1.35-.79,1.37-1.6,3.94-3.89,4.09-.94.06-1.8-.47-2.36-1.1-1.34-1.51-2.1-3.34-3.29-4.93-.62-.83-1.58-1.23-2.67-.68-.86.43-1.66.95-2.38,1.53-.51.41-1.32,1.59-2.15,1.5-.67-.08-.91-.8-1.09-1.25-.29-.7-.58-1.39-.85-2.1-.55-1.44-1.08-3-.95-4.55Z"/>
        <g class="cls-3">
          <path class="cls-6" d="m171.51,70.52c4.37.12,14.8,3.6,13.3,9.33-1.88,4.21-12.46,5.32-16.62,5.02-4.68-.23-15.26-2.94-12.87-9.44,3.02-5.09,10.89-5.83,16.19-4.92-4.35-.47-8.83.09-12.63,2.3-1.76,1-3.5,2.71-3.13,4.84,1.43,4.68,8.21,5.89,12.5,6.24,4.3.26,8.71-.3,12.72-1.92,1.26-.49,2.63-1.12,3.17-2.39.54-1.21-.14-2.63-1.04-3.67-2.94-3.21-7.33-4.76-11.59-5.4h0Z"/>
        </g>
      </g>
      <g>
        <path class="cls-7" d="m80.94,111.48c.89-1.62,1.34-3.18-.5-4.45-1.55-1.08-3.92-.05-5.47-1.13-1.42-.99-1.42-3.25-2.79-4.3-1.15-.88-2.81-.57-4.13.03s-2.58,1.45-4.02,1.56c-2.91.23-6.13-2.51-8.41-.71-2.04,1.61-.85,5.11-2.33,7.24-1.15,1.66-3.73,2.19-4.3,4.14-.47,1.61.77,3.21,2.06,4.29s2.83,2.1,3.26,3.73c.6,2.24-.93,5.3,1,6.58,1.83,1.21,4.07-1.07,6.26-1.05,3.35.03,9.1,5.97,11.28.1.37-.99.28-2.58,1.24-3.2.76-.49,2.92.04,3.93-.3,1.25-.43,2.37-1.48,2.47-2.79.12-1.54-1.14-2.82-1.58-4.3-.51-1.7,1.04-3.61,2.03-5.43Z"/>
        <g class="cls-1">
          <path class="cls-6" d="m67.93,126.96c-8.73,2.94-17.39-6.35-13.81-14.85-1.88,8.48,5.31,16.1,13.81,14.85h0Z"/>
          <path class="cls-6" d="m54.12,112.11c2.25-8.89,13.96-11.55,20.08-4.82,6.28,6.63,2.78,18.05-6.27,19.67,5.97-1.6,9.79-7.98,8.3-13.9-2.82-11.16-18.15-11.71-22.11-.94h0Z"/>
        </g>
      </g>
      <path class="cls-4" d="m148.01,90.39c4.82,6.19,12.23,10.66,19.93,11.56,3.75.4,7.48-.62,11-1.76,3.67-1.24,6.86-3.17,9.66-6.02,0,0,.35.19.35.19-.46,2.1-1.61,4.06-3.11,5.68-7.76,8.47-21.64,6.2-29.9-.21-3.34-2.53-6.27-5.61-8.26-9.22l.34-.22h0Z"/>
      <path class="cls-4" d="m70.55,43.16c4.11,1.55,8.2,2.01,12.32,2.04,8.05,0,16.46-1.28,22.44-7.08,2.94-2.73,5.05-6.41,5.72-10.73.38,2.15.23,4.44-.42,6.61-3.48,11.48-16.99,16.31-28,14.59-4.37-.64-8.96-2.19-12.06-5.44h0Z"/>
      <path class="cls-6" d="m120.29,136.88c6.17-17.96,4.26-39.64-8.48-54.32-14.07-17.51-39.04-21.36-59.46-13.83,4.78-1.91,9.81-3.2,14.93-3.86,41.46-5.17,67.57,34.52,53,72.01h0Z"/>
      <path class="cls-6" d="m141.27,59.89c-8.91,4.41-16.76,10.8-23.02,18.5-.79.96-1.89,2.39-2.64,3.36,5.6-9.97,14.82-18.1,25.66-21.87h0Z"/>
      <path class="cls-4" d="m55.45,161.65c16.61,4.93,36.08.71,47.49-12.64,5.94-6.87,9.22-15.61,11.16-24.37.66-3.51,1.13-7.56,1.15-11.15.02-4.3-.41-8.63-1.26-12.99,0,0,.38-.13.38-.13,3.87,8.08,4.89,17.61,3.28,26.61-2.32,13.52-11.14,25.87-23.13,32.52-11.89,6.42-26.66,7.2-39.18,2.52,0,0,.13-.38.13-.38h0Z"/>
    </g>
  </g>
</svg>