<?xml version="1.0" encoding="UTF-8"?>
<svg id="Layer_2" data-name="Layer 2" xmlns="http://www.w3.org/2000/svg" viewBox="0 0 303.33 206.15">
  <defs>
    <style>
      .cls-1 {
        fill: #008d4a;
      }

      .cls-1, .cls-2, .cls-3, .cls-4, .cls-5 {
        stroke-width: 0px;
      }

      .cls-6, .cls-4 {
        opacity: .6;
      }

      .cls-2 {
        fill: #fff;
      }

      .cls-3 {
        fill: #eab520;
      }

      .cls-4, .cls-5 {
        fill: #cd7534;
      }
    </style>
  </defs>
  <g id="Blancos">
    <path class="cls-2" d="m278.63,47.9c-2.74-3.23-6.09-6.12-10.56-9.08-13.44-8.91-28.88-13.71-39.33-16.55-5.72-1.55-10.92-2.7-15.89-3.51-.68-.11-1.36-.21-2.03-.31-1.28-.19-2.39-.35-3.24-.57-4.91-1.29-10.8-2.6-17.33-2.6-1.1,0-2.21.04-3.3.11-3.83.26-7.37.82-10.8,1.37-.51.08-1.01.16-1.5.24-.08-.96-.23-1.99-.49-3.07-.02-.08-.04-.17-.06-.25-.15-.6-.34-1.2-.56-1.79-.07-.2-.15-.4-.22-.59-.02-.04-.03-.08-.05-.12-.26-.63-.56-1.23-.89-1.82-.16-.29-.32-.57-.49-.84-.59-.93-1.26-1.81-2.03-2.65-.76-.82-1.61-1.57-2.53-2.24-2.96-2.15-6.5-3.35-10.5-3.56-.53-.03-1.06-.04-1.59-.04h-.42c-2.78.03-6.99.07-11.51,1.74-2,.73-3.92,1.73-5.88,3.05-.63.42-1.28.89-1.97,1.42-.49.37-.97.75-1.45,1.14,0,0-.06.04-.08.07-1.35,1.08-2.82,2.28-4.27,3.72-.22-.05-.43-.09-.65-.13-.26-.05-.52-.1-.79-.15-2.63-1-5.41-1.52-8.18-1.52-.73,0-1.46.04-2.18.11-.62.06-1.22.16-1.82.29-.35,0-.7,0-1.04,0-3.37,0-6.89.21-10.47.61-6.01.68-12.18,1.91-18.34,3.65-1.96.56-3.77,1.12-5.54,1.72-.25.08-.5.18-.76.28-29.42,5.6-52.65,19.74-67.24,40.95C3.68,69.97-.67,87.08.08,106.41c.02,2.41.19,4.83.5,7.19,0,0,0,.01,0,.02,1.47,14.47,5.67,29.18,11.87,41.64,2.44,7.3,6.86,13.24,12.9,17.33,8.36,7.55,18.99,12.42,32.3,14.82,8.8,8.18,21.47,12.61,36.4,12.61.97,0,1.87-.02,2.68-.05,10.07,4.11,22.3,6.18,36.46,6.18s26.22-2,32.36-3.18c7,1.84,14.06,2.78,21.02,2.78,23.71,0,40.36-10.53,47.34-15.93,16.28-4.56,28.85-17.26,35.36-25.12.47-.49.93-1,1.38-1.54,7-5.07,25.06-20.18,30.91-44.68,7.25-30.37-9.63-54.83-22.96-70.58Z"/>
  </g>
  <g id="Layer_1-2" data-name="Layer 1">
    <g>
      <path class="cls-1" d="m172.72,32.42c5.01-.62,10.14-1.72,15.25-2.07,5.49-.37,10.54.65,15.81,2.04,2.25.59,4.39.81,6.67,1.18,4.84.79,9.63,1.89,14.36,3.18,12.07,3.28,24.48,7.62,34.97,14.58,2.69,1.78,5.3,3.8,7.4,6.27,10.64,12.57,25.62,33.11,19.82,57.41s-27.07,37.35-27.07,37.35c0,0-14.5,20.31-32.87,23.69,0,0-24.17,22.99-60.92,11.49,0,0-41.09,9.78-66.72-2.79,0,0-23.21,3.13-34.33-11.38-16.67-2.03-30.61-8.2-38.51-23.42-12.35-23.78-17.62-61.17-1.57-84.51,13.66-19.87,35.41-30.68,58.76-34.91.57-.1,1.17-.43,1.72-.62,1.58-.54,3.17-1.03,4.77-1.48,5.22-1.48,10.56-2.57,15.95-3.18,6.61-.75,13.37-.79,19.92.48,5.02.97,9.37,3.44,14.26,4.75,5.42,1.45,11,2.33,16.61,2.6,4.97.24,9.95,0,14.89-.54.28-.03.56-.06.84-.1Z"/>
      <path class="cls-3" d="m113.85,40.17c-1.07.47-2.13,1.06-2.87,1.97s-1.12,2.19-.7,3.28c.42,1.12,1.53,1.81,2.57,2.41,2.13,1.24,4.26,2.48,6.39,3.72,1.6.93,3.28,1.89,5.13,2,1.78.11,3.49-.57,5.21-1.03s3.67-.67,5.18.28c1.05.67,1.83,1.86,3.06,2.07,1.39.23,2.58-.91,3.79-1.64,2.34-1.43,5.28-1.44,8.01-1.15s5.5.82,8.2.31c1.31-.25,2.57-.74,3.9-.85,1.61-.14,3.21.29,4.82.39,3.2.2,6.87-1.38,7.61-4.5.21-.88.21-1.89.86-2.52.7-.68,2.01-.73,2.36-1.65.22-.57-.08-1.21-.45-1.7-1.75-2.32-5-2.94-7.9-2.76s-5.79.95-8.69.68c-3.78-.36-7.14-2.45-10.73-3.7-4.57-1.6-9.6-1.77-14.29-.61-1.41.35-2.93.76-4.25,1.38-1.46.69-2.71,1.77-4.25,2.28-1.54.51-2.73-.11-4.25-.19-2.98-.17-6,.35-8.74,1.55Z"/>
      <path class="cls-3" d="m132.1,41.52c4.12-4.74,2.81-12.32,6.26-17.56,1.28-1.95,3.14-3.43,4.97-4.88,1.6-1.27,3.24-2.56,5.16-3.27,2.05-.76,4.29-.79,6.48-.81,1.39-.01,2.96.05,3.91,1.07.91.98.9,2.48.83,3.82-.31,5.99-.62,11.99-.93,17.98-.07,1.26-.12,2.57.33,3.75s1.56,2.2,2.82,2.14"/>
      <path class="cls-3" d="m172.48,50.23c9.13-2.92,19.11.58,26.64,6.02,15.35,10.66,28.14,25.47,35.32,42.8,3.56,8.67,5.52,18.04,5.25,27.31-2.25-18.33-10.74-35.07-22.51-49.03-5.81-7-12.43-13.34-19.62-18.92-7.04-5.66-15.83-9.59-25.08-8.18h0Z"/>
      <path class="cls-3" d="m226.65,176.35c7.06-10.71,11.25-22.58,12.51-35.34,3.75,12.68-1.63,27.84-12.51,35.34h0Z"/>
      <path class="cls-3" d="m186.38,41.94c25.27-5.16,56.18,1.09,73.54,21.22-6.54-5.08-13.55-9.05-21.06-12.21-16.57-6.82-34.64-9.05-52.49-9h0Z"/>
      <path class="cls-3" d="m257.54,89.8c11.76,16.42,15.71,49.55.55,64.91,10.65-17.79,6.64-46.32-.55-64.91h0Z"/>
      <path class="cls-3" d="m128.85,37.37c-2.57-5.08-5.48-9.02-9.54-13.01,6.42-.62,12.05,7.08,9.54,13.01h0Z"/>
      <path class="cls-3" d="m117.41,38.42c-3.88-.36-7.11-2.49-8.92-5.94,3.97-.72,8.04,2.01,8.92,5.94h0Z"/>
      <path class="cls-3" d="m64.95,42.85c-23.72,14.79-48,39.39-49.49,68.78-3.93-29.49,23.54-58.79,49.49-68.78h0Z"/>
      <path class="cls-3" d="m126.04,52.64c-9.02,7.28-16.41,16.56-21.72,26.74-5.21,10.46-7.51,21.85-10.23,33.2-.1-11.86,1.85-24.01,7.18-34.73,5.62-10.51,14.01-19.96,24.77-25.21h0Z"/>
      <path class="cls-3" d="m67.3,94.79c-9.29,14.99-9.35,35.65-5.4,52.41-8.79-14.71-8.06-40.64,5.4-52.41h0Z"/>
      <path class="cls-3" d="m152.99,88.55c10.16,19.13,11.4,44.3,9.02,65.52-2.48-21.93-3.22-44.1-9.02-65.52h0Z"/>
      <path class="cls-3" d="m142.05,54.9c.33,6.77-.55,14.01-1.05,20.75-.19,2.28-.35,4.53-.44,6.96-1.3-2.08-1.91-4.5-2.26-6.88-.83-7.11.28-14.52,3.75-20.83h0Z"/>
      <path class="cls-3" d="m34.48,160.62c-10.31-6.27-10.63-20.8-7.27-31.15,1.66,10.7.94,21.8,7.27,31.15h0Z"/>
      <g class="cls-6">
        <path class="cls-5" d="m158.79,39.21c.17,1.02.43,2.04,1,2.76.73.71,1.22,1.15,2.13,1.73,0,0,0,.11,0,.11-.52.34-1.24.28-1.78,0-1.51-.92-1.75-3.09-1.47-4.59,0,0,.11,0,.11,0h0Z"/>
      </g>
      <g class="cls-6">
        <path class="cls-5" d="m132.06,41.49c.55-2.24,2.1-3.8,2.87-6.23,0,0,.11.03.11.03-.1,1.17-.32,2.33-.7,3.48-.3,1.2-.96,2.33-2.2,2.8,0,0-.09-.08-.09-.08h0Z"/>
      </g>
      <path class="cls-4" d="m140.91,23.71c.18,1.22-.95,1.96-.84,3.08.11,1.06,1.29,1.5,2.23,1.5,2.71-.02,4.96-2.05,7.54-2.85,1.72-.53,3.57-.52,5.28-1.11,1.7-.58,3.33-2.09,3.15-3.88,0,0,1.43-.55,1.39-2.55-.1-.68-.32-1.32-.79-1.82-.95-1.02-2.52-1.08-3.91-1.07-2.19.02-4.43.06-6.48.81-1.92.71-3.56,2-5.16,3.27-1.67,1.32-3.34,2.69-4.6,4.4.33.67,2.18.23,2.18.23Z"/>
    </g>
  </g>
</svg>