<?xml version="1.0" encoding="UTF-8"?>
<svg id="Layer_2" data-name="Layer 2" xmlns="http://www.w3.org/2000/svg" viewBox="0 0 194.8 260.91">
  <defs>
    <style>
      .cls-1 {
        fill: #19995c;
      }

      .cls-1, .cls-2, .cls-3, .cls-4, .cls-5, .cls-6 {
        stroke-width: 0px;
      }

      .cls-2 {
        fill: #008d4a;
      }

      .cls-3 {
        fill: #fff;
      }

      .cls-4 {
        fill: #33a46e;
      }

      .cls-5 {
        fill: #e9e3de;
      }

      .cls-6 {
        fill: #d1c4ba;
      }
    </style>
  </defs>
  <g id="Blancos">
    <path class="cls-3" d="m158.54,260.91c-1.4,0-2.76-.19-4.06-.56-.62-.02-1.24-.08-1.86-.19-6.92-1.13-12.14-6.9-12.56-13.9-.02-.33-.03-.66-.04-1-.04-2.35-.77-4.65-2.26-6.47-3.24-3.97-8.56-14.85-9.7-44.38-.46-11.91-4.35-23.67-11.9-35.95h0c-10.46-10.84-44.97-43.28-105.57-69.7-3.25-1.42-5.92-3.92-7.46-7.11-3.81-7.87-5.42-20.88,2.7-31.23.48-.61,1-1.17,1.55-1.69.76-6.94,3.79-14.3,9.2-22.36.05-1.06.22-2.12.5-3.16,2.91-10.82,14.67-16.54,19.59-18.5,1.79-.71,3.67-1.06,5.54-1.06.17,0,.35,0,.52,0C48.47.68,53.69.13,55.09.04c.34-.02.68-.04,1.02-.04,4.54,0,8.86,2.06,11.72,5.64,38.58,48.29,72.22,108.95,82.43,127.95,5.2,7.04,10.43,14.34,15.54,21.73,4.76,6.88,9.44,13.94,13.91,20.98.76,1.2,1.57,2.4,2.39,3.62,3.71,5.55,7.91,11.84,10.1,19.5,5.29,18.54,2.44,33.99-7.76,43.33-.02.11-.99.85-2.04,1.62-1.58,1.17-2.77,2.76-3.52,4.58-1.47,3.59-4.91,9.15-12.75,9.89-2.12,1.25-4.58,1.99-7.18,2.06-.14,0-.28,0-.42,0Z"/>
  </g>
  <g id="Layer_1-2" data-name="Layer 1">
    <g>
      <path class="cls-6" d="m155.03,245.36c1.23-3.04,3.27-6.03,5.94-8.7-2.22,2.96-3.1,6.32-2.43,9.24.5-2.93,1.94-5.92,4.17-8.63,1.15,2.04,1.83,4.29,2.01,6.64,1.15-2.54,1.27-5.17.34-7.42,2.32,1.13,3.92,2.97,4.46,5.15-.2-.81.44-1.95.16-2.86s-.88-1.72-1.63-2.4c-1.38-1.24-3.69-2.58-6.32-2-5.22,1.17-6.9,7.99-6.72,10.97Z"/>
      <path class="cls-4" d="m42.22,18.65s-9.38,3.73-10.65,8.46c0,0,52.58,51.45,84.08,98.6l8.9-4.82S54.6,26.76,42.22,18.65Z"/>
      <path class="cls-1" d="m140.46,147.13S101.87,72.28,56.11,15c0,0-9.32.61-13.44,8.98,0,0,49,54.25,85.55,116.26l12.24,6.89Z"/>
      <path class="cls-1" d="m130.53,151.9s-37.05-43.37-113.94-76.88c0,0-4.13-8.73,1.05-15.34,0,0,60.08,24.18,121.42,85.15l-8.52,7.07Z"/>
      <path class="cls-2" d="m72.74,68.32c-21.07-19.24-43.35-34.11-43.35-34.11-4.99,7.29-7.32,13.38-7.2,18.35,0,0,32.81,22.09,47.81,35.21,14.35,12.12,27.9,25.19,40.63,39.03,6.79,7.38,13.12,15.35,18.36,23.9,1.86-3.78,4.92-6.74,8.46-9.19-19.44-26.19-40.81-51.35-64.71-73.18Z"/>
      <path class="cls-5" d="m153.46,163.86c-5.19-7.5-10.52-14.97-16.01-22.36-3.53,2.45-6.59,5.41-8.46,9.19,8,13.04,13.45,27.43,14.06,43.16.41,10.63,1.58,30.63,6.94,35.71,5.36,5.08,14.13,8.86,21.96,3.94,10.06-6.33,8.6-20.21,5.82-29.95-1.96-6.87-6.86-13.14-10.71-19.19-4.4-6.92-8.93-13.75-13.6-20.5Z"/>
      <path class="cls-6" d="m161.84,235.63c-5.81-2.61-9.39-8.58-11.18-14.49-.16-.67-.59-2.4-.73-3.05-.4-2.34-.61-4.89-.65-7.25.08-1.39.13-2.77.24-4.14.2,2.75.39,5.47.81,8.18,1.29,7.9,4.57,16.18,11.5,20.75h0Z"/>
      <path class="cls-6" d="m165.43,235.72c5.59-3.93,9.21-10.44,8.73-17.34,0-.98-.2-1.94-.25-2.95.27.95.61,1.91.78,2.89,1.41,7.04-2.7,14.58-9.26,17.4h0Z"/>
      <path class="cls-6" d="m166.51,218.99c.23-8.59-2.08-16.99-4.88-25.04-.4-1.16-.86-2.3-1.25-3.48.61,1.07,1.17,2.17,1.74,3.27,3.58,7.77,6.02,16.68,4.38,25.24h0Z"/>
    </g>
  </g>
</svg>