<?xml version="1.0" encoding="UTF-8"?>
<svg id="Layer_2" data-name="Layer 2" xmlns="http://www.w3.org/2000/svg" viewBox="0 0 156.63 248.24">
  <defs>
    <style>
      .cls-1 {
        fill: #008d4a;
      }

      .cls-1, .cls-2, .cls-3 {
        stroke-width: 0px;
      }

      .cls-2 {
        fill: #e64228;
      }

      .cls-3 {
        fill: #fff;
      }
    </style>
  </defs>
  <g id="Blancos">
    <path class="cls-3" d="m21.24,248.24c-8.87,0-16.19-4.63-19.57-12.37-2.59-5.93-2.17-12.43,1.23-19.34,5.35-10.86,13.45-19.58,20.6-27.27,3.59-3.86,6.97-7.5,9.84-11.18,12.45-15.94,20.15-35.57,21.67-55.26.18-2.35.2-5.32.22-8.46.05-7.1.1-15.16,1.92-23.01,2.63-11.37,8.45-19.67,17.29-24.68.83-.47,1.67-.91,2.54-1.32.29-.41.59-.81.91-1.2,3.07-3.69,6.86-5.3,9.72-6.06.22-.86.44-1.84.61-2.62l.24-1.08c.25-1.11.47-2.3.65-3.53.29-1.94.52-3.95.77-6.08,1.57-13.53,3.72-32.05,23.23-42.3,3.14-1.65,6.33-2.48,9.48-2.48,2.32,0,4.56.44,6.68,1.31,5.75,2.35,9.7,7.27,10.56,13.15,1.52,10.33-6.7,17-9.8,19.51l-.17.14c-1.07.98-2.01,3.11-2.47,5.6-.96,5.86-.7,12.36.61,17.9,4.29,1.06,7.91,3.74,10.23,7.42,11.81,5.87,18.66,17.48,18.37,32.07-.24,11.89-3.27,25.38-9.27,41.24-17.59,46.51-57.81,85.79-107.58,105.07-.4.16-.86.35-1.36.55-4.16,1.71-10.45,4.29-17.17,4.29h0Z"/>
  </g>
  <g id="Layer_1-2" data-name="Layer 1">
    <g>
      <path class="cls-2" d="m71.77,94.74c-2.2,9.5-1.16,20.87-1.8,29.23-1.77,22.97-10.61,45.17-24.81,63.34-9.29,11.89-22.05,22.14-28.81,35.84-1.03,2.1-1.87,4.57-.94,6.72,3.01,6.91,14.28,1.35,18.94-.46,44-17.05,82.12-51.84,98.97-96.39,4.27-11.29,8.06-24.1,8.3-36.23.3-15.32-10.81-21.71-24.92-20.89-11.31.66-24.51-2.05-34.86,3.82-5.73,3.25-8.61,8.73-10.07,15.02Z"/>
      <path class="cls-1" d="m103.09,57.73c-.83,3.63-1.56,7.55-3.71,10.68-1.05,1.51-2.42,2.76-4.15,3.42-1.83.7-4.44.28-5.8,1.92-.78.94-.8,2.36-.28,3.47.82,1.76,2.61,2.71,4.29,3.47,8.06,3.6,17.5,4.99,25.74,1.83,1.74-.67,3.44-1.55,4.75-2.88s2.2-3.15,2.1-5.02c-.1-1.68-1.25-2.97-3.01-2.38-.94.31-1.81.94-2.8.95-1.89.01-3.25-2.11-3.94-3.64-4.34-9.56-5.37-22.12-3.65-32.41.97-5.43,3.31-10.8,7.48-14.42,1.14-.99,7.77-5.77,3.5-7.52-1.13-.46-2.43,0-3.51.57-14.73,7.74-14.03,22.99-16.13,37.28-.22,1.53-.51,3.11-.87,4.69Z"/>
      <path class="cls-3" d="m38.83,215.94c19.78-9.28,44.25-22.84,54.75-42.73-8.11,20.82-34.42,35.9-54.75,42.73h0Z"/>
    </g>
  </g>
</svg>