<?xml version="1.0" encoding="UTF-8"?>
<svg xmlns="http://www.w3.org/2000/svg" viewBox="0 0 163.73 245.1">
  <defs>
    <style>
      .cls-1 {
        fill: #b2ddc9;
      }

      .cls-1, .cls-2, .cls-3, .cls-4, .cls-5 {
        stroke-width: 0px;
      }

      .cls-2 {
        fill: #008d4a;
      }

      .cls-6 {
        isolation: isolate;
      }

      .cls-3 {
        fill: #8cccae;
      }

      .cls-4 {
        fill: #eab520;
        mix-blend-mode: soft-light;
      }

      .cls-5 {
        fill: #fff;
      }
    </style>
  </defs>
  <g class="cls-6">
    <g id="Layer_2" data-name="Layer 2">
      <g id="Blancos">
        <path class="cls-5" d="M157.91,138.68c-2.32-1.84-5.07-2.92-7.86-3.2-1.24-2.39-3.13-4.46-5.55-5.92,2.86-3.84,5.76-7.66,8.59-11.52,6.8-8.74.93-22.3-9.83-23.85-1.61-2.38-3.9-4.3-6.66-5.46.96-4.91-.62-10.02-4.19-13.53,4.13-5.45,4.25-13.06.1-18.41,3.58-8.39,1.13-20.01-8.44-23.02-1-3.87-3.53-7.28-7.16-9.32-1-8.73-9.59-15.56-18.38-13.64-1.19-.63-2.47-1.09-3.78-1.39-4.61-11.65-21.8-12.84-27.69-1.68-4.92,2.85-6.44,8.21-9.73,12.38-1.72.89-3.29,2.13-4.59,3.69-8.43-1.55-16.61,4.49-17.95,13.08-3.65,1.83-6.56,5.31-7.65,9.25-9.67,3.02-12.47,13.63-8.97,22.62-4.9,6.47-4.3,12.55-.59,18.48-11.39,9.89-.92,23.95,5.66,33.73-6.1-.07-12.37,4.38-14.23,10.11-10.04,4.19-12.33,18.78-3.55,25.55,3.71,3.03,7.47,6,11.2,9.01-1.98,2.02-3.29,4.5-3.9,7.12-9.94,3.41-13.43,17.2-5.78,24.7,5.85,6.07,12.94,9.4,18.63,12.07,10.27,5.94,19.6,10.58,30.87,11.5-2.63,30.49,32.58,30.37,35.18,8.82,3.77-1.81,6.62-5.14,7.83-9.01,12.83,3.3,26.05-8.63,21.31-21.89,1.07-1.75,1.91-3.65,2.48-5.62,8.01-5.71,16.03-10.84,23.53-19.05,9.47-6.63,25.66-24.51,11.11-35.61Z"/>
      </g>
      <g id="Productos">
        <g>
          <path class="cls-1" d="M49.57,39.37c-.02.14-.01.27,0,.39,2.14,11.75,3.94,23.57,5.43,35.42.75,5.99,1.42,11.99,2,17.99.85,8.78.83,17.62,1.36,26.42.7,11.67,1.64,23.34,3.04,34.95,1.43,11.81,3.18,23.59,5.38,35.28,1.75,9.27,3.56,18.57,4.45,27.98.3,3.18.67,8.24.99,11.71,1.61.56,2.94.58,4.42-.33-.34-3.36-.89-8.75-1.21-11.8-1.06-9.88-2.81-19.66-4.68-29.41-3.22-16.73-5.58-33.61-7.28-50.56-2.37-23.55-3.33-47.44-7.37-70.89-1.59-9.19-3.47-18.33-5.6-27.4-.04-.18-.1-.37-.25-.47-.37-.24-.64.24-.7.72Z"/>
          <path class="cls-1" d="M71.76,207.14c-4.89.15-9.79-.41-14.62-1.17-4.78-.83-9.74-1.61-14.31-3.95-2.27-1.17-3.93-2.79-6.21-3.82-6.43-3.29-13.71-5.81-18.85-11.14,0,0,.16-.21.16-.21,2.15,1.18,4.32,2.2,6.54,3.13,4.5,1.87,9.18,3.37,13.43,5.91,2.11,1.14,3.96,3.05,5.95,4.25,4.04,2.37,8.82,3.43,13.54,4.51,4.72,1.11,9.51,1.94,14.37,2.21v.27h0Z"/>
          <path class="cls-1" d="M75.44,172.61c-.14,2.79,1.06,5.42,1.13,8.23.13,2.78-.06,5.44.49,8.16,1.38,5.57.28,12.01-3.76,16.24,0,0-.23-.13-.23-.13.96-3.78,1.74-7.99,1.93-11.86.13-1.32.06-2.58-.05-4-.3-2.78.15-5.67.29-8.41.27-2.74-.64-5.53-.06-8.27,0,0,.26.04.26.04h0Z"/>
          <path class="cls-1" d="M72.6,206.79c-7.03-.02-14.24-2.25-19.84-6.66-2.86-2.03-5.07-4.94-7.61-7.29-2.61-2.23-5.6-4-8.22-6.32-3.57-3.06-6.94-6.44-9.57-10.37l.2-.18c6.32,5.28,13.3,9.57,19.23,15.17,2.44,2.55,4.31,5.43,7.06,7.64,5.22,4.56,11.84,7.1,18.77,7.74,0,0-.02.27-.02.27h0Z"/>
          <path class="cls-1" d="M42.68,172.75c8.14,7.4,15.16,16.28,21.16,25.43,1.96,3.01,4.13,5.77,6.81,8.36l-.14.22c-7.21-2.79-11.05-10.16-14.75-16.35-3.94-6.17-8.47-11.93-13.27-17.47l.19-.19h0Z"/>
          <path class="cls-1" d="M15.09,144.81c3.95,2.68,7.86,5.41,11.79,8.11,3.93,2.71,7.75,5.61,12.06,7.22,4.32,1.69,9.01,2.2,13.65,3.29,4.61,1.04,9.17,1.89,13.97,2.21l.02.27c-4.73,1.16-9.73.86-14.48.14-4.72-.7-9.48-1.92-13.98-3.94-4.48-1.99-8.21-5.15-12.02-8.11-3.72-2.99-7.47-5.96-11.17-8.98l.16-.21h0Z"/>
          <path class="cls-1" d="M90.07,167.93c-.64,3.3-1.17,7.93-2.38,11.02-1.32,3.47-1.66,7.12-2.57,10.86-.56,2.32-1.33,4.76-2.59,6.88-1.33,2.08-2.91,3.48-4.18,5.6-1.48,2.6-4.78,3.53-6.78,5.39,0,0-.22-.15-.22-.15.36-.91,1.02-1.7,1.69-2.4.68-.69,1.38-1.31,1.94-1.95,1.11-1.2,1.6-2.88,2.76-4.66,2.29-2.92,4.29-5.66,5.32-9.28,1.13-3.5,1.8-7.36,3.37-10.74.85-1.68,1.33-3.42,1.86-5.22l1.51-5.41.26.06h0Z"/>
          <path class="cls-1" d="M101.37,130.64c-2.62,3.67-4.56,7.77-5.54,12.11-.65,2.29-.54,4.53-1.62,6.77-.59,1.17-1.52,2.07-2.36,2.84-1.43,1.32-3.53,3.21-4.77,4.66-1.51,1.72-2.75,4.19-5.03,5.17-2.36,1.16-7.61,1.75-10.15,2.32-2.2.42-4.37.91-6.58,1.48l-.11-.24c3.86-2.54,8.38-3.87,12.71-5.07,1.54-.43,2.89-.76,4.06-1.68,1.22-1.03,2.13-2.41,3.38-3.59,1.43-1.45,3.64-3.19,5.22-4.5.86-.7,1.62-1.38,2.11-2.21,1.01-1.81,1.14-4.28,1.86-6.29,1.36-4.4,3.65-8.49,6.62-11.92l.21.16h0Z"/>
          <path class="cls-1" d="M111.61,165.85c-3.75,6.13-5.88,12.9-9.55,19.1-1.91,3.13-5.21,5.03-7.78,7.49-5.7,6.1-12.68,11.2-20.63,13.89,0,0-.12-.24-.12-.24,5.78-4.2,11.19-8.4,16.47-13.1,1.76-1.53,3.64-3.17,5.63-4.51,1.93-1.32,3.66-2.62,5.02-4.52,3.86-5.81,6.57-12.58,10.75-18.25,0,0,.22.14.22.14h0Z"/>
          <path class="cls-1" d="M23.37,135.99c4.71,7.73,13.67,11.06,19.99,17.21,3.28,2.83,6.64,5.53,10.47,7.46,3.8,2.08,8.5,2.8,11.97,5.63,0,0-.13.23-.13.23-2.1-.77-4.21-1.14-6.39-1.56-10.7-1.57-14.7-8.19-22.18-14.68-5.09-4.17-11.06-8-13.96-14.17,0,0,.23-.13.23-.13h0Z"/>
          <path class="cls-1" d="M113.85,171.52c-2.84,5.6-3.29,11.89-5.06,17.88-1.24,3.86-5.29,6.05-8.56,7.67-2.31,1.12-4.07,2.55-6.28,3.91-2.27,1.33-4.72,2.18-7.1,2.89-4.77,1.38-9.57,2.66-14.51,3.51l-.08-.25c4.48-2.25,9.1-4.07,13.75-5.79,2.32-.85,4.59-1.64,6.68-2.68,2.11-1.09,4.37-2.6,6.61-3.51,3.3-1.49,6.65-2.89,8.06-6.3,2.03-5.77,2.98-12.11,6.25-17.45,0,0,.23.13.23.13h0Z"/>
          <path class="cls-1" d="M27.63,98.46c5.24,8.25,11.1,16.53,18.59,22.83,1.56,1.2,3.03,1.89,4.87,2.65,3.64,1.61,7.23,3.3,10.7,5.43l-.09.25c-3.97-.75-7.8-1.93-11.59-3.21-1.91-.6-4.06-1.68-5.55-3.08-4.42-4.3-7.92-9.19-11.3-14.27-2.14-3.39-4.12-6.88-5.86-10.48l.23-.13h0Z"/>
          <path class="cls-1" d="M91.29,126.33c-1.92,7.8-4.08,15.63-8.23,22.63-1.81,3.43-4.85,6.54-6.98,9.62-.65.99-1.45,2.37-2.55,3.21-1.08.88-2.48,1.05-3.66,1.54-1.29.6-2.72,1.49-4.16,1.81,0,0-.1-.25-.1-.25.7-.45,1.62-1.38,2.28-1.92.97-1.04,2.56-1.78,3.74-2.51,1.06-.86,1.44-1.92,2.15-3.23,1.01-1.94,2.51-3.5,3.84-4.89,4.04-4.26,6.88-9.5,9.17-14.92,1.59-3.63,2.88-7.41,4.24-11.16l.26.08h0Z"/>
          <path class="cls-1" d="M92.2,106.52c-3.93,7.43-9.97,13.48-16.14,19.1-2.67,2.25-6.09,3.73-9.58,4.01-1.71.17-3.26-.42-4.89.18,0,0-.15-.22-.15-.22.59-.67,1.51-1.03,2.36-1.24,8.79-1.81,15.53-8.45,21.85-14.4,2.35-2.27,4.36-4.9,6.33-7.57l.22.14h0Z"/>
          <path class="cls-1" d="M64.44,165.04c-1.63-.5-3.33-1.17-4.57-2.37-1.1-1.01-2.67-2.39-3.81-3.36-7.54-6.9-14.1-15.19-17.69-24.84,0,0,.22-.14.22-.14,7.28,7.21,11.17,16.8,18.39,24.02,1.72,1.63,3.37,4.06,5.32,5.3.7.43,1.47.79,2.24,1.15l-.1.25h0Z"/>
          <path class="cls-1" d="M77.59,97.92c-1.34,5.86-2.75,11.63-4.28,17.46-1.59,6.11-6.86,10.46-12.15,13.48,0,0-.18-.2-.18-.2,1.75-2.52,3.65-4.78,5.51-7.07,1.9-2.32,3.86-4.15,4.8-6.88,1.99-5.59,3.93-11.29,6.04-16.87,0,0,.26.07.26.07h0Z"/>
          <path class="cls-1" d="M74.31,128.29c.54,3.18,1.01,6.36,1.51,9.53.22,1.66.71,3.32.38,5.07-.35,1.69-.91,3.03-1.17,4.69-.55,2.43-.03,5.14-1.23,7.44-2.01,3.64-4.54,6.83-7.62,9.65,0,0-.22-.15-.22-.15,1.57-3.75,3.51-7.21,5.34-10.72.73-1.35.76-2.7,1.08-4.25.38-2.38,1.35-4.79,2.12-7.02.38-1.33.08-2.9,0-4.53-.15-3.24-.34-6.47-.45-9.69l.27-.02h0Z"/>
          <path class="cls-1" d="M92.46,79.17c-1.44.88-2.83,1.84-4.05,2.95-3.78,3.54-5.64,8.29-9.78,11.78-3.38,2.18-5.24,5.67-9.08,7.31-2.98.84-5.7.99-8.69,2.14,0,0-.14-.23-.14-.23,1.26-1.21,2.77-2.16,4.38-2.88,1.51-.73,3.04-.87,4.32-1.91,2.41-1.95,5.09-4.59,7.92-6.12,2.56-1.84,4.6-4.57,6.82-7.15,2.16-2.64,5.04-4.78,8.19-6.12,0,0,.13.24.13.24h0Z"/>
          <path class="cls-1" d="M90.62,88.45c-.25,8.85-4.32,17.11-8.82,24.55-1.79,2.75-3.29,5.98-5.66,8.34-4.21,3.59-9.5,5.98-14.66,7.84,0,0-.12-.24-.12-.24,4.23-3.37,8.84-6.13,12.85-9.6,4.87-5.47,9.09-12.05,12.38-18.61,1.91-3.85,3.17-8.01,3.76-12.32l.27.02h0Z"/>
          <path class="cls-1" d="M60.48,102.96c-3.25-.91-6.29-2.46-9.3-3.88-3.73-1.77-7.82-3.58-11.03-6.47-1.2-.95-2.48-2.7-3.42-3.92-2.49-3.36-4.84-6.7-7.03-10.36,0,0,.2-.18.2-.18,3.5,2.46,6.46,5.52,9.05,8.87,1.42,2.01,2.57,3.96,4.58,5.54,2.45,2.09,5.37,3.65,8.29,5.35,2.87,1.74,5.69,3.5,8.76,4.8l-.09.25h0Z"/>
          <path class="cls-1" d="M60.7,129.19c-3.74-2.59-6.92-5.77-9.85-9.27-4.16-6.39-5.98-13.75-7.66-21.11,0,0,.24-.12.24-.12,1.97,2.37,3.31,5.13,4.46,7.9,1.17,2.76,1.75,5.71,2.66,8.49.83,2.85,2.46,5.08,4.35,7.35,1.81,2.34,3.75,4.57,5.96,6.55l-.16.21h0Z"/>
          <path class="cls-1" d="M38.93,76.64c1.39,2.53,2.74,5.07,4.49,7.28,4.57,5.4,9.93,10.25,14.58,15.59.97,1.04,1.97,2.1,2.89,3.27l-.16.21c-5.56-2.14-9.72-6.64-13.15-11.35-1.78-2.28-3.55-4.53-5.26-6.96-1.54-2.53-2.64-5.23-3.64-7.93l.24-.11h0Z"/>
          <path class="cls-1" d="M60.33,128.24c-2.08-2.88-4.32-5.45-6.07-8.61-2.28-5.62-2.35-11.33-2.34-17.28,0,0,.25-.09.25-.09,1.44,1.98,2.1,4.39,2.52,6.68.57,3.38.15,6.81,1.21,10.01,1.24,3.08,3.18,6.1,4.65,9.14,0,0-.22.15-.22.15h0Z"/>
          <path class="cls-1" d="M81.1,75.94c-.69,2.88-1.45,5.73-2.18,8.6-.39,1.39-.73,2.92-1.55,4.34-.81,1.4-1.85,2.55-2.85,3.65-2.02,2.15-3.87,4.57-6.43,6.27-1.28.82-2.54,1.75-3.92,2.33-1.4.55-2.36,1.49-3.55,2.36,0,0-.2-.17-.2-.17.32-.7.67-1.36,1.07-2.03.89-1.33,2.25-2.08,3.33-3.15,1.58-1.38,3.29-2.85,4.89-4.22,3.29-2.81,6.8-5.4,7.95-9.79,1.06-2.75,2.09-5.52,3.19-8.26l.25.08h0Z"/>
          <path class="cls-1" d="M57.91,83.79c-2.48-1.49-4.19-4.12-5.41-6.68-.62-1.28-1.44-2.53-1.63-4.02-.21-1.46-.18-3,.45-4.46l.27-.02c.43.66.75,1.3,1.05,1.93,1.59,3.01,1.71,6.55,3.24,9.62.54,1.24,1.28,2.38,2.22,3.42l-.17.21h0Z"/>
          <path class="cls-1" d="M77.44,72.18c-1.9,3.68-3.41,8.18-4.98,12-.83,2.71-1.78,5.8-3.35,8.29-2.37,3.8-5.46,6.71-8.45,10.03,0,0-.23-.13-.23-.13,1.42-5.77,5.99-9.94,8.73-14.86,1.52-3.79,3.71-8.12,5.76-11.74.68-1.28,1.4-2.58,2.3-3.74l.22.15h0Z"/>
          <path class="cls-1" d="M57.97,84.3c-2.53-1.67-5.57-2.12-8.41-3.5-2.81-1.34-5.38-3.16-7.78-5.1-4.9-3.65-9.68-8.81-10.11-15.25,0,0,.25-.08.25-.08,1.62,2.65,3.3,5.01,5.24,7.19,3.84,4.37,7.92,9.06,13.02,12.06,2.53,1.62,5.64,2.43,7.95,4.47,0,0-.16.21-.16.21h0Z"/>
          <path class="cls-1" d="M62.51,47.91c-.61,1.01-.89,2.12-1.14,3.28-.67,2.61-1.67,5.54-3.95,7.2-.8.61-2.04.99-2.94.47,0,0,.02-.18.02-.18,1.21-.41,1.63-1.16,2.34-2.1.66-.91,1.5-1.66,2.12-2.61,1.37-1.88,1.76-4.44,3.42-6.17,0,0,.14.11.14.11h0Z"/>
          <path class="cls-1" d="M58.83,83.66c2.51-2.63,5.71-4.92,7.82-7.84.62-.98.95-2.25,1.49-3.32,2.04-4.79,5.11-8.13,6.47-13.19,0,0,.27,0,.27,0,.8,2.54.26,5.42-.83,7.82-1.37,3.02-3.56,5.11-4.89,7.97-.77,1.81-2.49,3.35-4.01,4.41-2.05,1.45-4.08,2.94-6.15,4.36l-.17-.21h0Z"/>
          <path class="cls-1" d="M53.8,59.43c-1.25-.38-2.46-.73-3.73-1.18-1.24-.59-2.18-1.51-3.24-2.35-1.95-1.8-4.54-2.84-5.29-5.61,0,0,.15-.09.15-.09,1.08.82,2.1,1.24,3.25,1.93,1.76,1.08,2.75,2.79,4.18,4.16,1.28,1.46,3.1,2.01,4.75,2.99,0,0-.07.16-.07.16h0Z"/>
          <path class="cls-1" d="M58.36,84.56c-4.62-2.87-8.6-6.52-12.48-10.34-3.92-4.09-5.98-9.42-6.32-15.01,0,0,.25-.09.25-.09,1.56,2.3,2.71,4.7,3.95,6.99,1.06,1.98,2.4,4.97,3.74,6.72,3.37,4.05,6.98,8.06,11.01,11.51,0,0-.16.22-.16.22h0Z"/>
          <path class="cls-1" d="M56.97,42.75c-.18,2.07-.37,4.12-.21,6.18.25,2.06.69,4.36.03,6.43-.36,1.39-1.31,2.93-2.65,3.52,0,0-.14-.11-.14-.11.64-1.37.9-2.36,1.05-3.81.17-1.29.52-2.58.55-3.91-.15-2.78.36-5.68,1.19-8.33,0,0,.17.03.17.03h0Z"/>
          <path class="cls-1" d="M70.54,52.69c-1.65,2.34-2.4,5.08-2.84,7.87-1.51,8.5-1.62,18.32-9.54,23.71,0,0-.2-.18-.2-.18,1.32-2.63,2.54-5.08,3.51-7.66.87-2.33,2.14-5.48,2.78-7.86,1.66-5.38,2.09-11.72,6.08-16.05,0,0,.21.17.21.17h0Z"/>
          <path class="cls-1" d="M53.81,59.42c-2.17-1.46-3.48-3.86-4.57-6.15-.7-1.04-1.96-1.71-2.42-3.05-.51-1.37-.38-2.78.07-4.12,0,0,.18,0,.18,0,.54,1.26.8,2.48,1.36,3.38.6,1.01,1.51,1.94,2.06,3.12.83,2.47,1.59,4.77,3.44,6.7,0,0-.12.13-.12.13h0Z"/>
        </g>
        <g>
          <path class="cls-3" d="M81.04,15.52c.05.13.08.26.09.38.87,11.92,2.08,23.81,3.6,35.66.77,5.98,1.63,11.96,2.56,17.92,1.37,8.72,3.6,17.27,5.29,25.92,2.24,11.47,4.25,23.01,5.79,34.6,1.57,11.79,2.82,23.63,3.61,35.5.62,9.42,1.2,18.87,2.69,28.2.5,3.15,1.42,8.15,1.97,11.59-1.41.94-2.71,1.3-4.37.79-.52-3.34-1.33-8.7-1.78-11.73-1.45-9.83-2.2-19.74-2.82-29.65-1.06-17-3.01-33.94-5.59-50.77-3.6-23.39-8.64-46.77-10.59-70.48-.76-9.29-1.22-18.61-1.43-27.93,0-.18,0-.39.12-.52.29-.32.68.07.85.52Z"/>
          <path class="cls-3" d="M101.51,183.51c4.77-1.08,9.38-2.84,13.86-4.79,4.42-2,9.03-4,12.87-7.4,1.91-1.7,3.1-3.68,5.06-5.25,5.4-4.8,11.82-9.05,15.47-15.5,0,0-.21-.16-.21-.16-1.79,1.68-3.63,3.21-5.55,4.66-3.89,2.94-8.04,5.56-11.52,9.08-1.75,1.63-3.07,3.95-4.7,5.61-3.32,3.3-7.68,5.52-11.99,7.75-4.3,2.25-8.72,4.25-13.36,5.74l.07.26h0Z"/>
          <path class="cls-3" d="M89.31,151c.83,2.67.33,5.51.96,8.25.57,2.72,1.42,5.25,1.56,8.02.05,5.73,2.74,11.69,7.71,14.78,0,0,.2-.18.2-.18-1.88-3.42-3.68-7.3-4.83-11-.45-1.25-.7-2.49-.95-3.88-.41-2.76-1.56-5.45-2.38-8.07-.95-2.58-.77-5.51-2.01-8.03,0,0-.25.1-.25.1h0Z"/>
          <path class="cls-3" d="M100.6,183.38c6.8-1.78,13.22-5.74,17.54-11.41,2.27-2.68,3.67-6.05,5.54-8.96,1.97-2.81,4.43-5.28,6.38-8.17,2.69-3.86,5.11-7.97,6.67-12.44l-.23-.13c-4.8,6.69-10.48,12.59-14.83,19.49-1.72,3.08-2.81,6.34-4.93,9.17-3.91,5.72-9.69,9.83-16.24,12.19,0,0,.08.25.08.25h0Z"/>
          <path class="cls-3" d="M121.06,142.95c-6.03,9.2-10.6,19.55-14.13,29.91-1.15,3.41-2.56,6.62-4.5,9.8l.19.18c6.28-4.5,8.16-12.6,10.19-19.52,2.27-6.96,5.22-13.67,8.48-20.23l-.23-.13h0Z"/>
          <path class="cls-3" d="M140.79,108.99c-3.16,3.58-6.26,7.2-9.39,10.8-3.13,3.6-6.1,7.37-9.87,10.01-3.76,2.72-8.18,4.39-12.39,6.59-4.2,2.16-8.41,4.13-12.97,5.63l.04.26c4.87-.06,9.64-1.6,14.06-3.48,4.39-1.86,8.7-4.23,12.55-7.31,3.84-3.04,6.66-7.04,9.61-10.86,2.85-3.83,5.74-7.63,8.57-11.48l-.21-.17h0Z"/>
          <path class="cls-3" d="M73.97,150.13c1.45,3.03,3.12,7.38,5.06,10.07,2.15,3.02,3.38,6.48,5.21,9.87,1.12,2.11,2.47,4.27,4.23,6.01,1.81,1.68,3.69,2.64,5.44,4.38,2.08,2.14,5.51,2.22,7.91,3.52,0,0,.18-.2.18-.2-.58-.79-1.41-1.39-2.24-1.9-.83-.5-1.66-.92-2.37-1.4-1.37-.88-2.27-2.39-3.84-3.82-2.94-2.26-5.57-4.41-7.47-7.66-1.97-3.11-3.58-6.68-5.95-9.55-1.24-1.42-2.15-2.98-3.11-4.59l-2.81-4.86-.24.12h0Z"/>
          <path class="cls-3" d="M53.7,116.85c3.45,2.9,6.36,6.39,8.39,10.34,1.2,2.05,1.65,4.25,3.26,6.15.87.99,1.99,1.62,2.99,2.16,1.72.92,4.22,2.22,5.78,3.32,1.89,1.28,3.71,3.37,6.16,3.75,2.58.53,7.81-.21,10.4-.29,2.23-.14,4.46-.21,6.75-.22l.04-.26c-4.38-1.5-9.09-1.65-13.58-1.73-1.59-.03-2.98-.01-4.35-.62-1.44-.69-2.67-1.8-4.17-2.63-1.75-1.05-4.33-2.18-6.18-3.05-1.01-.47-1.92-.93-2.59-1.61-1.43-1.5-2.18-3.86-3.37-5.63-2.42-3.92-5.65-7.31-9.39-9.89l-.16.21h0Z"/>
          <path class="cls-3" d="M52.59,153.5c5.16,5,8.92,11.02,14.03,16.11,2.63,2.56,6.3,3.56,9.41,5.31,7.04,4.48,15.08,7.68,23.45,8.29,0,0,.06-.26.06-.26-6.65-2.62-12.93-5.34-19.22-8.57-2.09-1.04-4.32-2.16-6.58-2.96-2.19-.8-4.2-1.62-5.99-3.12-5.19-4.66-9.51-10.53-14.97-14.99,0,0-.18.2-.18.2h0Z"/>
          <path class="cls-3" d="M130.57,102.52c-2.63,8.66-10.47,14.13-15.05,21.67-2.46,3.56-5.05,7.01-8.27,9.84-3.16,2.97-7.53,4.84-10.19,8.44,0,0,.19.19.19.19,1.84-1.27,3.79-2.15,5.79-3.11,9.96-4.19,12.18-11.6,17.8-19.76,3.88-5.31,8.7-10.51,9.98-17.21,0,0-.26-.07-.26-.07h0Z"/>
          <path class="cls-3" d="M51.85,159.55c4.15,4.71,6.16,10.69,9.37,16.04,2.17,3.42,6.64,4.54,10.2,5.28,2.51.5,4.58,1.45,7.05,2.21,2.53.72,5.11.93,7.6,1.02,4.96.14,9.93.18,14.93-.23l.02-.27c-4.9-1.06-9.83-1.66-14.76-2.17-2.46-.24-4.85-.44-7.13-.92-2.31-.53-4.88-1.43-7.28-1.74-3.57-.61-7.17-1.13-9.38-4.09-3.4-5.08-5.91-10.98-10.42-15.33,0,0-.19.18-.19.18h0Z"/>
          <path class="cls-3" d="M117.06,67.25c-3.01,9.3-6.61,18.78-12.29,26.75-1.21,1.56-2.46,2.58-4.05,3.78-3.12,2.46-6.18,5.01-9,7.93l.15.22c3.65-1.72,7.07-3.82,10.42-6,1.7-1.06,3.51-2.64,4.6-4.37,3.2-5.27,5.37-10.88,7.38-16.64,1.23-3.82,2.27-7.69,3.05-11.61l-.26-.07h0Z"/>
          <path class="cls-3" d="M62.39,110.15c3.81,7.07,7.86,14.11,13.63,19.85,2.61,2.87,6.33,5.12,9.16,7.57.87.8,2,1.93,3.27,2.46,1.26.58,2.66.4,3.93.58,1.39.25,3.01.76,4.48.71,0,0,.03-.26.03-.26-.79-.26-1.91-.93-2.69-1.29-1.2-.76-2.93-1.08-4.25-1.49-1.24-.56-1.88-1.5-2.89-2.59-1.47-1.62-3.31-2.76-4.94-3.78-4.98-3.12-9.03-7.48-12.61-12.15-2.45-3.12-4.64-6.45-6.9-9.75l-.23.14h0Z"/>
          <path class="cls-3" d="M56.55,91.2c5.66,6.21,13.02,10.56,20.4,14.46,3.15,1.51,6.83,2.09,10.28,1.49,1.7-.27,3.05-1.22,4.78-1.05,0,0,.09-.25.09-.25-.74-.5-1.72-.62-2.59-.61-8.97.45-17.15-4.3-24.76-8.48-2.85-1.61-5.45-3.65-8.02-5.75l-.18.2h0Z"/>
          <path class="cls-3" d="M98.07,140.92c1.45-.89,2.93-1.96,3.84-3.44.81-1.25,1.99-2.98,2.85-4.21,5.57-8.56,9.86-18.23,10.92-28.47,0,0-.25-.08-.25-.08-5.24,8.8-6.62,19.06-11.8,27.86-1.26,2.01-2.25,4.77-3.82,6.46-.57.59-1.23,1.13-1.88,1.67l.16.22h0Z"/>
          <path class="cls-3" d="M68.55,79.22c2.76,5.34,5.57,10.57,8.51,15.84,3.07,5.52,9.26,8.42,15.14,10.01,0,0,.12-.24.12-.24-2.33-2-4.73-3.71-7.1-5.47-2.42-1.77-4.78-3.06-6.37-5.47-3.33-4.92-6.63-9.95-10.07-14.82,0,0-.23.14-.23.14h0Z"/>
          <path class="cls-3" d="M79.32,107.81c.27,3.22.62,6.41.92,9.61.2,1.67.15,3.39.9,5.01.76,1.55,1.64,2.71,2.3,4.25,1.14,2.21,1.32,4.96,3.05,6.9,2.85,3.03,6.11,5.48,9.79,7.44,0,0,.17-.2.17-.2-2.46-3.24-5.2-6.11-7.85-9.04-1.04-1.13-1.41-2.42-2.11-3.84-.96-2.21-2.5-4.3-3.81-6.27-.7-1.19-.8-2.78-1.13-4.39-.66-3.18-1.29-6.35-1.98-9.5l-.26.05h0Z"/>
          <path class="cls-3" d="M49.46,64.78c1.61.5,3.2,1.07,4.66,1.84,4.54,2.48,7.54,6.62,12.41,8.96,3.81,1.26,6.49,4.18,10.62,4.8,3.1.06,5.76-.47,8.95-.1,0,0,.08-.26.08-.26-1.52-.86-3.22-1.4-4.96-1.69-1.64-.33-3.16-.08-4.66-.77-2.82-1.28-6.08-3.17-9.2-3.94-2.94-1.14-5.6-3.28-8.39-5.22-2.75-2.01-6.08-3.37-9.46-3.88,0,0-.06.26-.06.26h0Z"/>
          <path class="cls-3" d="M53.56,73.31c2.46,8.5,8.46,15.48,14.68,21.57,2.42,2.22,4.68,4.97,7.56,6.66,4.98,2.43,10.69,3.41,16.15,3.93,0,0,.06-.26.06-.26-4.94-2.21-10.09-3.73-14.84-6.08-6.08-4.08-11.82-9.4-16.64-14.92-2.81-3.25-5.07-6.96-6.72-10.98l-.25.09h0Z"/>
          <path class="cls-3" d="M86.38,79.82c2.92-1.7,5.47-3.96,8.04-6.08,3.16-2.64,6.68-5.43,9.06-9.02.92-1.22,1.73-3.23,2.33-4.65,1.57-3.88,3.01-7.7,4.22-11.79,0,0-.23-.13-.23-.13-2.77,3.26-4.87,6.96-6.55,10.85-.87,2.31-1.5,4.48-3.05,6.51-1.85,2.64-4.29,4.87-6.69,7.25-2.34,2.41-4.63,4.81-7.28,6.84l.15.22h0Z"/>
          <path class="cls-3" d="M92.72,105.27c2.98-3.44,5.25-7.32,7.22-11.44,2.43-7.23,2.35-14.81,2.14-22.36,0,0-.26-.05-.26-.05-1.31,2.79-1.92,5.8-2.34,8.76-.44,2.97-.27,5.96-.45,8.88-.09,2.97-1.11,5.53-2.37,8.21-1.17,2.72-2.49,5.36-4.14,7.83l.21.16h0Z"/>
          <path class="cls-3" d="M100.66,48.95c-.71,2.79-1.39,5.6-2.53,8.17-3.07,6.37-7.05,12.41-10.22,18.74-.68,1.25-1.38,2.52-1.98,3.89l.21.17c4.85-3.46,7.75-8.86,9.89-14.28,1.15-2.66,2.3-5.28,3.35-8.06.85-2.84,1.25-5.72,1.54-8.59l-.26-.05h0Z"/>
          <path class="cls-3" d="M92.84,104.26c1.3-3.31,2.82-6.35,3.72-9.86.8-6.01-.56-11.56-2.06-17.31,0,0-.27-.02-.27-.02-.9,2.28-.94,4.77-.77,7.09.29,3.41,1.55,6.63,1.33,10-.43,3.29-1.55,6.7-2.22,10.01,0,0,.25.09.25.09h0Z"/>
          <path class="cls-3" d="M59.65,58.82c1.39,2.61,2.84,5.19,4.26,7.79.72,1.25,1.44,2.64,2.58,3.81,1.14,1.16,2.43,2,3.67,2.82,2.49,1.58,4.89,3.45,7.8,4.46,1.44.48,2.9,1.06,4.38,1.27,1.5.18,2.65.85,4.03,1.4,0,0,.15-.22.15-.22-.49-.6-.99-1.15-1.54-1.7-1.19-1.06-2.7-1.45-4.01-2.22-1.88-.94-3.89-1.94-5.79-2.86-3.89-1.89-7.94-3.53-10.15-7.49-1.72-2.4-3.4-4.82-5.15-7.2l-.23.14h0Z"/>
          <path class="cls-3" d="M84.07,60.62c2.03-2.06,3.03-5.03,3.57-7.82.28-1.39.76-2.81.58-4.3-.16-1.47-.57-2.95-1.55-4.21l-.26.05c-.25.75-.4,1.45-.53,2.13-.78,3.31-.02,6.77-.73,10.12-.21,1.34-.65,2.63-1.29,3.87l.21.16h0Z"/>
          <path class="cls-3" d="M62.26,54.26c2.76,3.09,5.34,7.07,7.82,10.37,1.48,2.42,3.18,5.17,5.32,7.19,3.25,3.08,6.96,5.13,10.69,7.6,0,0,.19-.18.19-.18-2.82-5.23-8.29-8.13-12.17-12.2-2.42-3.29-5.62-6.93-8.51-9.93-.98-1.07-2-2.15-3.16-3.05l-.18.2h0Z"/>
          <path class="cls-3" d="M84.14,61.13c2.03-2.25,4.87-3.45,7.27-5.49,2.39-2.01,4.42-4.4,6.26-6.88,3.83-4.76,7.17-10.95,5.98-17.29,0,0-.27-.01-.27-.01-.9,2.97-1.94,5.67-3.28,8.27-2.62,5.19-5.4,10.75-9.59,14.94-2.04,2.2-4.85,3.77-6.58,6.31,0,0,.21.16.21.16h0Z"/>
          <path class="cls-3" d="M70.64,27.03c.84.83,1.39,1.83,1.93,2.89,1.3,2.36,3,4.94,5.62,5.98.93.39,2.22.45,2.96-.28,0,0-.06-.17-.06-.17-1.27-.09-1.86-.72-2.8-1.45-.86-.71-1.86-1.23-2.7-2-1.8-1.48-2.81-3.86-4.85-5.12,0,0-.11.14-.11.14h0Z"/>
          <path class="cls-3" d="M83.15,60.72c-3.09-1.92-6.75-3.34-9.53-5.63-.84-.79-1.48-1.94-2.27-2.84-3.17-4.13-6.98-6.6-9.57-11.15,0,0-.26.06-.26.06-.14,2.66,1.1,5.31,2.76,7.36,2.08,2.59,4.73,4.06,6.72,6.49,1.2,1.56,3.24,2.62,4.99,3.27,2.35.9,4.68,1.82,7.04,2.69l.11-.24h0Z"/>
          <path class="cls-3" d="M81.96,36.01c1.12-.68,2.2-1.33,3.32-2.08,1.06-.88,1.74-2,2.54-3.08,1.44-2.23,3.69-3.89,3.72-6.75,0,0-.17-.05-.17-.05-.84,1.07-1.72,1.73-2.67,2.68-1.44,1.48-1.96,3.39-3.01,5.07-.87,1.73-2.5,2.73-3.85,4.08,0,0,.11.14.11.14h0Z"/>
          <path class="cls-3" d="M83.83,61.48c3.76-3.94,6.7-8.46,9.5-13.14,2.77-4.94,3.43-10.62,2.37-16.11,0,0-.27-.02-.27-.02-.94,2.62-1.45,5.23-2.08,7.76-.53,2.18-1.08,5.41-1.94,7.44-2.25,4.76-4.75,9.55-7.79,13.9,0,0,.21.17.21.17h0Z"/>
          <path class="cls-3" d="M74.72,20.64c.69,1.96,1.39,3.9,1.75,5.93.27,2.06.42,4.39,1.58,6.24.69,1.26,2,2.51,3.44,2.75,0,0,.11-.14.11-.14-.96-1.17-1.46-2.06-1.97-3.42-.49-1.21-1.14-2.37-1.51-3.65-.55-2.73-1.77-5.41-3.23-7.77,0,0-.16.08-.16.08h0Z"/>
          <path class="cls-3" d="M64.07,33.66c2.18,1.85,3.59,4.32,4.71,6.91,3.59,7.85,6.15,17.33,15.16,20.57,0,0,.15-.22.15-.22-1.93-2.21-3.73-4.29-5.31-6.54-1.43-2.04-3.44-4.77-4.65-6.91-2.96-4.79-4.95-10.82-9.9-14.02,0,0-.16.22-.16.22h0Z"/>
          <path class="cls-3" d="M81.94,36c1.74-1.96,2.41-4.6,2.88-7.1.42-1.18,1.47-2.14,1.58-3.56.15-1.46-.32-2.79-1.1-3.97,0,0-.17.04-.17.04-.21,1.36-.15,2.61-.48,3.61-.33,1.13-.98,2.26-1.21,3.54-.18,2.6-.35,5.01-1.66,7.35,0,0,.15.1.15.1h0Z"/>
        </g>
        <g>
          <path class="cls-2" d="M101.87,26.39c-9.24,38.74-14.83,78.58-17.27,118.31-.69,11.4-.94,24.38-.97,35.84.18,7.72.24,16.13.79,23.87,0,0,.75,11.91.75,11.91-1.54.85-3.02.98-4.43.33l-.55-12.04c-1.12-27.85.4-56.36,3.51-84.05,2.65-23.77,6.57-47.7,11.6-71.08,1.69-7.82,3.5-15.62,5.55-23.36.34-.87,1.18-.74,1.02.27h0Z"/>
          <path class="cls-2" d="M82.33,193.81c4.8-.84,9.39-2.47,13.9-4.28,4.5-1.82,9.2-3.41,12.72-6.43,1.74-1.49,3.25-3.46,5.21-5.15,3.79-3.28,8.35-5.23,12.6-7.66,2.07-1.2,4.04-2.53,5.88-4.15l.21.17c-3.89,6.38-11.33,9.35-17.02,13.69-1.87,1.34-3.47,3.18-5.54,4.77-4.06,3.09-8.92,4.42-13.61,6.02-4.65,1.49-9.42,2.88-14.31,3.29l-.03-.26h0Z"/>
          <path class="cls-2" d="M73.92,160.38c.56,1.32.65,2.78.7,4.17-.02,2.83.73,5.33,1.37,8.07.32,1.38.5,2.86.6,4.25.4,5.54,1.93,10.4,4.18,15.39,0,0-.21.17-.21.17-4.81-3.45-6.69-9.8-6.11-15.49.22-4.15-1.28-8.26-.67-12.41.11-1.37.21-2.73-.13-4.06l.25-.09h0Z"/>
          <path class="cls-2" d="M81.41,193.59c6.82-1.33,13.05-4.97,17.46-10.27,2.98-3.56,4.82-8.08,8.09-11.52,4.83-5.14,9.87-9.7,14.55-15.03,0,0,.22.14.22.14-2.93,6.46-7.77,11.88-12.87,16.71-3.51,3.15-5.44,7.4-8.7,10.84-4.84,5.24-11.68,8.66-18.72,9.39l-.04-.26h0Z"/>
          <path class="cls-2" d="M106.3,155.96c-4.07,6.1-7.66,12.51-10.61,19.21-2.75,6.62-5.18,14.85-12.15,18.36,0,0-.16-.21-.16-.21,4.88-5.68,6.67-12.64,10.39-19.07,3.46-6.56,7.55-12.78,12.32-18.45,0,0,.21.16.21.16h0Z"/>
          <path class="cls-2" d="M129.47,124.3l-9.73,10.53c-3.27,3.44-6.5,7.1-10.67,9.83-4.15,2.69-8.7,4.6-13.27,5.96-4.58,1.37-9.53,2.63-14.36,1.9,0,0,0-.27,0-.27,4.74-.77,9.05-2.46,13.5-4.16,4.44-1.73,9.01-2.92,13.01-5.25,4-2.29,7.38-5.68,10.85-8.96l10.48-9.77.19.19h0Z"/>
          <path class="cls-2" d="M58.75,157.88c1.42,3.01,3.01,7.32,4.89,10.02,2.09,3.1,3.29,6.85,4.88,10.17,1.56,3.58,3.84,5.6,6.66,8.37,2.08,2.67,2.87,4.22,5.62,5.81.78.57,1.58,1.26,2.02,2.15l-.21.16c-1.45-1.19-3.24-1.35-5.08-2.35-1.77-.92-2.91-2.69-4.27-3.93-1.34-1.25-2.95-2.52-4.02-4.12-3.32-4.77-4-10.75-6.77-15.63-1.65-2.87-2.87-7.42-3.98-10.57,0,0,.25-.1.25-.1h0Z"/>
          <path class="cls-2" d="M42.03,122.53c3.56,2.81,6.46,6.49,8.46,10.65.98,1.87,1.41,4.33,2.72,5.9,1.4,1.46,3.69,2.36,5.43,3.54,1.92,1.12,3.9,2.79,5.48,4.25,1.63,1.49,3.25,1.7,5.41,1.96,2.24.32,4.46.6,6.72,1.08,2.26.47,4.47,1.22,6.51,2.26l-.08.25c-5.74-1.07-11.33-.25-17.03-1.51-2.39-.65-4-2.95-5.65-4.49-2.49-2.45-5.73-3.6-8.13-6.24-1.49-2.02-1.64-4.3-2.6-6.47-1.59-4.12-4.16-7.88-7.41-10.98l.17-.2h0Z"/>
          <path class="cls-2" d="M37.08,158.89c5.05,4.94,8.62,11.32,13.29,16.51,3.26,3.21,8.23,4.59,11.9,7.35,5.88,3.95,11.78,7.37,18.2,10.55,0,0-.08.25-.08.25-5.91-.98-11.62-3.34-16.69-6.56-2.97-1.95-5.59-4.31-8.69-5.99-2.09-1.17-4.31-2.54-5.9-4.4-4.55-5.6-7.53-12.07-12.23-17.52,0,0,.2-.18.2-.18h0Z"/>
          <path class="cls-2" d="M120.05,116.68c-2.59,8.78-10.98,13.84-15.81,21.25-3.26,4.62-7.08,9.3-12.53,11.46-3.1,1.33-6.36,1.93-9.29,3.61,0,0-.17-.2-.17-.2,2.98-3.38,7.65-4.57,11.08-7.23,3.43-2.44,6.39-5.52,9.24-8.95,2.77-3.46,6.06-6.66,9.34-9.62,3.23-2.97,6.31-6.23,7.88-10.38l.25.08h0Z"/>
          <path class="cls-2" d="M35.72,164.84c3.36,3.77,5.16,8.61,7.15,13.1.96,2.26,2,4.49,3.85,5.76,1.83,1.32,4.2,1.87,6.61,2.53,2.38.56,4.82,1.73,7.08,2.52,6.99,1.99,14.49,2.92,21.46,5.37,0,0-.05.26-.05.26-5.02-.12-9.96-.68-14.88-1.35-2.46-.33-5.01-.82-7.47-1.82-2.36-1.03-4.33-2.2-6.76-2.94-5.84-1.69-9.16-3.65-11.07-9.84-1.68-4.67-3.14-9.44-6.12-13.42l.21-.17h0Z"/>
          <path class="cls-2" d="M121.87,85.88c-4.7,9.23-10.97,17.71-18.9,24.47-1.72,1.32-3.88,2.08-5.89,2.67-3.93,1.16-7.89,2.22-12,2.85l-.09-.25c3.63-2.02,7.41-3.62,11.23-5.12,1.95-.75,3.71-1.33,5.27-2.33,4.9-3.33,9.14-7.97,12.99-12.52,2.61-3.12,4.98-6.44,7.17-9.9l.23.13h0Z"/>
          <path class="cls-2" d="M51.79,116.51c3.68,6.98,7.31,14.2,12.67,20.01,2.69,3.12,6.25,4.88,8.73,8.34.59.87,1.07,1.66,1.62,2.22.83.98,2.44,1.18,3.67,1.86.54.34.85.57,1.27.85.82.51,1.64,1.18,2.51,1.58,0,0-.05.26-.05.26-.54,0-1.06-.17-1.54-.3-.89-.23-2.04-.67-2.85-.96-.9-.25-1.98-.26-2.94-.64-1.61-.48-2.92-2.16-3.81-3.27-2.48-2.85-5.88-5.43-8.22-8.55-5.13-6.34-8.3-13.83-11.3-21.29,0,0,.24-.11.24-.11h0Z"/>
          <path class="cls-2" d="M55.83,92.75c3.62,5.46,8.21,10.03,12.94,14.51,3.96,3.73,8.72,6.73,14.18,7.4.84.16,1.8.48,2.36,1.19l-.16.21c-1.49-.61-2.92.1-4.78.06-5.38-.05-9.89-3.39-13.14-7.37-4.38-4.86-8.73-9.96-11.64-15.86,0,0,.23-.14.23-.14h0Z"/>
          <path class="cls-2" d="M83.31,151.14c3.15-1.6,4.59-4.71,6.61-7.41,6.14-8.19,8.43-18.32,14.58-26.54,0,0,.24.11.24.11-2.15,10.11-7.26,19.31-13.76,27.25-2.29,2.51-4.19,5.62-7.54,6.83,0,0-.13-.23-.13-.23h0Z"/>
          <path class="cls-2" d="M71.94,84.09l2.1,8.54c1.18,4.02,1.61,8.58,3.94,12.07,2.57,3.41,5.29,6.68,7.91,10.22,0,0-.17.21-.17.21-5.28-2.76-10.49-7.39-11.53-13.51-1.14-5.81-1.89-11.6-2.52-17.47l.26-.05h0Z"/>
          <path class="cls-2" d="M72.42,115.04c-.31,3.3-.69,6.59-1.04,9.88-.18,1.65-.48,3.29-.19,4.69.54,2.12,1.87,4.65,2.44,6.97.47,1.5.66,3.02,1.46,4.3,2.2,3.38,4.62,6.64,6.77,10.18,0,0-.19.18-.19.18-3.53-2.44-6.56-5.4-8.96-8.96-1.36-2.33-1.1-5.04-1.89-7.51-.41-1.66-1.1-3.15-1.33-4.91-.21-1.9.3-3.56.59-5.16.7-3.24,1.36-6.48,2.09-9.72l.26.04h0Z"/>
          <path class="cls-2" d="M57.93,64.71c3.1,1.33,5.84,3.61,7.93,6.32,2.07,2.68,3.84,5.55,6.37,7.36,1.36.96,2.96,1.88,4.18,3.09,1.28,1.23,2.26,2.5,3.36,3.32,1.19.96,2.8,1.2,4.25,1.89,1.62.72,3.1,1.71,4.28,2.98l-.15.22c-2.3-.93-4.77-1.48-7.16-1.84-2.69-.33-5.07-2.92-6.49-4.74-1.03-1.28-2.31-2.15-3.59-3.24-2.78-2.38-4.33-5.52-6.13-8.25-1.72-2.8-4.09-5.15-6.96-6.86l.12-.24h0Z"/>
          <path class="cls-2" d="M57.74,74.69c.72,8.66,5.28,16.15,9.79,23.37,1.71,2.61,3.27,5.44,5.3,7.75,3.76,3.6,8.35,6.22,12.63,9.39,0,0-.11.24-.11.24-5.19-1.65-10.56-3.93-14.56-7.76-2.23-2.56-3.43-5.68-5.1-8.55-4.09-7.5-8.34-15.66-8.21-24.44,0,0,.27,0,.27,0h0Z"/>
          <path class="cls-2" d="M88.49,89.25c3.2-1.08,6.07-2.82,9.05-4.46,2.96-1.57,6.05-2.89,8.67-4.92,2.68-1.98,4.11-4.96,6.43-7.41,2.31-2.53,4.83-4.88,7.75-6.76l.19.19c-1.86,2.91-3.89,5.57-5.88,8.26-2.03,2.69-4.28,5.61-7.26,7.45-2.97,1.95-6.28,3.07-9.32,4.38-3.09,1.3-6.21,2.84-9.56,3.52l-.07-.26h0Z"/>
          <path class="cls-2" d="M86.01,115.21c3.56-2.72,6.63-6.2,9.52-9.58,2.72-3.58,3.45-8.13,5.45-12.15,1.33-2.74,2.88-5.51,5.11-7.73l.23.14c-2.87,8.63-5.4,18.14-12.83,24.05-2.29,2.01-4.65,4.03-7.34,5.5l-.14-.22h0Z"/>
          <path class="cls-2" d="M111.64,64.06c-1.08,2.7-2.23,5.41-3.91,7.91-1.8,2.37-3.64,4.61-5.52,6.85-3.63,4.63-8.15,8.88-13.9,10.72,0,0-.14-.23-.14-.23,6.03-6.3,12.7-11.7,18.51-18.16,1.87-2.13,3.27-4.69,4.73-7.21l.24.12h0Z"/>
          <path class="cls-2" d="M86.41,114.33c1.79-2.97,3.92-5.79,5.52-8.84,2.49-5.19.61-11.95,5.05-16.47,0,0,.24.12.24.12-.4,2.38-.52,4.53-.68,6.84-.33,4.63-1.98,9.73-5.26,13.22-1.56,1.77-3.08,3.55-4.66,5.28l-.21-.17h0Z"/>
          <path class="cls-2" d="M69.51,61.97c1.53,3.95,2.53,8.43,4.36,12.19,1.49,2.24,3.91,4.2,5.9,6.08,1.8,1.65,3.69,3.39,5.43,5.08,0,0,.82.69.82.69,1.24.88,2.05,2.43,2.57,3.86,0,0-.21.16-.21.16-1.15-.93-1.97-1.89-3.38-2.45-1.39-.6-2.58-1.59-3.82-2.43-2.47-1.78-4.22-4.23-6.14-6.43-.94-1.11-1.97-2.28-2.69-3.74-1.66-4.25-2.05-8.57-3.09-12.95,0,0,.26-.07.26-.07h0Z"/>
          <path class="cls-2" d="M92.06,70.34c4.14-4.01,3.67-10.14,6.92-14.77,0,0,.27.01.27.01,1.3,2.92.13,5.99-1.42,8.46-1.28,2.51-2.98,5.25-5.61,6.52,0,0-.15-.22-.15-.22h0Z"/>
          <path class="cls-2" d="M73.25,58.24c.89,1.16,1.54,2.49,2.17,3.77,1.91,3.68,3.9,8,5.24,11.86,2.44,4.96,7.1,9.22,7.99,15.07,0,0-.25.1-.25.1-3.6-4.72-7.9-8.53-9.75-14.43-1.03-4.12-2.55-8.3-4-12.28-.49-1.36-.94-2.71-1.64-3.95l.22-.15h0Z"/>
          <path class="cls-2" d="M91.98,70.82c2.38-2.07,5.59-2.73,8.12-4.2,5.19-2.83,9.37-7.55,13.43-11.7,2.04-2.11,3.83-4.34,5.33-7.06l.26.07c-.25,6.54-5.6,11.43-10.51,14.96-2.44,1.88-5.04,3.68-7.93,4.92-2.92,1.24-5.99,1.55-8.53,3.21l-.16-.21h0Z"/>
          <path class="cls-2" d="M88.79,34.44c1.67,1.74,1.9,4.37,3.21,6.3.59.97,1.41,1.75,2.04,2.66.7.88,1.14,1.82,2.3,2.15,0,0,.04.17.04.17-1.24.76-2.78-.31-3.66-1.14-1.74-1.77-2.57-4.37-3.02-6.73-.2-1.17-.43-2.3-1.05-3.3l.14-.11h0Z"/>
          <path class="cls-2" d="M91.13,70.59c-3.02-2.44-6.36-4.26-8.9-7.29-.84-1.19-1.24-2.41-1.83-3.42-2.53-4.04-6.46-9.15-4.44-14.31,0,0,.26.03.26.03.48,2.52,1.51,4.56,2.71,6.63,1.84,2.88,3.43,6.92,4.74,10.12,2.04,2.95,5.2,5.33,7.62,8.03,0,0-.17.2-.17.2h0Z"/>
          <path class="cls-2" d="M96.95,46.15c1.14-.59,2.36-1.12,3.45-1.7,2.13-1.34,3.41-3.89,5.7-5.2,1.2-.65,2.24-.96,3.29-1.81l.15.09c-.1.7-.5,1.36-.97,1.88-1.85,1.82-4.01,3.09-6.02,4.77-1.52,1.3-3.68,1.59-5.53,2.14,0,0-.06-.17-.06-.17h0Z"/>
          <path class="cls-2" d="M91.6,71.08c4.22-3.24,7.82-7.26,11.35-11.2,3.23-4.2,4.95-9.08,8.07-13.47,0,0,.25.09.25.09-.59,7.6-3.91,12.87-9.77,17.57-3.03,2.67-6.18,5.32-9.75,7.24l-.14-.22h0Z"/>
          <path class="cls-2" d="M94.51,29.52c.79,2.66,1.18,5.57.95,8.36-.03,1.35.29,2.62.43,3.92.13,1.46.33,2.45.95,3.84,0,0-.14.11-.14.11-.61-.38-1.24-.78-1.69-1.52-1.63-2.59-1.15-5.69-.64-8.51.28-2.05.1-4.1-.03-6.17,0,0,.18-.03.18-.03h0Z"/>
          <path class="cls-2" d="M80.7,38.93c4.03,4.34,4.04,10.84,5.61,16.24,1.57,5.52,3.15,10.56,5.85,15.68,0,0-.2.18-.2.18-7.83-5.27-7.62-15.67-8.86-24-.35-2.8-.89-5.63-2.61-7.92l.2-.18h0Z"/>
          <path class="cls-2" d="M96.9,46.17c2.04-1.91,2.69-4.09,3.62-6.62.77-1.34,1.64-2.2,2.19-3.05.59-.85.89-2.07,1.43-3.33h.18c.41,1.29.56,2.7-.04,4.15-.62,1.46-1.96,2.12-2.54,2.97-.66.97-1.07,2.38-1.85,3.34-.81,1.07-1.8,1.96-2.87,2.68l-.11-.14h0Z"/>
          <path class="cls-4" d="M148.55,150.41c-1.79,1.68-3.63,3.21-5.55,4.66-3.89,2.94-8.04,5.56-11.52,9.08-1.75,1.63-3.07,3.95-4.7,5.61-.45.45-.93.88-1.42,1.29-3.71,2.03-7.56,3.85-10.87,6.61-1.11.58-2.22,1.13-3.34,1.67.08-.32.15-.64.23-.96,2.55-1.79,4.86-3.92,6.76-6.4,2.27-2.68,3.67-6.05,5.54-8.96,1.97-2.81,4.43-5.28,6.38-8.17,2.69-3.86,5.11-7.97,6.67-12.44l-.23-.13c-4.8,6.69-10.48,12.59-14.83,19.49-1.72,3.08-2.81,6.34-4.93,9.17-1.38,2.02-3.01,3.83-4.8,5.44.5-1.66,1.1-3.29,1.9-4.86,0,0-.23-.13-.23-.13-1.14,1.86-1.99,3.84-2.71,5.87-2.06,1.69-4.32,3.13-6.74,4.3,2.64-2.42,4.38-5.56,5.7-8.91,4.72-4.58,9.14-9.71,11.87-15.74,0,0-.22-.14-.22-.14-3.14,3.57-6.44,6.8-9.72,10.09.35-1.2.69-2.39,1.03-3.54,2.27-6.96,5.22-13.67,8.48-20.23l-.23-.13c-5.71,8.72-10.11,18.47-13.55,28.28-.18.19-.36.38-.54.57-1.63,1.71-2.9,3.7-4.14,5.69-.32-3.99-.58-7.99-.84-11.98-.05-.78-.12-1.55-.18-2.33,1.42-2.45,2.92-4.85,4.49-7.21l-.21-.16c-1.54,1.83-3.01,3.73-4.41,5.67-.31-4.17-.67-8.34-1.09-12.51,2.93-1.15,5.79-2.56,8.48-4.31,4.18-2.73,7.4-6.39,10.67-9.83l3.06-3.32s.01-.01.02-.02c3.84-3.04,6.66-7.04,9.61-10.86,2.85-3.83,5.74-7.63,8.57-11.48l-.21-.17c-3.16,3.58-6.26,7.2-9.39,10.8-3.13,3.6-6.1,7.37-9.87,10.01-3.76,2.72-8.18,4.39-12.39,6.59-.71.37-1.43.72-2.14,1.07,6.73-4.34,9.06-10.73,13.85-17.67,3.88-5.31,8.7-10.51,9.98-17.21,0,0-.26-.07-.26-.07-2.03,6.69-7.18,11.48-11.52,16.8.39-.84.73-1.71,1.01-2.63l-.25-.08c-1.57,4.16-4.66,7.42-7.88,10.38-3.28,2.96-6.58,6.16-9.34,9.62-.14.17-.29.34-.44.52.79-1.21,1.83-2.74,2.61-3.85,5.57-8.56,9.86-18.23,10.92-28.47,0,0-.25-.08-.25-.08-5.24,8.8-6.62,19.06-11.8,27.86-1.26,2.01-2.25,4.77-3.82,6.46-.08.08-.17.16-.25.24-.19-1.58-.39-3.15-.59-4.72.73-1.35,1.53-2.65,2.43-3.91l-.21-.16c-.84.97-1.62,2-2.34,3.07-.02-.15-.04-.3-.06-.45,2.71-4.95,4.8-10.24,5.98-15.8l-.24-.11c-2.62,3.5-4.53,7.35-6.35,11.24-.69-5.03-1.45-10.05-2.29-15.06.41-.12.81-.23,1.22-.35,2.01-.6,4.18-1.36,5.89-2.67,7.93-6.76,14.2-15.23,18.9-24.47l-.23-.13c-2.19,3.46-4.55,6.79-7.17,9.9-3.85,4.55-8.08,9.19-12.99,12.52-1.56,1.01-3.32,1.59-5.27,2.33-.26.1-.53.21-.79.32-.13-.74-.26-1.49-.39-2.23,2.32-2.2,4.1-4.78,5.56-7.57.57-.36,1.14-.72,1.7-1.09,1.7-1.06,3.51-2.64,4.6-4.37,3.2-5.27,5.37-10.88,7.38-16.64.73-2.26,1.38-4.53,1.96-6.82,1.49-2.01,2.97-4.04,4.36-6.21l-.19-.19c-1.15.74-2.22,1.57-3.25,2.43.06-.27.12-.55.18-.82l-.26-.07c-.14.44-.29.88-.44,1.32-1.4,1.22-2.73,2.53-3.98,3.9-2.32,2.45-3.75,5.42-6.43,7.41-1.31,1.01-2.73,1.85-4.19,2.63.08-1.21.12-2.42.14-3.63.01-.02.03-.03.04-.05,1.89-2.25,3.72-4.48,5.52-6.85,1.69-2.49,2.84-5.2,3.91-7.91l-.24-.12c-1.46,2.52-2.86,5.08-4.73,7.21-1.45,1.62-2.96,3.17-4.5,4.68-.01-1.45-.05-2.91-.09-4.36,0,0-.26-.05-.26-.05-1.01,2.14-1.6,4.41-2.01,6.69-1.36,1.29-2.74,2.57-4.11,3.86-.36-1.62-.77-3.24-1.19-4.88,0,0-.27-.02-.27-.02-.88,2.25-.94,4.71-.77,7-.91.87-1.82,1.74-2.72,2.62-.06-.25-.11-.5-.17-.76.29-2.05.6-4.11.92-6.16.32-.21.64-.41.96-.61,0,0-.13-.24-.13-.24-.26.11-.51.23-.76.35.19-1.22.38-2.45.57-3.67.76-.63,1.51-1.26,2.26-1.88,2.27-1.9,4.72-3.87,6.8-6.17,2.67-1.23,5.1-2.9,7.39-4.66,4.91-3.54,10.27-8.42,10.52-14.96l-.26-.07c-1.5,2.72-3.29,4.95-5.33,7.06-3.04,3.1-6.14,6.53-9.69,9.24.77-1.22,1.44-2.88,1.96-4.1.03-.07.06-.15.09-.22,3.14-3.69,4.95-7.93,5.38-13.36,0,0-.25-.09-.25-.09-.42.58-.8,1.18-1.18,1.78-.03-.02-.05-.03-.05-.03-2.77,3.26-4.87,6.96-6.55,10.85-.12.31-.23.62-.34.93-2.33,2.6-4.69,5.24-7.25,7.66.85-1.11,1.56-2.36,2.17-3.55,1.36-2.16,2.43-4.78,1.8-7.36.68-2.54,1.04-5.12,1.3-7.68l-.26-.05c-.66,2.59-1.3,5.18-2.3,7.6-.42.72-.76,1.47-1.06,2.24-1.07,2.09-2.21,4.16-3.38,6.21.88-5.03,1.82-10.04,2.81-15.04.31-.4.63-.8.93-1.21.82-1.02,1.62-2.11,2.35-3.25.92-.3,1.8-.69,2.53-1.31,2.02-1.68,4.18-2.96,6.03-4.77.48-.52.88-1.18.97-1.88l-.15-.09c-1.05.85-2.09,1.16-3.29,1.81-2.12,1.21-3.38,3.47-5.24,4.87.96-1.67,1.76-3.43,2.3-5.26.43-.42.84-.9,1.11-1.54.6-1.45.45-2.86.04-4.14h-.18c-.09.2-.17.41-.25.62-.02-.77-.09-1.55-.24-2.34,0,0-.27-.01-.27-.01-.9,2.97-1.94,5.67-3.28,8.27-.68,1.35-1.38,2.73-2.11,4.1,1.22-5.83,2.51-11.64,3.89-17.43.16-1.01-.68-1.14-1.02-.27-1.62,6.11-3.08,12.24-4.45,18.39-.29-.87-.42-1.67-.51-2.71-.02-.19-.05-.38-.08-.58.51-2.95.46-6-.12-8.99,0,0-.27-.02-.27-.02-.07.19-.12.38-.18.57-.17-1.11-.42-2.21-.73-3.26l-.18.03c.13,2.08.31,4.12.03,6.17,0,.05-.02.09-.02.14-.35,1.39-.66,2.76-.99,4.11-.15.6-.29,1.28-.45,1.99-.32-.39-.63-.78-.9-1.22-1.31-1.93-1.54-4.56-3.21-6.3l-.14.11c.63,1,.85,2.14,1.05,3.3.42,2.2,1.18,4.59,2.69,6.34-.28,1.18-.6,2.31-.99,3.21-1.44,3.05-3,6.1-4.72,9.05,0-.03-.02-.06-.03-.1.44-1.17.76-2.38.99-3.56.28-1.39.76-2.81.58-4.3-.16-1.47-.57-2.95-1.55-4.21l-.26.05c-.25.75-.4,1.45-.53,2.13-.41,1.72-.4,3.47-.39,5.24-.47-2.29-.88-4.66-1.57-6.88-.37-3.12-.72-6.25-1.04-9.37.8-.49,1.6-.98,2.41-1.53,1.06-.88,1.74-2,2.54-3.08,1.44-2.23,3.69-3.89,3.72-6.75,0,0-.17-.05-.17-.05-.84,1.07-1.72,1.73-2.67,2.68-1.44,1.48-1.96,3.39-3.01,5.07-.67,1.33-1.79,2.23-2.88,3.19,0-.05-.01-.1-.02-.15,1.11-1.78,1.64-3.9,2.03-5.93.42-1.18,1.47-2.14,1.58-3.56.15-1.46-.32-2.79-1.1-3.97l-.17.04c-.21,1.36-.15,2.61-.48,3.61-.33,1.13-.98,2.26-1.21,3.54-.13,1.82-.26,3.54-.76,5.21-.6-5.94-1.12-11.9-1.56-17.86,0-.12-.04-.26-.09-.38-.17-.45-.56-.84-.85-.52-.12.14-.13.34-.12.52.14,6.31.41,12.61.8,18.9-.51-.75-.88-1.48-1.24-2.44-.49-1.21-1.14-2.37-1.51-3.65-.55-2.73-1.77-5.41-3.23-7.77,0,0-.16.08-.16.08.69,1.96,1.39,3.9,1.75,5.93.27,2.06.42,4.39,1.58,6.24.6,1.09,1.66,2.17,2.87,2.59,0,.01,0,.02,0,.03-1.14-.14-1.73-.73-2.61-1.43-.86-.71-1.86-1.23-2.7-2-1.8-1.48-2.81-3.86-4.85-5.12,0,0-.11.14-.11.14.84.83,1.39,1.83,1.93,2.89,1.3,2.36,3,4.94,5.62,5.98.84.36,1.98.43,2.74-.1.08,1.24.17,2.49.26,3.73-.16-.2-.33-.41-.51-.6l-.2.18c.29.39.54.8.77,1.22.08,1.05.15,2.1.23,3.14.45,5.54,1.08,11.06,1.82,16.56-.39-.45-.77-.9-1.15-1.34-.97-2.27-2.05-4.6-3.22-6.44-1.2-2.07-2.23-4.11-2.71-6.63,0,0-.26-.03-.26-.03-.53,1.37-.64,2.73-.48,4.07-.5-.75-.97-1.49-1.35-2.17-2.96-4.79-4.95-10.82-9.9-14.02,0,0-.16.22-.16.22,2.18,1.85,3.59,4.32,4.71,6.91,2.91,6.37,5.15,13.8,10.69,18.11-2.06-1.08-4.13-2.17-5.86-3.59-.84-.79-1.48-1.94-2.27-2.84-3.17-4.13-6.98-6.6-9.57-11.15,0,0-.26.06-.26.06-.14,2.66,1.1,5.31,2.76,7.36,1.6,1.99,3.54,3.33,5.26,4.95-1.17,1.52-1.98,3.25-2.61,5.06-.45-.48-.9-.96-1.34-1.41-.98-1.07-2-2.15-3.17-3.05l-.18.2c1.47,1.65,2.9,3.56,4.28,5.48-.61,2-1.05,4.07-1.55,6.08-1.7-2.38-3.38-4.78-5.11-7.15l-.23.14c1.39,2.61,2.84,5.19,4.26,7.79.2.34.4.69.6,1.05-.09.31-.18.62-.27.92-.04.14-.09.3-.13.45-1.78-1.82-3.88-3.33-6.19-4.32l-.12.24c2.34,1.38,4.33,3.2,5.92,5.33-.13.39-.26.78-.4,1.17-1.45-.95-2.89-2.02-4.35-3.05-.89-.65-1.85-1.23-2.84-1.73,0-.05-.01-.09-.02-.14-.44-2.52-.9-5.04-1.38-7.56.87.32,1.96-.03,2.68-.59,2.28-1.66,3.28-4.59,3.95-7.2.25-1.16.53-2.27,1.14-3.28,0,0-.14-.11-.14-.11-1.66,1.73-2.05,4.29-3.42,6.17-.62.95-1.46,1.7-2.12,2.61-.68.89-1.1,1.61-2.17,2.03,0,0,0-.02,0-.03,1.06-.71,1.82-2.02,2.13-3.23.66-2.07.22-4.37-.03-6.43-.17-2.05.03-4.11.21-6.18,0,0-.17-.03-.17-.03-.82,2.65-1.34,5.55-1.19,8.33-.04,1.34-.38,2.62-.55,3.91-.11,1.02-.28,1.81-.59,2.67-1.2-6.19-2.52-12.36-3.96-18.5-.04-.18-.1-.37-.25-.47-.37-.24-.64.24-.7.72-.02.14-.01.27,0,.39,1.07,5.88,2.05,11.77,2.96,17.68-.91-1.49-1.46-3.13-2.04-4.85-.55-1.18-1.46-2.11-2.06-3.12-.56-.89-.82-2.11-1.36-3.38h-.18c-.45,1.34-.58,2.75-.07,4.13.47,1.35,1.72,2.02,2.42,3.05.88,1.87,1.92,3.79,3.45,5.23,0,.05.01.1.02.15-1.3-.65-2.6-1.24-3.59-2.37-1.43-1.36-2.42-3.08-4.18-4.16-1.15-.68-2.17-1.1-3.26-1.93,0,0-.15.09-.15.09.75,2.76,3.34,3.81,5.29,5.61,1.05.84,1.99,1.76,3.23,2.35.92.33,1.82.6,2.71.88.33,2.16.65,4.33.95,6.49-1.37-.5-2.78-.88-4.21-1.1,0,0-.06.26-.06.26,1.52.47,3,1.01,4.4,1.71.4,2.9.79,5.8,1.15,8.7.04.29.07.58.1.88-.47-.93-.9-1.88-1.3-2.85,0,0-.06.02-.12.04-.28-.93-.61-1.85-1.07-2.72-.3-.63-.61-1.27-1.05-1.93l-.27.02c-.63,1.46-.66,3-.45,4.46.19,1.48,1.02,2.74,1.63,4.02.58,1.22,1.28,2.46,2.11,3.58-2.5-2.5-4.87-5.16-7.11-7.85-1.34-1.75-2.68-4.74-3.74-6.72-1.24-2.29-2.39-4.69-3.95-6.99,0,0-.25.09-.25.09.35,5.58,2.4,10.92,6.32,15.01,2.69,2.66,5.44,5.22,8.41,7.5-1.4-.67-2.82-1.28-4.1-2.1-5.1-3-9.18-7.7-13.02-12.06-1.95-2.18-3.63-4.53-5.24-7.19,0,0-.25.08-.25.08.43,6.43,5.22,11.6,10.11,15.25,2.39,1.94,4.97,3.76,7.78,5.1,2.12,1.03,4.35,1.54,6.39,2.43.29,2.61.57,5.21.83,7.82-.02-.01-.03-.03-.05-.04l-.18.2c.09.1.19.18.27.28.06.57.12,1.13.18,1.7.05.47.08.95.12,1.42-.44-.61-.88-1.22-1.29-1.85,0,0-.23.14-.23.14.5,1.01,1.05,1.99,1.63,2.96.08,1.02.15,2.03.21,3.05-4.52-5.09-9.63-9.78-14.02-14.97-1.75-2.21-3.11-4.76-4.49-7.28l-.24.11c1,2.7,2.1,5.4,3.64,7.93,1.7,2.43,3.48,4.68,5.26,6.96,2.38,3.27,5.13,6.42,8.44,8.77-1.42-.81-2.81-1.66-4.21-2.52-2.91-1.7-5.84-3.26-8.29-5.35-2-1.58-3.16-3.53-4.58-5.54-2.59-3.35-5.55-6.41-9.05-8.87,0,0-.2.18-.2.18,2.19,3.66,4.54,7,7.03,10.36.94,1.22,2.22,2.97,3.42,3.92,3.2,2.89,7.3,4.7,11.03,6.47,2.11.99,4.24,2.05,6.44,2.91.29,5.87.4,11.75.75,17.62.02.28.04.57.06.85-.89-.89-1.82-1.72-2.8-2.5-.7-2.91-.42-5.99-.94-9.02-.41-2.29-1.08-4.7-2.52-6.68l-.25.09c-.01,5.95.06,11.66,2.34,17.28,1.33,2.4,2.93,4.45,4.54,6.56.02.28.04.56.06.84-1.37-1.41-2.64-2.91-3.85-4.47-1.09-2.01-2.15-4.04-3.21-6.05l-.24.11c.41,1.02.82,2.03,1.24,3.04-.95-1.4-1.74-2.89-2.24-4.59-.91-2.78-1.49-5.73-2.66-8.49-1.15-2.76-2.49-5.53-4.46-7.9,0,0-.24.12-.24.12,1.68,7.36,3.5,14.72,7.66,21.11,1.23,1.47,2.52,2.87,3.86,4.2.29.64.58,1.27.88,1.9-1.49-.72-2.99-1.42-4.5-2.08-1.84-.76-3.3-1.45-4.87-2.65-7.5-6.29-13.35-14.58-18.59-22.83l-.23.13c1.73,3.6,3.71,7.08,5.86,10.48,3.39,5.07,6.89,9.97,11.3,14.27,1.49,1.4,3.63,2.48,5.55,3.08,2.21.75,4.45,1.45,6.71,2.06.78,1.5,1.59,2.98,2.48,4.41.28,3.6.59,7.19.94,10.78-.53-.38-1.07-.74-1.6-1.04-1.74-1.18-4.03-2.08-5.43-3.54-1.31-1.58-1.74-4.03-2.72-5.9-1.99-4.15-4.9-7.84-8.46-10.65l-.17.2c3.25,3.1,5.82,6.86,7.41,10.98.96,2.17,1.11,4.45,2.6,6.47,2.4,2.64,5.64,3.79,8.13,6.24.19.17.37.36.56.55.26,2.53.54,5.05.84,7.57.34,2.83.71,5.65,1.09,8.47-.93-1-1.86-2-2.79-3.01-.33-.75-.65-1.48-.96-2.14,0,0-.25.1-.25.1.13.37.27.77.4,1.18-1.95-2.06-3.94-4.07-6.13-5.85,0,0-.03.04-.07.07-4.78-6.29-8.41-13.4-14.12-19.05l-.22.14c3.59,9.65,10.16,17.94,17.69,24.83,1.14.97,2.71,2.35,3.81,3.36.08.08.17.13.26.2.05.16.1.31.16.47-2.19-.85-4.45-1.57-6.45-2.67-.38-.19-.76-.4-1.13-.61-.22-.23-.42-.47-.65-.69,0,0-.19.18-.19.18.01.01.02.03.03.04-3.04-1.8-5.81-4.04-8.52-6.38-6.32-6.15-15.28-9.49-19.99-17.21,0,0-.23.13-.23.13,2.91,6.16,8.88,9.99,13.96,14.17,6.37,5.52,10.23,11.13,17.83,13.65-.78-.16-1.56-.33-2.34-.5-4.63-1.08-9.33-1.6-13.65-3.29-.37-.14-.73-.3-1.09-.45-.25-.26-.5-.54-.76-.8,0,0-.2.18-.2.18.09.1.16.2.25.3-3.59-1.67-6.88-4.13-10.25-6.45-3.93-2.7-7.84-5.44-11.79-8.11l-.16.21c3.7,3.02,7.44,5.98,11.17,8.98,3.81,2.96,7.53,6.12,12.02,8.11.55.25,1.1.48,1.65.7,3.2,4.53,5.81,9.42,9.35,13.79,1.59,1.86,3.81,3.24,5.9,4.4,3.09,1.68,5.72,4.04,8.69,5.99.94.6,1.91,1.16,2.89,1.69.07.38.13.76.2,1.14.03.17.07.35.1.52-2.19-.48-4.37-.99-6.49-1.59-1.47-.52-3.03-1.18-4.59-1.74-4.01-5.09-8.37-9.93-13.13-14.26l-.19.19c3.67,4.23,7.17,8.6,10.38,13.18-2.25-.61-4.44-1.17-6.16-2.41-1.85-1.27-2.89-3.5-3.85-5.76-1.99-4.49-3.78-9.33-7.15-13.1l-.21.17c2.98,3.98,4.44,8.75,6.12,13.43,1.91,6.19,5.23,8.14,11.07,9.84.76.23,1.48.52,2.18.82.29.44.6.87.89,1.32,3.37,5.65,6.88,12.27,12.94,15.51-5.48-1.11-10.62-3.45-14.85-7.14-2.75-2.21-4.62-5.09-7.06-7.64-5.94-5.6-12.91-9.89-19.23-15.17l-.2.18c2.63,3.93,6,7.31,9.57,10.37,2.62,2.31,5.61,4.09,8.22,6.32,2.54,2.34,4.74,5.26,7.61,7.29,4.86,3.83,10.93,6,17.04,6.53,0,.02,0,.03,0,.05-4.19-.36-8.33-1.09-12.43-2.05-4.73-1.08-9.51-2.14-13.54-4.51-1.99-1.2-3.85-3.11-5.95-4.25-4.25-2.54-8.92-4.04-13.43-5.91-2.22-.93-4.38-1.94-6.54-3.13l-.16.21c5.14,5.33,12.42,7.85,18.85,11.14,2.28,1.03,3.94,2.65,6.21,3.82,4.57,2.34,9.53,3.11,14.31,3.95,4.22.67,8.48,1.18,12.75,1.2.55,3.54,1.02,7.08,1.35,10.65.3,3.18.67,8.24.99,11.71,1.61.56,2.94.58,4.42-.33-.34-3.36-.89-8.75-1.21-11.8-.37-3.46-.83-6.92-1.35-10.36,2.07-.4,4.12-.86,6.15-1.37l.5,10.99c1.41.65,2.89.52,4.43-.33,0,0-.66-10.49-.74-11.78.81-.23,1.62-.45,2.43-.68,2.38-.71,4.82-1.56,7.1-2.89,2.21-1.36,3.97-2.79,6.28-3.91.2-.1.41-.2.62-.31.45,2.98,1.02,6.75,1.42,9.33,1.66.51,2.95.16,4.37-.79-.51-3.2-1.33-7.72-1.85-10.87,1.78-1.3,3.31-2.91,4-5.03.43-1.44.77-2.9,1.1-4.37.13-.09.27-.18.39-.27,2.06-1.58,3.67-3.42,5.54-4.77,5.56-4.25,12.78-7.19,16.74-13.28.24-.22.48-.43.74-.64,5.4-4.8,11.82-9.05,15.47-15.5,0,0-.21-.16-.21-.16ZM112.47,128.37c-1.59,2.03-3.29,3.96-5.22,5.66-.03.03-.07.06-.11.09,1.69-1.97,3.54-3.84,5.32-5.75ZM54.34,75.62c.31.82.64,1.62,1,2.41.05.43.1.86.15,1.3-.5-1.2-.83-2.45-1.16-3.71ZM56.98,158.35c-1.21-1.21-2.32-2.49-3.37-3.81,1.28,1.32,2.49,2.69,3.66,4.1-.1-.1-.19-.2-.29-.29ZM101.4,141.7c3.06-.63,6.04-1.69,8.88-2.9,2.42-1.02,4.8-2.21,7.11-3.57-2.99,2.83-5.98,5.63-9.43,7.61-2.4,1.4-5,2.38-7.65,3.32-.1-.94-.21-1.88-.31-2.83.49-.53.96-1.08,1.41-1.63ZM99.64,187.85c.01.1.03.2.04.3-.22.09-.43.17-.65.26.21-.18.41-.37.61-.56ZM99.37,185.45c-1.11,1.14-2.38,2.08-3.75,3.03-1.16.78-2.27,1.66-3.34,2.56-2.23.81-4.48,1.53-6.78,2.09,5.18-1.31,10.06-4.04,13.86-7.83,0,.05.01.1.02.15ZM84.57,191.82c.2-.67.39-1.35.55-2.01.47-1.93.79-3.83,1.17-5.7.89.03,1.78.04,2.68.06-1.25,2.66-2.6,5.25-4.4,7.65ZM85.03,193.24c-.33.08-.67.16-1,.23,0,0,0,0,0-.01.33-.07.66-.14,1-.22ZM71.77,121.33c.1-.89.19-1.78.28-2.67.54-1.03.97-2.12,1.27-3.27.1-.38.19-.76.29-1.15,1.14.64,2.36,1.14,3.63,1.46-.98,1.26-1.98,2.48-3.02,3.65-.79.69-1.62,1.34-2.45,1.98ZM71.8,125.22c-.16.09-.33.19-.49.28.02-.19.05-.39.07-.58,0-.08.02-.15.02-.23.13.18.26.36.4.53ZM72.19,74.57c.05.14.09.28.15.42.13.26.27.5.42.74-1.05-.51-2.13-.99-3.2-1.4.2-.37.41-.73.63-1.08.67.43,1.34.88,2.01,1.32ZM70.86,65.91c.14.23.28.45.43.68-.05.08-.09.16-.14.23-.1-.31-.19-.61-.29-.91ZM87.85,89.77c-.54,3.46-1.06,6.93-1.55,10.4-.36-.27-.73-.53-1.09-.8-2.42-1.77-4.78-3.06-6.37-5.47-.03-.04-.06-.09-.09-.13,1.85-1.6,3.25-3.44,4.58-5.31,1.53.32,3.05.74,4.52,1.3ZM85.44,85.53s.03-.05.05-.07c.11.13.21.25.32.38-.14-.12-.21-.18-.37-.31ZM86.85,83.76c.04-.05.08-.11.13-.16.04.21.07.41.11.62-.08-.15-.15-.31-.23-.46ZM70.38,96.96c.1.1.2.2.3.3-.43.37-.86.73-1.27,1.06-.26.21-.54.38-.82.53-.11-.06-.22-.12-.33-.18.76-.52,1.46-1.1,2.12-1.72ZM66.61,96.59c-.08-.13-.16-.26-.24-.38.48-.58.95-1.18,1.4-1.79.16.15.31.31.47.47.06.05.11.1.16.16-.6.52-1.2,1.03-1.8,1.55ZM73.31,82.06c.42.38.82.77,1.19,1.23.65.83,1.5,1.81,2.48,2.67-.45.97-1.02,1.86-1.67,2.67-.96-1.43-1.93-2.86-2.9-4.29.02-.06.03-.11.05-.17.28-.69.56-1.4.84-2.12ZM73.15,79s0,0,.01,0c0,0,0,0,0,0,0,0,0,0,0,0ZM78.03,83.15c-.51-.54-1.03-1.11-1.62-1.68-.65-.65-1.42-1.22-2.2-1.75.02-.06.05-.12.07-.18.63.27,1.29.47,1.98.64.65.78,1.31,1.57,2.01,2.33-.08.21-.16.42-.24.64ZM80.99,88.04c.19.03.37.06.56.09-1.25,1.45-2.53,2.8-3.97,3.88-.39-.57-.77-1.14-1.16-1.72.34-.45.66-.91.96-1.42.37-.64.63-1.3.85-1.95.86.57,1.79.99,2.76,1.11ZM72.95,94.27c.05.31.09.62.14.94-.2.16-.39.33-.59.49-.16-.13-.33-.27-.49-.4.32-.34.63-.68.94-1.03ZM72.66,87.01c.51.96,1.05,1.91,1.57,2.87-.23.23-.45.47-.69.69l-.88-3.56ZM72.69,99.19c.41.37.82.72,1.25,1.06.08.45.16.91.24,1.36,0,.03.01.05.02.08-.99-.45-1.97-.93-2.94-1.43.5-.33.98-.69,1.43-1.07ZM74.13,92.97c.13-.14.26-.29.4-.43.24-.26.48-.53.71-.79.24.43.47.87.71,1.31-.51.34-1.01.7-1.51,1.08-.1-.39-.2-.78-.31-1.16ZM72.56,91.48c-.83.74-1.68,1.45-2.53,2.17-.36-.31-.72-.62-1.07-.94.05-.08.11-.16.16-.24,1.23-1.94,2.07-4.24,2.78-6.45.2,1.82.43,3.64.67,5.45ZM74.89,104.55c-.28.79-.56,1.58-.84,2.37-.41-.36-.82-.72-1.22-1.1-1.12-1.27-2.09-2.71-3.03-4.18,1.68,1.01,3.38,1.98,5.09,2.91ZM74.53,110.6c1.47.95,3.03,1.79,4.64,2.51-.13.18-.27.36-.4.54-1.56-.55-3.05-1.29-4.47-2.15.08-.3.15-.6.23-.9ZM75.21,107.89c.16-.65.33-1.31.48-1.96.99,1.83,2.34,3.48,3.9,4.92,0,.1.02.19.03.29-1.51-1.04-3-2.11-4.41-3.25ZM76.98,102.87c-.13-.27-.25-.54-.36-.81.01-.05.02-.1.03-.14,2.54,1.14,5.24,1.94,8,2.5-.1.18-.2.36-.3.53-2.52-.39-4.98-1.13-7.37-2.08ZM77.29,99.18c.1-.42.2-.84.3-1.26l-.26-.07c-.14.37-.27.74-.41,1.1-.54-.37-1.08-.74-1.61-1.13-.07-.3-.15-.6-.22-.9.63-.63,1.28-1.25,1.97-1.84,1.89,3.39,4.96,5.78,8.41,7.5-2.78-1.05-5.54-2.1-8.19-3.4ZM85.5,132.07c.27.53.59,1.04,1,1.5.43.46.9.88,1.35,1.32-.15.38-.32.76-.48,1.15-.1-.11-.19-.22-.3-.33-.53-.59-1.13-1.1-1.73-1.58.05-.68.1-1.36.16-2.05ZM88.45,140.04c.2.09.4.16.6.22-.62-.04-1.23-.07-1.85-.1.08-.22.16-.45.24-.67.32.22.66.41,1,.55ZM88.3,137.05c.14-.44.29-.87.42-1.31,1.34,1.2,2.77,2.28,4.26,3.27-.03.05-.06.1-.09.15-.97-.36-2.04-.6-2.93-.88-.68-.31-1.18-.74-1.66-1.24ZM86.28,138.57c-.23.51-.46,1.02-.69,1.53-.23,0-.45,0-.68-.01.06-.86.11-1.73.17-2.59.03.03.06.05.09.08.33.3.71.65,1.11,1ZM86.23,142.59c1.7-.13,3.34-.29,4.48-.32.09,0,.17,0,.26-.01-.34.5-.68.99-1.05,1.47-1.79,2.4-3.13,5.11-5.62,6.81.07-1.43.14-2.84.22-4.24.62-1.22,1.18-2.46,1.71-3.71ZM90.98,144.54c.64-.78,1.26-1.57,1.87-2.37.6-.03,1.2-.05,1.81-.07-.03.1-.07.2-.1.3-.31.87-.51,1.84-.72,2.79-.16.12-.33.25-.49.37-2.09,1.62-4.63,2.7-6.98,4.06,1.73-1.47,3.09-3.4,4.62-5.08ZM93.79,137.53c-1.38-1.6-2.79-3.16-4.2-4.7.61-2.16,1.17-4.33,1.71-6.5l-.26-.08c-.71,1.95-1.4,3.91-2.12,5.85-.1-.11-.21-.23-.31-.34-1.04-1.13-1.41-2.42-2.11-3.84-.17-.38-.37-.75-.56-1.13.32-3.75.66-7.5,1.04-11.25,1.75-.33,3.47-.71,5.18-1.15,1.06,6.92,2,13.86,2.83,20.82-.39.78-.78,1.56-1.19,2.33ZM89.02,113.58c.92-.67,1.81-1.36,2.68-2.09.04.28.09.55.13.83-.94.41-1.88.83-2.81,1.27ZM87.09,114.34s.01-.1.02-.15c.46-.57.89-1.16,1.33-1.75.95-1.08,1.89-2.16,2.84-3.24.02-.02.03-.04.05-.06.05.34.11.68.16,1.02-1.39,1.47-2.85,2.89-4.4,4.17ZM84.5,84.66c-1.47-1.41-3.02-2.84-4.52-4.22.01-.04.02-.08.03-.12.47-.03.94-.05,1.41-.08.98,1.48,2.09,2.86,3.24,4.24-.05.06-.11.12-.16.18ZM81.17,85.15c.44.3.88.62,1.33.94-.98-.34-1.94-.66-2.73-1.29-.25-.19-.5-.41-.74-.64.06-.23.12-.46.18-.68.61.6,1.26,1.17,1.97,1.68ZM77.07,77.76c-.27-.25-.53-.51-.79-.76.55.26,1.1.51,1.69.71.4.13.8.27,1.2.41-.71-.05-1.41-.12-2.1-.35ZM76.55,74.05c.13-.29.27-.58.4-.86.55.46,1.11.89,1.69,1.31.01.04.02.08.03.12.06.19.13.38.2.57-.78-.39-1.54-.76-2.32-1.15ZM74.11,67.04s-.01-.02-.02-.02c.48-1.08.84-2.25,1.03-3.44.77,2.11,1.52,4.25,2.21,6.42-1.13-.95-2.23-1.91-3.22-2.95ZM75.4,71.82c.39.37.79.73,1.2,1.08-.2.29-.39.59-.57.89-.28-.14-.57-.28-.85-.42-.7-.34-1.41-.68-2.11-1.02-.29-.7-.55-1.43-.81-2.16.25-.37.49-.74.73-1.13.74.99,1.53,1.93,2.41,2.75ZM70.91,80.05c.41.35.81.67,1.21.99-.28.55-.55,1.11-.82,1.66-.83-1.21-1.67-2.42-2.52-3.62l-.23.14c.76,1.48,1.54,2.93,2.32,4.4-.62,1.33-1.2,2.64-1.7,3.9-.65,1.16-1.4,2.28-2.18,3.39-2.28-2.15-4.44-4.4-6.45-6.69-.25-.29-.5-.6-.74-.9,1.8-1.26,3.57-2.54,5.36-3.81.99-.69,2.06-1.59,2.9-2.62.82,1.13,1.73,2.22,2.86,3.18ZM65.85,92.47c-.32.44-.63.87-.95,1.31-1.17-1.98-2.29-3.98-3.29-6.04,1.35,1.64,2.77,3.21,4.24,4.73ZM64.67,98.27c-.18.17-.36.33-.55.49.16-.18.32-.36.48-.53.02.01.04.03.06.04ZM67.1,101.78c1.06,2.06,2.12,4.12,3.67,5.9.73.69,1.51,1.32,2.32,1.92-.11.3-.21.6-.32.9-1.41-.98-2.75-2.07-4-3.25-1.67-1.58-3.32-3.17-4.91-4.81,1.08-.25,2.16-.45,3.24-.67ZM76.14,121.34c1.52-1.51,2.68-3.38,3.79-5.25.06,0,.12,0,.18,0,.04.44.09.88.13,1.31.06.47.09.95.13,1.42-2.24,1.99-4.58,3.88-7.08,5.48-.16-.17-.31-.34-.46-.52,1.16-.75,2.27-1.57,3.31-2.46ZM79.47,106.63c1.14.34,2.32.57,3.51.67-.43.71-.87,1.42-1.32,2.12-.73-.93-1.46-1.86-2.19-2.8ZM81.19,113.97c.64.26,1.29.5,1.94.73-.06-.01-.12-.03-.17-.04-.67-.08-1.32-.2-1.97-.35.07-.11.14-.22.2-.34ZM83.67,115.81c-.67.63-1.34,1.26-2.03,1.88-.03-.15-.05-.29-.08-.44-.08-.39-.16-.79-.24-1.18.85-.08,1.61-.24,2.35-.26ZM82.94,111.07c.71-1.22,1.4-2.45,2.05-3.71.11,0,.22-.01.33-.02-.26,1.95-.51,3.9-.75,5.84-.54-.71-1.09-1.42-1.64-2.12ZM84.44,114.41s0,.04,0,.06c-.17-.12-.33-.24-.5-.36.17.1.34.2.51.3ZM84.2,152.71c1.55.01,3.1-.12,4.64-.38-1.23,1.01-2.53,2.1-3.48,3.07-.48.45-.9.93-1.31,1.4.05-1.37.1-2.74.15-4.09ZM87.08,157.02c.72-.85,1.74-1.84,2.74-2.78.1,1.67.07,3.36.45,5.02.57,2.72,1.42,5.25,1.56,8.02.02,2.56.58,5.17,1.62,7.54-.23.41-.46.83-.67,1.25-1.28-1-2.49-2-3.59-3.1.32-1.77.59-3.54.88-5.03l-.26-.06-1.24,4.45c-.92-.99-1.75-2.07-2.48-3.31-.79-1.24-1.52-2.56-2.26-3.88.03-1.42.06-2.83.1-4.24,1.21-1.16,2.12-2.69,3.16-3.87ZM93.26,182.28c-.15-.02-.3-.04-.45-.06,0-.02.01-.03.02-.05.14.03.29.07.43.1ZM88,178.06c.2-.6.38-1.24.54-1.91,1,.92,2.02,1.63,3.03,2.37-.15.31-.29.62-.44.94-1.05-.45-2.09-.92-3.13-1.39ZM90.2,181.48c-.06.13-.12.25-.17.38-1.05-.12-2.1-.23-3.15-.34.09-.35.19-.69.3-1.04,1,.37,2.01.7,3.02,1ZM84.24,170.08c.95,1.78,2.08,3.59,3.47,5.17-.24.78-.52,1.54-.84,2.3-1.07-.5-2.14-1-3.21-1.52.02-2.27.05-4.58.09-6.9.16.32.32.64.5.96ZM91.89,184.2c2.1,0,4.21-.04,6.32-.15-3.51,3.94-8.05,6.88-13.08,8.54,3.04-2.05,5.12-5.08,6.76-8.39ZM93.55,180.49c.04-.09.07-.18.11-.26.08.08.17.15.25.24.13.14.29.25.43.37-.27-.11-.53-.23-.8-.34ZM94.65,177.76c.06-.14.11-.28.17-.42.79,1.22,1.74,2.34,2.83,3.3-.08-.05-.17-.1-.25-.15-1.02-.66-1.78-1.66-2.75-2.72ZM99,183.16s-.03.04-.05.06c-.21-.04-.41-.08-.62-.12.22.02.44.04.66.06ZM98.84,180.17c-.99-1.91-1.92-3.91-2.72-5.93.62-1.37,1.26-2.73,1.93-4.08.23,3.34.49,6.67.8,10.01ZM97.68,164.71c.05.82.11,1.65.16,2.47-.92,1.48-1.81,2.98-2.67,4.5-.09-.27-.18-.54-.27-.81-.45-1.25-.7-2.49-.95-3.88-.41-2.76-1.56-5.45-2.38-8.07-.62-1.68-.76-3.51-1.12-5.27.5-.46.98-.91,1.41-1.3.3-.27.61-.57.91-.89,1.02-.27,2.04-.56,3.03-.85.26-.08.52-.16.77-.24.43,4.77.81,9.55,1.11,14.33ZM95.82,142.79c.03.25.05.5.08.76-.11.09-.21.18-.32.27.07-.34.15-.68.24-1.02ZM95.38,138.64c.04.32.07.63.11.95-.14-.17-.27-.34-.41-.51.1-.15.2-.29.3-.44ZM96.23,146.81c.03.26.05.52.07.77-.46.17-.92.34-1.37.51-.07.03-.14.05-.21.08.04-.13.09-.27.12-.4.48-.3.94-.62,1.39-.96ZM95.53,105.63c-.28.33-.57.66-.85.99-.12-.64-.22-1.28-.34-1.93.91-.48,1.8-.98,2.69-1.49-.43.84-.91,1.66-1.49,2.42ZM99.26,82.23c-.04.57-.07,1.15-.08,1.72-.55.28-1.1.55-1.64.84-.39.22-.78.43-1.17.65-.02-.14-.05-.29-.07-.43,1.04-.87,2.04-1.8,2.97-2.78ZM96.98,89.03c-.08.09-.15.18-.23.27-.04-.88-.12-1.75-.23-2.62.53-.23,1.06-.46,1.59-.68.34-.14.68-.29,1.02-.43-.02,1.18-.04,2.35-.11,3.51-.09,2.97-1.11,5.53-2.37,8.21-.11.26-.23.52-.35.78.11-.69.19-1.38.24-2.06.15-2.31.28-4.46.68-6.84,0,0-.24-.12-.24-.12ZM95.45,101.72c1.71-2.48,3.17-5.13,4.49-7.89,1.03-3.08,1.61-6.22,1.92-9.39,1.9-.79,3.8-1.66,5.58-2.83,2.97-1.84,5.22-4.75,7.25-7.44-2.55,6.98-5.65,13.84-9.93,19.83-.62.8-1.26,1.46-1.94,2.07,1.32-3.35,2.38-6.83,3.5-10.19l-.23-.14c-2.23,2.22-3.78,4.99-5.11,7.73-.96,1.93-1.63,3.98-2.36,5.99-1.15.93-2.27,1.9-3.38,2.89.07-.21.14-.42.21-.63ZM93.86,86.81s0,0,0,0c-.03.02-.07.04-.1.05.03-.02.07-.04.1-.06ZM94.04,87.73c.32,1.59.65,3.15.75,4.74-.88,2.26-1.09,4.75-1.4,7.21-.27-1.43-.53-2.85-.81-4.28-.43-2.21-.9-4.41-1.37-6.61.96-.31,1.9-.68,2.83-1.06ZM90.84,106.14c.05.33.11.66.16.98-.58.98-1.19,1.95-1.82,2.91-.6.74-1.22,1.48-1.86,2.18.18-1.74.37-3.47.56-5.21,1.02-.26,1.95-.7,2.95-.87ZM88.98,97.92c.1-.34.2-.67.3-1.01.36,2.11.72,4.21,1.08,6.32-.61-.49-1.23-.96-1.85-1.43.16-1.29.32-2.59.48-3.88ZM88.91,78.15c.33-.24.65-.48.98-.73-.17.99-.34,1.99-.51,2.98-.16-.75-.32-1.5-.47-2.25ZM90.06,76.24s.02-.03.03-.04c0,0,0,0,0,0-.01.01-.02.02-.03.03ZM89.89,105.25c-.13,0-.26-.01-.39-.01-.48.02-.95.03-1.42.02,0-.08.02-.16.03-.24.59.08,1.18.16,1.78.23ZM88.3,75.12c-.36-1.87-.71-3.75-1-5.64-.1-.65-.19-1.3-.29-1.95,1.28.94,2.59,1.84,3.86,2.84-.88,1.57-1.74,3.15-2.56,4.75ZM100.75,64.72c-.17.27-.35.53-.55.79-.43.62-.9,1.21-1.39,1.78-.83.39-1.7.74-2.56,1.1,1.56-1.16,3.05-2.41,4.51-3.68ZM94.08,70.04c1.03-.43,2.12-.74,3.21-1.06-1.21,1.27-2.5,2.51-3.78,3.78-.36.37-.72.74-1.08,1.11.07-.4.13-.81.2-1.21.52-.85,1-1.72,1.45-2.61ZM91.36,69.24c-1.71-3.52-2.94-7.03-4.06-10.71,1.36-.92,2.8-1.78,4.11-2.9,1.18-.99,2.27-2.07,3.29-3.22-1.18,5.58-2.29,11.19-3.34,16.82ZM95.07,44.31c.32.49.71.83,1.13,1.11,0,.02,0,.04-.01.06-.52-.19-.89-.5-1.21-.87.03-.1.06-.2.09-.3ZM93.32,48.34c.47-.83.85-1.69,1.2-2.56.53.2,1.07.26,1.59.05-.15.7-.31,1.4-.46,2.09-1.49,2.42-3.15,4.73-5.15,6.72-1.03,1.11-2.26,2.06-3.45,3.06,2.31-2.95,4.33-6.12,6.27-9.37ZM88.09,67.17c-.45-.43-.89-.86-1.33-1.29-.07-.48-.14-.96-.22-1.43.44.95.95,1.86,1.55,2.72ZM86.42,80.31c.12.7.23,1.39.35,2.09-.16.13-.31.27-.46.41-.52-.89-1.09-1.76-1.67-2.62.48.02.96.05,1.46.11,0,0,0-.01,0-.02.09.04.17.07.25.11,0,0,.02-.03.05-.07ZM85.6,79.11c.16.11.32.21.49.32,0,0,.01,0,.02-.01-.03.06-.06.11-.08.17-.14-.16-.28-.32-.42-.47ZM86.33,79.77c.01.07.02.14.03.21-.04-.05-.08-.09-.12-.14.03-.02.06-.05.08-.07ZM83.11,60.79c.11.04.21.09.32.13.06.41.11.82.17,1.23-.17-.42-.35-.85-.53-1.29.02-.04.02-.05.04-.08ZM69.86,53.77c.4.39.79.79,1.15,1.24,1.2,1.56,3.24,2.62,4.99,3.27,1.49.57,2.98,1.14,4.47,1.71.56.99.96,2.16,1.77,3.31.56.67,1.17,1.27,1.79,1.84.68,4.68,1.42,9.34,2.2,14-1.52-2.77-3.78-4.88-6.14-6.87-1.3-3.43-3.01-7.08-4.66-10.26-.06-.12-.12-.24-.18-.36-.02-.8-.13-1.59-.37-2.35,0,0-.27,0-.27,0-.07.24-.15.46-.22.7-.34-.61-.71-1.21-1.14-1.77l-.22.15c.44.78.78,1.61,1.09,2.45-.5,1.39-1.11,2.67-1.78,3.9-1.4-1.75-2.93-3.53-4.46-5.2.38-2.01.97-3.98,1.98-5.76ZM67.59,61.21c.71,1,1.42,1.98,2.11,2.92.26,1.3.5,2.6.76,3.89-.42.72-.83,1.45-1.22,2.21-.98-.65-1.89-1.41-2.69-2.29.37-2.26.67-4.53,1.05-6.73ZM66.17,70.04c.11.13.21.26.33.38.59.6,1.23,1.12,1.87,1.59-.07.17-.16.32-.23.49-.16.32-.3.65-.44,1-.58-.78-1.16-1.58-1.76-2.36.08-.36.16-.73.23-1.1ZM64.97,74.73c.5.3,1.02.6,1.57.86.07.02.13.05.2.08-.03.05-.05.11-.09.16-1.31,1.81-3.05,3.38-4.77,4.94,1.4-1.81,2.37-3.87,3.09-6.04ZM57.74,74.69h-.27c0,.19,0,.37,0,.55-.34-2.4-.72-4.79-1.11-7.18,2.2,1.58,4.15,3.45,6.34,5.11-.43,1.15-.87,2.28-1.23,3.26-.66,1.77-1.45,3.49-2.31,5.24-.71-2.25-1.22-4.57-1.42-6.99ZM55.9,118.95s-.02-.08-.03-.13c.93.92,1.82,1.88,2.64,2.89.06.94.12,1.89.19,2.83-1.02-1.86-2.03-3.72-2.79-5.6ZM57.51,126.98c-.11-.19-.22-.37-.33-.56.4.34.8.69,1.21,1.02-.29-.16-.59-.31-.88-.46ZM58.76,128.98c.08.02.16.03.24.05,0,.13.02.25.03.38-.09-.14-.18-.29-.27-.43ZM58.61,83.93s.06-.04.09-.07c.06.09.13.18.19.28,1.17,3.92,2.94,7.7,4.83,11.33-.1.15-.2.31-.3.46-1.3-.82-2.56-1.71-3.8-2.65-.31-3.12-.65-6.24-1.01-9.36ZM60.11,98.36c-.12-1.35-.25-2.7-.39-4.05,1,.9,2.03,1.76,3.09,2.58-.56.92-1.06,1.86-1.49,2.85-.41-.46-.82-.92-1.22-1.38ZM60.29,100.41c.17.23.34.47.51.7-.13.38-.25.77-.35,1.16-.05-.62-.11-1.24-.17-1.86ZM61.05,102.07c-.1.18-.2.37-.29.56-.04-.05-.08-.09-.12-.14,0,0,.02.01.02.01.13-.15.26-.29.39-.43ZM60.51,102.9s.06.03.1.04c-.03.05-.05.11-.08.16,0-.07-.01-.14-.02-.21ZM62.36,125.17c-.62-7.23-1.18-14.48-1.8-21.73.04.03.07.06.07.06.08-.06.14-.11.22-.17,0,0,0,.02,0,.02.46-.17.9-.32,1.35-.46,1.62,2.01,3.33,3.95,5.04,5.85,1.33,1.63,2.88,3.15,4.61,4.39-.19.53-.37,1.06-.56,1.58-.55,1.59-1.44,2.87-2.47,4.13-2.17-2.85-4.17-5.85-6.2-8.83l-.23.14c1.77,3.27,3.59,6.54,5.61,9.67-.49.57-1,1.15-1.5,1.77-1.19,1.46-2.39,2.92-3.56,4.44-.19-.29-.37-.58-.57-.87ZM74.62,151.76s.07,0,.1,0c.36.81.74,1.65,1.13,2.51-.77.89-1.5,1.86-2.07,2.96-.7,1.31-1.09,2.37-2.15,3.23-1.01.62-2.32,1.26-3.29,2.08,2.12-2.27,3.95-4.76,5.46-7.52.53-1.03.72-2.14.82-3.27ZM74.27,138.91c.11.07.21.15.32.23.03.3.05.59.07.88-.15-.36-.28-.73-.39-1.11ZM76.35,153.7l-1.12-1.93c.92.03,1.85.06,2.78.12-.13.15-.26.3-.4.44-.41.43-.84.89-1.26,1.36ZM79.03,160.2s.06.09.09.13c-.39.11-.78.22-1.19.34-1.19.33-2.4.67-3.6,1.05-.04-.18-.08-.37-.14-.55.77-.81,1.39-1.82,1.89-2.59.35-.5.72-1,1.11-1.51.59,1.15,1.2,2.24,1.84,3.13ZM75.08,147.34c.09-.54.22-1.05.35-1.55,1.22,1.36,2.55,2.62,3.98,3.77-.28-.19-.55-.38-.94-.63-1.11-.61-2.52-.84-3.39-1.6ZM73.82,164.14c-.01.13-.02.26-.03.39-.35,2.35-.02,4.69.3,7.02-.12-.04-.23-.09-.35-.14-2.19-.8-4.2-1.62-5.99-3.12-.15-.13-.29-.27-.43-.41-.12-.76-.23-1.53-.34-2.29,1.65-.4,3.29-.76,4.93-1.08.53-.12,1.19-.24,1.92-.37ZM73,162.14c.18-.11.36-.22.53-.36.12-.09.21-.2.32-.3.01.13.01.25.02.38-.29.09-.58.18-.87.28ZM72.46,149.25c-.97-.14-1.95-.28-2.93-.42-1.97-.24-3.49-.45-4.98-1.61-.32-2.77-.63-5.55-.91-8.32,2.27,2.69,5.21,5.02,7.42,7.56.44.54.98,1.22,1.6,1.83-.08.32-.15.64-.2.96ZM73.52,145.36c-.11-.16-.22-.33-.33-.5-2.48-3.46-6.04-5.22-8.73-8.34-.42-.45-.8-.92-1.2-1.39-.18-1.86-.35-3.71-.52-5.57.16-.01.33-.02.49-.02.57,1.31,1.12,2.62,2.13,3.8.87.99,1.99,1.62,2.99,2.16.86.46,1.92,1.02,2.96,1.6.28,1.78.44,3.58,1.39,5.2.41.6.84,1.18,1.28,1.75-.15.43-.3.87-.46,1.32ZM63.06,166.99c-.09-.15-.18-.3-.27-.46.07,0,.13,0,.2-.02.02.16.05.31.07.47ZM69.91,125.51c-.05.26-.11.53-.16.79-1.75.84-3.58,1.5-5.51,1.94-.02-.03-.03-.06-.05-.09,1.94-.78,3.86-1.64,5.72-2.64ZM67.04,124.77c.92-.79,1.77-1.64,2.56-2.55.11.16.22.33.33.49-.95.7-1.92,1.38-2.89,2.07ZM70.71,134.46c-.53-.24-1.03-.48-1.5-.69-1.01-.47-1.92-.93-2.59-1.61-.67-.7-1.19-1.6-1.68-2.53.5.03,1.01.06,1.54,0,1-.08,1.98-.27,2.95-.53,0,.25.02.51.05.77.21,1.64.82,3.06,1.24,4.59ZM70.78,121.36c-.08-.1-.16-.21-.25-.31.15-.2.3-.41.44-.62-.07.31-.13.62-.2.93ZM61.49,163.82s0,0,0,0c-.03-.01-.07-.03-.1-.04,0,0,0-.02-.01-.02.04.02.08.04.11.07ZM61.54,166.62c.3.69.61,1.34.94,1.92.42.75.8,1.52,1.14,2.31.29,1.92.59,3.83.9,5.74-.76-.49-1.46-1.1-2.05-1.9-1.73-2.58-3.23-5.37-4.88-8.07,1.32.07,2.64.07,3.96,0ZM62.27,182.76c-3.67-2.76-8.64-4.14-11.9-7.35-3.38-3.75-6.19-8.13-9.39-12.14,3.63,1.34,7.39,2.23,11.11,2.78,1.44.22,2.9.39,4.37.5,1.59,2.99,2.99,6.11,4.75,9.04.9,1.41,2.19,2.42,3.65,3.18.35,2.13.72,4.25,1.1,6.38-1.23-.78-2.46-1.57-3.68-2.39ZM66.6,163.11c-.59-4.14-1.14-8.29-1.65-12.45.23.1.46.19.7.26,2.13.47,4.25.65,6.37.75-.14.73-.33,1.43-.71,2.14-1.6,3.05-3.27,6.09-4.71,9.3ZM63.84,198.18c-1.61-2.45-3.3-4.88-5.06-7.27.23.1.44.21.68.31,2.46,1,5.01,1.49,7.47,1.82.16.02.32.04.48.06.78,4.11,1.54,8.24,2.2,12.37-2.2-2.28-4.08-4.69-5.78-7.29ZM69,178.26c-.44-2.57-.87-5.14-1.27-7.72,2,1.52,4.39,2.44,6.66,3.52.08.95.13,1.91.08,2.86-.08.78-.11,1.57-.09,2.36-.85-.21-1.7-.4-2.53-.51-.95-.16-1.9-.32-2.83-.52ZM69.84,180.52c.54.13,1.06.24,1.57.35,1.12.22,2.14.54,3.15.88.1.73.25,1.46.44,2.18-.06.73-.11,1.46-.14,2.19-1.97-1.92-3.67-3.52-5.02-5.6ZM70.79,188.09s-.01-.08-.02-.11c-.16-.83-.31-1.67-.47-2.5.94,1.02,2.02,1.93,2.97,2.82.59.54,1.15,1.19,1.73,1.82,0,.12.01.24.02.36-1.43-.77-2.84-1.56-4.24-2.38ZM71.33,190.95c.78.32,1.56.62,2.35.89-.76-.17-1.52-.34-2.28-.51-.02-.13-.05-.25-.07-.38ZM71.83,193.65c1.03.12,2.06.23,3.1.32-.2,3.03-.74,6.22-1.43,9.24-.52-3.19-1.08-6.38-1.67-9.56ZM73.99,206.29s0-.06-.01-.09c.33-.12.66-.25.99-.38-.33.15-.65.31-.98.47ZM74.98,203.18c-.06.07-.14.14-.21.21,1.83-2.69,2.75-5.94,2.84-9.21.76.05,1.52.08,2.29.12,0,.42.02.85.03,1.27-.68.99-1.42,1.96-2.19,2.94-1.16,1.79-1.65,3.47-2.76,4.66ZM77.48,182.76c.33.11.65.22.99.33.46.13.91.22,1.37.32-.01,2.24,0,4.47.02,6.7-.99-2.42-1.8-4.84-2.38-7.35ZM78.16,190.18c-.39-.41-.75-.84-1.12-1.31-.02-.1-.03-.2-.05-.3.35.56.74,1.1,1.17,1.61ZM79.89,193.46s0,.02,0,.03c-.08-.03-.17-.06-.25-.08.08.02.17.03.25.05ZM79.87,180.66c-.25-.05-.51-.08-.75-.14-.7-.16-1.42-.35-2.16-.55-.16-1.02-.29-2.05-.36-3.11-.04-.56-.1-1.14-.17-1.71,1.14.72,2.31,1.4,3.49,2.04-.02,1.16-.03,2.32-.05,3.47ZM78.35,202.29c.52-.87,1.1-1.62,1.69-2.35.01.41.03.82.04,1.23-.68.53-1.36,1.06-2.06,1.59.11-.15.23-.3.33-.47ZM79.43,203.88c.25-.13.49-.27.73-.41,0,.04,0,.07,0,.11-.24.1-.49.19-.74.29ZM79.97,174.2c-1.31-.65-2.67-1.32-4.06-1.92-.62-2.61-1.31-5.02-1.29-7.74,0-.18-.02-.36-.02-.54,1.88-.33,4.06-.7,5.76-1.19-.17,3.8-.29,7.59-.38,11.39ZM80.5,159.83s-.04.02-.06.02c-.11-.13-.2-.27-.31-.41-.89-1.01-1.6-2.11-2.29-3.23,1.02-1.29,2.09-2.6,3.08-3.94-.16,2.52-.29,5.04-.42,7.56ZM81.21,147.86c-.24.35-.48.7-.73,1.04-1.39-2.14-2.84-4.21-4.24-6.29.1-.74.08-1.46-.01-2.18,1.22.97,2.52,1.89,4.07,2.13.38.08.82.13,1.29.15-.13,1.71-.26,3.43-.38,5.14ZM81.82,139.98c-.77-.07-1.52-.21-2.25-.54-1.34-.65-2.51-1.64-3.87-2.45-.45-2.89-.89-5.8-1.38-8.71l-.27.02c.09,2.65.24,5.3.37,7.96-.33-.18-.67-.35-1.02-.53-.65-2.08-1.73-4.26-2.2-6.13-.07-.34-.1-.69-.12-1.05.86-.33,1.7-.73,2.5-1.2.79.91,1.59,1.79,2.45,2.64,1.77,1.94,4.04,3.6,6.21,5.23-.14,1.58-.28,3.16-.41,4.75ZM82.51,132.16c-.13-.08-.26-.16-.38-.24-2.54-1.59-4.83-3.5-6.95-5.61.3-.22.6-.45.88-.69,1.57-1.43,3.13-2.89,4.65-4.39.1.4.24.8.42,1.19.64,1.32,1.37,2.36,1.98,3.59-.21,2.05-.42,4.1-.61,6.15ZM82.69,121.65c-.31-.52-.5-1.12-.64-1.77.68-.69,1.34-1.4,2-2.11-.11.93-.23,1.87-.33,2.8-.08.75-.16,1.49-.24,2.24-.26-.39-.53-.78-.78-1.16ZM83.63,180.54c0-.5,0-1.01,0-1.51.72.32,1.45.64,2.18.93-.18.46-.34.93-.5,1.4-.56-.05-1.12-.11-1.68-.17,0-.21,0-.43-.01-.65ZM83.71,183.97c.27.02.55.05.82.06-.26.94-.51,1.89-.76,2.82-.02-.97-.04-1.93-.06-2.88ZM83.93,193.9c2.19-.28,4.35-.73,6.49-1.28-.15.13-.29.25-.44.38-1.95,1.73-3.92,3.38-5.91,5-.06-1.36-.1-2.73-.14-4.1ZM99.3,195.14c-2.24.91-4.5,2.42-6.61,3.51-2.09,1.04-4.36,1.83-6.68,2.68-.58.22-1.16.44-1.75.66-.02-.31-.04-.63-.05-.94,3.68-2.46,7.05-5.38,10.06-8.6.51-.49,1.06-.96,1.61-1.42.26-.08.53-.16.79-.25,1.06-.36,2.13-.71,3.2-1.07.2,1.55.4,3.1.63,4.65.01.07.02.16.03.23-.41.19-.82.37-1.23.55ZM107.36,188.84c-.63,1.53-1.66,2.64-2.88,3.55-.21-1.38-.4-2.76-.57-4.15,1.49-.6,2.94-1.29,4.33-2.12-.28.92-.56,1.83-.87,2.72ZM109.17,182.88c-.08.07-.15.15-.23.22-1.56,1.34-3.36,2.39-5.26,3.31-.13-1.11-.25-2.23-.36-3.34,2.16-.57,4.29-1.27,6.39-2.05-.18.62-.36,1.25-.54,1.87ZM110.06,179.84c-2.18,1.01-4.4,1.92-6.67,2.73.01-.02.02-.05.04-.07,2.39-.85,4.7-1.97,6.85-3.35-.07.23-.15.46-.22.69ZM110.67,181.42c.06-.28.12-.56.19-.84.33-.13.67-.26,1-.39-.4.42-.79.83-1.18,1.23Z"/>
        </g>
      </g>
    </g>
  </g>
</svg>