<?xml version="1.0" encoding="UTF-8"?>
<svg id="Layer_2" data-name="Layer 2" xmlns="http://www.w3.org/2000/svg" viewBox="0 0 206.53 191.18">
  <defs>
    <style>
      .cls-1 {
        fill: #19995c;
      }

      .cls-1, .cls-2, .cls-3, .cls-4, .cls-5 {
        stroke-width: 0px;
      }

      .cls-2 {
        fill: #008d4a;
      }

      .cls-3 {
        fill: #fff;
      }

      .cls-4 {
        fill: #f1edea;
      }

      .cls-5 {
        fill: #d1c4ba;
      }
    </style>
  </defs>
  <g id="Blancos">
    <path class="cls-3" d="m111.63,191.18c-6.47,0-12.12-1.24-17.16-3.77-5.17,2.13-10.95,3.21-17.27,3.21-1.96,0-4.01-.11-6.09-.31-19.55-1.97-38.32-12.31-51.5-28.35-12.82-15.6-24.99-41-17.11-61.21.35-.91.72-1.77,1.11-2.58.64-5.49,2.76-10.6,6-14.88-1.85-5.76-2.08-12.01-.45-17.99,1.44-5.28,4.22-10.05,8.05-13.94.43-3.21,1.08-9,.25-12.36l-.2-.8c-.98-3.82-2.81-10.93.67-18.14,1.53-3.18,5.37-8.73,13.78-10.17,2.5-.43,5.05-.64,7.57-.64,4.99,0,9.95.84,14.75,2.49,3.44-.84,6.99-1.26,10.64-1.26,2.43,0,4.84.19,7.22.56,2.65-2.23,5.88-4.09,9.69-5.22,2.52-.74,5.13-1.12,7.77-1.12s5.1.35,7.54,1.03c5.58-3.65,12.19-5.71,18.99-5.71,2.41,0,4.82.26,7.17.76,6.97,1.5,13.19,5.18,17.88,10.29,1.22-.15,2.46-.22,3.69-.22,6.48,0,12.64,1.96,17.81,5.67,1.31.94,2.53,1.98,3.65,3.1,2.52-1.55,5.26-2.3,7.72-2.43.27-.01.63-.02.9-.02,7.28,0,13.64,4.8,16.18,12.23l5.96,17.35c4.57,13.31,9.75,28.39,9.67,44.53-.04,7.58-1.36,14.99-3.87,21.79,1.14,5.47.75,11.58.03,17.35-2.26,18.16-14.48,35.27-32.7,45.76-15.52,8.93-32.91,12.19-47.88,14.2-3.24.43-6.75.83-10.47.83h0Z"/>
  </g>
  <g id="Layer_1-2" data-name="Layer 1">
    <g>
      <path class="cls-1" d="m159.26,94.56c2.6-20.51,7.16-40.77,13.61-60.48.28-.86.77-1.88,1.75-1.93,1.1-.06,1.74,1.12,2.08,2.09,1.99,5.78,3.97,11.57,5.96,17.35,4.44,12.93,8.92,26.11,8.86,39.58s-5.42,27.53-17.28,35.27c-6.14-1.72-11.39-6.61-13.56-12.15s-2.16-13.94-1.42-19.74Z"/>
      <path class="cls-2" d="m34.24,24.65c-1,.17-2.12.5-2.8,1.91-1.23,2.54-.11,6,.59,8.82,1.44,5.8.79,12.82-.13,19.32s-2.1,13.15-1.65,19.58c.58,8.23,3.93,15.03,8.23,17.88s9.41,2,13.9-1.49c4.49-3.49,8.39-9.46,11.45-16.38,4.57-10.34,7.25-25.35,2.61-35.73-1.37-3.07-3.56-4.42-5.57-5.93-3.78-2.85-7.59-5.31-11.7-6.72-4.84-1.67-9.88-2.12-14.93-1.26Z"/>
      <path class="cls-4" d="m26.99,115.55c-5.72-2.99-9.08-9.01-8.52-15.27.55-6.16,4.81-11.46,10.84-13.52-5.19-4.38-7.4-11.2-5.68-17.52,1.89-6.93,8.19-12.06,15.74-12.77-.38-1.59-2.88-13.01,4.65-22.03,7.35-8.81,21.2-11.67,33.55-6.26.19-.55,2.22-6.23,8.26-8.01,4.75-1.4,10.04.17,13.42,4,4.37-6.96,12.73-10.47,20.65-8.76,7.08,1.53,12.71,6.99,14.45,14.02,5.66-4.55,13.72-4.79,19.35-.75,5,3.59,7.27,9.95,5.68,16.02,9.86-1.11,19.44,3.79,24,12.26,4.43,8.23,3.31,18.33-2.84,25.53,5.51,2.11,8.96,7.44,8.52,13.02-.41,5.16-4.09,9.64-9.29,11.26,2.07,1.5,6.5,5.18,6.97,10.51.55,6.26-4.69,11.15-7.23,13.52-8.12,7.57-40.02,28.73-82.84,22.53-37.51-5.44-61.28-28.67-69.68-37.79Z"/>
      <path class="cls-1" d="m31.2,152.43c10.7,13.03,25.76,21.37,41.42,22.95,6.93.7,14.24.02,20.21-4.03,5.97-4.04,10.19-12.07,8.78-19.78-.94-5.12-4.11-9.34-7.53-12.87-7.36-7.6-16.39-13.11-26.04-15.88-7.2-2.07-14.67-2.63-21.89-4.64-7.67-2.13-14.37-6.05-19.19-13.24-3.99-5.95-7.49-6.44-10.49,1.24-5.78,14.8,6.15,35.81,14.72,46.24Z"/>
      <path class="cls-2" d="m116.46,133.24c4.97-1.92,10.11-3.29,14.85-4.29,16.87-3.54,35.48-4.51,49.87-15.08,9-6.61,7.28,9.4,6.62,14.68-1.83,14.7-12.46,27.21-25.3,34.6-12.84,7.39-27.71,10.36-42.39,12.33-7.17.96-14.58,1.59-20.91-2.65-3.93-2.62-6.84-6.86-7.46-11.55-.7-5.28,1.51-10.64,4.9-14.75,5.09-6.17,12.45-10.45,19.83-13.3Z"/>
      <path class="cls-5" d="m42.81,99.32c-4.96-5.53-3.52-14.98,2.67-19.06,2.01-1.43,4.44-2.27,6.92-2.43l-.76,1.52c-7.54-11.41,3.76-25.88,16.5-20.32-11.69-3.36-21.43,8.85-14.86,19.24,0,0,.92,1.43.92,1.43l-1.68.09c-9.6.47-14.82,11.53-9.71,19.53h0Z"/>
      <path class="cls-5" d="m106.5,38.53c10.04-9.76,27.12-.13,23.88,13.51-.08-2.94-.83-5.73-2.21-8.13-4.16-7.64-14.32-9.79-21.68-5.38h0Z"/>
      <path class="cls-5" d="m140.99,60.97c-3.28-7.92-13.44-11-20.01-5.23-2.04,1.74-3.57,4.14-4.36,6.91-.05-2.89,1.18-5.86,3.28-8.04,6.76-7.32,19.71-3.54,21.09,6.36h0Z"/>
      <path class="cls-5" d="m103.75,126.45c2.44-10.62,16.57-18.86,24.29-8.25.9,1.29,1.58,2.7,2.04,4.19,0,0-1.82-.01-1.82-.01,2.74-8.52,15.19-9.67,16.97.05-.68-1.7-1.71-3.28-3.09-4.35-4.31-3.17-10.81-.04-12.07,4.89,0,0-.89,2.86-.89,2.86-3.89-16.5-19.68-12.04-25.43.62h0Z"/>
      <path class="cls-5" d="m165.12,80.51c9.07-3.28,16.8,5.45,14.03,14.27-.36,1.1-.85,2.16-1.49,3.09.23-1.12.44-2.2.52-3.28.71-8.27-4.63-14.28-13.07-14.09h0Z"/>
      <path class="cls-5" d="m86.58,99.32c-3.56-7.97,1.68-18.4,10.83-18.97,8.8-.58,16.78,6.27,15.95,15.35-.3-2.94-1.23-5.88-3.01-8.21-3.15-3.51-8.17-5.53-12.77-5.16-8.09.6-12.63,9.41-10.99,17h0Z"/>
      <path class="cls-2" d="m32.19,132.13c11.23,14.45,27.51,24.88,45.65,27.81,5.99,1,12.13,1.3,18.28.9-3.02.62-6.11.9-9.2,1.06-21.83.88-43.62-10.97-54.73-29.77h0Z"/>
      <path class="cls-1" d="m96.12,159.39c20.86,5.23,43.57,1.86,61.56-10.02,5.96-3.92,11.49-8.54,16.36-13.86-4.27,5.82-9.55,10.94-15.48,15.15-17.78,12.78-41.85,16.28-62.44,8.73h0Z"/>
    </g>
  </g>
</svg>