<?xml version="1.0" encoding="UTF-8"?>
<svg id="Layer_2" data-name="Layer 2" xmlns="http://www.w3.org/2000/svg" viewBox="0 0 224.72 232">
  <defs>
    <style>
      .cls-1 {
        fill: #fff;
      }

      .cls-1, .cls-2, .cls-3 {
        stroke-width: 0px;
      }

      .cls-2 {
        fill: #f4d98d;
      }

      .cls-3 {
        fill: #cd7534;
      }
    </style>
  </defs>
  <g id="Blancos">
    <path class="cls-1" d="m181.55,130.15h0c3.94,0,7.76-.66,11.35-1.97,5-1.81,12.02-6.1,17.34-16.21,2.26-3.71,3.92-7.73,4.9-11.88,8.18-8.5,14.13-22.87,4.94-38.55-9.53-16.27-27.62-26.79-46.09-26.79-3.23,0-6.46.32-9.58.96-7.61,1.55-14.29,4.69-20.48,7.77-1.51.75-3.02,1.51-4.53,2.28.15-.91.3-1.78.46-2.55.12-.6.67-1.72,1.2-2.8,1.53-3.14,3.84-7.9,3.11-14-.83-6.99-5.11-12.57-12.69-16.6-5.2-2.76-10.4-3.84-14.58-4.7-2.18-.45-4.24-.88-5.69-1.43-3.22-1.22-6.45-2.14-9.58-2.75-3.14-.61-6.28-.92-9.32-.92-13.17,0-24.95,5.69-34.08,16.46-7.58,8.95-10.42,20.97-7.42,31.37,1.61,5.55,4.86,10.38,8.03,14.07-2.04-.31-4.06-.49-6.04-.49-3.15,0-6.25.4-9.19,1.18-11.79,3.13-18.4,13.31-21.64,20.26-3.02,2.03-5.99,4.81-9.05,8.45-3.61,4.11-6.3,8.62-8,13.39-3.32,9.29-2.54,19.62,2.18,29.1,4.21,8.44,11.27,15.44,19.54,19.57-4.88,4.58-8.65,9.77-12.1,14.74-3.98,5.72-7.91,11.6-11.67,17.46-3.34,5.22-3.8,11.7-1.22,17.33,2.58,5.64,7.79,9.54,13.94,10.42,2.2.32,5.16,1.64,8.78,3.92,1.3.82,2.62,1.7,4.02,2.64,4.93,3.3,10.53,7.04,17.4,9.42,5.16,1.79,10.78,2.69,16.7,2.69s12.62-.97,19.27-2.88c6.5-1.87,12.17-5.4,16.39-10.2,3.51-3.99,7.61-11.12,7.43-22.55.21-4.34-.27-8.66-1.4-12.77,1.22-4.47,1.69-9.57.88-14.68,1.8.44,3.63.73,5.47.83.54.03,1.09.04,1.64.04h0c2.83,0,5.61-.41,8.22-1.04-2.9,4.45-4.9,9.16-5.93,13.99-2.05,9.65.1,19.79,6.04,28.55,6.51,9.6,17.01,16.46,28.09,18.35,2.65.45,5.43.68,8.27.68,7.57,0,14.71-1.61,21.02-3.03,5.25-1.18,10.2-2.3,14.43-2.3.24,0,.48,0,.71.01.16,0,.56,0,.56,0,5.83,0,11.3-2.87,14.63-7.66,3.33-4.81,4.1-10.94,2.06-16.42-1.41-3.78-2.3-7.72-2.65-11.71-.17-1.99-.23-4.18-.29-6.5-.2-7.45-.43-15.89-4.41-24.44-4.92-10.57-14.89-18.9-27.35-22.87-3.59-1.14-7.18-1.86-10.71-2.14.21-2.13.28-4.3.17-6.46,2.74.96,5.61,1.79,8.59,2.46,2.63.59,5.29.89,7.92.89Z"/>
  </g>
  <g id="Productos">
    <g>
      <g>
        <path class="cls-2" d="m96,113.87c-5.61,9.61-6.07,20.06.32,30.93,3.14,5.35,8.73,9.63,15.05,9.98,7.68.42,16.52-5.42,16.52-5.42,0,0,4.06-.28,6.11-.38,15.06-.74,18.46-17.72,14.68-28.79-2.09-6.12-4.9-12.29-9.92-16.49-3.26-2.73-7.26-4.46-10.91-6.67-7.02-4.23-8.45-12.27-16.36-4.96-4.79,4.43-7.05,10.82-11.17,15.73-1.66,1.98-3.1,4-4.3,6.06Z"/>
        <path class="cls-3" d="m111.37,154.78c5.66-.45,10.84-3.08,15.55-6.07.29-.2.61-.44.97-.46,0,0-.6.21-.6.21,7.12-5.75,11.35-14.66,11.05-23.85,2.33,9.38-2.27,19.6-9.86,25.35,0,0-.6.21-.6.21.14.02.3-.01.42-.09,0,0-.01,0-.01,0l-.12.08c-5.02,2.95-10.89,5.42-16.81,4.62h0Z"/>
      </g>
      <g>
        <path class="cls-2" d="m98.78,15.64c-10.92-2.12-20.94.89-29.09,10.52-4.01,4.73-6.21,11.42-4.45,17.5,2.14,7.39,10.57,13.81,10.57,13.81,0,0,1.6,3.74,2.37,5.64,5.68,13.97,22.82,11.57,32.02,4.34,5.09-3.99,9.98-8.68,12.29-14.81,1.5-3.98,1.82-8.32,2.69-12.51,1.68-8.02,8.79-12.03-.73-17.08-5.76-3.06-12.54-3.08-18.54-5.35-2.42-.91-4.8-1.6-7.14-2.06Z"/>
        <path class="cls-3" d="m65.24,43.66c2.29,5.19,6.48,9.21,10.87,12.68.28.2.61.43.75.76,0,0-.4-.5-.4-.5,7.78,4.82,17.59,5.87,26.16,2.56-8.09,5.3-19.25,4.33-27.18-.93,0,0-.4-.5-.4-.5.02.14.11.28.23.37,0,0-.01-.01-.01-.01,0,0-.11-.09-.11-.09-4.44-3.76-8.71-8.49-9.91-14.34h0Z"/>
      </g>
      <g>
        <path class="cls-2" d="m86.9,209.01c-2.44,2.78-5.73,4.67-9.28,5.69-8.64,2.49-18.29,3.41-26.92.43-6.68-2.31-12.34-6.8-18.32-10.57-4.49-2.83-9.47-5.34-14.65-6.08-2.27-.33-3.46-2.88-2.22-4.81,3.68-5.73,7.46-11.4,11.35-16.99,3.43-4.94,7-9.87,11.6-13.75,11.99-10.12,30.39-10.73,43.85-2.66,13.84,8.3,5.92,23.26,5.92,23.26,0,0,6.14,17-1.32,25.48Z"/>
        <path class="cls-3" d="m72.35,170c11.73,2,20.86,14.3,18.23,26.13-.23-2.88-.73-5.67-1.6-8.31-2.59-8.13-9.08-14.15-16.63-17.82h0Z"/>
      </g>
      <g>
        <path class="cls-2" d="m187.78,114.08c-3.47,1.26-7.27,1.35-10.87.54-8.78-1.97-17.69-5.78-23.82-12.54-4.75-5.23-7.57-11.89-11-18.07-2.58-4.64-5.75-9.23-9.94-12.37-1.83-1.37-1.65-4.19.36-5.29,5.98-3.27,12.02-6.42,18.11-9.46,5.38-2.68,10.88-5.3,16.77-6.5,15.38-3.12,31.81,5.17,39.74,18.71,8.16,13.92-5.97,23.25-5.97,23.25,0,0-2.77,17.86-13.39,21.72Z"/>
        <path class="cls-3" d="m193.74,72.88c9.34,7.43,11.44,22.51,3.46,31.67,5.16-10.76,3.44-22.15-3.46-31.67h0Z"/>
      </g>
      <g>
        <path class="cls-2" d="m129.15,185.87c-2.81,13.22,8.67,26.72,21.99,29,14.08,2.41,28.27-5.28,42.37-4.84,2,.06,3.43-1.96,2.73-3.83-1.88-5.03-3.08-10.32-3.54-15.67-.76-8.74.34-17.96-3.36-25.92-3.42-7.34-10.59-12.45-18.3-14.91-5.86-1.87-12.39-2.33-18.07.02-8.95,3.71-11.24,17.97-11.24,17.97,0,0-10.21,7.04-12.57,18.18Z"/>
        <path class="cls-3" d="m161.19,173.48c-4.88-4.82-12.17-6.97-18.71-4.82-4,1.24-6.54,4.76-9.25,7.87,1.85-3.78,4.45-8.01,8.65-9.55,6.83-2.89,15.79-.11,19.3,6.5h0Z"/>
      </g>
      <g>
        <path class="cls-2" d="m19.05,109.74c-4.54,12.73,5.03,27.64,17.92,31.67,13.63,4.26,28.72-1.47,42.64.85,1.98.33,3.66-1.48,3.21-3.43-1.19-5.24-1.68-10.64-1.42-16,.41-8.76,2.73-17.76.13-26.13-2.41-7.73-8.83-13.75-16.15-17.21-5.56-2.63-11.97-3.97-17.91-2.39-9.37,2.49-13.53,16.31-13.53,16.31,0,0-11.05,5.62-14.88,16.34Z"/>
        <path class="cls-3" d="m52.46,101.73c-4.19-5.42-11.14-8.53-17.9-7.27-4.13.69-7.11,3.85-10.21,6.57,2.33-3.5,5.48-7.34,9.85-8.32,7.15-1.95,15.66,2,18.26,9.01h0Z"/>
      </g>
    </g>
  </g>
</svg>