<?xml version="1.0" encoding="UTF-8"?>
<svg id="Layer_2" data-name="Layer 2" xmlns="http://www.w3.org/2000/svg" viewBox="0 0 181.7 225.89">
  <defs>
    <style>
      .cls-1 {
        fill: #008d4a;
      }

      .cls-1, .cls-2, .cls-3, .cls-4, .cls-5 {
        stroke-width: 0px;
      }

      .cls-2 {
        fill: #f7e1a6;
      }

      .cls-3 {
        fill: #fff;
      }

      .cls-4 {
        fill: #eab520;
      }

      .cls-5 {
        fill: #cd7534;
      }
    </style>
  </defs>
  <g id="Blancos">
    <path class="cls-3" d="m166.16,103.65c-11.52-15.26-28.53-27.48-45.51-32.69l-14.52-4.46c-.79-.28-2.54-1.13-4.48-6.42-.11-.41-.29-1.4-.41-2.07-.19-1.03-.38-2.07-.61-3.08h0c-1.11-7.49-4.52-24.59-6.71-33.15-.04-.17-.09-.34-.14-.51C89.76,3.7,79.68,0,71.92,0c-1.57,0-3.15.16-4.83.49-2.01.4-3.91,1.2-5.6,2.36-.75.51-1.46,1.02-2.16,1.5-1.97,1.39-4.42,3.11-5.06,3.11-.2,0-.66-.03-1.48-.23-.7-.17-1.41-.29-2.12-.35-1.86-.18-3.71-.26-5.51-.26-14.65,0-27.16,6.05-35.23,17.04C-2.59,40.69-1.53,64.37,3.63,80.85c1.8,5.74,6.84,9.85,12.83,10.44.5.05,1,.07,1.49.07,5.43,0,10.49-2.95,13.14-7.78,1.59-2.9,2.17-3.11,6.7-4.73,4.19-1.5,9.88-3.54,15.8-8.47,2.24-1.67,4.26-3.72,6.1-6.01.11.59.21,1.19.32,1.78,1.01,5.54,1.59,9.29.48,10.89-1.74,2.52-4.61,5.09-7.64,7.82-1.86,1.67-3.78,3.4-5.72,5.33-30.05,30.06-33.32,77.83-7.46,108.74,14.54,17.37,35.41,26.94,58.78,26.95h.01c18.77,0,37.3-6.26,52.19-17.62,15.91-12.14,26.37-29.36,29.51-48.52,4.37-18.45-.58-38.34-13.99-56.1Z"/>
  </g>
  <g id="Productos">
    <g>
      <path class="cls-4" d="m72.83,85.58c-4.07,5.9-10.03,10.17-15.1,15.24-23.26,23.27-28.38,62.43-6.56,88.51,34.37,41.08,106.19,19.75,114.26-32.53,7.71-30.85-21.3-62.93-49.18-71.49-4.91-1.51-9.82-3.01-14.72-4.52-7.45-2.48-11.47-8.67-14.02-15.73-1.12-3.09-1.2-8.21-2.98-10.87-1.79-2.68-4.14-3.03-7.08-2.25-5.24,1.38-4.1,2.98-3.38,7.55,1.38,8.77,4.31,18.05-1.24,26.09Z"/>
      <path class="cls-5" d="m70.31,38.46c1.32,7.44,2.86,15.61,4.1,23.06,1.6,1.7,11.07-.71,11.6-3.33,0,0-3.11-19.02-6.6-32.69-.25-.97-.52-1.98-1.21-2.73-.2-.22-.45-.42-.74-.51-.32-.09-.66-.05-.99,0-2.63.39-9.48.49-9.48,2.89,0,1.81,1.22,4.93,1.79,6.62.73,2.17,1.14,4.44,1.54,6.69Z"/>
      <path class="cls-1" d="m49.27,21.82c-32.24-3.04-39.17,29.51-31.32,54.55,7.28-13.25,16.54-9.31,26.38-17.78,11.81-8.25,18.57-44.17,22.28-35.04.38.94.18,2.12.91,4.45.4,1.29,12.13-1.29,11.73-3.1-1.98-8.89-4.75-10.58-9.25-9.69-7.1,4.89-11.39,8.87-20.72,6.61Z"/>
      <path class="cls-2" d="m76.68,179.24c.62.89,1.59,1.59,2.67,1.65,1.14.07,2.21-.56,3.08-1.3,3.58-3,7.39-13.81-.39-13.79-6.79.02-8.7,8.67-5.36,13.43Z"/>
      <path class="cls-2" d="m95.34,193.82c1.73.1,3.55-.23,4.94-1.27s2.25-2.88,1.83-4.56c-.36-1.45-1.56-2.54-2.83-3.31-2.78-1.68-7.97-6.88-9.63-1.83-1.41,4.28.71,10.68,5.69,10.98Z"/>
      <path class="cls-2" d="m63.07,180.25c1.54-.81,2.91-2.04,3.56-3.66.65-1.61.43-3.63-.81-4.85-1.06-1.05-2.65-1.36-4.14-1.36-3.25,0-10.38-1.74-9.18,3.44,1.02,4.39,6.15,8.76,10.57,6.42Z"/>
      <path class="cls-2" d="m74.69,195.19c1.91.06,4.04-.02,5.37-1.39.53-.54.88-1.32.74-2.06-.67-3.55-8.92-5.58-11.7-3.77-1.52.99-2.64,3.5-1.85,5.28,1.1,2.46,5.19,1.87,7.44,1.94Z"/>
      <path class="cls-2" d="m98.34,204.71c1.91.06,4.04-.02,5.37-1.39.53-.54.88-1.32.74-2.06-.67-3.55-8.92-5.58-11.7-3.77-1.52.99-2.64,3.5-1.85,5.28,1.1,2.46,5.19,1.87,7.44,1.94Z"/>
    </g>
  </g>
</svg>