<?xml version="1.0" encoding="UTF-8"?>
<svg id="Layer_2" data-name="Layer 2" xmlns="http://www.w3.org/2000/svg" viewBox="0 0 246.28 258.03">
  <defs>
    <style>
      .cls-1 {
        fill: #008d4a;
      }

      .cls-1, .cls-2, .cls-3 {
        stroke-width: 0px;
      }

      .cls-2 {
        fill: #fff;
      }

      .cls-3 {
        fill: #cd7534;
      }
    </style>
  </defs>
  <g id="Blancos">
    <path class="cls-2" d="m242.43,198.75c.59-.67,1.13-1.4,1.61-2.18,2.83-4.65,3-10.4.43-15.37-.06-.12-.12-.23-.18-.35-1.72-3.13-4-7.28-5.74-11.39,1.71-5.13.53-10.8-3.14-14.83-4.81-5.29-7.63-9.33-9.74-13.97-.14-.31-.29-.62-.46-.92-.32-.6-.67-1.18-1.03-1.76.03-.1.05-.2.07-.29,1.57-6.5-1.35-13.26-7.16-16.56-1.02-.58-3.37-1.92-5.54-5.96.74-1.43,1.27-2.99,1.52-4.64.94-6.11-1.95-12.17-7.3-15.27-1.55-.9-2.72-3.79-4.45-8.46-.45-1.2-.91-2.44-1.41-3.72.21-.78.36-1.58.44-2.39.58-5.74-2.19-11.31-7.12-14.31-3.49-2.13-6.43-6.08-9.82-10.67-1.61-2.17-3.31-4.47-5.22-6.76-.57-3.41-2.31-6.59-5.04-8.92-1.79-1.53-3.56-3.11-5.44-4.78-5.34-4.75-11.1-9.88-17.76-14.25-.28-2.79-1.33-5.5-3.15-7.81-2.9-3.68-7.28-5.71-11.78-5.71-1.74,0-3.5.3-5.2.93-1.18.44-2.75.65-4.81.65-2.47,0-5.3-.3-8.3-.62-3.6-.38-7.32-.78-11.28-.78-1.94,0-3.81.1-5.61.31-1.3-1.01-2.78-1.82-4.39-2.37-1.58-.54-3.21-.8-4.82-.8-3.41,0-6.77,1.16-9.48,3.38-3.67,2.99-7.21,6.15-10.64,9.21h-.03c-1.84,0-3.68.34-5.41,1.01-.12-.84-.24-1.77-.35-2.81-.33-2.98-1.54-5.79-3.48-8.08-4.1-4.83-9.68-7.48-15.72-7.48-6.55,0-12.81,3.1-17.62,8.74-5.14,6.01-7.63,13.71-6.7,20.68.72,6.71,2.8,13.24,6.24,19.52-2.2,1.4-4.27,2.6-5.77,3.16-5.66,2.12-9.49,7.42-9.73,13.46-.1,2.61.48,5.14,1.61,7.38-4.36,10.8-10.87,26.81-12.02,29.52-.86,1.8-1.37,3.8-1.45,5.92-.18,4.86,1.98,9.29,5.49,12.16,1.02,4.67,2.38,9.07,3.65,13.16.66,2.11,1.27,4.11,1.83,6.07,1.01,3.57,1.77,7.35,2.58,11.36,1.16,5.75,2.35,11.7,4.43,17.86l5.69-1.92c4.94,8.13,10.84,15.55,16.57,22.76,2.72,3.42,5.29,6.65,7.69,9.88,2.85,3.82,7.32,6.04,12.02,6.04.52,0,1.04-.03,1.56-.08.42-.04.83-.1,1.24-.18.22.26.44.52.67.79.58.67,1.22,1.29,1.92,1.84,9.42,7.56,9.99,8.02,12.05,17.47,1.31,6.02,6.17,10.62,12.26,11.6.8.13,1.61.19,2.4.19,2.85,0,5.62-.82,7.98-2.3,7.95,5.26,16.21,10.2,24.59,14.7,2.21,1.18,4.65,1.78,7.09,1.78,1.77,0,3.54-.31,5.24-.95,1.88-.7,3.58-1.76,5.01-3.11,6.96,2.29,13.08,5.06,18.55,8.36,2.37,1.43,5.06,2.16,7.76,2.16,1.92,0,3.86-.37,5.69-1.12,2.32-.95,4.32-2.45,5.87-4.32,4.52-.17,9.07-.29,13.53-.41,4.14-.11,8.41-.22,12.66-.37,6.95-.25,12.63-5.2,14.09-11.68.58.07,1.17.1,1.76.1,2.59,0,5.2-.67,7.56-2.05,5.66-3.3,8.46-9.85,7.1-16.12,4.87-2.39,8.23-7.34,8.38-13.1.08-2.95-.71-5.73-2.13-8.09-.13-.62-.26-1.35-.37-2.12Z"/>
  </g>
  <g id="Productos">
    <g>
      <path class="cls-3" d="m39.18,38.66c-1.69-3.48-3.07-7.22-3.16-11.09-.14-5.94,3.44-12.21,9.94-12.53,1.55-.08,3.25.67,3.78,2.13,1.64,4.47.22,8.67,3.02,13.26,2.36,3.87,5.8,6.99,9.56,9.52,2.26,1.52,4.83,3.08,5.62,5.69,2.01,6.68-8.06,12.16-13.54,10.57-7.13-2.07-12.25-11.41-15.23-17.54Z"/>
      <path class="cls-1" d="m15,108.9c1.39.11,2.81-.3,3.93-1.13.23,9.58,3.89,18.68,6.49,27.89,2.67,9.43,3.63,19.16,6.78,28.5-.25-.73,2.59-6.14,2.78-7.5,6.75,11.98,16.74,22.98,24.99,34.05,1.11-2.4,2.14-4.87,3.47-7.11,5.12,3.44,7.31,8.2,11.3,12.78,3.39,3.89,9.33,6.72,12,10.98s3.8,10.32,5.31,14.99c1.34-1.81,3.57-5.6,5.97-6.07,2.7-.53,7.18,4.18,9.51,5.74,7.82,5.22,15.9,10.06,24.18,14.51.32-1.48.69-3.05,1.28-4.45.97-2.27.6-2.08,2.84-1.93,3.06.2,6.68,1.99,9.63,2.86,8.32,2.47,15.44,5.47,22.81,9.99.59-1.46-.59-3.5.6-4.52.44-.38,1.06-.44,1.64-.48,5.21-.38,10.48-.48,15.68-.63,6.43-.19,12.85-.38,19.28-.57-.66.02-1.44-3.33-1.24-3.84.44-1.1,2.22-1.36,3.16-2.05,2.73-2,4.74-4.52,6.93-7.04,2.83-3.26,4.45-1.08,7.54,1.34-.63-2.3-1.73-4.85-1.97-7.22-.26-2.54.84-3.67,2.05-6.03.53-1.04,1.48-5.18,2.99-4.58,1.6.65,3.3,1.05,5.02,1.18-1.72-.13-2.49-9.43-2.58-10.75-.13-1.94-1.54-9.09,1.21-9,.76.02,1.53.29,2.28.15.15-.03.3-.08.38-.2.14-.21,0-.48-.13-.69-2.65-4.24-4.65-8.81-6.49-13.45-.84-2.1-2.14-4.45-2.6-6.67-.15-.75-.94-1.49-.46-2.3.41-.7,2.56-.5,2.73-.93.09-.22.07-.47-.03-.67-6.03-4.69-8.73-10.65-12.27-17.19-1.62-3-6.78-9.15-6.45-12.43,1.33-.26,2.74-.23,4.11-.29-3.21-2.6-7.11-4.88-9.51-8.33-2.53-3.65-3.75-8.58-5.38-12.71-.59-1.49-.79-3.02-1.14-4.58,1.54.13,3.09.03,4.6-.31-3.72-2.56-6.77-6.09-8.77-10.14-2.8-5.6-3.18-11.8-7.2-16.71-.28-.34-.57-.73-.51-1.16.09-.68.95-.94,1.64-.9s1.43.24,2.02-.12c-4.78-3.32-8.56-6.89-11.95-11.54-2.33-3.2-4.61-6.44-7.09-9.53-1.87-2.32-4.09-4.34-6.41-6.18l3.42-.51c-.28-.73-.94-1.22-1.57-1.67-3.91-2.84-7.64-5.92-11.18-9.21-1.38-1.28-2.49-2.86-3.97-4.04s-3.28-2.13-4.93-3.08c-4-2.32-8.17-4.35-12.47-6.04,2.31-1.07,4.32-2.79,5.74-4.9-2.24.41-4.5.76-6.71,1.3-2.02.49-4.21.26-6.3.19-4.76-.15-9.51-.48-14.24-.99-1.76-.19-3.52-.4-5.28-.36-4.34.09-8.62,1.75-11.9,4.6.57-2.42.58-4.98,0-7.4-4.58,3.59-8.73,7.66-13.09,11.5-1.36,1.19-2.92,2.25-4.22,3.49-.24.23-2.63,2.4-2.63,2.3.1-1.57.03-3.15-.21-4.7-3.62,2.29-4.91,6.85-7.82,9.94-3.53,3.74-7.99,6.37-12.17,9.31s-8.79,5.97-13.38,8.7c-1.32.79-9.03,6.39-10.19,5.85,1.39.65,2.81,2.14,4.49,2.55-1.3,3.32-16.25,40.24-16.35,40.23Z"/>
      <path class="cls-2" d="m41.39,117.68c.9,2.28,1.1,4.63,1.06,7.02,0,0-1.59-.76-1.59-.76.71-.52,1.44-1,2.22-1.42.79-.41,1.59-.81,2.5-1.07-1.21,2.14-3.15,3.75-4.99,5.31-.19-3.04-.31-6.15.79-9.07h0Z"/>
      <path class="cls-2" d="m136.02,81.83c3.69.82,6.75,3.24,9.35,5.86-1.26.24-2.75.6-4.03.55-2.81-.17-2.84-.29-.2-1.19,0,0,2.09-.79,2.09-.79l-.33,1.58c-2.5-1.77-4.92-3.63-6.89-6.01h0Z"/>
      <path class="cls-2" d="m160.18,116.91c1.61.44,2.97,1.17,4.34,2.02.99.71,1.88,1.77,2.72,2.63-2.57.99-5.4,2.45-8.11,1.07,2.15-.57,3.98-1.52,5.99-2.39,0,0-.37,1.61-.37,1.61-1.51-1.67-3.37-2.96-4.57-4.94h0Z"/>
      <path class="cls-2" d="m171.06,204.42c2.59,1.4,4.6,3.56,6.23,5.96,0,0-1.78.57-1.78.57.03-.99.04-1.99.04-3,.02-1.02-.02-2.04.03-3.14,1.24,1.8,1.79,3.96,1.89,6.12,0,0,.12,3.04.12,3.04-2.33-3.05-4.81-6.09-6.53-9.56h0Z"/>
      <path class="cls-2" d="m108.69,175.16c2.41,2.11,4.22,4.81,5.77,7.59,0,0-1.71.13-1.71.13.38-.82.73-1.67,1.09-2.53.36-.86.69-1.75,1.1-2.67.23.98.26,1.98.18,2.97-.09,1.53-.7,3.24-1.17,4.7-2.2-3.13-4.3-6.44-5.26-10.19h0Z"/>
      <path class="cls-2" d="m133.93,42.58c3.42-.66,6.84.67,9.81,2.25-2.66,1.38-5.63,2.61-8.69,2.23,1.77-1.02,4.17-2.18,5.97-3.12,0,0,.02,1.79.02,1.79-2.31-1.07-4.8-2.02-7.11-3.14h0Z"/>
      <path class="cls-2" d="m201.85,194.85c2.57.03,4.95.74,7.29,1.65,0,0-1.05,1.62-1.05,1.62-.64-.69-1.27-1.4-1.89-2.13-.61-.75-1.23-1.49-1.79-2.36,1.96.57,3.64,1.73,5.09,3.11,0,0,3.2,3.07,3.2,3.07-3.61-1.27-7.9-2.4-10.85-4.96h0Z"/>
      <path class="cls-2" d="m86.79,117.83c3.58.61,4.9,4.86,7.86,6.38,0,0-1.4.81-1.4.81.15-1.34.31-2.68.49-4.02.18-1.35.36-2.7.66-4.09.99,3.13.99,6.44.73,9.67,0,0-1.31-.58-1.31-.58-3.61-1.6-4.18-5.83-7.04-8.18h0Z"/>
      <path class="cls-2" d="m54.37,65.09c.17,2.47-.27,4.93-.9,7.3,0,0-1.51-1.09-1.51-1.09,1.73-1.09,3.92-2.57,5.75-3.52-.98,2.18-2.71,3.88-4.66,5.19,0,0-2.15,1.42-2.15,1.42.79-3.18,1.62-6.55,3.47-9.3h0Z"/>
    </g>
  </g>
</svg>