<?xml version="1.0" encoding="UTF-8"?>
<svg xmlns="http://www.w3.org/2000/svg" viewBox="0 0 201.79 194.89">
  <defs>
    <style>
      .cls-1 {
        fill: #19995c;
      }

      .cls-1, .cls-2, .cls-3, .cls-4, .cls-5 {
        stroke-width: 0px;
      }

      .cls-2 {
        fill: #008d4a;
      }

      .cls-6 {
        isolation: isolate;
      }

      .cls-3 {
        fill: #8cccae;
      }

      .cls-4 {
        fill: #fff;
      }

      .cls-5 {
        fill: #eab520;
        mix-blend-mode: hard-light;
        opacity: .25;
      }
    </style>
  </defs>
  <g class="cls-6">
    <g id="Layer_2" data-name="Layer 2">
      <g id="Blancos">
        <path class="cls-4" d="m200.97,100.78c-.13-.45-.29-.89-.46-1.32-1.48-3.69-3.81-6.24-6.13-8.02,0-2.31-.43-4.93-1.67-7.73-2.09-4.76-5.89-8.29-10.57-10.08-.13-.37-.27-.73-.42-1.09,1.9-5.1,1.28-10.8-1.61-15.76,1.47-3.62,1.79-7.35.99-10.79,1.37-5.4.06-11.1-3.68-15.45-.25-.29-.5-.57-.76-.83-.29-4.25-1.87-8.13-4.6-11.19-3.87-4.34-8.73-5.78-12.43-6.26-3.23-4.43-8.27-7.22-14.01-7.43-3.91-3.66-8.42-4.41-11.43-4.41-1.2,0-2.42.13-3.62.38-.82-.24-1.71-.45-2.67-.6-.77-.12-1.56-.18-2.34-.18-1.41,0-2.81.2-4.16.59-2.4.69-4.43,1.74-6.16,2.91-1.78-.69-3.75-1.21-5.95-1.59-1.79-.5-3.52-.75-5.25-.75-4.74,0-9.09,1.87-12.24,5.25-.59.63-1.1,1.28-1.55,1.93-2.75.72-5.24,2.15-7.27,4.15-3.49.06-6.76,1.21-9.48,3.33-2.75,2.15-4.58,4.8-5.48,7.92-3.05,1.55-6.14,4.25-8.51,8.88-3.58,2.08-6.14,4.97-7.63,8.64-.75,1.83-1.34,4.17-1.29,6.89-1.12,1.38-2.1,3.04-2.8,5.05-.13.38-.26.8-.38,1.27-6.2.8-9.82,4.22-11.52,6.37-1.05,1.33-1.83,2.69-2.39,4.04-.14.07-.28.15-.41.23-.56.32-1.11.68-1.62,1.07-3.55,2.7-5.3,6.05-6.26,8.39-4.46,4.31-6.84,10.37-6.56,16.84.06,1.44.25,2.84.57,4.2-1.22,1.97-2.09,4.17-2.53,6.52-.94,5.05.31,10.08,3.22,13.99.06,1.24.26,2.52.63,3.83-.4.29-.81.61-1.21.95-1.26,1.07-2.33,2.33-3.17,3.73-4.73,1.86-8.51,5.86-10.29,11.2l-.05.15c-3.03,8.74.46,14.68,2.94,17.54-3.59,7.26-6.05,12.96-7.38,16.16-2.33,5.63-1.71,12,1.65,17.03,3.42,5.11,9.11,8.15,15.22,8.15,5.07,0,9.78-2.07,13.27-5.82.04-.04.08-.09.12-.13,1.08-1.18,1.96-2.53,2.61-3.99.24,0,.47.01.71.01,3.33,0,6.59-.97,9.36-2.76l.35-.23c1.63-1.09,2.98-2.41,4.08-4.04.04-.06,3.72-5.33,11.62-12.83.52.03,1.04.05,1.56.05,2.07,0,4.07-.27,5.92-.79.54-.15,1.07-.34,1.59-.55,1.84-.76,3.37-1.73,4.62-2.73,2.69,1.75,6.34,3.5,10.96,3.5,1.21,0,3.1-.14,5.27-.82.78.12,1.61.18,2.48.18.53,0,1.07-.03,1.6-.08,2.13-.21,4.16-.86,5.98-1.9,2.23.81,4.81,1.41,7.74,1.41,3.14,0,6.16-.7,8.96-2.09.88-.44,1.72-.96,2.5-1.56.25-.19.5-.39.76-.61,1.21.26,2.49.41,3.86.41,3.61,0,7.13-1.08,10.26-3.13,1.8.55,3.61.82,5.43.82,3.87,0,7.53-1.28,10.48-3.59.77.2,1.58.35,2.43.46.32.04.64.07.97.09.35.02.7.03,1.05.03,6.92,0,13.29-3.93,16.62-10.25.16-.3.3-.59.44-.9,6.35-.79,11.58-4.59,13.99-10.33.26-.62.48-1.25.65-1.9.25-.13.5-.26.75-.4.73-.41,1.42-.87,2.07-1.39,2.51-2.01,4.37-4.7,5.39-7.69,1.33-1.12,2.59-2.46,3.69-4.06,3.32-4.81,4.25-10.82,2.56-16.5Z"/>
      </g>
      <g id="Productos">
        <g>
          <path class="cls-2" d="m69,62.88c-1.96-1-4.94-1.51-6.27-1.82-4.4-6.89,9.74-3.25,4.14-9.99-2.83-4.38-.54-5.76,3.56-6.7,2.31-2.22,1.71-7.94,6.42-7.56,3.07.11,7.53,3.1,6.95-1.84-.17-1.43-2.51-6.19-1.04-7.34,1.43-1.12,7.94,4.53,9.45,3.49,2.2-1.5.05-5.09.8-7.11,1.43-3.85,5.9,2.86,8.24,1.68,3.25-1.64-2.2-11.62,4.65-9.14,8.38,1.17,5.49,4.03,10.34,5.71,3.21-1.49,5.77-6.23,9.35-7.27,4.02.63,3.77,4.43,7.96.49,4.76-1.12,2.6,9.67,7.75,7.12,1.37-3.81,6.28-3.82,7.02.44.19,1.29-.07,2.87.96,3.66,4,1.25,13.23-2,12.4,5.27-2.04,3-4.87,6.06.59,7.02,1.36.19,2.91.28,3.81,1.32,1.42,1.64-.07,4.06-2.07,4.04s-2.88-2.45-4.94.14c-.4.51-.75,1.12-.71,1.77.44,4.03,10.13-.56,7.85,4.92-2.52.85-5.48-.62-5.28,3.82.75,3.24,3.64,5.56,5.46,8.25,2.89,3.3,1.22,6.6-3.1,5.2-3.35-.67-4.74,2.19-1.84,4.02,2.13,1.73,4.11,4.71,2.64,7.02-2.2,3.45-8.73.54-11.13,3.85-2.34,3.5,3.34,11.58-3.51,12.37-3.27-.58-9.02-2.76-7.41,3.1,1.27,1.34,2.64,2.97.78,4.49-3.62,4.68-8.28-.87-12.17,1.1-2.72,4.28-5.68-3.07-8.9-.91-3.27,2.87-2.6,4.76-7.49,2.74-1.85-.17-3.31,1.43-4.75,2.61-4.34,3-5.49.4-5.71-3.71-4.84-8.25-12.9,3.16-11.83,8.74,1.52,2.92-.4,5.6-3.59,6.25-11.24,1.43,1.46,9.45-7.32,13.88-4.21,2.96-5.01-2.66-6.62-5.25-2.38-3.83-9.44-3.4-10.72,1.37-.99,3.69-.7,6.13-5.25,5.34-2.63-.46-7.43-5.17-10.09-2.01-.98,1.17.93,3-.05,4.22-1.37,1.69-7.66-.84-6.71,3,1.67.29,3.82,2.03,2.57,3.77-1.25,1.46-3.69-.45-5.51.17-4.01,1.84.71,6.46-.3,9.14-.73,1.69-3.97,2.13-5.27,1.09-.34-.27-1.14-1.08-1.63-.99-.4.07-.75.83-1.09,1.14-.59.53-1.21,1.06-1.96,1.34s-1.65.26-2.27-.23c-.09-.07-.18-.16-.22-.26-.05-.13-.04-.28-.02-.42.49-3.81,1.9-8.65-2.59-10.27-1-.36-2.32-.54-3.12-1.32-.99-.97-.45-2.11-.08-3.23,2.06-6.19,8,3.8,11.11-.85,2.48-3.17-3.27-4.59-2.18-7.38,3.11-2.64,8.04-.98,9.65-6.6,2.47-7.76-6.55-6.69-2.92-13.41,1.01-2.43-.52-4.02-2.83-4.31-3.11-1.66-1.13-6.1,1.94-6.48,1.63-.37,3.91-.48,4.16-2.13.22-1.45-1.46-2.34-2.65-3.19-3.47-2.48-3.72-8.33-.48-11.1,2.99-1.28,2.45-5.32,4.63-6.98,2.14-1.23,5.22,1.32,7.16-.64,1.45-1.79-3.39-8.26,2.55-8.19,3.72.55,3.61,4.43,1.19,6.5-.9,4,5.12,3.58,4.76-.22.93-.94,2.52.43,2.57,1.75-.67,2.83-.64,6.73,3.32,6.49,1.24-.11,3.32-1.23,3.75-2.51s-1.12-2.32-.61-3.54c.63-1.49,3.99-1.52,4.05-3.12s-2.61-2.61-2.88-4.2c-.13-2.94,8.17-4.61,2.61-7.57Z"/>
          <path class="cls-3" d="m20.55,178.85c-2.42,2.6-6.65-.14-5.29-3.42,5.01-12.11,23.99-54.25,58.63-88.3,40.91-40.22,83.17-54.7,83.17-54.7,0,0-50.31,24.13-81.79,58.84-34.3,37.81-54.7,87.57-54.7,87.57,0,0,0,0-.02.02Z"/>
          <path class="cls-3" d="m45.22,122.24c.26-5.2-2.64-10.21-5.58-14.42,1.81,2,3.52,4.11,4.91,6.48,1.37,2.36,2.48,5.01,2.67,7.94h-2Z"/>
          <path class="cls-3" d="m51.37,115.17c.1-8.67-1.99-19.03-7.79-25.75,1.7,1.58,3.06,3.52,4.2,5.55,3.33,6.21,5.26,13.17,5.59,20.24,0,0-2-.04-2-.04h0Z"/>
          <path class="cls-3" d="m57.75,83.88c3.08,7.01,2.49,14.86,1.89,22.28.04-1.85,0-3.7-.1-5.54-.36-5.32-.86-11.07-3.53-15.75,0,0,1.74-.99,1.74-.99h0Z"/>
          <path class="cls-3" d="m74.35,88.04c2.48-10.88,3.97-22.96-.46-33.55,1.31,2.55,2.2,5.31,2.81,8.13,1.64,8.55,1.13,17.34-.41,25.89,0,0-1.95-.47-1.95-.47h0Z"/>
          <path class="cls-3" d="m87.42,75.62c3.43-11.07,2.7-23.4-1.39-34.23,1.14,2.7,2.22,5.46,2.93,8.33,2.27,8.65,2.55,17.8.36,26.53,0,0-1.9-.63-1.9-.63h0Z"/>
          <path class="cls-3" d="m103.34,62.77c4.31-10.33,3.57-22.19,2.27-33.1,1.6,8.35,2.52,16.99,1.53,25.48-.4,2.94-.85,5.71-2.02,8.53,0,0-1.78-.91-1.78-.91h0Z"/>
          <path class="cls-3" d="m119.36,51.58c5.73-7.63,7.87-17.81,6.24-27.2.51,2.37.96,4.78,1.02,7.23.31,7.43-1.6,14.91-5.68,21.2,0,0-1.58-1.22-1.58-1.22h0Z"/>
          <path class="cls-3" d="m47.19,122.6c7.33-6.7,20.89-5.26,29.98-3.76-9.03-.81-19.39-1.41-27.22,3.88-.44.34-.94.78-1.18,1.1l-1.58-1.22h0Z"/>
          <path class="cls-3" d="m56.26,109.1c8.23-5.34,18.42-6.21,27.87-4.65,1.33.24,2.65.56,3.97.83-1.34-.19-2.67-.43-4.01-.58-6.62-.71-13.51-.14-19.75,2.26-2.44.94-4.89,2.18-6.84,3.7l-1.25-1.56h0Z"/>
          <path class="cls-3" d="m69.63,94.05c12.7-1.76,27.14-.2,36.75,9.02-7.33-6.45-17.39-8.48-26.91-8.15-3.17.11-6.39.44-9.43,1.08l-.4-1.96h0Z"/>
          <path class="cls-3" d="m88.19,76.76c14.1,2.04,32.01,6.87,40.25,19.38-6.74-9.4-18.44-13.32-29.27-15.74-3.68-.77-7.45-1.36-11.15-1.65,0,0,.17-1.99.17-1.99h0Z"/>
          <path class="cls-3" d="m113.87,56.18c14.24.51,29.03,4.71,39.6,14.59,0,0,2.03,2,2.03,2-.79-.69-2.41-2.2-3.18-2.85-7.79-6.18-17.45-9.6-27.21-11.02-3.71-.53-7.51-.82-11.18-.73,0,0-.06-2-.06-2h0Z"/>
          <path class="cls-3" d="m97.32,66.62c9.33-3.31,19.59-1.27,27.82,3.75,2.94,1.8,5.55,4.04,8.08,6.35.99,1.05,2.75,2.98,3.76,4.05,0,0,3.84,4.99,3.84,4.99l-4.03-4.82-2.22-2.21c-6.84-6.96-16.17-11.97-26.06-12.12-3.47.02-7.21.53-10.37,1.85,0,0-.82-1.83-.82-1.83h0Z"/>
          <path class="cls-3" d="m129.44,45.52c10.16-1.27,20.82,2.29,27.62,9.99-1.84-1.69-3.75-3.32-5.94-4.51-6.3-3.69-14.17-4.86-21.29-3.52,0,0-.39-1.96-.39-1.96h0Z"/>
          <path class="cls-3" d="m136.88,41.9c4.73-3.69,7.56-9.68,7.57-15.68.03,1.52,0,3.06-.29,4.56-.79,4.58-3.17,8.84-6.68,11.92,0,0-.6-.8-.6-.8h0Z"/>
          <path class="cls-1" d="m70.02,114.28c11.41,2.11-.8-9.45,5.23-13.65,2.55-2.69,5.87-1.08,8.84-.69,3.1-.97,3.04-5.34,5.24-7.34,2.83-2.94,4.13.76,6.9,1.47,5.07.64,3.41-2.98,4.02-5.92,1.68-2.5,5.14.32,7.38-.63,2.57-1.07,2.05-5.45,4.53-6.71,1.74-.95,3.12.55,4.36,1.58,4.32,2.16,7.07-3.51,6.57-7.22-.67-4.62,3.68-6.86,5.18-1.53,1.73,5.54,7.78,4.56,7.13-1.47.1-1.8.96-4.03,2.76-4.02,3.83.92,3.63,8.3,9.64,4,10.27-8.19,5.99-.12,7.88,4.15.86.99,2.43.97,3.68.54,3.38-2.31,8.89-1.5,8.89,3.38-.99,3.44-2.7,9.14,3.21,7.84,2.64-1.02,6.21-1.39,7.55,1.71,1.26,2.8-1.02,4.21-1.3,6.68-.47,5.27,7.32,4.68,8.9,8.61,1.35,4.55-4.14,6.87-7.89,7.15,1.4,1.42,2.79,3.88,1.23,5.12-2.61,1.46-6.2-2.2-8.99-.07-5.19,3.6,1.87,6.37,1.08,9.64-.66,1.57-2.89,1.39-4.56,1.1-3.71-.54-15.72-1.31-9.36,5,1.66,2.42-.56,6.35-3.49,6.18-4.46-.55-7.82-8.48-12.97-4.44,1.61,7.12-.62,10.02-6.92,4.79-5.31-3.53-6.18.1-8.24,4.11-6.32,4.77-9.79-11.86-15.93-5.63-1.76,2.88,3.01,7.39-.14,9.81-5.62,2.78-11.53-6.21-16.46-3.33.3,1.53-.08,3.19-1.03,4.43-1.78.17-3.17-2.97-4.63-1.94-5.21,9.3-10.9-10.25-21.12-.4-1.09,1.18-1.93,2.72-3.41,3.33-3.07.87-9.26-.87-10.26-4.26-.11-.99.41-1.93.92-2.78,4.62-5.56-1.28-9.58,2.03-11.56,1.67-.62,3.41,1.72,5.07,1.07,2.12-.84,1.06-6.31,1.57-8.09.74-2.09,3.73.28,5.4-.66,3.27-1.02-1.41-3.99-1.76-5.76-1.02-2.33.87-4.69,3.28-3.59Z"/>
          <path class="cls-3" d="m36.37,169.48s17.57-26.18,60.88-47.48c43.31-21.3,83.23-18.85,83.23-18.85,0,0-37-5.28-85.64,16.64-38.94,17.55-56.39,38.66-61.8,46.38-1.49,2.12,1.04,4.79,3.22,3.38.04-.02.08-.05.11-.07Z"/>
          <path class="cls-3" d="m75.52,130.79c1.68-4.32,1.01-9.3.01-13.74,0,0,.63,1.69.63,1.69,1.33,4.1,2.33,8.54,1.2,12.83,0,0-1.84-.78-1.84-.78h0Z"/>
          <path class="cls-3" d="m92.97,122.18c-.58-.74-.25-1.55-.08-2.29,2.18-6.95,1.48-14.38-.78-21.26,2.66,6.29,4.11,13.39,2.87,20.22-.08.55-.36,1.78-.36,2.32-.02.05.08-.02-.15-.32l-1.49,1.33h0Z"/>
          <path class="cls-3" d="m82.78,127.09c9.54.18,19.05,5.4,22.86,14.35-1.17-2.01-2.43-3.98-4.12-5.56-4.78-4.83-11.96-7.07-18.64-6.8,0,0-.1-2-.1-2h0Z"/>
          <path class="cls-3" d="m105.74,116.06c10.77,1.9,21.07,8.46,25.47,18.7-1.32-2.35-2.73-4.67-4.63-6.57-5.41-5.79-13.27-9.22-21.05-10.14,0,0,.21-1.99.21-1.99h0Z"/>
          <path class="cls-3" d="m128.53,108.15c10.31,1.65,21.1,6.01,26.97,15.06-1.58-2.09-3.4-3.98-5.49-5.53-4.19-3.07-9.06-5.05-14.08-6.29-2.49-.61-5.08-1.07-7.58-1.25l.17-1.99h0Z"/>
          <path class="cls-3" d="m155.53,103.59c7.05.97,15.14,3.14,19.04,9.6-4.11-6.18-12.16-7.97-19.11-8.6,0,0,.07-1,.07-1h0Z"/>
          <path class="cls-3" d="m112.97,112.79c3.43-8.07,4.07-17.77.24-25.84,1.04,1.99,2.03,4.05,2.57,6.27,1.78,6.68,1.26,13.81-.97,20.36,0,0-1.84-.79-1.84-.79h0Z"/>
          <path class="cls-3" d="m137.58,105.54c4.18-5.54,6.36-12.83,5.77-19.8-.13-2.38-.72-4.71-1.39-7.01.83,2.24,1.59,4.55,1.89,6.95,1.09,7.3-.65,14.87-4.69,21.08,0,0-1.58-1.22-1.58-1.22h0Z"/>
          <path class="cls-3" d="m153.15,103.6c4.98-1.33,9.82-4.92,11.26-10.05.57-1.69.63-3.49.62-5.28.09,1.78.13,3.6-.37,5.34-.82,3.56-3.3,6.57-6.31,8.57-1.53,1.01-3.15,1.82-4.95,2.38l-.24-.97h0Z"/>
          <path class="cls-5" d="m186.59,105.06c-1.58-3.93-9.36-3.34-8.9-8.61.28-2.47,2.56-3.87,1.3-6.68-1.35-3.1-4.91-2.72-7.55-1.71-5.91,1.3-4.2-4.4-3.21-7.84,0-2.88-1.92-4.33-4.19-4.57-.59-1.21-1.58-2.35-2.62-3.19-2.89-1.83-1.51-4.69,1.84-4.02,4.33,1.41,5.99-1.9,3.1-5.2-1.82-2.69-4.71-5.01-5.46-8.25-.2-4.44,2.76-2.97,5.28-3.82,2.27-5.48-7.41-.89-7.85-4.92-.04-.65.3-1.26.71-1.77,2.05-2.59,2.89-.16,4.94-.14,1.99.02,3.48-2.4,2.07-4.04-.9-1.04-2.44-1.13-3.81-1.32-5.46-.95-2.63-4.02-.59-7.02.83-7.27-8.4-4.02-12.4-5.27-1.03-.8-.77-2.37-.96-3.66-.74-4.26-5.65-4.24-7.02-.44-5.15,2.56-2.99-8.24-7.75-7.12-4.19,3.94-3.94.15-7.96-.49-3.58,1.03-6.14,5.78-9.35,7.27-4.85-1.68-1.96-4.54-10.34-5.71-6.85-2.48-1.41,7.5-4.65,9.14-2.33,1.18-6.81-5.52-8.24-1.68-.75,2.02,1.4,5.62-.8,7.11-1.51,1.03-8.02-4.61-9.45-3.49-1.46,1.14.88,5.91,1.04,7.34.58,4.94-3.88,1.95-6.95,1.84-4.71-.37-4.11,5.34-6.42,7.56-4.1.94-6.38,2.33-3.56,6.7,5.6,6.74-8.54,3.09-4.14,9.98,1.34.31,4.32.82,6.27,1.82,5.57,2.97-2.74,4.64-2.61,7.57.27,1.59,2.93,2.64,2.88,4.2-.06,1.6-3.42,1.62-4.05,3.12-.51,1.22,1.04,2.23.61,3.54-.43,1.28-2.51,2.4-3.75,2.51-3.96.25-3.99-3.66-3.32-6.49-.05-1.32-1.65-2.68-2.57-1.75.36,3.8-5.65,4.22-4.76.22,2.42-2.07,2.53-5.96-1.19-6.5-5.94-.08-1.1,6.4-2.55,8.19-1.94,1.96-5.01-.59-7.16.64-2.18,1.66-1.64,5.7-4.63,6.98-3.24,2.77-2.99,8.62.48,11.1,1.19.85,2.87,1.74,2.65,3.19-.25,1.65-2.53,1.76-4.16,2.13-3.07.38-5.05,4.82-1.94,6.48,2.31.29,3.84,1.88,2.83,4.31-3.63,6.73,5.39,5.65,2.92,13.41-1.62,5.62-6.55,3.97-9.65,6.6-1.09,2.8,4.66,4.22,2.18,7.38-3.11,4.66-9.05-5.34-11.11.85-.37,1.12-.91,2.27.08,3.23.79.77,2.12.95,3.12,1.32,3.25,1.17,3.41,4.04,3.06,6.97-5.61,10.52-9.29,18.92-11.11,23.33-1.36,3.28,2.88,6.03,5.29,3.42.01-.01.02-.02.02-.02,0,0,4.13-10.08,11.8-24.6.29.22.55.47.72.6,1.3,1.04,4.54.61,5.27-1.09,1.01-2.68-3.71-7.3.3-9.14,1.82-.62,4.26,1.29,5.51-.17,1.25-1.75-.89-3.48-2.57-3.77-.95-3.84,5.35-1.32,6.71-3,.98-1.21-.93-3.05.05-4.22,1.84-2.19,4.71-.61,7.17.72.48,2.17,1.89,5.12-1.1,8.72-.37.62-.73,1.28-.87,1.97-11.26,9.21-17.62,17.19-20.52,21.33-1.49,2.12,1.04,4.79,3.22,3.38.04-.02.08-.05.11-.07,0,0,6.08-9.05,19.88-20.84,2.34,1.32,5.56,1.83,7.52,1.27,1.49-.61,2.32-2.15,3.41-3.33,10.23-9.85,15.91,9.69,21.12.4,1.46-1.03,2.85,2.11,4.63,1.94.95-1.24,1.33-2.9,1.03-4.43,4.93-2.88,10.84,6.11,16.46,3.33,3.15-2.42-1.62-6.94.14-9.81,6.14-6.23,9.61,10.39,15.93,5.63,2.06-4.01,2.92-7.63,8.24-4.11,6.29,5.23,8.53,2.34,6.92-4.79,5.15-4.04,8.51,3.89,12.97,4.44,2.93.17,5.15-3.76,3.49-6.18-6.35-6.31,5.66-5.54,9.36-5,1.67.28,3.9.46,4.56-1.1.79-3.27-6.27-6.04-1.08-9.64,2.79-2.13,6.37,1.53,8.99.07,1.56-1.25.17-3.71-1.23-5.12,3.75-.28,9.24-2.6,7.89-7.15Z"/>
        </g>
      </g>
    </g>
  </g>
</svg>