<?xml version="1.0" encoding="UTF-8"?>
<svg id="Layer_2" data-name="Layer 2" xmlns="http://www.w3.org/2000/svg" viewBox="0 0 186.43 188.82">
  <defs>
    <style>
      .cls-1 {
        fill: #fff;
      }

      .cls-1, .cls-2 {
        stroke-width: 0px;
      }

      .cls-2 {
        fill: #cd7534;
      }
    </style>
  </defs>
  <g id="Blancos">
    <path class="cls-1" d="m182.49,96.1c-2.38-7.41-6.96-10.78-10.56-12.33.95-1.15,1.94-2.32,2.94-3.5l.53-.62c5.14-6.07,6.9-12.39,5.22-18.79-1.72-6.59-7.68-11.2-14.49-11.21-1.01,0-2.02-.02-3.02-.03-1.2-.02-2.39-.03-3.59-.03-3.52,0-7.41.14-11.47.83-.09-.67-.19-1.34-.32-2.02-2.35-12.63-10.49-23.85-21.76-30.01-1.68-.92-3.27-1.69-4.68-2.37-3.04-1.48-4.67-2.3-5.7-3.44-4.43-4.92-10.11-7.62-16-7.62-3.58,0-6.92.96-9.84,2.72-4.83-6.98-11.86-7.67-14.41-7.67-5.09,0-9.9,2.15-14.29,6.4-2.83,2.74-6.66,4.62-11.51,7.02l-1.18.58c-7.38,3.65-17.68,9.86-21.95,21.62-1.32,3.64-1.99,7.68-2.03,12.36-.05,5.75.97,10.62,3.1,14.77-5.73.42-11.15,2.05-15.84,4.79-6.2,3.63-10.23,9.57-11.34,16.72-1.93,12.4,5.47,24.51,10.14,29.72,1.74,1.94,3.67,3.73,5.76,5.36-8.86,12.12-1.58,30.22,6.4,40.45,5.7,7.3,13.36,13.19,22.77,17.51,5.65,2.6,11.17,3.91,16.41,3.91,4.77,0,9.22-1.13,13.1-3.29,7.47,6.08,16.39,8.13,24.97,9.41,6.73,1,12.61,1.49,17.96,1.49h0c14.23,0,25.63-3.37,34.85-10.3.03-.02.15-.11.19-.14,4.99-3.81,7.6-9.84,7.09-15.96,1.78-.67,3.54-1.52,5.25-2.54,10.72-6.42,18.18-17.86,20.44-31.41,1.66-9.93.63-20.52-3.17-32.37Z"/>
  </g>
  <g id="Productos">
    <g>
      <path class="cls-2" d="m129,77.8c-5.8,5.67-10.4,13.35-8.87,21.64.79,4.3,3.42,8.14,7.37,10.02,6.97,3.32,13.58-1.04,17.23-6.6,2.79-4.25,4.24-9.21,6.16-13.92,2.92-7.16,8.17-13.21,13.07-19,1.28-1.52,2.66-3.38,2.15-5.3-7.28-.01-14.62-.61-21.5,2.22-5.88,2.41-11.06,6.59-15.62,10.94Z"/>
      <path class="cls-2" d="m149.44,112.99c-2.89,2.57-5.93,5.09-7.93,8.4-3.13,5.19-3.27,11.76-1.66,17.6,1.16,4.21,3.58,8.55,7.74,9.87,3.31,1.05,6.95-.08,9.93-1.87,7.35-4.4,11.93-12.57,13.35-21.02s-.05-17.15-2.66-25.31c-.45-1.4-1.17-3.01-2.62-3.27-2.38-.43-4.91,4.36-6.37,5.96-3.09,3.38-6.36,6.58-9.77,9.63Z"/>
      <path class="cls-2" d="m83.51,165.54c4.95,4.54,11.93,5.96,18.57,6.95,14.26,2.12,30.13,2.68,41.64-5.99.02-.01.04-.03.06-.04,2.28-1.74,1.3-5.39-1.53-5.83-7.58-1.18-14.51-3.62-21.14-7.45-11.76-6.8-25.73-13.91-38.86-5.5-6.21,3.98-3.28,13.71,1.26,17.87Z"/>
      <path class="cls-2" d="m34.45,150.55c4.48,5.74,10.59,10.07,17.21,13.11,5.52,2.54,12.52,4.04,17.29.27,5.18-4.1,4.66-12.65.57-17.84s-10.6-7.78-16.88-9.84c-4.92-1.61-10.02-3.05-14.47-5.77-2.57-1.57-5.61-6.03-8.64-3.56-6.3,5.13,1.59,19.35,4.92,23.62Z"/>
      <path class="cls-2" d="m21.61,103.95c5.11,5.69,12.39,9.09,19.88,10.64s15.22,1.37,22.84.81c1.38-.1,2.98-.36,3.64-1.58.95-1.77-.87-3.67-2.36-5.02-8-7.24-10.97-18.94-19.31-25.79-7.14-5.86-18.92-7.31-27.06-2.54s-2.53,18.01,2.38,23.47Z"/>
      <path class="cls-2" d="m71.77,104.16c1.59,6.29,4.69,12.5,10.04,16.17s13.28,4.02,17.99-.44c4.41-4.17,4.84-11.37,2.33-16.88-3.31-7.25-10.58-11.83-15.2-18.34-1.6-2.26-2.86-4.74-3.95-7.28-.73-1.69-1.35-5.87-2.69-7.05-2.72-2.39-4.7,1.23-6.07,3.77-4.74,8.77-4.83,20.61-2.45,30.06Z"/>
      <path class="cls-2" d="m104.85,57.4c3.63,4.23,8.32,7.89,13.83,8.78s11.81-1.67,13.88-6.84c1.03-2.58.94-5.47.43-8.2-1.53-8.2-6.89-15.6-14.21-19.6-5.24-2.86-10.22-4.39-14.32-8.93-3.48-3.86-7.64-3.76-9.81,1.81-3.94,10.08,3.81,25.53,10.21,32.97Z"/>
      <path class="cls-2" d="m64.43,53.77c-3.05,3.1-6.61,5.91-10.82,6.98-4.21,1.07-9.18.05-11.84-3.39-1.98-2.57-2.41-6.01-2.38-9.25.02-2.5.28-5.02,1.13-7.37,2.3-6.32,8.48-10.32,14.51-13.3,5.96-2.95,11.63-5.59,16.46-10.26,3.98-3.85,6.28-2.48,7.51,3.13,2.51,11.49-6.95,25.73-14.57,33.46Z"/>
      <path class="cls-1" d="m87.95,163.23c7.01,3.17,14.31,4.93,22,5.34-7.48,2.46-16.47.27-22-5.34h0Z"/>
      <path class="cls-1" d="m48.68,156.25c3.37.9,7.22,2.47,10.48,3.65,1.15.45,2.31.89,3.49,1.48-2.57.44-5.18-.01-7.6-.88-2.41-.91-4.69-2.25-6.37-4.25h0Z"/>
      <path class="cls-1" d="m20.58,84.19c3.13-4.93,11.34-5.6,15.22-1.23-5.14-1.57-10.41-1.15-15.22,1.23h0Z"/>
      <path class="cls-1" d="m45.21,56.86c-2.99-3.67-4.63-10.06-.8-13.71-1.08,4.7.53,9.02.8,13.71h0Z"/>
      <path class="cls-1" d="m79.09,107.99c3.31,3.66,6.69,6.81,10.55,9.89-5.1-.48-9.73-4.83-10.55-9.89h0Z"/>
      <path class="cls-1" d="m123.93,40.13c4.78,3.63,6.41,11.08,3.56,16.37-.03-5.75-1.19-11.12-3.56-16.37h0Z"/>
      <path class="cls-1" d="m143.81,92.92c-.19,7.15-7.28,13.53-14.41,12.94,1.64-.64,3.14-1.34,4.55-2.18,4.31-2.55,7.59-6.27,9.86-10.76h0Z"/>
      <path class="cls-1" d="m143.18,127.96c.01,5.46,1.42,10.5,4.22,15.19-5.08-2.78-7.13-10.19-4.22-15.19h0Z"/>
    </g>
  </g>
</svg>