<?xml version="1.0" encoding="UTF-8"?>
<svg xmlns="http://www.w3.org/2000/svg" viewBox="0 0 203.78 211.43">
  <defs>
    <style>
      .cls-1 {
        fill: #f2cf6e;
      }

      .cls-1, .cls-2, .cls-3, .cls-4, .cls-5, .cls-6 {
        stroke-width: 0px;
      }

      .cls-7 {
        isolation: isolate;
      }

      .cls-2 {
        fill: #fdf8e9;
      }

      .cls-3 {
        fill: #f6de9d;
      }

      .cls-4 {
        fill: #f7e3aa;
      }

      .cls-5 {
        fill: #dfa57b;
      }

      .cls-6 {
        fill: #e1ac85;
      }

      .cls-8 {
        mix-blend-mode: multiply;
      }
    </style>
  </defs>
  <g class="cls-7">
    <g id="Layer_2" data-name="Layer 2">
      <g id="Blancos">
        <path class="cls-2" d="m186.57,71.06l-1.07-2.15c-2.37-4.79-4-11.49-5.72-18.58-2.59-10.64-5.26-21.65-11.36-31.08C160.4,6.85,147.93.2,132.37,0h-.64c-16.24,0-32.56,7.99-43.65,21.37-6.9,8.33-12.6,19.08-16.49,31.09-2.14,6.61-3.92,13.29-5.31,19.95-22.56,5.18-42.95,20.48-54.96,41.87C4.18,127,.27,141.62.02,156.56c-.34,20.7,4.58,35.95,14.63,45.31,6.7,6.25,15.75,9.55,26.15,9.55,1.02,0,2.08-.03,3.13-.09,4.06-.24,7.91-.88,11.3-1.45,1.91-.32,3.72-.62,5.43-.83,3.83-.48,7.79-.72,11.98-.97,15.2-.92,33.97-2.05,48.98-17.17,5.28,1.16,10.7,1.74,16.21,1.74h0c4.33,0,8.7-.37,12.99-1.1,13.92-2.37,25.94-8.21,34.75-16.88,9.44-9.29,15.67-22.49,17.55-37.16,3.35-26.23-6.77-46.67-16.55-66.44Z"/>
      </g>
      <g id="Productos">
        <g>
          <path class="cls-5" d="m99.63,30.94c-6.14,7.4-10.7,16.66-13.77,26.14-9.12,28.2-13.43,65.31,1.8,92.12,12.2,21.48,36.56,31.66,60.64,27.56,9.89-1.68,19.59-5.74,26.75-12.78,7.57-7.45,11.84-17.84,13.19-28.38,2.89-22.57-6.53-40.49-16.19-60.05-10.75-21.76-6.62-60.13-39.87-60.55-12.67-.16-24.6,6.34-32.55,15.94Z"/>
          <g class="cls-8">
            <path class="cls-1" d="m99.63,30.94c-6.14,7.4-10.7,16.66-13.77,26.14-9.12,28.2-13.43,65.31,1.8,92.12,12.2,21.48,36.56,31.66,60.64,27.56,9.89-1.68,19.59-5.74,26.75-12.78,7.57-7.45,11.84-17.84,13.19-28.38,2.89-22.57-6.53-40.49-16.19-60.05-10.75-21.76-6.62-60.13-39.87-60.55-12.67-.16-24.6,6.34-32.55,15.94Z"/>
          </g>
          <g>
            <g class="cls-8">
              <ellipse class="cls-4" cx="143.62" cy="45.17" rx="2.45" ry="2.49"/>
            </g>
            <g class="cls-8">
              <ellipse class="cls-4" cx="120.52" cy="81.4" rx="2.45" ry="2.49"/>
            </g>
            <g class="cls-8">
              <ellipse class="cls-4" cx="150.7" cy="135.97" rx="2.45" ry="2.49"/>
            </g>
            <g class="cls-8">
              <ellipse class="cls-4" cx="103.01" cy="138.46" rx="2.45" ry="2.49"/>
            </g>
            <g class="cls-8">
              <ellipse class="cls-4" cx="145.63" cy="171.53" rx="2.63" ry="2.67"/>
            </g>
            <g class="cls-8">
              <ellipse class="cls-4" cx="179.73" cy="117.67" rx="2.63" ry="2.67"/>
            </g>
            <g class="cls-8">
              <ellipse class="cls-4" cx="141.17" cy="70.21" rx="1.83" ry="1.86"/>
            </g>
            <g class="cls-8">
              <ellipse class="cls-4" cx="120.52" cy="32.87" rx="1.83" ry="1.86"/>
            </g>
            <g class="cls-8">
              <ellipse class="cls-4" cx="90.98" cy="74.64" rx="1.83" ry="1.86"/>
            </g>
            <g class="cls-8">
              <ellipse class="cls-4" cx="165.22" cy="73.93" rx="1.83" ry="1.86"/>
            </g>
            <g class="cls-8">
              <ellipse class="cls-4" cx="122.35" cy="151.95" rx="1.83" ry="1.86"/>
            </g>
            <g class="cls-8">
              <ellipse class="cls-4" cx="148.87" cy="165.86" rx="1.83" ry="1.86"/>
            </g>
            <g class="cls-8">
              <ellipse class="cls-4" cx="138.97" cy="173.39" rx="1.83" ry="1.86"/>
            </g>
            <g class="cls-8">
              <ellipse class="cls-4" cx="147.04" cy="111.82" rx="1.83" ry="1.86"/>
            </g>
            <g class="cls-8">
              <ellipse class="cls-4" cx="177.1" cy="111.82" rx="1.83" ry="1.86"/>
            </g>
          </g>
          <path class="cls-6" d="m129.61,116.47c-.03-.12-.06-.24-.09-.36-4.49-18.38-19.14-27.1-36.82-29.9-27.83-4.41-54.67,11.14-68.3,35.41-6.01,10.7-9.18,22.93-9.38,35.19-.19,11.19,1.18,26,9.86,34.09,4.95,4.61,11.57,5.85,18.16,5.46,5.3-.31,10.5-1.54,15.76-2.19,19.34-2.42,39.17.74,53.57-15.31,6.92-7.71,11.44-17.32,14.56-27.2,3.58-11.36,5.42-23.6,2.69-35.19Z"/>
          <g class="cls-8">
            <path class="cls-3" d="m129.61,116.47c-.03-.12-.06-.24-.09-.36-4.49-18.38-19.14-27.1-36.82-29.9-27.83-4.41-54.67,11.14-68.3,35.41-6.01,10.7-9.18,22.93-9.38,35.19-.19,11.19,1.18,26,9.86,34.09,4.95,4.61,11.57,5.85,18.16,5.46,5.3-.31,10.5-1.54,15.76-2.19,19.34-2.42,39.17.74,53.57-15.31,6.92-7.71,11.44-17.32,14.56-27.2,3.58-11.36,5.42-23.6,2.69-35.19Z"/>
          </g>
          <g>
            <g class="cls-8">
              <circle class="cls-4" cx="93.32" cy="180.07" r="2.34"/>
            </g>
            <g class="cls-8">
              <circle class="cls-4" cx="69.6" cy="98.24" r="2.34"/>
            </g>
            <g class="cls-8">
              <circle class="cls-4" cx="91.33" cy="173.48" r="1.19"/>
            </g>
            <g class="cls-8">
              <circle class="cls-4" cx="121.98" cy="154.48" r="1.19"/>
            </g>
            <g class="cls-8">
              <circle class="cls-4" cx="34.75" cy="176.41" r="1.19"/>
            </g>
            <g class="cls-8">
              <circle class="cls-4" cx="114.44" cy="100.83" r="1.19"/>
            </g>
            <g class="cls-8">
              <circle class="cls-4" cx="100.32" cy="128.07" r="1.19"/>
            </g>
            <g class="cls-8">
              <circle class="cls-4" cx="109.9" cy="99.69" r="1.19"/>
            </g>
            <g class="cls-8">
              <circle class="cls-4" cx="25.38" cy="130.02" r="1.19"/>
            </g>
            <g class="cls-8">
              <circle class="cls-4" cx="37.37" cy="129.14" r="1.19"/>
            </g>
            <g class="cls-8">
              <circle class="cls-4" cx="62.39" cy="96.42" r="1.7"/>
            </g>
            <g class="cls-8">
              <circle class="cls-4" cx="52.63" cy="156.1" r="1.7"/>
            </g>
            <g class="cls-8">
              <circle class="cls-4" cx="27.46" cy="177.55" r="1.7"/>
            </g>
            <g class="cls-8">
              <circle class="cls-4" cx="39.69" cy="134.85" r="1.7"/>
            </g>
            <g class="cls-8">
              <circle class="cls-4" cx="121.54" cy="149.24" r="1.7"/>
            </g>
          </g>
        </g>
      </g>
    </g>
  </g>
</svg>