<?xml version="1.0" encoding="UTF-8"?>
<svg xmlns="http://www.w3.org/2000/svg" viewBox="0 0 143.01 204.8">
  <defs>
    <style>
      .cls-1 {
        fill: #e95842;
      }

      .cls-1, .cls-2, .cls-3, .cls-4, .cls-5, .cls-6, .cls-7 {
        stroke-width: 0px;
      }

      .cls-2 {
        fill: #19995c;
      }

      .cls-3 {
        fill: #008d4a;
      }

      .cls-8 {
        isolation: isolate;
      }

      .cls-9 {
        mix-blend-mode: soft-light;
      }

      .cls-4 {
        fill: #e64228;
      }

      .cls-5 {
        fill: #fff;
      }

      .cls-6 {
        fill: #eab520;
      }

      .cls-7 {
        fill: #f49297;
        mix-blend-mode: hue;
      }
    </style>
  </defs>
  <g class="cls-8">
    <g id="Layer_2" data-name="Layer 2">
      <g id="Blancos">
        <path class="cls-5" d="m142.46,132.42c-1.47-5.36-5.79-9.45-11.06-10.73-.04-.53-.08-1.06-.12-1.59-.07-.91-.16-1.81-.25-2.72-.12-1.27-.23-2.46-.3-3.56,0-.04,0-.07,0-.11-.05-.79-.07-1.55-.05-2.25.05-1.79.36-2.47.36-2.47l.23-.37c1.42-2.24,4.73-7.48,3.42-14.65-1.02-5.55-5.07-10.05-10.47-11.66-1.65-.49-3.36-.74-5.1-.74-.37,0-.74.01-1.11.03-.43-.92-.87-1.82-1.32-2.7-3.7-7.25-9.17-9.61-13.03-10.29-1-.18-2.03-.28-3.05-.28-1.42,0-3.45.19-5.72.99-.12-.37-.23-.75-.33-1.12-.05-1.18-.12-2.33-.18-3.45-.18-3.07-.34-5.97-.09-8.34.2-1.92.93-3.87,2.06-5.48.34-.48.7-.91,1.09-1.28.05-.03.11-.05.16-.08,1.95-1.01,5.58-2.89,8.35-6.68,3.41-4.61,4.17-10.47,2.03-15.68-2.26-5.5-7.4-9.38-13.81-10.38-1.14-.17-2.31-.26-3.49-.26-2.68,0-5.46.45-8.24,1.33-.8.25-1.6.54-2.39.84-1.38-3.26-3.15-6.43-5.48-9.38-2.24-2.82-8.34-9.36-16.69-9.36-3.05,0-6.02.87-8.54,2.5-4.95,3.18-7.78,8.72-7.57,14.68-1.49.68-3.03,1.64-4.55,2.98-.03.03-.07.06-.1.09-5.48,4.9-8.31,11.99-8.41,21.08-.03,2.64.04,5.8.81,9.21,1.63,7.17,4.19,12.23,6.43,16.32-1.5-.43-3.05-.65-4.62-.65-6.88,0-13.1,4.13-16.26,10.83-2,4.29-2.44,8.48-2.6,11.99-.08,1.75-.12,3.48-.13,5.2-3.69.88-7,3.06-9.28,6.18-.93,1.28-1.65,2.7-2.14,4.21-2.45,7.57.81,13.74,2.21,16.38.02.04.04.08.07.13.08.32.19,1.08.28,1.74.12.83.24,1.65.39,2.47h0c.13.86.37,2.47,1.11,4.37.05.41.1.82.15,1.25.89,7.57,2.61,14.57,5.11,20.82.2,1.41.45,2.82.75,4.2.34,1.58.75,3.15,1.24,4.71-4.39,6.26-3.82,14.81,1.71,21.29,4.4,5.14,10.1,9.29,16.47,11.97,3.11,1.32,6.33,2.27,9.63,2.86,4.26,2.89,8.49,4.9,12.81,6.09,4.59,1.28,9.59,1.93,14.87,1.93,3,0,6.08-.2,9.4-.6,8.41-1.02,15.64-3.92,22.74-9.13.47-.35.95-.7,1.42-1.06,6.84-2.05,12.61-5.14,17.21-9.24,2.1-1.88,6.88-7.08,6-14.73-.05-.45-.12-.9-.21-1.35,1.96-3.59,3.48-7.25,4.54-10.99,0-.02.02-.03.02-.05.22-.36.46-.71.66-1.02,1.14-1.68,2.46-3.25,3.94-4.7.62-.61,1.03-.99,1.19-1.11.08-.06.17-.12.25-.17,6.61-4.67,9.45-11.48,7.6-18.23Z"/>
      </g>
      <g id="Productos">
        <g>
          <path class="cls-2" d="m40.49,93.96c-.64.56-1.27,1.14-1.88,1.75-.23-.11-.44-.25-.65-.4-1.42-1.04-2.89-2.7-4.77-1.41-.92.63-1.45,1.7-1.81,2.77-1.08,3.23-.94,6.67-.94,10.11-.74,1.45-1.4,2.94-1.98,4.45-.1.27-.2.54-.29.82-.07-.23-.12-.46-.13-.68-.48-7.21-.96-14.43-.62-21.64.1-2.16.29-4.38,1.21-6.35.6-1.27,1.89-2.53,3.22-2.09,1.11.38,1.53,1.69,1.88,2.8,1.24,3.86,3.63,7.32,6.76,9.87Z"/>
          <path class="cls-2" d="m40.49,93.96l-12.32,18.09c.09-.28.19-.55.29-.82.58-1.51,1.24-3,1.98-4.45,0-3.44-.14-6.88.94-10.11.36-1.07.89-2.14,1.81-2.77,1.88-1.29,3.35.37,4.77,1.41.21.15.42.29.65.4.61-.61,1.24-1.19,1.88-1.75Z"/>
          <path class="cls-1" d="m117.07,144.94c-.05-.56-.45-1.02-.95-1.3-.16-.08-.33-.15-.5-.2-.72-.19-1.48-.08-2.21.03-4.89.74-9.77,1.59-14.61,2.67,1.74-.81,3.51-1.53,5.31-2.16,4.06-1.42,8.13-2.57,12.09-4.27.1-.04.2-.09.3-.13.22-2.64.32-5.3.21-7.95v-.06c.03-3.42-.09-6.84-.38-10.24-.18-2.21-.44-4.41-.57-6.62-.14-.13-.27-.28-.39-.43-.48-.56-.95-1.12-1.43-1.68-.36-.42-.74-.86-1.24-1.1-.47-.22-1.01-.25-1.53-.21-.2.02-.4.04-.59.08-.2.03-.38.08-.57.14-1.84.52-3.43,1.87-4.79,3.26-2.09,2.15-3.93,4.56-6.24,6.46-.37.3-.76.6-1.22.73-.51.15-1-.07-1.45-.41,3-3.13,5.86-6.37,8.6-9.73.81-1,1.62-2.01,2.42-3.02.29-.37.58-.73.88-1.1-3.02-4.33-6.57-8.3-10.25-12.15-1.23-1.29-2.58-2.45-3.95-3.58-2.08-1.71-4.21-3.37-6.05-5.37-4.22-4.61-7.14-10.33-8.36-16.45-.25-1.23-.42-2.46-.53-3.71-.13-1.5-.39-2.85-1.94-3.39-2.67-.94-5.13.81-6.97,2.56-.49.47-.94.96-1.37,1.47h0c-.2.25-.39.5-.57.75-.07.08-.13.17-.19.26-.05.07-.1.14-.14.22-.05.06-.09.12-.14.18-.05.07-.1.15-.14.22-.19.29-.36.59-.52.88-.16.28-.3.57-.44.87-.14.31-.27.61-.39.93-.01.03-.03.07-.04.1-.1.27-.2.55-.29.84v.02c-.1.31-.18.63-.26.95,0,.02-.01.04-.01.05-.07.31-.13.63-.19.95v.02c-.02.11-.03.22-.05.33-.16,1.14-.28,2.26-.34,3.38-.01.28-.02.56-.03.85h-.01s0,.07-.01.11c0,.02,0,.04-.01.06-.02.06-.1.09-.16.08-.07-.01-.12-.05-.16-.11-.01-.01-.02-.03-.02-.05-.02-.04-.02-.1-.01-.16,0-.15,0-.31-.02-.46,0-.11,0-.23-.03-.35-.05-.37-.12-.73-.19-1.1-.05-.25-.1-.5-.16-.75-.06-.29-.14-.59-.22-.88-.01-.03-.02-.06-.03-.1-.06-.24-.13-.47-.21-.71-.01-.05-.03-.09-.04-.14-.27-.82-.59-1.64-.97-2.41,0,0-.01-.02-.02-.03-.08-.19-.18-.37-.28-.55-.13-.24-.27-.48-.41-.71-.19-.32-.41-.63-.63-.94-.53-.73-1.32-1.67-2.25-2.52-.74-.67-1.55-1.28-2.39-1.67-.12-.05-.23-.1-.34-.14-.13-.06-.26-.1-.4-.14-.07-.02-.15-.04-.23-.06-.13-.03-.27-.06-.41-.07-.14-.02-.28-.03-.42-.03-.39,0-.78.07-1.16.23-1.3.56-.79,1.85-.4,2.89.26.66.48,1.35.65,2.05.02.05.03.09.04.14.6,2.4.71,4.94,0,7.31-.93,3.15-3.01,5.93-5.18,8.34-1.32,1.46-2.76,2.82-4.22,4.15-.71.64-1.42,1.26-2.13,1.9-.71.63-1.42,1.26-2.13,1.9-.64.56-1.27,1.14-1.88,1.75-.61.58-1.2,1.19-1.78,1.81-2.56,2.77-4.68,5.91-6.39,9.26-.74,1.45-1.4,2.94-1.98,4.45-.1.27-.2.54-.29.82-.24.68-.46,1.37-.66,2.06-.34,1.16-.62,2.33-.86,3.52-.03.13-.05.25-.08.35,1.63,1.59,3.45,2.99,5.4,4.17,1.84.92,3.63,1.96,5.47,2.89.32.16.64.32.96.48,2.98,1.5,5.96,2.98,8.96,4.44-2.17,0-4.13-.6-6.1-1.47-2-.87-3.95-1.86-5.91-2.84-2.59-1.3-5.12-2.7-7.77-3.89-1.79-.8-3.72-1.39-5.63-.61-.14.06-.28.12-.4.19-.12.07-.23.14-.33.21-.12.08-.23.17-.33.27-.1.09-.2.19-.29.3-.24.29-.43.61-.58.97-.03.09-.07.19-.12.28-.11.33-.2.68-.26,1.05-.01.05-.02.1-.03.15-.01.01-.01.02-.01.03-.05.14-.12.23-.21.24.02.22.07.44.1.65.05.28.09.55.13.83.13.96.26,1.92.37,2.88.71,6.07,2.13,12.28,4.53,17.93.11.25.21.5.32.77.17,1.65.43,3.29.78,4.92,1.58,7.37,5.28,13.98,10.06,19.74,2.15,2.6,4.53,5.02,7.02,7.26.98.88,1.99,1.75,3.04,2.58,3.33,2.63,7.02,4.9,11.1,6.03,5.99,1.67,12.31,1.63,18.44.88,6.02-.73,10.84-2.79,15.7-6.35,1.15-.84,2.3-1.72,3.44-2.63h.01c3.27-2.64,6.47-5.54,9.36-8.74,5.02-5.55,9.08-11.93,10.84-19.01.07-.29.99-2.15,1.4-2.78-.01-.01-.01-.02-.01-.03-.24-1.17.22-2.37.7-3.46.2-.44.4-.89.35-1.37Z"/>
          <path class="cls-4" d="m33.19,93.9c-.92.63-1.45,1.7-1.81,2.77-1.08,3.23-.94,6.67-.94,10.11,1.71-3.35,3.83-6.49,6.39-9.26.58-.62,1.17-1.23,1.78-1.81-.23-.11-.44-.25-.65-.4-1.42-1.04-2.89-2.7-4.77-1.41Z"/>
          <path class="cls-4" d="m45.74,182.4c-3.27-.23-6.5-1.01-9.53-2.29-.82-1.27-1.65-2.55-2.48-3.82-.29-.46-.59-.93-.75-1.45-.16-.52-.16-1.12.13-1.58.13-.22.33-.41.4-.66.02-.05.02-.1.02-.15.71.09,1.43.13,2.15.11,2.15,2.6,4.53,5.02,7.02,7.26.98.88,1.99,1.75,3.04,2.58Z"/>
          <path class="cls-7" d="m116.72,146.31c-.48,1.09-.94,2.29-.7,3.46,0,.01,0,.02.01.03-.41.63-1.33,2.49-1.4,2.78-1.76,7.08-5.82,13.46-10.84,19.01-2.89,3.2-6.09,6.1-9.36,8.73h-.01c-1.14.92-2.29,1.8-3.44,2.64-4.86,3.56-9.68,5.62-15.7,6.35-6.13.75-12.45.79-18.44-.88-4.08-1.13-7.77-3.4-11.1-6.03-3.27-.23-6.5-1.01-9.53-2.29-.82-1.27-1.65-2.55-2.48-3.82-.29-.46-.59-.93-.75-1.45-.16-.52-.16-1.12.13-1.58.13-.22.33-.41.4-.66.02-.05.02-.1.02-.15.71.09,1.43.13,2.15.11-4.78-5.76-8.48-12.37-10.06-19.74-.35-1.63-.61-3.27-.78-4.92-.11-.27-.21-.52-.32-.77-2.4-5.65-3.82-11.86-4.53-17.93-.11-.96-.24-1.92-.37-2.88-.04-.28-.08-.55-.13-.83-.03-.21-.08-.43-.1-.65.09-.01.16-.1.21-.24,0-.01,0-.02.01-.03.01-.05.02-.1.03-.15.06-.37.15-.72.26-1.05.05-.09.09-.19.12-.28.15-.36.34-.68.58-.97.09-.11.19-.21.29-.3.1-.1.21-.19.33-.27.1-.07.21-.14.33-.21.12-.07.26-.13.4-.19,1.91-.78,3.84-.19,5.63.61,2.65,1.19,5.18,2.59,7.77,3.89,1.96.98,3.91,1.97,5.91,2.84,1.97.87,3.93,1.47,6.1,1.47-3-1.46-5.98-2.94-8.96-4.44-.32-.16-.64-.32-.96-.48-1.84-.93-3.63-1.97-5.47-2.89-1.95-1.18-3.77-2.58-5.4-4.17.03-.1.05-.22.08-.35.24-1.19.52-2.36.86-3.52.2-.69.42-1.38.66-2.06.09-.28.19-.55.29-.82.58-1.51,1.24-3,1.98-4.45,0-3.44-.14-6.88.94-10.11.36-1.07.89-2.14,1.81-2.77,1.88-1.29,3.35.37,4.77,1.41.21.15.42.29.65.4.61-.61,1.24-1.19,1.88-1.75.71-.64,1.42-1.27,2.13-1.9.71-.64,1.42-1.26,2.13-1.9,1.46-1.33,2.9-2.69,4.22-4.15,2.17-2.41,4.25-5.19,5.18-8.34.71-2.37.6-4.91,0-7.31,0-.05-.02-.09-.04-.14-.17-.7-.39-1.39-.65-2.05-.39-1.04-.9-2.33.4-2.89,2.78-1.19,6.17,2.43,7.6,4.4,1.78,2.43,2.73,5.4,3.16,8.32.02.17.04.33.04.5.01.08.01.16.01.24s-.02.17.01.23c0,.02.01.04.02.05.04.06.09.1.16.11.06.01.14-.02.16-.08.01-.02.01-.04.01-.06.03-.2.03-.4.03-.6.01-.21.02-.43.04-.64.02-.42.06-.85.1-1.27.06-.61.13-1.22.22-1.83.49-3.52,2.18-6.59,4.74-9.04,1.84-1.75,4.3-3.5,6.97-2.56,1.55.54,1.81,1.89,1.94,3.39.11,1.25.28,2.48.53,3.71,1.22,6.12,4.14,11.84,8.36,16.45,1.84,2,3.97,3.66,6.05,5.37,1.37,1.13,2.72,2.29,3.95,3.58,3.68,3.85,7.23,7.82,10.25,12.15-.3.37-.59.73-.88,1.1-.8,1.01-1.61,2.02-2.42,3.02-2.74,3.36-5.6,6.6-8.6,9.73.45.34.94.56,1.45.41.46-.13.85-.43,1.22-.73,2.31-1.9,4.15-4.31,6.24-6.46,1.36-1.39,2.95-2.74,4.79-3.26.19-.06.37-.11.57-.14.19-.04.39-.06.59-.08.52-.04,1.06-.01,1.53.21.5.24.88.68,1.24,1.1.48.56.95,1.12,1.43,1.68.12.15.25.3.39.43.13,2.21.39,4.41.57,6.62.29,3.4.41,6.82.38,10.24v.06c.11,2.65.01,5.31-.21,7.95-.1.04-.2.09-.3.13-3.96,1.7-8.03,2.85-12.09,4.27-1.8.63-3.57,1.35-5.31,2.16,4.84-1.08,9.72-1.93,14.61-2.67.73-.11,1.49-.22,2.21-.03.17.05.34.12.5.2.5.28.9.74.95,1.3.05.48-.15.93-.35,1.37Z"/>
          <g>
            <path class="cls-3" d="m70.94,46.27c-1.09,2.13-1.99,4.39-2.74,6.7-.1.33-.21.66-.31.99-.15.5-.29,1-.43,1.5-.39,1.37-.89,2.84-1.05,4.22-.01.09-.02.19-.01.28,0,0,0,.03,0,.04-.13.65-.25,1.3-.36,1.95-.72,4.12-.99,8.32-1.09,12.52-.04,1.46-.05,2.92-.06,4.37.05.01.1.02.16.04,0,.04,0,.07-.01.11,0,.02,0,.04-.01.06-.02.06-.1.09-.16.08-.07-.01-.12-.05-.16-.11-.01-.01-.02-.03-.02-.05-.02-.04-.02-.1-.01-.16,0-.15,0-.31-.02-.46,0-.11,0-.23-.03-.35-.05-.37-.12-.73-.19-1.1-.05-.25-.1-.5-.16-.75-.06-.29-.14-.59-.22-.88-.01-.03-.02-.06-.03-.1-.06-.24-.13-.47-.21-.71-.01-.05-.03-.09-.04-.14-.27-.82-.59-1.64-.97-2.41,0,0-.01-.02-.02-.03-.17-2.11-.22-4.24-.21-6.35,0-.97.01-1.95.03-2.92.02-.87.17-1.83-.06-2.67-.01-.03-.02-.06-.03-.09-.34-1.22-.96-2.46-1.69-3.54-.14-.21-.28-.42-.43-.62-.75-1.01-1.61-1.95-2.48-2.87.01-.19.03-.39.05-.58,1.14-11.05,3.82-23.02-.61-33.54-.25-.6-.54-1.2-.61-1.86-.07-.65.14-1.38.67-1.72,1.21-.78,4.61,2.61,5.38,3.58,4,5.06,5.57,11.76,6.77,18.25.57,3.08,1.08,6.19,1.38,9.32Z"/>
            <path class="cls-2" d="m115.68,111.08c-.03,1.21,0,2.42.08,3.63-.14-.13-.27-.28-.39-.43-.48-.56-.95-1.12-1.43-1.68-.36-.42-.74-.86-1.24-1.1-.47-.22-1.01-.25-1.53-.21-.2.02-.4.04-.59.08-.2.03-.38.08-.57.14-1.84.52-3.43,1.87-4.79,3.26-2.09,2.15-3.93,4.56-6.24,6.46-.37.3-.76.6-1.22.73-.51.15-1-.07-1.45-.41,3-3.13,5.86-6.37,8.6-9.73.81-1,1.62-2.01,2.42-3.02.29-.37.58-.73.88-1.1.47-.59.93-1.18,1.4-1.77.07-.09.15-.19.22-.28,1.59-1.99,3.17-3.98,4.75-5.97.68-.85,1.37-1.72,2.26-2.33.9-.62,2.05-.96,3.09-.65.3,1.63-.87,3.12-1.73,4.54-1.77,2.93-2.43,6.42-2.52,9.84Z"/>
            <path class="cls-2" d="m109.83,105.65c-.07.09-.15.19-.22.28-.47.59-.93,1.18-1.4,1.77-3.02-4.33-6.57-8.3-10.25-12.15-1.23-1.29-2.58-2.45-3.95-3.58.79-2.54,2.09-4.91,3.82-6.93.8-.94,1.91-1.87,3.12-1.65,1.13.2,1.84,1.32,2.36,2.34,3.05,5.9,5.49,13.24,6.52,19.92Z"/>
            <path class="cls-2" d="m36.21,180.11c-4.18-1.76-7.96-4.45-10.91-7.9-.77-.9-1.47-2.31-.64-3.15.12-.12.28-.22.45-.23.26-.02.48.16.68.33,2.19,1.82,4.91,2.96,7.74,3.29,0,.05,0,.1-.02.15-.07.25-.27.44-.4.66-.29.46-.29,1.06-.13,1.58.16.52.46.99.75,1.45.83,1.27,1.66,2.55,2.48,3.82Z"/>
            <path class="cls-2" d="m64.85,78.83c-.06-.01-.12-.02-.18-.02,0-.15,0-.31-.02-.46,0-.11,0-.23-.03-.35-.05-.37-.12-.73-.19-1.1-.05-.25-.1-.5-.16-.75-.06-.29-.14-.59-.22-.88-.01-.03-.02-.06-.03-.1-.06-.24-.13-.47-.21-.71-.01-.05-.03-.09-.04-.14-.27-.82-.59-1.64-.97-2.41,0,0-.01-.02-.02-.03-.08-.19-.18-.37-.28-.55-.13-.24-.26-.48-.41-.71-.19-.32-.41-.63-.63-.94-.53-.73-1.32-1.67-2.25-2.52-.74-.67-1.55-1.28-2.39-1.67-.12-.05-.23-.1-.34-.14-.13-.06-.26-.1-.4-.14-.07-.02-.15-.04-.23-.06-.13-.03-.27-.06-.41-.07-.14-.02-.28-.03-.42-.03-.39,0-.78.07-1.16.23-1.3.56-.79,1.85-.4,2.89.26.66.48,1.35.65,2.05-2.56-8.11-7.62-12.57-10-23.02-.42-1.87-.46-3.8-.44-5.72.04-3.64.69-7.62,3.41-10.05.49-.43,1.08-.82,1.74-.79.78.04,1.41.7,1.67,1.44.27.73.24,1.53.23,2.31-.1,4.4.25,9.01,2.49,12.8,1.25,2.11,3.01,3.84,4.7,5.63.87.92,1.73,1.86,2.48,2.87.15.2.29.41.43.62.63.97,1.2,2.13,1.69,3.54.01.03.02.06.03.09,1.14,3.29,1.9,7.91,2.19,14.54.06,1.36.1,2.81.12,4.35Z"/>
            <path class="cls-2" d="m91.91,31.67c-1.66-.25-3.4.04-4.98.54-5.54,1.75-10.59,5.57-13.84,10.38-.79,1.17-1.51,2.4-2.15,3.68-1.09,2.13-1.99,4.39-2.74,6.7-.1.33-.21.66-.31.99-.15.5-.29,1-.43,1.5-.41,1.49-.76,3-1.06,4.5,0,0,0,.03,0,.04-.13.65-.25,1.3-.36,1.95-.72,4.12-.99,8.32-1.09,12.52-.04,1.46-.05,2.92-.06,4.37.05.01.1.02.16.04h.01c.01-.29.02-.57.03-.85.06-1.12.18-2.24.34-3.38.02-.11.03-.22.05-.33v-.02c.06-.32.12-.64.19-.95,0-.01.01-.03.01-.05.08-.32.16-.64.26-.95v-.02c.09-.29.19-.57.29-.84.01-.03.03-.07.04-.1.12-.32.25-.62.39-.93.14-.3.28-.59.44-.87.16-.29.33-.59.52-.88.04-.07.09-.15.14-.22.05-.06.09-.12.14-.18.04-.08.09-.15.14-.22.06-.09.12-.18.19-.26.18-.25.37-.5.57-.74h0c.43-.52.88-1.01,1.37-1.48,1.84-1.75,4.3-3.5,6.97-2.56,1.55.54,1.81,1.89,1.94,3.39.11,1.25.28,2.48.53,3.71-.15-5.09-.79-10.21-.26-15.26.46-4.48,2.11-8.87,4.7-12.56,1.22-1.74,2.66-3.32,4.3-4.66,1.61-1.34,4.28-1.99,5.53-3.7,1-1.35-.93-2.14-1.96-2.3Z"/>
            <path class="cls-2" d="m108.44,173.61c-3.88,3.46-8.94,5.5-14.01,6.71,3.27-2.63,6.47-5.53,9.36-8.73.22.02.43.02.65.03,1.48.03,2.86-.33,4.32-.37.17-.01.35-.01.5.07.89.49-.43,1.94-.82,2.29Z"/>
            <path class="cls-2" d="m47.36,129.96c-2.17,0-4.13-.6-6.1-1.47-2-.87-3.95-1.86-5.91-2.84-2.59-1.3-5.12-2.7-7.77-3.89-1.79-.8-3.72-1.39-5.63-.61-.14.06-.28.12-.4.19-.12.07-.23.14-.33.21-.12.08-.23.17-.33.27-.11.09-.2.19-.29.3-.24.29-.43.61-.58.97-.04.09-.08.18-.12.27.01.01,0,.01,0,.01-.11.33-.2.68-.26,1.05-.01.05-.02.1-.03.15-.01.01-.01.02-.01.03-.05.14-.12.23-.21.24-.08.01-.18-.05-.29-.22-.33-.5-.39-1.27-.49-1.85-.32-1.75-.46-3.54-.89-5.27-.3-2.81-3.42-5.61-2.56-8.27,1.23-1.69,4.44,1.96,5.2,2.69,1.44,1.4,2.83,2.84,4.27,4.24.58.58,1.22,1.11,1.8,1.69.05.04.09.09.14.13,1.63,1.59,3.45,2.99,5.4,4.17,1.84.92,3.63,1.96,5.47,2.89.32.16.64.32.96.48,2.98,1.5,5.96,2.98,8.96,4.44Z"/>
            <path class="cls-2" d="m52.63,154.08c-1.12-.04-2.21-.36-3.28-.7-2.92-.93-5.79-2.01-8.58-3.26-.87-.38-1.76-.79-2.71-.81-.32,0-.67.06-.87.3-.13.15-.18.35-.22.54-.37,1.91.22,3.95-.4,5.8-1.14-.78-.98-3.7-1.18-4.92-.31-1.89-.74-3.77-1.4-5.57-.52-1.39-1.17-2.89-.7-4.3.06-.17.14-.34.29-.44.12-.09.28-.11.43-.11,1.82-.11,3.21,1.08,4.55,2.14,2.6,2.06,5.14,4.21,7.77,6.22,2.06,1.56,4.25,2.79,6.37,4.24.44.3.7.9-.07.87Z"/>
            <path class="cls-2" d="m72.07,175.11c-.71-.11-1.16-.64-1.62-1.15-1.37-1.5-3.03-2.7-4.69-3.89-1.49-1.06-2.94-1.7-4.75-1.02-.9.34-1.71.89-2.51,1.41-1.34.87-2.69,1.71-4.07,2.51-.28.16-1.65.89-1.34-.02.5-1.47,1.79-2.47,2.71-3.66,1.09-1.42,2.21-2.84,3.49-4.1,2.03-2,4.99-3.76,7.04-.79,1.23,1.78,2.42,3.57,3.58,5.38.9,1.41,1.98,2.82,2.68,4.33.23.49.14,1.1-.52,1Z"/>
            <path class="cls-2" d="m88.68,111.91c-.03.38-.18.79-.51.96-.47.23-1-.1-1.41-.42-.95-.95-2.23-1.71-3.3-2.53-1-.77-1.92-1.58-2.97-2.28-2.21-1.48-4.16-3.29-6.28-4.88-2.2-1.64-4.86-3.27-7.67-3.47-2.65-.18-5.27,1.76-7.01,3.57-1.78,1.86-3.19,4.04-4.97,5.9-1.03,1.08-2.29,2.3-3.63,3.02-.47.26-1.17.27-1.45-.2-.11-.18-.13-.42-.13-.64-.02-1.46.64-2.77,1.13-4.11,1.62-4.47,3.55-8.75,5.01-13.28,1.36-4.21,2.84-8.4,5.08-12.23.73-1.08,1.65-2.16,2.91-2.46.39-.1.8-.11,1.19-.05.06,0,.12.01.18.02.01,0,.02,0,.03.01.05.01.11.02.17.04.62.14,1.23.45,1.74.84.95.71,1.66,1.67,2.37,2.61,2.98,3.93,6.13,7.74,9.43,11.41,1.45,1.61,2.94,3.2,4.22,4.95,1.72,2.38,3.04,5.02,4.12,7.75.65,1.64,1.93,3.65,1.75,5.47Z"/>
            <path class="cls-2" d="m126.21,138.4c-1.2.81-2.27,1.82-3.3,2.83-2.18,2.13-4.14,4.47-5.85,6.99-.35.52-.7,1.05-1.03,1.58-.01-.01-.01-.02-.01-.03-.24-1.17.22-2.37.7-3.46.2-.44.4-.89.35-1.37-.05-.56-.45-1.02-.95-1.3-.16-.08-.33-.15-.5-.2-.72-.19-1.48-.08-2.21.03-4.89.74-9.77,1.59-14.61,2.67,1.74-.81,3.51-1.53,5.31-2.16,4.06-1.42,8.13-2.57,12.09-4.27.1-.04.2-.09.3-.13,3.51-1.54,7.29-3.66,11.26-3.32,1.01.08-1.45,2.07-1.55,2.14Z"/>
            <path class="cls-2" d="m83.76,130.72c.34.34.64.73.88,1.05,1.22,1.59,2.23,3.32,3.45,4.91,1.29,1.69,2.91,3.06,4.45,4.51.15.14.3.3.32.5.04.58-.76.59-1.14.53-1.4-.21-2.69-.89-3.9-1.64-1.75-1.09-3.44-2.41-5.5-2.85-1.98-.42-3.66,1.24-5.06,2.39-1.17.96-2.42,1.82-3.71,2.62-.4.25-1.34.67-1.49-.11-.07-.33.1-.67.29-.96.36-.57.78-1.09,1.2-1.62,2.45-3.05,4.9-6.1,7.31-9.18.35-.45.82-.86,1.39-.9.57-.04,1.08.3,1.52.73Z"/>
          </g>
          <g class="cls-9">
            <path class="cls-6" d="m70.94,46.27c-1.09,2.13-1.99,4.39-2.74,6.7-.1.33-.21.66-.31.99-.15.5-.29,1-.43,1.5-.39,1.37-.89,2.84-1.05,4.22-.01.09-.02.19-.01.28,0,0,0,.03,0,.04-.13.65-.25,1.3-.36,1.95-.72,4.12-.99,8.32-1.09,12.52-.04,1.46-.05,2.92-.06,4.37.05.01.1.02.16.04,0,.04,0,.07-.01.11,0,.02,0,.04-.01.06-.02.06-.1.09-.16.08-.07-.01-.12-.05-.16-.11-.01-.01-.02-.03-.02-.05-.02-.04-.02-.1-.01-.16,0-.15,0-.31-.02-.46,0-.11,0-.23-.03-.35-.05-.37-.12-.73-.19-1.1-.05-.25-.1-.5-.16-.75-.06-.29-.14-.59-.22-.88-.01-.03-.02-.06-.03-.1-.06-.24-.13-.47-.21-.71-.01-.05-.03-.09-.04-.14-.27-.82-.59-1.64-.97-2.41,0,0-.01-.02-.02-.03-.17-2.11-.22-4.24-.21-6.35,0-.97.01-1.95.03-2.92.02-.87.17-1.83-.06-2.67-.01-.03-.02-.06-.03-.09-.34-1.22-.96-2.46-1.69-3.54-.14-.21-.28-.42-.43-.62-.75-1.01-1.61-1.95-2.48-2.87.01-.19.03-.39.05-.58,1.14-11.05,3.82-23.02-.61-33.54-.25-.6-.54-1.2-.61-1.86-.07-.65.14-1.38.67-1.72,1.21-.78,4.61,2.61,5.38,3.58,4,5.06,5.57,11.76,6.77,18.25.57,3.08,1.08,6.19,1.38,9.32Z"/>
            <path class="cls-6" d="m115.68,111.08c-.03,1.21,0,2.42.08,3.63-.14-.13-.27-.28-.39-.43-.48-.56-.95-1.12-1.43-1.68-.36-.42-.74-.86-1.24-1.1-.47-.22-1.01-.25-1.53-.21-.2.02-.4.04-.59.08-.2.03-.38.08-.57.14-1.84.52-3.43,1.87-4.79,3.26-2.09,2.15-3.93,4.56-6.24,6.46-.37.3-.76.6-1.22.73-.51.15-1-.07-1.45-.41,3-3.13,5.86-6.37,8.6-9.73.81-1,1.62-2.01,2.42-3.02.29-.37.58-.73.88-1.1.47-.59.93-1.18,1.4-1.77.07-.09.15-.19.22-.28,1.59-1.99,3.17-3.98,4.75-5.97.68-.85,1.37-1.72,2.26-2.33.9-.62,2.05-.96,3.09-.65.3,1.63-.87,3.12-1.73,4.54-1.77,2.93-2.43,6.42-2.52,9.84Z"/>
            <path class="cls-6" d="m109.83,105.65c-.07.09-.15.19-.22.28-.47.59-.93,1.18-1.4,1.77-3.02-4.33-6.57-8.3-10.25-12.15-1.23-1.29-2.58-2.45-3.95-3.58.79-2.54,2.09-4.91,3.82-6.93.8-.94,1.91-1.87,3.12-1.65,1.13.2,1.84,1.32,2.36,2.34,3.05,5.9,5.49,13.24,6.52,19.92Z"/>
            <path class="cls-6" d="m36.21,180.11c-4.18-1.76-7.96-4.45-10.91-7.9-.77-.9-1.47-2.31-.64-3.15.12-.12.28-.22.45-.23.26-.02.48.16.68.33,2.19,1.82,4.91,2.96,7.74,3.29,0,.05,0,.1-.02.15-.07.25-.27.44-.4.66-.29.46-.29,1.06-.13,1.58.16.52.46.99.75,1.45.83,1.27,1.66,2.55,2.48,3.82Z"/>
            <path class="cls-6" d="m64.85,78.83c-.06-.01-.12-.02-.18-.02,0-.15,0-.31-.02-.46,0-.11,0-.23-.03-.35-.05-.37-.12-.73-.19-1.1-.05-.25-.1-.5-.16-.75-.06-.29-.14-.59-.22-.88-.01-.03-.02-.06-.03-.1-.06-.24-.13-.47-.21-.71-.01-.05-.03-.09-.04-.14-.27-.82-.59-1.64-.97-2.41,0,0-.01-.02-.02-.03-.08-.19-.18-.37-.28-.55-.13-.24-.26-.48-.41-.71-.19-.32-.41-.63-.63-.94-.53-.73-1.32-1.67-2.25-2.52-.74-.67-1.55-1.28-2.39-1.67-.12-.05-.23-.1-.34-.14-.13-.06-.26-.1-.4-.14-.07-.02-.15-.04-.23-.06-.13-.03-.27-.06-.41-.07-.14-.02-.28-.03-.42-.03-.39,0-.78.07-1.16.23-1.3.56-.79,1.85-.4,2.89.26.66.48,1.35.65,2.05-2.56-8.11-7.62-12.57-10-23.02-.42-1.87-.46-3.8-.44-5.72.04-3.64.69-7.62,3.41-10.05.49-.43,1.08-.82,1.74-.79.78.04,1.41.7,1.67,1.44.27.73.24,1.53.23,2.31-.1,4.4.25,9.01,2.49,12.8,1.25,2.11,3.01,3.84,4.7,5.63.87.92,1.73,1.86,2.48,2.87.15.2.29.41.43.62.63.97,1.2,2.13,1.69,3.54.01.03.02.06.03.09,1.14,3.29,1.9,7.91,2.19,14.54.06,1.36.1,2.81.12,4.35Z"/>
            <path class="cls-6" d="m91.91,31.67c-1.66-.25-3.4.04-4.98.54-5.54,1.75-10.59,5.57-13.84,10.38-.79,1.17-1.51,2.4-2.15,3.68-1.09,2.13-1.99,4.39-2.74,6.7-.1.33-.21.66-.31.99-.15.5-.29,1-.43,1.5-.41,1.49-.76,3-1.06,4.5,0,0,0,.03,0,.04-.13.65-.25,1.3-.36,1.95-.72,4.12-.99,8.32-1.09,12.52-.04,1.46-.05,2.92-.06,4.37.05.01.1.02.16.04h.01c.01-.29.02-.57.03-.85.06-1.12.18-2.24.34-3.38.02-.11.03-.22.05-.33v-.02c.06-.32.12-.64.19-.95,0-.01.01-.03.01-.05.08-.32.16-.64.26-.95v-.02c.09-.29.19-.57.29-.84.01-.03.03-.07.04-.1.12-.32.25-.62.39-.93.14-.3.28-.59.44-.87.16-.29.33-.59.52-.88.04-.07.09-.15.14-.22.05-.06.09-.12.14-.18.04-.08.09-.15.14-.22.06-.09.12-.18.19-.26.18-.25.37-.5.57-.74h0c.43-.52.88-1.01,1.37-1.48,1.84-1.75,4.3-3.5,6.97-2.56,1.55.54,1.81,1.89,1.94,3.39.11,1.25.28,2.48.53,3.71-.15-5.09-.79-10.21-.26-15.26.46-4.48,2.11-8.87,4.7-12.56,1.22-1.74,2.66-3.32,4.3-4.66,1.61-1.34,4.28-1.99,5.53-3.7,1-1.35-.93-2.14-1.96-2.3Z"/>
            <path class="cls-6" d="m108.44,173.61c-3.88,3.46-8.94,5.5-14.01,6.71,3.27-2.63,6.47-5.53,9.36-8.73.22.02.43.02.65.03,1.48.03,2.86-.33,4.32-.37.17-.01.35-.01.5.07.89.49-.43,1.94-.82,2.29Z"/>
            <path class="cls-6" d="m47.36,129.96c-2.17,0-4.13-.6-6.1-1.47-2-.87-3.95-1.86-5.91-2.84-2.59-1.3-5.12-2.7-7.77-3.89-1.79-.8-3.72-1.39-5.63-.61-.14.06-.28.12-.4.19-.12.07-.23.14-.33.21-.12.08-.23.17-.33.27-.11.09-.2.19-.29.3-.24.29-.43.61-.58.97-.04.09-.08.18-.12.27.01.01,0,.01,0,.01-.11.33-.2.68-.26,1.05-.01.05-.02.1-.03.15-.01.01-.01.02-.01.03-.05.14-.12.23-.21.24-.08.01-.18-.05-.29-.22-.33-.5-.39-1.27-.49-1.85-.32-1.75-.46-3.54-.89-5.27-.3-2.81-3.42-5.61-2.56-8.27,1.23-1.69,4.44,1.96,5.2,2.69,1.44,1.4,2.83,2.84,4.27,4.24.58.58,1.22,1.11,1.8,1.69.05.04.09.09.14.13,1.63,1.59,3.45,2.99,5.4,4.17,1.84.92,3.63,1.96,5.47,2.89.32.16.64.32.96.48,2.98,1.5,5.96,2.98,8.96,4.44Z"/>
            <path class="cls-6" d="m52.63,154.08c-1.12-.04-2.21-.36-3.28-.7-2.92-.93-5.79-2.01-8.58-3.26-.87-.38-1.76-.79-2.71-.81-.32,0-.67.06-.87.3-.13.15-.18.35-.22.54-.37,1.91.22,3.95-.4,5.8-1.14-.78-.98-3.7-1.18-4.92-.31-1.89-.74-3.77-1.4-5.57-.52-1.39-1.17-2.89-.7-4.3.06-.17.14-.34.29-.44.12-.09.28-.11.43-.11,1.82-.11,3.21,1.08,4.55,2.14,2.6,2.06,5.14,4.21,7.77,6.22,2.06,1.56,4.25,2.79,6.37,4.24.44.3.7.9-.07.87Z"/>
            <path class="cls-6" d="m72.07,175.11c-.71-.11-1.16-.64-1.62-1.15-1.37-1.5-3.03-2.7-4.69-3.89-1.49-1.06-2.94-1.7-4.75-1.02-.9.34-1.71.89-2.51,1.41-1.34.87-2.69,1.71-4.07,2.51-.28.16-1.65.89-1.34-.02.5-1.47,1.79-2.47,2.71-3.66,1.09-1.42,2.21-2.84,3.49-4.1,2.03-2,4.99-3.76,7.04-.79,1.23,1.78,2.42,3.57,3.58,5.38.9,1.41,1.98,2.82,2.68,4.33.23.49.14,1.1-.52,1Z"/>
            <path class="cls-6" d="m88.68,111.91c-.03.38-.18.79-.51.96-.47.23-1-.1-1.41-.42-.95-.95-2.23-1.71-3.3-2.53-1-.77-1.92-1.58-2.97-2.28-2.21-1.48-4.16-3.29-6.28-4.88-2.2-1.64-4.86-3.27-7.67-3.47-2.65-.18-5.27,1.76-7.01,3.57-1.78,1.86-3.19,4.04-4.97,5.9-1.03,1.08-2.29,2.3-3.63,3.02-.47.26-1.17.27-1.45-.2-.11-.18-.13-.42-.13-.64-.02-1.46.64-2.77,1.13-4.11,1.62-4.47,3.55-8.75,5.01-13.28,1.36-4.21,2.84-8.4,5.08-12.23.73-1.08,1.65-2.16,2.91-2.46.39-.1.8-.11,1.19-.05.06,0,.12.01.18.02.01,0,.02,0,.03.01.05.01.11.02.17.04.62.14,1.23.45,1.74.84.95.71,1.66,1.67,2.37,2.61,2.98,3.93,6.13,7.74,9.43,11.41,1.45,1.61,2.94,3.2,4.22,4.95,1.72,2.38,3.04,5.02,4.12,7.75.65,1.64,1.93,3.65,1.75,5.47Z"/>
            <path class="cls-6" d="m126.21,138.4c-1.2.81-2.27,1.82-3.3,2.83-2.18,2.13-4.14,4.47-5.85,6.99-.35.52-.7,1.05-1.03,1.58-.01-.01-.01-.02-.01-.03-.24-1.17.22-2.37.7-3.46.2-.44.4-.89.35-1.37-.05-.56-.45-1.02-.95-1.3-.16-.08-.33-.15-.5-.2-.72-.19-1.48-.08-2.21.03-4.89.74-9.77,1.59-14.61,2.67,1.74-.81,3.51-1.53,5.31-2.16,4.06-1.42,8.13-2.57,12.09-4.27.1-.04.2-.09.3-.13,3.51-1.54,7.29-3.66,11.26-3.32,1.01.08-1.45,2.07-1.55,2.14Z"/>
            <path class="cls-6" d="m83.76,130.72c.34.34.64.73.88,1.05,1.22,1.59,2.23,3.32,3.45,4.91,1.29,1.69,2.91,3.06,4.45,4.51.15.14.3.3.32.5.04.58-.76.59-1.14.53-1.4-.21-2.69-.89-3.9-1.64-1.75-1.09-3.44-2.41-5.5-2.85-1.98-.42-3.66,1.24-5.06,2.39-1.17.96-2.42,1.82-3.71,2.62-.4.25-1.34.67-1.49-.11-.07-.33.1-.67.29-.96.36-.57.78-1.09,1.2-1.62,2.45-3.05,4.9-6.1,7.31-9.18.35-.45.82-.86,1.39-.9.57-.04,1.08.3,1.52.73Z"/>
            <path class="cls-6" d="m40.49,93.96c-.64.56-1.27,1.14-1.88,1.75-.23-.11-.44-.25-.65-.4-1.42-1.04-2.89-2.7-4.77-1.41-.92.63-1.45,1.7-1.81,2.77-1.08,3.23-.94,6.67-.94,10.11-.74,1.45-1.4,2.94-1.98,4.45-.1.27-.2.54-.29.82-.07-.23-.12-.46-.13-.68-.48-7.21-.96-14.43-.62-21.64.1-2.16.29-4.38,1.21-6.35.6-1.27,1.89-2.53,3.22-2.09,1.11.38,1.53,1.69,1.88,2.8,1.24,3.86,3.63,7.32,6.76,9.87Z"/>
          </g>
        </g>
      </g>
    </g>
  </g>
</svg>