<?xml version="1.0" encoding="UTF-8"?>
<svg id="Layer_2" data-name="Layer 2" xmlns="http://www.w3.org/2000/svg" viewBox="0 0 217.07 201.73">
  <defs>
    <style>
      .cls-1 {
        fill: #99d1b7;
      }

      .cls-1, .cls-2, .cls-3, .cls-4, .cls-5, .cls-6, .cls-7 {
        stroke-width: 0px;
      }

      .cls-2 {
        fill: #fff;
      }

      .cls-3 {
        fill: #80c6a5;
      }

      .cls-4 {
        fill: #33a46e;
      }

      .cls-5 {
        fill: #4caf81;
      }

      .cls-6 {
        fill: #eab520;
        opacity: .2;
      }

      .cls-7 {
        fill: #66bb93;
      }
    </style>
  </defs>
  <g id="Blancos">
    <path class="cls-2" d="m214.63,106.78c-4.44-6.39-11.47-6.43-12.31-6.43-.14,0-.27,0-.41,0,0,0,7.57-24.18,9.69-37.94.83-5.4,5.3-19.72-9.61-24.37-2.46-.77-12.3-2.5-17.59,7.06,0,0-11.57,16.91-11.58,16.92-2.11-5.95-7.75-9.97-14.12-9.98.82-2.12,2.28-17.07,9.18-29.97,3.51-6.56,1.68-14.69-4.29-19.12-2.67-1.98-5.81-2.95-8.93-2.95-7.32,0-27.39,14.7-39.19,25.89-9.12,8.65-19.99,26.11-19.99,26.11,0,0-3.51-14.72-2.82-25.97.44-7.21-3.21-14.02-10.07-16.33-1.66-.56-17.61-8.61-28.18,32.05-2.06,7.94-3.46,16.4-4.21,25.79-2.38-4.23-4.58-8.77-6.61-13.62-3.44-8.23-11.59-9.93-16.79-8.88-20.87,4.19-8.64,49.82-8.41,50.94-1.2-.28-10.14-2.04-15.75,6.12-3.6,5.24-3.51,12.19.24,17.33.04.06,10.38,15.32,14.29,22.76l1.27,2.41c3.81,7.23,13.9,21.26,19.18,27.25,15.83,17.96,40.35,29.88,56.34,29.88,49.07,0,70.57-15.47,90.51-32.96,10.36-9.09,18.83-20.3,26.68-35.27,1.14-2.18,10.15-17.13,3.48-26.71Z"/>
  </g>
  <g id="Productos">
    <g>
      <path class="cls-5" d="m124.09,165.87c3.15-.66,6.1-2.78,8.56-5,4.38-3.95,8.54-8.08,10.82-13.4l4.09-.7,1.56-3.85,4.08-.8,13.08-6.68,7.77-9.23,2.09-8.58,7.22-8.1,1.16-10.28,5.37-8.39,2.31-7.88c2.13-7.28,3.58-14.74,4.34-22.29l.85-8.56-3.1,5.61c-2.34,4.23-5.16,8.19-8.39,11.79l-4.22,4.7-3.22,6.34-6.58,3.58-3.84,6.42-6.6,3.54-3.76,6.47-6.48,3.75-2.05,5.13-4.91,2.52-1.78,5.22-4.77,2.79-1.47,5.32-3.45,1.56.09,3.79-3.28,1.89.33,3.77-3.22,1.98-.3,4.88s-3.8,3.03-3.83,3.06c-.16.13-.5,3.59-.9,4.32-1.13,2.07-2.73,3.79-3.99,5.77-1.49,2.34-2.3,5.61-.55,7.77.82,1.02,2.08,1.6,3.37,1.84,1.21.23,2.41.19,3.59-.06Z"/>
      <path class="cls-4" d="m154.52,14.79s-18.09,13.05-20.94,15.52l-5.84,3.82-9.77,14.35-11.53,13.44-5.11,15.91-8.28,14.97-.87,2.55,1.53,3.06-3.14,2.06,1.63,3.02-3.08,2.13.52,8.54-3.44,8.09,2.74,8.24-.15,8.55,6.64,6.56-1.14,2.15,2.82-.29-.75,2.26,2.69-.75v2.34s2.1-1.45,2.1-1.45l.64,2.19,1.6-1.84,1.13,2.05,1.3-1.99,4.45,1.82,3.91-2.5,4.84.92,2.83-3.34,4.91-.55.64-3.53,4.04-1.28-.37-3.56,3.74-1.81-.83-3.5,4-2.82-.66-4.29,3.76-3.03-1.15-4.22,3.27-3.39-1.87-4.21,2.7-3.89-2.36-4.04,2.39-4.03-2.52-3.98,2.17-8.09-2.78-7.97,2.18-8.09-2.44-8.05,2.86-7.95-1.99-4.41,3.02-3.99-1.63-4.5,3.35-3.81c.02-8,8.23-23.34,8.23-23.34Z"/>
      <path class="cls-5" d="m122.36,127.6c-.65-2.68-3.28-7.5-3.28-7.5l.33-2.57s-1.34-4.32-2.03-7.2c-.81-3.4-1.37-6.86-1.64-10.34-.19-2.34-.36-7.97-.36-7.97l.86-6.23-.26-2.03.87-2.84s-.35-3.08-.41-4.04c-.07-1.28-.29-6.7,1.92-14.7-8.89,12.86-12.58,26.96-14.35,41.36.33,8.93,2.77,16.87,2.77,16.87,0,0-.68,2.12-1.02,3.18-.74,2.3-.41,4.84.45,7.1.86,2.26,2.23,4.28,3.62,6.26,2.37,3.4,5.52,5.65,9.06,7.79.47.28.95.57,1.44.81.48-1.58.41-3.33.25-4.97-.14-1.54.97-3.12,1.31-4.67.36-1.65.5-3.34.61-5.02.07-1.1.13-2.22-.13-3.29Z"/>
      <path class="cls-7" d="m109.82,136.94c-1.38-1.98-2.75-4-3.62-6.26-.86-2.26-1.19-4.8-.45-7.1.34-1.06,1.02-3.18,1.02-3.18,0,0-2.44-7.94-2.77-16.87-.98,7.93-1.37,15.96-1.73,23.92-.32,7.21-.35,14.41-.07,21.6.03.68.08,1.4.55,1.91.55.59,1.5.68,2.37.7,2.55.06,5.13-.19,7.65-.73,2.56-.55,5.25-1.54,6.7-3.58.4-.56.67-1.16.86-1.79-.5-.24-.97-.52-1.44-.81-3.54-2.14-6.69-4.4-9.06-7.79Z"/>
      <path class="cls-5" d="m36.25,87.89l4.22,14.56,9.57,11.77,7.63,13.11,11.64,9.73,1.32,4.14,4.19,1.15,1.73,3.99,4.17.5,1.95,3.7,4.17.48,3.52,5.65,3.47,2.06c-.98-2.96-2.09-5.88-3.32-8.75-.69-1.61-1.41-3.21-2.17-4.8-3.56-7.42-6.51-15.27-11.17-22.1-5.38-7.87-12.05-14.71-18.99-21.18-12.8-11.93-21.82-26.33-28.55-42.41,0,0,0,.04,0,.08,0,.02,0,.06,0,.09,0,.04,0,.1,0,.17,0,.05,0,.1,0,.16,0,.09,0,.21,0,.33,0,.05,0,.09,0,.15,0,.18,0,.39.01.62,0,.06,0,.13,0,.2,0,.18,0,.38.01.58,0,.1,0,.2,0,.31,0,.2.01.41.02.62,0,.12,0,.23.01.36.01.3.02.62.03.96,0,.06,0,.11,0,.17.01.36.03.73.05,1.12,0,.05,0,.11,0,.16.21,4.56,1.17,9.06,2.86,13.31l3.59,9.03Z"/>
      <path class="cls-7" d="m127.82,160.3l11.14-.64,9.88-5.16,10.91-2.34,8.39-7.1,9.81-4.93,6.53-8.85,8.91-6.43c2.12-3.66,6.9-6.28,8.81-9.7-6.24,5.74-17.19,11.71-38.6,18.65-10.22,3.31-20.56,6.58-29.99,11.82-6.33,3.52-12.16,7.91-17.31,13-1.73,1.71-3.38,3.51-4.94,5.37l6.06.3,10.42-3.98Z"/>
      <path class="cls-3" d="m88.12,173.82c.15-.86.65-1.65,1.14-2.39,1.75-2.65,3.59-5.26,4.96-8.12,2.37-4.96,3.26-10.56,5.97-15.34,2.54-4.48,6.51-7.96,9.43-12.2,2.93-4.25,4.79-9.24,8.28-13.04,2.94-3.21,6.88-5.4,9.75-8.68,2.48-2.83,4.05-6.36,6.49-9.22,2.39-2.81,5.55-4.89,7.95-7.69,3.46-4.04,5.13-9.3,7.95-13.81,1.66-2.66,3.68-5.08,5.36-7.73,1.83-2.89,2.47-5.52,3.16-8.76,1.5,5.5.44,12.92-.08,18.56-2.24,24.47-11.83,48.84-24.94,69.5-4.35,6.86-8.94,13.54-15.6,18.42-7.45,5.47-17.48,8.18-26.12,4.92-1.76-.66-3.67-1.9-3.74-3.78,0-.21,0-.43.05-.63Z"/>
      <path class="cls-7" d="m110.63,163.67c0-5.07-1.23-10.49-2.05-14.25-2.06-9.44-5.55-18.49-9.04-27.48-2.76-7.13-5.53-14.26-8.29-21.39-1.6-4.13-3.21-8.29-4.04-12.64-.53-2.81-.74-5.71-1.72-8.4-1.43-3.9-4.49-7.6-3.69-11.68.19-.95.59-1.89.45-2.85-.23-1.63-1.91-2.73-2.27-4.34-.43-1.89,1.08-3.82.7-5.72-.34-1.65-2.02-2.81-2.25-4.49-.25-1.86.85-3.35.51-5.28-.48-2.79-1.77-5.33-2.16-8.18-.61-4.48.27-8.84.9-13.26,0,0-6.12,10.98-8.88,21.61-3.94,15.15-4.69,31.03-4.33,46.7.28,12.27,1.84,24.51,4.38,36.51,2.39,11.34,5.11,23.27,10.44,33.64,3.66,7.12,9.98,13.42,17.89,14.68,3.53.56,7.47-.05,10.01-2.56,2.59-2.56,3.43-6.47,3.44-10.62Z"/>
      <path class="cls-3" d="m96.41,168.07c-.7-3.17-1.57-6.28-2.58-9.34l-3.47-2.06-3.52-5.65-4.17-.48-1.95-3.7-4.17-.5-1.73-3.99-4.19-1.15-1.32-4.14-11.64-9.73-7.63-13.11-9.57-11.77-4.22-14.56-3.59-9.03c-1.69-4.24-2.65-8.75-2.86-13.31.09,2.05.23,4.51.44,7.22.4,5.18,1.06,11.27,2.15,17.1,1.96,10.52,4.95,20.82,8.33,30.96,3.25,9.77,7.28,19.03,13,27.65,4.65,7.01,10.52,13.87,17.49,18.68,5.73,3.95,12.24,6.97,19.2,7.85,1.22.15,2.48.24,3.65-.12,3.1-.95,2.92-4.23,2.34-6.83Z"/>
      <path class="cls-3" d="m193.38,124.84l-8.91,6.43-6.53,8.85-9.81,4.93-8.39,7.1-10.91,2.34-9.88,5.16-11.14.64c-.11.04-.23.09-.34.13-2.65,1.01-11.37,4.34-11.37,4.34l-7.69,1.39s-5.34,3.4-9.72,4.64-9.2.73-10.99.32c6.78,7.73,16.68,12.61,27.06,12.11,3.16-.15,6.37-.71,9.48-1.27,3.37-.61,6.71-1.4,10.02-2.32,4.02-1.12,7.94-2.47,11.61-3.89,10.64-4.11,20.05-10.99,28.57-18.46,9.95-8.73,17.18-19.3,23.29-30.96.88-1.68,1.71-3.3,2.37-5.08.75-2.02,2.09-6.11,2.08-6.1-1.91,3.43-6.69,6.04-8.81,9.7Z"/>
      <path class="cls-1" d="m14.88,110.38c5.78,1.56,11.65,4.48,14.5,8.28l5.91,7.9,8.38,5.22,5.41,8.26,10.6,7.57,8.4,9.96,11.55,6,10.29,7.98,12.86,2.36,5.47,3.39s6.28-.88,6.42-.9c1.1-.16,1.79.8,2.56,1.38,1.04.78,2.28,1.25,3.56,1.49,2.92.55,6.78,1.25,9.71,1.34,0,0-16.24,8.07-38.02,5.99-17.66-1.68-32.12-11.71-43.74-24.89-4.51-5.11-13.98-18.28-17.16-24.33-3.33-6.3-6.54-12.69-10.63-18.55-1.9-2.73-6.08-8.46-6.08-8.46Z"/>
      <path class="cls-6" d="m169.29,131.88l4.76-5.66,2.09-8.58,7.22-8.1,1.16-10.28,5.37-8.39,2.31-7.88c2.13-7.28,3.58-14.74,4.34-22.29l.85-8.56-3.1,5.61c-2.34,4.23-5.16,8.19-8.39,11.79l-4.22,4.7-3.22,6.34-6.58,3.58-3.84,6.42-6.6,3.54-3.76,6.47-1.77,1.02c1.18-5.38,2.06-10.8,2.55-16.23.52-5.64,1.58-13.06.08-18.56-.69,3.24-1.33,5.88-3.16,8.76-1.68,2.65-3.7,5.06-5.36,7.73-2.69,4.31-4.34,9.27-7.49,13.23l-.98-1.55,2.17-8.09-2.78-7.97,2.18-8.09-2.44-8.05,2.86-7.95-1.99-4.41,3.02-3.99-1.63-4.5,3.35-3.81c.02-8,8.23-23.34,8.23-23.34,0,0-18.09,13.05-20.94,15.52l-5.84,3.82-9.77,14.35-11.53,13.44-5.11,15.91-8.28,14.97-.87,2.55,1.53,3.06-2.63,1.72c-1.55-3.99-3.07-8.01-3.87-12.21-.53-2.81-.74-5.71-1.72-8.4-1.43-3.9-4.49-7.6-3.69-11.67.19-.95.59-1.89.45-2.85-.23-1.63-1.91-2.73-2.27-4.34-.43-1.89,1.08-3.82.7-5.72-.34-1.65-2.02-2.81-2.25-4.49-.25-1.86.85-3.35.51-5.28-.48-2.79-1.77-5.33-2.16-8.18-.61-4.48.27-8.84.9-13.26,0,0-6.12,10.98-8.88,21.61-3.94,15.15-4.69,31.03-4.33,46.7.13,5.76.56,11.51,1.22,17.23-2.44-2.52-4.96-4.96-7.52-7.34-12.8-11.93-21.82-26.33-28.55-42.41,0,0,0,.04,0,.08,0,.02,0,.06,0,.09,0,.04,0,.1,0,.17,0,.05,0,.1,0,.16,0,.09,0,.21,0,.33,0,.05,0,.09,0,.15,0,.18,0,.39.01.62,0,.06,0,.13,0,.2,0,.18,0,.38.01.58,0,.1,0,.2,0,.31,0,.2.01.41.02.62,0,.12,0,.23.01.36.01.3.02.62.03.96,0,.06,0,.11,0,.17.01.36.03.73.05,1.12,0,.05,0,.11,0,.16.09,2.05.23,4.51.44,7.22.4,5.18,1.06,11.27,2.15,17.1,1.96,10.52,4.95,20.82,8.33,30.96,1.93,5.82,4.16,11.46,6.84,16.89l-3.9-5.95-8.38-5.22s-5.91-7.9-5.91-7.9c-2.84-3.8-8.72-6.72-14.5-8.28,0,0,4.18,5.73,6.08,8.46,4.08,5.86,7.3,12.25,10.62,18.55,3.19,6.05,12.66,19.21,17.16,24.33,11.62,13.18,26.08,23.2,43.74,24.89,21.77,2.08,38.02-5.99,38.02-5.99,0,0-.02,0-.02,0,1.27-.31,2.53-.64,3.79-.99,4.02-1.12,7.94-2.47,11.61-3.89,10.64-4.11,20.05-10.99,28.57-18.46,9.95-8.73,17.18-19.3,23.29-30.96.88-1.68,1.71-3.3,2.37-5.08.75-2.02,2.09-6.11,2.08-6.1-5.66,5.2-15.2,10.61-32.9,16.75Z"/>
    </g>
  </g>
</svg>