<?xml version="1.0" encoding="UTF-8"?>
<svg xmlns="http://www.w3.org/2000/svg" viewBox="0 0 172.83 222.59">
  <defs>
    <style>
      .cls-1 {
        opacity: .18;
      }

      .cls-2 {
        fill: #008d4a;
      }

      .cls-2, .cls-3, .cls-4, .cls-5, .cls-6, .cls-7, .cls-8, .cls-9 {
        stroke-width: 0px;
      }

      .cls-10 {
        isolation: isolate;
      }

      .cls-3 {
        fill: #3779b6;
      }

      .cls-3, .cls-9 {
        mix-blend-mode: hard-light;
        opacity: .8;
      }

      .cls-4 {
        fill: #e8553d;
      }

      .cls-5 {
        fill: #e64228;
      }

      .cls-6 {
        fill: #fff;
      }

      .cls-7 {
        fill: #eab520;
      }

      .cls-8 {
        fill: #33a46e;
      }

      .cls-9 {
        fill: #4b87bd;
      }
    </style>
  </defs>
  <g class="cls-10">
    <g id="Layer_2" data-name="Layer 2">
      <g id="Blancos">
        <path class="cls-6" d="m169.47,92.68c3.62-19.62,4.32-38.77,2.11-56.91l-.04-.34c-.25-2.09-.63-5.25-1.55-8.38-3.08-10.52-10.88-14.26-17.16-14.26-4.03,0-9.96,1.46-15.4,8.39-6.4,8.16-12.09,16.77-16.92,25.52-.4-1.62-1.04-3.19-1.93-4.65-1.32-2.17-2.93-3.79-4.52-4.99-.12-1.89-.55-3.74-1.29-5.5-2.79-6.67-8.99-10.81-16.17-10.81-5.54,0-10.38,2.47-13.82,5.15-.74-.14-1.49-.23-2.26-.27-1.14-2.23-2.78-4.18-4.81-5.69-.07-.05-.14-.1-.21-.15-1.98-2.83-4.43-4.47-6.49-5.42-1.01-.46-2.04-.82-3.11-1.06-.57-1.96-1.38-3.57-2.17-4.8-2.55-4.08-6.58-6.87-11.34-7.86-1.12-.23-2.26-.35-3.4-.35-1.39,0-2.76.18-4.08.51-1.69-.53-3.46-.81-5.22-.81-7.46,0-14.06,4.76-16.46,11.92-.35,1.07-.6,2.17-.73,3.25-.12.97-.16,1.9-.14,2.78-1.69,2.58-2.66,5.59-2.81,8.79-.26,5.38,2.11,10.48,6.16,13.81-.77,2.35-1.07,4.84-.81,7.34.45,4.48,2.58,8.4,5.84,11.18,0,.21,0,.42,0,.63,0,1.27.17,2.53.46,3.76-.05.07-.09.13-.14.2-4.76,6.83-4.79,15.19-.1,21.29,2.9,3.77,7.19,6.1,11.98,6.54.06.07.12.13.17.2,3.17,3.58,7.71,5.64,12.44,5.64.08,0,.18,0,.25,0,1.99-.03,4.39-.41,6.87-1.6.07.1.15.19.22.29.36.46.73.9,1.13,1.32.28,2.57,1.02,5.16,2.4,7.54.07.11.13.23.2.34-14.46-4.04-30.43-6.35-46.61-6.62h-.55c-12.23,0-16.71,7.46-18.07,10.67-4.81,11.35,4.3,20.77,8.19,24.8l.24.25c12.69,13.16,28.01,24.67,45.51,34.23,12.16,6.64,25.31,13.12,40.54,13.12,5.21,0,10.44-.77,15.56-2.29,1.14.95,2.18,1.89,3.13,2.82,3.72,8.91,8.35,20.03,12.91,31.12,1.52,3.69,4.45,6.63,8.14,8.15,1.84.76,3.79,1.14,5.73,1.14s3.94-.39,5.79-1.16l6.79-2.84c3.7-1.55,6.63-4.51,8.12-8.23,1.5-3.72,1.45-7.88-.14-11.56-3.29-7.62-6.57-15.24-9.84-22.86-2.87-6.69-5.75-13.37-8.63-20.06-.05-2.31-.06-4.64-.06-6.77.02-2.18.04-4.41.07-6.68,19.43-13.84,23.4-35.36,26.05-49.75Z"/>
      </g>
      <g id="Productos">
        <g>
          <path class="cls-5" d="m37.46,16.98c-.05.15-.09.31-.11.47-.1.8.11,1.6.35,2.36.28.87.61,1.73,1.14,2.47s1.26,1.37,2.13,1.62c1.07.3,2.3-.02,3.09-.81.37-.37.65-.85.75-1.37.1-.55,0-1.11-.19-1.63-.47-1.2-1.46-2.1-2.33-3.06-.48-.53-.96-1.11-1.61-1.42-1.32-.63-2.79.07-3.22,1.37Z"/>
          <path class="cls-4" d="m49.31,15.7c-.8-.17-1.59.27-1.98.91-.38.62-.88,1.63-1.07,2.55-.31,1.48.05,2.77,1.75,3.62.3.15,2.02.44,2.85-.8.38-.56.53-1.13.65-1.79.27-1.47.02-2.51-.49-3.31-.16-.26-.53-.92-1.7-1.17Z"/>
          <path class="cls-5" d="m57.33,32.48c-.09-.57-.08-1.14.1-1.71.28-.87.98-1.57,1.79-1.99s1.75-.56,2.66-.55c.29,0,.58.02.84.14,1.18.55.78,2.57,1.86,3.3.63.43,1.54.23,2.16.68.33.25.52.66.59,1.07.17.98-.26,1.97-.85,2.77s-1.35,1.46-1.99,2.21c-.63.74-1.3,1.64-2.27,1.65-.74,0-1.77-.62-2.39-1.02-1.08-.7-1.25-2.29-1.57-3.45-.27-1-.76-2.05-.92-3.1Z"/>
          <path class="cls-4" d="m47.78,36.91c-.35-.32-.76-.58-1.23-.69-1.01-.25-2.05.34-2.41,1.3-.47,1.27.29,2.46.25,3.72-.04,1.18-1.21,1.34-2.13,1.75-2.29,1.02-3.97,4.85-.54,5.62,1,.22,2.19-.14,3.15.32,1.28.62-.08,2.56-.08,3.59,0,.81.95,3.01,2.06,2.22.8-.57,1.23-1.92,1.92-2.66.91-.99,1.96-1.58,3.11-2.24.63-.36,1.5-1.37,2.25-1.37.62-.5,1.13-1.13,1.49-1.84.5-.99.54-2.32.21-3.37-.47-1.5-1.66-1.72-3.03-2.12-1.2-.34-2.47-.73-3.27-1.69-.54-.64-.81-1.42-1.33-2.08-.13-.16-.27-.32-.42-.46Z"/>
          <path class="cls-5" d="m91.78,93.4c-.64-3.25-1.55-7.31-3.57-10.03-.09-2.16-1.64-4.7-4.01-5.3-4.18-1.04-10.23,2.06-10.11,7.05.02.73.18,1.49.63,2.06.57.73,1.51,1.04,2.38,1s1.69-.35,2.49-.67c.84-.33,1.7-.64,2.58-.84-.65,1.4-1.64,2.66-2.41,4.02-1.06,1.86-2.03,8.96,2.03,7.8,2.21-.64,2.24-3.11,2.25-4.96.02-3.22,2.99.16,3.23,1.7.19,1.21.51,2.64,1.65,3.09,1.09.43,2.36-.39,2.81-1.47s.3-2.31.07-3.46Z"/>
          <path class="cls-5" d="m48.08,58.43c-1.06.03-2.4.51-2.39,1.57,0,.34.16.66.35.94,1.84,2.65,6.43,1.88,8.35,4.47-.72,1.28-2.37,1.58-3.78,1.99-2.93.84-5.54,2.72-7.29,5.22-.74,1.06-1.3,2.55-.52,3.57.74.96,2.25.88,3.36.39,2.11-.93,3.67-2.94,5.89-3.56.45-.13.94-.19,1.39-.06,1.24.36,1.63,1.98,1.35,3.23s-1,2.4-1.16,3.68c-.16,1.28.61,2.85,1.9,2.83,1.09-.02,1.8-1.1,2.41-2.02,2.07-3.14,5.17-5.58,8.69-6.87.74-.27,1.54-.51,2.09-1.09,3.65-3.8-4.93-7.03-6.96-8.5-4.09-2.96-8.38-5.96-13.68-5.79Z"/>
          <path class="cls-5" d="m102.82,48.35c-2.53-.9-5.42-.84-7.87.27-.56.25-1.25.55-1.74.17-1.03-.79-.05-2.59.51-3.35,1.53-2.07,4.23-3.37,5.16-5.88.22-.59.27-1.27.03-1.85-1.58-3.77-7.14.1-8.6,1.95-1.14,1.45-1.91,3.13-2.56,4.85-.41,1.08-.66,3.8-2.22,3.82-2.23.02-3.63-4.64-4.42-6.15-.51-.97-1.41-1.71-2.33-.72-.7.75-1.07,2.34-.98,3.35.21,2.3,1.91,3.78,2.73,5.81.87,2.17,1.32,4.5,1.29,6.84,0,.79-.07,1.62.27,2.34,1.57,3.3,5.19.76,7.1-.76,2.7-2.14,5.38-5.28,8.89-6,2.29-.46,4.84.38,6.97-.75.35-.19.68-.45.83-.82.16-.41.07-.88-.16-1.26-.6-.99-1.88-1.48-2.91-1.85Z"/>
          <path class="cls-4" d="m34.5,27.83c-.04.82.51,1.53,1.2,1.82.68.28,1.75.62,2.68.66,1.51.07,2.73-.49,3.31-2.3.1-.32.12-2.06-1.24-2.69-.61-.28-1.2-.35-1.87-.36-1.49-.03-2.48.37-3.2,1-.23.2-.83.67-.89,1.87Z"/>
          <path class="cls-3" d="m37.46,16.98c-.05.15-.09.31-.11.47-.1.8.11,1.6.35,2.36.28.87.61,1.73,1.14,2.47s1.26,1.37,2.13,1.62c1.07.3,2.3-.02,3.09-.81.37-.37.65-.85.75-1.37.1-.55,0-1.11-.19-1.63-.47-1.2-1.46-2.1-2.33-3.06-.48-.53-.96-1.11-1.61-1.42-1.32-.63-2.79.07-3.22,1.37Z"/>
          <path class="cls-9" d="m49.31,15.7c-.8-.17-1.59.27-1.98.91-.38.62-.88,1.63-1.07,2.55-.31,1.48.05,2.77,1.75,3.62.3.15,2.02.44,2.85-.8.38-.56.53-1.13.65-1.79.27-1.47.02-2.51-.49-3.31-.16-.26-.53-.92-1.7-1.17Z"/>
          <path class="cls-3" d="m57.33,32.48c-.09-.57-.08-1.14.1-1.71.28-.87.98-1.57,1.79-1.99s1.75-.56,2.66-.55c.29,0,.58.02.84.14,1.18.55.78,2.57,1.86,3.3.63.43,1.54.23,2.16.68.33.25.52.66.59,1.07.17.98-.26,1.97-.85,2.77s-1.35,1.46-1.99,2.21c-.63.74-1.3,1.64-2.27,1.65-.74,0-1.77-.62-2.39-1.02-1.08-.7-1.25-2.29-1.57-3.45-.27-1-.76-2.05-.92-3.1Z"/>
          <path class="cls-9" d="m47.78,36.91c-.35-.32-.76-.58-1.23-.69-1.01-.25-2.05.34-2.41,1.3-.47,1.27.29,2.46.25,3.72-.04,1.18-1.21,1.34-2.13,1.75-2.29,1.02-3.97,4.85-.54,5.62,1,.22,2.19-.14,3.15.32,1.28.62-.08,2.56-.08,3.59,0,.81.95,3.01,2.06,2.22.8-.57,1.23-1.92,1.92-2.66.91-.99,1.96-1.58,3.11-2.24.63-.36,1.5-1.37,2.25-1.37.62-.5,1.13-1.13,1.49-1.84.5-.99.54-2.32.21-3.37-.47-1.5-1.66-1.72-3.03-2.12-1.2-.34-2.47-.73-3.27-1.69-.54-.64-.81-1.42-1.33-2.08-.13-.16-.27-.32-.42-.46Z"/>
          <path class="cls-3" d="m91.78,93.4c-.64-3.25-1.55-7.31-3.57-10.03-.09-2.16-1.64-4.7-4.01-5.3-4.18-1.04-10.23,2.06-10.11,7.05.02.73.18,1.49.63,2.06.57.73,1.51,1.04,2.38,1s1.69-.35,2.49-.67c.84-.33,1.7-.64,2.58-.84-.65,1.4-1.64,2.66-2.41,4.02-1.06,1.86-2.03,8.96,2.03,7.8,2.21-.64,2.24-3.11,2.25-4.96.02-3.22,2.99.16,3.23,1.7.19,1.21.51,2.64,1.65,3.09,1.09.43,2.36-.39,2.81-1.47s.3-2.31.07-3.46Z"/>
          <path class="cls-3" d="m48.08,58.43c-1.06.03-2.4.51-2.39,1.57,0,.34.16.66.35.94,1.84,2.65,6.43,1.88,8.35,4.47-.72,1.28-2.37,1.58-3.78,1.99-2.93.84-5.54,2.72-7.29,5.22-.74,1.06-1.3,2.55-.52,3.57.74.96,2.25.88,3.36.39,2.11-.93,3.67-2.94,5.89-3.56.45-.13.94-.19,1.39-.06,1.24.36,1.63,1.98,1.35,3.23s-1,2.4-1.16,3.68c-.16,1.28.61,2.85,1.9,2.83,1.09-.02,1.8-1.1,2.41-2.02,2.07-3.14,5.17-5.58,8.69-6.87.74-.27,1.54-.51,2.09-1.09,3.65-3.8-4.93-7.03-6.96-8.5-4.09-2.96-8.38-5.96-13.68-5.79Z"/>
          <path class="cls-3" d="m102.82,48.35c-2.53-.9-5.42-.84-7.87.27-.56.25-1.25.55-1.74.17-1.03-.79-.05-2.59.51-3.35,1.53-2.07,4.23-3.37,5.16-5.88.22-.59.27-1.27.03-1.85-1.58-3.77-7.14.1-8.6,1.95-1.14,1.45-1.91,3.13-2.56,4.85-.41,1.08-.66,3.8-2.22,3.82-2.23.02-3.63-4.64-4.42-6.15-.51-.97-1.41-1.71-2.33-.72-.7.75-1.07,2.34-.98,3.35.21,2.3,1.91,3.78,2.73,5.81.87,2.17,1.32,4.5,1.29,6.84,0,.79-.07,1.62.27,2.34,1.57,3.3,5.19.76,7.1-.76,2.7-2.14,5.38-5.28,8.89-6,2.29-.46,4.84.38,6.97-.75.35-.19.68-.45.83-.82.16-.41.07-.88-.16-1.26-.6-.99-1.88-1.48-2.91-1.85Z"/>
          <path class="cls-9" d="m34.5,27.83c-.04.82.51,1.53,1.2,1.82.68.28,1.75.62,2.68.66,1.51.07,2.73-.49,3.31-2.3.1-.32.12-2.06-1.24-2.69-.61-.28-1.2-.35-1.87-.36-1.49-.03-2.48.37-3.2,1-.23.2-.83.67-.89,1.87Z"/>
          <path class="cls-2" d="m38.84,22.2c.68,1.15,1.51,2.21,2.47,3.15.61.59,1.3,1.02,1.97,1.51s1.48.9,2.34.96c.85.06,1.57-.34,1.62-1.22.11-2.1-1.02-4.25-2.09-6.01-.18-.3-.38-.6-.58-.88-.16-.23-.57-.57-.65-.84.36,1.24.3,2.4.21,3.63-.57-.83-2.62-2.36-2.62-2.36.16,1.26.54,3.19.54,3.19,0,0-1.96-.12-3.22-1.13Z"/>
          <path class="cls-2" d="m58.21,35.45c1.13.83,1.91,2.59,1.91,2.59.14-.03,1.16-1.93,1.59-2.74.41,1.23.59,2.53.54,3.82.8-.62,1.77-1.24,2.78-1.32,0,0-.85.93-1.29,2.09-.35.92-.23,1.96-.85,2.78-.34.45-.88.74-1.44.79s-1.14-.16-1.55-.54c-.17-.16-.31-.35-.45-.55-.73-1.07-1.25-2.77-1.02-5.2.05-.57-.22-1.72-.22-1.72Z"/>
          <path class="cls-2" d="m85.02,85.27c.51,1.13,1.54,2,2.74,2.33.55.15,1.24.15,1.61-.29.17-.2.24-.45.29-.71.25-1.27-.15-2.64-1.03-3.59-.64-.69-2.36-1.75-3.37-1.31s-.61,2.74-.24,3.56Z"/>
          <path class="cls-2" d="m47.92,24.81c20.98,24.62,40.7,50.85,55.97,79.53,15.17,32.63,29.06,65.7,43.31,98.71.49,1.14-.04,2.46-1.18,2.94l-2.31.97c-1.47.62-2.78.07-3.25-1.07-6.27-15.22-12.61-30.42-18.98-45.61-7.1-16.84-14.12-33.74-21.54-50.39-3.15-6.74-6.9-13.15-10.65-19.58-13-22.22-28.63-42.67-44.99-62.53,0,0,3.62-2.96,3.62-2.96h0Z"/>
          <path class="cls-8" d="m118.4,95.98c3.75-23.64,16.96-47.52,30.81-65.17,5.87-7.48,6.94,2.85,7.46,7.16,2.13,17.4,1.2,35.16-1.97,52.37-3.02,16.37-6.63,31.53-21.34,41.17-1.5.98-3.16,2.01-4.95,1.83-7.05-.7-10.19-12.01-10.74-17.73-.62-6.43-.31-13.02.73-19.63Z"/>
          <path class="cls-2" d="m147.51,43.56c-4.15,25.42-14.84,49.48-18.06,75.07-.91,10.2-1.03,20.57-1.11,30.83.02,5.13.02,10.32.46,15.33l-2.76.26c-.35-5.29-.21-10.43-.12-15.61.32-10.37.67-20.67,1.84-31,3.79-25.66,15.02-49.45,19.76-74.87h0Z"/>
          <path class="cls-2" d="m123.26,96.46c-.39,5.82.24,11.87,2.69,17.19.92,1.65,2.07,3.27,3.3,4.71l-.96-.3c3.59-1.12,7.35-2.48,10.18-5.03,3.61-3.54,6.59-7.68,9.03-12.12-1.85,5.41-4.89,10.68-9.21,14.51-2.84,2.15-6.11,3.5-9.52,4.47,0,0-.59.16-.59.16-2.1-2.55-4.13-5.31-4.89-8.59-1.14-4.91-1.42-10.14-.05-15.01h0Z"/>
          <path class="cls-2" d="m129.11,73.96c-.56,6.88.46,14.58,5.29,19.81,0,0-.72-.22-.72-.22,3.25-1.01,6.66-2.26,9.22-4.58,3.23-3.2,5.92-6.95,8.04-10.99-1.75,4.83-4.48,9.53-8.37,12.95-2.54,1.91-5.48,3.12-8.52,3.99,0,0-.44.12-.44.12-1.86-2.25-3.65-4.71-4.33-7.6-1.05-4.4-1.31-9.08-.16-13.48h0Z"/>
          <path class="cls-2" d="m135.78,55.04c-.62,6.17.25,12.99,4.58,17.71,0,0-.48-.15-.48-.15,2.51-.75,5.04-1.73,7.2-3.24,3.46-2.75,5.73-6.88,6.94-11.11-.73,4.45-2.92,8.87-6.42,11.8-2.23,1.65-4.82,2.7-7.47,3.47,0,0-.29.08-.29.08l-.19-.23c-4.44-4.87-5.2-12.1-3.86-18.34h0Z"/>
          <path class="cls-2" d="m141.89,44.32c-.39,3.13-.06,6.48,1.21,9.35.49.92,1.12,1.79,1.79,2.59l-.24-.07c2.23-.69,4.59-1.56,6.14-3.4,1.57-1.8,2.74-3.98,3.32-6.31-.89,5.14-4.2,8.96-9.34,10.16,0,0-.14.04-.14.04l-.09-.11c-2.97-3.28-3.48-8.05-2.65-12.24h0Z"/>
          <path class="cls-8" d="m89.74,131.1c-20.72-11.99-47.58-16.78-70.01-17.15-9.51-.16-2.15,7.18.85,10.3,12.17,12.61,26.54,23.09,41.9,31.47,14.61,7.97,28.66,14.72,45.41,9.37,1.71-.55,3.56-1.19,4.54-2.69,3.9-5.92-2.9-15.48-7-19.51-4.6-4.54-9.91-8.45-15.7-11.8Z"/>
          <path class="cls-2" d="m30.69,120.67c22.9,12.44,48.69,18.73,71.12,32.17,11.09,6.8,22.93,13.46,31.04,23.97,1.61,2.16,2.99,4.57,3.87,7.23l-2.65.82c-.7-2.29-1.87-4.49-3.33-6.53-7.69-10.4-19.12-17.11-29.86-24.05-22.02-13.84-47.67-20.71-70.2-33.62h0Z"/>
          <path class="cls-2" d="m87.05,135.18c4.65,2.01,8.54,5.52,11.63,9.5,2.07,2.66,2.94,5.97,3.59,9.21,0,0-.49.36-.49.36-2.9,2.03-6.01,3.72-9.47,4.57-5.69.94-11.7-.02-17.07-1.99,4.98.9,10.08,1.19,15.1.62,3.76-.6,7.2-2.66,10.32-4.74,0,0-.38.93-.38.93-.57-2.76-1.28-5.65-2.92-7.98-2.8-4.08-6.2-7.69-10.32-10.48h0Z"/>
          <path class="cls-2" d="m65.89,125.54c4.14,1.88,7.61,5.03,10.37,8.62,1.82,2.35,2.59,5.29,3.17,8.15,0,0-.37.27-.37.27-2.59,1.81-5.38,3.34-8.47,4.1-5.11.86-10.48.02-15.33-1.66,4.47.9,9.08,1.17,13.6.68,3.41-.52,6.53-2.38,9.36-4.27,0,0-.28.7-.28.7-.52-2.51-1.17-5.12-2.67-7.23-2.54-3.66-5.63-6.91-9.38-9.35h0Z"/>
          <path class="cls-2" d="m47,118.8c5.69,2.89,10.82,8.04,11.8,14.55,0,0,.06.29.06.29l-.25.18c-2.27,1.58-4.71,2.92-7.4,3.62-4.49.87-9.29-.21-13.21-2.45,4.04,1.73,8.68,2.57,13,1.61,2.53-.73,4.89-2.07,7.05-3.54l-.19.47c-.94-6.34-5.69-11.31-10.87-14.72h0Z"/>
          <path class="cls-2" d="m34.82,116.79c3.83,2.02,7.22,5.49,7.86,9.92-1.03.76-2.14,1.38-3.31,1.9-3.36,1.56-7.45.74-10.59-.96,2.17,1.01,4.6,1.48,6.99,1.39,2.4-.04,4.56-1.32,6.51-2.62,0,0-.09.23-.09.23-.63-4.26-3.85-7.61-7.37-9.86h0Z"/>
          <path class="cls-2" d="m63.31,75.44c1.93-.72,4.53-1.42,6.59-1.49,1.98-.07,3.99.17,5.94-.2,1.45-.27,3.07-1.19,3.11-2.67.02-.65-.28-1.28-.7-1.78-1.73-2.06-4.83-1.99-7.25-2.3-2.96-.38-5.85-1.21-8.56-2.45,1.49,1.53,3.1,2.96,4.8,4.27-2.29-.18-5.44,1.28-5.44,1.28,2.36.29,5.08,1.28,5.08,1.28-1.73,1.27-3.57,4.05-3.57,4.05Z"/>
          <path class="cls-8" d="m81.47,53.76c0,2.07-.28,4.74-.95,6.69-.64,1.88-1.58,3.67-1.93,5.62-.26,1.46.02,3.29,1.39,3.86.6.25,1.3.19,1.91-.02,2.54-.89,3.57-3.81,4.72-5.96,1.4-2.63,3.21-5.05,5.33-7.14-1.96.85-3.87,1.85-5.69,2.97.98-2.08.74-5.54.74-5.54-1.11,2.11-3,4.3-3,4.3-.58-2.07-2.52-4.77-2.52-4.77Z"/>
          <path class="cls-8" d="m80.77,96.91c1.75.37,3.45.97,5.05,1.76-1.48.94-3.07,1.69-4.73,2.25,2.26.57,4.68.48,6.89-.25l-3.74,3.27s3.43-.5,4.33-.76c1.36-.39,2.99-.88,4.16-1.73,1.64-1.19,3.95-3.34,3.25-5.28-2.17-6-11.66-1.32-15.21.74Z"/>
          <path class="cls-8" d="m48.54,42.38c1.45.59,2.89,1.35,4.29,2.27-1.03.56-2.18.94-3.41,1.15,1.89.83,2.7,1.72,4.35,1.45l-3.4,1.83s3.88.08,4.56,0c1.02-.12,3.05-.5,3.84-1.02,1.12-.74,2.62-2.19,1.76-3.93-2.66-5.38-9.48-2.93-11.99-1.75Z"/>
          <path class="cls-8" d="m97.62,79.56c-.67-.63-1.49-1.23-2.36-1.54-.45-.16-.96-.22-1.42-.07-1.04.34-1.78,1.79-2.23,2.72-.81,1.66-1.08,3.58-.75,5.4.29,1.59,1.16,4.06,3.03,4.3,2.73.35,4.43-1.66,5.27-4.02.35-.98.84-2.32.56-3.34-.37-1.36-1.1-2.52-2.09-3.45Z"/>
          <path class="cls-8" d="m46.26,19.16c-.28,1.14-.41,2.32-.37,3.5.03,1.25.3,2.6,1.24,3.43.46.41,1.13.66,1.71.44.46-.18.76-.61,1.01-1.04.95-1.61,1.52-3.44,1.66-5.3-.53,1.01-1.29,1.69-2.1,2.41.15-.87-.2-3.1-.2-3.1-.67.89-1.62,2.34-1.62,2.34,0,0-1.16-1.28-1.33-2.68Z"/>
          <path class="cls-8" d="m38.38,30.31c1.17.1,2.36.04,3.51-.18,1.23-.23,2.52-.7,3.19-1.76.33-.52.48-1.22.17-1.76-.25-.43-.72-.66-1.18-.84-1.74-.68-3.63-.96-5.5-.81,1.08.37,1.87,1.01,2.71,1.7-.88-.01-3.03.68-3.03.68.99.52,2.56,1.24,2.56,1.24,0,0-1.08,1.35-2.44,1.73Z"/>
          <g class="cls-1">
            <path class="cls-7" d="m38.84,22.2c.68,1.15,1.51,2.21,2.47,3.15.61.59,1.3,1.02,1.97,1.51s1.48.9,2.34.96c.85.06,1.57-.34,1.62-1.22.11-2.1-1.02-4.25-2.09-6.01-.18-.3-.38-.6-.58-.88-.16-.23-.57-.57-.65-.84.36,1.24.3,2.4.21,3.63-.57-.83-2.62-2.36-2.62-2.36.16,1.26.54,3.19.54,3.19,0,0-1.96-.12-3.22-1.13Z"/>
            <path class="cls-7" d="m58.21,35.45c1.13.83,1.91,2.59,1.91,2.59.14-.03,1.16-1.93,1.59-2.74.41,1.23.59,2.53.54,3.82.8-.62,1.77-1.24,2.78-1.32,0,0-.85.93-1.29,2.09-.35.92-.23,1.96-.85,2.78-.34.45-.88.74-1.44.79s-1.14-.16-1.55-.54c-.17-.16-.31-.35-.45-.55-.73-1.07-1.25-2.77-1.02-5.2.05-.57-.22-1.72-.22-1.72Z"/>
            <path class="cls-7" d="m85.02,85.27c.51,1.13,1.54,2,2.74,2.33.55.15,1.24.15,1.61-.29.17-.2.24-.45.29-.71.25-1.27-.15-2.64-1.03-3.59-.64-.69-2.36-1.75-3.37-1.31s-.61,2.74-.24,3.56Z"/>
            <path class="cls-7" d="m118.4,95.98c3.75-23.64,16.96-47.52,30.81-65.17,5.87-7.48,6.94,2.85,7.46,7.16,2.13,17.4,1.2,35.16-1.97,52.37-3.02,16.37-6.63,31.53-21.34,41.17-1.5.98-3.16,2.01-4.95,1.83-7.05-.7-10.19-12.01-10.74-17.73-.62-6.43-.31-13.02.73-19.63Z"/>
            <path class="cls-7" d="m147.51,43.56c-4.15,25.42-14.84,49.48-18.06,75.07-.91,10.2-1.03,20.57-1.11,30.83.02,5.13.02,10.32.46,15.33l-2.76.26c-.35-5.29-.21-10.43-.12-15.61.32-10.37.67-20.67,1.84-31,3.79-25.66,15.02-49.45,19.76-74.87h0Z"/>
            <path class="cls-7" d="m123.26,96.46c-.39,5.82.24,11.87,2.69,17.19.92,1.65,2.07,3.27,3.3,4.71l-.96-.3c3.59-1.12,7.35-2.48,10.18-5.03,3.61-3.54,6.59-7.68,9.03-12.12-1.85,5.41-4.89,10.68-9.21,14.51-2.84,2.15-6.11,3.5-9.52,4.47,0,0-.59.16-.59.16-2.1-2.55-4.13-5.31-4.89-8.59-1.14-4.91-1.42-10.14-.05-15.01h0Z"/>
            <path class="cls-7" d="m129.11,73.96c-.56,6.88.46,14.58,5.29,19.81,0,0-.72-.22-.72-.22,3.25-1.01,6.66-2.26,9.22-4.58,3.23-3.2,5.92-6.95,8.04-10.99-1.75,4.83-4.48,9.53-8.37,12.95-2.54,1.91-5.48,3.12-8.52,3.99,0,0-.44.12-.44.12-1.86-2.25-3.65-4.71-4.33-7.6-1.05-4.4-1.31-9.08-.16-13.48h0Z"/>
            <path class="cls-7" d="m135.78,55.04c-.62,6.17.25,12.99,4.58,17.71,0,0-.48-.15-.48-.15,2.51-.75,5.04-1.73,7.2-3.24,3.46-2.75,5.73-6.88,6.94-11.11-.73,4.45-2.92,8.87-6.42,11.8-2.23,1.65-4.82,2.7-7.47,3.47,0,0-.29.08-.29.08l-.19-.23c-4.44-4.87-5.2-12.1-3.86-18.34h0Z"/>
            <path class="cls-7" d="m141.89,44.32c-.39,3.13-.06,6.48,1.21,9.35.49.92,1.12,1.79,1.79,2.59l-.24-.07c2.23-.69,4.59-1.56,6.14-3.4,1.57-1.8,2.74-3.98,3.32-6.31-.89,5.14-4.2,8.96-9.34,10.16,0,0-.14.04-.14.04l-.09-.11c-2.97-3.28-3.48-8.05-2.65-12.24h0Z"/>
            <path class="cls-7" d="m89.74,131.1c-20.72-11.99-47.58-16.78-70.01-17.15-9.51-.16-2.15,7.18.85,10.3,12.17,12.61,26.54,23.09,41.9,31.47,14.61,7.97,28.66,14.72,45.41,9.37,1.71-.55,3.56-1.19,4.54-2.69,3.9-5.92-2.9-15.48-7-19.51-4.6-4.54-9.91-8.45-15.7-11.8Z"/>
            <path class="cls-7" d="m30.69,120.67c22.9,12.44,48.69,18.73,71.12,32.17,11.09,6.8,22.93,13.46,31.04,23.97,1.61,2.16,2.99,4.57,3.87,7.23l-2.65.82c-.7-2.29-1.87-4.49-3.33-6.53-7.69-10.4-19.12-17.11-29.86-24.05-22.02-13.84-47.67-20.71-70.2-33.62h0Z"/>
            <path class="cls-7" d="m87.05,135.18c4.65,2.01,8.54,5.52,11.63,9.5,2.07,2.66,2.94,5.97,3.59,9.21,0,0-.49.36-.49.36-2.9,2.03-6.01,3.72-9.47,4.57-5.69.94-11.7-.02-17.07-1.99,4.98.9,10.08,1.19,15.1.62,3.76-.6,7.2-2.66,10.32-4.74,0,0-.38.93-.38.93-.57-2.76-1.28-5.65-2.92-7.98-2.8-4.08-6.2-7.69-10.32-10.48h0Z"/>
            <path class="cls-7" d="m65.89,125.54c4.14,1.88,7.61,5.03,10.37,8.62,1.82,2.35,2.59,5.29,3.17,8.15,0,0-.37.27-.37.27-2.59,1.81-5.38,3.34-8.47,4.1-5.11.86-10.48.02-15.33-1.66,4.47.9,9.08,1.17,13.6.68,3.41-.52,6.53-2.38,9.36-4.27,0,0-.28.7-.28.7-.52-2.51-1.17-5.12-2.67-7.23-2.54-3.66-5.63-6.91-9.38-9.35h0Z"/>
            <path class="cls-7" d="m47,118.8c5.69,2.89,10.82,8.04,11.8,14.55,0,0,.06.29.06.29l-.25.18c-2.27,1.58-4.71,2.92-7.4,3.62-4.49.87-9.29-.21-13.21-2.45,4.04,1.73,8.68,2.57,13,1.61,2.53-.73,4.89-2.07,7.05-3.54l-.19.47c-.94-6.34-5.69-11.31-10.87-14.72h0Z"/>
            <path class="cls-7" d="m34.82,116.79c3.83,2.02,7.22,5.49,7.86,9.92-1.03.76-2.14,1.38-3.31,1.9-3.36,1.56-7.45.74-10.59-.96,2.17,1.01,4.6,1.48,6.99,1.39,2.4-.04,4.56-1.32,6.51-2.62,0,0-.09.23-.09.23-.63-4.26-3.85-7.61-7.37-9.86h0Z"/>
            <path class="cls-7" d="m63.31,75.44c1.93-.72,4.53-1.42,6.59-1.49,1.98-.07,3.99.17,5.94-.2,1.45-.27,3.07-1.19,3.11-2.67.02-.65-.28-1.28-.7-1.78-1.73-2.06-4.83-1.99-7.25-2.3-2.96-.38-5.85-1.21-8.56-2.45,1.49,1.53,3.1,2.96,4.8,4.27-2.29-.18-5.44,1.28-5.44,1.28,2.36.29,5.08,1.28,5.08,1.28-1.73,1.27-3.57,4.05-3.57,4.05Z"/>
            <path class="cls-7" d="m81.47,53.76c0,2.07-.28,4.74-.95,6.69-.64,1.88-1.58,3.67-1.93,5.62-.26,1.46.02,3.29,1.39,3.86.6.25,1.3.19,1.91-.02,2.54-.89,3.57-3.81,4.72-5.96,1.4-2.63,3.21-5.05,5.33-7.14-1.96.85-3.87,1.85-5.69,2.97.98-2.08.74-5.54.74-5.54-1.11,2.11-3,4.3-3,4.3-.58-2.07-2.52-4.77-2.52-4.77Z"/>
            <path class="cls-7" d="m80.77,96.91c1.75.37,3.45.97,5.05,1.76-1.48.94-3.07,1.69-4.73,2.25,2.26.57,4.68.48,6.89-.25l-3.74,3.27s3.43-.5,4.33-.76c1.36-.39,2.99-.88,4.16-1.73,1.64-1.19,3.95-3.34,3.25-5.28-2.17-6-11.66-1.32-15.21.74Z"/>
            <path class="cls-7" d="m48.54,42.38c1.45.59,2.89,1.35,4.29,2.27-1.03.56-2.18.94-3.41,1.15,1.89.83,2.7,1.72,4.35,1.45l-3.4,1.83s3.88.08,4.56,0c1.02-.12,3.05-.5,3.84-1.02,1.12-.74,2.62-2.19,1.76-3.93-2.66-5.38-9.48-2.93-11.99-1.75Z"/>
            <path class="cls-7" d="m97.62,79.56c-.67-.63-1.49-1.23-2.36-1.54-.45-.16-.96-.22-1.42-.07-1.04.34-1.78,1.79-2.23,2.72-.81,1.66-1.08,3.58-.75,5.4.29,1.59,1.16,4.06,3.03,4.3,2.73.35,4.43-1.66,5.27-4.02.35-.98.84-2.32.56-3.34-.37-1.36-1.1-2.52-2.09-3.45Z"/>
            <path class="cls-7" d="m46.26,19.16c-.28,1.14-.41,2.32-.37,3.5.03,1.25.3,2.6,1.24,3.43.46.41,1.13.66,1.71.44.46-.18.76-.61,1.01-1.04.95-1.61,1.52-3.44,1.66-5.3-.53,1.01-1.29,1.69-2.1,2.41.15-.87-.2-3.1-.2-3.1-.67.89-1.62,2.34-1.62,2.34,0,0-1.16-1.28-1.33-2.68Z"/>
            <path class="cls-7" d="m38.38,30.31c1.17.1,2.36.04,3.51-.18,1.23-.23,2.52-.7,3.19-1.76.33-.52.48-1.22.17-1.76-.25-.43-.72-.66-1.18-.84-1.74-.68-3.63-.96-5.5-.81,1.08.37,1.87,1.01,2.71,1.7-.88-.01-3.03.68-3.03.68.99.52,2.56,1.24,2.56,1.24,0,0-1.08,1.35-2.44,1.73Z"/>
            <g>
              <path class="cls-7" d="m120.69,141.64c.83,1.89,1.65,3.78,2.47,5.67-.82-1.89-1.65-3.78-2.47-5.67Z"/>
              <path class="cls-7" d="m115.17,129.16c.79,1.77,1.57,3.55,2.35,5.32-.78-1.77-1.56-3.55-2.35-5.32Z"/>
              <path class="cls-7" d="m126.15,154.15c.89,2.05,1.77,4.09,2.66,6.14-.88-2.05-1.77-4.1-2.66-6.14Z"/>
              <path class="cls-7" d="m131.58,166.71c1.01,2.35,2.02,4.71,3.04,7.06-1.01-2.35-2.02-4.71-3.04-7.06Z"/>
              <path class="cls-7" d="m109.58,116.73c.67,1.48,1.33,2.97,2,4.45-.67-1.48-1.33-2.97-2-4.45Z"/>
              <path class="cls-7" d="m131.2,183.52c-3.23-7.75-6.47-15.5-9.72-23.25,3.25,7.74,6.49,15.49,9.72,23.25Z"/>
              <path class="cls-7" d="m47.92,24.81s-3.62,2.96-3.62,2.96c16.36,19.86,31.99,40.31,44.99,62.53,3.74,6.43,7.49,12.84,10.65,19.58,7.41,16.66,14.43,33.55,21.54,50.39l-17.59-55.94c-15.27-28.68-34.99-54.9-55.97-79.53Z"/>
              <path class="cls-7" d="m137.61,180.74c1.49,3.48,2.99,6.96,4.48,10.43-1.5-3.48-2.99-6.96-4.48-10.43Z"/>
              <path class="cls-2" d="m103.89,104.34c1.92,4.12,3.81,8.25,5.69,12.39-1.88-4.14-3.78-8.27-5.69-12.39Z"/>
              <path class="cls-2" d="m144.81,206.5c-.37.16-.74.31-1.1.46h0l1.1-.46Z"/>
              <path class="cls-2" d="m134.16,190.67c-.99-2.38-1.97-4.76-2.96-7.14.99,2.38,1.97,4.76,2.96,7.14Z"/>
              <path class="cls-2" d="m128.8,160.29c.93,2.14,1.85,4.28,2.78,6.43-.92-2.14-1.85-4.28-2.78-6.43Z"/>
              <path class="cls-2" d="m111.59,121.18c1.2,2.66,2.4,5.32,3.59,7.98-1.19-2.66-2.39-5.32-3.59-7.98Z"/>
              <path class="cls-2" d="m123.17,147.31c.99,2.28,1.99,4.56,2.98,6.84-.99-2.28-1.99-4.56-2.98-6.84Z"/>
              <path class="cls-2" d="m134.62,173.77c1,2.32,2,4.65,3,6.97-1-2.32-2-4.65-3-6.97Z"/>
              <path class="cls-2" d="m142.09,191.18c.78,1.83,1.57,3.65,2.36,5.48-.79-1.83-1.57-3.65-2.36-5.48Z"/>
              <path class="cls-2" d="m117.53,134.48c1.06,2.39,2.12,4.77,3.16,7.16-1.05-2.39-2.11-4.77-3.16-7.16Z"/>
              <path class="cls-7" d="m146.02,205.99c1.15-.48,1.68-1.8,1.18-2.94-.92-2.13-1.84-4.26-2.75-6.39-.79-1.83-1.57-3.65-2.36-5.48-1.5-3.48-2.99-6.96-4.48-10.43-1-2.32-2-4.65-3-6.97-1.01-2.35-2.02-4.71-3.04-7.06-.92-2.14-1.85-4.28-2.78-6.43-.88-2.05-1.77-4.1-2.66-6.14-.99-2.28-1.99-4.56-2.98-6.84-.82-1.89-1.65-3.78-2.47-5.67-1.05-2.39-2.11-4.77-3.16-7.16-.78-1.77-1.56-3.55-2.35-5.32-1.19-2.66-2.39-5.32-3.59-7.98-.67-1.48-1.33-2.97-2-4.45-1.88-4.14-3.78-8.27-5.69-12.39l17.59,55.94c3.25,7.74,6.49,15.49,9.72,23.25.99,2.38,1.97,4.76,2.96,7.14,2.11,5.07,4.21,10.14,6.3,15.22.47,1.14,1.78,1.69,3.25,1.07.36-.15.73-.3,1.1-.46l1.21-.51Z"/>
            </g>
          </g>
          <path class="cls-4" d="m99.76,70.59c-2.27-.33-4.51,1.05-6.25,2.38-1.99,1.51-2.17,3.57-.72,5.55.65.89.87,1.34,1.06,2.49-.51,0-.87-.29-1.33-.53-2.09-1.09-4.31.93-5.47,2.51-1.7,2.32-3.42,8.52,1.16,9.05,1.29.15,2.61-.56,3.32-1.66.45-.7,2.19-5.48,2.96-2.77.42,1.48-.86,3.33-1.38,4.63-.35.88-.57,1.85-.35,2.77.51,2.21,3.65,3.37,5.54,2.17,2.43-1.56,1.72-4.56,1.41-6.91-.06-.46-.86-5.27-.11-5.29,3.25-.07,4.35,5.09,7.55,5.65,3.12.55,4.18-3.03,3.82-5.48-.55-3.7-4.29-5.56-7.77-5.08-.8.11-3.86,1.44-3.88,0-.03-2.05,4.48-2.15,5.79-2.69,4.89-2-3.3-6.49-5.34-6.79Z"/>
          <path class="cls-9" d="m99.76,70.59c-2.27-.33-4.51,1.05-6.25,2.38-1.99,1.51-2.17,3.57-.72,5.55.65.89.87,1.34,1.06,2.49-.51,0-.87-.29-1.33-.53-2.09-1.09-4.31.93-5.47,2.51-1.7,2.32-3.42,8.52,1.16,9.05,1.29.15,2.61-.56,3.32-1.66.45-.7,2.19-5.48,2.96-2.77.42,1.48-.86,3.33-1.38,4.63-.35.88-.57,1.85-.35,2.77.51,2.21,3.65,3.37,5.54,2.17,2.43-1.56,1.72-4.56,1.41-6.91-.06-.46-.86-5.27-.11-5.29,3.25-.07,4.35,5.09,7.55,5.65,3.12.55,4.18-3.03,3.82-5.48-.55-3.7-4.29-5.56-7.77-5.08-.8.11-3.86,1.44-3.88,0-.03-2.05,4.48-2.15,5.79-2.69,4.89-2-3.3-6.49-5.34-6.79Z"/>
        </g>
      </g>
    </g>
  </g>
</svg>