<?xml version="1.0" encoding="UTF-8"?>
<svg id="Layer_2" data-name="Layer 2" xmlns="http://www.w3.org/2000/svg" viewBox="0 0 118.63 247">
  <defs>
    <style>
      .cls-1 {
        fill: #fff;
      }

      .cls-2 {
        fill: #e64428;
      }

      .cls-3 {
        fill: #008d4a;
      }

      .cls-4 {
        fill: #eab520;
      }
    </style>
  </defs>
  <g id="Blancos">
    <path class="cls-1" d="m104.48,13.21l-7.33-.42c-.29-.02-.57-.02-.86-.02-.24,0-.48,0-.72.02-.46-3.07-1.86-5.95-4.06-8.22-2.83-2.93-6.73-4.56-10.77-4.56-.33,0-.67.01-1,.03l-13.97.94c-1.32.09-2.6.35-3.82.76-1.98-1.02-4.22-1.61-6.59-1.65,0,0-.88-.02-2.19-.02C44.62.06,37.22.06,31.99,6.11c-2.33,2.7-3.62,6.09-3.7,9.59-.17,1.68-.9,7.05-1.49,11.42-1.72,12.67-3.05,22.77-3.34,27.81-.02.4-.05.8-.07,1.2-4.79,1.75-8.79,4.37-11.82,7.78-1.69,1.9-5.65,6.36-8.74,25.79-.11.71-2.74,17.6-2.83,32.45-.07,10.84.93,27.39,1.66,39.46.25,4.08.47,7.7.61,10.48.58,11.53,3.04,31.02,4.77,40.1.8,4.22,2.08,10.36,3.62,15.64,1.69,5.79,5.2,17.84,17.15,19.07.61.06,1.23.09,1.85.09,9.77,0,15.08-7.39,17.63-10.95.46-.65.9-1.25,1.28-1.73,3.94-4.95,20.44-31.79,21.85-34.12,2.61-4.32,7.86-15.3,11.81-23.76,4.74-10.16,9.22-20.15,10.89-24.29,2.17-5.39,5.6-18.38,10.21-36.15,1.7-6.55,3.46-13.33,4.04-15.16.07-.22,6.97-22.23-2.1-32.69-.25-.29-.5-.57-.77-.84,3.61-7.64,6.18-13.08,7.46-15.75,3.99-8.34,6.17-19.34,6.41-20.56.82-4.25-.24-8.64-2.9-12.05-2.66-3.41-6.66-5.51-10.98-5.76Z"/>
  </g>
  <g id="Layer_1-2" data-name="Layer 1">
    <g>
      <path class="cls-3" d="m96.3,27.77s-11.03,15.11-13.49,18.77c-2.45,3.67-5.66,8.03-5.66,8.03,0,0,.5-11.16,1.44-19.28.94-8.12,2.15-20.29,2.15-20.29l-12.11.81-1.85.12s-5.96,17.63-7.73,23.07c-1.77,5.44-4.02,13.4-4.02,13.4,0,0,.1-13.89.38-20.71.28-6.82-.3-16.62-.3-16.62,0,0-12-.21-11.82,1.01.18,1.21-4.37,31.33-4.85,39.71-.48,8.38-1.09,15.85-1.09,15.85l31.29,1.61,16.09.83s10.43-22.13,13.7-28.97c3.27-6.84,5.21-16.93,5.21-16.93l-7.33-.42Z"/>
      <path class="cls-4" d="m93.93,77.99c-1.71-1.97-5.55-4.01-15.72-5.65,0,0-4.02-.47-9.58-1.09-10.85-1.19-27.55-2.91-31.73-2.65-6.32.39-11.38,2.19-14.11,5.27-2.74,3.08-5.13,18.15-5.13,18.15,0,0-2.56,16.32-2.65,30.21-.09,13.89,1.69,38.06,2.25,49.1.56,11.04,2.97,29.89,4.53,38.05,1.55,8.15,4.69,22.3,7.57,22.6,2.88.3,4.79-3.62,7.48-7,2.69-3.38,16.75-25.92,20.74-32.53,1.98-3.29,6.57-12.73,11.06-22.35,4.54-9.73,8.99-19.65,10.56-23.55,3.12-7.75,11.94-44.2,13.88-50.27,1.94-6.08,2.56-16.32.86-18.29Z"/>
      <path class="cls-2" d="m70.12,80.02c-.26.65.27,1.82.27,1.82l17.14.87-.31-2.12s-16.84-1.21-17.1-.57Z"/>
      <path class="cls-2" d="m47.74,103.8c-.96.72-1.52,1.71-.08,1.86,1.44.15,19.28.94,19.28.94l-.62-1.78s-17.63-1.74-18.58-1.02Z"/>
      <path class="cls-2" d="m30.36,81.98c-.21.95-.47,1.59.66,2.09,1.14.49,16.71,2.77,17.67,2.04.96-.72-.27-1.82-.27-1.82,0,0-17.85-3.26-18.06-2.31Z"/>
      <path class="cls-2" d="m68.63,120.4l-6.75.02s.66,2.09,1.75,2.27c.36.06,2.41.07,5,.05,5.25-.03,12.71-.17,12.71-.17l.39-2.2-13.09.03Z"/>
      <path class="cls-2" d="m19.74,118.32c-.22.95-1.22,1.37-.08,1.86,1.14.49,18.84.37,18.84.37l-.71-2.39s-17.84-.79-18.06.16Z"/>
      <path class="cls-2" d="m37.26,141.05s-.61.68.57,1.48c1.18.79,17.93,1.4,17.93,1.4l-.66-2.09-17.84-.79Z"/>
      <path class="cls-2" d="m53.31,153.76s-.56.99.57,1.48c.91.39,10.47.62,14.75.63v-1.69l-15.32-.42Z"/>
      <polygon class="cls-2" points="17.89 166.02 18.86 167.77 35.12 167.5 33.81 165.8 17.89 166.02"/>
      <path class="cls-2" d="m44.22,176.36c1.48.45,15.4,1.06,15.4,1.06l.43-1.9-16.1-.99s-1.22,1.37.27,1.82Z"/>
      <path class="cls-2" d="m27.75,194.54c.39.26.62,1.78,1.66,1.67,1.05-.12,14.52-.07,15.83-.84,1.31-.76.78-1.94.78-1.94,0,0-18.66.84-18.27,1.11Z"/>
      <path class="cls-2" d="m28.56,214.49s.97,1.74,2.06,1.93,10.16-.82,10.16-.82l-.92-1.44-11.29.33Z"/>
    </g>
  </g>
</svg>