<?xml version="1.0" encoding="UTF-8"?>
<svg id="Layer_2" data-name="Layer 2" xmlns="http://www.w3.org/2000/svg" viewBox="0 0 274.72 233.92">
  <defs>
    <style>
      .cls-1 {
        fill: #fff;
      }

      .cls-2 {
        fill: #d1c4ba;
      }

      .cls-3 {
        fill: #dcd3cb;
      }

      .cls-4 {
        fill: #008d4a;
      }

      .cls-5 {
        fill: #19995c;
      }
    </style>
  </defs>
  <g id="Blancos">
    <path class="cls-1" d="m251.25,32.25c-1.9-.82-3.94-1.33-6.08-1.5-.16-.22-.32-.43-.49-.65-3.61-4.59-8.39-6.03-10.19-6.57-5.37-1.61-11.67-3.34-18.45-3.34-6.01,0-11.49,1.38-16.29,4.11-.31.18-.62.36-.93.55-1.1-.12-2.41-.24-3.92-.24-1.82,0-3.52.18-5.18.55-3.72.82-6.48,2.42-8.31,3.47l-.71.41c-.22-.37-.39-.68-.47-.88-.31-.77-.62-2.01-.94-3.32-1.15-4.65-2.9-11.68-9.39-17.55-5.27-4.77-11.69-7.29-18.57-7.29-3.57,0-7.11.68-10.55,2.01-2.61-.88-5.39-1.34-8.21-1.34-10.64,0-20.45,6.34-24.72,15.54-5.68,3.17-10.18,8.48-13.39,15.8-.71,1.63-1.31,3.21-1.84,4.6-.26.69-.52,1.37-.77,2.01-1-.08-2.01-.13-3.02-.18-.05,0-.1,0-.16,0-.08-.15-.17-.29-.25-.44-4.9-8.4-14.14-13.22-25.34-13.22-.8,0-1.61.03-2.42.08-2.72.17-5.21.57-7.41.92-2.04.33-3.97.63-5.36.63h0c-.21,0-.4,0-.57-.02-.7-.06-1.68-.21-2.72-.37-2.2-.34-4.93-.75-7.87-.75-9.2,0-14.76,4.17-17.8,7.66-.82.94-1.49,1.89-2.05,2.79-.64.19-1.26.42-1.88.67-7.84,3.26-12.83,11.51-12.73,21.01.02,2.12.26,3.97.46,5.46.07.5.15,1.15.19,1.53-.11.32-.28.76-.42,1.12-.71,1.84-1.68,4.37-2.15,7.57-1.09,7.47.73,14.92,2.46,19.84.33.95.7,1.89,1.06,2.82.34.87.81,2.06.89,2.45.05.39.01,1.52-.01,2.35-.03,1.13-.07,2.4-.03,3.82.23,8.01,3.16,15.48,5.57,20.34,1.95,3.93,4.51,6.59,6.39,8.53.24.25.53.55.79.82.02.35.04.74.06,1.07.1,2.1.24,4.98,1.09,8.14,1.38,5.16,4.11,9.12,6.34,12,4.95,6.41,10.71,11.94,17.1,16.44,5.53,3.89,11.52,5.58,16.34,6.93,2.14.6,4.15,1.17,5.63,1.79,2.83,1.19,6.35,3.72,9.76,6.17l1.4,1c7.44,5.32,12.92,10.92,16.33,16.68.09.34.18.69.27,1.04-1.35,4.92-2.49,12.65,2.11,19.06,2.63,3.66,6.63,6.06,10.98,6.66,2.63.49,11.93,2.2,16.19,2.72.84.1,1.69.16,2.51.16h0c5.39,0,10.39-2.29,13.73-6.27,2.9-3.47,3.89-7.32,4.13-10.38,1.76-2.33,3.53-4.67,5.29-7,1.25-1.09,2.46-2.18,3.65-3.24,2.85-2.56,5.55-4.98,8.18-6.82,5.65-3.95,12.93-6.5,20.63-9.2,3.8-1.33,7.73-2.71,11.68-4.33,18.05-7.39,30.18-18.49,35.27-32.23,2.72-.54,6.18-1.45,9.59-3.59,7.08-4.44,9.68-11.2,11.4-15.67.21-.55.49-1.27.73-1.85,1.73-.95,4.32-2.54,6.59-5.25,2.97-3.54,4.06-7.33,4.63-9.75.62-.57,1.37-1.28,2.14-2.12,6.94-7.6,7.79-16.72,8.41-23.39.24-2.53.48-5.16.99-6.57.14-.39.42-1.02.73-1.69.68-1.51,1.53-3.4,2.2-5.69,5.17-17.69-7.36-32.63-12.71-39.01-1.61-1.92-4.61-5.5-9.53-7.63Z"/>
  </g>
  <g id="Layer_1-2" data-name="Layer 1">
    <g>
      <path class="cls-4" d="m90.66,53.58c-4.86-.4-10.14.13-12.97-3.73-.95-1.3-1.43-2.9-2.24-4.3-2.72-4.66-8.63-6.07-13.84-5.73s-10.35,1.95-15.55,1.52c-5.51-.46-12.11-2.83-15.83,1.44-1.56,1.79-2.18,5.03-4.1,6.41s-3.34.2-5.39,1.06c-2.48,1.03-3.52,4.2-3.49,6.99s.81,5.57.64,8.36c-.22,3.57-2.23,6.27-2.72,9.66-.6,4.08.44,8.91,1.78,12.72.92,2.62,2.17,5.14,2.61,7.89.42,2.66.05,5.37.13,8.06.14,4.73,1.95,9.96,4.01,14.12,1.94,3.92,6.11,6.1,7.79,10.23,1.4,3.46.61,7.49,1.58,11.11.67,2.51,2.15,4.68,3.71,6.7,3.96,5.12,8.65,9.68,13.87,13.35,5.5,3.87,12.96,4.56,19.15,7.15,4.91,2.06,9.72,5.69,14.08,8.81,10.79,7.72,20.85,17.88,24.99,31.21,3.9.61,6.14-4.41,7.06-8.43,1.45-6.3,2.9-12.61,4.34-18.91,1.42-6.19,1.19-12.51,2.54-18.71s3.33-12.46,4.81-18.75c2.02-8.61,3.13-17.78.7-26.27-1.81-6.33-5.54-12.06-6.37-18.62-.45-3.48-.05-7.01-.05-10.52,0-7.29-2.43-15.52-8.77-18.53-3.19-1.51-7.07-1.56-9.7-3.99-2.25-2.08-3.04-5.49-5.25-7.62-1.99-1.92-4.68-2.47-7.51-2.7Z"/>
      <g>
        <path class="cls-2" d="m39.64,66.63s20.55,16.39,35.96,48.93c15.41,32.54,12.61,33.52,29.43,60.43,16.81,26.91,13.78,34.5,13.78,34.5,0,0-10.98,2.2-10.98,1.22s-.93-14.44-6.77-22.27c-5.84-7.83-18.92-53.34-29.89-75.11-10.98-21.78-18.92-34.74-31.53-47.71Z"/>
        <path class="cls-2" d="m38.11,44.97c1.82,1.06,2.93,2.99,4.04,4.73,3.08,5.45,4.89,11.53,6.36,17.57,1.53,5.89,3.62,17.27,9.11,20.38.45.21.96.36,1.47.29-1.03.29-2.13-.15-3-.73-8.23-6.51-8.95-21.9-12.51-31.39-1.4-3.76-2.51-7.98-5.46-10.84h0Z"/>
        <path class="cls-2" d="m25.34,86.49c6.68,5.11,14.82,7.88,22.91,9.84,6.17,1.38,12.57,2.92,18.08,6.19,1.77,1.16,3.66,2.38,4.78,4.22-2.95-3.03-7.13-4.36-11.03-5.7-4-1.28-8.05-2.1-12.23-3.02-8.19-2.02-16.62-5.29-22.51-11.53h0Z"/>
        <path class="cls-2" d="m32.54,117.19c6.44,3.74,13.55,6.12,20.85,7.34,4.94.72,10.14.6,14.79,2.74,7.06,2.99,12.97,8.28,17.31,14.55.92,2.56,1.86,5.12,2.74,7.7.88,2.56,1.78,5.1,2.61,7.68-1.13-2.46-2.19-4.94-3.28-7.42-.98-2.27-2.39-5.51-3.12-7.34-5.86-7.57-14.2-14.12-23.88-15.49-9.96-.73-19.95-3.78-28.02-9.75h0Z"/>
        <path class="cls-2" d="m48.6,147.29c9.99,4.49,19.93,9.32,30.29,12.81,2.65,1,5.26,1.23,7.98,2.19,7.9,3.2,13.32,10.5,17.08,17.78-4.52-6.56-10.03-13.34-17.64-16.24-2.49-.81-5.42-1.16-7.95-2.08-10.5-3.59-20.32-8.71-29.76-14.45h0Z"/>
        <path class="cls-2" d="m97.34,172.8c-4.71-11.18-4.23-24.18-.39-35.56,1.84-5.51,4.11-11.32,3.71-17.21-.16-1.14-.41-2.39-1.3-3.2,1.04.67,1.49,1.95,1.79,3.11,1.65,8.51-2.87,16.51-4.47,24.66-1.89,9.26-1.93,19.05.66,28.2h0Z"/>
        <path class="cls-2" d="m80.69,132.92c-5.84-13.91-7.57-29.4-6.2-44.36.71-8.14,3.56-16.2,2.56-24.42-.14-.72-.29-1.48-.78-2.05,1.09,1.08,1.29,2.76,1.55,4.21.99,7.51-.96,15-1.65,22.43-.25,2.96-.41,5.93-.43,8.9-.06,11.92,1.43,23.87,4.95,35.3h0Z"/>
      </g>
      <path class="cls-4" d="m153.04,66.57c2.16-2.59,4.39-5.11,6.94-7.29,3.39-2.9,7.26-5.14,11.11-7.37,5.94-3.43,11.89-6.87,17.83-10.3,1.28-.74,2.59-1.49,4.03-1.81,3.26-.72,6.76.87,9.95-.13,1.54-.48,2.84-1.52,4.25-2.32,6.9-3.91,15.45-1.73,23.03.55,1,.3,2.07.64,2.72,1.47,1.58,2.01.22,5.38,2.68,6.79s6.82-1.4,9.73-.14c1.63.71,2.84,2.12,3.99,3.5,6.02,7.18,12.45,16.13,9.81,25.17-.66,2.25-1.85,4.3-2.64,6.5-2.95,8.18-.52,18.54-6.36,24.92-1.47,1.61-3.4,2.84-4.44,4.77-1.28,2.38-1.01,5.51-2.74,7.57-1.24,1.47-3.2,2.04-4.76,3.15-5.38,3.83-4.87,13.05-10.46,16.56-4.19,2.63-10.67,1.16-13.52,5.25-.85,1.21-1.17,2.71-1.6,4.13-3.71,12.43-15.61,20.41-27.46,25.26s-24.67,7.76-35.21,15.11c-9.29,6.48-16.56,16.27-27.17,20.12-1.78.65-3.77,1.11-5.55.44-3.67-1.37-4.24-6.34-4.04-10.31,1.03-20.1,6.09-39.67,11.47-58.95,2.59-9.27,5.44-18.97,6.98-28.48,1.34-8.26,1.9-15.38,6.01-23,3.74-6.92,8.73-13.05,13.7-19.12.56-.69,1.13-1.38,1.7-2.06Z"/>
      <g>
        <path class="cls-2" d="m153.08,168.85c2.05-11.73,3.56-23.5,1.64-35.32,4.27,11.26,2.69,24.31-1.64,35.32h0Z"/>
        <path class="cls-2" d="m229.93,56.83s-29.48,37.58-38.48,55.81-32.4,55.58-39.83,65.93c-4.95,6.9-10.12,13.65-15.23,20.44-3.46,4.59-6.93,9.18-10.4,13.77-3.74,4.94-9.68,3.61-15.27,1.78-.58-.19-1.26-.53-1.29-1.14-.02-.42.29-.78.58-1.09,19.66-20.66,39.79-42.68,55.79-66.38,18.45-27.45,45.01-70.43,64.13-89.11Z"/>
        <path class="cls-2" d="m153.08,171.8c3.5-11.14,15.8-15.99,26.43-17.51,10.67-1.89,21.32-5.4,30.23-11.69-8.22,7.45-19.15,11.39-29.94,13.35-10.44,1.49-22.08,5.55-26.72,15.84h0Z"/>
        <path class="cls-2" d="m237.59,105.31c-2.86.79-5.74,1.44-8.6,2.24-2.04.67-5.01,1.58-7.05,2.21-.82.31-5.95,2.23-6.9,2.59-16.11,6.83-31.81,16.35-42.54,30.41-3.34,4.64-7.13,9.77-10.57,14.3,3.02-4.82,6.52-10.14,9.7-14.91,10.27-14.76,26.41-24.66,42.95-31.01,1.9-.6,6.61-2.28,8.5-2.72,4.69-1.34,9.71-2.32,14.51-3.11h0Z"/>
        <path class="cls-2" d="m249.05,77.46c-2.13,4.15-15.46,6.32-20.03,7.4-17.71,3.81-31.6,17.1-41.79,31.49-2.11,2.92-4.04,5.96-5.82,9.11,9.12-19.32,25.49-37.83,47.36-41.87,5.34-.91,10.66-1.7,15.8-3.41,1.56-.67,3.62-1.13,4.48-2.72h0Z"/>
        <path class="cls-2" d="m188.15,58.96c.36,5.89,2.06,11.64,4.63,16.91.7,1.32,1.51,2.59,2.04,3.99,4.23,9.91,2,21.59-3.6,30.45-3.03,5.1-6.15,10.15-9.37,15.14,2.65-5.32,5.39-10.58,8.22-15.79,5-8.78,7.12-19.62,3.37-29.24-.49-1.39-1.25-2.66-1.87-3.99-2.42-5.5-3.73-11.52-3.43-17.47h0Z"/>
        <path class="cls-2" d="m214.17,75.12c8.03-4.95,4.93-15.32,5.33-23.14.11-2.85.27-5.76,1.15-8.51-.18,2.85.03,5.67.17,8.49.19,5.71,1.65,11.64-.57,17.17-1.08,2.68-3.2,5.27-6.07,6h0Z"/>
      </g>
      <path class="cls-5" d="m116,28.89c-3.74,1.69-6.15,5.39-7.8,9.14s-2.74,7.77-4.89,11.26c-3.16,5.14-8.46,8.89-10.75,14.47-1.17,2.86-1.47,6.01-2.65,8.86-1.56,3.77-4.53,6.74-6.89,10.07-4.93,6.98-4.51,17.5-1.14,25.09,3.88,8.73,11.74,15.02,18.05,21.89,9.45,10.3,12.48,24.91,13.5,38.84.37,5.07,1.44,11.38,6.33,12.76,3.21.91,6.65-1.04,8.66-3.7,2.01-2.66,2.96-5.95,4.18-9.05,4.08-10.42,11.58-19.47,21.06-25.42,3.64-2.28,7.55-4.12,11.17-6.44,10.83-6.96,22.43-19.32,22.21-33-.12-7.54-3.85-14.63-4.25-22.16-.19-3.73.43-7.56-.63-11.14-1.61-5.43-6.76-9.2-8.51-14.58-1.22-3.75-.65-7.9-1.85-11.66-1.19-3.73-4.01-6.73-5.47-10.37-2.16-5.36-1.89-11.21-6.48-15.36-4.68-4.23-10.5-4.34-15.88-1.36-1.16.65-2.44,1.31-3.76,1.11-.96-.15-1.78-.75-2.63-1.23-6.05-3.38-14.84.4-16.67,7.08-.23.83-.36,1.71-.82,2.43-.87,1.36-2.62,1.78-4.09,2.45Z"/>
      <g>
        <path class="cls-3" d="m141.99,24.07s5.74,16.68,0,37.67c-5.74,20.99-7.11,46.01-7.11,46.01,0,0-3.01,81.53-8.47,107.09,0,0,.82,4.57-3.55,4.04-4.37-.54-15.85-2.69-15.85-2.69,0,0-3.28.27,0-9.42,3.28-9.69,15.03-55.43,15.03-55.43,0,0,9.57-44.13,11.2-59.19,1.64-15.07,6.56-26.1,8.2-35.79s2.46-16.14.55-32.29Z"/>
        <path class="cls-3" d="m129.71,150.23c1.2-8.05,4.47-16.26,10.86-21.66,1.58-1.31,3.53-2.37,5.34-3.23,3.63-1.79,7.33-3.45,10.94-5.26,1.81-.88,3.52-1.94,5.08-3.25-2.63,3.14-6.43,5.07-9.93,7.06-3.42,2.03-7.26,3.49-10.35,5.99-6.15,5.17-9.49,12.82-11.94,20.35h0Z"/>
        <path class="cls-3" d="m131.14,125.46c2.29-6.78,6.09-13.21,11.24-18.26,3.49-3.31,7.59-5.92,11.61-8.51,3.48-2.2,8.79-5.07,11.85-7.75,1.77-1.51,3.13-3.48,3.84-5.77-.33,2.38-1.61,4.59-3.26,6.36-5.16,5.01-11.73,8.23-17.42,12.5-7.91,5.2-13.66,13.03-17.86,21.42h0Z"/>
        <path class="cls-3" d="m95.76,92.2c.88,5.98,3.83,11.4,6.97,16.47,4.73,7.71,11.41,14.08,16.29,21.77,5.21,7.79,5.72,17.65,4.65,26.61-.06-3.03-.08-6.05-.41-9.04-.28-2.99-.79-5.94-1.72-8.76-1.81-5.66-5.49-10.47-9.22-15.17-7.42-9.22-15.74-19.57-16.56-31.89h0Z"/>
        <path class="cls-3" d="m109.42,55.52c-.53,8.11.3,16.7,4.2,23.89,2.08,3.55,4.99,6.62,6.91,10.29,5.94,10.93,10.39,23.26,10.15,35.85-.88,8.31-1.94,16.46-3.15,24.67.21-4.14.46-8.27.77-12.4.31-4.11.66-8.3.93-12.34-.02-12.23-4.42-24.29-10.07-35.01-1.86-3.73-4.75-6.76-6.67-10.46-3.75-7.56-4.31-16.3-3.06-24.5h0Z"/>
        <path class="cls-3" d="m129.57,29.99c2.73,3.13,5.1,6.47,7.97,9.45,1.7,1.72,3.44,3.44,5.91,4.02-6.29.78-12.16-8.24-13.88-13.47h0Z"/>
        <path class="cls-3" d="m123.64,52.57c1.88,4.63,4.28,8.78,7.31,12.74,2.86,4.19,4.62,9.09,5.06,14.12-1.74-4.6-3.64-9.15-6.45-13.15-2.97-3.98-5.37-8.71-5.92-13.71h0Z"/>
        <path class="cls-3" d="m163.89,48.97c-.5,6.28-3.93,12.27-8.68,16.4-1.65,1.4-3.32,2.53-4.86,3.88-6.26,5.22-11.5,11.75-14.33,19.6.77-4.09,2.45-8.04,4.8-11.55,3.39-5.3,8.37-9.5,13.36-13.15,4.71-3.88,8.24-9.23,9.72-15.18h0Z"/>
        <path class="cls-3" d="m144.14,47.61c1.03-6.35,4.94-12.48,10.58-15.67-4.04,4.98-7.31,10.12-10.58,15.67h0Z"/>
      </g>
    </g>
  </g>
</svg>