<?xml version="1.0" encoding="UTF-8"?>
<svg id="Layer_2" data-name="Layer 2" xmlns="http://www.w3.org/2000/svg" viewBox="0 0 161.24 210.26">
  <defs>
    <style>
      .cls-1 {
        fill: #fff;
      }

      .cls-2 {
        fill: #cc7533;
      }

      .cls-3 {
        fill: #008d4a;
      }

      .cls-4 {
        fill: #eab520;
      }

      .cls-5 {
        fill: #231f20;
      }
    </style>
  </defs>
  <g id="Blancos">
    <path class="cls-1" d="m37.58,198.13c14.27,7.14,29.56,9.69,39.82,10.98,6.17.78,11.29,1.14,16.14,1.14h0c10.19,0,18.94-1.66,26.75-5.08,21.24-9.3,35.76-32.18,39.83-62.77,2.39-17.96.96-32.93-4.39-45.76-5.58-13.4-15.06-23.51-23.44-32.43-2.32-2.48-4.52-4.81-6.6-7.18-4.56-5.18-7.62-11.87-10.86-18.95-3.34-7.31-7.13-15.6-13.09-23.12C94.22,5.48,83.46.26,71.44.26c-.49,0-.99,0-1.49.03-1.06-.19-2.15-.28-3.28-.28-.51,0-1.02.02-1.55.06-1.72.13-3.16.46-4.02.66l-.57.13c-2.4.54-6.02,1.35-9.79,3.89-.04.03-.09.06-.13.09-.98.68-1.89,1.43-2.7,2.26-11.09,6.8-18.89,17.74-21.13,29.88-1.23,6.67-.96,12.98-.71,18.55.19,4.43.38,8.62-.27,12.02-1.18,6.22-4.8,12.57-8.64,19.28-.83,1.46-1.67,2.92-2.48,4.38C-.83,119.09-4.12,144.85,5.15,165.72c5.97,13.43,17.48,24.94,32.42,32.41Z"/>
  </g>
  <g id="Layer_1-2" data-name="Layer 1">
    <g>
      <path class="cls-3" d="m27.78,98.5c-10.39,18.67-17.61,41.61-8.92,61.13,4.94,11.1,14.56,19.65,25.43,25.09,10.86,5.43,22.94,7.99,34.99,9.52,11.76,1.49,24.14,1.95,34.99-2.8,19.07-8.35,28.23-30.38,30.98-51.01,1.7-12.76,1.58-26.13-3.37-38.02-5.86-14.08-17.57-24.26-27.44-35.46-11.4-12.93-14.2-29.72-24.46-42.67-14.84-18.72-44.54-5.77-48.45,15.41-1.86,10.06.93,20.51-1,30.65-1.96,10.3-7.73,19.14-12.75,28.16Z"/>
      <path class="cls-4" d="m34.48,99.35c-9.07,16.31-15.37,36.34-7.79,53.39,4.31,9.69,12.72,17.16,22.21,21.91,9.49,4.75,20.04,6.98,30.56,8.31,10.27,1.3,21.08,1.7,30.56-2.45,16.65-7.29,24.65-26.53,27.05-44.55,1.48-11.14,1.38-22.82-2.94-33.2-5.12-12.29-15.35-21.19-23.97-30.96-9.95-11.29-12.4-25.95-21.36-37.26-12.96-16.35-38.9-5.04-42.31,13.46-1.62,8.79.81,17.91-.87,26.77-1.71,9-6.75,16.71-11.13,24.59Z"/>
      <path class="cls-2" d="m90.19,151.78c8.74-3.21,13.94-12.35,16.21-21.38,6.49-25.85-24.47-43.9-42.79-23.78-17.13,18.82-.48,55.11,26.58,45.16Z"/>
      <path class="cls-5" d="m61.21,21.69c1.64-.33,3.29-.67,4.85-1.21.39-.14.78-.29,1.13-.47.56-.3.97-.69,1.37-1.07.22-.21.44-.42.52-.64.07-.19.03-.37-.02-.55-.16-.62-.38-1.23-.66-1.83-.11-.25-.24-.5-.53-.67-.37-.22-.98-.28-1.59-.23-.61.05-1.23.19-1.84.33-2,.46-3.72.75-5.3,1.83-1.12.77-1.43,1.7-1.24,2.5.19.84.88,1.32,1.67,1.93.12.09.25.19.45.23.24.04.54-.01,1.2-.15Z"/>
      <path class="cls-1" d="m94.47,177.16c17.17-3.67,28.69-18.88,34.39-34.58,1.86-5.35,2.87-11.03,3.6-16.84.72,5.8.47,11.81-.99,17.61-4.33,16.77-18.42,34.11-37,33.81h0Z"/>
      <path class="cls-1" d="m72.08,105.25c-2.99,4.8-4.79,8.96-6.14,14.38-1.23,4.95-1.74,10.5-1.63,15.73-.68-1.22-1.08-2.59-1.38-3.95-2.06-9.19-.35-21.67,9.15-26.17h0Z"/>
    </g>
  </g>
</svg>