<?xml version="1.0" encoding="UTF-8"?>
<svg xmlns="http://www.w3.org/2000/svg" viewBox="0 0 161.1 211.29">
  <defs>
    <style>
      .cls-1 {
        isolation: isolate;
      }

      .cls-2 {
        fill: #eab520;
        mix-blend-mode: soft-light;
        opacity: .5;
      }

      .cls-2, .cls-3, .cls-4, .cls-5, .cls-6 {
        stroke-width: 0px;
      }

      .cls-3 {
        fill: #0d9353;
      }

      .cls-4 {
        fill: #fff;
      }

      .cls-5 {
        fill: #269e65;
      }

      .cls-6 {
        fill: #66bb93;
      }
    </style>
  </defs>
  <g class="cls-1">
    <g id="Layer_2" data-name="Layer 2">
      <g id="Blancos">
        <path class="cls-4" d="M159.86,156.27c-.75-1.74-1.81-3.28-3.1-4.58,1.11-6.12,2.29-14.79-3.5-22.27-1-1.29-2.2-2.4-3.53-3.29-.02-.67-.04-1.32-.06-1.94-.06-1.69-.12-3.14.03-4.68.38-3.95-.82-7.9-3.34-10.96-3.25-3.95-7.83-6.33-13.05-6.82-.5-2.71-1.05-5.43-1.8-7.9-3.99-13.07-13.29-14.48-17.1-14.48-.34,0-.67,0-1,.03-.77-.75-1.57-1.39-2.39-1.95-.07-.24-.14-.48-.22-.72.58-3.14.63-7.39-1.83-11.73-2.39-4.21-6.41-7.08-11.32-8.09-.99-.2-2-.3-3.01-.3-.1,0-.2,0-.29,0-.58-1.02-1.31-2.03-2.19-3-.89-.98-1.87-1.83-2.93-2.56-3.26-6.6-8-12.41-17.97-12.99-2.31-3.58-5.12-6.48-9.65-8.46-2.65-3.49-6.45-6.96-12.37-8.23-.08-.09-.15-.18-.23-.26-1.17-1.3-2.5-2.41-3.95-3.3-1.18-1.7-2.82-3.68-5.09-5.46-3.76-5.07-8.88-7-11.88-7.85C25.43,1.8,21.85.17,18,.02c-.29-.01-.57-.02-.84-.02C10.93,0,5.4,3.02,2.38,8.08c-4.59,7.68-1.62,15.2,1.23,20.75-2.04,5.52-.66,11.77,3.59,15.92,1.15,1.12,2.6,2.54,4.41,3.98.1.2.2.4.3.6-.35,1.06-.61,2.22-.72,3.5-.3,3.35.34,8.26,4.99,12.77.43.74.9,1.43,1.39,2.09-.3,3.05.34,6.17,1.92,8.92,1.39,2.42,3.21,4.33,5.06,5.97-1.55,2.75-1.94,5.4-2.02,6.97-.57,10.87,8.86,15.57,13.14,17.62.5,1.21,1.12,2.29,1.81,3.27-3.93,10.43,3.92,18.58,8.64,23.5.84.88,2.09,2.17,2.93,3.14.88,3.54,3.05,6.7,6.16,8.8-1.94,3.59-2.57,7.66-1.71,11.59,1.68,7.7,7.77,11.24,11.61,13.08,1.79,3.47,4.92,6.24,8.93,7.47.01,0,.03,0,.04.01,0,2.82.5,6.01,1.81,9.55.86,2.33,2.29,4.41,4.16,6.05,4.8,4.22,10.44,5.43,14.87,5.99,1.05,2.1,2.6,3.97,4.58,5.4,2.62,1.91,5.72,2.88,8.84,2.88,2.08,0,4.16-.43,6.11-1.3.95.28,2.57,1.01,3.61,1.47,3.17,1.43,7.11,3.21,11.9,3.21,2.34,0,12.75-.66,17.12-12.06,5.93-6.23,7.75-14.8,9.06-20.94.48-2.27,1.21-5.66,1.79-6.84,3.36-4.32,4.1-10.14,1.92-15.18Z"/>
      </g>
      <g id="Productos">
        <g>
          <path class="cls-5" d="M133.83,190.66c1.9,0,3.46-1.27,4.2-2.97.78-1.8.6-3.68.92-5.54.37-2.1,1.3-4.26,2-6.27.57-1.66,1.31-3.31,1.72-5.02.38-1.58.31-3.12,1.33-4.47.89-1.18,1.6-2.3,2.29-3.61.08-.14.15-.34.04-.46-.06-.06-.14-.08-.22-.09-.6-.08-1.19.17-1.8.15-3.8-.07-2.52-4.58-2.44-6.76.04-1.03-.1-2-.5-2.94-.33-.79-1.04-1.55-.81-2.46.19-.77.7-1.4,1.11-2.07,1.76-2.87,1.66-6.78-.25-9.56-1.34,1.43-4.26.24-4.23-1.72-1.84.52-3.52,1.61-4.74,3.08-.25.3-.68-2.17-.6-2.47.49-1.78,1.37-4.23,2.56-5.65.69-.83,1.66-1.65,1.57-2.73-.09-.94-.97-1.58-1.47-2.39-.58-.94-.62-2.11-.45-3.2.18-1.09.55-2.13.76-3.21.15-.75.21-1.53-.03-2.25s-.86-1.35-1.62-1.43c-1.9-.18-3.67,1.2-5.67.61-.32-.09-.62-.24-.95-.29s-.69-.01-.93.23c-1.12,1.15-1.09,1.45-2.78,1.37-1.08-.05-2.43.19-2.37-1.23.08-1.96.78-3.8.53-5.78-.3-2.37-1.18-4.65-2.39-6.7-.54-.91-1.14-1.8-1.36-2.83-.15-.73-.09-1.49-.12-2.23-.08-2.32-1.07-4.81-2.75-6.46-.6.7-.84,1.28-1.59,1.91s-1.42,1.32-1.81,2.21c-.44,1-.49,2.19-1.18,3.03-.15.18-.35.35-.58.4-.65.13-1.08-.65-1.23-1.29s-.36-1.45-1.01-1.57c-.24-.05-.51.02-.74-.08-.22-.1-.34-.32-.45-.54-.96-1.99-1.43-4.21-1.38-6.42,0-.3,0-.66-.25-.84-.11-.08-.25-.11-.38-.13-1.28-.22-2.61-.3-3.79-.84-2.75-1.26-1.79-4.07-2.6-6.43-.61-1.78-2.42-3.13-2.41-5.01,0-1.2.78-2.25,1.09-3.41s-.24-2.78-1.44-2.74c-1.72-.34-2.79,1.75-3.46,3.38s-2.54,3.4-3.88,2.27c-1.01-.86-.79-2.89-2.07-3.24-.87-.24-3.78.68-3.77-1.04.02-3.29.78-6.72-.38-9.8-.84.04-1.68.08-2.51.12-.15,0-.31,0-.42-.09-.1-.08-.13-.22-.15-.35-.49-2.67-2.1-4.06-3.42-6.4-.98-1.73-1.87-3.67-1.55-5.63-1.57,1.68-3.37,3.15-5.33,4.34-.1-1.5-.48-3.37-1.94-3.74-.9-.23-1.86.24-2.76.05-.52-.11-.98-.44-1.39-.79-1.71-1.46-2.92-3.51-3.37-5.72-.13-.61-.27-1.34-.84-1.59-.23-.1-.49-.1-.74-.1-1.91.01-3.42.78-4.68-.94-2.02-2.75-4.03-5.51-6.05-8.26.35,1.39-1.41,2.41-2.84,2.35s-2.71-.42-4.11-.32c-.09-1.13.12-2.3-.21-3.44-.32-1.12-1.17-2.16-2.32-2.35-.45-.07-.92-.02-1.34-.17-1.34-.49-1.23-2.41-1.89-3.67-.87-1.65-3.06-2.06-4.39-3.37-1.36-1.34-1.84-3.61-3.61-4.32-1.51-.6-3.33.26-4.81-.42-1.37-.63-1.89-2.3-3.01-3.31-.61-.55-1.72-.81-2.15-.11-.19.31-.17.7-.14,1.07.49,6.38,6.44,11.25,5.99,17.83-1.14.08-2.27.15-3.41.23,1.55,1.2,2.55,2.82,4.3,3.8.72.4,1.49.72,2.13,1.23s1.13,1.31,1.02,2.12c-.07.56-.42,1.07-.4,1.63.03.79.76,1.35,1.36,1.88,1.85,1.64,2.92,4.14,2.83,6.61-.01.31-.04.64-.18.92-.44.92-2.7,1.69-3.64,1.62,1.08.07,3.08,2.59,3.74,3.5.99,1.37,1.38,3.58,2.91,4.48.4.24.87.35,1.3.52,1.66.64,3.48,2.61,3.43,4.52-.04,1.73-2.28,3.62-3.98,2.28,2.9,2.8,5.81,5.6,8.71,8.4.72.7,1.48,1.46,1.71,2.44.22.95-.29,2.14-1.32,2.3.04,0,2.01,1.45,2.21,1.62.85.73,2.31,3.57.33,3.89-1.48.24-2.94.55-4.39.92-.28.07-3.4,1.51-3.25,1.59,2.59,1.48,5.19,3.24,7.94,4.35,2.29.93,4.2,2.72,5.51,4.82.13.22.27.45.27.7.01.7-.85,1.03-1.54,1.15,1.47,1.3,3.24,2.21,4.87,3.32,1.24.85,2.43,1.85,3.22,3.15.33.55.69,1.13.56,1.78-.07.35-.62,1.29-1.11,1.1,1.54.61,2.67,2.16,2.77,3.81-1.35-.47-2.76-.94-4.18-.81s-2.89,1.03-3.2,2.42c-.15.69-.01,1.42.23,2.09,1.13,3.14,4.2,5.07,6.86,7.08s5.3,4.87,4.93,8.19c1.91,1.08,3.83,2.16,5.74,3.24,1.76,1,3.63,2.1,4.53,3.91.9,1.81.26,4.52-1.71,5.01,1.69.82,3.53,2.16,2.96,3.95-.36,1.13-1.63,1.7-2.8,1.91s-2.42.24-3.44.87-1.57,2.18-.72,3.01c.88.84,2.36.27,3.5.68,1.36.49,1.85,2.17,3,3.03,1.33.98,3.72,1.15,3.8,2.8.03.62-.33,1.29-.02,1.83.18.31.53.46.86.6,2.97,1.22,6.03,2.22,9.14,3.01,1.64.41,4.04,1.55,3.54,3.7-.25,1.07-1.14,1.88-2.08,2.45-.16.1-.33.19-.43.35-.34.54.33,1.12.57,1.71.3.76-.18,1.6-.71,2.23s-1.17,1.26-1.23,2.08c-.09,1.11.91,1.99,1.87,2.56.77.46,1.58.84,2.41,1.19,1.81.74,3.79,1.43,5.73,1.71s4.01-.39,5.99.09c1.52.36,2.72,1.37,3.49,2.71.3.52,1.76,4.52.76,4.84,4.65-1.51,9.71-1.72,14.46-.59.79.19,1.74.62,1.72,1.43,0,.29-.15.57-.29.83-.7,1.3-1.4,2.59-2.1,3.89,1.42-.73,2.84-1.46,4.26-2.2,1.67-.86,2.77-.42,4.56-.63,3.15-.36,3.13-2.69,2.87-4.98Z"/>
          <path class="cls-6" d="M133.92,192.7c-.39-6.46-5.16-11.61-8.34-16.97-6.08-9.26-15.76-22.2-22.33-31.33-7.7-10.28-14.56-21.3-20.47-32.71-3.04-5.82-10.25-20.01-13.43-25.56-4.76-8.36-10.54-16.08-16.19-23.86,6.02,7.52,11.97,15.15,17,23.39,3.29,5.41,10.81,19.53,13.99,25.3,6.04,11.35,12.95,22.04,20.6,32.37,6.62,9.2,16.05,22.18,21.9,31.73,3.3,5.46,7.5,10.96,7.28,17.65h0Z"/>
          <path class="cls-3" d="M133.47,175.77c.64-4.42.93-8.86.64-13.31-.19-3.32-.78-6.69-.75-10.05.04-1.13.11-2.26.35-3.36-.01,1.13.02,2.24.14,3.35.29,3.36,1.07,6.61,1.26,10.01.26,4.5-.23,9.09-1.64,13.37h0Z"/>
          <path class="cls-3" d="M120.52,157.7c-1.79-4.88-1-10.29-.24-15.3.62-3.8,1.43-7.53,2.06-11.32.24-1.26.41-2.52.62-3.79,0,1.28-.06,2.57-.14,3.85-.48,8.87-3.84,17.67-2.3,26.57h0Z"/>
          <path class="cls-3" d="M104.49,134.76c.11-4.85.54-9.79,2.47-14.32,1.46-3.4,3.71-6.22,5.34-9.48.56-1.06,1-2.18,1.35-3.34-.13,1.21-.49,2.39-.9,3.53-1.31,3.37-3.46,6.41-4.87,9.68-1.91,4.4-2.51,9.22-3.38,13.93h0Z"/>
          <path class="cls-3" d="M94.02,90.06c-2.16,7.27-5.02,14.66-2.8,22.27-3.63-7.17-.66-15.64,2.8-22.27h0Z"/>
          <path class="cls-3" d="M76.03,87.1c-.15-7.56-1.62-14.81-4.41-21.84,4.05,6.36,5.67,14.4,4.41,21.84h0Z"/>
          <path class="cls-3" d="M31.71,38.06c2.43,2.93,5.74,7.16,8.43,9.78,3.07,2.97,7.12,5.07,9.72,8.55-3.04-3.18-7.07-4.95-10.33-7.9-3.28-2.91-5.86-6.53-7.82-10.43h0Z"/>
          <path class="cls-3" d="M55.38,51.96c2.89,3.35,4.72,7.63,5.14,12.03-1.77-4.07-3.42-7.94-5.14-12.03h0Z"/>
          <path class="cls-3" d="M45.17,70.94c5.5,3.31,11.13,5.96,17.08,8.36-6.31-1.04-12.43-3.95-17.08-8.36h0Z"/>
          <path class="cls-3" d="M60.14,96.51c3.72,1.55,7.08,3.97,9.89,6.88,2.67,2.81,5.18,6.45,9.45,6.37-4.26.97-7.61-2.92-10.17-5.68-2.73-2.86-5.84-5.33-9.17-7.57h0Z"/>
          <path class="cls-3" d="M72.66,128.18c6.25,3.6,12.97,5.76,20.15,6.46-7.16.73-14.75-1.71-20.15-6.46h0Z"/>
          <path class="cls-3" d="M88.79,154.94c5.83,1.69,11.62,2.51,17.7,2.52-5.89,1.4-12.43.47-17.7-2.52h0Z"/>
          <path class="cls-3" d="M104.49,178.23c6.87-1.67,14.48-.72,20.72,2.59-6.79-2-13.64-2.86-20.72-2.59h0Z"/>
          <path class="cls-2" d="M133.83,190.66c1.9,0,3.46-1.27,4.2-2.97.78-1.8.6-3.68.92-5.54.37-2.1,1.3-4.26,2-6.27.57-1.66,1.31-3.31,1.72-5.02.38-1.58.31-3.12,1.33-4.47.89-1.18,1.6-2.3,2.29-3.61.08-.14.15-.34.04-.46-.06-.06-.14-.08-.22-.09-.6-.08-1.19.17-1.8.15-3.8-.07-2.52-4.58-2.44-6.76.04-1.03-.1-2-.5-2.94-.33-.79-1.04-1.55-.81-2.46.19-.77.7-1.4,1.11-2.07,1.76-2.87,1.66-6.78-.25-9.56-1.34,1.43-4.26.24-4.23-1.72-1.84.52-3.52,1.61-4.74,3.08-.25.3-.68-2.17-.6-2.47.49-1.78,1.37-4.23,2.56-5.65.69-.83,1.66-1.65,1.57-2.73-.09-.94-.97-1.58-1.47-2.39-.58-.94-.62-2.11-.45-3.2.18-1.09.55-2.13.76-3.21.15-.75.21-1.53-.03-2.25s-.86-1.35-1.62-1.43c-1.9-.18-3.67,1.2-5.67.61-.32-.09-.62-.24-.95-.29s-.69-.01-.93.23c-1.12,1.15-1.09,1.45-2.78,1.37-1.08-.05-2.43.19-2.37-1.23.08-1.96.78-3.8.53-5.78-.3-2.37-1.18-4.65-2.39-6.7-.54-.91-1.14-1.8-1.36-2.83-.15-.73-.09-1.49-.12-2.23-.08-2.32-1.07-4.81-2.75-6.46-.6.7-.84,1.28-1.59,1.91s-1.42,1.32-1.81,2.21c-.44,1-.49,2.19-1.18,3.03-.15.18-.35.35-.58.4-.65.13-1.08-.65-1.23-1.29s-.36-1.45-1.01-1.57c-.24-.05-.51.02-.74-.08-.22-.1-.34-.32-.45-.54-.96-1.99-1.43-4.21-1.38-6.42,0-.3,0-.66-.25-.84-.11-.08-.25-.11-.38-.13-1.28-.22-2.61-.3-3.79-.84-2.75-1.26-1.79-4.07-2.6-6.43-.61-1.78-2.42-3.13-2.41-5.01,0-1.2.78-2.25,1.09-3.41s-.24-2.78-1.44-2.74c-1.72-.34-2.79,1.75-3.46,3.38s-2.54,3.4-3.88,2.27c-1.01-.86-.79-2.89-2.07-3.24-.87-.24-3.78.68-3.77-1.04.02-3.29.78-6.72-.38-9.8-.84.04-1.68.08-2.51.12-.15,0-.31,0-.42-.09-.1-.08-.13-.22-.15-.35-.49-2.67-2.1-4.06-3.42-6.4-.98-1.73-1.87-3.67-1.55-5.63-1.57,1.68-3.37,3.15-5.33,4.34-.1-1.5-.48-3.37-1.94-3.74-.9-.23-1.86.24-2.76.05-.52-.11-.98-.44-1.39-.79-1.71-1.46-2.92-3.51-3.37-5.72-.13-.61-.27-1.34-.84-1.59-.23-.1-.49-.1-.74-.1-1.91.01-3.42.78-4.68-.94-2.02-2.75-4.03-5.51-6.05-8.26.35,1.39-1.41,2.41-2.84,2.35s-2.71-.42-4.11-.32c-.09-1.13.12-2.3-.21-3.44-.32-1.12-1.17-2.16-2.32-2.35-.45-.07-.92-.02-1.34-.17-1.34-.49-1.23-2.41-1.89-3.67-.87-1.65-3.06-2.06-4.39-3.37-1.36-1.34-1.84-3.61-3.61-4.32-1.51-.6-3.33.26-4.81-.42-1.37-.63-1.89-2.3-3.01-3.31-.61-.55-1.72-.81-2.15-.11-.19.31-.17.7-.14,1.07.49,6.38,6.44,11.25,5.99,17.83-1.14.08-2.27.15-3.41.23,1.55,1.2,2.55,2.82,4.3,3.8.72.4,1.49.72,2.13,1.23s1.13,1.31,1.02,2.12c-.07.56-.42,1.07-.4,1.63.03.79.76,1.35,1.36,1.88,1.85,1.64,2.92,4.14,2.83,6.61-.01.31-.04.64-.18.92-.44.92-2.7,1.69-3.64,1.62,1.08.07,3.08,2.59,3.74,3.5.99,1.37,1.38,3.58,2.91,4.48.4.24.87.35,1.3.52,1.66.64,3.48,2.61,3.43,4.52-.04,1.73-2.28,3.62-3.98,2.28,2.9,2.8,5.81,5.6,8.71,8.4.72.7,1.48,1.46,1.71,2.44.22.95-.29,2.14-1.32,2.3.04,0,2.01,1.45,2.21,1.62.85.73,2.31,3.57.33,3.89-1.48.24-2.94.55-4.39.92-.28.07-3.4,1.51-3.25,1.59,2.59,1.48,5.19,3.24,7.94,4.35,2.29.93,4.2,2.72,5.51,4.82.13.22.27.45.27.7.01.7-.85,1.03-1.54,1.15,1.47,1.3,3.24,2.21,4.87,3.32,1.24.85,2.43,1.85,3.22,3.15.33.55.69,1.13.56,1.78-.07.35-.62,1.29-1.11,1.1,1.54.61,2.67,2.16,2.77,3.81-1.35-.47-2.76-.94-4.18-.81s-2.89,1.03-3.2,2.42c-.15.69-.01,1.42.23,2.09,1.13,3.14,4.2,5.07,6.86,7.08s5.3,4.87,4.93,8.19c1.91,1.08,3.83,2.16,5.74,3.24,1.76,1,3.63,2.1,4.53,3.91.9,1.81.26,4.52-1.71,5.01,1.69.82,3.53,2.16,2.96,3.95-.36,1.13-1.63,1.7-2.8,1.91s-2.42.24-3.44.87-1.57,2.18-.72,3.01c.88.84,2.36.27,3.5.68,1.36.49,1.85,2.17,3,3.03,1.33.98,3.72,1.15,3.8,2.8.03.62-.33,1.29-.02,1.83.18.31.53.46.86.6,2.97,1.22,6.03,2.22,9.14,3.01,1.64.41,4.04,1.55,3.54,3.7-.25,1.07-1.14,1.88-2.08,2.45-.16.1-.33.19-.43.35-.34.54.33,1.12.57,1.71.3.76-.18,1.6-.71,2.23s-1.17,1.26-1.23,2.08c-.09,1.11.91,1.99,1.87,2.56.77.46,1.58.84,2.41,1.19,1.81.74,3.79,1.43,5.73,1.71s4.01-.39,5.99.09c1.52.36,2.72,1.37,3.49,2.71.3.52,1.76,4.52.76,4.84,4.65-1.51,9.71-1.72,14.46-.59.79.19,1.74.62,1.72,1.43,0,.29-.15.57-.29.83-.7,1.3-1.4,2.59-2.1,3.89,1.42-.73,2.84-1.46,4.26-2.2,1.67-.86,2.77-.42,4.56-.63,3.15-.36,3.13-2.69,2.87-4.98Z"/>
        </g>
      </g>
    </g>
  </g>
</svg>