<?xml version="1.0" encoding="UTF-8"?>
<svg id="Layer_2" data-name="Layer 2" xmlns="http://www.w3.org/2000/svg" viewBox="0 0 199.26 216.44">
  <defs>
    <style>
      .cls-1 {
        fill: #008d4a;
      }

      .cls-1, .cls-2, .cls-3, .cls-4 {
        stroke-width: 0px;
      }

      .cls-2 {
        fill: #5cb68b;
      }

      .cls-3 {
        fill: #081c2c;
      }

      .cls-4 {
        fill: #fff;
      }
    </style>
  </defs>
  <g id="Blancos">
    <path class="cls-4" d="m86.58,216.44c-2.67,0-5.2-.11-7.56-.23l-.95-.05c-7.95-.39-17.85-.87-27.09-5.5-8.64-4.33-14.03-11.35-15.18-19.75-1.02-7.46.31-15.28,4.08-23.9,1.44-3.29,3.03-6.38,4.58-9.37,1.34-2.59,2.64-5.12,3.72-7.55-3.37-1.84-6.49-4.17-9.24-6.9-6.75-.57-12.84-3.12-17.76-7.47-6.77-5.98-10.39-14.57-10.37-23.46-1.43-1.52-2.68-3.21-3.72-5.03-3.5-6.14-4.36-13.43-2.67-20.32-6.17-12.19-5.96-26.99,1.19-38.68,5.42-8.86,14.34-15.14,24.47-17.58,1.92-2.95,4.49-5.49,7.58-7.4,2.37-1.46,4.97-2.5,7.68-3.07,4.04-7.37,10.69-13.24,18.89-16.14,3.72-1.32,7.61-1.99,11.57-1.99,4.88,0,9.65,1.02,14.03,2.94,5.57-3.22,11.93-5,18.44-5,1.84,0,3.7.14,5.52.42,9.42,1.45,17.69,6.47,23.36,13.74.57-.03,1.14-.04,1.71-.04,7.6,0,15.01,2.57,20.86,7.24,7.51,5.99,11.85,14.73,12.49,23.91,1.12.84,2.17,1.79,3.12,2.83,2.89,3.14,4.8,6.89,5.67,10.86,9.7,5.87,16.45,15.81,17.96,27.43,1.77,13.63-4.2,26.93-14.86,35.03-.76,5.73-3.29,11.13-7.43,15.32-1.76,1.78-3.79,3.29-5.99,4.5-2.33,7.88-7.76,14.65-15.42,18.58-4.29,2.2-9.11,3.36-13.95,3.36-3.53,0-7.02-.61-10.3-1.76-3.29,1.41-6.75,2.37-10.27,2.86-.2,4.86.05,10.02.3,15.4.12,2.56.24,5.12.32,7.66.49,16.48-9.19,23.16-15.01,25.68-5.4,2.34-11.68,3.43-19.75,3.43Z"/>
  </g>
  <g id="Layer_1-2" data-name="Layer 1">
    <g>
      <path class="cls-1" d="m56.03,36.51c-3.13-2.28-7.3-2.47-10.51-.49-2.9,1.79-4.59,5.08-4.4,8.55-9.26-.56-18.05,3.85-22.73,11.49-5.5,8.99-4.38,20.95,2.93,29.32-3.19,4.47-3.68,10.11-1.22,14.42,2.19,3.83,5.93,5.24,7.09,5.62-2.84,6.84-1.2,14.54,3.91,19.06,6.02,5.32,13.88,3.61,14.66,3.42,1.31,2.07,5.07,7.41,12.22,10.26,10.38,4.15,21.56,1.84,23.13,1.07,5.46.98,9.05-.1,14.5.88,1.02,1.23,8.16,9.55,19.79,9.53,7.95-.02,13.52-3.93,15.4-5.38,4.93,4.25,11.92,5.11,17.59,2.2,6.08-3.12,9.48-9.97,8.31-16.86.8.05,5.66.24,9.29-3.42,3.29-3.33,4.25-8.51,2.44-13.2,10.51-3.63,17.01-14.08,15.64-24.68-1.26-9.7-8.87-17.68-18.82-19.55,2.01-3.44,1.58-7.73-.98-10.51-2.17-2.36-5.58-3.3-8.8-2.44,3.67-8.04,1.46-17.46-5.13-22.73-5.87-4.68-14.23-5.28-21.02-1.47-2.2-8.59-9.26-15.05-17.84-16.37-7.88-1.21-15.88,2.09-20.77,8.55-5.36-6.08-13.9-8.31-21.5-5.62-7.75,2.74-13.03,10.07-13.2,18.33Z"/>
      <path class="cls-2" d="m106.09,158.57c-1,9.61-.04,19.53.25,29.21.15,5.14-.95,9.29-5.97,11.47-6.07,2.63-14.14,2.3-20.61,1.98-7.34-.36-15.35-.61-22.05-3.98-3.48-1.74-6.5-4.41-7.04-8.38-.74-5.42.81-10.94,2.96-15.87,4.38-10.03,11.44-19.77,12.11-31.01.52-8.71-1.36-17.18-1.8-25.82,1.92.04,4.01-.18,6.27-.74,3.82-.95,4.76-1.15,6.51-2.71,2.21,11.21,2.54,25.68,2.54,25.68,4.58-6.21,7.02-18.88,8.23-27.91,1.41.42,2.91.76,4.47,1.03,2.71.46,5.36.69,7.88.72-1.21,13.84-.06,27.38-.06,27.38,1.84-6.84,5.74-15.45,8.95-21.94.94,1.6,2.24,3.32,4,5.08,1.4,1.4,3.04,2.38,4.8,3.05-1.35.09-6.2,12.05-6.79,13.47-2.54,6.14-3.95,12.67-4.64,19.28Z"/>
      <path class="cls-3" d="m40.92,78.33c-3.35-6.35,1.81-14.53,9.17-13.54,2.27.27,4.46,1.29,6.09,2.9l-1.67.78c-.42-9.08,9.66-13.53,15.86-6.92-6.12-4.48-14.23-1.12-13.89,6.78,0,0,.1,2.42.1,2.42l-1.77-1.64c-7.06-6.4-16.26.43-13.9,9.22h0Z"/>
      <path class="cls-3" d="m99.56,32.82c10.03-4.26,22.11,2.67,21.99,13.93-.78-2.36-1.82-4.55-3.2-6.46-4.2-6.05-11.72-8.07-18.8-7.47h0Z"/>
      <path class="cls-3" d="m134.27,85.16c4.76-5.86,13.92-1.43,13.13,5.89,0,0-1.37-1.02-1.37-1.02,1.57-.61,3.26-.86,4.98-.56,5.23.91,7.24,7.52,4.8,11.79.29-1.5.35-2.99.04-4.4-.79-4.44-4.93-6.79-9.07-4.98,0,0-1.56.62-1.56.62,1.63-6.91-5.17-11.42-10.95-7.34h0Z"/>
      <path class="cls-3" d="m112.02,51.4c5.73-9.17,19.32-7.56,23.46,2.2-6.56-7.29-15.73-8.56-23.46-2.2h0Z"/>
      <path class="cls-3" d="m65.08,94.42c6.35,8.16,15.71,13.91,25.85,15.88,11.51,2.23,23.69.57,34.51-3.9-4.82,2.89-10.23,4.82-15.8,5.87-16.78,3.47-35.76-2.49-44.56-17.84h0Z"/>
      <path class="cls-3" d="m81.12,108.11c-3.79,7.53-13.66,10.32-21.5,8.5-4.76-1.14-9.25-4.25-11.64-8.5,8.56,9.25,24.72,9.56,33.15,0h0Z"/>
      <path class="cls-3" d="m135.94,125.46c-7.42,3.22-17.55,4.17-23.8-1.99-2.99-3.12-5.41-7.19-5.65-11.54.99,2.97,2.62,5.54,4.58,7.82,5.92,7.73,16.21,7.09,24.86,5.72h0Z"/>
    </g>
  </g>
</svg>