<?xml version="1.0" encoding="UTF-8"?>
<svg id="Layer_2" data-name="Layer 2" xmlns="http://www.w3.org/2000/svg" viewBox="0 0 206.68 199.46">
  <defs>
    <style>
      .cls-1 {
        fill: #eec44c;
      }

      .cls-1, .cls-2, .cls-3, .cls-4 {
        stroke-width: 0px;
      }

      .cls-2 {
        fill: #fff;
      }

      .cls-3 {
        fill: #f5da8f;
      }

      .cls-4 {
        fill: #cd7534;
      }
    </style>
  </defs>
  <g id="Blancos">
    <path class="cls-2" d="m59.58,199.46c-3.15,0-6.09-.53-8.75-1.57-3.48-1.36-6.33-3.97-7.99-7.32-.64-1.3-14.71-30.46-1.66-61.87-1.09-1.18-2.84-2.83-5.63-4.87-6.51-3.33-17.32-8.67-21.59-10.28C5.61,110.38.26,102.98,0,94.22c-.26-9.14,5.09-18,13.04-21.59,6.16-2.83,33.17-14.91,53.15-18.69,2.84-9.28,8.61-23.2,20.09-43.56.89-1.58,2.06-2.99,3.46-4.15,1.75-1.46,8.08-6.22,16.19-6.22,7.18,0,13.51,3.62,17.36,9.92.19.31,15.05,26.11,22.82,45.03.95-.03,1.93-.05,2.95-.05,15.64,0,29.33,4.04,39.61,11.69,4.9,3.64,9.16,7.41,12.67,11.19,3.75,4.04,5.68,9.5,5.29,15-.39,5.49-3.07,10.62-7.35,14.08-10.44,8.44-19.69,14.89-27.68,19.3,3.91,11.74,8.02,28.71,6.08,44.33.54,5.39.21,13.28-4.78,19.17-3.4,4.01-8.37,6.31-13.65,6.31-4.46,0-8.84-1.54-13.36-4.71-2.15-1.5-9.31-2.6-15.06-3.49-8.08-1.24-17.66-2.71-27.15-6.44-11.44,7.26-30.79,18.12-44.11,18.12Z"/>
  </g>
  <g id="Layer_1-2" data-name="Layer 1">
    <g>
      <path class="cls-1" d="m19.26,86.28s43.5-19.99,59.31-18.38c0,0-.55-12.31,20.78-50.16,0,0,7.38-6.15,11.13,0s23.61,42.6,25.22,53.36c0,0,26.33-5.62,44,7.53,4.99,3.72,8.42,6.99,10.64,9.37,1.95,2.1,1.73,5.4-.51,7.21-7.93,6.41-26.36,20.54-37.5,22.84,0,0,13.95,29.81,10.2,52.35,0,0,2.68,16.1-8.05,8.59s-33.81-4.37-52.05-14.8c0,0-34.88,24.15-46.15,19.74,0,0-13.42-27.13,1.07-54.4,0,0,2.15-7.08-13.95-18.52,0,0-17.17-8.85-24.15-11.49-6.98-2.64-4.23-11.35,0-13.23Z"/>
      <path class="cls-3" d="m35.24,88.83s35.23-16.19,48.04-14.89c0,0-.45-9.97,16.83-40.63,0,0,5.98-4.99,9.02,0,3.04,4.99,19.12,34.51,20.43,43.22,0,0,21.33-4.55,35.64,6.1,4.04,3.01,6.82,5.66,8.62,7.59,1.58,1.7,1.4,4.38-.41,5.84-6.42,5.19-21.35,16.64-30.37,18.5,0,0,11.3,24.15,8.26,42.4,0,0,2.17,13.04-6.52,6.95-8.69-6.09-27.38-3.54-42.16-11.99,0,0-28.25,19.56-37.38,15.99,0,0-10.87-21.97.87-44.07,0,0,1.74-5.73-11.3-15,0,0-13.91-7.17-19.56-9.3-5.65-2.13-3.43-9.19,0-10.72Z"/>
      <path class="cls-4" d="m105.23,83.21c-.37-.29-.78-.48-1.23-.54-2.1-.3-4.3,13.46-.65,14.08,5.31.88,5.4-10.8,1.89-13.53Z"/>
      <path class="cls-4" d="m100.24,110.59c-.07-.4-.22-.76-.47-1.06-1.16-1.41-10.54,6.06-8.58,8.57,2.86,3.65,9.7-3.73,9.05-7.51Z"/>
      <path class="cls-4" d="m123.21,98.05c.58-.45,1.17-1.17.88-1.85-1.18-2.76-9.75.97-11.48,1.93-.74.41-2.51,1.26-2.18,2.37.52,1.74,4.12.68,5.2.48,2.67-.5,5.39-1.23,7.58-2.92Z"/>
      <path class="cls-4" d="m89.78,97.61c-.34-.03-.7-.06-1.02.06-.81.29-1.09,1.28-1.25,2.13-.14.73-.25,1.58.24,2.14.37.43.96.56,1.52.65,1.62.28,8.41,2.08,7.87-.9s-4.91-3.84-7.35-4.08Z"/>
      <path class="cls-4" d="m113.2,115.76c.35.29.69.53,1.03.66.84.34,1.86-.18,2.27-.99.04-.08.08-.16.11-.24.28-.76.15-1.64-.18-2.39-.84-1.86-2.85-3.03-4.67-3.75-4.97-1.98.21,5.66,1.45,6.71Z"/>
    </g>
  </g>
</svg>