<?xml version="1.0" encoding="UTF-8"?>
<svg id="Layer_2" data-name="Layer 2" xmlns="http://www.w3.org/2000/svg" viewBox="0 0 195.25 220.5">
  <defs>
    <style>
      .cls-1 {
        fill: #008d4a;
      }

      .cls-1, .cls-2, .cls-3, .cls-4 {
        stroke-width: 0px;
      }

      .cls-2 {
        fill: #081c2c;
      }

      .cls-3 {
        fill: #e64228;
      }

      .cls-4 {
        fill: #fff;
      }
    </style>
  </defs>
  <g id="Blancos">
    <path class="cls-4" d="m165.07,220.42c-4.8-.32-9.15-1.57-12.01-2.47-27.18-8.63-47.98-26.58-70.42-47.4-19.08-17.7-34.93-32.82-50.27-49.02-2.54-2.69-4.79-5.4-6.97-8.03-2.11-2.54-4.09-4.94-6.1-7-.99-1.01-2.18-2.07-3.44-3.19-3.98-3.53-8.93-7.91-12.3-15.1-6.2-13.22-2.89-26.21-.48-35.7l.2-.77c.25-.99.41-2.57.57-4.23.36-3.68.81-8.26,2.79-13.09.78-1.91,1.76-3.63,2.84-5.15-.5-1.13-.94-2.39-1.26-3.77-1.54-6.7.56-13.43,5.77-18.48C18.76,2.37,23.71,1.23,27.03,1.09c.68-.03,1.34-.02,2,.02,5.71.38,9.79,3.18,12.64,6.02C47.71,3.44,55.3.03,64.35,0c.98,0,1.98.03,2.96.09,21.67,1.46,32.56,18.61,40.51,31.14.85,1.34,1.69,2.67,2.53,3.95.92,1.41,1.86,2.82,2.8,4.23,5.4,8.13,10.99,16.54,15,26.24,3.3,8,8.3,16.25,13.12,24.22l1.71,2.83c7.58,12.57,15.98,24.82,24.96,36.41,1.01,1.3,2.02,2.6,3.04,3.89,3.41,4.35,6.93,8.86,10.26,13.59.64.91,1.41,1.89,2.23,2.94,4.01,5.14,9.51,12.18,9.77,22.94.08,3.3-.39,6.18-.77,8.49-.12.74-.28,1.7-.34,2.32.06.13.13.27.18.39.8,1.69,2,4.25,2.59,7.52,2.18,12.02-5.93,24.33-18.46,28.04-3.55,1.05-7.37,1.45-11.36,1.18h0Z"/>
  </g>
  <g id="Layer_1-2" data-name="Layer 1">
    <g>
      <path class="cls-1" d="m27.68,16.07c2.71-.11,4.7,3.21,6.51,5.59,3.08,4.06,5.73,8.48,7.17,13.4,1.06,3.63,2.35,20.97-2.56,16.15-.49-.48-.9-1.17-1.31-1.84-2.5-4.17-4.91-8.39-7.22-12.67-1.36-2.52-2.19-5.28-3.47-7.83-1.83-3.67-6.62-6.99-2.38-11.1,1.2-1.16,2.28-1.66,3.26-1.7Z"/>
      <path class="cls-3" d="m17.62,56.15c-2.17,8.53-4.41,17.3-.49,25.67,2.93,6.25,8.32,9.46,12.93,14.21s8.6,10.32,13.2,15.17c15.87,16.77,32.65,32.63,49.58,48.33,19.31,17.92,39.66,36.13,64.76,44.1,4.72,1.5,9.83,2.61,14.57,1.21s8.84-6.11,7.95-10.98c-.44-2.41-1.97-4.48-2.63-6.84-1.3-4.59.85-9.44.73-14.21-.18-7.4-5.31-11.99-9.26-17.6s-8.52-11.29-12.89-16.93c-9.38-12.1-18.05-24.75-25.95-37.86-5.61-9.31-11.69-19-15.85-29.06s-10.55-18.93-16.48-27.99c-8.17-12.47-16.24-28.47-33.39-28.4-6.76.02-12.83,3.38-18.24,7.12-5.4,3.74-11.4,6.66-17.2,9.88-3.48,1.93-6.95,4.4-8.46,8.09-1.97,4.82-1.43,10.33-2.7,15.33-.06.24-.12.49-.19.73Z"/>
      <path class="cls-2" d="m85.4,52.18c5.63,7.54,9.88,16.1,12.94,25,3.11,8.92,5.12,18.15,6.99,27.34.86,4.6,1.94,9.04,3.68,13.37,5.1,13.12,14.64,23.71,24.32,33.77-10.56-9.23-20.71-19.83-26.08-33.07-1.83-4.36-2.99-9.07-3.88-13.68-3.57-18.33-7.88-36.75-17.98-52.73h0Z"/>
      <path class="cls-2" d="m177.7,187.97c-1.65-2.79-3.9-5.18-6.35-7.27-1.91-1.48-3.91-2.78-5.68-4.45-.61-.54-1.24-1.07-1.81-1.74l.09-.18c5.17.89,8.76,5.07,11.65,9.12.91,1.41,1.74,2.86,2.29,4.44,0,0-.18.08-.18.08h0Z"/>
      <path class="cls-4" d="m21.79,75.12c1.09,2.87,3.64,4.9,5.78,7,6.82,6.29,14.4,11.5,20.92,18.22,8.56,8.93,15.91,18.8,23.99,28.14-9.11-8.29-16.86-17.96-25.42-26.77-6.44-6.57-13.96-12.08-20.22-18.87-1.95-2.33-4.38-4.66-5.06-7.72h0Z"/>
    </g>
  </g>
</svg>