<?xml version="1.0" encoding="UTF-8"?>
<svg id="Layer_2" data-name="Layer 2" xmlns="http://www.w3.org/2000/svg" viewBox="0 0 162.8 195.17">
  <defs>
    <style>
      .cls-1 {
        fill: #fff;
      }

      .cls-2 {
        fill: #008d4a;
      }

      .cls-3 {
        fill: #cd7534;
      }

      .cls-4 {
        fill: #231f20;
      }
    </style>
  </defs>
  <g id="Blancos">
    <path class="cls-1" d="m3.67,89.87c-4.59,14.82-4.88,31.96-.84,48.25,3.09,12.44,8.25,33.27,22.58,43.97,6.73,5.02,15.16,7.79,23.74,7.79.47,0,.94,0,1.41-.02,4.01-.14,7.9-.86,11.63-2.15,8.48,6.43,18.94,7.05,23.82,7.33,1.39.08,2.79.12,4.15.12,19.26,0,36.14-8.19,48.82-23.67,8.33-10.17,14.57-20.71,18.56-31.31,4.5-11.98,6.16-25.28,4.79-38.45-1.55-14.87-5.98-26.97-13.17-35.98-7.83-9.81-19.36-15.67-30.84-15.67-2.83,0-5.62.36-8.32,1.05-1.94-10.47-5.05-20.42-7.7-28.88-1.36-4.35-5.5-17.59-18.98-20.57-1.52-.34-3.08-.51-4.65-.51s-3.28.19-4.89.56c-1.05-.47-2.13-.87-3.24-1.18-1.35-.38-2.72-.57-4.07-.57-4.76,0-9.34,2.27-12.2,6.28-3.73,5.21-4.39,11.79-1.83,18.04.4.98.86,1.9,1.33,2.74-.74,5.84-.42,11.83.94,17.52-.29.03-.58.06-.86.09-23.11,2.6-42.33,19.92-50.17,45.21Z"/>
  </g>
  <g id="Layer_1-2" data-name="Layer 1">
    <g>
      <path class="cls-3" d="m74,42.88c-.32.98-.91,2.07-1.93,2.18-1.29.14-2.08-1.34-2.43-2.59-1.37-4.85-1.64-10.01-.79-14.97.2-1.17.47-2.33.84-3.46-.33-.57-.69-1.12-1.07-1.64-1.62-2.24-3.77-5.15-2.17-7.39,2.38.67,4.35,2.34,5.75,4.4.57.83,1.05,1.72,1.42,2.64.42,1.03.73,2.09.96,3.17.49,2.3.61,4.69.64,7.04.05,3.59-.11,7.23-1.23,10.63Z"/>
      <path class="cls-3" d="m96.77,74.25c-1.76,0-3.52.17-5.29.28-1.3.08-2.61.12-3.89.03-2.21-.16-3.94-1.03-5.81-1.89,1.83-11.21,1.71-22.75-.38-33.91-.96-5.1-2.61-10.58-6.8-13.55-.23-1.08-.53-2.14-.96-3.17-.37-.92-.85-1.81-1.42-2.64,1.91-2.25,4.97-3.7,7.86-3.06,4.47.99,6.54,6.03,7.91,10.4,4.83,15.45,9.72,31.48,8.78,47.51Z"/>
      <path class="cls-3" d="m74.6,25.2c-.16-.12-.32-.23-.49-.33"/>
      <path class="cls-4" d="m69.71,24.04c2.97,3.93,3.97,9.46,2.51,14.17.3-4.93-.54-9.64-2.51-14.17h0Z"/>
      <path class="cls-2" d="m147.41,103.29c-1.02-9.8-3.66-20.27-9.97-28.18-7.09-8.88-19.65-13.7-29.81-6.63-.21-.17-.44-.34-.68-.49-2.73-1.89-7.11-3.39-10.25-3.51-.23,0-.46-.02-.7-.02-1.76,0-3.52.17-5.29.28-1.3.08-2.61.12-3.89.03-2.21-.16-3.94-1.03-5.81-1.89-.59-.28-1.2-.54-1.85-.79-2.57-.99-5.61-1.37-8.64-1.63-2.32-.2-4.63-.34-6.73-.62-2.7-.37-5.42-.6-8.28-.28-18.8,2.11-32.14,17.39-37.52,34.74-3.98,12.85-3.84,27.2-.61,40.2,2.83,11.39,7.12,28.19,16.99,35.56,4.47,3.34,10.09,4.99,15.65,4.79,2.78-.1,5.54-.64,8.13-1.65,1.19-.47,2.22-.94,3.15-1.32.44-.19.86-.35,1.26-.48,2.27-.75,4.06-.53,6.69,2.48,4.25,4.87,11.55,5.82,17.63,6.17,16.59.97,30.1-5.39,40.49-18.08,6.69-8.16,12.41-17.21,16.12-27.08,3.7-9.83,5.03-20.88,3.91-31.62Z"/>
      <path class="cls-1" d="m106.95,67.99c4.99,3.35,9.87,7.01,13.92,11.62,8.03,9.3,11.92,21.88,11.39,34.09-.28,6.11-1.7,12.18-4.35,17.61,1.68-5.76,2.6-11.67,2.53-17.64-.11-11.74-3.44-23.76-10.69-33.12-3.64-4.69-8.22-8.63-12.79-12.56h0Z"/>
      <path class="cls-1" d="m109.53,154.89c-2.92,9.69-11.15,22.88-22.88,21.14-1.6-.32-3.11-.96-4.38-1.89,13.05,4.35,21.23-10.07,27.26-19.25h0Z"/>
      <path class="cls-1" d="m70.52,60.47c-5.86.67-11.25,3.24-16.2,6.31-9.9,6.19-17.83,15.1-22.69,25.75-2.5,5.28-4.47,10.85-6.51,16.41,1.17-5.8,2.69-11.56,4.95-17.09,4.38-11.21,12.85-20.72,23.38-26.52,5.18-2.85,11.07-5.09,17.05-4.86h0Z"/>
      <path class="cls-4" d="m61.24,171.93c2.84-1.8,4.64-4.59,6.03-7.57,0,0,.99,1.72.99,1.72,1.27,2.04,2.9,3.9,5.14,5.09-2.86.41-5.54-1.64-7.01-4,0,0,1.9-.06,1.9-.06-1.26,2.65-3.98,4.93-7.04,4.82h0Z"/>
      <path class="cls-1" d="m90.71,64.74c-4.58,2.54-8.59,6.18-11.4,10.5-1.3,2.23-2.2,4.68-3.08,7.1-.88,2.48-1.63,5.02-2.4,7.63-.29-5.45.92-11.12,3.66-15.87,3.09-4.59,7.81-8.23,13.22-9.36h0Z"/>
      <path class="cls-1" d="m25.14,135.34c2.9,8.8,5.69,17.49,9.6,25.9-6.27-6.3-9.83-17.1-9.6-25.9h0Z"/>
    </g>
  </g>
</svg>