<?xml version="1.0" encoding="UTF-8"?>
<svg xmlns="http://www.w3.org/2000/svg" viewBox="0 0 218.86 164.44">
  <defs>
    <style>
      .cls-1 {
        fill: #19995c;
      }

      .cls-1, .cls-2, .cls-3, .cls-4, .cls-5, .cls-6, .cls-7, .cls-8, .cls-9, .cls-10 {
        stroke-width: 0px;
      }

      .cls-2 {
        fill: #b2ddc9;
      }

      .cls-3 {
        fill: #008d4a;
      }

      .cls-11 {
        isolation: isolate;
      }

      .cls-4 {
        fill: #eab520;
        mix-blend-mode: hard-light;
        opacity: .39;
      }

      .cls-5 {
        fill: #8cccae;
      }

      .cls-6 {
        fill: #73c09c;
      }

      .cls-7 {
        fill: #fff;
      }

      .cls-8 {
        fill: #33a46e;
      }

      .cls-9 {
        fill: #4caf81;
      }

      .cls-10 {
        fill: #66bb93;
      }
    </style>
  </defs>
  <g class="cls-11">
    <g id="Layer_2" data-name="Layer 2">
      <g id="Blancos">
        <path class="cls-7" d="m79.07,164.44c-5.52-.01-10.38-.34-14.78-1.01-11.43-1.72-20.43-5.69-27.49-12.12-9.96-9.1-17.16-20.88-20.86-34.08-1.22-4.36-2.03-8.8-2.41-13.24-4.38-5.67-7.74-11.65-10.01-17.84-.73-1.98-1.35-3.99-1.83-5.93-.63-2.51-1.1-5.18-1.37-7.9-.33-3.16-.4-6.5-.2-9.87.18-3.03.59-6.1,1.23-9.14.85-4.04,2.1-8.03,3.72-11.88,3.93-9.31,10.16-17.84,18.02-24.67,3.43-2.98,7.14-5.62,11.03-7.85,6.9-3.97,14.3-6.65,21.97-7.97,3.55-.61,7.19-.92,10.82-.92,17,0,33.71,6.78,46.37,18.32,9.23-5.62,20.27-9.24,32.26-10.55,3.11-.34,6.21-.51,9.23-.51,8.71,0,16.86,1.4,24.22,4.17,2.03.76,3.89,1.57,5.68,2.48,2.33,1.18,4.65,2.56,6.87,4.1,8.52,5.92,15.55,14.15,20.34,23.8,10.18,20.51,9.18,45.44-2.61,65.06-12.04,20.04-34.61,32.49-58.89,32.49h0c-2.87,0-5.71-.18-8.52-.53-.42.68-.86,1.34-1.3,1.99-.08.12-.17.24-.25.36-.88,1.26-1.83,2.51-2.84,3.71-3.71,4.46-8.1,8.21-12.99,11.08-11.85,6.94-24.91,7.93-36.23,8.31-2.56.08-5.3.16-8.11.16h-1.05Z"/>
      </g>
      <g id="Layer_1-2" data-name="Layer 1">
        <g>
          <path class="cls-10" d="m18.9,47.22c-1.24,2.95-2.21,6.02-2.87,9.15.9.71,1.92,1.25,3.01,1.58.28-2.61,1.01-5.12,2.63-6.23.21-.15.42-.27.64-.38h.01c.55-2.52,1.75-5.35,2.52-7.52,1.98-5.58,4.71-10.9,8.09-15.76-6.03,5.24-10.92,11.79-14.03,19.16Zm7.7,9.43c0,.16-.01.32-.01.48.02-.16.05-.32.1-.47-.03-.01-.06-.01-.09-.01Zm93.17,3.82c-3.73-28.68-32.8-49.63-61.14-44.77-6,1.03-11.78,3.17-17.05,6.2-1.11,1.33-2.38,2.55-3.3,4.16-1.9,3.35-3.61,6.83-5.14,10.37-2.27,5.27-4.13,10.72-5.54,16.29,1.08,1.16,1.86,2.74,2.15,4.19,6.18.5,12.42.99,18.6,1.11,4.05.08,8.11.16,12.17.24,3.01.07,8.54,1.26,11.51.36-12.51,4.87-26.05,7.08-39.46,6.45-1.33-.06-2.67-.1-4.01-.12-.42,1.26-.95,2.48-1.82,3.46-.19.22-.41.43-.64.61.46,1.94.91,3.89,1.26,6.01.82,4.23,2.21,8.35,4.13,12.2,1.14,2.3,2.49,4.55,3.11,7.04.63,2.49.42,5.37-1.28,7.3-4-1.94-5.86-6.54-7.18-10.79-1.22-3.95-2.81-7.76-3.66-11.82-.62-2.95-.65-6.06-.58-9.16h0c-1.65-.76-2.45-2.74-2.75-4.64-1.36-.61-2.71-1.22-4.06-1.83-.15,2.49-.11,4.98.15,7.45.2,1.96.53,3.9,1.01,5.81.37,1.49.83,2.95,1.36,4.39,3.07,8.38,8.65,15.8,15.2,21.93,7.75,7.24,17.12,12.97,27.45,15.37,32.82,7.6,63.62-26.2,59.51-57.81Zm-93.17-3.82c0,.16-.01.32-.01.48.02-.16.05-.32.1-.47-.03-.01-.06-.01-.09-.01Z"/>
          <path class="cls-2" d="m26.69,56.66c-.05.15-.08.31-.1.47,0-.16.01-.32.01-.48.03,0,.06,0,.09.01Z"/>
          <path class="cls-5" d="m41.58,21.9c-1.11,1.33-2.38,2.55-3.3,4.16-1.9,3.35-3.61,6.83-5.14,10.37-2.27,5.27-4.13,10.72-5.54,16.29-1.4-1.52-3.3-2.36-5.28-1.38.55-2.52,1.75-5.35,2.52-7.52,1.98-5.58,4.71-10.9,8.09-15.76,2.68-2.33,5.58-4.4,8.65-6.16Z"/>
          <path class="cls-5" d="m26.69,56.66c-.05.15-.08.31-.1.47,0-.16.01-.32.01-.48.03,0,.06,0,.09.01Z"/>
          <path class="cls-5" d="m33.32,101.57c-4-1.94-5.86-6.54-7.18-10.79-1.22-3.95-2.81-7.76-3.66-11.82-.62-2.95-.65-6.06-.58-9.16.13.06.27.11.42.16,1.3.39,2.71-.07,3.78-.94.46,1.94.91,3.89,1.26,6.01.82,4.23,2.21,8.35,4.13,12.2,1.14,2.3,2.49,4.55,3.11,7.04.63,2.49.42,5.37-1.28,7.3Z"/>
          <path class="cls-5" d="m19.15,65.16c-1.36-.61-2.71-1.22-4.06-1.83.14-2.34.46-4.67.94-6.96.9.71,1.92,1.25,3.01,1.58-.27,2.43-.14,4.95.01,6.48.02.24.05.48.1.73Z"/>
          <path class="cls-5" d="m72.03,58.62c-12.51,4.87-26.05,7.08-39.46,6.45-1.33-.06-2.67-.1-4.01-.12.11-.32.21-.64.31-.96.6-2.01,1.11-4.09.99-6.18-.01-.29-.05-.59-.11-.9,6.18.5,12.42.99,18.6,1.11,4.05.08,8.11.16,12.17.24,3.01.07,8.54,1.26,11.51.36Z"/>
          <path class="cls-2" d="m29.86,57.81c-.01-.29-.05-.59-.11-.9-.29-1.45-1.07-3.03-2.15-4.19-1.4-1.52-3.3-2.36-5.28-1.38h-.01c-.22.11-.43.23-.64.38-1.62,1.11-2.35,3.62-2.63,6.23-.27,2.43-.14,4.95.01,6.48.02.24.05.48.1.73.3,1.9,1.1,3.88,2.75,4.63h0c.13.07.27.12.42.17,1.3.39,2.71-.07,3.78-.94.23-.18.45-.39.64-.61.87-.98,1.4-2.2,1.82-3.46.11-.32.21-.64.31-.96.6-2.01,1.11-4.09.99-6.18Z"/>
          <path class="cls-8" d="m119.59,86.05c2.46-18.09-8.55-9.89-9.89-19.16-.4-2.96.76-7.01-.86-9.26-.96-1.38-2.99-2.06-5.13-2.89-2.24-.77-4.64-2.45-5.92-4.53-2.55-3.72-3.12-8.44-6.24-11.45-5.24-4.63-13.82,2.93-18.13-5.9-1.03-1.91-2.04-2.97-4.26-2.57-2.15.38-4.67,1.46-6.97.62-3.36-1.06-5.57-4.35-9.09-3.28-.98.35-1.92,1.19-2.01,2.34-.04-2.57,3.17-3.74,5.33-3.01,2.31.6,4.17,2.11,6.16,2.53,1.94.53,3.82-.54,6.19-1.13,2.97-.82,5.25.82,6.63,3.27,1.12,1.86,2.17,2.96,4.31,3.12,1.93.17,4.13-.34,6.52-.47,2.47-.21,5.44.49,7.28,2.3,3.63,3.27,4.32,8.25,6.7,11.99,1.71,2.89,4.88,3.48,7.74,4.97,4.06,1.95,4.64,5.94,4.02,9.95-.47,3.56-.24,6.05,3.17,7.33,6.45,2.44,6.17,9.74,4.42,15.22h0Z"/>
          <path class="cls-1" d="m68.29,75.38c7.5-2.99,15.81-5.28,21.01-11.67,1.31-1.52,2.58-3.28,4.33-4.78,3.38-3.04,7.94-3.28,11.7-5.16,1.77-.88,3.4-2.17,4.23-4.13-.09,1.06-.51,2.11-1.13,3.02-3.02,4.49-9.3,4.85-12.89,8.38-2.78,2.85-5.27,6.87-8.92,9.01-5.47,3.5-12.01,4.79-18.32,5.34h0Z"/>
          <path class="cls-9" d="m198.44,48.48c-3.57-7.19-8.89-13.58-15.47-18.15.48,1.13.9,2.29,1.29,3.45.73,2.19,1.36,4.42,1.9,6.66,1.71,1.21,3.24,2.72,4.49,4.38,2.78,3.68,4.47,8.03,6.02,12.38.16.46.33.92.49,1.38-.16-.46-.33-.92-.49-1.38-1.75-4.4-5.1-8.12-9.22-10.45.83,5.04,1.22,10.15,1.15,15.25,1.23.69,2.37,1.76,3.46,3.14,2.78,3.55,5.62,7.2,6.99,11.5-2.2-4.13-6.22-7.24-10.75-8.4-.45,5.28-1.38,10.52-2.8,15.63,1.3-4.66.24-11.3-.15-16.08-5.04-.2-10.14,2.5-14.37,4.71,1.42-.75,2.22-3.56,3.26-4.81,1.74-2.09,4.05-4.11,6.47-5.37,1.4-.73,2.7-1.12,3.9-1.21-.78-5.63-1.98-11.2-3.58-16.65-6.56-1.05-17.74,1.64-21.43,7.67,3.83-6.25,9.85-14.58,18.22-14.57.32,0,.63.01.95.04-1.55-3.92-3.63-7.68-4.92-11.63-.06-.18-.09-.33-.13-.5-8.36-3.14-17.62-3.76-26.54-2.79-10.54,1.15-21,4.5-29.55,10.77-27.18,19.91-21.67,65.31,4.97,82.81,24.17,15.89,59.02,7.53,73.83-17.11,9.08-15.11,9.87-34.88,2.04-50.67Z"/>
          <path class="cls-8" d="m125.95,135.25c-2.57,3.09-5.61,5.74-9.09,7.78-8.71,5.1-19.13,5.92-29.15,6.26-2.74.09-5.61.17-8.54.15,1.14-1.06,2.13-2.29,2.91-3.64.47-.09.92-.2,1.35-.32,14.78,2.07,30.27-1.74,42.52-10.23Z"/>
          <path class="cls-8" d="m136.34,107.5c-.47,8.8-3.24,17.67-8.16,24.82-3.21,1.59-6.63,3.02-10.16,4.23.36-3.34,1.6-7.38,3.88-9.13-4.7,3.17-8.07,6.94-11.35,11.33-7.23,1.78-14.62,2.62-21.37,2.2.91-2.28.07-4.69-1.78-6.46,2.06-4.24,3.88-8.59,5.46-13.03.74-.16,1.47-.36,2.18-.58,8.63-2.74,16.72-8.74,21.36-16.51-5.19,3.2-13.66,9.04-21.06,9.44,1.17-4.03,2.15-8.12,2.93-12.25,9.24-.04,18.75-12.51,22.51-19.15-3.64,6.41-13.81,10.63-21.11,10.31.74-6.08,1.08-12.2,1-18.32.77-.11,1.51-.33,2.19-.59,3.36-1.28,5.98-3.47,7.14-6-2.56,1.52-6.23,2.08-9.51,1.52-.12-2.38-.31-4.75-.57-7.12-.39,2.23-.8,4.45-1.25,6.66-2.49-.84-4.04-2.31-5.56-3.9-.07,2.46,1.11,5.06,2.68,7.26.46.64,1.02,1.3,1.82,1.73-1.2,5.5-2.57,10.96-4.12,16.37-1.99-1.98-2.94-4.94-4.97-7.85-2.03-2.92-6.65-10.11-5.81-13.88-1.26,5.69.66,17.35,5.03,25.15.99,1.76,2.1,3.34,3.35,4.59-1.32,4.19-2.74,8.34-4.27,12.46-5.67-5.31-9.65-14.34-10.9-21.84,1.39,8.55,3.02,16.45,5.6,24.7.55,1.74,1.2,3.57,2.25,5.04-1.68,4.14-3.46,8.24-5.34,12.3-.12.27-.27.55-.42.83h-.01c-2.75.39-5.31,1.71-7.44,3.78l-.15.15c-8.69-2.05-16.79-6.13-23.77-11.68h0c.13-.88.16-1.94.07-3.21-.66-8.85-3.03-17.76-6.31-25.98-.24,7.59-.48,15.19-.72,22.78-4.61-4.91-8.47-10.54-11.32-16.62-.01-.15-.02-.31-.03-.46-1.29-27.49,20.03-49.24,46.15-52.33,33.3-3.94,63.73,24.72,61.86,59.24Z"/>
          <path class="cls-8" d="m70.74,144.73c-1.45,1.23-2.94,2.49-4.22,3.87-7.3-1.1-14.25-3.48-19.63-8.38-7.89-7.21-13.63-16.73-16.51-27.03,7.75,13.82,21.39,24.03,37.51,28.84h0c.44,1.13,1.47,2.03,2.85,2.7Z"/>
          <path class="cls-6" d="m67.89,142.03c-16.12-4.81-29.76-15.02-37.51-28.84-1.11-3.96-1.8-8.03-2.02-12.14,2.85,6.08,6.71,11.71,11.32,16.62.24-7.59.48-15.19.72-22.78,3.28,8.22,5.65,17.13,6.31,25.98.09,1.27.06,2.33-.07,3.2h0c6.98,5.56,15.08,9.64,23.77,11.69-2.57,2.56-3.16,4.65-2.52,6.27Z"/>
          <path class="cls-2" d="m87.4,134.49c-1.04-1-2.41-1.8-3.96-2.26-1.83-.55-3.66-.67-5.43-.4h-.01c-2.75.39-5.31,1.71-7.44,3.78l-.15.15c-2.57,2.56-3.16,4.65-2.52,6.27h0c.44,1.13,1.47,2.03,2.85,2.7,2.98,1.43,7.58,1.8,11.34,1.07.47-.09.92-.2,1.35-.32,1.17-.34,2.22-.8,3.06-1.38,1.37-.96,2.24-2.04,2.69-3.15.91-2.28.07-4.69-1.78-6.46Z"/>
          <path class="cls-6" d="m82.08,145.8c-.78,1.35-1.77,2.58-2.91,3.64-4.18-.01-8.47-.21-12.65-.84,1.28-1.38,2.77-2.64,4.22-3.87,2.98,1.43,7.58,1.8,11.34,1.07Z"/>
          <path class="cls-6" d="m95.34,113.81c7.4-.4,15.87-6.24,21.06-9.44-4.64,7.77-12.73,13.77-21.36,16.51-.71.22-1.44.42-2.18.58-1.58,4.44-3.4,8.79-5.46,13.03-1.04-1-2.41-1.8-3.96-2.26-1.83-.55-3.66-.67-5.43-.4.15-.28.3-.56.42-.83,1.88-4.06,3.66-8.16,5.34-12.3-1.05-1.47-1.7-3.3-2.25-5.04-2.58-8.25-4.21-16.15-5.6-24.7,1.25,7.5,5.23,16.53,10.9,21.84,1.53-4.12,2.95-8.27,4.27-12.46-1.25-1.25-2.36-2.83-3.35-4.59-4.37-7.8-6.29-19.46-5.03-25.15-.84,3.77,3.78,10.96,5.81,13.88,2.03,2.91,2.98,5.87,4.97,7.85,1.55-5.41,2.92-10.87,4.12-16.37-.8-.43-1.36-1.09-1.82-1.73-1.57-2.2-2.75-4.8-2.68-7.26,1.52,1.59,3.07,3.06,5.56,3.9.45-2.21.86-4.43,1.25-6.66.26,2.37.45,4.74.57,7.12,3.28.56,6.95,0,9.51-1.52-1.16,2.53-3.78,4.72-7.14,6-.68.26-1.42.48-2.19.59.08,6.12-.26,12.24-1,18.32,7.3.32,17.47-3.9,21.11-10.31-3.76,6.64-13.27,19.11-22.51,19.15-.78,4.13-1.76,8.22-2.93,12.25Z"/>
          <path class="cls-6" d="m128.18,132.32s-.02.01-.02.02c-.69,1.01-1.43,1.98-2.21,2.91-12.25,8.49-27.74,12.3-42.52,10.23,1.17-.34,2.22-.8,3.06-1.38,1.37-.96,2.24-2.04,2.69-3.15,6.75.42,14.14-.42,21.37-2.2,3.28-4.39,6.65-8.16,11.35-11.33-2.28,1.75-3.52,5.79-3.88,9.13,3.53-1.21,6.95-2.64,10.16-4.23Z"/>
          <path class="cls-3" d="m55.1,62.97c-2.66,3.45-5.74,7.07-5.91,11.49-.11,2.98,1.7,5.14,3.16,7.7,2,3.14,2.07,6.6.37,9.86-2.18,4.71-3.57,6.5,1.96,9.11,3.05,1.62,4.63,5.31,4.88,8.57.52,4.58-.53,9.12,2.63,12.66.96,1.05,2.28,1.87,3.82,1.93-3.25.51-6.09-2.33-7.16-5.22-1.13-3.04-1.09-6.24-1.61-9.03-1.28-8.7-8.03-5.44-9.37-12.06-.51-4.04,3.17-7.21,3.26-10.89-.02-2.74-2.16-5.15-3.17-7.83-2.86-6.39,2.43-12.61,7.13-16.3h0Z"/>
          <path class="cls-3" d="m99.49,133.49c3.18-2.34,6.47-4.41,9.81-6.38,3.13-1.99,7.65-3.81,8.07-7.75.06-.96-.06-1.99.14-3.05.28-1.82,1.67-3.48,3.13-4.34,4.19-2.83,10.21-1.04,13.27-5.48-1.08,4.17-6.12,4.98-9.52,6.39-2.5,1.14-4.28,2.35-4.04,5.09.46,3.47-1.77,6.73-4.61,8.46-5.2,3.05-10.61,5.06-16.24,7.06h0Z"/>
          <path class="cls-5" d="m178.76,37.6c-.31-.02-.63-.04-.95-.04-8.38,0-14.39,8.32-18.22,14.57,3.7-6.03,14.87-8.72,21.43-7.67,1.6,5.45,2.8,11.02,3.58,16.65-1.21.1-2.5.48-3.9,1.21-2.42,1.26-4.72,3.28-6.47,5.37-1.04,1.25-1.85,4.07-3.26,4.81,4.24-2.21,9.34-4.91,14.37-4.71.39,4.77,1.45,11.42.15,16.08,1.42-5.11,2.36-10.35,2.8-15.63,4.53,1.16,8.55,4.26,10.75,8.4-1.37-4.3-4.21-7.95-6.99-11.5-1.09-1.39-2.23-2.45-3.46-3.14.07-5.1-.32-10.21-1.15-15.25,4.13,2.32,7.48,6.04,9.22,10.45-1.55-4.35-3.24-8.7-6.02-12.38-1.26-1.66-2.78-3.17-4.49-4.38-.55-2.24-1.17-4.47-1.9-6.66-.39-1.16-.8-2.32-1.29-3.45-1.61-1.12-3.3-2.14-5.06-3.03-1.37-.69-2.78-1.29-4.21-1.83.04.17.07.31.13.5,1.29,3.95,3.38,7.71,4.92,11.63Z"/>
          <path class="cls-1" d="m131,34.02c-3.51,17.91,7.95,10.37,8.75,19.71.22,2.98-1.17,6.95.31,9.29.87,1.44,2.86,2.23,4.95,3.18,2.2.9,4.49,2.71,5.64,4.87,2.32,3.86,2.62,8.61,5.56,11.79,4.96,4.93,13.97-2.12,17.75,6.95.91,1.97,1.86,3.08,4.1,2.81,2.17-.25,4.75-1.18,6.99-.21,3.29,1.25,5.3,4.67,8.88,3.81,1-.29,1.98-1.07,2.14-2.22-.12,2.57-3.39,3.55-5.5,2.7-2.27-.73-4.04-2.35-6-2.89-1.9-.64-3.84.31-6.25.77-2.97.66-5.22-1.15-6.43-3.65-1.01-1.92-2-3.08-4.12-3.37-1.92-.28-4.14.09-6.54.08-2.48.07-5.4-.8-7.13-2.73-3.43-3.48-3.82-8.48-5.99-12.36-1.54-2.99-4.66-3.76-7.44-5.42-3.94-2.18-4.29-6.2-3.43-10.17.68-3.53.6-6.03-2.74-7.5-6.3-2.82-5.59-10.08-3.52-15.45h0Z"/>
          <path class="cls-1" d="m149.58,71.47c-1.37,3.99-2.96,7.86-4.01,11.78-1.04,3.93-1.56,7.87-.85,11.75.3,1.98.8,4.1.8,6.4.01,2.34-.68,4.61-1.53,6.54-1.57,3.76-3.71,7.58-1.82,11.6-3.14-3.34-1.6-8.62-.38-12.39,1.5-4.11.79-7.47-.03-11.68-1.47-8.71,2.88-17.19,7.82-24h0Z"/>
        </g>
        <path class="cls-4" d="m198.44,48.48c-3.57-7.19-8.89-13.58-15.47-18.15-1.61-1.12-3.3-2.14-5.06-3.03-1.37-.69-2.78-1.29-4.21-1.83-8.36-3.14-17.62-3.76-26.54-2.79-10.54,1.15-21,4.5-29.55,10.77-2.27,1.67-4.3,3.52-6.12,5.51-11.38-16.73-32.31-26.79-52.86-23.26-6,1.03-11.78,3.17-17.05,6.2-3.07,1.76-5.97,3.83-8.65,6.16-6.03,5.24-10.92,11.79-14.03,19.16-1.24,2.95-2.21,6.02-2.87,9.15-.48,2.29-.8,4.62-.94,6.96-.15,2.49-.11,4.98.15,7.45.2,1.96.53,3.9,1.01,5.81.37,1.49.83,2.95,1.36,4.39,2.33,6.37,6.12,12.18,10.68,17.3,0,.77.01,1.53.05,2.31.01.15.02.31.03.46.22,4.11.91,8.18,2.02,12.14,2.88,10.3,8.62,19.82,16.51,27.03,5.38,4.9,12.33,7.28,19.63,8.38,4.18.63,8.47.83,12.65.84,2.93.02,5.8-.06,8.54-.15,10.02-.34,20.44-1.16,29.15-6.26,3.48-2.04,6.52-4.69,9.09-7.78.78-.93,1.52-1.9,2.21-2.91,0-.01.01-.01.02-.02,2.25-3.27,4.02-6.9,5.36-10.71,22.79,7.8,50.18-1.35,62.86-22.46,9.08-15.11,9.87-34.88,2.04-50.67Z"/>
      </g>
    </g>
  </g>
</svg>