<?xml version="1.0" encoding="UTF-8"?>
<svg xmlns="http://www.w3.org/2000/svg" viewBox="0 0 159.31 237.11">
  <defs>
    <style>
      .cls-1 {
        fill: #fff;
      }

      .cls-2 {
        fill: #f3d279;
        mix-blend-mode: color-burn;
        opacity: .5;
      }

      .cls-3 {
        fill: #149659;
      }

      .cls-4 {
        fill: #008d4a;
      }

      .cls-5 {
        fill: none;
        isolation: isolate;
      }

      .cls-6 {
        fill: #4caf81;
      }

      .cls-7 {
        fill: #42ab79;
      }

      .cls-8 {
        fill: #2ba069;
      }
    </style>
  </defs>
  <g class="cls-5">
    <g id="Layer_2" data-name="Layer 2">
      <g id="Blancos">
        <path class="cls-1" d="m49.48,237.11c-.44,0-.87-.02-1.3-.05-1.38-.11-2.66-.37-3.9-.77-2.89-.93-5.51-2.69-7.54-5.07-2.16-2.53-3.57-5.7-4.04-9.13-1.03-7.47,2.01-14.34,9.03-20.42.03-.03.06-.05.09-.08.04-.12.08-.24.12-.35l.16-.46c.14-.43.26-.82.36-1.13l.06-.2c.24-.79.47-1.75.72-3.04.18-.94.35-1.88.51-2.83.3-1.75.61-3.47,1-5.29l6.17-28.29c-.52-.77-1.03-1.53-1.53-2.3-.02-.03-.04-.06-.06-.09-.87-1.33-1.73-2.67-2.58-4.02l-.2-.33c-.79-1.28-1.58-2.57-2.35-3.87-.1-.18-.41-.72-.41-.72-.71-1.2-1.39-2.38-2.05-3.56-.18-.32-.35-.64-.52-.95l-.4-.73c-.49-.89-.98-1.78-1.45-2.68-.28-.54-.56-1.08-.83-1.63l-.6-1.18c-.28-.54-.56-1.09-.83-1.64-.69-1.41-1.37-2.85-2.03-4.28-.03-.07-.07-.14-.1-.22-5.07-11.17-9.4-22.72-13.25-35.31-.61-1.99-1.2-3.98-1.77-5.99-.57-2.01-1.13-4.02-1.67-6.04l-.37-1.37c-.45-1.68-.9-3.37-1.34-5.07-1.68-6.53-3.45-14.31-3.75-22.44-.06-1.58-.02-3.19.11-4.93.07-.92.17-1.82.27-2.68-.09-.1-.17-.21-.26-.32-1.79-2.27-2.92-4.98-3.26-7.83-.13-1.06-.14-2.12-.04-3.17C3.51,33.61-.1,28.01,0,21.62c.05-3.14,1.21-10.91,10.9-15.18.73-.32,1.52-.63,2.34-.91.31-.11.65-.22.97-.32.5-.15.94-.28,1.34-.39.29-.08.55-.15.79-.21.22-.06.46-.11.66-.16.93-.21,1.9-.39,2.99-.54.27-.04.47-.07.68-.09.99-.13,1.97-.21,2.93-.26.11,0,.28-.01.42-.02.47-.02.94-.03,1.42-.03.44,0,.88,0,1.32.02h.4c1.01.06,2.06.14,3.08.27.08,0,.41.05.46.06,2.76-2.49,6.37-3.87,10.06-3.87,1.59,0,3.19.25,4.75.78.74.25,1.46.55,2.17.92,0,0,0,0,.01,0,.18.09.36.19.54.29.01,0,.02.01.04.02,2.46,1.42,4.65,3.3,6.49,5.58,2.36,2.91,4.09,6.35,5.15,10.23.4,1.45.68,2.93.85,4.4.09.75.14,1.49.17,2.22.92,1.19,1.69,2.45,2.29,3.78.02.04.03.08.05.12.33-.44.69-.87,1.07-1.27-.54-2.3-.59-4.6-.16-6.88.9-4.79,3.86-8.84,8.12-11.1,2.26-1.2,4.85-1.84,7.46-1.84.16,0,.31,0,.47,0,2.19-1.86,4.67-3.39,7.42-4.59,2.16-.94,4.45-1.64,6.8-2.08,1.07-.2,2.17-.36,3.27-.46,1.08-.1,2.19-.15,3.31-.15.94,0,1.91.04,2.87.11.91.07,1.85.17,2.78.3h.12c.5.07,1.03.13,1.55.22,3.44.56,6.39,1.91,8.81,4,3.03,2.62,4.99,6.24,5.66,10.44.22,1.4.3,2.82.21,4.22-.05.76-.14,1.5-.28,2.23-.24,1.24-.61,2.46-1.12,3.64-.19.44-.42.91-.67,1.37-1.18,2.21-2.83,4.11-4.83,5.58,4.06,4.15,5.37,10.31,3.29,15.79-.92,2.42-2.42,4.5-4.3,6.11.05.2.25,1.01.25,1.01.26,1.11.5,2.23.72,3.44l.15.83c.23,1.35.4,2.51.52,3.66,1.29,11.87,1.1,23.46.76,33.24-.12,3.48-.28,6.96-.44,10.43-.12,2.64-.24,5.2-.36,7.76l-.06,1.17c-.31,6.43-.63,11.75-1,16.75l-.02.21c-.07.99-.15,1.97-.23,2.94.41.54.82,1.09,1.23,1.62,1.77,2.29,3.54,4.53,5.27,6.66,5.87,7.22,11.64,13.6,17.15,18.98,2.69,2.63,5.37,5.07,7.96,7.25,0,0,.9.75,1.25,1.04l.42.36c.82.71,1.59,1.4,2.32,2.1.34.33.7.69,1.06,1.05.39.4.77.8,1.13,1.21,1.49,1.67,2.67,3.31,3.61,5.03.45.82.85,1.67,1.18,2.52.43,1.1.75,2.2.97,3.3.28,1.42.39,2.84.33,4.24-.19,4.33-1.97,8.4-5.01,11.49-3.16,3.21-7.45,4.98-12.08,4.98h0c-1.51,0-3.02-.18-4.6-.56-.66-.16-1.3-.34-1.98-.56-.25-.08-.48-.16-.71-.24-.1,0-.2.02-.33.03-.67.07-1.49.2-2.36.34-1.11.17-2.38.37-3.73.52-.82.09-1.6.15-2.38.19-1,.05-2.01.08-3,.08h-.02c-.33,0-.57,0-.81-.01h-.18c-.65,0-1.29-.02-1.94-.04-.31-.01-.58-.03-.85-.05h-.19c-.63-.04-1.25-.08-1.87-.13-.27-.02-.55-.05-.82-.08l-.21-.02c-.62-.06-1.25-.12-1.87-.21-.26-.03-.52-.07-.78-.12-.67-.1-1.36-.2-2.03-.31-.29-.05-.5-.09-.71-.14-.7-.13-1.4-.26-2.09-.42-.26-.06-.47-.11-.67-.16-.68-.16-1.38-.32-2.07-.5-.23-.06-.41-.11-.58-.16-.71-.2-1.43-.4-2.13-.62-.11-.03-.29-.09-.47-.15-.73-.23-1.43-.46-2.12-.71-.11-.04-.22-.08-.33-.12-5.58,12.17-12.66,20.76-21.55,26.18-2.43,1.48-5,2.67-7.87,3.64-1.17.39-2.36.75-3.65,1.07-.59.15-1.16.28-1.74.41-2.1.47-4.15.81-6.08,1.12l-.27.04c-.82.13-1.65.26-2.47.41-1.21.21-2.1.38-2.9.56-.22.05-.43.09-.65.14-1.31.26-2.52.39-3.72.39Z"/>
      </g>
      <g id="Layer_1-2" data-name="Layer 1">
        <g>
          <path class="cls-7" d="m83.13,33.74c-1.73,2.37-3.73,4.34-6.88,3.52-.21-.05-.42-.12-.63-.09s-.43.17-.46.39c-.02.16.07.31.15.44.54.84,1.23,1.59,2.03,2.21s1.64.56,2.6.54c2.05-.05,4.12-.7,5.71-2.04,1.45-1.23,2.4-3.06,2.56-4.95.12-1.45-.57-4.06-2.5-2.82-1.06.68-1.86,1.81-2.59,2.81Z"/>
          <path class="cls-7" d="m101.08,36.63c1.48,1.96,2.5,4.29,4.31,5.95-2.07.03-4.14.07-6.19-.23s-4.07-.95-5.74-2.18c-1.67-1.22-2.94-3.06-3.2-5.11-.23-1.8.62-4.17,2.78-3.81,2.01.33,4.05,1.6,5.59,2.86.91.74,1.73,1.59,2.44,2.53Z"/>
          <path class="cls-4" d="m73.05,86.25c-1.2,13.65-1.69,27.35-2.46,41.03-.35,6.19-.77,12.38-1.33,18.56-.52,5.64-2.14,10.3-3.33,15.76-2.17,9.96-4.34,19.92-6.51,29.88-.89,4.08-1.34,8.43-2.55,12.37-.67,2.19-2.57,8.59-5.3,9.15-2.13,1.85-4.38,4.25-4,7.05.11.84.56,1.72,1.36,1.98.51.17,1.07.05,1.6-.07,6.92-1.57,14.24-1.63,20.49-5.44,8.97-5.47,14.28-15.31,18.02-25.13,10.31-27.01,11.73-56.48,13.04-85.36.63-13.82,1.25-27.71-.24-41.47-1.16-10.73-6.18-20.45-10.16-30.44-.37-.92-.76-1.89-1.52-2.53-5.37-4.55-10.72,15.29-11.43,18.16-2.06,8.38-3.5,16.91-4.54,25.48-.45,3.67-.82,7.35-1.15,11.03Z"/>
          <path class="cls-4" d="m108.05,18.39c-.05.82-.53,1.67-1.33,1.89-.76.21-1.54-.2-2.26-.53-3.26-1.46-7.25-1.16-10.26.77-1.36.87-2.55,2.1-3.06,3.63-.77,2.31.1,4.83-.08,7.26-.05.77-.28,1.62-.94,2.01-.79.46-1.81.05-2.48-.57-.95-.88-1.5-2.13-1.77-3.4-.69-3.29.45-6.83,2.66-9.36s5.39-4.11,8.69-4.74c2.44-.46,4.96-.43,7.41-.07.79.11,2.04.13,2.68.68.6.52.77,1.7.72,2.43Z"/>
          <path class="cls-7" d="m90.95,28.23c.76.89,1.45,1.93,1.53,3.1.09,1.22-.49,2.4-1.31,3.31-1.05,1.16-2.53,1.95-4.09,2.1s-3.19-.36-4.33-1.43c-1.39-1.29-1.96-3.23-2.28-5.1s-.44-3.8-1.17-5.55c-.22-.53-.5-1.09-.39-1.66.25-1.32,1.81-.46,2.58-.31,1.21.24,2.39.62,3.52,1.12,2.27,1.01,4.33,2.53,5.94,4.42Z"/>
          <path class="cls-7" d="m41.84,34.84c2.61.42,5.26.55,7.9.4-.09-1.21-1.07-2.16-2.09-2.81-1.35-.87-2.9-1.47-4.5-1.63-1.36-.14-3.93-.15-4.56,1.42-.72,1.78,2.08,2.44,3.26,2.63Z"/>
          <path class="cls-7" d="m24.61,38.01c.06.5.66.72,1.16.8,2.18.37,4.43.36,6.61-.03,1.5-.27,3.08-.79,4-2,.66-.87.9-2.04.64-3.1-.11-.46-.33-.91-.69-1.22-.44-.38-1.05-.51-1.63-.51-1.49.01-2.98.87-3.78,2.11-.9,1.39-2.13,2.51-3.63,3.22-.84.39-1.74.65-2.67.73Z"/>
          <path class="cls-3" d="m32.06,31.53c.29-.76,2.9-3.44,5.14-2.76,2.21.67,6.83,6.62,8.29,8.34,4.89,5.73,10.84,13.62,16.19,24.25,6.76,13.43,10.04,25.61,15.92,39.45,6.44,15.13,17.13,32.4,27.17,45.43,9.51,12.34,20.68,25.19,32.61,35.22,1.89,1.59,9.21,7.28,6.21,10.33-1.37,1.39-4.48-.51-6.13-.74-3.96-.56-8.12.8-12.08.99-24.79,1.21-43.98-15.48-57.76-34.35-7.2-9.86-13.92-20.97-18.97-32.08-6.65-14.65-11.7-29.48-15.86-45.02-2.23-8.35-4.63-16.9-4.95-25.55-.16-4.3.89-8.65,1.36-12.93.16-1.45.63-2.87.96-4.28.46-2,1.64-5.59,1.9-6.28Z"/>
          <path class="cls-8" d="m39.75,33.97c-2.12-.65-4.59,1.9-4.87,2.62-.25.65-1.37,4.06-1.8,5.95-.31,1.34-.76,2.69-.91,4.06-.45,4.06-1.44,8.18-1.29,12.26.3,8.2,2.58,16.3,4.69,24.22,3.94,14.73,8.73,28.79,15.03,42.68,4.78,10.53,11.16,21.06,17.98,30.41,13.06,17.89,31.26,33.71,54.75,32.56,3.76-.18,7.7-1.47,11.45-.94,1.56.22,4.51,2.03,5.81.71,1.01-1.03.78-2.37,0-3.75-1.61-1.8-3.63-3.4-4.49-4.13-11.64-9.78-22.52-22.3-31.79-34.33-9.79-12.7-20.21-29.54-26.49-44.29-5.59-13.15-8.78-24.77-15.04-37.47-5.02-9.9-10.59-17.27-15.17-22.64-1.39-1.63-5.77-7.26-7.86-7.9Z"/>
          <path class="cls-6" d="m44.64,81.97c8.6,2.27,19.28-3.97,16.3-13.8-1.34-4.41-5.47-7.75-10.03-8.4-8.61-1.22-18.33,7.4-13.74,16.3,1.49,2.9,4.33,5.07,7.48,5.9Z"/>
          <path class="cls-6" d="m49.37,102.98c8.6,2.34,19.28-4.09,16.3-14.23-1.34-4.54-5.47-8-10.03-8.66-8.61-1.25-18.33,7.63-13.74,16.81,1.49,2.99,4.33,5.23,7.48,6.08Z"/>
          <path class="cls-6" d="m55.77,120.87c8.85,2.38,19.85-4.17,16.78-14.49-1.38-4.63-5.63-8.14-10.32-8.82-8.86-1.28-18.86,7.77-14.15,17.12,1.54,3.05,4.46,5.32,7.69,6.19Z"/>
          <path class="cls-6" d="m56.71,131.6c1.61,4.04,5.66,6.89,9.98,7.4s8.76-1.19,11.9-4.2c1.88-1.8,3.36-4.15,3.61-6.74.22-2.24-.5-4.5-1.66-6.43-1.96-3.29-5.29-5.83-9.07-6.47-9.05-1.53-18.48,7.14-14.77,16.43Z"/>
          <path class="cls-6" d="m72.97,155.63c2.74,1.03,5.87.79,8.58-.32s5.04-3.03,6.95-5.25c3.58-4.18,4.71-9.85.89-14.41-3.31-3.96-8.87-4.52-13.64-3.55-5.84,1.2-9.92,8.12-9.6,13.87.23,4.14,2.89,8.19,6.83,9.66Z"/>
          <path class="cls-6" d="m79.85,158.11c-.4,3.6,1.08,7.46,4.06,9.53,3.38,2.35,7.95,2.12,11.89.93,4.37-1.32,7.65-4.11,8.82-8.69.89-3.49.29-8.68-2.48-11.22-8.29-7.59-21.13-.87-22.28,9.44Z"/>
          <path class="cls-6" d="m104.36,159.54c-1.29.5-2.52,1.21-3.63,2.1-7.26,5.85-8.2,19.58,2.48,22.09,5.95,1.4,12.69-1.75,15.32-7.18,2.26-4.65,1.04-10.93-2.46-14.69-3.13-3.37-7.69-3.87-11.7-2.32Z"/>
          <path class="cls-3" d="m27.01,22.97c1.06.16,2.18.45,2.92,1.23,1.23,1.3.95,3.41.28,5.07-.25.64-.36,1,.38,1.16.67.14,1.38.09,2.05,0,2.41-.31,4.73-1.16,7.13-1.54.67-.11,1.4-.17,1.97.19.25.16.46.39.74.51,1.3.55.52-2.44.3-2.93-.58-1.3-1.64-2.33-2.76-3.22-5.46-4.32-12.92-5.92-19.69-4.38-1.72.39-8.05,2.17-3.98,4.12,1.52.73,3,.07,4.54-.18,2.02-.34,4.1-.36,6.12-.05Z"/>
          <path class="cls-7" d="m34.4,23.19c.95-1.2,7.11-7.74,6.34-8.18,2.44,1.41,3.94,4.06,4.69,6.77.77,2.84.78,6.05-.78,8.54-1.57,2.5-5.87,4.25-8.67,2.78-5.65-2.95-3.14-7.93-1.57-9.91Z"/>
          <path class="cls-7" d="m27.25,26.64c1.44.55,2.94.97,4.3,1.71s2.59,1.84,3.1,3.3c.24.69.29,1.49-.07,2.12-.28.5-.78.83-1.3,1.08-1.36.65-2.96.81-4.43.43-2.13-.55-3.89-2.2-4.84-4.19-.71-1.47-1.37-3.82-.95-5.46.26-1.02.99-.65,1.62-.24.8.52,1.68.91,2.58,1.25Z"/>
          <path class="cls-2" d="m137.39,181.45c-11.93-10.03-23.1-22.88-32.61-35.22-1.58-2.06-3.19-4.23-4.78-6.47,1.06-11.21,1.59-22.52,2.1-33.73.63-13.82,1.25-27.71-.24-41.47-.9-8.33-4.13-16.05-7.39-23.76,1.45.82,3.09,1.3,4.75,1.55,2.04.3,4.12.27,6.19.23-1.81-1.66-2.83-3.99-4.31-5.95-.71-.94-1.53-1.78-2.44-2.53-1.55-1.27-3.59-2.53-5.59-2.86-.21-.03-.4-.04-.58-.02-.12-1.12-.78-2.13-1.52-2.99,0,0-.01-.01-.02-.02-.13-1.39-.22-2.76.22-4.07.51-1.53,1.7-2.76,3.06-3.63,3.01-1.93,6.99-2.23,10.26-.77.72.32,1.5.73,2.26.53.79-.22,1.28-1.07,1.33-1.89.04-.74-.12-1.91-.72-2.43-.64-.56-1.89-.57-2.68-.68-2.45-.35-4.97-.39-7.41.07-3.3.62-6.48,2.2-8.69,4.74-1.08,1.25-1.91,2.73-2.39,4.32-.38-.2-.76-.41-1.15-.59-1.13-.5-2.31-.88-3.52-1.12-.77-.15-2.33-1.01-2.58.31-.11.57.17,1.13.39,1.66.72,1.75.85,3.68,1.17,5.55.28,1.65.76,3.35,1.82,4.61-1.55,1.84-3.38,3.13-6.03,2.44-.21-.05-.42-.12-.63-.09s-.43.17-.46.39c-.02.16.07.31.15.44.54.84,1.23,1.59,2.03,2.21.77.6,1.64.56,2.6.54.56-.01,1.11-.08,1.66-.18-1.52,4.01-2.58,8.01-2.87,9.18-2.06,8.38-3.5,16.91-4.54,25.48-.45,3.67-.82,7.35-1.15,11.03-.07.82-.13,1.65-.2,2.47-3.41-9.17-6.44-17.97-11.17-27.37-5.34-10.62-11.3-18.52-16.19-24.25-.38-.44-.97-1.17-1.67-2.01,1.97.2,3.95.25,5.92.14-.09-1.21-1.07-2.16-2.09-2.81-1.07-.69-2.25-1.19-3.49-1.46.18-.21.35-.42.49-.65,1.57-2.49,1.56-5.7.78-8.54-.74-2.72-2.25-5.37-4.69-6.77.55.32-2.39,3.7-4.49,6.07-4.87-2.46-10.61-3.2-15.93-1.99-1.72.39-8.05,2.17-3.98,4.12,1.52.73,3,.07,4.54-.18,2.02-.34,4.1-.36,6.12-.05,1.06.16,2.18.45,2.92,1.23.91.96.99,2.37.7,3.71-1.1-.48-2.25-.84-3.37-1.26-.89-.34-1.78-.72-2.58-1.25-.63-.41-1.35-.78-1.62.24-.43,1.64.24,3.99.95,5.46.95,1.99,2.71,3.64,4.84,4.19.31.08.63.12.95.16-.72.75-1.56,1.39-2.52,1.84-.84.39-1.74.65-2.67.73.06.5.66.72,1.16.8,1.34.23,2.71.29,4.07.23-.26,1.01-.53,2.02-.65,3.04-.47,4.28-1.52,8.63-1.36,12.93.32,8.65,2.72,17.2,4.95,25.55,4.16,15.54,9.21,30.37,15.86,45.02,4.91,10.83,11.43,21.64,18.41,31.3-.39,1.53-.78,3.08-1.13,4.7-2.17,9.96-4.34,19.92-6.51,29.88-.89,4.08-1.34,8.43-2.55,12.37-.67,2.19-2.57,8.59-5.3,9.15-2.13,1.85-4.38,4.25-4,7.05.11.84.56,1.72,1.36,1.98.51.17,1.07.05,1.6-.07,6.92-1.57,14.24-1.63,20.49-5.44,8.97-5.47,14.28-15.31,18.02-25.13,1.15-3.02,2.18-6.07,3.12-9.15,9.67,6.46,20.73,10.4,33.22,9.79,3.96-.19,8.13-1.55,12.08-.99,1.65.23,4.76,2.14,6.13.74,3-3.05-4.32-8.74-6.21-10.33Z"/>
          <path class="cls-1" d="m40.34,75.83c3.87,2.44,8.29,3.19,12.75,2.45-4.13,2.11-9.72,1.1-12.75-2.45h0Z"/>
          <path class="cls-1" d="m44.31,96.58c3.87,2.44,8.29,3.19,12.75,2.45-4.13,2.11-9.72,1.1-12.75-2.45h0Z"/>
          <path class="cls-1" d="m53.13,116.75c4.05,2.13,8.51,2.53,12.9,1.44-3.95,2.42-9.6,1.86-12.9-1.44h0Z"/>
          <path class="cls-1" d="m62.25,133.78c4.05,2.13,8.51,2.53,12.9,1.44-3.95,2.42-9.6,1.86-12.9-1.44h0Z"/>
          <path class="cls-1" d="m72.31,152.05c4.41,1.21,8.86.64,12.91-1.36-3.34,3.22-8.98,3.88-12.91,1.36h0Z"/>
          <path class="cls-1" d="m86.11,166.81c4.53.67,8.87-.42,12.65-2.9-2.93,3.6-8.45,4.93-12.65,2.9h0Z"/>
          <path class="cls-1" d="m102.67,181.3c4.53.67,8.87-.42,12.65-2.9-2.93,3.6-8.45,4.93-12.65,2.9h0Z"/>
          <path class="cls-1" d="m94.31,50.96c3.74,10.13,4.5,21.09,5,31.8.49,10.76-.08,21.56-1.44,32.24,0,.06-.1.05-.09,0,.08-2.69.19-5.38.33-8.06.58-18.49,1.63-38.33-3.79-55.97h0Z"/>
        </g>
      </g>
    </g>
  </g>
</svg>