<?xml version="1.0" encoding="UTF-8"?>
<svg id="Layer_2" data-name="Layer 2" xmlns="http://www.w3.org/2000/svg" viewBox="0 0 171.38 234.17">
  <defs>
    <style>
      .cls-1 {
        fill: #fff;
      }

      .cls-1, .cls-2, .cls-3, .cls-4, .cls-5 {
        stroke-width: 0px;
      }

      .cls-2 {
        fill: #231f20;
      }

      .cls-3 {
        fill: #f5da8f;
      }

      .cls-4 {
        fill: #fcf4dd;
      }

      .cls-5 {
        fill: #cd7534;
      }
    </style>
  </defs>
  <g id="Blancos">
    <path class="cls-1" d="m165.84,40.17C154.36,15.77,128.02,0,98.73,0c-2.55,0-5.12.13-7.63.38-17.1,1.72-32.15,9.59-43.53,22.76-10.08,11.67-16.59,27-18.32,43.17-1.31,12.23.1,24.23,4.06,35.26-2.59.35-4.84.96-6.49,1.47-3.84,1.18-9.52,3.26-14.55,7.75-11.22,10.01-12.53,26.79-3.57,43.28-10.44,15.63-11.65,33.71-2.72,49.27,6.04,10.53,15.26,19,26.67,24.5,8.58,4.14,18,6.32,27.25,6.32,0,0,0,0,0,0,17.23,0,32.32-7.27,42.49-20.48,11.27-14.64,15.13-33.52,11.16-50.23,19.79-1.53,34.98-13.6,40.95-32.78,2.31-7.4,2.62-14.8.95-21.56,5.81-7.38,10.22-15.66,12.93-24.36.16-.52.32-1.04.48-1.59,4.2-14.66,3.13-29.94-3.01-43.01Z"/>
  </g>
  <g id="Productos">
    <g>
      <path class="cls-3" d="m44.17,67.91c-1.33,12.49.79,25.45,6.89,36.75,11.5,21.32,35.79,25.2,57.35,18.83,20.89-6.17,39.09-22.09,45.65-43.16.13-.42.26-.85.38-1.28,3.08-10.75,2.62-22.31-2.17-32.49-10.37-22.05-36.09-33.63-59.67-31.25-28.01,2.82-45.67,26.7-48.43,52.6Z"/>
      <path class="cls-5" d="m61.65,96.02c2.05,12.67,12.96,21.41,28.45,22.46,11.27.76,22.89-3.1,31.54-9.94,10.97-8.68,21.69-22.61,22.34-34.92,1.07-20.17-23.82-30.1-45.66-23.19-22.84,7.24-39.57,27.7-36.68,45.59Z"/>
      <path class="cls-2" d="m67.28,99.5c6.69-6.18,15.37-10.25,24.39-11.47-.93.3-2.3.72-3.24,1.04-7.52,2.45-14.59,6.03-21.16,10.43h0Z"/>
      <path class="cls-2" d="m70.14,74.11c5.26-3.88,16.39.23,21.17,3.72-5.39-2.23-15.67-6.25-21.17-3.72h0Z"/>
      <path class="cls-2" d="m98.42,53.22c-1.05,6.65,1.21,12.9,1.97,19.45-2.1-6.12-4.4-13.08-1.97-19.45h0Z"/>
      <path class="cls-2" d="m125.39,55.11c-5.29,3.03-9.4,7.37-12.16,12.82,1.36-5.95,6.29-11.14,12.16-12.82h0Z"/>
      <path class="cls-2" d="m120.83,74.1c6.11-3.06,13.3-4.22,20.06-3.15-6.85.33-13.43,1.38-20.06,3.15h0Z"/>
      <path class="cls-2" d="m98.94,95.13c-4.68,5.64-7.17,12.75-8.96,19.76.26-6.93,3.4-15.38,8.96-19.76h0Z"/>
      <path class="cls-2" d="m136.44,88.81c-5.54-1.02-10.9-2.18-16.36-3.54,5.62-.01,11.25,1.21,16.36,3.54h0Z"/>
      <path class="cls-4" d="m98.83,103.94c3.53,7.95,3.92,16.55,3.92,25.07,0,7.13-3.15,19.85,7.42,19.62,15.09-.34,25.67-8.45,30.01-22.4,1.51-4.84,1.89-10.12.29-14.94-2.34-7.03-8.08-13.52-12.13-19.73-5.28-8.08-14.04-22.19-25.71-16.67-14.31,6.77-8.67,18.1-3.8,29.05Z"/>
      <path class="cls-3" d="m39.16,214.34c-8.27-3.99-15.5-10.3-20.17-18.45-8.81-15.36-1.85-31.95,10.42-42.87,11.89-10.59,28.79-15.76,44.41-11.71.31.08.63.17.94.26,7.86,2.23,14.86,6.97,19.34,13.87,9.7,14.94,6.97,35.38-3.6,49.1-12.55,16.3-34.19,18.07-51.34,9.8Z"/>
      <path class="cls-5" d="m28.44,192.64c-7.08-6.16-8.3-16.3-2.98-26.33,3.87-7.29,10.75-13.02,18.33-15.76,9.62-3.47,22.41-4.75,30.3-.41,12.94,7.11,9.51,26.4-3.2,37.29-13.3,11.4-32.46,13.89-42.45,5.2Z"/>
      <path class="cls-2" d="m28.45,187.8c6-2.91,11.42-6.43,16.53-10.73-4.07,5.26-10.07,9.15-16.53,10.73h0Z"/>
      <path class="cls-2" d="m45.32,195.82c2.23-1.57,3.02-4.32,3.92-6.76.84-2.56,1.47-5.15,1.94-7.82.48,4.41-1.22,12.84-5.85,14.58h0Z"/>
      <path class="cls-2" d="m69.2,186.31c-4.95-.76-8.48-4.94-11.32-8.72,3.89,2.84,6.87,6.64,11.32,8.72h0Z"/>
      <path class="cls-2" d="m78.42,168.83c-3.19,3.16-8.47,4.25-12.65,2.61,4.48.19,8.61-.65,12.65-2.61h0Z"/>
      <path class="cls-2" d="m64.87,164.34c3.54-3.58,6.68-7.21,9.69-11.24-1.77,4.7-5.32,8.78-9.69,11.24h0Z"/>
      <path class="cls-2" d="m43.37,169.83c-5.03,1.94-11.21.66-15.73-2.06,5.11,1.42,10.4,2.6,15.73,2.06h0Z"/>
      <path class="cls-2" d="m61.76,148.97c-.35,4.12-1.77,8.12-4.11,11.53,1.09-4,2.43-7.74,4.11-11.53h0Z"/>
      <path class="cls-4" d="m36.65,167.49c-5.01-5.72-9.96-12.48-13.81-18.89-4.53-7.53-8.26-19.77-.59-26.61,2.53-2.25,5.73-3.61,8.97-4.61,2.38-.73,4.88-1.29,7.36-1.01,6.9.78,9.36,9,10.95,14.62,2.16,7.62,4.04,14.76,7.4,21.96,2.98,6.4,8.37,17.28.44,22.39-7,4.52-14.28-.78-19.06-6-.55-.6-1.11-1.22-1.66-1.86Z"/>
    </g>
  </g>
</svg>