<?xml version="1.0" encoding="UTF-8"?>
<svg id="Layer_2" data-name="Layer 2" xmlns="http://www.w3.org/2000/svg" viewBox="0 0 202.95 224.41">
  <defs>
    <style>
      .cls-1 {
        fill: #fff;
      }

      .cls-2 {
        fill: #008d4a;
      }

      .cls-3 {
        fill: #59b58a;
      }

      .cls-4 {
        fill: #269e65;
      }
    </style>
  </defs>
  <g id="Blancos">
    <path class="cls-1" d="m185.54,72.12c-1.46-1.21-2.89-2.18-4.03-2.95-.2-.14-.43-.29-.65-.44-.07-3.31,1.35-10.02,3.3-15.15.5-1.3.81-2.65.94-4.04,1-11.15-2.27-32.57-20.88-42.13-6.75-3.47-14.26-5.3-21.73-5.3-8.9,0-17.24,2.59-24.1,7.48-.16.11-.32.23-.47.34-4.67-6.33-11.26-9.93-19.02-9.93h-.31c-15.28.2-22.96,12.55-27.65,21.88-.5-1.25-1.17-2.43-1.99-3.5-3.15-4.13-9.46-8.54-17.7-8.54-6.58,0-12.91,2.7-18.82,8.03-11.87,10.69-17.73,31.66-21.51,48.73l-.51,2.28c-1.89,8.35-4.22,18.69-5.91,29.51-4.97,16.9-5.82,35.29-2.38,51.91.3,1.47.65,2.95,1.01,4.39,7.76,30.29,30.11,54.81,58.31,63.97,5.94,1.93,17.68,5.1,18.17,5.24,1.28.34,2.59.52,3.91.52.67,0,1.33-.04,2-.13.49-.07,12.06-1.62,18.07-2.51,34.12-5.08,66.69-26.98,82.98-55.8,6.73-11.91,10.61-24.39,14.35-36.45,3.38-10.88,2.56-21.05-2.03-28.66-.48-11.59-5.26-22.07-13.31-28.72Z"/>
  </g>
  <g id="Layer_1-2" data-name="Layer 1">
    <g>
      <path class="cls-4" d="m59.27,140.84c.36,2.01.83,4,1.47,5.95,2.06,6.38,5.7,12.18,10.13,17.21,10.97,12.44,27.08,20.2,43.65,21.03,18.86.95,41.46-7.22,51.08-24.25,8.68-15.36,16.96-38.04,18.2-55.74.55-7.86-1.75-16.33-7.82-21.35-2.47-2.04-5.49-3.47-7.55-5.92-6.61-7.87,1.71-29.56,1.71-29.56,0,0,1.79-19.96-12.79-27.45-9.51-4.89-21.56-5.16-30.27,1.05-11.37,8.11-17.13,24.98-30.96,26.95-3.81.54-7.76-.23-11.52.6-5.59,1.22-9.87,5.74-13.03,10.51-11.32,17.11-12.38,38.79-13.08,59.3-.25,7.23-.48,14.6.78,21.69Z"/>
      <path class="cls-3" d="m42.43,29.01c9.32-8.4,14.57-1.53,14.57-1.53,0,0,8.03,29.5,20.89,13.06,5.6-7.16,9.47-25.4,20.87-25.55,7.84-.1,10.88,10.04,11.54,17.86,1.45,17.36-1.24,35.47,4.82,52.2.74,2.05,1.72,4.2,3.63,5.25,2.53,1.4,5.64.34,8.43-.43,4.95-1.37,10.3-1.73,15.2-.16,12.47,4,14.45,18.35,11.84,29.49-4.76,20.31-11.56,41.61-30.13,53.23-13.11,8.2-28.81,11.5-44.26,11.92-14.46.39-29.49-1.8-41.64-9.66-32.11-20.77-19.84-72.95-12.9-103.7,1.44-6.37,6.8-32.66,17.17-41.99Z"/>
      <path class="cls-2" d="m16.77,147.26c.26,1.24.54,2.48.86,3.7,6.23,24.29,24.57,45.68,48.42,53.43,5.65,1.83,17.45,5.02,17.45,5.02,0,0,11.88-1.59,17.85-2.48,29.48-4.39,58.12-23.54,72.13-48.34,5.91-10.46,9.52-22.04,13.08-33.52,5.7-18.38-6.41-27.25-22.84-18.03-10.15,5.69-26.5,18.64-32.8,2.04-4.58-12.06-2.74-38-2.74-38,0,0-3.79-16.98-10.83-21.33-14.38-8.88-29,3.82-35.31,16.05-3.31,6.42-8.55,20.77-17.8,17.19-6.72-2.6-7.24-14.26-13.12-18.26-6.92-4.7-14.19,4.68-18.05,9.64-15.46,19.88-21.41,48.2-16.31,72.88Z"/>
      <g>
        <path class="cls-1" d="m42.83,98.73c-3.2,11.85-5.14,24.1-4.59,36.38,1.11,12.23,6.24,23.81,12.58,34.19,4.26,6.93,9.4,13.3,15.25,19.13.09.08-.04.25-.14.17-6.77-4.79-12.54-11.04-17.07-18.06-6.88-10.55-10.09-22.94-11.32-35.35-1.11-8.22-1.23-16.72.89-24.81.98-4.05,2.37-8,4.2-11.72.05-.11.24-.04.2.08h0Z"/>
        <path class="cls-1" d="m104.61,192.21c10.54-3.58,20.85-7.9,30.19-13.98,9-6.54,15.74-15.77,21.32-25.27,3.71-6.37,6.7-13.14,9.11-20.23.03-.12.24-.08.21.05-1.08,7.44-3.65,14.69-7.3,21.32-5.45,10.03-13.83,17.97-22.92,24.69-5.87,4.7-12.32,8.86-19.56,11.14-3.58,1.19-7.26,2.09-11.01,2.49-.12.02-.17-.18-.05-.21h0Z"/>
        <path class="cls-1" d="m101.59,76.55c-1.27,7.67-2.82,15.28-4.54,22.85-1.41,5.65-2.85,11.31-3.55,17.1-1.76,17.21-2.69,34.99-4.32,52.22,0,.13-.21.13-.22,0-.96-11.62-.51-23.46.96-35.02.87-7.75,2.68-15.35,3.78-23.07.99-7.61,1.97-15.61,4.12-23,1.03-3.76,2.16-7.5,3.56-11.15.04-.12.23-.07.21.06h0Z"/>
        <path class="cls-1" d="m23.18,117.42c2.67,1.18,5.24,2.37,7.86,3.63,1.91,1.01,3.89,2.04,6.09,2.22,6.53.17,12.75-1.13,19.11-2.78.1-.03.19.12.1.19-4.58,4.05-11.28,5.15-17.15,3.82-4.3-1.3-9.13-.98-12.87-3.78-1.23-.89-2.37-1.9-3.28-3.13-.07-.09.03-.22.14-.17h0Z"/>
        <path class="cls-1" d="m31.99,156.69c3.66-1.19,7.38-.43,10.98.41,2.41.3,4.84-.44,7.19-.77,3.56-.69,6.8-1.32,10.36-2.5.1-.04.2.1.12.18-2.5,2.95-6.49,4.3-10.27,4.36-2.5.19-4.96-.62-7.44-.58-3.7.45-7.37.39-10.94-.89-.1-.03-.1-.19,0-.22h0Z"/>
        <path class="cls-1" d="m128.96,175.06c1.87,1.15,3.66,1.31,5.7,1.84.99.29,2.03.72,3.08.86,2.11.29,4.22-.49,6.26-.82,3.12-.69,5.92-1.28,9.16-2.01.1-.03.19.11.11.19-2.27,2.53-5.69,3.8-9.03,3.86-2.2.2-4.37-.56-6.55-.52-2.21.15-4.53.58-6.59-.69-1.02-.56-1.98-1.45-2.32-2.59-.03-.1.08-.19.17-.13h0Z"/>
        <path class="cls-1" d="m150.86,147.63c3.24-.13,6.33.47,9.53.69,2.17-.16,3.96-1.49,5.82-2.45,2.73-1.69,5.16-3.24,7.87-5.21.08-.06.22.03.17.13-1.73,5.05-7.07,7.69-12.13,7.95-2.78.35-5.5,1.72-8.31.67-1.1-.35-2.14-.83-3.03-1.57-.08-.06-.03-.21.07-.2h0Z"/>
        <path class="cls-1" d="m88.03,85.02c2.45,3.19,4.79,6.59,7.6,9.4,2.1,1.75,4.92,2.25,7.47,2.96,4,.9,7.79,1.42,11.94,2.1.11.01.13.19.02.22-5.4,1.82-11.66.91-16.36-2.32-3.33-2.61-7.74-4.11-9.63-8.17-.66-1.28-1.14-2.66-1.23-4.11,0-.11.14-.17.2-.08h0Z"/>
        <path class="cls-1" d="m82.12,122.56c2.38,1.48,4.6,3.15,6.44,5.26,1.88,2.19,4.86,2.6,7.46,3.39,3.26.82,6.24,1.66,9.54,2.73.1.03.1.19,0,.22-5.2,1.49-10.56-.54-14.66-3.74-2.38-1.61-5.42-2.23-7.16-4.7-.74-.92-1.38-1.9-1.78-3.01-.04-.1.08-.2.17-.14h0Z"/>
      </g>
    </g>
  </g>
</svg>