<?xml version="1.0" encoding="UTF-8"?>
<svg id="Layer_2" data-name="Layer 2" xmlns="http://www.w3.org/2000/svg" viewBox="0 0 162.69 201.71">
  <defs>
    <style>
      .cls-1 {
        fill: #fff;
      }

      .cls-2 {
        fill: #e64428;
      }

      .cls-3 {
        fill: #008d4a;
      }
    </style>
  </defs>
  <g id="Blancos">
    <path class="cls-1" d="m155.7,74.54c-2.95-6.74-10.1-13.43-13.03-15.99-1.68-1.47-3.67-2.54-5.81-3.14-2.1-.59-9.38-2.51-14.95-2.51-.3,0-.59,0-.87.01-1.11.04-2.2.1-3.27.19.16-.61.31-1.22.45-1.82,2.58-10.66,2.64-16.51.21-21.59-1.97-4.13-5.58-7.23-9.91-8.49-2.31-.67-4.72-1.01-7.15-1.01-5.71,0-11.39,1.91-16.25,5.26-2.7-5.57-5.78-10.96-9.22-16.11-.84-1.26-2.82-4.21-6.37-6.42-3.15-1.96-6.7-2.92-10.85-2.92-.26,0-.52,0-.79.01-6.3.16-12.57,1.8-18.14,4.74-4.53,2.39-7.53,6.93-7.95,12.04-.42,5.1,1.79,10.07,5.87,13.17,6.02,4.58,11.4,10.06,16.01,16.3,1.74,2.36,3.36,4.82,4.84,7.34-4.04-.44-7.63-.65-11.03-.65-30.73,0-41.83,18.6-45.73,34.2-3.65,14.62-.56,39.35.1,44.15.11.82.29,1.63.54,2.42.05.16,5.1,16.41,7.71,24.57l.23.72c2.83,8.86,6.04,18.9,13.68,27.53,7.07,7.98,17.3,13.29,28.09,14.58,1.44.17,3.01.26,4.67.26,7.52,0,16.61-1.84,21.49-2.96,2.51.46,5.68,1.06,7.51,1.49,5.06,1.19,10.08,1.79,14.91,1.79,6.25,0,12.18-1.01,17.63-2.99.05-.02.78-.29.78-.29,14.88-5.69,26.53-18.36,33.71-36.62,6.3-16.03,9.49-47.99,9.83-51.59.09-.95.09-1.91,0-2.86-.35-3.64-2.33-22.3-6.93-32.82Z"/>
  </g>
  <g id="Layer_1-2" data-name="Layer 1">
    <g>
      <path class="cls-2" d="m62.34,69.22c-20.29-2.98-40.03-2.48-46.03,21.57-3.14,12.56.41,38.49.41,38.49,0,0,5.06,16.26,7.68,24.45,2.58,8.05,5.14,16.42,10.85,22.88,4.74,5.35,11.55,8.79,18.64,9.63,8.31.99,23.9-3.13,23.9-3.13,0,0,7.64,1.32,11.42,2.21,7.89,1.85,16.35,2.09,23.97-.69.18-.07.37-.14.55-.21,12.47-4.77,20.39-16.08,25.1-28.1,5.71-14.53,8.86-47.53,8.86-47.53,0,0-1.86-19.39-5.74-28.24-1.92-4.39-9.16-10.71-9.16-10.71,0,0-7.41-2.08-11.26-1.95-10.14.34-19.85,3.61-29.88,4.77-10.28,1.19-19.28-1.97-29.32-3.44Z"/>
      <path class="cls-3" d="m46.74,18.02c3.54-1.87,7.52-2.91,11.52-3.01,1.15-.03,2.36.04,3.33.64.78.49,1.32,1.27,1.83,2.03,12.13,18.15,19.22,39.63,20.28,61.43.13-6.81.26-13.63.88-20.41.54-5.79,1.52-11.77,4.78-16.58,3.26-4.82,9.37-8.14,14.95-6.52,3.07.89-2.88,20.58-3.76,22.68-2.06,4.91-10.8,20.48-16.86,20.83-.7.04-4.52-16.75-6.16-20.75-3.05-7.45-7.03-14.52-11.8-21-5.38-7.3-11.78-13.85-19-19.34Z"/>
      <path class="cls-1" d="m22.92,112.24c-.01,6.67.01,13.39,1.22,19.95,1.2,6.56,3.65,13.03,8,18.09-5.3-11.22-5.93-24.05-5.65-36.46.12-5.47.4-10.93.84-16.38.21-2.63.46-5.26.74-7.88.18-1.66,1.06-4.47.4-5.99-3.6,1.18-4.23,7.67-4.66,10.69-.84,5.95-.88,11.99-.89,17.99Z"/>
      <path class="cls-3" d="m74.55,78.08c6.19,1.83,12.69.94,18.97-.41.28-.06.57-.13.8-.32.3-.25.47-.68.62-1.08-1.01.29-2.02.54-3.04.75-4.37.91-8.82,1.14-13.25.89-.94-.05-1.88-.13-2.79-.39-.85-.24-1.67-.65-2.51-.93-.76-.26-1.62-.5-2.41-.48.75,1.47,2.38,1.6,3.62,1.97Z"/>
    </g>
  </g>
</svg>