<?xml version="1.0" encoding="UTF-8"?>
<svg xmlns="http://www.w3.org/2000/svg" viewBox="0 0 230.55 185.34">
  <defs>
    <style>
      .cls-1 {
        fill: #008d4a;
      }

      .cls-1, .cls-2, .cls-3, .cls-4, .cls-5 {
        stroke-width: 0px;
      }

      .cls-6 {
        isolation: isolate;
      }

      .cls-7 {
        stroke-width: 1.23px;
      }

      .cls-7, .cls-3 {
        fill: #eab520;
      }

      .cls-7, .cls-8 {
        stroke: #eab520;
        stroke-miterlimit: 10;
      }

      .cls-2 {
        fill: #fff;
      }

      .cls-4 {
        fill: #e64228;
        mix-blend-mode: multiply;
        opacity: .15;
      }

      .cls-5 {
        fill: #231f20;
      }

      .cls-8 {
        fill: #fcf4dd;
        stroke-width: 1.53px;
      }
    </style>
  </defs>
  <g class="cls-6">
    <g id="Layer_2" data-name="Layer 2">
      <g id="Blancos">
        <path class="cls-2" d="m228.57,100.83c-7.09-25.68-30.15-39.98-46.89-48.51-4.66-2.37-9.63-4.31-14.71-5.76-2.98-10.33-8.38-19.39-15.71-26.16-11.68-10.78-28.81-16.48-49.56-16.48-3.07,0-6.24.12-9.43.37-4.17.32-8.29,1.03-12.29,2.12-2.32-3.07-5.59-5.19-9.33-5.95-1.48-.3-2.99-.46-4.51-.46-3.95,0-7.84,1.03-11.25,2.98-2.48,1.42-4.42,3.45-5.72,5.82-8.45,2.23-16.18,6.68-19.88,9.38-1.6,1.17-3.05,2.37-4.34,3.42-1.75,1.44-3.74,3.08-4.8,3.48-1.06.4-3.64.49-5.71.57-7.16.27-13.14,5.56-14.26,12.64-1.12,7.08,2.93,13.96,9.66,16.43,7.32,2.68,14.92,4.42,22.65,5.19-.53,3.31-.81,6.67-.85,10.05-.18,14.91,4.6,29.45,13.46,40.95,9.09,11.81,23.56,20.59,39.96,24.57,1.94,6.82,4.62,13.09,8.02,18.71,11.63,19.21,35.13,31.14,61.34,31.14h0c10.78,0,21.18-2.16,30.09-6.24,11.48-5.25,22.18-14.06,31.76-26.15,2.56-3.23,5.04-6.7,7.37-10.33.3-.45.57-.93.82-1.41,6.29-12.34,7.79-27.06,4.1-40.39Z"/>
      </g>
      <g id="Productos">
        <g>
          <path class="cls-1" d="m38.14,29.99c-4.19,3.06-7.87,7.02-12.73,8.84-3.3,1.24-6.89,1.38-10.41,1.51,7.57,2.77,15.58,4.36,23.64,4.68,3.36.13,6.78.04,10-.92,6.05-1.8,23.19-10.27,17.44-18.76-5.33-7.86-22.46.66-27.93,4.65Z"/>
          <path class="cls-1" d="m62.33,15.69c1.59-.91,3.52-1.22,5.32-.85,1.63.33,2.69,13.33-.19,13.79-3.87.62-4.52-10.9-5.13-12.94Z"/>
          <path class="cls-3" d="m46.64,69.85c-.13,11.14,3.21,22.35,10.34,31.62,15.72,20.41,51.82,27.63,74.27,14.39,18.47-10.9,25.16-36.24,23.08-56.33-1.1-10.62-5.4-21.17-13.25-28.41-12.42-11.47-31.51-13.42-47.66-12.18-8.74.67-17.31,3.61-24.57,8.54-14.27,9.67-22.01,25.95-22.2,42.38Z"/>
          <path class="cls-4" d="m46.64,69.85c-.13,11.14,3.21,22.35,10.34,31.62,15.72,20.41,51.82,27.63,74.27,14.39,18.47-10.9,25.16-36.24,23.08-56.33-1.1-10.62-5.4-21.17-13.25-28.41-12.42-11.47-31.51-13.42-47.66-12.18-8.74.67-17.31,3.61-24.57,8.54-14.27,9.67-22.01,25.95-22.2,42.38Z"/>
          <path class="cls-8" d="m211.11,134.09s-.02.02-.02.04c-2.01,3.15-4.2,6.24-6.54,9.19-9.45,9.73-22.8,12.29-36.44,11.39-11.03-.73-22.18-2.53-32.13-7.53-6.04-3.04-11.53-7.2-16.44-11.99-6.03-5.89-11.29-12.97-13.62-21.25-3.46-12.3-1.3-32.92,7.9-43.57,2.95-2.67,5.91-4.95,8.43-6.5,16.1-8.94,36.85-6.51,52.63,1.52,16.74,8.53,34.06,20.4,39.23,39.13,2.7,9.77,1.57,20.62-3,29.57Z"/>
          <path class="cls-3" d="m116.88,111.26c1.9,6.69,6.19,12.4,11.1,17.16,3.99,3.87,8.47,7.23,13.4,9.69,8.12,4.04,17.21,5.5,26.2,6.09,13.6.89,26.84-2.38,34.35-15.32,4.33-7.47,5.51-16.84,3.18-25.21-4.22-15.13-18.34-24.72-32-31.61-14.3-7.21-33.63-8.84-47.18,1.55-9.68,7.41-12.17,26.66-9.04,37.66Z"/>
          <path class="cls-7" d="m204.54,143.31c-7.33,9.25-16.25,17.26-26.26,21.84-23.35,10.69-58.68,3.57-72.36-19.03-5.17-8.54-7.89-18.42-8.98-28.35-2.18-19.95,3.26-35.11,16.88-47.42-9.2,10.64-11.36,31.27-7.9,43.57,2.33,8.29,7.59,15.36,13.62,21.25,4.9,4.79,10.4,8.95,16.44,11.99,9.95,5,21.1,6.8,32.13,7.53,13.64.9,26.99-1.65,36.44-11.39Z"/>
          <g>
            <path class="cls-5" d="m189.61,91.6c.42-.13.72-.52.86-.93,1.02-3.02-2.73-4.09-4.36-1.88-1.84,2.51,1.42,3.45,3.5,2.81Z"/>
            <path class="cls-5" d="m134.98,113.63c1.08,1.73,3.18,2.26,5.06,2.14.21-.01.42-.03.61-.15.2-.12.33-.33.44-.55.79-1.49.72-3.5-.16-4.93-1.03-1.67-2.7-5.42-5.02-3.92-2.02,1.3-2.14,5.48-.93,7.4Z"/>
            <path class="cls-5" d="m185.57,115.13c.71,0,1.47,0,2.07-.39,3.01-1.91,1.2-9.68-3.2-8.06-1.46.54-2.82,1.93-2.89,3.55-.09,1.96,1.99,4.89,4.02,4.9Z"/>
            <path class="cls-5" d="m184.94,103.11c.55.1,1.16.15,1.62-.16.21-.14.37-.36.5-.58,2.13-3.84-3.62-5.25-6.17-3.8-4.04,2.31,1.96,4.16,4.05,4.54Z"/>
            <path class="cls-5" d="m194.95,97.95c.54-.02,1.12-.06,1.53-.42.4-.35.54-.94.46-1.46-.39-2.46-3.97-4.78-6.01-2.65-2.63,2.75,1.81,4.59,4.03,4.53Z"/>
            <path class="cls-5" d="m199.85,106.84c.5.3,1.07.64,1.61.45.61-.22.81-.98.81-1.63,0-2.26-1.72-5.81-4.5-4.54-3.61,1.66.33,4.68,2.07,5.72Z"/>
            <path class="cls-5" d="m196.36,115.07c.9.07,1.79.13,2.69.2,1.11.08,2.24.16,3.32-.13.86-.23,1.7-.75,2.02-1.58,1.15-3.02-4.42-4.64-6.55-4.36-2.57.34-5.07,5.6-1.47,5.87Z"/>
            <path class="cls-5" d="m195.05,128.38c.57.43,1.35.49,2.05.32s1.31-.56,1.9-.96c.64-.44,1.26-.91,1.76-1.5.94-1.1,2.18-3.36,1.54-4.83s-2.47-1.88-3.79-1.24c-2.03.98-6.1,6.21-3.45,8.22Z"/>
            <path class="cls-5" d="m190.04,124.84c.43-.22.68-.67.9-1.1.74-1.45,2.55-4.76.89-6.19-1.01-.87-2.39-.12-3.26.58-1.18.94-2.17,2.42-2.36,3.93-.27,2.09,1.74,3.87,3.84,2.77Z"/>
            <path class="cls-5" d="m190,136.43c.52,0,1.06-.06,1.56-.21.73-.22,1.38-.61,1.82-1.22,3.39-4.75-10.76,1.32-3.38,1.43Z"/>
            <path class="cls-5" d="m176.11,133.39c-2.33.57-4.2,2.67-4.5,5.05-.03.23-.04.49.12.67.15.18.4.21.63.23,2.19.21,4.38.34,6.58.39.62.01,1.26.02,1.84-.21,1.06-.42,1.68-1.62,1.62-2.76s-.73-2.18-1.62-2.89c-.17-.14-.36-.27-.57-.34-1.28-.4-2.78-.48-4.09-.16Z"/>
            <path class="cls-5" d="m173.01,125.22c.72.81,1.53,1.6,2.56,1.94.62.2,1.27.23,1.92.24.41,0,.85,0,1.2-.22.41-.26.59-.77.67-1.26.52-3.12-2.6-8.74-6.26-8.28-4.61.58-1.84,5.62-.09,7.58Z"/>
            <path class="cls-5" d="m154.82,138.54c.16.17.41.2.64.21,2.39.15,4.78.3,7.17.46.75.05,1.51.09,2.24-.07.73-.16,1.45-.56,1.81-1.21,1.6-2.84-4.55-3.28-6.21-3.24-1.31.03-7.94,1.34-5.66,3.85Z"/>
            <path class="cls-5" d="m167.32,133.1c.52.05,1.08.02,1.51-.27.56-.38.77-1.11.81-1.79.16-3.32-4.72-3.72-6.85-2.24-3.27,2.27,2.78,4.14,4.53,4.3Z"/>
            <path class="cls-5" d="m164.38,124.76c.17,0,.35,0,.49-.1.1-.06.16-.16.22-.26,1.45-2.55-1.28-6.45-4.07-4.51-1,.7-1.52,1.83-1.19,3.03.61,2.21,2.74,1.86,4.56,1.85Z"/>
            <path class="cls-5" d="m151.24,127.92c.78.93,2.15,1.08,3.36,1.05.42,0,.88-.04,1.22-.3.3-.24.45-.61.59-.97.25-.68.51-1.38.48-2.1-.09-1.89-2.77-5.17-4.86-3.99-1.77,1-1.98,4.89-.78,6.31Z"/>
            <path class="cls-5" d="m146,137.16c.79.48,1.87.4,2.59-.17s1.03-1.62.74-2.49c-.51-1.56-3.55-3.68-5.03-2.31-1.59,1.48.32,4.14,1.7,4.97Z"/>
            <path class="cls-5" d="m137.34,132.19c.87.03,1.81-.4,2.15-1.2.17-.41.18-.87.17-1.32,0-3.02-4.44-5.2-6.76-3.02-2.59,2.44,2.17,5.47,4.43,5.54Z"/>
            <path class="cls-5" d="m143.86,126.79c.87.28,1.75-.45,2.16-1.27.71-1.43.44-5.47-1.95-4.22-1.57.82-2.18,4.84-.21,5.48Z"/>
            <path class="cls-5" d="m152.32,115.87c.15.18.31.35.53.45.4.18.87.05,1.25-.18.93-.55,1.51-1.65,1.43-2.73-.03-.45-.16-.89-.31-1.32-.22-.67-.47-1.34-.9-1.9-1.16-1.52-2.84-1.28-3.24.48s.06,3.79,1.23,5.19Z"/>
            <path class="cls-5" d="m166.86,115.5c.73-.36,1.33-1.05,1.53-1.95.19-.85.08-1.92-.7-2.32-.24-.12-.52-.16-.78-.2-.6-.07-1.2-.1-1.8-.1-.17,0-.35,0-.51.06-.2.08-.36.23-.5.4-.59.72-.86,1.73-.59,2.63.54,1.78,2.12,2.09,3.35,1.48Z"/>
            <path class="cls-5" d="m159.86,108.96c.64.53,1.52.76,2.67.45.34-.09.65-.25.91-.51.26-.25.44-.56.58-.88.89-2.11-.82-4.91-2.56-6.17-.21-.15-.43-.29-.68-.32-.54-.07-1.01.36-1.32.81-1.24,1.77-1.24,5.24.4,6.62Z"/>
            <path class="cls-5" d="m174.1,108.99c.18,0,.37-.01.54-.1.19-.1.31-.28.41-.46.93-1.55,1.66-3.86.04-5.24-1.1-.94-2.61-.72-3.72.07s-1.89,2.17-1.71,3.54c.32,2.4,2.54,2.25,4.44,2.2Z"/>
            <path class="cls-5" d="m128.18,120.06c.31.39.66.81,1.15.91.64.13,1.27-.39,1.45-1.02s-.01-1.3-.32-1.87-.73-1.07-1.07-1.62c-.67-1.09-2.49-5.02-3.83-2.3-1,2.04,1.51,4.46,2.63,5.9Z"/>
            <path class="cls-5" d="m130.18,105.6c.09-.63.03-1.31-.34-1.83-2.2-3.05-6.54,2.17-6.24,4.64.2,1.61,1.5,1.84,2.94,1.63,2-.29,3.35-2.51,3.64-4.45Z"/>
            <path class="cls-5" d="m142.16,107.97c.52.75,1.48,1.34,2.32,1,.91-.36,1.15-1.52,1.16-2.5,0-.26,0-.53-.09-.78-.12-.35-.4-.62-.64-.91-.81-.98-3.06-6.47-4.75-4.28-1.57,2.04.88,5.89,1.99,7.47Z"/>
            <path class="cls-5" d="m153.23,103.41c.16,0,.32-.02.46-.08.16-.07.28-.2.37-.34.49-.72.38-1.7-.02-2.47-.83-1.61-3.31-4.63-4.41-1.68-.87,2.35,1.25,4.61,3.6,4.58Z"/>
            <path class="cls-5" d="m165.19,99.26c.57.06,1.19-.11,1.55-.55.37-.45.4-1.08.42-1.66.02-.52.03-1.07-.17-1.55-.12-.29-.31-.55-.51-.78-1.16-1.35-4.9-3.68-5.83-.98-.84,2.44,2.37,5.29,4.54,5.53Z"/>
            <path class="cls-5" d="m164.57,89.17c.94-.06,2.09-.39,2.27-1.32.15-.77-.47-1.45-1.04-1.98-.39-.37-.79-.74-1.22-1.05-1.74-1.25-7.04-1.94-7.89.9-.96,3.2,6.16,3.56,7.89,3.45Z"/>
            <path class="cls-5" d="m169.65,84.29c1.95-1.72-1.54-6.04-3.71-4.13-2.66,2.34,1.65,5.96,3.71,4.13Z"/>
            <path class="cls-5" d="m178.15,87.65c.21.02.43.03.62-.05.33-.15.48-.52.6-.87.23-.67.44-1.38.29-2.06-.46-2.03-3.62-3.86-5.1-1.83-1.71,2.34,1.48,4.57,3.59,4.81Z"/>
            <path class="cls-5" d="m173.79,95.3c.39.4.87.75,1.42.79.29.02.57-.05.81-.19.42-.23.76-.66.91-1.12.24-.74.09-1.56-.19-2.28-.99-2.52-5.78-.09-2.95,2.81Z"/>
            <path class="cls-5" d="m176.57,77.58c.54-.42.62-1.24.36-1.87-.9-2.23-4.33-3.98-5.61-1.09-1.05,2.37,3.75,4.12,5.24,2.97Z"/>
            <path class="cls-5" d="m162.84,75.67c.6.25,1.23.46,1.86.62.56.15,1.17.26,1.7.03,1.82-.8,1.11-3.81-.29-4.63-1.48-.88-8.22-3.57-7.89.19.07.75.53,1.41,1.12,1.88.97.78,2.35,1.45,3.5,1.92Z"/>
            <path class="cls-5" d="m153.31,79c1.25.19,2.64-.59,2.96-1.82.64-2.46-2.67-4.75-4.78-3.39-2.26,1.45-.35,4.88,1.83,5.21Z"/>
            <path class="cls-5" d="m138.73,74.1c.86,0,1.77-.01,2.52-.46.09-.05.18-.11.26-.18.36-.28.66-.64.92-1.02,2.61-3.65-1.53-3.7-3.61-2.12-1.86,1.41-3.59,3.74-.09,3.77Z"/>
            <path class="cls-5" d="m128.48,84.42c.43,0,.84-.2,1.2-.45,1.5-1.06,3.58-6.04.15-5.41-2.38.43-4.01,5.93-1.35,5.87Z"/>
            <path class="cls-5" d="m139.01,85.72c.29.19.64.37.98.27.29-.08.49-.36.64-.62,1.06-1.93.51-7.07-2.7-6.02-3.57,1.17-.85,5.13,1.08,6.37Z"/>
            <path class="cls-5" d="m136.17,92.42c.46.59,1.17,1.13,1.89.93.64-.18.98-.86,1.2-1.49.21-.62.37-1.27.37-1.92.02-1.85-1.85-5.11-3.78-3.36-1.6,1.45-.85,4.31.32,5.83Z"/>
            <path class="cls-5" d="m129.9,97.66c.55.53,1.3,1.11,2,.81.31-.13.53-.42.71-.71,1.27-2.07,1.09-8.45-2.57-8.05-1.54.17-2.1,1.76-2.22,3.07-.19,2.11.62,3.44,2.09,4.87Z"/>
            <path class="cls-5" d="m118.57,96.03c.6.25,1.27.14,1.84-.19.46-.26.85-.66,1.11-1.12.72-1.27,1.38-4.29-.94-3.54-.68.22-1.39.86-1.71,1.49-.22.42-.68,3.2-.3,3.35Z"/>
            <path class="cls-5" d="m124,85.85c.06-.03.1-.09.14-.15.25-.41.28-.91.29-1.38,0-.4,0-.81-.13-1.19-.43-1.28-2.32-1.17-2.38.22-.04.93.75,3.25,2.08,2.5Z"/>
            <path class="cls-5" d="m184.13,80.08c-.03-.06-.09-.1-.15-.14-.41-.25-.91-.28-1.38-.29-.4,0-.81,0-1.19.13-1.28.43-1.17,2.32.22,2.38.93.04,3.25-.75,2.5-2.08Z"/>
            <path class="cls-5" d="m148,89.95c.25.1.51.18.77.21.95.1,1.93-.51,2.27-1.41.78-2.12-1.8-5.26-4.03-4.11-2.41,1.24-1,4.48.99,5.32Z"/>
            <path class="cls-5" d="m182.38,93.62c.3.4.88.62,1.84.53,1.69-.16,2.25-2.47,2.23-3.86,0-.37-.05-.75-.24-1.07-1.25-2.09-5.18,2.6-3.84,4.4Z"/>
            <path class="cls-5" d="m150.12,92.81c.33.33.78.53,1.24.63.5.11,1.05.12,1.49-.14.66-.39.87-1.26.8-2.02-.11-1.24-2.17-4.63-3.81-3.39-.95.72-.42,4.2.28,4.91Z"/>
          </g>
          <path class="cls-2" d="m60.84,44.55c-6.44,16.4-5.28,34.31.38,50.76-10.56-14.37-11.67-36.5-.38-50.76h0Z"/>
        </g>
      </g>
    </g>
  </g>
</svg>