<?xml version="1.0" encoding="UTF-8"?>
<svg id="Layer_2" data-name="Layer 2" xmlns="http://www.w3.org/2000/svg" viewBox="0 0 160.32 190.75">
  <defs>
    <style>
      .cls-1 {
        fill: #fff;
      }

      .cls-2 {
        fill: #008d4a;
      }

      .cls-3 {
        fill: #eab520;
      }
    </style>
  </defs>
  <g id="Blancos">
    <path class="cls-1" d="m16.25,162.96c12.45,12.25,25.78,20.55,39.62,24.67,6.98,2.08,14.36,3.13,21.93,3.13,20.81,0,41.31-7.81,56.23-21.42,19.4-17.7,28.99-44.14,25.64-70.72-.87-6.9-2.48-12.89-4.91-18.3-8.98-19.99-31.7-34.71-57.88-37.52-3.73-.4-7.76-.6-11.95-.6-.46,0-.93,0-1.39,0-.97-8.8-1.22-17.64-.77-26.42.21-4.11-1.27-8.13-4.11-11.12-2.83-2.98-6.76-4.67-10.87-4.67,0,0-3.92,0-3.92,0-4.45,0-8.7,1.95-11.66,5.33-3.54,4.04-4.65,8.95-4.77,16.67-1.38-.2-2.77-.31-4.16-.31-1.63,0-3.27.14-4.86.42-6.52,1.14-9.9,5.1-11.31,7.32-1.79,2.79-3.55,7.43-1.81,13.65,1.03,3.67,2.23,7.93,4.03,12.27-.92.56-1.8,1.14-2.65,1.74C4.81,72.33,2.05,102.21.56,118.26c-.61,6.62-1.45,15.68,1.89,24.94,3.07,8.5,8.98,15.03,13.79,19.76Z"/>
  </g>
  <g id="Layer_1-2" data-name="Layer 1">
    <g>
      <path class="cls-3" d="m15.5,119.64c-.57,6.18-1.06,12.56,1.07,18.46,1.95,5.4,5.96,9.98,10.21,14.16,9.27,9.13,20.37,17.11,33.37,20.98,21.97,6.53,47.48-.13,63.77-14.99,16.29-14.87,23.49-36.94,20.86-57.76-.6-4.79-1.7-9.56-3.71-14.03-7.35-16.35-26.45-26.68-45.8-28.75-17.76-1.9-45.11,1.3-60.03,11.7-15.58,10.85-18.25,34.04-19.74,50.23Z"/>
      <path class="cls-2" d="m71.8,63.18c-3.49-15.79-4.86-32.03-4.01-48.18-1.3,0-2.59,0-3.89,0-2.73,0-.85,23.56-.56,25.84.52,4.01,1.19,8,1.84,12,.4,2.46.47,5.42.87,8.14-2.93-4.83-5.85-9.67-8.78-14.5-1.31-2.16-2.64-4.35-4.48-6.07-3.11-2.91-7.61-4.25-11.8-3.52-.47.08-.99.22-1.24.62-.28.44-.15,1.01,0,1.5,2.18,7.75,4.62,15.93,10.56,21.37,4.33,3.96,9.99,5.93,15.58,7.37,1.89.49,3.31.78,4.33.76.05.02.11.06.16.08l-.04-.08c1.98-.09,2.33-1.5,1.48-5.33Z"/>
      <path class="cls-1" d="m101.06,67.86c-.96,1.16-1.82,2.45-2.14,3.92-.33,1.47-.04,3.14,1.03,4.19,1.42,1.39,3.93,1.27,5.4-.06,1.48-1.33,1.91-3.58,1.33-5.48-.43-1.4-1.82-2.78-3.19-2.26-.31,0-2.12-.32-2.43-.32Z"/>
      <path class="cls-1" d="m116.51,85.03c-1.44.53-2.14,2.36-1.7,3.83s1.8,2.54,3.28,2.97,3.06.3,4.57,0c.3-.06.61-.13.88-.29.4-.24.66-.67.84-1.11.72-1.71.44-3.84-.84-5.17-1.29-1.33-3.58-1.63-5.05-.51-.41,0-1.6.13-1.98.28Z"/>
      <path class="cls-1" d="m101.32,82.56c-2.25.24-4.2,2.23-4.39,4.48-.04.47,0,.97.23,1.38.2.34.52.58.86.77,1.54.83,3.63.46,4.78-.85,1.15-1.31,1.25-3.44.23-4.85,0-.1-1.71-.82-1.71-.93Z"/>
    </g>
  </g>
</svg>