<?xml version="1.0" encoding="UTF-8"?>
<svg xmlns="http://www.w3.org/2000/svg" viewBox="0 0 240.08 183.87">
  <defs>
    <style>
      .cls-1 {
        fill: #57b488;
      }

      .cls-1, .cls-2, .cls-3, .cls-4, .cls-5, .cls-6 {
        stroke-width: 0px;
      }

      .cls-2 {
        fill: #008d4a;
      }

      .cls-7 {
        isolation: isolate;
      }

      .cls-3 {
        fill: #eab520;
        mix-blend-mode: hard-light;
        opacity: .39;
      }

      .cls-4 {
        fill: #fff;
      }

      .cls-5 {
        fill: #45ac7b;
      }

      .cls-6 {
        fill: #219c62;
      }
    </style>
  </defs>
  <g class="cls-7">
    <g id="Layer_2" data-name="Layer 2">
      <g id="Blancos">
        <path class="cls-4" d="m240.05,90.28c-.24-5.99-1.99-11.08-5.21-15.15-3.32-4.19-7.56-6.34-9.6-7.38-13.78-6.99-27.45-10.81-40.68-11.38-.29-2-.66-4.09-1.09-6.27-.64-3.18-1.59-6.95-3.83-10.7-4.52-7.56-12.49-11.9-21.87-11.9-3.85,0-8,.71-12.34,2.11-4.23,1.37-8.27,3.04-12.1,5,0,0,0,0-.01-.01-3.78-4.31-8.06-7.7-11.49-10.42-6.78-5.38-13.46-10.59-20.76-15.27-4.89-3.14-10.87-6.55-18.11-8.1-2.57-.55-5.16-.82-7.69-.82-13.14,0-24.93,7.31-33.19,20.59-4.97,7.99-8.66,18.25-10.13,28.14-1.91,12.88-.31,26.34,4.5,38.53-.73.95-1.44,1.84-2.14,2.66-2.89,3.41-6.84,6.52-11.03,9.82-3.93,3.09-8,6.29-11.92,10.24-12.87,12.97-15.04,30.42-5.3,42.41.28.35.57.68.86,1,5.12,5.66,12.38,8.53,21.56,8.53,1.92,0,3.73-.12,5.25-.23,1.62-.12,3.25-.26,4.87-.4,3.85-.34,7.48-.65,10.9-.65.91,0,1.78.02,2.6.07,1.4.08,3.38.5,5.48.95,3.6.77,7.68,1.64,12.3,1.64,2.35,0,4.65-.24,6.83-.71,8.95-1.93,14.91-7.49,19.26-11.55l.82-.77c.12.33.24.64.34.95.44,1.31.54,2.68-.19,6.17l-.06.26c-4.36,20.45,10.61,25,13.66,25.7,1.54.36,3.13.54,4.73.54,7.2,0,14.26-3.43,21.59-10.5,6.94-6.69,12.3-14.98,15.71-24.04,4.1.97,8.39,1.47,12.81,1.47,7.42,0,14.95-1.36,22.37-4.05,5.23-1.89,10.01-4.27,14.4-6.56,8.32-4.34,17-9.38,24.16-16.76,9.2-9.48,14.21-21.56,13.75-33.16Z"/>
      </g>
      <g id="Productos">
        <g>
          <path class="cls-2" d="m151.27,133.27c9.96,3.88,21.32,3.02,31.37-.61,4.33-1.57,8.47-3.62,12.55-5.75,7.31-3.82,14.6-7.99,20.34-13.91,5.75-5.92,9.85-13.87,9.53-22.11-.09-2.28-.56-4.64-1.97-6.43-1.19-1.5-2.93-2.45-4.64-3.32-12.08-6.13-25.47-10.17-39.01-9.8-17.11.46-33.9,8.24-45.31,21-1.19,1.33-2.33,2.72-3.18,4.28-1.01,1.85-1.6,3.91-1.97,5.99-1.03,5.85-.97,14.4,3.82,18.69,5.3,4.75,11.83,9.38,18.47,11.97Z"/>
          <path class="cls-2" d="m54.81,28.51c-4.33,6.96-6.99,15.43-8.03,22.41-1.78,12,.25,24.53,5.65,35.4,1.61,3.25,3.53,6.37,5.9,9.12,6.1,7.07,15.01,11.38,24.22,12.94,9.21,1.56,18.7.53,27.75-1.78,7.81-2,15.88-5.35,20.27-12.11,4.85-7.48,5.93-20.68,3.57-29.18-.97-3.48-2.79-6.66-4.61-9.78-2.24-3.84-4.54-7.68-7.47-11.02-2.83-3.22-6.19-5.91-9.55-8.57-6.34-5.03-12.72-10.03-19.53-14.4-4.08-2.62-8.4-5.04-13.14-6.05-11.15-2.37-19.46,4.08-25.02,13.02Z"/>
          <path class="cls-6" d="m74.85,29.27c5.01,23.09,16.07,44.77,32.07,62.17,1.99,2.19,5,5.21,7.1,7.27-1.34-1.04-2.68-2.09-4-3.16-19.49-16.54-32.6-40.8-35.16-66.28h0Z"/>
          <path class="cls-6" d="m131.64,101.69c24.04,4.52,49.23,2.27,71.99-6.71,2.86-1.11,6.89-2.9,9.66-4.17-1.5.91-3.02,1.81-4.54,2.69-23.24,12.66-51.74,15.91-77.1,8.19h0Z"/>
          <path class="cls-6" d="m145.58,109.04c5.26-4.59,10.13-9.63,14.53-15.06,3.15-3.88,6.08-8.01,8.02-12.62,3.63-8.62,2.4-19.4.62-28.32-.41-2.06-.92-4.14-2-5.94-3.58-5.99-11.11-5.02-16.72-3.21-15.48,5.01-28.57,15.24-35.49,30.28-3.98,8.67-4.96,19.05-.99,27.72,2.71,5.91,7.96,10.74,14.15,12.79,7.23,2.39,11.9-.51,17.21-5.08.22-.19.43-.37.65-.56Z"/>
          <path class="cls-6" d="m17.72,142.95c.1.12.2.24.31.36,3.63,4.01,9.64,3.78,14.58,3.41,6.77-.5,13.52-1.39,20.32-1.01,6.78.38,13.86,3.66,20.62,2.2,5.3-1.14,9.22-5.11,13.05-8.66,4.39-4.07,9.39-7.4,14.19-10.97,9.13-6.78,21.2-13.54,15.15-26.67-2.34-5.08-5.53-9.84-9.78-13.47-6.22-5.32-13.69-6.52-21.6-7.03-6.62-.43-13.29-1.49-19.75.63-8.93,2.93-13.35,11.13-19.05,17.87-6.88,8.14-16.3,13.42-23.76,20.93-5.55,5.6-10.03,15.33-4.28,22.41Z"/>
          <path class="cls-5" d="m107.05,112.35c-3.03,7.45-2.32,16.92.24,24,1.23,3.4,2.9,6.63,4.05,10.06,1.63,4.83,1.3,9.19.27,14.08-.65,3.07-1.69,7.31,2.3,8.23,4.42,1.02,9.65-3.37,12.54-6.14,9.64-9.3,15.26-22.57,15.39-35.95.11-11.19-5.44-23.86-17.84-25.23-2.99-.33-6.13.06-8.77,1.5-3.95,2.16-6.58,5.52-8.17,9.45Z"/>
          <path class="cls-2" d="m29.67,131.48c26.54-2.45,52.51-10.07,76.1-22.47,1.56-.86,3.13-1.7,4.72-2.52-1.46,1.02-2.94,2.02-4.44,3.01-22.61,14.41-49.55,22.34-76.38,21.98h0Z"/>
          <path class="cls-2" d="m126.71,103.59c.53-20.92,12.61-42.04,31.15-52.07,0,0-3.1,2.4-3.1,2.4-14.86,12.49-24.74,30.6-28.05,49.67h0Z"/>
          <path class="cls-6" d="m123.36,110.9c4.88,8.7,6.8,19.18,5.31,29.04-1.47-9.91-3.17-19.26-5.31-29.04h0Z"/>
          <path class="cls-1" d="m113.71,92.19c-3.05,1.44-5.69,3.6-8.14,5.91-1.86,1.76-3.77,3.99-3.48,6.53.12,1,.57,1.94,1.07,2.81,2.45,4.3,6.15,7.87,10.53,10.16,1.87.98,3.91,1.74,6.03,1.77,5.21.07,6.66-3.96,7.63-8.28.73-3.22,2.18-6.55,2.48-9.84.86-9.65-8.53-12.66-16.12-9.07Z"/>
          <path class="cls-1" d="m148,108.59c1.04-2.05,1.38-4.39.52-7.03-1.05-3.24-4.26-5.8-7.31-7.11-10.09-4.37-11.85,5.11-13.87,12.31-1.36,4.84-1.5,10.94,5.18,11.23,2.56.11,5.03-.92,7.3-2.1,3.25-1.69,6.55-4.14,8.16-7.29Z"/>
          <path class="cls-6" d="m128.01,105.91c.37-1.99.84-3.96,1.57-5.92-1.4,1.7-2.24,3.75-2.67,5.91-2.15-2.91-7.3-4.8-11.11-3.9,3.84.96,7.34,2.36,9.77,5.54.21.29.62.52,1.05.66-.1,1.59,0,3.18.28,4.7.24-1.56.46-3.09.7-4.61.19-.03.38-.07.53-.17l1.31-.66c2.66-1.35,5.31-2.41,8.17-3.44-3.29-.28-6.59.56-9.6,1.88Z"/>
          <path class="cls-3" d="m225.06,90.88c-.09-2.28-.56-4.64-1.97-6.43-1.19-1.5-2.93-2.45-4.64-3.32-12.08-6.13-25.47-10.17-39.01-9.8-3.07.08-6.13.41-9.15.95.6-6.44-.34-13.25-1.53-19.23-.41-2.06-.92-4.14-2-5.94-3.58-5.99-11.11-5.02-16.72-3.21-7.66,2.48-14.73,6.24-20.76,11.22-2.17-3.7-4.4-7.39-7.23-10.61-2.83-3.22-6.19-5.91-9.55-8.57-6.34-5.03-12.72-10.03-19.53-14.4-4.08-2.62-8.4-5.04-13.14-6.05-11.15-2.37-19.46,4.08-25.02,13.02-4.33,6.96-6.99,15.43-8.03,22.41-1.78,12.01.25,24.53,5.65,35.4.5,1.01,1.04,1.99,1.6,2.97-2.92,3.25-5.43,6.96-8.27,10.32-6.88,8.14-16.3,13.42-23.76,20.93-5.55,5.6-10.03,15.33-4.28,22.41.1.12.2.24.31.36,3.63,4.01,9.64,3.78,14.58,3.41,6.77-.5,13.52-1.39,20.32-1.01,6.78.38,13.86,3.66,20.62,2.2,5.3-1.14,9.22-5.11,13.05-8.66,4.39-4.07,9.39-7.4,14.19-10.97,1.4-1.04,2.86-2.07,4.32-3.13.18,3.96.97,7.85,2.18,11.2,1.23,3.4,2.9,6.63,4.05,10.06,1.63,4.83,1.3,9.19.27,14.08-.65,3.07-1.69,7.31,2.3,8.23,4.42,1.02,9.65-3.37,12.54-6.14,9.25-8.92,14.78-21.51,15.33-34.33,3.05,2.01,6.26,3.76,9.5,5.02,9.96,3.88,21.32,3.02,31.37-.61,4.33-1.57,8.47-3.62,12.55-5.75,7.31-3.82,14.6-7.99,20.34-13.91,5.75-5.92,9.85-13.87,9.53-22.11Z"/>
        </g>
      </g>
    </g>
  </g>
</svg>