<?xml version="1.0" encoding="UTF-8"?>
<svg id="Layer_2" data-name="Layer 2" xmlns="http://www.w3.org/2000/svg" viewBox="0 0 213.42 239.62">
  <defs>
    <style>
      .cls-1 {
        fill: #fff;
      }

      .cls-2 {
        fill: #008d4a;
      }

      .cls-3 {
        fill: #081c2c;
      }

      .cls-4 {
        fill: #eab520;
      }
    </style>
  </defs>
  <g id="Blancos">
    <path class="cls-1" d="m196.48,28.85c-1.76-.48-3.45-.88-5.08-1.27-2.24-.53-4.36-1.04-6.17-1.64-.16-.05-.31-.1-.47-.15-.66-.2-1.29-.41-1.91-.62-.88-.29-1.76-.59-2.7-.87-.38-.12-.77-.22-1.16-.3-3.12-.68-5.98-.82-8.28-.93-1.13-.05-2.19-.11-2.95-.21-.35-.05-.7-.08-1.05-.11-1.18-.08-2.84-.45-4.59-.84-3.02-.67-6.75-1.51-11-1.57-1.8-.19-3.88-.61-6.07-1.06-1.99-.41-4.15-.84-6.45-1.18,0-.18.02-.36.03-.54.02-1.08-.09-2.16-.3-3.22-1.08-5.3-4.4-9.42-9.86-12.25l-.09-.05c-1.61-.93-3.39-1.55-5.23-1.83-.95-.14-1.92-.22-2.87-.22-12.07,0-17,10.29-18.62,13.67-.14.29-.27.57-.4.83-.27.45-.52.91-.75,1.38-.89,1.89-2.21,3.95-3.6,6.13-1.41,2.22-3.02,4.75-4.48,7.55-.2.39-.39.79-.56,1.2-.47,1.15-.92,2.31-1.37,3.47-.9,2.33-1.75,4.54-2.67,6.04-.2.33-.4.67-.57,1.02-.34.66-.63,1.2-.92,1.69-12.36,1.53-23.8,13.94-31.46,24.51-3.83,5.34-5.83,10.84-7.6,15.69l-.31.86c-2.07,4.73-4.1,8.05-6.35,10.39-1.84,1.6-3.77,3.19-5.81,4.86-5.97,4.89-12.72,10.42-18.27,17.71-5.91,6.92-13.73,17.57-15.51,31.41-2.59,16.43-.22,29.39,7.24,39.6,5.16,7.8,11.4,17.16,19.92,25.03-.93,2.05-1.48,4.43-1.36,7.18.26,6.16,4.1,11.58,10,14.15.65.28,1.31.51,1.99.7,3.02,2.8,6.92,4.37,11.06,4.37.8,0,1.57-.06,2.3-.16,1.23.25,2.34.33,3.27.33h0c5.88,0,11.16-3.11,14.11-8.31.11-.19.2-.38.3-.58,1.35.09,2.66.15,3.92.22,3.01.15,5.85.29,8.34.68.56.09,1.12.15,1.68.17.7.03,1.41.05,2.11.05h0c17.45,0,35.16-10.15,45.14-25.88,6.41-9.95,8.63-20.73,10.58-30.24.39-1.91.78-3.81,1.21-5.7.06-.28.12-.56.17-.85,1.97-11.88.7-24.25-3.78-36.76-.2-.69-.39-1.38-.58-2.07-.68-2.47-1.44-5.26-2.59-8.18-1.25-3.51-2.95-6.28-4.32-8.53-.58-.95-1.13-1.86-1.47-2.53-.89-2.15-1.08-5.45-.59-10.1.01-.11.02-.21.03-.32.14-1.62.34-3.35.56-5.19.73-6.18,1.6-13.5.28-21.15.61.21,1.2.41,1.76.6.82.28,1.64.55,2.45.84.29.11.59.2.89.29,1.12.33,2.37.76,3.7,1.23,4.25,1.48,9.52,3.31,15.76,3.48,2.02.11,3.97.17,5.81.17h0c18.3,0,31.8-5.59,45.1-18.68,8.59-8.23,7.9-16.15,6.73-20.16-1.42-4.83-5.4-11-16.24-13.27Z"/>
  </g>
  <g id="Layer_1-2" data-name="Layer 1">
    <g>
      <g>
        <path class="cls-2" d="m124.94,137.06c3.47,9.51,4.92,19.62,3.25,29.67-2.4,10.62-3.75,21.82-9.79,31.16-7.13,11.26-20.39,19.55-33.93,18.93-7.37-1.17-14.92-.54-22.22-2.14-8.4-1.68-14.17-3.75-20.5-9.75-8.77-6.9-15.1-16.3-21.19-25.51-6.23-8.31-6.27-19.03-4.68-28.89,1.12-9.19,6.45-17.25,12.36-24.12,6.25-8.36,14.94-14.23,22.68-21.05,4.43-4.41,7.53-10.04,9.99-15.74,1.7-4.63,3.26-9.33,6.16-13.38,4.05-5.6,14.96-18.66,21.99-18.41,10.61-2.35,21.29,4.69,25.43,14.38,3.33,8.64,1.03,18.27.27,27.21-.64,5.98-.61,12.34,1.86,17.92,1.62,3.45,4.13,6.44,5.38,10.09,1.26,3.12,2,6.41,2.95,9.64Z"/>
        <path class="cls-3" d="m123.61,17.35c-.01,1.01-.92,1.72-1.45,2.51-.94,1.26-1.93,2.48-2.84,3.76-3.74,5.47-7.44,10.96-10.26,16.95-1.24,2.9-2.71,5.7-4.1,8.53-1.4,2.75-1.82,7.21-5.68,7.37-3.27-.2-2.51-2.64-.9-4.48.81-1.25,1.53-2.55,2.21-3.88,2.23-3.63,3.5-7.71,5.12-11.62,2.56-4.91,5.96-9.19,8.33-14.19,1.66-2.65,2.87-7.86,6.83-7.26.97.58,2.48,1.07,2.73,2.3Z"/>
        <path class="cls-3" d="m56.39,218.36c1.04,1.74,1.01,8.12-2.23,5.73-.44-.43-.77-1.29-1.41-1.37-1.14.71-2.72,2.73-3.97,1.1-.74-1.14-.94-2.8-2.13-3.59-1.3-.14-2.56.49-3.86.38-3.27-1.42,2.47-4.08,3.74-4.83,3.3-1.9,8.45-1.49,9.86,2.58Z"/>
        <path class="cls-4" d="m193,43.45c6.52,1.23,6.88,3.95,2.55,8.06-12.11,11.96-23.03,15.25-39.87,14.29-5.55-.1-10.59-2.57-15.82-4.11-4.85-1.76-10.08-2.97-13.93-6.6-3.31-3.11-5.83-7.08-8.34-10.82-1.5-1.31-3.17-2.54-4.19-4.31-1.3-1.72.12-2.77,1.17-4.09,3.12-5.14,13.16-2.85,18.44-3.31,5.9.37,11.54,2.31,17.4,2.78,5.24-.06,10.13,2.04,15.33,2.38,3.34.45,6.77.22,10.07.94,1.65.5,3.07,1.03,4.69,1.52,4.1,1.37,8.36,2.11,12.51,3.28Z"/>
      </g>
      <polygon class="cls-1" points="42.63 153.51 43.28 154.25 42.78 155.01 42.81 155.79 42.29 156.43 42.09 157.15 41.63 157.76 41.28 158.42 41.15 159.3 40.5 159.76 39.72 160.05 39.22 160.64 38.6 161.09 37.94 161.48 37.43 162.16 36.62 162.27 35.83 162.35 35.16 162.77 34.46 163.18 33.65 163.08 32.88 163.09 32.12 163.09 31.35 163.29 30.62 163.03 29.98 162.61 29.29 162.37 28.38 162.34 28.19 161.41 27.58 160.96 27.12 160.35 26.71 159.7 26.55 158.94 26.57 158.17 26.52 157.44 26.56 156.71 26.82 156.02 26.57 155.15 27.27 154.64 27.38 153.84 28.16 153.46 28.18 152.55 28.74 152.03 29.28 151.5 29.89 151 30.43 150.42 30.85 149.67 31.59 149.32 32.26 148.85 33.11 148.79 33.81 148.38 34.59 148.13 35.4 148.14 36.21 148.26 37.01 148.04 37.78 148.31 38.6 148.28 39.35 148.58 40 149.06 40.87 149.2 41.1 150.15 42.05 150.37 42.25 151.21 42.5 151.96 42.89 152.67 42.63 153.51"/>
      <polygon class="cls-1" points="49.65 129.97 50.38 129.54 51.18 129.4 51.98 129.55 52.78 129.65 53.54 129.9 54.16 130.49 54.88 130.77 55.5 131.25 56.2 131.63 56.81 132.14 57.24 132.81 57.62 133.49 58.16 134.13 57.9 135 58.06 135.75 57.9 136.49 58.1 137.35 57.56 138 57.37 138.8 56.86 139.43 56.12 139.82 55.55 140.34 54.87 140.71 54.2 141.12 53.44 141.38 52.64 141.33 51.87 141.04 51.06 141.21 50.24 141.19 49.56 140.72 48.87 140.33 48.29 139.79 47.5 139.45 47.03 138.78 46.54 138.12 46.29 137.33 46.16 136.52 45.77 135.8 45.97 134.96 45.73 134.18 45.81 133.37 46.03 132.6 46.32 131.85 46.84 131.22 47.34 130.57 48.16 130.38 48.79 129.81 49.65 129.97"/>
      <polygon class="cls-1" points="64.35 146.82 65.15 146.47 65.99 146.53 66.74 146.95 67.58 147.15 68.16 147.79 68.53 148.55 68.82 149.28 69.41 149.95 69.34 150.8 68.92 151.52 68.55 152.21 68.29 153.01 67.66 153.54 67.23 154.24 66.66 154.81 65.87 155.12 65.41 155.89 64.69 156.29 63.94 156.64 63.05 156.56 62.28 156.75 61.51 157.18 60.69 157.13 59.91 156.84 59.12 156.7 58.39 156.38 57.69 156 57.11 155.45 56.82 154.71 56.58 154.02 56.47 153.3 56.49 152.53 56.87 151.85 56.94 150.97 57.8 150.64 57.98 149.73 58.65 149.28 59.18 148.67 59.87 148.25 60.77 148.21 61.4 147.74 62.03 147.24 62.78 146.98 63.58 146.93 64.35 146.82"/>
    </g>
  </g>
</svg>