<?xml version="1.0" encoding="UTF-8"?>
<svg xmlns="http://www.w3.org/2000/svg" viewBox="0 0 185.57 216.71">
  <defs>
    <style>
      .cls-1 {
        fill: #1f9b60;
      }

      .cls-1, .cls-2, .cls-3, .cls-4 {
        stroke-width: 0px;
      }

      .cls-5 {
        isolation: isolate;
      }

      .cls-2 {
        fill: #3779b6;
        mix-blend-mode: difference;
        opacity: .75;
      }

      .cls-3 {
        fill: #e64228;
      }

      .cls-4 {
        fill: #fff;
      }
    </style>
  </defs>
  <g class="cls-5">
    <g id="Layer_2" data-name="Layer 2">
      <g id="Blancos">
        <path class="cls-4" d="m167.26,63.62c-1.11-.37-2.24-.63-3.42-.79,3.4-4.16,5.46-9.12,5.81-14.45.02-.36.04-.71.05-1.04,2.38-.98,5.25-2.36,8.05-4.72,8.2-6.92,10.25-18.52,4.75-26.98-2.21-3.4-7.5-9.1-18.12-9.1-1.96,0-3.74.18-5.37.38-.96.12-1.81.17-2.54.17-1.11,0-1.64-.13-1.78-.18-.17-.1-.33-.22-.5-.33-1.31-.86-3.28-2.17-6-3.13-3.37-1.19-6.41-1.33-8.41-1.33-.58,0-1.17.01-1.75.03-6,.17-15.06.44-23.18,5.88-2.68,1.79-4.67,3.77-6.28,5.35-.42.41-.93.92-1.33,1.29-.19,0-.42.01-.72.01-.71,0-1.42-.02-2.13-.04-1.01-.03-2.01-.06-3.01-.06-4.16,0-10.38.45-16.24,4.36-3.44,2.29-6.14,5.26-8.08,8.9-4-6.95-10.64-11.94-18.23-13.47-1.37-.28-2.64-.41-3.71-.5-.02-.03-.04-.06-.05-.08-1.75-2.73-4.4-6.85-9.12-9.92-3.72-2.43-8.84-3.88-13.68-3.88C22.97,0,15.44,5.65,13.5,14.06c-.72,3.14-.47,5.72-.33,7.13.13,1.28.15,2.01.14,2.42-3.48,4.57-11.73,16.45-1.96,30.16,2.9,4.07,6.46,6.77,9.07,8.74.47.36.95.71,1.41,1.08-.13.68-.34,1.56-.51,2.27-1.23,5.19-3.29,13.87,2.04,22.85,5.2,8.76,13.35,10.86,16.82,11.75l.81.21c.52.13,1.05.26,1.56.41.04.02.12.06.17.09.17.24.38.56.6.9,0,.17-.06,1.2-.09,1.57-.02.4-.05.81-.08,1.22l-.08,1.06c-.03.41-.07.81-.1,1.24l-.1,1.03c-.04.42-.13,1.28-.13,1.28h-.14c-.32,0-.64.01-.94.03-.87.04-1.75.09-2.63.17-.06,0-.11,0-.17.01-2.25.2-4.49.6-6.66,1.18-2.12.57-4.21,1.32-6.22,2.23-9.58,4.36-17.24,12.26-21.57,22.27-.84,1.94-1.54,3.96-2.09,5.98C.65,147.4-.12,153.58.01,159.73c.23,10.5,3.13,20.8,8.39,29.79.83,1.42,1.72,2.83,2.64,4.22.9,1.35,1.85,2.7,2.83,4.01.79,1.06,1.6,1.98,2.34,2.75-.01.17-.02.34-.03.51-.39,8.27,5.99,15.3,14.27,15.69.24.01.49.02.73.02,3.65,0,7.02-1.32,9.64-3.52.01,0,.03,0,.04,0,.77.02,1.54.05,2.34.06.5,0,.99.01,1.5.01,1.97,0,3.74-.09,5.41-.29,2.23-.26,4.54-.67,6.87-1.25,3.79-.93,7.65-2.29,11.46-4.03,1.05-.48,2.13-1.01,3.4-1.69,2.25-1.2,4.39-2.51,6.37-3.89,2.37-1.66,4.67-3.53,6.86-5.58,2.1-1.96,4.11-4.11,5.97-6.37,1.21-1.46,2.38-3.04,3.69-4.96,2.16-3.15,4.02-6.38,5.53-9.58.68-1.45,1.3-2.97,1.83-4.5.18-.52.35-1.05.51-1.57.51-1.66.91-3.35,1.19-5.01.15-.88.26-1.68.34-2.45.15-1.42.21-2.85.19-4.26-.02-1.46-.13-2.92-.32-4.35-.51-3.73-1.62-7.36-3.31-10.78-1.53-3.11-3.46-6.1-5.78-8.94,1.47.11,2.83.16,4.14.16,8.69,0,15.79-2.47,21.1-7.34,1.8-1.65,3.11-3.33,4.11-4.66.99.19,2.2.52,3.47.86,2.58.7,5.5,1.48,8.92,1.85,1.24.13,2.48.2,3.7.2,4.68,0,9.03-.97,12.93-2.88,6.82-3.34,11.82-9.56,13.39-16.64.07-.33.13-.65.19-.96,1.97-.68,4.32-1.62,6.74-3.2,2.52-1.64,4.46-3.59,5.92-5.95,3.26-5.29,3.52-11.41.79-18.17-1.05-2.61-4.26-10.54-13.03-13.44Z"/>
      </g>
      <g id="Productos">
        <g>
          <path class="cls-1" d="m86.62,98.63c.79-1.85,2.07-3.45,3.4-4.96,1.42-1.6,2.96-3.15,4.88-4.11,4.82-2.4,10.71-.5,15.91-1.88,4.64-1.23,8.16-4.88,11.81-7.99s8.25-5.95,12.96-5.04c2.71.52,5.04,2.23,7.68,3.02,2.62.78,5.41.64,8.14.48,2.81-.16,5.63-.32,8.44-.47.91-.05,1.85-.1,2.72.19,2.01.66,3.03,2.85,3.82,4.81.61,1.51,1.2,3.3.35,4.69-.32.52-.81.91-1.32,1.24-2.07,1.35-4.55,1.88-6.86,2.74s-4.65,2.24-5.61,4.51c-.82,1.95-.47,4.18-.92,6.24-.62,2.81-2.75,5.14-5.33,6.4s-5.56,1.55-8.42,1.24c-3.88-.42-7.57-1.87-11.41-2.57-3.84-.7-8.14-.54-11.19,1.88-2.25,1.79-3.52,4.55-5.63,6.49-3.88,3.56-9.74,3.68-14.99,3.2-4.39-.4-9.45-1.26-13.65.25,1.74-4.11,3.57-7.43,3.88-12.06.18-2.8.23-5.67,1.35-8.3Z"/>
          <path class="cls-1" d="m75.18,92.79c.03-3.92-.85-7.79-1.09-11.7s.25-8.1,2.67-11.19c2.41-3.08,6.39-4.62,8.82-7.69,3.41-4.31,2.96-10.37,2.77-15.86s.51-11.85,5.08-14.9c5.65-3.77,13.69-.12,19.89-2.89,3.89-1.74,6.32-5.68,9.86-8.05,4.39-2.94,9.98-3.19,15.26-3.34,1.59-.05,3.23-.09,4.73.45,1.46.52,2.69,1.54,4.03,2.32,4.03,2.35,8.97,2.45,13.6,1.89,3.27-.4,7.31-.76,9.11,2,1.5,2.31.26,5.56-1.85,7.34s-4.86,2.55-7.39,3.65c-2.53,1.1-5.09,2.78-5.91,5.42-.71,2.3.06,4.78-.09,7.19-.33,5.08-4.82,9.02-9.59,10.8s-9.97,2-14.93,3.15c-2.53.59-5.04,1.44-7.12,3-4.82,3.6-6.41,10.18-10.67,14.43-6.13,6.12-16.01,6-23.78,9.81-6.61,3.23-10.11,8.83-14.7,14.17-1.1-1.59,1.29-7.6,1.31-9.98Z"/>
          <path class="cls-1" d="m43.91,85.92c-3.05-.79-5.75-1.67-7.67-4.88-3.48-5.86.77-12.25.7-18.42-.05-4.21-2.07-7.76-5.3-10.39-2.8-2.28-5.98-4.22-8.08-7.16-3.59-5.04-1.14-8.73,2.08-12.9,2.88-3.74,2.9-7.94,2.45-12.46-.08-.76-.15-1.53.02-2.27.86-3.72,7.4-2.44,9.62-.99,4.46,2.91,5.58,9.46,10.63,11.55,2.34.97,5,.59,7.48,1.09,4.38.88,7.86,4.54,9.34,8.75,2.73,7.76-2.04,14.35-1.2,21.93.48,4.31,3.33,7.97,4.57,12.13,3.33,11.22-4.68,21.96-9.23,31.54,1.19-2.5-3.1-9.21-4.55-11.21-1.92-2.66-4.93-4.69-8.08-5.59-.95-.27-1.88-.5-2.78-.73Z"/>
          <path class="cls-3" d="m54.18,131.15c6.25-26.71,6.96-57.4-6.93-81.92-2.03-3.48-4.42-6.74-7.02-9.84,2.71,2.99,5.24,6.17,7.42,9.6,10.92,17.37,13.84,38.52,13.07,58.72-.35,8.17-1.22,16.24-2.96,24.36l-3.57-.91h0Z"/>
          <path class="cls-3" d="m132.88,36.44c-33.63,22.04-57.75,57.43-68.63,95.9,0,0-3.54-1.05-3.54-1.05,12.18-38.54,37.52-73.62,72.16-94.85h0Z"/>
          <path class="cls-3" d="m142.99,86.89c-31.15,3.06-58.58,23.69-74.22,50.22,0,0-3.13-1.96-3.13-1.96,16.94-26.32,45.59-46.39,77.34-48.26h0Z"/>
          <path class="cls-3" d="m30.46,193.75c-1.33-1.82-3.21-3.17-4.56-4.98-1.65-2.21-3.16-4.47-4.55-6.85-6.52-11.13-7.96-24.21-4.58-36.66,2.95-10.88,12.07-19.63,23.42-20.66,11.7-1.06,22.06,2.74,31.8,8.88,6.17,3.89,11.99,9.21,15.24,15.84,3.2,6.52,2.51,13.45-.54,19.91-3.78,8.01-9.81,15.51-17.08,20.6-2.33,1.63-4.8,3.04-7.38,4.22-4.37,1.99-9.03,3.48-13.82,4.02-3.29.38-6.64.08-9.92.05-1.56-.01-7.22,1.4-7.32,3.58.12-2.55,1.26-4.7-.17-7.15-.16-.28-.34-.55-.53-.81Z"/>
          <path class="cls-2" d="m71.99,133.5c-.23-.15-.47-.29-.7-.43,15.96-24.56,42.15-43.27,71.7-46.18-30.18,1.78-57.54,20-74.73,44.39-1.06-.59-2.13-1.14-3.21-1.67,11.23-37.41,35-71.65,67.82-93.17-33.69,20.65-58.58,54.39-71.13,91.68-1-.41-2-.81-3.02-1.16,1.1-6.41,1.71-12.8,1.99-19.26.77-20.19-2.15-41.35-13.07-58.72-2.17-3.43-4.7-6.61-7.42-9.6,2.6,3.1,4.99,6.35,7.02,9.84,13,22.94,13.22,51.28,8.07,76.7-4.81-1.28-9.83-1.8-15.13-1.32-11.35,1.03-20.47,9.78-23.42,20.66-3.38,12.45-1.95,25.52,4.58,36.66,1.39,2.38,2.9,4.64,4.55,6.85,1.35,1.81,3.23,3.16,4.56,4.98.19.26.37.53.53.81,1.44,2.45.3,4.6.17,7.15.11-2.18,5.76-3.59,7.32-3.58,3.27.02,6.62.32,9.92-.05,4.79-.55,9.45-2.03,13.82-4.02,2.58-1.18,5.06-2.59,7.38-4.22,7.26-5.08,13.3-12.58,17.08-20.6,3.05-6.47,3.74-13.39.54-19.91-3.25-6.63-9.07-11.95-15.24-15.84Z"/>
          <path class="cls-4" d="m18.75,156.27c-.21-14.93,13.93-27.46,28.43-27.76-3.39,1.18-6.57,2.59-9.56,4.3-9.35,5.29-15.76,13.13-18.87,23.47h0Z"/>
        </g>
      </g>
    </g>
  </g>
</svg>