<?xml version="1.0" encoding="UTF-8"?>
<svg id="Layer_2" data-name="Layer 2" xmlns="http://www.w3.org/2000/svg" viewBox="0 0 217.68 184.32">
  <defs>
    <style>
      .cls-1 {
        fill: #fff;
      }

      .cls-2 {
        fill: #e64428;
      }

      .cls-3 {
        fill: #008d4a;
      }
    </style>
  </defs>
  <g id="Blancos">
    <path class="cls-1" d="m210.07,112.36c-1.44-.82-2.98-1.38-4.56-1.69L46.98,9.78l-6.76-6c-2.76-2.45-6.31-3.78-9.96-3.78-.76,0-1.52.06-2.27.17-4.41.68-8.29,3.28-10.59,7.11-.64,1.06-15.58,26.36-17.25,63-1.85,40.8,13.42,62.73,36.92,83.1,21.69,18.8,56.1,30.94,87.68,30.94,7.05,0,13.86-.62,20.24-1.83,35.44-6.75,66.39-34.15,67.69-35.32,3.19-2.85,5-6.93,5-11.2l-.02-10.6c0-5.39-2.9-10.35-7.59-13.02Z"/>
  </g>
  <g id="Layer_1-2" data-name="Layer 1">
    <g>
      <path class="cls-2" d="m35.55,20.29l166.37,105.87s-28.74,49.91-116.46,28.74C-2.26,133.73,35.55,20.29,35.55,20.29Z"/>
      <polygon class="cls-1" points="86.92 73.32 86.16 73.57 85.39 74.02 84.56 74.34 83.78 74.76 83.06 75.29 82.21 75.62 81.49 76.16 80.91 76.85 80.2 77.39 79.56 78.01 78.85 78.58 78.38 79.35 77.87 80.08 77.43 80.86 77.07 81.68 76.82 82.55 77.12 83.4 77.42 84.26 78.22 84.72 78.17 84.82 79.11 85.02 80.02 85.17 80.95 85.26 81.87 85.08 82.75 84.76 83.56 84.29 84.28 83.69 84.81 82.92 85.29 82.12 85.69 81.29 85.89 80.4 86.22 79.55 86.4 78.66 86.5 77.75 86.62 76.85 86.89 75.97 86.96 75.06 86.9 74.14 86.92 73.32"/>
      <polygon class="cls-1" points="90.02 95.88 89.13 96.14 88.35 96.6 87.52 96.95 86.94 97.7 86.19 98.18 85.37 98.58 84.87 99.36 84.06 99.82 83.61 100.62 83.14 101.38 82.62 102.11 82.38 102.99 82.11 103.81 82.05 104.68 81.83 105.55 81.88 106.44 82.16 107.29 82.28 108.16 82.69 108.95 83 109.77 83.49 110.49 84.06 111.18 84.91 111.39 85.73 111.5 86.57 111.32 87.33 110.86 87.85 110.14 88.39 109.45 89 108.8 89.44 108.02 89.76 107.19 90.13 106.38 90.58 105.58 90.54 104.65 90.78 103.8 90.92 102.92 91.13 102.03 90.85 101.14 90.89 100.25 90.77 99.37 90.74 98.47 90.63 97.58 90.15 96.79 90.02 95.88"/>
      <polygon class="cls-1" points="111.23 91.28 110.28 91.6 109.54 92.16 108.64 92.37 107.86 92.84 107.16 93.43 106.3 93.77 105.62 94.38 104.93 94.97 104.29 95.62 103.7 96.31 103.09 96.99 102.71 97.82 102.5 98.7 102.06 99.53 102.14 100.45 102.2 101.4 102.45 102.3 102.61 103.26 103.24 104 104.06 104.47 104.82 104.75 105.6 105.16 106.45 104.99 107.21 104.64 107.93 104.27 108.59 103.78 109.28 103.25 109.51 102.41 109.8 101.6 110.19 100.82 110.25 99.94 110.44 99.1 110.74 98.28 110.78 97.41 110.78 96.55 111.08 95.71 111.04 94.84 111.06 93.97 111.24 93.12 111.2 92.25 111.23 91.28"/>
      <polygon class="cls-1" points="65.61 69.18 64.63 69.34 63.73 69.47 62.84 69.6 61.97 69.88 61.13 70.21 60.27 70.49 59.4 70.76 58.57 71.13 57.72 71.49 57.01 72.06 56.28 72.62 55.7 73.33 55.21 74.09 54.72 74.86 54.41 75.72 54.18 76.65 54.19 77.61 54.28 78.56 54.77 79.38 55.3 80.13 55.96 80.63 56.68 81.06 57.51 81.18 58.33 81.11 59.18 81.08 59.97 80.75 60.57 80.13 61.16 79.54 61.73 78.89 62.07 78.08 62.5 77.33 62.85 76.54 63.18 75.74 63.55 74.97 63.91 74.18 64.33 73.42 64.63 72.61 64.89 71.78 65.13 70.95 65.36 70.11 65.61 69.18"/>
      <polygon class="cls-1" points="125.1 116.38 124.42 116.97 123.71 117.53 123.02 118.12 122.15 118.49 121.5 119.13 120.82 119.73 120.17 120.37 119.33 120.78 118.63 121.38 118.05 122.09 117.43 122.77 116.67 123.29 116.07 123.98 115.51 124.68 115.08 125.46 114.75 126.31 114.75 127.22 114.73 128.12 114.95 129.01 115.27 129.87 115.46 130.78 116 131.52 116.81 132 117.71 132.22 118.64 132.36 119.57 132.19 120.34 131.65 121.01 131.01 121.33 130.14 121.85 129.37 122.05 128.46 122.37 127.62 122.52 126.74 122.88 125.91 123.05 125.04 123.25 124.17 123.37 123.28 123.73 122.45 123.79 121.54 123.87 120.65 124.12 119.79 124.59 118.99 124.63 118.08 124.99 117.25 125.1 116.38"/>
      <path class="cls-3" d="m30.26,15l7.16,6.36s-28.34,61.7,12.5,101.02c40.84,39.32,71.08,37.81,108.89,27.22,3.02,0,43.84-24.21,43.84-24.21l.02,10.6s-28.74,25.71-60.5,31.76c-31.76,6.05-72.6-6.05-95.28-25.71-22.69-19.66-33.27-37.81-31.76-71.08,1.51-33.27,15.12-55.96,15.12-55.96Z"/>
    </g>
  </g>
</svg>