<?xml version="1.0" encoding="UTF-8"?>
<svg id="Layer_2" data-name="Layer 2" xmlns="http://www.w3.org/2000/svg" viewBox="0 0 250.08 209.33">
  <defs>
    <style>
      .cls-1 {
        fill: #19995c;
      }

      .cls-1, .cls-2, .cls-3, .cls-4, .cls-5, .cls-6, .cls-7 {
        stroke-width: 0px;
      }

      .cls-2 {
        fill: #008d4a;
      }

      .cls-3 {
        fill: none;
      }

      .cls-4 {
        fill: #fff;
      }

      .cls-5 {
        fill: #cd7534;
        isolation: isolate;
        opacity: .4;
      }

      .cls-6 {
        fill: #4caf81;
      }

      .cls-7 {
        fill: #66bb93;
      }
    </style>
  </defs>
  <g id="Blancos">
    <path class="cls-3" d="m23.81,81.94c-.57,3.07-1.02,6.17-1.35,9.28-.22,2.08-.33,4.16-.39,6.24.05-2.08.17-4.15.39-6.24.33-3.11.78-6.21,1.35-9.28Z"/>
    <path class="cls-4" d="m250.08,108.37c-.23-43.21-29.6-81.13-72.3-94.26-5.1-14.34-33.11-12.75-44.56-7.76C77.36-15.24,5.47,20.14,1.88,83.88c-2.39,30.67-8.96,72.33,32.09,77.74,24.88,3.79,50-4.95,72.72-14.54,20.58,21.64,59.86,67.35,96.39,61.79,29.64-22.24,45.76-65.16,46.99-100.49Z"/>
  </g>
  <g id="Productos">
    <g>
      <path class="cls-6" d="m147.46,48.6c.02.1.05.21.07.31-.02-.11-.04-.21-.07-.31Z"/>
      <path class="cls-1" d="m143.13,36.52c1.13-.96,1.87-2.03,1.36-2.98-.26-.49-.76-.79-1.27-1.01-1.09-.48-2.16-1.11-2.41-2.37-.14-.73.02-1.48.09-2.23.41-4.71-5.14-.29-6.26-3.25-.38-1,.14-2.09-.85-2.83-.77-.58-1.83-.6-2.92-.55-1.1.05-2.22.17-3.11-.14-.96-.34-1.67-1.14-2.4-1.85-.9-.89-2.49-2.19-3.41-.62-.17.28-.23.61-.27.94,4.46,1.51,8.65,3.5,12.11,6.13,3.97,3.02,7.05,6.66,9.34,10.76Z"/>
      <path class="cls-6" d="m146.63,45.05s.03.09.04.13c-.01-.04-.03-.09-.04-.13Z"/>
      <path class="cls-6" d="m37.96,38.36c1.47-1.45,3-2.84,4.59-4.17-1.59,1.33-3.12,2.72-4.59,4.17Z"/>
      <path class="cls-6" d="m33.76,42.9c1.33-1.57,2.73-3.09,4.2-4.54-1.47,1.45-2.87,2.97-4.2,4.54Z"/>
      <path class="cls-6" d="m147.08,46.79c.02.08.04.16.06.24-.02-.08-.04-.16-.06-.24Z"/>
      <path class="cls-6" d="m102.83,15.8c.21.02.43.05.64.07-.21-.02-.43-.05-.64-.07Z"/>
      <path class="cls-6" d="m146.11,43.34s0,.02,0,.03c0,0,0-.02,0-.03Z"/>
      <path class="cls-6" d="m107.94,16.43c.16.02.33.05.49.07-.17-.03-.33-.05-.49-.07Z"/>
      <path class="cls-6" d="m116.34,18.07s.06.02.1.02c-.03,0-.06-.02-.1-.02Z"/>
      <path class="cls-6" d="m105.29,16.07c.22.03.45.06.68.09-.23-.03-.45-.06-.68-.09Z"/>
      <path class="cls-6" d="m118.95,18.78c.06.02.12.04.19.05-.06-.02-.12-.04-.19-.05Z"/>
      <path class="cls-6" d="m86.96,138.9c-3.62,1.28-7.26,2.43-10.92,3.48,3.65-1.05,7.3-2.2,10.92-3.48Z"/>
      <path class="cls-6" d="m42.19,147.53c1.78.11,3.58.14,5.38.09-1.8.05-3.6.02-5.38-.09Z"/>
      <path class="cls-6" d="m97.68,134.7c-2.35,1.02-4.72,1.98-7.11,2.89,2.39-.91,4.77-1.87,7.11-2.89Z"/>
      <path class="cls-6" d="m76.04,142.38c-2.43.7-4.87,1.35-7.3,1.96,2.43-.61,4.86-1.26,7.3-1.96Z"/>
      <path class="cls-6" d="m24.24,142.37c.8.51,1.63.96,2.49,1.37,4.87,2.31,10.11,3.45,15.46,3.79-5.35-.34-10.59-1.48-15.46-3.79-.86-.41-1.69-.86-2.49-1.37Z"/>
      <path class="cls-6" d="m33.76,42.9c-5.32,6.29-9.5,13.52-12.09,21.54-1.02,3.16-1.91,6.36-2.68,9.58.77-3.23,1.67-6.42,2.68-9.58,2.59-8.02,6.76-15.25,12.09-21.54Z"/>
      <path class="cls-3" d="m103.47,15.86c.6.06,1.21.13,1.82.21-.61-.08-1.22-.14-1.82-.21Z"/>
      <path class="cls-3" d="m138.29,104.06c-.77,1.16-1.59,2.29-2.44,3.39.86-1.1,1.67-2.23,2.44-3.39Z"/>
      <path class="cls-3" d="m133.16,110.66c-.93,1.04-1.9,2.05-2.9,3.04,1-.99,1.97-2,2.9-3.04Z"/>
      <path class="cls-3" d="m58.21,24c1.87-.93,3.78-1.79,5.72-2.57-1.94.79-3.85,1.64-5.72,2.57Z"/>
      <path class="cls-3" d="m72.82,18.38c4.02-1.13,8.12-1.95,12.24-2.46-4.12.5-8.22,1.33-12.24,2.46Z"/>
      <path class="cls-3" d="m47.48,30.39c1.7-1.2,3.44-2.33,5.24-3.4-1.79,1.07-3.54,2.2-5.24,3.4Z"/>
      <path class="cls-3" d="m52.71,26.99c1.79-1.07,3.63-2.07,5.5-2.99-1.87.93-3.71,1.93-5.5,2.99Z"/>
      <path class="cls-3" d="m121.69,19.63c-.84-.28-1.69-.55-2.55-.8.86.25,1.71.52,2.55.8h0Z"/>
      <path class="cls-3" d="m105.97,16.16c.65.08,1.31.18,1.98.27-.66-.1-1.32-.19-1.98-.27Z"/>
      <path class="cls-3" d="m147.39,76.55c.23-1.83.42-3.67.58-5.51.15-1.68.28-3.37.37-5.06-.09,1.69-.22,3.38-.37,5.06-.16,1.84-.35,3.68-.58,5.51Z"/>
      <path class="cls-3" d="m138.29,104.06c2.31-3.48,4.22-7.24,5.6-11.32,1.48-4.37,2.45-8.88,3.13-13.45-.68,4.57-1.64,9.08-3.13,13.45-1.38,4.08-3.29,7.84-5.6,11.32Z"/>
      <path class="cls-3" d="m114.6,125.85c3.22-2.02,6.33-4.2,9.3-6.56,1.67-1.32,3.28-2.7,4.83-4.14-1.55,1.44-3.16,2.82-4.83,4.14-2.96,2.35-6.07,4.53-9.3,6.56Z"/>
      <path class="cls-3" d="m100.49,15.58c.77.06,1.55.13,2.34.21-.79-.08-1.57-.15-2.34-.21-5.1-.41-10.28-.28-15.43.35,5.15-.63,10.33-.76,15.43-.35Z"/>
      <path class="cls-3" d="m116.43,18.1c.84.21,1.68.44,2.52.68-.83-.24-1.67-.47-2.52-.68Z"/>
      <path class="cls-3" d="m108.44,16.51c2.61.4,5.27.91,7.9,1.57-2.63-.65-5.29-1.17-7.9-1.57Z"/>
      <path class="cls-3" d="m146.12,43.36c.18.56.35,1.12.51,1.69-.16-.57-.33-1.13-.51-1.69Z"/>
      <path class="cls-3" d="m146.67,45.19c.15.53.28,1.07.41,1.61-.13-.54-.26-1.08-.41-1.61Z"/>
      <path class="cls-3" d="m146.11,43.34c-.78-2.38-1.77-4.66-2.97-6.81h0c1.2,2.15,2.19,4.43,2.97,6.81Z"/>
      <path class="cls-3" d="m148.47,58.38c-.07-2.53-.26-5.06-.63-7.57-.09-.64-.2-1.27-.32-1.9.12.63.22,1.26.32,1.9.37,2.51.56,5.03.63,7.57Z"/>
      <path class="cls-3" d="m147.14,47.04c.12.52.23,1.04.33,1.56-.1-.52-.21-1.05-.33-1.56Z"/>
      <path class="cls-6" d="m148.47,58.38c-.07-2.53-.26-5.06-.63-7.57-.09-.64-.2-1.27-.32-1.9-.02-.11-.04-.21-.07-.31-.1-.52-.21-1.05-.33-1.56-.02-.08-.04-.16-.06-.24-.13-.54-.26-1.08-.41-1.61-.01-.04-.03-.09-.04-.13-.16-.57-.33-1.13-.51-1.69,0,0,0-.02,0-.03-.78-2.38-1.77-4.66-2.97-6.81h0c-2.29-4.1-5.37-7.75-9.34-10.76-3.46-2.63-7.64-4.62-12.11-6.13h0c-.84-.28-1.69-.55-2.55-.8-.06-.02-.12-.04-.19-.05-.83-.24-1.67-.47-2.52-.68-.03,0-.06-.02-.1-.02-2.63-.65-5.29-1.17-7.9-1.57-.17-.03-.33-.05-.49-.07-.66-.1-1.32-.19-1.98-.27-.23-.03-.45-.06-.68-.09-.61-.08-1.22-.14-1.82-.21-.21-.02-.43-.05-.64-.07-.79-.08-1.57-.15-2.34-.21-5.1-.41-10.28-.28-15.43.35-4.12.5-8.22,1.33-12.24,2.46-3.02.85-5.99,1.86-8.89,3.04-1.94.79-3.85,1.64-5.72,2.57-1.87.93-3.71,1.93-5.5,2.99-1.79,1.07-3.54,2.2-5.24,3.4-1.7,1.2-3.34,2.47-4.93,3.79-1.59,1.33-3.12,2.72-4.59,4.17-1.47,1.45-2.87,2.97-4.2,4.54-5.32,6.29-9.5,13.52-12.09,21.54-1.02,3.16-1.91,6.36-2.68,9.58-.51,2.15-.97,4.32-1.37,6.49-.6,3.26-1.08,6.55-1.43,9.85-.23,2.21-.35,4.42-.41,6.62-.03,1.1-.04,2.2-.04,3.3,0,2.2.03,4.4.05,6.59.03,3.3.04,6.59-.16,9.89-.03.42-.05.85-.08,1.27-.14,2.12-.31,4.23-.33,6.31-.03,2.92.22,5.79,1.2,8.55.28.79.62,1.56,1.04,2.33.21.38.43.76.67,1.14.27.42.55.83.85,1.22,1.48,1.95,3.27,3.53,5.27,4.8.8.51,1.63.96,2.49,1.37,4.87,2.31,10.11,3.45,15.46,3.79,1.78.11,3.58.14,5.38.09,7.2-.2,14.46-1.59,21.17-3.28,2.43-.61,4.86-1.26,7.3-1.96,3.65-1.05,7.3-2.2,10.92-3.48,1.21-.43,2.41-.86,3.6-1.32,2.39-.91,4.77-1.87,7.11-2.89,5.87-2.55,11.56-5.48,16.93-8.85,3.22-2.02,6.33-4.2,9.3-6.56,1.67-1.32,3.28-2.7,4.83-4.14.52-.48,1.03-.97,1.53-1.46,1-.99,1.97-2,2.9-3.04.93-1.04,1.83-2.11,2.69-3.21.86-1.1,1.67-2.23,2.44-3.39,2.31-3.48,4.22-7.24,5.6-11.32,1.48-4.37,2.45-8.88,3.13-13.45.14-.91.26-1.83.37-2.74.23-1.83.42-3.67.58-5.51.15-1.68.28-3.37.37-5.06.14-2.53.2-5.07.13-7.61Z"/>
      <path class="cls-2" d="m20.44,130.76c17.73-44.45,52.46-82.1,96.1-102.03,0,0,8.8-3.73,8.8-3.73l-8.69,3.95c-43.04,20.87-77.33,57.99-96.2,101.81h0Z"/>
      <path class="cls-2" d="m27.18,136.5c11.55-4.75,21.66-12.42,31.72-19.69,24.7-18.84,48.5-39.8,66.27-65.47,3.48-5.17,6.59-10.61,9.01-16.37-13.33,32.38-47.18,61.71-74.83,82.46-10.18,7.14-20.45,14.7-32.18,19.08h0Z"/>
      <path class="cls-2" d="m34.49,143.47c45.1-2.44,89.95-29.04,103.99-73.59,1.98-6.14,3.29-12.5,3.87-18.95-.42,6.46-1.58,12.87-3.4,19.09-13.34,45.02-59.03,72.31-104.46,73.44h0Z"/>
      <path class="cls-2" d="m20.48,73.91c9.21-26.67,36.84-50.57,64.47-56.14-3.57.97-7.09,2.05-10.51,3.44-23.37,9.89-44.22,29.06-53.96,52.69h0Z"/>
      <path class="cls-7" d="m232.35,88.52c-.92-3.37-6.83-35.98-49.11-56.68-5.13-2.51-19.41-5.85-20.93-6.39,0,0,1.38-2.66,1.56-4.01.24-1.79-.05-2.91-2.22-2.98-1.04-.03-2.05.31-3.04.66-2.19.75-4.93,2-7.29,1.86-1.44-.08-2.9-1.02-4.04-1.85-.8-.58-1.65-1.17-2.62-1.34-3.02-.51-4.7,4.82-5.97,6.81-1.23,1.91-3.62,1.49-5.72,1.36-1.72-.11-4.15-.77-5.79-.09-2.39,1-.72,4.47-.44,6.22.08.51.17,1.01.1,1.5-.5,3.5-7.14.62-7.96,4.52-.36,1.75,3.53,4.94,4.64,6.17-.47,1.19-.93,2.38-1.39,3.57-1.85,4.9-5.32,12.57-6.53,17.66-5.84,24.43-4.34,51.18,6.81,73.94,9.44,19.27,29.02,31.81,46.99,43.52,6.35,4.14,12.87,8.09,19.9,10.91,2.69,1.08,5.73,1.99,8.44.96,2.17-.83,3.7-2.74,5.09-4.6,21.25-28.43,39.31-65.78,29.52-101.73Z"/>
      <path class="cls-2" d="m146.01,39.07c1.56,12.27,3.8,26.83,6.11,38.98,6.61,35.54,18.02,70.19,34.07,102.59,0,0,4.46,8.8,4.46,8.8l-4.68-8.69c-16.85-32.07-28.31-66.91-34.6-102.56-2.18-12.18-4.13-26.81-5.35-39.12h0Z"/>
      <path class="cls-2" d="m162.32,28.02c32,12.44,49.98,43.57,56.64,75.93,5.29,24.3-2.32,52.32-11.92,74.73,2.83-6.73,5.17-13.65,7.08-20.69,4.21-15.71,7.24-32.26,4.93-48.5-5.61-33.66-23.81-67.95-56.72-81.48h0Z"/>
      <path class="cls-2" d="m125.34,48.6c-7.19,18.5-11.77,38.21-11.82,58.12l.07,3.99-.33-3.98c-.97-19.96,3.67-40.08,12.09-58.13h0Z"/>
      <path class="cls-2" d="m142.01,37.6c-7.43-3.57-14.24-4.65-13.92,5.96-.37-1.74-.56-3.58-.08-5.39,1.82-6.65,10.22-3.77,14-.57h0Z"/>
      <path class="cls-2" d="m147.36,35.2c-.18-4.21,1.33-12.73,7.35-10.18,1.54.69,2.76,1.81,3.84,2.99-8.24-6.08-9.47-.07-11.18,7.19h0Z"/>
      <path class="cls-5" d="m232.35,88.52c-.92-3.37-6.83-35.98-49.11-56.68-5.13-2.51-19.41-5.85-20.93-6.39,0,0,1.38-2.66,1.56-4.01.24-1.79-.05-2.91-2.22-2.98-1.04-.03-2.05.31-3.04.66-2.19.75-4.93,2-7.29,1.86-1.44-.08-2.9-1.02-4.04-1.85-.8-.58-1.65-1.17-2.62-1.34-3.02-.51-4.7,4.82-5.97,6.81-.37.58-.86.93-1.41,1.15-1.14.1-2.22.05-2.64-1.08-.38-1,.14-2.09-.85-2.83-.77-.58-1.83-.6-2.92-.55-1.1.05-2.22.17-3.11-.14-.96-.34-1.67-1.14-2.4-1.85-.9-.89-2.49-2.19-3.41-.62-.17.28-.23.61-.27.94-6.96-2.35-14.58-3.52-21.2-4.05-32.66-2.63-68.47,16.77-78.82,48.85-2.72,8.42-4.56,17.12-5.49,25.92-.94,8.84-.04,17.6-.56,26.4-.4,6.77-1.39,13.56,2.5,19.6,2.16,3.36,5.17,5.75,8.61,7.38,12.99,6.16,28.58,3.97,42.02.6,16.55-4.15,33.47-10.32,47.89-19.82,1.52,5.11,3.42,10.12,5.78,14.93,9.44,19.27,29.02,31.81,46.99,43.52,6.35,4.14,12.87,8.09,19.9,10.91,2.69,1.08,5.73,1.99,8.44.96,2.17-.83,3.7-2.74,5.09-4.6,21.25-28.43,39.31-65.78,29.52-101.73Z"/>
    </g>
  </g>
</svg>